<?xml version="1.0" encoding="UTF-8" standalone="no"?>
<!-- Created with Inkscape (http://www.inkscape.org/) -->

<svg
   width="284.66901mm"
   height="284.66901mm"
   viewBox="0 0 284.66901 284.669"
   version="1.1"
   id="svg1"
   xml:space="preserve"
   inkscape:version="1.3.2 (091e20e, 2023-11-25, custom)"
   sodipodi:docname="adventure_motorcycle.svg"
   xmlns:inkscape="http://www.inkscape.org/namespaces/inkscape"
   xmlns:sodipodi="http://sodipodi.sourceforge.net/DTD/sodipodi-0.dtd"
   xmlns="http://www.w3.org/2000/svg"
   xmlns:svg="http://www.w3.org/2000/svg"><sodipodi:namedview
     id="namedview1"
     pagecolor="#ffffff"
     bordercolor="#666666"
     borderopacity="1.0"
     inkscape:showpageshadow="2"
     inkscape:pageopacity="0.0"
     inkscape:pagecheckerboard="0"
     inkscape:deskcolor="#d1d1d1"
     inkscape:document-units="mm"
     inkscape:zoom="0.36569515"
     inkscape:cx="328.14217"
     inkscape:cy="417.01401"
     inkscape:window-width="1920"
     inkscape:window-height="1017"
     inkscape:window-x="-8"
     inkscape:window-y="-8"
     inkscape:window-maximized="1"
     inkscape:current-layer="layer1" /><defs
     id="defs1" /><g
     inkscape:label="Layer 1"
     inkscape:groupmode="layer"
     id="layer1"
     transform="translate(47.797819,-57.484616)"><g
       id="g2057"
       transform="matrix(-0.37146826,0,0,0.37146826,666.76893,-33.198366)">
		<path
   style="fill:#070707"
   d="m 1160.428,823.904 c 0.828,10.691 3.994,21.444 9.497,32.257 14.851,29.222 40.184,49.968 73.016,55.68 25.35,4.421 48.992,0.401 70.932,-12.052 30.94,-17.563 50.954,-51.486 52.811,-87.205 0.462,-9.043 -0.384,-18.906 -1.317,-28.376 -0.131,-1.256 0.226,-1.413 1.055,-0.462 2.476,2.852 5.04,5.756 7.7,8.729 0.305,0.34 0.671,0.497 1.099,0.453 0.515,-0.044 0.89,-0.497 0.829,-1.011 -1.343,-12.096 -3.427,-23.973 -6.916,-35.405 -3.584,-11.729 -11.101,-22.909 -18.81,-32.152 -0.175,-0.218 -0.192,-0.445 -0.061,-0.689 5.407,-9.994 7.892,-20.328 7.456,-31.001 -0.044,-0.977 0.174,-1.038 0.654,-0.183 8.607,15.444 16.953,31.176 25.019,47.178 0.785,1.552 2.067,2.302 3.828,2.337 2.939,0.061 6.218,-0.096 8.973,0.741 0.305,0.096 0.506,0.305 0.593,0.61 0.462,1.666 1.509,2.799 3.157,3.392 0.34,0.131 0.549,0.366 0.619,0.724 0.41,2.18 2.913,2.599 4.701,3.227 0.314,0.113 0.444,0.497 0.261,0.776 -1.474,2.346 -2.703,4.622 -3.68,6.837 -5.424,12.322 1.578,24.557 14.171,27.897 0.506,0.139 0.671,0.462 0.506,0.959 -2.59,7.604 -4.448,15.618 -5.572,24.042 -0.942,7.064 -1.169,12.13 5.032,16.778 7.281,5.459 15.819,9.906 24.304,13.97 0.305,0.148 0.427,0.392 0.358,0.733 -0.514,2.555 0.654,4.16 3.506,4.822 4.683,1.09 9.959,1.674 15.845,1.753 20.293,0.253 40.873,0.296 60.808,-1.23 2.136,-0.166 4.29,-0.759 6.453,-1.779 0.201,-0.096 0.445,0.009 0.523,0.227 0.34,0.977 1.081,1.709 2.197,1.648 5.372,-0.305 19.316,-1.596 22.604,3.793 0.602,1.003 1.805,1.134 2.843,1.282 3.218,0.445 6.401,0.593 9.558,0.453 9.81,-0.427 19.638,-0.314 29.475,0.34 2.485,0.166 3.811,-0.933 3.968,-3.296 0.026,-0.419 0.253,-0.602 0.662,-0.549 5.834,0.733 11.651,1.622 17.458,2.669 3.637,0.654 6.741,0.977 9.314,0.951 5.119,-0.044 11.363,-0.078 16.072,-2.363 0.828,-0.401 1.762,-0.567 2.817,-0.506 2.416,0.148 6.819,-2.546 9.095,-3.854 1.387,-0.794 2.407,-1.927 3.061,-3.401 0.122,-0.253 0.427,-0.357 0.672,-0.227 0.828,0.445 1.701,0.602 2.616,0.48 0.262,-0.035 0.497,-0.174 0.663,-0.384 l 2.799,-3.636 c 0.105,-0.131 0.157,-0.305 0.14,-0.471 -0.48,-5.154 -3.593,-11.616 -6.349,-15.357 -0.776,-1.046 -1.517,-2.075 -2.224,-3.078 -0.288,-0.41 -0.2,-0.523 0.27,-0.34 2.852,1.134 5.869,2.145 9.043,3.026 1.718,0.48 3.375,1.212 4.98,2.198 0.358,0.218 0.602,0.593 0.663,1.012 0.637,4.665 0.986,9.156 2.067,13.813 9.671,41.536 39.722,75.772 82.583,84.484 9.933,2.014 20.179,3.54 30.103,3.113 26.24,-1.116 48.983,-10.264 68.238,-27.443 36.33,-32.423 45.669,-86.106 24.906,-129.778 -13.229,-27.818 -39.024,-49.445 -69.11,-57.25 -9.619,-2.494 -19.168,-3.837 -28.656,-4.038 -26.449,-0.541 -52.14,9.183 -71.595,26.222 -0.436,0.384 -0.619,0.288 -0.541,-0.288 0.332,-2.538 0.61,-5.66 -1.387,-7.561 -0.244,-0.235 -0.532,-0.305 -0.863,-0.209 l -0.951,0.27 c -0.419,0.122 -0.689,-0.026 -0.82,-0.436 -1.779,-5.625 -3.855,-11.119 -6.218,-16.491 -0.305,-0.706 -0.741,-1.317 -1.299,-1.814 -0.227,-0.201 -0.515,-0.305 -0.811,-0.288 -0.951,0.061 -1.735,0.523 -2.346,1.369 -0.175,0.235 -0.244,0.488 -0.209,0.776 0.332,2.79 0.959,5.267 1.875,7.438 0.14,0.34 0.052,0.593 -0.262,0.776 l -4.238,2.433 c -0.332,0.183 -0.637,0.148 -0.916,-0.113 l -0.619,-0.567 c -0.654,-0.611 -1.709,-0.401 -2.076,0.419 -0.706,1.57 -1.613,2.442 -3.244,3.052 -6.165,2.328 -12.435,4.753 -18.802,7.273 -0.436,0.166 -0.619,0.026 -0.558,-0.436 0.68,-5.128 1.648,-10.491 2.904,-16.098 0.078,-0.357 0.288,-0.576 0.645,-0.654 6.907,-1.578 13.857,-3.558 20.842,-5.956 23.859,-8.188 48.477,-17.589 68.351,-32.065 4.134,-3.009 8.093,-5.52 11.869,-7.535 17.179,-9.13 34.603,-18.243 52.279,-27.339 0.253,-0.131 0.523,-0.148 0.794,-0.061 15.985,5.311 31.298,10.595 45.931,15.871 1.369,0.497 2.459,1.308 3.279,2.442 9.898,13.691 19.97,27.417 30.216,41.187 2.041,2.747 4.229,5.354 6.279,8.032 2.381,3.096 3.497,7.003 5.267,10.499 0.951,1.892 2.416,2.459 4.395,1.701 l 1.762,-0.672 c 2.058,-0.785 2.651,-2.189 1.788,-4.221 -7.857,-18.479 -13.927,-33.356 -18.191,-44.64 -1.857,-4.91 -3.261,-9.479 -4.229,-13.7 -0.314,-1.378 -0.323,-2.642 0.392,-3.915 1.125,-2.014 1.465,-4.613 1.029,-7.796 -0.113,-0.837 0.244,-1.23 1.09,-1.186 6.575,0.375 13.508,-0.733 19.342,-3.288 1.421,-0.619 2.102,-1.849 2.058,-3.689 -0.113,-4.735 -0.227,-9.217 -0.357,-13.438 -0.01,-0.331 -0.114,-0.628 -0.297,-0.898 -2.233,-3.183 -5.808,-4.543 -9.584,-3.192 -4.683,1.674 -8.904,3.724 -12.653,6.157 -3.07,1.988 -5.154,4.613 -6.244,7.883 -0.105,0.323 -0.323,0.506 -0.654,0.567 -3.776,0.724 -7.412,0.453 -10.927,-0.82 -0.27,-0.096 -0.55,-0.113 -0.828,-0.044 -0.968,0.253 -1.831,0.209 -2.59,-0.131 -6.183,-2.712 -12.374,-5.38 -18.575,-8.005 -0.07,-0.026 -0.105,-0.078 -0.096,-0.157 l 0.192,-7.753 c 0,-0.148 0.07,-0.201 0.209,-0.157 2.773,0.733 4.962,0.079 6.558,-1.953 5.407,-6.854 9.933,-13.212 13.578,-19.063 0.567,-0.898 0.872,-1.744 0.916,-2.538 0.078,-1.264 -0.942,-2.311 -2.206,-2.276 l -18.261,0.549 c -0.296,0.009 -0.471,-0.331 -0.296,-0.576 0.724,-1.003 1.666,-1.796 2.808,-2.381 3.497,-1.788 7.404,-3.732 9.209,-7.29 0.584,-1.151 -0.209,-2.311 -1.491,-2.294 -18.74,0.279 -35.58,2.477 -52.663,7.09 -3.758,1.02 -7.691,1.718 -11.781,2.093 -9.113,0.837 -18.784,1.962 -27.975,3.183 -12.505,1.648 -25.097,2.389 -37.768,2.206 -3.671,-0.052 -7.212,1.465 -10.639,4.561 -4.474,4.029 -8.956,8.101 -13.465,12.226 -0.514,0.462 -1.099,0.837 -1.735,1.107 -0.157,0.07 -0.331,-0.07 -0.296,-0.244 1.456,-6.828 2.738,-13.735 3.828,-20.729 0.541,-3.462 -1.273,-6.575 -0.262,-10.107 0.253,-0.89 0.157,-1.753 -0.305,-2.599 -1.788,-3.253 -0.157,-5.581 -0.34,-8.834 -0.078,-1.543 -0.785,-3.296 -2.119,-5.258 -0.183,-0.27 -0.148,-0.515 0.113,-0.715 2.582,-2.015 4.875,-3.174 6.889,-3.471 5.755,-0.846 12.2,-3.035 19.324,-6.549 2.407,-1.186 4.142,-2.669 4.23,-5.546 0.166,-5.712 0.305,-11.075 0.41,-16.098 0.035,-1.735 -0.044,-3.479 -0.227,-5.223 -1.247,-11.834 -2.59,-23.519 -4.029,-35.048 -0.95,-7.604 -1.727,-15.078 -3.785,-22.08 -1.683,-5.72 -4.639,-10.744 -8.869,-15.06 -6.087,-6.209 -12.418,-12.723 -18.984,-19.542 -1.125,-1.16 -2.337,-2.398 -2.538,-4.081 -0.253,-2.076 -0.305,-4.413 -1.073,-6.383 -1.099,-2.834 -2.825,-5.512 -5.18,-8.04 -3.584,-3.854 -7.439,-7.43 -11.563,-10.735 -0.183,-0.139 -0.209,-0.41 -0.061,-0.593 1.387,-1.64 5.337,-3.968 2.668,-6.575 -2.825,-2.764 -7.962,-4.003 -11.72,-5.747 -0.593,-0.279 -0.959,-0.872 -0.951,-1.517 0.07,-4.744 -0.052,-8.171 -3.453,-12.017 -0.235,-0.262 -0.515,-0.358 -0.854,-0.279 -0.916,0.192 -1.788,0.558 -2.616,1.09 -3.532,2.276 -6.959,4.473 -10.299,6.601 -1.465,0.933 -3.052,1.753 -4.761,2.442 -4.753,1.927 -9.278,3.977 -13.569,6.148 -0.863,0.436 -1.456,0.201 -1.779,-0.715 l -0.192,-0.532 c -0.349,-0.994 0.026,-2.093 0.916,-2.668 3.41,-2.198 5.851,-4.317 6.95,-8.38 0.706,-2.607 1.317,-5.136 1.831,-7.587 2.485,-11.677 1.038,-26.972 -6.924,-36.6 -5.189,-6.279 -8.363,-12.662 -16.935,-15.148 -6.741,-1.945 -12.976,-2.668 -18.705,-2.154 -13.36,1.195 -25.054,5.668 -35.074,13.421 -5.52,4.273 -9.026,8.781 -11.825,14.851 -0.785,1.709 -2.607,2.529 -3.898,3.785 -5.947,5.817 -11.432,10.953 -16.447,15.418 -0.314,0.27 -0.331,0.759 -0.035,1.055 4.299,4.334 11.014,5.128 16.848,3.619 2.232,-0.584 4.517,-1.535 6.854,-2.852 0.34,-0.192 0.767,-0.096 0.994,0.218 l 2.363,3.331 c 0.218,0.305 0.288,0.637 0.192,1.003 -0.166,0.637 -0.349,1.265 -0.567,1.901 -0.549,1.622 0.933,3.645 1.797,4.997 0.201,0.322 0.288,0.671 0.244,1.046 -0.218,1.98 -0.392,4.011 -0.515,6.087 -0.096,1.648 -1.038,2.607 -2.817,2.878 -1.151,0.174 -1.543,0.82 -1.186,1.927 l 0.75,2.311 c 0.131,0.384 -0.01,0.593 -0.419,0.619 l -7.343,0.593 c -0.323,0.026 -0.541,0.331 -0.462,0.645 1.648,6.305 3.854,12.139 6.628,17.484 3.392,6.575 9.453,11.842 14.729,16.883 0.201,0.201 0.445,0.253 0.715,0.157 3.549,-1.168 7.011,-2.79 10.403,-4.875 3.968,-2.433 8.197,-4.622 12.68,-6.575 1.247,-0.541 2.485,-0.358 3.724,0.541 0.392,0.288 0.506,0.663 0.331,1.125 -0.471,1.238 -1.055,2.363 -1.753,3.384 -0.994,1.439 -3.139,2.302 -3.584,4.02 -0.863,3.349 -1.814,6.915 -1.256,10.534 0.323,2.076 0.087,4.16 -0.689,6.253 -1.57,4.186 -2.913,8.014 -2.956,12.688 -0.026,2.346 -0.044,4.648 -0.061,6.915 -0.044,4.412 0.392,8.904 1.299,13.482 0.235,1.195 -0.157,2.267 -1.195,3.218 -2.564,2.363 -6.985,-1.334 -7.718,4.195 -0.593,4.447 -0.619,8.721 -3.357,12.54 -1.352,1.892 -3.419,2.145 -5.555,2.294 -3.07,0.209 -6.462,1.16 -8.877,2.599 -2.206,1.308 -4.142,2.198 -5.817,2.66 -2.991,0.828 -7.255,1.116 -12.802,0.855 -7.718,-0.375 -15.688,-1.081 -23.502,-0.951 -2.799,0.044 -5.346,-0.122 -7.63,-0.506 -0.41,-0.07 -0.828,0.017 -1.177,0.244 l -3.828,2.477 c -0.759,0.488 -1.718,0.558 -2.538,0.183 -2.721,-1.256 -4.727,-0.096 -7.404,-0.732 -2.049,-0.488 -4.038,-0.767 -5.965,-0.846 -0.323,-0.009 -0.619,-0.113 -0.872,-0.314 -2.241,-1.674 -3.122,-4.988 -6.689,-3.54 -2.363,0.968 -4.369,2.52 -6.017,4.665 -0.183,0.236 -0.419,0.358 -0.715,0.384 -9.34,0.671 -18.627,1.814 -27.844,3.436 -0.654,0.113 -1.5,0.802 -2.555,2.067 -3.105,3.75 -6.183,7.526 -9.226,11.319 -0.192,0.235 -0.497,0.331 -0.785,0.244 -4.491,-1.317 -8.912,-2.232 -13.255,-2.747 -0.262,-0.026 -0.462,-0.244 -0.48,-0.497 -0.183,-2.773 0.078,-6.392 -1.421,-8.773 -0.567,-0.898 -0.89,-1.901 -0.968,-2.991 -0.288,-4.02 0.558,-7.726 2.529,-11.127 3.514,-6.061 7.046,-11.895 10.595,-17.502 0.148,-0.227 0.462,-0.27 0.654,-0.087 3.357,3.139 16.351,14.354 17.851,3.174 0.924,-6.872 1.003,-13.839 0.244,-20.894 -0.209,-1.962 -1.256,-7.97 -4.325,-7.247 -0.951,0.227 -1.831,0.611 -2.642,1.151 -5.014,3.34 -9.34,7.77 -12.976,13.273 -1.613,2.45 -2.189,5.11 -1.727,7.997 0.087,0.567 -0.026,1.151 -0.323,1.648 -3.593,6.026 -7.142,12.13 -10.648,18.322 -2.18,3.854 -2.416,7.918 -2.424,12.244 0,0.392 -0.157,0.776 -0.436,1.055 -2.259,2.241 -2.058,5.738 -1.98,8.755 0.01,0.392 -0.183,0.576 -0.576,0.541 -4.438,-0.427 -10.098,-0.453 -14.485,1.029 -1.483,0.497 -2.014,1.918 -2.093,3.375 -0.148,2.904 -0.078,5.503 0.227,7.805 0.052,0.384 -0.113,0.558 -0.506,0.523 -2.032,-0.174 -4.133,-0.166 -6.13,0.27 -10.63,2.293 -19.412,6.287 -25.978,15.121 -6,8.058 -4.308,18.269 0.026,26.624 0.07,0.14 0.061,0.279 -0.035,0.41 -0.017,0.026 -0.044,0.043 -0.07,0.052 -0.087,0.035 -0.166,0.026 -0.235,-0.035 -1.892,-1.666 -3.314,-3.802 -5.023,-5.581 -6.139,-6.409 -13.116,-11.633 -20.92,-15.671 -0.288,-0.148 -0.384,-0.497 -0.227,-0.776 6.767,-11.93 11.276,-24.74 13.517,-38.431 0.977,-5.939 -6.436,-4.692 -9.645,-3.706 -0.811,0.253 -0.95,0.044 -0.419,-0.61 7.43,-9.252 16.011,-20.572 20.79,-29.92 3.096,-6.061 5.154,-12.662 6.157,-19.804 0.148,-1.055 0.079,-2.049 -0.192,-2.974 -0.218,-0.724 -1.012,-1.108 -1.709,-0.811 -1.291,0.549 -2.512,1.273 -3.663,2.189 -19.394,15.313 -38.701,32.004 -54.25,51.302 -13.63,16.927 -25.464,34.934 -35.501,54.023 -0.052,0.104 -0.026,0.183 0.07,0.244 l 0.01,0.009 c 0.122,0.078 0.218,0.052 0.297,-0.07 6.54,-9.976 14.188,-18.793 23.362,-26.423 5.659,-4.709 11.834,-9.087 18.522,-13.133 0.863,-0.532 1.77,-0.977 2.712,-1.334 0.619,-0.235 0.663,-0.166 0.122,0.227 -5.18,3.758 -9.819,7.273 -13.918,10.552 -11.101,8.869 -20.894,18.95 -29.379,30.243 -1.927,2.564 -3.758,5.442 -5.511,8.625 -0.148,0.27 -0.07,0.454 0.218,0.549 0.994,0.314 3.567,-4.142 6.505,-3.322 1.221,0.34 1.666,1.142 1.325,2.398 -0.933,3.445 -1.805,7.055 -2.616,10.813 -1.544,7.186 -1.299,14.258 0.733,21.226 0.741,2.538 2.058,5.311 3.113,7.979 0.227,0.567 -0.026,1.203 -0.575,1.465 -23.144,10.979 -43.28,26.109 -60.407,45.373 -2.293,2.59 -4.255,5.189 -5.878,7.805 -0.401,0.646 -0.148,1.5 0.55,1.823 0.584,0.262 1.221,0.305 1.927,0.122 2.32,-0.593 4.421,-1.247 6.305,-1.953 19.534,-7.343 40.071,-15.784 59.16,-21.304 9.531,-2.747 19.839,-4.552 30.914,-5.415 3.131,-0.244 6.122,-0.262 8.965,-0.044 0.732,0.061 1.343,0.584 1.509,1.308 0.837,3.68 -2.843,3.671 -3.532,6.331 -0.549,2.145 -1.779,4.055 -3.689,5.738 -0.602,0.532 -0.724,1.439 -0.279,2.11 0.916,1.395 0.288,2.651 -0.427,4.125 -3.968,8.189 -7.97,16.36 -12.008,24.505 -0.41,0.828 -0.846,1.57 -1.308,2.224 -0.201,0.288 -0.558,0.419 -0.907,0.331 -6.375,-1.692 -12.802,-3.009 -19.298,-3.95 -17.738,-2.573 -34.803,-4.857 -51.817,-0.375 -8.903,2.346 -18.217,5.782 -27.94,10.325 -0.532,0.253 -0.68,0.942 -0.288,1.387 0.488,0.558 1.142,0.82 1.953,0.785 7.971,-0.357 15.479,-0.828 22.516,-1.421 2.921,-0.244 5.851,-0.279 8.807,-0.105 1.666,0.096 1.692,0.323 0.061,0.698 -14.398,3.296 -27.112,8.921 -38.85,17.511 -34.514,25.258 -48.467,65.172 -45.197,107.266 z m 648.577,-224.317 c 4.526,-1.578 8.904,-3.061 13.115,-4.43 1.701,-0.558 3.462,-0.994 5.293,-1.308 0.323,-0.061 0.436,0.07 0.349,0.384 -1.788,6.462 -5.799,6.872 -10.892,9.427 -0.759,0.375 -1.491,0.34 -2.206,-0.122 -2.451,-1.561 -4.334,-2.573 -5.66,-3.043 -0.854,-0.306 -0.854,-0.603 0,-0.908 z m -91.478,187.682 c 5.232,0.305 10.342,0.82 15.322,1.544 0.384,0.052 0.715,0.279 0.916,0.61 l 0.392,0.663 c 0.131,0.227 0.296,0.419 0.515,0.567 0.166,0.122 0.349,0.183 0.549,0.183 0.602,0.009 0.61,0.096 0.035,0.262 -1.282,0.375 -2.538,0.453 -3.785,0.235 -4.482,-0.759 -9.27,-1.544 -14.354,-2.354 -0.288,-0.044 -0.401,-0.209 -0.34,-0.497 l 0.183,-0.785 c 0.07,-0.306 0.262,-0.445 0.567,-0.428 z m 31.943,-6.418 c -2.416,-0.209 -5.799,3.244 -7.796,1.36 -0.288,-0.27 -0.75,-0.218 -0.968,0.114 -0.192,0.288 -0.427,0.375 -0.698,0.279 -1.761,-0.619 -2.293,0.628 -3.654,1.073 -1.823,0.602 -3.165,1.395 -5.223,0.855 -2.642,-0.706 -5.459,-0.907 -8.459,-0.61 -0.672,0.07 -1.605,-0.07 -2.791,-0.427 -0.34,-0.096 -0.436,-0.305 -0.288,-0.619 1.474,-3.261 4.587,-6.584 6.994,-9.122 0.462,-0.488 1.107,-0.759 1.779,-0.732 l 17.519,0.637 c 0.332,0.009 0.584,0.157 0.759,0.445 l 3.479,5.686 c 0.481,0.79 0.262,1.139 -0.653,1.061 z m 47.745,-21.13 c -2.328,4.761 -4.831,9.627 -7.482,14.572 -3.34,-0.767 -6.802,-1.186 -10.369,-1.186 -5.119,0 -10.028,0.846 -14.624,2.381 -0.41,-0.541 -0.889,-1.038 -1.448,-1.465 -1.02,-0.794 -0.933,-1.43 0.271,-1.91 1.613,-0.628 3.261,-1.177 4.927,-1.639 4.491,-1.238 7.247,-3.994 8.267,-8.276 0.462,-1.953 -0.671,-2.825 -2.389,-2.991 -6.846,-0.68 -13.639,-1.003 -20.397,-0.968 -0.811,0.009 -1.465,-0.663 -1.439,-1.474 0.061,-1.805 2.45,-2.773 3.924,-3.357 10.927,-4.317 22.377,-5.555 34.35,-3.724 2.572,0.392 4.351,1.047 5.337,1.971 2.31,2.136 2.667,4.831 1.072,8.066 z m 43.994,44.771 c -5.267,0.837 -11.101,1.605 -17.493,2.32 -3.34,-12.052 -11.45,-22.106 -22.185,-28.019 2.799,-4.979 5.546,-10.02 8.241,-15.13 1.875,-3.584 5.407,-4.988 8.938,-2.546 13.089,9.043 24.147,21.958 28.673,37.167 1.291,4.324 -3.052,5.711 -6.174,6.208 z m -33.042,50.561 c 10.508,-8.433 17.24,-21.383 17.24,-35.902 0,-0.114 -0.01,-0.227 -0.01,-0.34 4.744,-0.689 9.671,-1.238 14.807,-1.622 2.503,-0.183 4.596,0.035 6.261,0.654 4.787,1.796 4.037,5.25 3.584,9.217 -1.596,14.049 -6.924,26.423 -15.985,37.123 -1.927,2.276 -5.276,6.453 -7.517,7.36 -2.982,1.203 -5.503,0.558 -7.561,-1.927 -3.009,-3.636 -6.305,-7.997 -9.872,-13.063 -0.302,-0.436 -0.66,-0.95 -0.948,-1.5 z m -56.822,16.84 c 2.468,-3.192 4.91,-6.287 7.308,-9.279 0.427,-0.532 0.942,-1.073 1.526,-1.613 5.843,2.686 12.331,4.195 19.185,4.195 6.253,0 12.217,-1.256 17.659,-3.523 0.593,0.078 1.081,0.419 1.474,1.029 2.451,3.846 4.849,7.674 7.194,11.485 2.607,4.238 3.375,9.034 -2.503,11.04 -8.476,2.895 -17.694,4.116 -27.644,3.663 -8.685,-0.392 -16.97,-2.293 -24.853,-5.703 -1.77,-0.767 -2.782,-2.014 -3.043,-3.75 -0.402,-2.713 2.118,-5.495 3.697,-7.544 z m -37.359,-30.784 32.667,10.447 c 0.855,0.855 1.744,1.674 2.66,2.468 -3.288,4.238 -6.802,8.354 -10.552,12.348 -1.003,1.064 -1.997,1.762 -2.991,2.093 -4.125,1.36 -6.296,-0.445 -8.764,-3.392 -5.982,-7.151 -10.866,-14.956 -13.395,-23.589 -0.069,-0.235 0.149,-0.445 0.375,-0.375 z m -3.828,-19.342 c 0.14,-1.334 1.326,-2.32 2.669,-2.198 1.195,0.105 2.354,0.262 3.488,0.471 5.372,0.985 10.918,2.032 16.647,3.139 0.27,0.052 0.462,0.201 0.576,0.445 0.785,8.136 3.698,15.653 8.154,21.993 -3.314,-0.951 -6.663,-1.927 -9.906,-3.113 -2.198,-0.802 -4.352,-1.517 -6.471,-2.137 -3.584,-1.055 -7.621,-2.311 -12.104,-3.767 -0.672,-0.218 -1.116,-0.698 -1.334,-1.422 -1.536,-5.17 -2.111,-9.635 -1.719,-13.411 z M 1419.749,536.459 c 0,0.087 -0.07,0.157 -0.157,0.166 h -0.558 c -0.087,0.009 -0.157,-0.061 -0.157,-0.148 v -0.105 c -0.061,-3.95 0.052,-7.159 0.253,-7.159 h 0.157 c 0.201,0 0.401,3.192 0.462,7.142 z m 13.726,17.127 c 0,0.026 -0.026,0.044 -0.044,0.044 l -12.026,-0.506 c -0.026,0 -0.043,-0.017 -0.043,-0.044 v -0.018 c 0.052,-1.299 1.256,-2.293 2.686,-2.241 l 6.933,0.297 c 1.43,0.061 2.546,1.16 2.494,2.451 z m 47.84,-23.998 c -0.061,0.462 -0.314,0.785 -0.759,0.959 -0.558,0.209 -0.968,0.035 -1.238,-0.514 -0.157,-0.323 -0.07,-0.567 0.253,-0.733 0.419,-0.218 0.872,-0.287 1.369,-0.209 0.288,0.043 0.41,0.209 0.375,0.497 z m 171.663,236.42 c -1.988,-0.235 -3.872,-0.706 -5.642,-1.395 -0.296,-0.113 -0.497,-0.323 -0.61,-0.628 -0.183,-0.48 -0.253,-0.994 -0.227,-1.561 0.026,-0.392 0.227,-0.549 0.61,-0.48 1.509,0.27 5.634,1.265 6.671,2.738 0.419,0.603 -0.07,1.414 -0.802,1.326 z m 7.665,8.119 c -0.34,-0.043 -0.567,-0.366 -0.48,-0.697 l 1.57,-6.366 c 0.087,-0.349 0.471,-0.523 0.794,-0.375 l 14.084,6.724 c 0.166,0.078 0.279,0.227 0.314,0.41 l 0.279,1.544 c 0.061,0.375 -0.253,0.706 -0.628,0.663 z m -12.967,33.618 c 3.881,0.715 7.569,1.709 11.066,2.991 0.358,0.131 0.654,0.044 0.89,-0.253 0.41,-0.506 0.663,-1.064 0.767,-1.683 0.044,-0.262 0.314,-0.41 0.558,-0.305 l 8.459,3.558 c 0.122,0.044 0.201,0.166 0.192,0.297 l -0.366,8.633 c -0.01,0.139 -0.078,0.183 -0.209,0.131 -4.421,-1.622 -9.008,-3.026 -13.743,-4.203 -1.02,-0.253 -2.154,-0.785 -3.401,-1.587 -0.262,-0.166 -0.419,-0.462 -0.427,-0.776 l -0.035,-1.613 c -0.01,-0.331 -0.122,-0.619 -0.349,-0.872 -1.229,-1.343 -2.912,-2.145 -3.767,-3.837 -0.123,-0.246 0.095,-0.534 0.365,-0.481 z m -1.849,-36.94 0.323,-4.055 c 0.035,-0.375 0.392,-0.628 0.759,-0.541 l 5.293,1.334 c 0.331,0.078 0.523,0.41 0.445,0.741 l -0.942,3.724 c -0.087,0.323 -0.401,0.523 -0.724,0.453 l -4.674,-1.012 c -0.297,-0.06 -0.506,-0.339 -0.48,-0.644 z m -1.744,-43.716 c -0.532,-0.131 -1.046,-0.096 -1.535,0.105 -0.288,0.113 -0.471,0.331 -0.541,0.637 -0.192,0.855 -0.549,1.613 -1.081,2.285 -0.384,0.497 -0.584,0.427 -0.602,-0.201 l -0.043,-2.224 c -0.01,-0.445 -0.174,-0.82 -0.497,-1.125 -1.98,-1.875 -2.991,-4.194 -3.043,-6.959 -0.01,-0.27 0.227,-0.488 0.506,-0.453 1.596,0.183 3.13,0.061 4.622,-0.375 0.384,-0.113 0.776,0.122 0.863,0.506 0.933,4.308 2.59,7.857 4.971,10.639 1.317,1.544 1.823,3.349 1.518,5.424 -0.41,2.756 -6.096,3.654 -8.267,3.959 -1.099,0.148 -1.622,-0.323 -1.561,-1.43 0.026,-0.61 0.183,-1.195 0.462,-1.761 1.491,-3.017 3.035,-5.659 4.631,-7.936 0.277,-0.402 0.077,-0.969 -0.403,-1.091 z m -34.455,29.362 c -0.549,0.462 -1.395,0.14 -1.483,-0.576 -0.776,-6.287 -1.107,-12.915 -0.977,-19.874 0.087,-4.447 5.538,-5.904 5.25,-10.09 -0.026,-0.314 0.122,-0.497 0.436,-0.549 3.977,-0.654 7.814,-0.732 11.52,-0.235 1.587,0.218 3.183,0.131 4.77,-0.07 0.514,-0.061 0.672,0.139 0.462,0.619 -1.395,3.165 -2.991,6.2 -4.796,9.096 -1.02,1.639 -1.7,1.509 -2.04,-0.392 -0.183,-1.029 -0.549,-1.91 -1.081,-2.642 -0.793,-1.073 -2.433,-0.968 -3.07,0.209 l -1.43,2.634 c -0.07,0.122 -0.166,0.227 -0.288,0.305 -0.881,0.567 -1.613,1.238 -2.198,2.023 -0.192,0.253 -0.27,0.541 -0.236,0.855 0.401,3.305 1.073,6.645 2.006,10.02 0.079,0.27 0.044,0.532 -0.096,0.768 -1.656,2.858 -3.906,5.492 -6.749,7.899 z m -10.647,78.658 1.073,-9.593 c 0.061,-0.514 0.366,-0.968 0.828,-1.212 1.465,-0.767 3.235,-1.395 5.311,-1.875 3.34,-0.768 5.093,7.613 5.45,9.802 0.061,0.384 -0.192,0.75 -0.575,0.828 -1.901,0.392 -4.5,1.5 -5.686,3.166 -0.462,0.654 -1.134,0.907 -2.006,0.741 -1.422,-0.27 -2.738,-0.637 -3.95,-1.116 -0.297,-0.121 -0.48,-0.418 -0.445,-0.741 z M 1425.818,582.695 c -0.331,0.279 -0.75,0.436 -1.186,0.436 -1.282,0.009 -2.669,-0.349 -4.169,-1.055 -0.235,-0.113 -0.297,-0.297 -0.183,-0.532 0.811,-1.648 0.384,-2.878 -1.264,-3.671 -1.483,-0.715 -2.895,-1.474 -4.23,-2.285 -0.436,-0.262 -0.532,-0.837 -0.218,-1.229 l 3.732,-4.596 c 0.253,-0.314 0.288,-0.654 0.113,-1.012 -0.811,-1.701 -2.11,-3 -3.898,-3.907 -0.27,-0.131 -0.34,-0.34 -0.227,-0.619 1.378,-3.279 2.965,-6.279 4.761,-8.991 0.157,-0.235 0.375,-0.357 0.654,-0.349 l 13.56,0.201 c 0.462,0.009 0.881,0.235 1.134,0.619 4.395,6.593 13.743,-1.43 5.625,-6.017 -0.453,-0.253 -0.532,-0.593 -0.227,-1.02 l 1.814,-2.581 c 0.27,-0.384 0.619,-0.497 1.064,-0.349 3.2,1.108 6.505,1.674 9.915,1.7 0.375,0 0.724,-0.105 1.047,-0.305 l 0.724,-0.48 c 0.253,-0.166 0.515,-0.201 0.802,-0.105 3.288,1.012 6.575,1.544 9.854,1.596 3.436,0.052 4.718,-3.915 5.86,-6.471 0.977,-2.18 3.148,-2.477 4.692,-0.514 1.404,1.788 3.331,2.389 5.764,1.805 5.232,-1.256 6.497,-6.34 11.598,-7.43 3.183,-0.689 5.939,-1.055 8.25,-1.108 2.948,-0.07 4.814,1.578 7.125,3.026 2.154,1.343 4.613,-1.36 7.046,0.122 1.291,0.785 2.66,1.334 4.116,1.735 19.324,5.363 39.233,11.406 59.299,10.648 10.778,-0.41 22.516,-3.34 33.556,-5.442 1.7,-0.323 2.633,0.349 2.791,2.014 0.392,4.247 0.087,8.049 -0.924,11.407 -2.826,9.374 2.136,14.868 8.311,20.755 0.55,0.523 0.532,1.404 -0.044,1.91 l -3.41,2.982 c -0.27,0.244 -0.584,0.305 -0.933,0.174 -2.555,-0.898 -4.474,-2.468 -7.159,-0.506 -0.863,0.628 -1.7,1.186 -2.511,1.674 -0.401,0.236 -0.89,0.253 -1.299,0.052 -0.933,-0.453 -1.796,-0.602 -2.608,-0.436 -7.159,1.474 -21.897,4.779 -44.213,9.924 -0.872,0.201 -1.761,0.288 -2.66,0.253 -0.296,-0.009 -0.541,-0.131 -0.732,-0.366 -0.854,-1.046 -1.509,-1.735 -1.962,-2.058 -10.901,-7.909 -21.679,-14.424 -32.344,-19.534 -8.712,-4.177 -18.13,-6.165 -28.237,-5.956 -5.756,0.122 -10.918,0.654 -15.479,1.605 -15.601,3.235 -32.091,7.351 -49.471,12.348 -1.334,0.386 -2.537,1.031 -3.619,1.938 z m -17.668,10.046 c 0.087,-0.497 0.453,-0.907 0.933,-1.064 3.383,-1.09 4.107,-5.904 3.645,-8.834 -0.044,-0.305 -0.27,-0.558 -0.576,-0.637 -0.558,-0.148 -1.116,-0.349 -1.674,-0.602 -0.314,-0.14 -0.453,-0.366 -0.427,-0.689 0.026,-0.279 0.279,-0.488 0.558,-0.462 2.886,0.27 5.398,1.151 7.517,2.642 1.849,1.308 3.985,2.276 6.296,1.884 0.201,-0.035 0.34,0.201 0.218,0.366 -2.302,3.052 -4.168,6.427 -5.607,10.116 -0.105,0.279 -0.393,0.445 -0.689,0.392 -2.843,-0.488 -5.939,-1.116 -9.296,-1.883 -0.706,-0.156 -1.011,-0.566 -0.898,-1.229 z m -17.964,-28.551 c 0.261,-0.358 0.392,-0.314 0.401,0.131 0.01,0.462 -0.096,0.855 -0.314,1.195 -0.218,0.34 -0.357,0.305 -0.419,-0.087 -0.06,-0.428 0.045,-0.846 0.332,-1.239 z m -13.778,-2.808 c -0.017,-5.04 2.32,-8.904 5.982,-12.147 7.395,-6.54 15.915,-9.418 25.568,-8.642 1.465,0.113 1.936,0.863 1.422,2.233 l -0.672,1.779 c -0.549,1.456 -1.422,1.692 -2.634,0.707 -1.177,-0.968 -2.128,-0.863 -2.834,0.323 -0.148,0.253 -0.192,0.523 -0.131,0.811 l 0.698,3.314 c 0.131,0.636 -0.401,1.203 -1.046,1.116 -3.218,-0.445 -5.136,0.863 -5.773,3.942 -0.174,0.872 0.27,1.735 1.073,2.102 0.706,0.323 1.474,0.48 2.285,0.48 0.288,0 0.497,0.279 0.401,0.558 l -1.727,4.84 c -0.14,0.401 -0.645,0.532 -0.968,0.253 -2.137,-1.884 -4.317,-1.988 -6.558,-0.314 -0.375,0.279 -0.523,0.192 -0.453,-0.27 l 0.331,-2.084 c 0.122,-0.82 -0.61,-1.517 -1.421,-1.343 -3.759,0.794 -5.145,2.965 -4.177,6.532 0.079,0.27 -0.148,0.523 -0.418,0.488 l -2.381,-0.323 c -0.297,-0.044 -0.541,0.052 -0.733,0.279 -2.128,2.529 -1.84,4.543 -2.424,7.342 -0.375,1.797 -0.872,1.831 -1.5,0.114 -1.247,-3.413 -1.884,-7.441 -1.91,-12.09 z m -91.347,174.907 c -2.991,6.488 -6.444,13.665 -10.351,21.539 -0.148,0.305 -0.393,0.462 -0.724,0.471 -3.043,0.096 -6.061,-0.174 -9.122,0.096 -6.34,0.549 -12.139,2.11 -17.955,4.517 -0.323,0.131 -0.602,0.07 -0.837,-0.201 -3.331,-3.863 -7.22,-8.852 -11.668,-14.965 -1.674,-2.293 -2.215,-4.779 -1.622,-7.456 0.349,-1.587 1.927,-2.45 3.279,-3.104 11.964,-5.808 25.158,-8.136 39.582,-6.976 2.546,0.201 4.962,0.619 7.255,1.256 2.59,0.724 3.314,2.329 2.163,4.823 z m -42.12,45.251 c 0.384,-0.41 0.82,-0.48 1.308,-0.209 l 0.288,0.166 c 0.227,0.131 0.288,0.427 0.122,0.628 -5.616,6.828 -8.555,13.691 -8.816,20.589 -0.01,0.393 -0.201,0.515 -0.567,0.366 l -0.985,-0.401 c -0.384,-0.157 -0.567,-0.445 -0.558,-0.864 0.166,-4.186 1.3,-8.249 3.384,-12.191 1.455,-2.756 3.4,-5.451 5.824,-8.084 z m 54.991,36.05 c 0.096,-0.14 0.218,-0.253 0.366,-0.349 0.811,-0.514 1.36,-0.602 1.648,-0.27 0.584,0.689 0.619,1.465 0.096,2.328 -2.616,4.299 -5.79,8.241 -9.514,11.816 -0.357,0.34 -0.951,0.201 -1.125,-0.262 -0.061,-0.157 -0.087,-0.323 -0.07,-0.497 0.061,-0.959 0.392,-1.788 0.977,-2.494 2.695,-3.252 5.233,-6.67 7.622,-10.272 z m 6.558,-75.127 c -1.247,3.654 -2.686,6.697 -4.325,9.131 -0.558,0.837 -1.003,1.744 -1.343,2.729 -0.846,2.512 -2.023,4.962 -3.523,7.343 -0.061,0.087 -0.139,0.148 -0.235,0.192 -0.192,0.078 -0.349,-0.052 -0.48,-0.392 -0.044,-0.122 -0.052,-0.244 -0.01,-0.366 0.916,-2.799 2.241,-5.59 3.985,-8.354 0.332,-0.523 0.48,-1.09 0.445,-1.692 -0.01,-0.288 0.044,-0.549 0.174,-0.802 l 4.186,-8.031 c 0.122,-0.236 0.41,-0.34 0.654,-0.227 l 0.323,0.139 c 0.148,0.069 0.201,0.182 0.148,0.33 z m 17.302,18.793 -3.401,6.724 c -0.532,1.047 -1.308,1.291 -2.337,0.741 l -0.785,-0.41 c -0.994,-0.532 -1.421,-1.727 -0.994,-2.773 l 3.645,-8.799 c 0.148,-0.357 0.619,-0.419 0.863,-0.122 l 2.895,3.601 c 0.262,0.323 0.297,0.672 0.114,1.038 z m 4.037,7.168 c 0.436,1.195 -0.288,2.503 -1.535,2.764 -1.927,0.41 -3.872,0.593 -5.843,0.558 -0.602,-0.018 -0.907,-0.741 -0.48,-1.177 2.075,-2.119 3.218,-4.413 4.587,-6.941 0.105,-0.201 0.375,-0.218 0.515,-0.044 1.239,1.587 2.155,3.201 2.756,4.84 z m -3.2,11.119 c -0.288,-0.166 -0.366,-0.41 -0.253,-0.715 0.863,-2.32 1.727,-5.459 4.447,-6.052 0.602,-0.131 1.021,0.096 1.256,0.663 2.651,6.357 4.439,12.505 5.354,18.444 0.794,5.128 -4.909,6.287 -8.79,5.625 -0.384,-0.07 -0.584,-0.296 -0.61,-0.689 l -0.384,-7.691 c -0.017,-0.358 0.087,-0.672 0.323,-0.942 0.82,-0.968 1.927,-1.797 2.215,-3.07 0.715,-3.097 -1.265,-4.231 -3.558,-5.573 z m 15.13,-194.903 c -0.323,-0.288 -0.436,-0.637 -0.357,-1.055 l 0.985,-4.788 c 0.07,-0.323 0.488,-0.41 0.68,-0.139 4.282,6.104 8.703,10.517 15.854,13.717 5.223,2.328 10.063,3.061 14.52,2.215 0.785,-0.148 0.968,0.122 0.549,0.793 -1.177,1.893 -2.154,3.724 -2.912,5.512 -0.209,0.488 -0.733,0.767 -1.247,0.663 -0.985,-0.192 -1.901,-0.497 -2.738,-0.907 -9.097,-4.5 -17.861,-9.331 -25.334,-16.011 z m 1.456,127.781 c 4.326,-9.192 8.799,-18.147 13.107,-27.147 0.052,-0.096 0.122,-0.174 0.218,-0.227 0.104,-0.061 0.218,-0.07 0.34,-0.044 0.209,0.061 0.357,0.235 0.392,0.445 1.997,12.688 0.305,24.539 -5.075,35.553 -0.174,0.358 -0.654,0.436 -0.933,0.157 l -7.918,-7.997 c -0.192,-0.19 -0.244,-0.487 -0.131,-0.74 z m -12.627,-9.697 c -1.073,2.102 -1.413,1.988 -1.003,-0.34 0.419,-2.442 -0.087,-4.421 1.073,-6.776 3.846,-7.77 7.753,-15.627 11.72,-23.571 0.27,-0.549 0.654,-0.637 1.151,-0.279 l 0.793,0.567 c 0.541,0.393 0.672,0.898 0.384,1.509 -4.822,10.228 -9.523,19.864 -14.118,28.89 z m -30.74,144.054 c 6.654,-5.311 11.947,-11.546 15.889,-18.705 1.386,-2.511 2.285,-5.346 3.427,-8.023 0.183,-0.427 0.375,-0.436 0.567,-0.009 0.898,1.945 2.232,3.314 3.985,4.125 2.477,1.142 6.157,0.131 6.567,-2.921 0.174,-1.282 -0.035,-2.573 -0.619,-3.872 -0.916,-1.997 -1.343,-4.16 -1.291,-6.505 0.01,-0.375 0.192,-0.576 0.567,-0.619 3.95,-0.419 9.191,0.924 8.712,5.956 -0.227,2.416 -0.689,4.971 -1.395,7.674 -2.939,11.293 -7.874,21.531 -14.799,30.714 -1.604,2.128 -3.331,4.081 -5.18,5.852 -2.041,1.953 -6.069,0.951 -7.857,-0.637 -0.262,-0.235 -1.36,-1.665 -3.296,-4.29 -1.831,-2.485 -3.636,-5.093 -5.424,-7.805 -0.202,-0.308 -0.132,-0.709 0.147,-0.935 z m -59.543,22.045 c 3.279,-5.982 6.296,-11.206 9.043,-15.679 0.192,-0.305 0.453,-0.392 0.785,-0.244 12.034,5.136 24.487,5.459 37.35,0.985 0.48,-0.166 0.951,-0.384 1.404,-0.672 0.305,-0.183 0.706,-0.096 0.898,0.201 2.642,4.011 5.38,8.127 8.214,12.339 3,4.456 0.837,7.212 -3.384,9.078 -15.557,6.88 -34.707,7.918 -50.919,2.633 -3.784,-1.229 -5.301,-5.153 -3.391,-8.641 z m -30.836,-51.686 c 5.049,-0.724 10.142,-1.509 15.104,-1.788 0.314,-0.017 0.497,0.131 0.549,0.436 2.11,11.563 6.453,20.179 14.895,28.499 0.201,0.201 0.235,0.436 0.105,0.689 -2.582,4.953 -5.224,9.741 -7.927,14.363 -1.317,2.241 -2.808,3.837 -4.465,4.77 -2.729,1.535 -5.284,1.143 -7.657,-1.168 -8.912,-8.686 -15.182,-18.819 -18.801,-30.4 -0.846,-2.695 -1.43,-5.398 -1.77,-8.11 -0.663,-5.347 6.191,-6.751 9.967,-7.291 z m -11.162,-19.011 c 2.416,-16.665 9.68,-31.83 20.798,-44.483 4.491,-5.119 8.581,-2.826 11.851,1.849 3.296,4.718 6.401,9.156 9.314,13.334 0.392,0.558 0.323,1.317 -0.166,1.796 -8.843,8.747 -14.057,19.176 -15.653,31.307 -0.148,1.108 -1.02,1.988 -2.128,2.136 -5.572,0.741 -11.345,1.387 -17.328,1.953 -2.851,0.27 -6.68,-0.706 -7.063,-3.933 -0.061,-0.506 0.07,-1.822 0.375,-3.959 z"
   id="path2057" />
	</g></g></svg>
