<?xml version="1.0" encoding="UTF-8" standalone="no"?>
<!-- Created with Inkscape (http://www.inkscape.org/) -->

<svg
   width="284.66901mm"
   height="284.66901mm"
   viewBox="0 0 284.66901 284.669"
   version="1.1"
   id="svg1"
   xml:space="preserve"
   inkscape:version="1.3.2 (091e20e, 2023-11-25, custom)"
   sodipodi:docname="atv_quad.svg"
   xmlns:inkscape="http://www.inkscape.org/namespaces/inkscape"
   xmlns:sodipodi="http://sodipodi.sourceforge.net/DTD/sodipodi-0.dtd"
   xmlns="http://www.w3.org/2000/svg"
   xmlns:svg="http://www.w3.org/2000/svg"><sodipodi:namedview
     id="namedview1"
     pagecolor="#ffffff"
     bordercolor="#666666"
     borderopacity="1.0"
     inkscape:showpageshadow="2"
     inkscape:pageopacity="0.0"
     inkscape:pagecheckerboard="0"
     inkscape:deskcolor="#d1d1d1"
     inkscape:document-units="mm"
     inkscape:zoom="0.36569515"
     inkscape:cx="328.14217"
     inkscape:cy="417.01401"
     inkscape:window-width="1920"
     inkscape:window-height="1017"
     inkscape:window-x="-8"
     inkscape:window-y="-8"
     inkscape:window-maximized="1"
     inkscape:current-layer="layer1" /><defs
     id="defs1" /><g
     inkscape:label="Layer 1"
     inkscape:groupmode="layer"
     id="layer1"
     transform="translate(47.797819,-57.484616)"><g
       inkscape:label="Layer 1"
       id="layer1-3"
       transform="matrix(8.3248245,0,0,8.3248245,-806.29914,-792.18974)"><path
         style="fill:#000000"
         d="m 108.77567,109.32317 c 0.55862,-0.085 0.9743,-0.30146 1.41497,-0.73687 0.25511,-0.25207 0.32959,-0.35329 0.46723,-0.635 0.0901,-0.18433 0.18842,-0.43039 0.21859,-0.54681 0.0813,-0.31363 0.0737,-0.92025 -0.0157,-1.26248 -0.23017,-0.88074 -0.95019,-1.6018 -1.82221,-1.82482 -0.37105,-0.0949 -0.9293,-0.0952 -1.29899,-6.2e-4 -0.82228,0.21031 -1.50089,0.8485 -1.78725,1.68081 -0.22063,0.64127 -0.13068,1.49691 0.21938,2.08673 0.24942,0.42028 0.74123,0.85844 1.18265,1.05366 0.3959,0.17509 0.98449,0.25186 1.42133,0.1854 z"
         id="path25" /><path
         style="fill:#000000"
         d="m 110.34577,127.44761 c 0.50117,-0.1296 0.80374,-0.49718 0.80295,-0.97548 -3.2e-4,-0.1946 -0.74127,-4.88404 -0.85642,-5.42027 -0.0214,-0.0998 -0.0897,-0.26652 -0.15166,-0.37042 -0.10625,-0.17812 -0.20219,-0.24951 -1.68238,-1.25168 -0.86334,-0.58453 -1.5669,-1.07666 -1.56348,-1.09361 0.009,-0.0441 1.92142,-5.56767 1.9314,-5.57814 0.005,-0.005 0.30865,0.17635 0.67575,0.40254 0.3671,0.22618 0.77858,0.45874 0.9144,0.51679 l 0.24694,0.10556 2.23407,-0.0237 c 2.40156,-0.0255 2.34293,-0.0206 2.57408,-0.21547 0.35691,-0.30095 0.3857,-0.99913 0.0552,-1.33941 -0.24742,-0.25476 -0.14572,-0.245 -2.44685,-0.23474 l -2.06375,0.009 -0.80113,-0.48798 -0.80113,-0.48798 -10e-4,-0.14549 c -0.003,-0.2883 -0.15301,-0.57312 -0.38701,-0.73408 -0.0693,-0.0477 -0.75302,-0.30568 -1.51943,-0.57338 -1.34483,-0.46975 -1.40342,-0.48675 -1.67846,-0.48703 -0.25586,-2.6e-4 -0.30262,0.0106 -0.45752,0.10637 -0.0949,0.0587 -0.21684,0.1698 -0.271,0.24695 -0.0659,0.0939 -0.57876,1.52291 -1.55065,4.32069 -1.33876,3.85391 -1.45214,4.19833 -1.45169,4.40972 2.8e-4,0.12683 0.0247,0.28563 0.0547,0.35535 0.07,0.16287 0.25628,0.37417 0.39152,0.4441 0.0585,0.0303 0.63026,0.23659 1.27054,0.45851 l 1.16416,0.40348 1.59688,1.07578 c 1.33484,0.89924 1.60005,1.09145 1.61617,1.17129 0.0106,0.0525 0.18643,1.13533 0.39073,2.40621 0.27449,1.70761 0.39167,2.35504 0.44892,2.4806 0.0824,0.1806 0.26607,0.36884 0.45801,0.46931 0.14946,0.0782 0.61882,0.0982 0.85759,0.0364 z"
         id="path23" /><path
         style="fill:#000000"
         d="m 111.54021,127.8215 c 0.012,-0.0728 0.022,-0.20963 0.0223,-0.30415 10e-4,-0.48866 0.24522,-1.58583 0.49495,-2.22458 1.26937,-3.24662 4.62617,-5.24104 8.04266,-4.77849 0.47339,0.0641 1.18921,0.23318 1.57791,0.37275 0.0344,0.0123 -0.3304,-0.2754 -0.81062,-0.63942 -0.48022,-0.36402 -0.87312,-0.67824 -0.87312,-0.69828 0,-0.02 0.14654,-0.18907 0.32564,-0.37564 0.17911,-0.18656 0.40288,-0.42062 0.49728,-0.52014 l 0.17164,-0.18093 -1.19788,-1.86989 -1.19789,-1.86988 -0.68937,-0.7714 c -0.37916,-0.42427 -0.72667,-0.79393 -0.77225,-0.82146 -0.0733,-0.0443 -1.0966,-0.36288 -1.10818,-0.34504 -0.003,0.004 -0.0222,0.11694 -0.0438,0.25126 -0.025,0.15585 -0.0765,0.30429 -0.14241,0.41025 l -0.10322,0.16604 0.46665,0.13655 0.46665,0.13656 0.49799,0.5629 c 0.27389,0.3096 0.49077,0.57011 0.48196,0.57892 -0.009,0.009 -0.83765,0.2891 -1.84186,0.62287 -2.00422,0.66614 -3.18782,1.097 -3.73034,1.35793 -0.54743,0.2633 -1.48162,0.89738 -2.85929,1.94075 l -0.49517,0.37502 0.58145,0.38524 c 0.31979,0.21189 0.65889,0.44607 0.75353,0.52042 0.2008,0.15771 0.35955,0.39241 0.43354,0.64094 0.0289,0.097 0.24363,1.35114 0.47722,2.78694 0.46916,2.88376 0.47475,2.94392 0.30733,3.30541 -0.10676,0.23053 -0.34421,0.48407 -0.55318,0.59068 -0.16938,0.0864 -0.58027,0.1785 -0.79647,0.1785 -0.084,0 -0.26064,-0.0333 -0.39253,-0.0741 -0.20252,-0.0625 -0.2735,-0.1078 -0.45659,-0.29104 -0.15443,-0.15456 -0.23744,-0.27279 -0.28856,-0.411 -0.042,-0.11365 -0.21313,-1.07088 -0.41302,-2.3107 -0.18769,-1.16417 -0.35808,-2.21608 -0.37864,-2.33759 l -0.0374,-0.22092 -1.0811,-0.72834 c -0.5946,-0.40058 -1.28747,-0.86837 -1.5397,-1.03951 l -0.45861,-0.31117 -1.17546,-0.40653 c -0.64651,-0.22359 -1.20839,-0.42414 -1.24864,-0.44568 -0.0402,-0.0215 -0.14267,-0.10323 -0.22763,-0.18154 l -0.15445,-0.14237 -2.459834,-0.64738 c -1.3529,-0.35606 -2.46885,-0.6474 -2.47987,-0.64741 -0.011,-2e-5 -0.0641,0.44844 -0.11784,0.99657 -0.057,0.58086 -0.11486,1.01338 -0.1387,1.03682 -0.0225,0.0221 -0.37429,0.30604 -0.78175,0.63091 -0.43583,0.3475 -0.70451,0.58323 -0.65263,0.57257 0.0485,-0.01 0.24695,-0.0589 0.44097,-0.10885 1.15131,-0.29611 2.49344,-0.2914 3.67364,0.0129 2.500174,0.64464 4.508294,2.51861 5.313634,4.95865 0.23865,0.72308 0.37897,1.48238 0.37897,2.05065 v 0.25669 h 3.13511 3.13511 z"
         id="path22" /><path
         id="path15"
         style="fill:#000000"
         d="m 97.081076,122.00134 c 0.35436,-0.0128 0.71328,-0.006 0.97255,0.0243 2.281344,0.26522 4.274024,1.89092 5.006414,4.0845 0.4563,1.36669 0.4039,2.91172 -0.14366,4.22972 -0.85412,2.05586 -2.73164,3.46429 -4.953184,3.71605 -0.41312,0.0468 -1.24406,0.0141 -1.71101,-0.0672 -2.58047,-0.44904 -4.61302,-2.58762 -4.93975,-5.19761 -0.0622,-0.49642 -0.0282,-1.45811 0.0687,-1.94149 0.48114,-2.3993 2.35632,-4.27401 4.75475,-4.75423 0.24111,-0.0483 0.59081,-0.0812 0.94516,-0.094 z m 0.24185,3.62407 c -1.33879,0 -2.41271,1.07514 -2.41071,2.41329 0.001,0.67192 0.21978,1.19595 0.70022,1.67948 0.24552,0.2471 0.36318,0.33575 0.60461,0.45424 0.16493,0.081 0.38732,0.17077 0.49403,0.19947 0.59791,0.16077 1.34382,0.0521 1.85363,-0.27027 1.12312,-0.71018 1.480634,-2.03405 0.87023,-3.22358 -0.19071,-0.37165 -0.63984,-0.80481 -1.03094,-0.99477 -0.38369,-0.18634 -0.68254,-0.25786 -1.08107,-0.25786 z" /><path
         id="path13"
         style="fill:#000000"
         d="m 119.07715,122.01116 c 0.69176,-0.002 0.84459,0.009 1.19063,0.0791 0.5787,0.11728 0.98606,0.25905 1.54305,0.53692 0.639,0.31878 1.06674,0.62645 1.56942,1.12913 0.50268,0.50268 0.81086,0.93041 1.12964,1.56941 0.43905,0.88009 0.59487,1.49721 0.62477,2.47582 0.0223,0.73102 -0.016,1.13179 -0.16485,1.72238 -0.62306,2.47129 -2.76806,4.30113 -5.32835,4.54597 -0.30173,0.0289 -1.21841,-0.0104 -1.53479,-0.0656 -1.94736,-0.33987 -3.56355,-1.54221 -4.43074,-3.29644 -1.04692,-2.11779 -0.75158,-4.69492 0.74621,-6.51123 0.89877,-1.08991 2.07469,-1.79722 3.49849,-2.10478 0.31172,-0.0673 0.47382,-0.0786 1.15652,-0.0806 z m 0.13126,3.622 c -0.72025,-0.0321 -1.28136,0.18591 -1.79059,0.69608 -0.33243,0.33303 -0.50025,0.61206 -0.6382,1.05988 -0.1032,0.33491 -0.11086,0.88692 -0.017,1.23507 0.24944,0.92563 0.97856,1.60467 1.91512,1.78387 v -5.2e-4 c 0.24964,0.0478 0.54118,0.06 0.69919,0.0289 0.0388,-0.008 0.15786,-0.0314 0.26458,-0.0527 0.65301,-0.13004 1.3218,-0.65777 1.62264,-1.28002 0.19756,-0.40856 0.25666,-0.69549 0.23926,-1.16737 -0.0239,-0.64736 -0.24315,-1.15317 -0.6966,-1.60662 -0.44826,-0.44825 -0.95228,-0.6678 -1.59835,-0.6966 z" /></g></g></svg>
