<?xml version="1.0" encoding="UTF-8" standalone="no"?>
<!-- Created with Inkscape (http://www.inkscape.org/) -->

<svg
   width="115.70778mm"
   height="111.16344mm"
   viewBox="0 0 115.70778 111.16344"
   version="1.1"
   id="svg1"
   xml:space="preserve"
   inkscape:version="1.3.2 (091e20e, 2023-11-25, custom)"
   sodipodi:docname="cross_country_skiing.svg"
   xmlns:inkscape="http://www.inkscape.org/namespaces/inkscape"
   xmlns:sodipodi="http://sodipodi.sourceforge.net/DTD/sodipodi-0.dtd"
   xmlns="http://www.w3.org/2000/svg"
   xmlns:svg="http://www.w3.org/2000/svg"><sodipodi:namedview
     id="namedview1"
     pagecolor="#ffffff"
     bordercolor="#666666"
     borderopacity="1.0"
     inkscape:showpageshadow="2"
     inkscape:pageopacity="0.0"
     inkscape:pagecheckerboard="0"
     inkscape:deskcolor="#d1d1d1"
     inkscape:document-units="mm"
     inkscape:zoom="0.51717104"
     inkscape:cx="174.02367"
     inkscape:cy="124.71696"
     inkscape:window-width="1920"
     inkscape:window-height="1017"
     inkscape:window-x="-8"
     inkscape:window-y="-8"
     inkscape:window-maximized="1"
     inkscape:current-layer="layer1" /><defs
     id="defs1" /><g
     inkscape:label="Layer 1"
     inkscape:groupmode="layer"
     id="layer1"
     transform="translate(-47.146109,-92.918274)"><path
       style="fill:#000000"
       d="m 100.90161,203.37816 c -0.56683,-0.60336 -0.73275,-1.57986 -0.41094,-2.41849 0.4688,-1.22166 0.0252,-1.20248 27.81227,-1.20248 30.2785,0 27.4144,0.28761 29.85371,-2.99788 1.90028,-2.55948 2.91613,-2.9547 4.22648,-1.64435 1.86696,1.86696 -2.14338,7.24066 -6.33193,8.48453 -2.59013,0.76918 -54.41444,0.5612 -55.14959,-0.22133 z m -25.631372,-2.52615 c -2.784968,-0.96229 -4.292085,-2.38879 -5.88302,-5.56831 -6.140338,-12.27161 -18.552289,-39.27211 -18.342477,-39.90155 0.381018,-1.14305 1.461516,-1.79303 2.503527,-1.50601 1.084666,0.29877 1.134282,0.39559 12.112019,23.63389 9.715418,20.56616 9.021263,19.58348 13.842125,19.59552 3.358738,0.008 4.808947,1.75733 2.976562,3.58971 -0.846251,0.84625 -4.954702,0.93559 -7.208736,0.15675 z m 40.877792,-3.93346 c -1.45392,-0.90178 -1.68271,-1.8013 -1.27616,-5.01709 0.19886,-1.57294 0.33415,-3.58919 0.30066,-4.48056 -0.10348,-2.75399 1.82451,-4.07938 3.57605,-2.45833 0.69087,0.63941 0.69087,0.63941 0.55456,4.40973 l -0.13632,3.77031 h 4.60222 4.60222 l -0.95169,-1.32469 c -2.0377,-2.83633 -2.02977,-2.7522 -1.17384,-12.46105 0.55793,-6.32868 0.68076,-8.70363 0.4705,-9.09723 -0.15651,-0.29296 -2.57625,-3.77436 -5.3772,-7.73645 -6.79368,-9.61 -6.52121,-8.12308 -2.98766,-16.30326 3.5988,-8.33122 3.82379,-8.63982 6.29909,-8.63982 1.46536,0 1.66097,0.11939 5.92249,3.61479 4.96844,4.07523 4.25965,4.01999 13.43485,1.04704 6.75295,-2.18809 7.18042,-2.44572 6.59835,-3.97668 -0.37177,-0.97782 -0.99992,-1.02701 -5.22709,-0.40933 -8.51003,1.24348 -8.52107,1.23851 -16.09171,-7.24059 -6.69283,-7.49595 -7.92042,-8.21392 -17.01138,-9.94929 -10.23458,-1.95368 -10.75616,-1.81197 -20.416293,5.54676 -7.020081,5.34763 -7.667811,6.26021 -5.5141,7.76873 1.05739,0.74062 1.55872,0.5123 8.9459,-4.07434 8.021623,-4.98057 7.757093,-4.88342 10.914063,-4.00802 5.49124,1.52267 5.4863,2.82951 -0.0477,12.60697 -4.24756,7.50458 -4.73461,8.75692 -3.9723,10.21403 0.18239,0.34864 3.82432,5.70826 8.09316,11.91026 8.73297,12.68777 8.30085,11.90688 8.49718,15.35533 0.16739,2.94002 -0.34694,3.92767 -2.0454,3.92767 -1.46922,0 -2.01416,-0.87538 -2.17779,-3.49838 -0.13137,-2.10571 -6.3428,-12.67546 -7.03947,-11.97879 -0.0753,0.0753 -1.53157,2.83901 -3.23618,6.1416 -5.024403,9.73453 -4.406853,9.4623 -20.065123,8.84518 l -4.340447,-0.17107 -1.441315,2.05773 c -2.024804,2.89076 -3.919289,3.60459 -6.058191,2.28267 -1.433268,-0.88581 -6.815145,-11.78834 -6.629998,-13.43096 0.334872,-2.97098 0.934714,-3.20206 12.094774,-4.65946 12.081837,-1.57777 11.097207,-1.18366 13.781617,-5.51627 3.00922,-4.85685 3.80811,-5.45402 5.43002,-4.05891 1.19656,1.02924 0.99168,1.79648 -1.5889,5.95002 -3.85472,6.2043 -3.4383,5.9996 -15.447408,7.59367 -5.052733,0.67069 -9.337773,1.26776 -9.522311,1.32683 -0.227272,0.0727 0.36001,1.49641 1.820271,4.41263 2.143984,4.28167 2.158143,4.30169 2.584482,3.65466 2.694846,-4.08983 2.298411,-3.97571 12.623376,-3.63389 10.57092,0.34996 8.95592,1.28803 13.660583,-7.93481 l 3.63027,-7.11666 -2.9337,-4.22195 c -5.814423,-8.36767 -5.820223,-8.19507 0.66163,-19.67054 3.90715,-6.91721 3.58684,-6.02969 2.30106,-6.37591 -1.04485,-0.28135 -1.04485,-0.28135 -7.734483,3.87842 -7.39384,4.59765 -8.17816,4.96515 -10.17077,4.76556 -3.427016,-0.34325 -5.755228,-2.85885 -5.777356,-6.24235 -0.01109,-1.69578 -0.01109,-1.69578 -16.679839,-14.66214 -9.167812,-7.1315 -16.81379,-13.15496 -16.991063,-13.38547 -0.902604,-1.17367 0.125708,-3.19723 1.624736,-3.19723 1.079313,0 -0.199425,-0.94194 18.615808,13.71267 8.626693,6.71907 15.783672,12.21649 15.904399,12.21649 0.120727,0 2.885175,-2.03713 6.143225,-4.52696 10.00305,-7.64442 11.938703,-8.1578 22.871953,-6.06613 10.76043,2.05861 12.33983,2.97834 20.16664,11.74359 6.05678,6.783 5.21512,6.41773 12.51048,5.42944 9.20248,-1.24665 14.02162,6.48169 6.55536,10.51265 -0.3321,0.1793 -1.91043,6.50403 -6.43085,25.76991 -7.03615,29.98784 -6.29263,27.51666 -8.27906,27.51666 -2.66305,0 -2.78918,0.90276 3.7728,-27.00467 3.12861,-13.30571 5.68846,-24.26673 5.68854,-24.35782 8e-5,-0.0911 -1.99415,0.48535 -4.43163,1.28098 -7.2203,2.35681 -8.36601,2.14741 -14.03916,-2.56586 -1.79156,-1.48844 -3.29521,-2.66395 -3.34145,-2.61225 -0.0462,0.0517 -1.16216,2.5699 -2.47985,5.59601 l -2.39578,5.502 5.10173,7.198 c 7.01138,9.89231 6.44627,8.08313 5.57662,17.85345 -0.90551,10.17313 -0.98631,9.24302 1.06072,12.21078 2.25965,3.27602 2.30526,5.37882 0.14094,6.49803 -1.20901,0.6252 -14.65151,0.57713 -15.67236,-0.056 z m 9.97516,-79.29439 c -4.69294,-1.17699 -8.33438,-5.51876 -8.33438,-9.93726 0,-3.37607 3.64933,-3.26665 4.25532,0.12759 1.69567,9.49769 14.83425,6.46204 14.88681,-3.43958 0.0368,-6.921367 -6.8517,-9.603537 -12.21859,-4.757577 -2.78098,2.511037 -5.66799,0.537847 -3.52996,-2.41263 3.91548,-5.40333 12.7891,-5.76545 17.2446,-0.70373 7.53138,8.556097 -1.38391,23.861887 -12.3038,21.123187 z"
       id="path27-8" /></g></svg>
