<?xml version="1.0" encoding="UTF-8" standalone="no"?>
<!-- Created with Inkscape (http://www.inkscape.org/) -->

<svg
   width="284.66901mm"
   height="284.66901mm"
   viewBox="0 0 284.66901 284.669"
   version="1.1"
   id="svg1"
   xml:space="preserve"
   inkscape:version="1.3.2 (091e20e, 2023-11-25, custom)"
   sodipodi:docname="downhill.svg"
   xmlns:inkscape="http://www.inkscape.org/namespaces/inkscape"
   xmlns:sodipodi="http://sodipodi.sourceforge.net/DTD/sodipodi-0.dtd"
   xmlns="http://www.w3.org/2000/svg"
   xmlns:svg="http://www.w3.org/2000/svg"><sodipodi:namedview
     id="namedview1"
     pagecolor="#ffffff"
     bordercolor="#666666"
     borderopacity="1.0"
     inkscape:showpageshadow="2"
     inkscape:pageopacity="0.0"
     inkscape:pagecheckerboard="0"
     inkscape:deskcolor="#d1d1d1"
     inkscape:document-units="mm"
     inkscape:zoom="0.36569515"
     inkscape:cx="328.14217"
     inkscape:cy="417.01401"
     inkscape:window-width="1920"
     inkscape:window-height="1017"
     inkscape:window-x="-8"
     inkscape:window-y="-8"
     inkscape:window-maximized="1"
     inkscape:current-layer="layer1" /><defs
     id="defs1" /><g
     inkscape:label="Layer 1"
     inkscape:groupmode="layer"
     id="layer1"
     transform="translate(47.797819,-57.484616)"><g
       id="g11"
       transform="matrix(0.07336243,0,0,0.07336243,-52.188134,53.09462)"><path
         d="m 1946.582,2310.846 c 5.783,5.211 11.567,10.421 19.034,17.149 3.502,-5.96 6.953,-11.832 10.385,-17.673 16.853,4.846 40.079,-5.717 45.485,-22.825 4.482,-14.184 16.404,-18.742 24.769,-12.555 9.648,7.137 13.983,21.456 20.626,32.655 -8.658,5.089 -17.417,14.58 -25.953,14.382 -19.908,-0.461 -39.028,9.443 -44.01,27.951 -23.011,-3.26 -38.945,6.599 -51.841,25.325 -8.536,12.395 -20.409,17.63 -36.521,9.653 -7.397,-3.662 -17.869,-3.423 -26.444,-1.976 -28.022,4.732 -55.813,10.834 -84.724,13.709 6.275,-3.382 12.549,-6.765 18.941,-10.21 -18.646,-16.525 -20.428,-16.881 -33.011,-3.028 -3.667,4.036 -5.513,9.727 -8.193,14.66 1.843,1.474 3.686,2.948 5.53,4.422 -20.509,3.31 -40.971,6.958 -61.545,9.798 -11.427,1.577 -13.087,19.283 -27.178,15.623 2.599,3.258 5.198,6.515 8.069,10.113 -14.341,3.815 2.931,37.731 -27.835,29.059 2.637,6.725 4.023,10.26 5.75,14.666 -21.022,-2.797 -31.803,4.302 -29.979,21.286 -4.57,-3.83 -7.566,-6.341 -12.044,-10.094 -0.413,4.41 -0.745,7.95 -1.239,13.224 -3.972,-1.966 -7.397,-3.662 -9.479,-4.693 -4.183,5.72 -8.213,11.231 -12.242,16.741 -1.372,-0.886 -2.744,-1.772 -4.116,-2.658 1.501,-2.449 3.003,-4.898 4.504,-7.347 -1.14,-1.347 -2.28,-2.694 -3.419,-4.041 -5.692,4.801 -11.384,9.603 -19.921,16.803 -2.168,-2.56 -6.685,-7.891 -10.162,-11.996 -11.005,0 -21.809,0 -33.144,0 -4.661,-6.543 -9.719,-13.645 -16.851,-23.658 2.314,23.405 -7.853,41.289 -23.877,43.889 -14.54,2.359 -26.097,-3.828 -30.596,-18.461 -5.075,-16.505 5.846,-31.256 26.333,-39.145 -5.525,-10.229 -11.166,-20.673 -19.662,-36.402 -2.261,6.793 -6.301,12.425 -5.092,16.501 3.851,12.984 -2.816,23.082 -16.804,23.771 -4.118,0.202 -10.266,1.475 -11.666,4.211 -1.89,3.695 -1.95,10.664 0.415,13.831 19.243,25.766 19.471,25.596 -5.798,42.634 25.183,4.423 12.049,20.171 9.823,34.913 8.454,-2.544 14.722,-4.43 21.043,-6.333 0.701,2.265 1.671,4.7 1.458,4.809 -33.105,16.835 -35.182,50.274 -45.06,80.427 -8.136,24.836 -22.181,47.683 -32.595,71.847 -5.911,13.717 -9.786,28.312 -15.041,43.882 -3.639,-4.018 -5.721,-6.316 -10.165,-11.223 -2.419,13.791 -3.386,25.473 -6.668,36.464 -4.212,14.109 -12.167,20.84 -26.775,5.441 13.841,19.98 7.05,34.074 -8.87,47.309 -6.307,-3.562 -12.561,-7.094 -18.815,-10.626 -1.178,0.658 -2.355,1.317 -3.533,1.975 3.959,7.312 7.918,14.624 13.175,24.332 -8.799,8.326 -18.153,17.177 -27.507,26.027 -0.166,-0.622 -0.333,-1.244 -0.499,-1.867 -8.115,11.115 -16.23,22.23 -25.031,34.285 -5.59,-3.287 -10.142,-5.963 -20.102,-11.82 6.387,9.398 9.335,13.736 12.517,18.417 -9.406,8.045 -18.16,15.531 -28.263,24.173 -4.375,-3.863 -9.032,-7.973 -13.688,-12.083 -1.33,0.406 -2.66,0.813 -3.99,1.22 2.154,6.727 4.308,13.453 6.629,20.705 -20.135,15.251 -40.493,32.042 -62.249,46.768 -22.272,15.075 -45.915,28.126 -69.892,42.629 -5.808,-7.119 -10.728,-13.148 -15.68,-19.219 -1.457,0.671 -3.592,1.268 -3.558,1.693 2.356,29.82 -19.528,35.453 -41.119,42.467 -27.58,8.959 -54.745,19.193 -82.409,28.991 -3.331,-8.561 -5.51,-14.159 -7.688,-19.758 3.493,34.036 -24.275,18.42 -39.076,27.641 0,-8.467 0,-13.923 0,-24.378 -8.556,13.151 -14.438,22.191 -19.76,30.373 129.467,6.881 264.975,2.065 398.83,25.62 -314.271,29.273 -628.358,27.255 -942.615,-0.815 54.962,-11.924 110.22,-16.405 166.088,-17.092 55.68,-0.685 111.323,-4.412 165.841,-6.756 -3.026,-7.312 -6.282,-15.178 -7.968,-19.252 -10.037,3.129 -21.256,9.64 -31.853,8.75 -5.937,-0.499 -10.844,-13.258 -16.169,-20.431 -8.439,24.089 -26.225,5.98 -41.568,6.441 -0.552,-8.334 -1.041,-15.715 -1.238,-18.697 -10.577,2.927 -20.192,8.538 -28.8,7.276 -12.724,-1.865 -23.211,-9.558 -15.401,-22.072 -12.295,2.534 -24.129,4.973 -36.698,7.563 -3.502,-15.177 -6.173,-26.755 -10.286,-44.58 -5.427,11.765 -8.146,17.659 -10.802,23.416 -9.757,-1.967 -18.726,-3.775 -29.62,-5.971 2.443,-6.524 4.646,-12.404 7.384,-19.715 -23.603,12.344 -83.773,-19.093 -88.019,-40.972 -6.397,-1.085 -14.751,-0.334 -16.117,-3.071 -12.828,-25.704 -58.56,-26.084 -52.437,-69.369 -3.239,5.233 -5.952,9.615 -8.458,13.662 -30.031,-23.879 -30.25,-24.378 -20.85,-48.365 -7.274,3.301 -12.785,5.801 -19.497,8.846 -2.998,-3.708 -6.139,-7.489 -9.162,-11.361 -3.149,-4.032 -6.184,-8.152 -9.514,-12.557 3.163,-7.057 6.375,-14.227 11.805,-26.341 -11.098,5.745 -16.856,8.725 -24.218,12.536 -5.98,-9.269 -12.114,-18.777 -18.295,-28.357 4.659,-5.504 9.03,-10.667 13.401,-15.831 -0.776,-1.341 -1.552,-2.681 -2.328,-4.022 -6.85,2.416 -13.7,4.832 -20.976,7.398 -5.287,-10.019 -10.597,-20.081 -16.162,-30.625 3.991,-4.446 8.234,-9.175 16.381,-18.251 -11.094,3.11 -16.742,4.693 -22.618,6.341 -5.27,-10.312 -10.466,-20.482 -16.236,-31.772 5.045,-3.391 10.196,-6.853 15.347,-10.316 -0.203,-1.154 -0.407,-2.309 -0.611,-3.463 -6.119,0.609 -12.237,1.218 -19.713,1.962 -4.451,-10.094 -9.055,-20.536 -13.606,-30.856 7.004,-3.942 12.81,-7.208 18.615,-10.475 -0.487,-1.599 -0.975,-3.198 -1.462,-4.797 -6.861,0.899 -13.722,1.797 -20.877,2.734 -4.328,-11.165 -8.431,-21.747 -12.436,-32.079 6.462,-4.243 13.069,-8.582 19.675,-12.92 -1.263,-2.038 -2.526,-4.077 -3.788,-6.115 -5.871,1.961 -11.742,3.921 -19.381,6.472 -3.304,-11.098 -6.35,-21.33 -9.49,-31.877 6.552,-4.372 12.489,-8.333 16.247,-10.84 -8.637,-7.506 -20.4,-12.871 -21.792,-20.205 -1.627,-8.574 5.79,-18.865 10.133,-30.732 -2.909,-0.871 -9.439,-2.828 -20.837,-6.243 1.831,-11.769 3.87,-24.461 5.69,-37.185 0.189,-1.322 -1.103,-2.794 -1.41,-4.259 -2.416,-11.549 -8.248,-23.868 -5.966,-34.423 1.673,-7.737 1.005,-12.14 -0.538,-19.4 -2.169,-10.202 2.498,-21.816 3.976,-32.862 0.37,-2.763 -0.445,-5.664 -0.427,-8.499 0.077,-12.562 0.194,-25.125 0.56,-37.68 0.023,-0.774 3.352,-1.441 3.383,-2.229 0.409,-10.236 -2.679,-22.123 1.529,-30.288 4.583,-8.891 15.862,-14.331 27.368,-23.888 -11.118,-3.107 -17.133,-4.788 -25.013,-6.99 2.729,-11.938 5.253,-22.977 8.155,-35.67 5.376,0.918 10.105,1.725 15.71,2.682 -13.516,-28.527 -9.014,-48.001 5.74,-51.456 1.176,-10.572 -0.649,-20.672 3.495,-26.601 14.315,-20.482 18.11,-45.194 29.421,-66.628 7.191,-13.628 16.525,-26.126 28.465,-44.671 -2.383,-12.7 9.358,-28.969 21.621,-28.035 7.665,-15.376 13.315,-28.537 20.987,-40.389 1.355,-2.093 11.155,1.282 16.904,2.11 -5.043,-26.673 5.775,-42.827 24.72,-36.29 -2.855,-19.562 13.364,-37.205 25.334,-34.099 9.091,-11.808 14.996,-27.365 24.894,-30.562 16.592,-5.359 21.582,-20.675 34.073,-28.641 14.005,-8.931 27.23,-19.078 41.161,-28.133 22.379,-14.546 45.06,-28.629 65.362,-41.483 9.157,5.777 15.824,9.984 22.491,14.19 1.931,-0.671 3.863,-1.341 5.794,-2.012 -10.814,-20.394 0.871,-26.835 15.1,-32.155 7.519,-2.811 14.382,-7.688 22.048,-9.728 15.087,-4.016 33.263,-18.247 39.598,16.323 1.838,-2.334 3.676,-4.668 5.513,-7.001 -0.687,-7.294 -1.374,-14.589 -1.807,-19.192 10.724,-4.453 21.26,-8.829 32.953,-13.684 3.098,6.513 6.383,13.418 9.668,20.323 1.943,0.049 3.886,0.098 5.829,0.146 1.119,-8.633 -0.786,-21.283 4.077,-24.945 7.042,-5.304 18.981,-4.106 29.544,-5.796 2.699,6.822 4.887,12.351 5.805,14.672 7.097,-6.628 13.029,-16.625 20.569,-18.039 8.678,-1.627 18.779,4.334 29.872,7.452 0.136,-0.571 1.37,-5.772 2.792,-11.76 10.15,-0.474 19.591,-0.915 29.568,-1.381 3.33,7.003 6.435,13.533 12,25.235 3.391,-12.015 5.181,-18.354 6.856,-24.289 17.583,-4.941 32.487,-5.588 36.766,19.889 5.266,-24.89 21.645,-21.996 37.375,-19.904 30.114,4.005 60.191,8.296 90.966,12.563 -0.558,8.922 -0.99,15.834 -1.251,20.003 32.679,1.681 64.342,3.31 96.881,4.984 -1.289,9.775 -2.013,15.258 -2.083,15.792 10.38,0 20.705,-2.382 28.957,0.73 7.003,2.641 11.615,11.625 17.843,18.411 1.874,-0.505 10.454,-5.852 15.692,-3.56 9.214,4.032 16.386,12.734 23.519,18.729 12.354,3.673 25.33,7.531 38.313,11.391 -2.522,10.418 -4.411,18.225 -6.301,26.032 2.113,0.62 4.225,1.24 6.338,1.859 3.526,-5.802 7.052,-11.605 10.958,-18.035 10.099,6.925 18.992,13.022 29.043,19.913 -3.438,6.47 -6.699,12.609 -9.961,18.747 16.604,-13.513 30.913,-6.346 43.335,5.615 2.831,2.726 0.417,10.898 0.417,12.24 7.087,2.321 15.447,3.002 20.837,7.358 6.384,5.159 10.209,13.486 15.917,21.53 31.101,3.098 37.758,41.569 64.087,55.264 -4.879,6.066 -8.97,11.152 -9.557,11.882 10.062,5.323 20.574,8.594 27.661,15.421 4.878,4.699 5.009,14.327 7.145,21.368 8.5,8.039 18.061,17.084 30.999,29.321 -19.132,9.195 -33.864,16.479 -48.767,23.393 -24.531,11.381 -49.687,21.544 -73.584,34.114 -15.425,8.113 -25.561,7.02 -33.875,-8.807 -3.241,-6.169 -8.439,-11.311 -13.395,-17.767 -8.676,6.268 -15.64,11.299 -22.605,16.331 -0.657,-0.698 -1.313,-1.398 -1.968,-2.098 5.673,-6.586 11.346,-13.173 19.973,-23.188 -24.147,-23.568 -48.479,-47.315 -70.427,-68.736 -71.059,68.446 -139.995,134.848 -210.189,202.461 19.328,14.568 36.384,27.423 53.44,40.277 -1.024,1.521 -2.047,3.042 -3.071,4.562 -24.879,-16.228 -49.758,-32.454 -74.393,-48.522 -2.611,7.965 -4.548,13.874 -6.744,20.571 4.58,-0.885 10.612,-2.051 13.537,-2.617 15.349,14.467 29.509,27.814 44.895,42.316 -30.547,24.259 -35.269,-26.862 -61.767,-17.787 3.26,13.404 6.69,27.506 10.995,45.205 -10.474,3.609 -22.158,7.634 -39.654,13.663 -7.902,6.417 -21.697,17.618 -35.492,28.82 0.263,0.839 0.525,1.678 0.788,2.517 6.645,-2.952 13.461,-5.575 19.911,-8.905 130.086,-67.163 258.785,-137.2 390.641,-200.683 92.823,-44.69 189.441,-81.729 285.481,-119.332 22.041,-8.63 48.742,-4.968 73.13,-8.22 7.596,-1.013 16.891,-4.267 21.522,-9.766 15.078,-17.903 29.223,-36.77 41.769,-56.51 3.465,-5.451 2.636,-16.481 -0.497,-22.849 -46.87,-95.265 -94.49,-190.161 -141.854,-285.184 -12.02,-24.115 -23.765,-48.367 -35.968,-73.235 -14.508,3.326 -32.044,16.544 -36.537,-6.144 -1.656,-8.365 10.319,-19.428 16.078,-29.261 2.539,0.691 5.078,1.382 7.617,2.073 -9.029,-16.963 -18.551,-33.692 -26.778,-51.035 -2.388,-5.035 -3.769,-14.664 -0.977,-17.326 11.875,-11.323 4.914,-21.314 -0.104,-31.493 -17.48,-35.451 -35.224,-70.773 -52.951,-106.102 -6.128,-12.214 -13.279,-21.573 -29.784,-20.843 -11.615,0.514 -23.441,-3.73 -40.53,-6.818 7.759,-4.469 10.575,-6.091 13.393,-7.714 -0.394,-0.437 -0.704,-1.044 -1.194,-1.284 -27.997,-13.694 -55.758,-27.915 -84.148,-40.742 -10.854,-4.904 -23.02,-7.284 -34.827,-9.586 -11.351,-2.213 -23.981,-0.52 -34.262,-4.818 -10.148,-4.242 -18.057,-13.839 -26.948,-21.087 1.452,-1.92 2.904,-3.839 4.357,-5.759 -9.026,-2.571 -18.921,-3.61 -26.852,-8.109 -9.405,-5.335 -14.127,-13.206 2.289,-16.538 0,0 -0.289,-0.416 -0.289,-0.416 2.392,4.252 4.325,11.858 7.245,12.258 54.716,7.49 102.563,32.487 150.57,57.404 44.267,22.976 85.809,17.116 125.007,-16.744 5.119,-1.945 10.238,-3.891 15.358,-5.836 30.666,-8.96 61.332,-17.919 91.998,-26.879 0.841,2.234 1.683,4.467 2.524,6.701 -31.214,14.636 -62.427,29.273 -92.173,43.221 2.143,7.895 7.301,16.209 5.126,21.525 -2.875,7.028 -11.491,11.707 -15.883,15.769 14.026,27.039 28.464,54.821 42.851,82.63 6.729,13.008 13.4,26.047 20.021,39.11 5.122,10.107 8.118,22.443 24.01,20.04 2.116,-0.32 5.88,2.411 7.02,4.669 15.027,29.778 29.903,59.637 44.442,89.656 13.051,26.945 25.408,54.228 38.744,81.028 1.552,3.119 7.183,4.84 11.266,5.974 62.771,17.434 125.187,36.418 188.557,51.336 43.873,10.328 85.546,1.775 121.322,-28.865 170.487,-146.01 341.216,-291.739 511.926,-437.488 19.979,-17.058 40.379,-33.624 60.583,-50.418 1.689,-1.563 3.378,-3.127 5.067,-4.691 17.284,32.133 34.562,64.27 51.858,96.396 3.023,5.614 6.126,11.185 9.192,16.775 2.017,-0.962 4.035,-1.923 6.052,-2.885 -19.491,-38.764 -38.982,-77.527 -59.951,-119.229 20.047,-10.863 40.3,-21.838 60.553,-32.813 -0.46,-1.155 -0.921,-2.311 -1.381,-3.466 -20.072,9.441 -40.145,18.882 -60.919,28.654 -12.747,-19.22 -25.002,-37.699 -39.561,-59.653 12.028,-9.061 26.658,-20.082 44.305,-33.377 -13.617,-8.041 -25.835,-17.018 -39.405,-22.846 -19.23,-8.259 -26.607,-26.558 -14.581,-43.462 3.003,-4.221 9.37,-8.68 13.886,-8.384 3.8,0.249 9.515,6.833 10.304,11.328 3.43,19.563 12.485,33.885 35.217,42.199 -6.604,-37.091 -12.94,-71.385 -38.235,-99.017 -4.896,-5.348 -9.77,-11.125 -12.963,-17.545 -8.509,-17.104 -3.558,-35.025 11.334,-44.496 14.861,-9.451 35.854,-7.643 44.644,8.517 12.755,23.45 20.691,49.48 31.574,74.013 3.369,7.593 8.153,16.578 14.858,20.301 22.613,12.555 50.607,16.213 64.822,42.246 1.627,2.98 9.308,4.386 13.814,3.78 28.562,-3.84 49.643,9.791 62.902,32.026 18.648,31.271 33.981,64.594 49.528,97.606 7.658,16.261 10.125,34.678 29.053,44.469 4.35,2.25 4.073,15.902 3.683,24.202 -0.428,9.102 -5.968,18.379 -4.944,27.068 7.975,67.651 16.147,135.302 25.943,202.708 8.922,61.386 36.816,113.843 80.6,157.774 22.78,22.858 45.364,45.927 68.662,68.247 28.361,27.172 47.734,58.989 54.817,97.996 1.272,7.009 4.511,13.661 7.418,22.164 6.571,-2.04 12.26,-3.807 18.368,-5.704 3.128,5.479 6.296,11.027 12.394,21.706 0,-11.704 0,-18.034 0,-26.32 10.744,-2.931 21.763,-5.936 34.373,-9.376 0.441,7.96 0.82,14.791 1.199,21.621 2.004,0.866 4.009,1.732 6.014,2.598 4.193,-8.593 8.386,-17.185 13.615,-27.899 5.631,-0.735 14.945,-1.951 25.491,-3.328 0.491,5.778 0.907,10.678 1.49,17.529 24.012,-30.205 35.981,-31.343 49.976,-5.075 4.195,-6.568 6.748,-14.121 12.01,-17.813 5.344,-3.75 13.36,-3.69 21.244,-5.542 2.056,8.151 3.624,14.37 5.803,23.01 9.851,-1.236 19.28,-2.419 28.708,-3.602 -0.058,-1.289 -0.116,-2.577 -0.174,-3.866 -6.035,-0.772 -12.07,-1.544 -18.106,-2.316 -0.535,-2.352 -1.069,-4.704 -1.604,-7.056 10.414,-2.217 20.828,-4.435 33.155,-7.059 2.088,7.124 3.765,12.842 6.557,22.369 3.206,-8.546 5.231,-13.946 7.657,-20.414 13.789,1.658 32.842,-8.793 33.526,12.644 9.848,-2.777 20.261,-9.155 28.447,-7.014 7.589,1.984 12.798,13.072 19.286,20.414 1.423,-3.05 4.295,-9.207 9.127,-19.565 9.337,5.777 17.665,10.929 25.992,16.08 -4.395,3.965 -8.791,7.931 -13.186,11.896 0.406,0.845 0.812,1.689 1.218,2.534 7.803,-5.381 15.605,-10.763 28.398,-19.586 7.567,4.625 19.604,11.983 35.142,21.479 4.331,1.015 14.357,2.693 23.927,5.785 10.618,3.43 21.102,7.574 31.113,12.49 7.857,3.858 14.905,9.365 23.595,14.966 8.023,0.223 20.191,-1.177 31.141,1.842 3.67,1.012 4.231,13.295 6.753,22.365 3.423,-2.474 8.706,-6.291 13.994,-10.124 17.827,4.034 26.052,14.201 22.561,34.776 4.731,-4.506 9.462,-9.012 15.343,-14.614 8.826,11.575 35.001,11.461 20.072,41.811 8.033,-7.497 12.025,-11.222 19.021,-17.751 8.714,11.691 16.982,22.783 24.906,33.415 2.343,0.283 9.941,-1.056 14.101,2.115 13.917,10.609 27.175,22.272 39.402,34.785 3.502,3.584 3.298,11.378 3.624,17.306 0.31,5.636 -0.908,11.357 -1.454,17.041 6.034,-2.441 12.067,-4.882 20.756,-8.398 5.574,5.187 13.285,12.363 18.804,17.499 -3.022,10.855 -5.135,18.446 -7.248,26.038 7.03,-1.115 14.059,-2.229 23.886,-3.787 10.259,9.659 20.809,21.447 1.241,41.542 11.259,-2.026 17.355,-3.123 25.135,-4.522 5.206,7.739 10.786,16.034 16.328,24.273 -4.79,5.134 -9.3,9.967 -13.81,14.8 1.2,1.567 2.401,3.135 3.601,4.702 5.389,-1.953 10.779,-3.906 17.731,-6.425 0.115,13.391 28.291,22.008 3.183,38.953 14.402,18.822 28.97,37.034 42.587,55.934 9.665,13.415 18.676,27.798 -2.404,41.798 6.4,-0.519 12.8,-1.039 19.599,-1.591 3.632,10.753 7.118,21.077 10.458,30.967 -7.044,4.48 -13.391,8.516 -19.738,12.552 -0.025,1.829 -0.049,3.659 -0.074,5.488 21.834,-0.66 31.766,9.645 30.748,30.542 -5.245,2.949 -11.415,6.419 -22.846,12.848 12.859,2.47 19.515,3.748 27.819,5.343 0.854,9.74 1.734,19.79 2.714,30.974 -6.441,1.833 -12.331,3.509 -25.058,7.131 11.74,7.328 18.603,11.613 27.432,17.124 6.716,21.548 6.716,21.548 -15.87,32.563 23.914,10.227 30.734,25.014 13.524,45.636 -0.924,1.107 -0.559,4.506 0.48,5.855 16.063,20.847 8.793,33.515 -13.959,41.159 -0.884,0.297 -1.132,2.485 -2.585,5.973 6.13,3.551 12.476,7.227 18.84,10.927 0.018,7.981 0.018,15.938 0.018,24.2 -8.588,1.907 -16.396,3.641 -24.205,5.375 -0.318,1.731 -0.637,3.462 -0.955,5.193 6.333,3.781 12.666,7.563 21.163,12.636 -1.274,7.752 -2.895,17.61 -4.604,28 -7.713,0.424 -14.478,0.795 -21.243,1.167 -0.716,1.575 -1.432,3.151 -2.148,4.726 6.409,4.321 12.819,8.641 19.324,13.027 -3.144,9.329 -6.387,18.953 -9.837,29.19 -6.876,0 -13.78,0 -20.685,0 -0.689,1.313 -1.379,2.627 -2.068,3.94 5.907,4.047 11.815,8.094 18.646,12.773 -3.148,9.035 -6.406,18.389 -10.013,28.741 -6.112,-0.553 -12.273,-1.11 -24.964,-2.257 8.104,9.028 12.353,13.761 16.663,18.562 -8.127,30.443 -8.127,30.443 -20.692,28.345 -2.32,14.868 -4.642,29.751 -7.254,46.495 -11.235,-3.821 -17.809,-6.057 -24.383,-8.293 -1.163,1.233 -2.326,2.467 -3.489,3.7 4.82,5.979 9.64,11.958 14.962,18.561 -5.109,8.341 -10.388,16.959 -16.493,26.924 -6.079,-2.207 -12.247,-4.447 -24.127,-8.76 7.323,10.455 11.223,16.023 15.744,22.478 -6.126,8.376 -12.503,17.098 -19.518,26.689 -7.074,-3.487 -13.056,-6.436 -19.039,-9.385 -1.02,1.054 -2.04,2.107 -3.06,3.161 4.161,5.881 8.322,11.761 13.368,18.892 -6.892,7.751 -14.022,15.77 -21.897,24.627 -5.878,-3.047 -11.53,-5.978 -21.774,-11.29 4.101,10.198 6.749,16.78 11.537,28.684 -12.982,5.219 -26.18,10.226 -39.068,15.934 -2.964,1.312 -4.749,5.146 -7.269,7.624 -8.717,8.573 -5.561,28.812 -25.741,26.289 -0.614,-0.077 -2.041,1.988 -2.185,3.164 -3.473,28.524 -17.428,26.213 -36.541,8.302 -3.007,14.197 -2.089,28.316 -8.675,34.718 -4.69,4.56 -19.476,-1.264 -31.978,-2.712 0,7.399 0,18.164 0,29.752 -14.366,15.184 -28.904,5.268 -45.017,-3.839 2.01,9.988 3.439,17.093 4.869,24.198 -1.188,0.463 -2.376,0.926 -3.564,1.388 -2.496,-4.431 -4.991,-8.862 -5.51,-9.784 -12.008,1.034 -21.389,1.842 -33.189,2.858 3.966,8.069 7.621,15.504 10.835,22.043 -9.418,4.462 -19.19,9.091 -26.522,12.565 -7.671,-6.999 -14.232,-12.985 -20.794,-18.971 -0.607,9.107 -1.214,18.214 -1.916,28.747 -10.398,-2.059 -25.56,22.977 -39.545,-10.753 1.615,31.45 -15.494,31.497 -30.787,30.611 -6.337,-7 -11.482,-12.684 -19.129,-21.13 1.553,13.741 4.051,25.602 2.763,26.028 -12.952,4.29 -27.469,10.889 -37.162,-13.573 -2.04,24.008 -14.054,30.416 -30.134,27.301 -6.502,-1.26 -11.799,-8.743 -17.993,-13.671 -0.508,3.052 -1.494,8.979 -2.443,14.681 107.235,5.53 212.997,10.984 318.76,16.438 0.16,2.642 0.32,5.285 0.48,7.928 -7.844,1.788 -15.643,4.907 -23.537,5.168 -149.492,4.945 -298.99,13.032 -448.497,13.223 -141.435,0.181 -282.883,-7.925 -424.316,-12.676 -9.702,-0.325 -19.323,-3.069 -28.775,-8.482 156.071,-15.78 312.378,-18.108 469.714,-20.492 0.593,-5.284 1.129,-10.064 1.665,-14.844 -4.536,17.69 -18.931,15.625 -29.206,11.464 -8.559,-3.466 -14.265,-13.979 -21.234,-21.37 1.546,-1.541 3.092,-3.082 4.638,-4.624 -2.626,7.352 -5.252,14.704 -9.463,26.493 -4.375,-14.609 -7.139,-23.842 -9.961,-33.267 -5.354,10.891 -9.452,19.227 -13.551,27.563 -3.656,-7.747 -7.313,-15.494 -11.441,-24.241 -2.514,4.441 -5.671,10.019 -9.435,16.669 -13.874,-6.203 -35.509,3.231 -38.178,-16.129 -9.473,0 -18.748,2.056 -26.394,-0.592 -7.314,-2.533 -12.933,-9.957 -17.897,-14.07 -11.125,-0.692 -22.997,-1.431 -36.87,-2.293 3.386,-12.319 5.597,-20.365 7.808,-28.412 -1.66,-1.495 -3.32,-2.99 -4.979,-4.486 -6.166,5.773 -12.332,11.545 -21.078,19.733 -5.514,-2.429 -13.732,-6.048 -21.27,-9.368 0.818,-9.215 1.481,-16.69 2.145,-24.165 -1.622,-1.065 -3.243,-2.13 -4.865,-3.196 -6.504,5.086 -13.008,10.172 -23.998,18.766 -8.49,-15.474 -16.891,-30.788 -26.665,-48.603 -3.172,8.7 -5.332,14.626 -7.465,20.477 -17.34,-13.5 -36.302,-26.001 -52.435,-41.454 -16.37,-15.68 -43.35,-23.161 -45.171,-50.028 -5.254,-0.979 -12.829,-0.17 -16.325,-3.563 -5.242,-5.088 -9.095,-12.77 -10.833,-20 -2.054,-8.545 -1.229,-17.784 -1.653,-26.721 -1.896,-0.02 -3.793,-0.04 -5.689,-0.06 -3.08,4.395 -6.159,8.79 -9.861,14.073 -17.512,-11.234 -20.197,-25.601 -10.815,-45.178 -9.381,1.664 -16.087,2.854 -23.795,4.221 -4.416,-6.214 -9.013,-12.683 -10.687,-15.038 3.22,-13.397 5.526,-22.994 7.832,-32.591 -1.987,-0.823 -3.973,-1.646 -5.959,-2.469 -4.795,3.683 -9.591,7.365 -16.54,12.702 -6.035,-9.618 -11.603,-18.49 -17.584,-28.022 5.216,-5.674 9.825,-10.688 17.505,-19.041 -11.183,0.952 -17.867,1.521 -24.98,2.127 -5.288,-10.241 -10.472,-20.28 -15.628,-30.265 4.947,-4.246 10.425,-8.946 15.902,-13.647 -6.593,-1.076 -13.187,-2.153 -22.294,-3.641 -4.106,-11.685 -23.594,-26.069 4.192,-41.524 -7.333,0 -14.666,0 -22.688,0 -3.002,-11.187 -5.778,-21.532 -8.646,-32.22 6.154,-2.982 12.412,-6.015 18.67,-9.048 -0.162,-1.759 -0.324,-3.518 -0.486,-5.277 -7.62,0 -15.24,0 -23.576,0 -3.022,-10.669 -6.159,-21.742 -9.254,-32.671 7.128,-3.696 14.011,-7.265 20.895,-10.833 -0.63,-1.642 -1.259,-3.285 -1.889,-4.927 -7.076,-0.74 -14.152,-1.481 -23.348,-2.443 -0.908,-10.149 -1.8,-20.114 -2.696,-30.133 6.605,-3.413 12.435,-6.426 18.265,-9.438 -0.089,-1.578 -0.178,-3.156 -0.267,-4.734 -7.726,-1.607 -15.451,-3.214 -24.237,-5.041 -0.836,-10.166 -1.665,-20.243 -2.469,-30.034 7.792,-1.554 14.961,-2.984 22.13,-4.414 -0.12,-1.865 -0.24,-3.73 -0.36,-5.594 -6.567,-1.432 -13.134,-2.864 -21.049,-4.59 -1.08,-10.633 -2.174,-21.411 -3.428,-33.772 6.491,-1.524 13.042,-3.062 19.594,-4.6 0.287,-1.375 0.573,-2.749 0.86,-4.124 -5.22,-1.677 -10.44,-3.354 -16.93,-5.439 0,-9.489 0,-19.528 0,-31.031 5.865,-1.407 11.707,-2.809 17.549,-4.21 0.302,-1.761 0.603,-3.522 0.905,-5.283 -6.337,-2.698 -12.674,-5.397 -19.586,-8.34 0.551,-9.988 1.112,-20.139 1.743,-31.584 7.864,-0.776 15.709,-1.549 23.555,-2.323 0.383,-1.925 0.765,-3.849 1.148,-5.773 -6.5,-2.714 -13,-5.427 -21.264,-8.878 1.205,-9.392 2.483,-19.354 3.886,-30.29 7.597,-1.129 14.508,-2.156 28.488,-4.233 -11.061,-6.541 -16.989,-10.047 -24.41,-14.435 1.592,-8.485 3.294,-17.551 4.883,-26.018 9.482,-1.684 17.25,-3.063 31.751,-5.638 -12.521,-7.635 -18.849,-11.494 -26.631,-16.24 3.059,-9.994 6.212,-20.294 9.457,-30.893 7.288,0.832 13.889,1.586 21.869,2.497 -17.879,-28.645 -13.172,-45.839 19.289,-49.259 -9.138,-6.321 -14.232,-9.844 -19.245,-13.312 4.667,-9.832 9.303,-19.599 14.421,-30.38 6.093,1.756 11.878,3.423 24.989,7.201 -23.734,-19.719 -14.485,-33.846 -1.826,-48.983 4.727,1.861 10.333,4.069 21.652,8.526 -5.706,-10.487 -9.029,-16.597 -13.339,-24.519 6.689,-11.418 8.157,-34.147 38.688,-15.161 -8.606,-19.85 -17.179,-36.012 2.846,-46.472 4.567,-2.385 10.182,-2.764 13.991,-3.73 2.003,-6.658 2.033,-16.957 7.198,-22.047 17.025,-16.781 36.453,-31.1 53.833,-47.554 7.93,-7.508 12.511,-18.466 20.042,-26.521 3.385,-3.62 10.28,-3.958 16.444,-6.083 5.052,-27.407 43.176,-24.572 51.104,-52.73 -60.7,-118.411 -123.446,-240.812 -187.192,-365.164 24.176,-13.563 46.924,-26.325 69.546,-39.017 62.949,122.539 125.313,243.938 187.574,365.14 34.314,-5.552 37.482,-10.05 23.84,-40.359 -8.947,-19.875 -20.476,-38.588 -32.044,-60.04 15.128,-5.051 30.183,-10.077 47.942,-16.006 -6.505,-8.539 -12.447,-17.339 -19.418,-25.229 -8.245,-9.332 -16.533,-18.955 -26.26,-26.599 -102.008,-80.164 -131.727,-193.036 -143.483,-314.357 -3.586,-37.008 -8.536,-73.885 -12.833,-110.575 -42.732,4.747 -82.479,9.163 -122.546,13.614 -0.287,15.689 28.246,30.915 -1.056,43.998 -5.504,2.655 -11.008,5.309 -16.512,7.964 -15.16,6.511 -30.32,13.022 -47.215,20.278 29.741,62.258 58.29,122.02 87.495,183.156 -10.049,5.535 -19.357,10.661 -32.236,17.755 -21.071,-41.578 -41.965,-82.808 -63.302,-124.909 -68.924,40.758 -117.428,98.404 -152.183,167.789 -92.382,184.425 -184.301,369.084 -275.62,554.038 -43.557,88.219 -105.388,160.848 -182.141,221.488 -64.508,6.846 -129.012,13.696 -193.515,20.545 38.372,-1.003 76.841,-2.311 115.007,-6.423 26.275,-2.829 52.133,-9.545 78.178,-14.524 z m 1387.041,71.69 c -6.717,-4.356 -13.435,-8.712 -20.152,-13.069 21.08,-8.024 42.159,-16.049 63.239,-24.073 -0.472,-1.797 -0.944,-3.594 -1.416,-5.391 -25.345,0 -50.69,0 -78.872,0 6.523,11.801 -11.479,32.544 16.831,29.403 -4.903,6.572 -9.806,13.145 -14.732,19.749 6.229,5.486 12.171,10.719 18.196,16.026 5.688,-8.177 10.964,-15.763 16.231,-23.384 3.709,0.183 7.417,0.367 8.605,0.426 -4.522,7.479 -9.065,14.991 -13.607,22.503 2.93,1.701 5.861,3.401 8.791,5.102 5.981,-10.316 13.034,-20.257 16.908,-31.312 0.661,-1.886 -12.282,-8.539 -23.004,-15.707 1.722,11.394 2.352,15.56 2.982,19.727 z M 649.235,2559.817 c 6.611,4.502 13.222,9.004 24.653,16.789 0,-12.789 0,-20.96 0,-29.131 -6.273,3.344 -12.521,6.737 -18.834,10.002 -1.861,0.963 -3.909,1.564 -5.871,2.332 1.253,-14.502 2.506,-29.004 4.129,-47.796 -12.834,5.445 -20.666,8.768 -31.034,13.167 10.51,13.509 18.726,24.07 26.957,34.637 z M 3318.4,2433.384 c -5.68,4.035 -11.359,8.069 -22.583,16.041 22.574,11.462 41.043,20.839 62.217,31.59 0,-8.11 0.609,-10.324 -0.094,-10.881 -7,-5.538 -14.218,-10.802 -21.373,-16.143 5.763,0.826 11.527,1.652 24.022,3.442 -11.708,-13.969 -18.232,-23.195 -26.219,-30.905 -9.222,-8.902 -13.62,-2.44 -15.97,6.856 z M 991.659,2315.169 c 21.582,-8.449 43.382,-16.389 64.672,-25.52 15.127,-6.488 29.565,-14.583 44.311,-21.96 -25.327,16.513 -50.654,33.025 -81.723,53.281 94.833,-20.258 183.283,-39.152 274.4,-58.616 -12.498,-28.281 -22.996,-52.037 -34.761,-78.66 -35.255,17.616 -68.074,33.374 -100.259,50.335 -19.91,10.493 -38.855,22.817 -58.202,34.276 6.047,-4.707 12.093,-9.413 18.14,-14.12 -1.59,-2.056 -3.181,-4.113 -4.771,-6.169 -40.366,22.614 -80.732,45.228 -121.134,67.827 -23.953,11.009 -47.905,22.017 -71.858,33.026 1.001,2.188 2.002,4.377 3.004,6.566 25.679,-7.808 51.358,-15.615 73.895,-22.468 -2.13,-6.631 -3.922,-12.215 -5.714,-17.798 z m 563.279,91.499 c 23.484,18.678 41.886,20.62 67.024,3.275 6.579,-4.539 10.294,-16.509 10.983,-25.402 0.721,-9.302 -41.758,-41.324 -50.677,-37.949 -12.069,4.567 -28.196,11.077 -32.173,20.948 -4.353,10.803 3.153,26.385 5.491,39.885 z m 1707.407,152.001 c 0.01,-11.206 11.738,-30.04 -11.735,-28.063 -27.233,2.294 -55.598,34.394 -59.626,61.153 17.927,12.043 34.849,12.4 50.226,-4.335 -2.165,5.825 -4.33,11.65 -6.574,17.69 42.124,5.893 45.599,-2.865 41.781,-65.665 -5.308,7.249 -9.69,13.234 -14.072,19.22 z m -12.368,-274.294 c 3.375,-12.138 6.751,-24.277 10.13,-36.426 -32.309,-8.758 -58.199,4.761 -69.317,33.557 -4.74,12.275 12.351,44.633 28.673,54.286 3.116,1.129 7.703,4.188 9.13,3.101 22.957,-17.488 40.221,-38.667 43.238,-72.87 -9.073,7.619 -15.464,12.985 -21.854,18.352 z m 130.697,177.974 c 7.386,2.104 14.773,4.209 25.739,7.334 2.202,-14.339 5.775,-27.466 5.919,-40.63 0.31,-28.237 -22.604,-45.557 -50.454,-39.746 2.028,-24.772 29.444,-16.665 40.829,-31.912 -4.528,-4.831 -9.146,-9.758 -13.086,-13.962 -13.916,7.734 -25.693,14.28 -35.895,19.949 3.01,9.602 5.566,17.758 8.123,25.913 -8.211,8.071 -16.421,16.142 -27.313,26.848 15.836,15.807 31.032,30.974 46.183,46.155 -4.913,0 -9.825,0 -14.669,0 -2.043,21.094 -2.043,21.094 24.697,41.025 3.092,-6.366 6.066,-12.491 9.305,-19.161 -8.257,-4.561 -15.283,-7.958 -21.564,-12.407 -0.993,-0.705 1.373,-6.152 2.186,-9.406 z M 1729.613,1844.772 c 7.124,-13.235 12.677,-27.683 21.739,-39.421 13.76,-17.822 29.956,-33.762 46.562,-52.096 -56.273,-15.95 -110.007,-31.181 -168.476,-47.753 27.834,54.13 53.419,103.885 79.56,154.722 7.373,-5.234 12.565,-8.919 17.757,-12.604 -1.447,3.989 -4.109,7.989 -4.069,11.963 0.066,6.798 0.813,14.018 3.452,20.118 0.856,1.979 11.621,2.724 12.528,1.085 3.412,-6.162 7.496,-14.328 5.873,-20.247 -1.689,-6.158 -9.687,-10.584 -14.926,-15.767 z m -725.432,519.077 c -8.481,4.99 -16.961,9.979 -29.807,17.537 118.375,-16.321 231.778,-31.956 343.556,-47.366 -14.224,-13.269 -15.084,-23.376 -2.646,-40.808 -8.772,4.469 -17.543,8.938 -22.346,11.384 1.846,-9.137 7.25,-19.593 4.073,-24.544 -3.485,-5.432 -15.592,-9.261 -22.718,-7.804 -55.077,11.259 -109.775,24.352 -164.764,36.063 -26.806,5.708 -53.983,9.676 -84.83,15.108 32.722,21.015 63.46,5.111 93.316,10.834 -12.266,1.77 -24.531,3.54 -36.797,5.309 -0.089,1.267 -0.177,2.535 -0.266,3.802 9.067,2.965 18.135,5.929 27.703,9.058 -23.988,0 -47.032,0 -70.076,0 2.025,-2.91 4.051,-5.819 7.094,-10.19 -36.062,-7.104 -68.506,4.652 -100.903,14.221 -4.09,1.208 -5.359,11.967 -9.445,22.011 27.545,-5.847 48.201,-10.231 68.856,-14.615 z m -333.579,346.304 c 4.217,-7.405 8.434,-14.809 14.021,-24.617 -6.207,-11.183 -11.85,-3.153 -17.864,5.534 -24.971,36.072 -50.277,71.913 -75.078,108.101 -23.429,34.185 -46.381,68.698 -71.741,106.327 31.064,12.826 58.907,24.322 89.202,36.83 11.908,-47.958 22.472,-92.612 34.183,-136.962 8.495,-32.172 18.509,-63.942 27.846,-95.892 -18.1,77.184 -36.201,154.368 -55.12,235.045 32.57,6.639 64.012,13.048 97.725,19.919 0,-37.192 0,-69.809 0,-103.192 -12.983,-2.585 -25.312,-4.287 -37.115,-7.77 -4.58,-1.352 -7.97,-6.733 -11.903,-10.279 4.35,-2.695 8.384,-6.579 13.116,-7.838 9.726,-2.586 19.825,-3.767 31.64,-5.858 -16.401,-6.996 18.923,-22.555 -9.244,-28.093 4.269,-10.49 13.721,-22.246 12.151,-32.276 -3.159,-20.178 14.041,-44.296 -17.428,-61.298 -14.52,-7.844 -16.649,-7.354 -24.391,2.319 z m 2274.407,-418.167 c 6.912,2.917 13.824,5.833 21.676,9.146 -5.416,-18.962 -9.672,-36.484 -15.492,-53.47 -5.412,-15.796 -12.492,-31.021 -18.842,-46.521 5.38,1.921 10.76,3.841 13.064,4.663 9.074,-23.781 18.388,-45.772 25.636,-68.425 2.746,-8.583 4.735,-21.832 0.223,-27.589 -27.212,-34.731 -56.411,-67.905 -83.29,-99.647 -28.66,25.296 -53.558,47.272 -79.093,69.809 34.056,32.16 63.46,59.5 92.324,87.398 11.24,10.864 21.26,22.989 31.835,34.539 -28.702,-25.726 -57.468,-51.382 -86.079,-77.209 -12.731,-11.493 -25.151,-23.331 -39.901,-37.049 -18.834,29.52 -35.58,55.768 -53.419,83.729 11.278,7.219 20.323,13.081 29.439,18.833 54.184,34.189 108.384,68.353 162.616,102.573 -6.454,-2.577 -13.398,-4.335 -19.286,-7.858 -52.718,-31.542 -105.224,-63.437 -157.874,-95.093 -5.317,-3.197 -11.166,-5.509 -19.608,-9.611 -11.909,30.622 -22.863,58.785 -34.777,89.421 89.223,17.656 174.591,34.549 265.24,52.488 -14.469,-12.674 -24.431,-21.4 -34.392,-30.127 z M 859.48,2676.548 c -4.877,-3.838 -9.755,-7.676 -16.631,-13.088 -5.182,8.031 -13.436,14.94 -13.611,22.048 -1.165,47.411 -0.605,94.865 -0.605,142.584 7.658,-1.142 13.477,-2.01 19.297,-2.879 0.211,1.213 0.421,2.425 0.632,3.638 -6.526,2.402 -13.052,4.804 -17.459,6.427 0,42.708 0,84.183 0,129.644 34.335,-6.941 65.354,-13.211 96.892,-19.587 -1.491,-10.406 -2.009,-16.945 -3.402,-23.292 -15.967,-72.782 -31.842,-145.587 -48.456,-218.222 -1.813,-7.928 -8.095,-14.833 -12.304,-22.213 2.115,-2.129 6.408,-4.86 6.011,-6.294 -4.714,-17.033 -10.127,-33.874 -15.356,-50.765 -2.304,0.604 -4.609,1.209 -6.913,1.813 3.968,16.729 7.936,33.458 11.905,50.186 z m 27.893,-523.116 c -6.942,15.533 -13.883,31.065 -19.976,44.698 33.225,24.828 50.699,0.512 70.011,-19.107 49.776,-50.567 99.852,-100.839 149.616,-151.416 7.424,-7.545 13.816,-16.104 22.653,-26.51 -28.999,-19.124 -55.483,-36.59 -83.202,-54.871 -8.138,11.894 -14.328,20.788 -20.363,29.787 -27.618,41.182 -55.193,82.392 -82.783,123.593 3.978,-8.459 7.116,-17.448 12.072,-25.288 27.304,-43.184 55.053,-86.087 84.698,-132.28 -30.141,-12.085 -58.135,-23.309 -85.382,-34.232 -2.931,4.21 -4.221,5.284 -4.503,6.577 -16.298,74.965 -32.648,149.92 -48.371,225.006 -0.859,4.114 3.566,9.336 5.53,14.043 z m 2075.153,400.696 c 3.821,-4.307 7.642,-8.614 15.513,-17.486 -90.816,18.954 -175.942,36.719 -264.217,55.143 12.607,30.948 23.715,58.214 35.83,87.951 50.01,-30.567 96.457,-59.402 143.377,-87.444 22.949,-13.715 46.778,-25.957 70.209,-38.866 -7.32,5.582 -14.225,11.838 -22.026,16.638 -61.638,37.937 -123.447,75.595 -188.469,115.335 18.499,28.482 36.005,55.436 55.104,84.841 87.719,-82.002 171.538,-160.358 255.356,-238.714 -0.442,-2.584 -0.883,-5.168 -1.325,-7.753 -9.86,0 -20.685,-2.654 -29.395,0.51 -23.803,8.647 -46.715,19.745 -69.957,29.845 z m -2450.832,-9.804 c -9.63,-1.078 -19.69,-4.503 -28.817,-2.833 -41.606,7.617 -82.967,16.581 -124.382,25.227 -34.751,7.255 -69.453,14.74 -107.444,22.817 12.564,30.526 23.827,57.889 36.298,88.188 48.818,-29.854 94.079,-57.946 139.769,-85.323 28.111,-16.843 56.876,-32.594 85.348,-48.836 -4.228,3.727 -8.024,8.154 -12.75,11.075 -62.145,38.414 -124.428,76.604 -186.655,114.885 -6.611,4.067 -13.087,8.352 -22.553,14.409 19.513,28.754 37.618,55.433 56.592,83.394 34,-31.952 64.209,-60.687 94.863,-88.939 9.334,-8.603 19.894,-15.875 29.892,-23.757 -11.415,12.024 -22.433,24.457 -34.324,35.99 -27.698,26.862 -55.816,53.29 -87.141,83.108 20.627,19.378 39.762,36.329 57.655,54.502 13.162,13.369 21.951,12.571 35.437,-1.289 27.481,-28.241 57.511,-54.002 86.491,-80.785 -32.079,33.553 -64.157,67.106 -98.824,103.366 28.522,18.241 54.677,34.968 81.501,52.123 5.432,-6.727 9.367,-10.992 12.623,-15.725 42.75,-62.143 86.093,-123.896 127.664,-186.82 12.526,-18.96 31.868,-36.332 26.449,-58.329 7.405,-2.568 14.258,-2.909 16.69,-6.364 2.401,-3.41 2.163,-11.107 -0.188,-14.892 -4.047,-6.516 -10.633,-11.456 -18.026,-18.958 -42.05,42.781 -84.541,86.271 -127.427,129.367 -6.57,6.602 -14.962,11.389 -22.511,17.016 48.309,-49.053 96.618,-98.107 142.347,-144.541 -22.587,-22.204 -41.565,-40.86 -64.101,-63.012 -8.032,5.99 -21.903,15.007 -34.233,25.785 -33.928,29.658 -67.211,60.056 -100.748,90.141 1.569,-3.008 2.469,-6.73 4.806,-8.916 37.767,-35.312 75.581,-70.576 113.782,-105.415 5.227,-4.767 12.588,-7.194 18.961,-10.705 -1.892,-2.887 -3.785,-5.774 -5.677,-8.661 -6.679,-0.382 -13.91,-2.616 -19.941,-0.82 -23.995,7.149 -47.619,15.553 -71.426,23.527 z M 3690.61,2177.702 c -4.427,4.338 -8.304,9.496 -13.366,12.888 -51.733,34.663 -103.686,68.998 -155.493,103.55 -6.266,4.179 -12.036,9.101 -18.036,13.678 0.66,1.177 1.32,2.355 1.98,3.533 79.112,-15.873 158.223,-31.747 241.18,-48.391 -14.006,-31.926 -26.239,-59.808 -38.394,-87.513 -7.778,1.227 -13.141,2.073 -18.504,2.919 9.285,-8.315 11.34,-16.345 2.834,-27.524 -13.215,-17.37 -23.904,-36.687 -37.422,-53.789 -4.24,-5.365 -14.14,-6.256 -21.45,-9.196 0.104,-5.315 2.543,-12.774 -0.057,-15.605 -20.947,-22.806 -42.843,-44.74 -63.602,-66.07 -9.672,6.654 -15.475,10.645 -21.288,14.633 3.302,-6.857 6.604,-13.715 11.075,-23.002 -27.537,-17.587 -54.415,-34.752 -81.31,-51.929 -55.914,89.054 -110.764,175.199 -163.579,262.574 -4.82,7.974 3.41,23.837 5.58,36.037 8.194,-4.547 18.098,-7.445 24.316,-13.896 59.528,-61.769 118.348,-124.219 177.616,-186.24 8.349,-8.737 18.016,-16.216 27.073,-24.277 -21.399,23.696 -42.393,47.775 -64.28,71.012 -49.554,52.611 -99.55,104.807 -143.053,150.536 21.848,23.875 41.837,45.718 62.773,68.597 1.657,-1.507 6.603,-5.68 11.186,-10.219 60.34,-59.764 120.512,-119.699 181.051,-179.261 9.784,-9.627 21.145,-17.652 31.777,-26.417 -6.62,7.698 -12.753,15.887 -19.937,23.017 -63.906,63.421 -128.07,126.582 -191.864,190.115 -4.094,4.077 -5.747,10.604 -8.536,15.991 4.465,1.663 9.562,5.634 13.292,4.613 23.65,-6.478 48.381,-11.271 70.074,-22.025 24.007,-11.902 44.896,-29.975 67.584,-44.68 43.435,-28.154 87.181,-55.825 130.78,-83.659 z m -198.516,367.117 c -8.259,-4.102 -16.488,-8.266 -24.784,-12.292 -19.93,-9.674 -40.126,-17.382 -64.836,-9.017 7.352,9.895 13.239,17.819 19.126,25.743 -7.09,-4.519 -14.181,-9.038 -15.825,-10.085 -21.397,22.044 -41.787,43.051 -62.177,64.058 -2.004,-1.759 -4.007,-3.517 -6.011,-5.276 7.6,9.55 15.2,19.101 22.801,28.651 -11.197,-8.481 -22.393,-16.961 -33.589,-25.442 -1.927,0.892 -3.854,1.784 -5.781,2.676 5.666,22.749 6.425,48.401 17.865,67.733 44.296,74.856 91.898,147.761 138.701,221.116 2.482,3.891 10.93,8.629 13.229,7.269 25.299,-14.957 49.928,-31.047 76.85,-48.174 -20.305,-21.309 -37.161,-38.508 -53.466,-56.214 -33.146,-35.995 -65.995,-72.264 -98.966,-108.42 9.149,8.362 18.754,16.281 27.369,25.162 42.76,44.081 85.257,88.415 130.095,134.995 20.374,-19.894 38.45,-38.85 57.973,-56.175 14.27,-12.663 11.785,-21.403 -0.834,-33.684 -57.188,-55.657 -113.582,-112.132 -170.261,-168.312 9.277,6.884 19.436,12.853 27.679,20.809 38.344,37.007 76.035,74.688 114.219,111.863 15.525,15.115 31.708,29.553 50.784,47.264 19.108,-29.673 36.504,-56.687 54.04,-83.918 -22.564,-16.426 -41.703,-30.358 -60.842,-44.291 21.433,11.323 42.865,22.647 67.024,35.41 11.624,-29.43 22.42,-56.765 34.304,-86.855 -88.828,-18.713 -172.794,-36.403 -257.635,-54.277 1.342,4.404 2.145,7.043 2.948,9.683 z m -2519.144,-20.8 c -13.771,-2.196 -27.543,-4.392 -45.203,-7.208 7.133,8.586 11.469,13.806 15.804,19.025 -6.248,-1.277 -12.497,-2.555 -16.972,-3.469 -17.287,22.159 -33.466,42.897 -50.783,65.095 1.676,2.95 4.894,8.617 8.113,14.283 -4.553,-3.415 -8.826,-7.334 -13.756,-10.07 -3.341,-1.854 -7.605,-2.044 -11.457,-2.978 -0.511,3.959 -2.486,8.433 -1.302,11.795 10.099,28.678 16.455,59.816 32.103,85.177 42.6,69.043 89.192,135.624 134.294,203.12 0.671,1.004 2.527,1.216 6.934,3.184 24.257,-16.004 49.98,-32.974 76.769,-50.648 -52.716,-56.287 -102.6,-109.549 -152.483,-162.811 53.009,51.905 106.017,103.811 162.548,159.164 23.143,-24.869 44.968,-48.322 67.853,-72.914 -11.793,-13.323 -23.265,-26.282 -34.737,-39.241 13.857,10.1 27.713,20.2 44.094,32.14 18.441,-26.958 35.97,-52.583 55.122,-80.581 -55.465,-35.863 -108.124,-71.259 -162.171,-104.391 -36.802,-22.56 -70.346,-52.223 -115.55,-58.937 4.094,-1.059 8.188,-2.118 15.649,-4.047 -18.111,-11.192 -33.989,-21.005 -49.867,-30.817 -2.082,2.282 -4.164,4.564 -6.247,6.846 3.977,4.894 7.064,11.219 12.127,14.367 9.079,5.646 19.347,9.382 29.118,13.916 z m 2043.609,200.014 c -4.689,6.092 -8.922,12.607 -14.14,18.206 -34.869,37.414 -69.948,74.632 -106.846,113.922 17.104,11.187 38.124,24.055 58.149,38.322 14.928,10.635 23.254,7.117 33.061,-7.671 42.852,-64.621 88.332,-127.545 129.717,-193.068 16,-25.333 23.676,-55.924 35.144,-84.119 -2.522,-1.373 -5.045,-2.745 -7.567,-4.118 -4.635,4.001 -9.504,7.766 -13.87,12.043 -30.858,30.232 -61.467,60.722 -92.521,90.751 -6.504,6.289 -14.526,11.009 -21.849,16.451 4.455,-5.533 8.565,-11.389 13.419,-16.547 34.508,-36.675 69.168,-73.206 102.237,-108.153 -19.622,-17.984 -42.389,-38.848 -67.015,-61.418 -83.26,78.017 -166.887,156.379 -252.323,236.436 25.084,25.396 47.958,48.554 71.91,72.805 22.148,-21.142 41.013,-39.486 60.251,-57.432 23.918,-22.314 48.145,-44.298 72.243,-66.41 z M 443.273,2166.481 c -30.937,-26.514 -61.874,-53.027 -95.574,-81.909 -18.313,27.375 -36.287,54.243 -53.93,80.617 3.95,4.265 5.157,6.284 6.933,7.384 78.337,48.511 156.059,98.077 235.574,144.579 19.742,11.546 45.303,13.143 59.503,16.972 -36.244,-39.835 -75.553,-83.058 -114.887,-126.257 -12.24,-13.443 -24.548,-26.825 -36.825,-40.235 6.265,5.026 12.951,9.613 18.727,15.149 43.311,41.512 87.127,82.536 129.258,125.22 14.656,14.847 21.354,13.01 32.868,-2.921 12.738,-17.625 29.355,-32.447 45.588,-49.892 -27.379,-30.207 -58.011,-64.001 -88.642,-97.796 33.841,32.497 67.682,64.995 106.32,102.1 -2.662,-35.85 -9.156,-63.746 -24.654,-88.354 -37.393,-59.376 -75.898,-118.055 -114.107,-176.916 -10.662,-16.425 -21.856,-32.505 -34.049,-50.585 -29.024,18.926 -56.129,36.601 -83.471,54.43 49.045,52.038 95.627,101.462 142.209,150.887 -49.265,-47.603 -98.53,-95.207 -144.372,-139.503 -26.381,23.036 -51.383,44.868 -76.045,66.403 32.152,32.53 60.864,61.578 89.576,90.627 z m 1666.312,-445.442 c 24.546,-75.47 49.093,-150.94 74.806,-229.998 -26.809,22.276 -48.921,44.306 -74.468,61.116 -53.651,35.303 -61.504,89.739 -65.536,146.101 -1.586,22.168 15.836,34.611 32.506,42.859 4.886,2.418 17.379,-10.567 26.405,-16.464 2.335,-1.525 4.741,-2.941 7.115,-4.407 -7.376,8.693 -14.938,24.892 -22.094,24.714 -24.315,-0.603 -33.448,18.324 -48.559,29.8 -21.251,16.139 -26.64,34.201 -13.1,58.592 5.995,10.799 7.207,24.254 10.82,37.333 -6.257,-5.302 -12.047,-10.208 -18.162,-15.391 -17.298,16.927 -17.552,53.703 -54.439,41.249 -1.323,30.087 -1.402,29.67 -27.978,34.698 -4.265,0.807 -9.247,6.666 -10.709,11.214 -1.854,5.769 -0.448,12.586 -0.448,19.987 -12.042,0.885 -21.839,1.605 -32.007,2.352 -1.07,18.113 3.202,40.085 -26.938,31.195 -2.036,-0.601 -8.585,5.048 -8.458,7.557 1.331,26.077 -14.302,27.358 -33.417,22.404 -2.849,31.401 -2.849,31.401 -38.634,36.146 2.308,31.619 1.796,32.092 -32.149,29.69 -4.104,42.023 -4.104,42.023 -38.11,32.022 -15.781,10.832 -29.705,20.389 -43.644,29.956 18.977,19.426 72.73,43.62 104.803,47.425 67.889,8.054 125.223,-23.677 161.33,-90.735 14.574,-27.067 26.975,-55.304 40.364,-83.009 -35.407,124.285 -101.206,214.69 -246.247,214.298 84.322,20.351 189.529,-8.281 235.523,-115.816 33.078,-77.337 66.779,-154.41 100.297,-231.558 70.651,-162.614 141.366,-325.201 212.054,-487.799 -22.14,27.241 -43.968,55.565 -59.607,86.972 -31.27,62.796 -58.874,127.41 -88.657,190.961 -6.03,12.881 -15.01,24.379 -22.662,36.536 z M 230.36,2376.117 c 0,36.195 0,68.053 0,99.628 4.212,1.096 6.278,2.11 8.341,2.103 109.298,-0.389 218.598,-0.589 327.885,-1.901 7.995,-0.096 15.893,-8.313 26.943,-14.491 -9.42,-4.181 -13.351,-5.926 -18.545,-8.231 4.887,-6.733 8.608,-11.858 12.328,-16.984 -2.252,-0.511 -4.505,-1.022 -6.757,-1.533 1.516,-15.641 3.031,-31.281 4.848,-50.023 -118.985,-2.871 -236,-5.695 -355.043,-8.568 z m 2947.522,589.091 c 15.677,0 29.643,0 44.055,0 0.988,-12.903 1.932,-25.239 2.877,-37.575 2.047,0 4.094,0 6.141,0 1.31,12.906 2.619,25.811 3.816,37.615 16.747,0 31.782,0 45.7,0 0,-114.505 0,-227.117 0,-336.501 -32.831,-1.85 -62.361,-3.514 -94.874,-5.346 -2.474,109.651 -5.071,224.659 -7.715,341.807 z m 254.45,-491.241 c 112.26,0 223.91,0 336.225,0 0,-32.982 0,-64.92 0,-96.483 -113.641,0 -225.244,0 -336.225,0 0,32.353 0,62.16 0,96.483 z M 3268.579,2224.33 c 0,-113.931 0,-225.567 0,-339.595 -25.94,0 -51.386,0.337 -76.817,-0.128 -14.933,-0.273 -20.084,5.343 -19.65,20.891 2.37,84.929 3.762,169.887 5.289,254.839 0.392,21.802 0.059,43.615 0.059,63.993 31.697,0 59.404,0 91.119,0 z M 724.159,1883.747 c 0,115.018 0,227.104 0,341.432 16.346,-23.922 21.008,-23.979 44.132,-12.023 8.295,4.289 20.608,4.46 30.007,2.137 15.478,-3.826 20.251,-16.531 20.27,-32.265 0.117,-96.115 0.787,-192.229 1.126,-288.344 0.012,-3.353 -1.519,-6.711 -2.542,-10.937 -30.88,0 -60.808,0 -92.993,0 z m 1970.15,594.137 c 3.237,1.734 3.885,2.387 4.53,2.383 93.083,-0.513 186.167,-0.988 279.246,-1.929 3.968,-0.04 9.247,-3.497 11.577,-6.943 6.496,-9.61 11.914,-19.97 17.482,-30.184 12.603,-23.116 -5.343,-55.191 -30.867,-55.634 -85.793,-1.49 -171.583,-3.103 -257.375,-4.632 -7.842,-0.14 -15.689,-0.018 -24.592,-0.018 -10e-4,34.577 -10e-4,66.475 -10e-4,96.957 z M 595.517,2369.794 c -15.974,-31.089 -44.447,-38.205 -70.193,-44.284 -60.379,-14.256 -121.736,-24.398 -182.76,-35.872 -30.581,-5.75 -61.299,-10.774 -94.21,-16.52 -6.358,33.388 -12.147,63.79 -17.997,94.507 6.465,1.516 9.264,2.692 12.091,2.76 109.925,2.635 219.849,5.34 329.785,7.344 7.554,0.138 15.205,-5.053 23.284,-7.935 z m 716.995,112.694 c -123.174,0 -241.662,0 -360.15,0 -0.948,2.916 -1.897,5.832 -2.846,8.747 26.811,13.185 52.432,30.533 80.701,38.616 46.86,13.399 95.401,20.953 143.279,30.751 38.344,7.846 76.754,15.367 118.049,23.615 6.924,-33.59 13.467,-65.338 20.967,-101.729 z m 2456.671,2.1 c -7.265,-1.021 -11.49,-2.076 -15.73,-2.143 -103.403,-1.614 -206.808,-3.138 -310.214,-4.606 -5.115,-0.073 -11.03,-0.959 -15.103,1.247 -3.157,1.709 -6.624,10.127 -5.484,11.332 8.593,9.077 16.992,21.391 27.88,24.698 40.341,12.252 81.406,22.378 122.593,31.525 57.591,12.79 115.535,23.988 176.345,36.488 6.723,-33.607 13.103,-65.502 19.713,-98.541 z m -3521.135,95.728 c 9.36,-0.576 15.252,-0.29 20.877,-1.381 83.97,-16.307 168.035,-32.166 251.771,-49.603 27.221,-5.668 50.886,-19.436 68.892,-45.277 -121.041,0 -238.669,0 -360.228,0 6.437,33.158 12.358,63.657 18.688,96.261 z m 3522.601,-208.689 c -7.328,-32.976 -13.646,-59.21 -18.83,-85.666 -2.596,-13.247 -8.645,-15.993 -21.49,-13.329 -44.421,9.214 -89.42,15.842 -133.55,26.214 -54.011,12.695 -112.6,11.706 -158.635,49.795 -4.616,3.819 -7.999,9.127 -11.955,13.744 5.959,3.131 11.818,8.712 17.896,8.963 24.161,0.997 48.39,0.292 72.594,0.286 82.784,-0.018 165.567,-0.01 253.97,-0.01 z m -494.04,-141.114 c 2.154,0.661 4.308,1.322 6.462,1.983 20.756,-19.442 34.827,-43.364 40.883,-71.532 10.432,-48.523 19.856,-97.265 29.489,-145.958 7.18,-36.295 14.021,-72.657 21.553,-111.795 -33.303,-6.068 -63.636,-11.594 -98.387,-17.925 0,118.418 0,231.823 0,345.227 z m -2561.994,-0.347 c 0,-115.956 0,-230.355 0,-347.219 -34.916,6.925 -66.052,13.099 -98.114,19.458 19.186,85.385 38.293,167.024 55.57,249.048 6.508,30.896 17.327,58.073 42.544,78.713 z M 3288.5,2612.661 c 0,119.771 0,234.412 0,353.907 32.84,-6.888 61.307,-12.387 89.402,-19.382 3.327,-0.829 7.391,-10.437 6.435,-14.995 -17.837,-85.059 -35.812,-170.099 -55.135,-254.829 -5.619,-24.637 -18.925,-45.985 -40.702,-64.701 z m -222.748,-706.044 c 7.488,31.305 12.928,59.939 21.253,87.708 21.909,73.078 28.031,150.524 60.983,220.439 3.083,6.541 10.334,11.118 15.65,16.606 2.758,-7.444 8.007,-14.925 7.897,-22.327 -1.473,-99.538 -3.672,-199.066 -5.771,-298.594 -0.148,-7.051 -0.916,-14.089 -1.646,-24.809 -33.791,7.206 -64.817,13.822 -98.366,20.977 z m 113.724,707.329 c -2.017,-0.817 -4.033,-1.634 -6.05,-2.451 -13.898,28.243 -31.674,55.294 -40.81,85.001 -14.766,48.017 -23.973,97.754 -35.292,146.819 -7.833,33.956 -15.271,68.004 -23.495,104.736 32.896,6.528 63.427,12.586 97.816,19.41 2.652,-119.726 5.241,-236.62 7.831,-353.515 z m -486.369,-238.829 c 103.731,0 204.131,0 304.278,0 -3.508,-12.754 -7.346,-26.712 -12.556,-45.659 -87.252,-17.007 -178.625,-34.817 -272.952,-53.204 -6.417,33.796 -12.093,63.692 -18.77,98.863 z M 827.191,1883.492 c 0,107.883 0,212.414 0,316.991 29.176,0.615 34.704,-2.28 41.659,-31.902 12.358,-52.634 23.216,-105.624 34.42,-158.525 7.359,-34.747 14.226,-69.598 21.831,-106.949 -33.134,-6.638 -63.673,-12.756 -97.91,-19.615 z m 1865.692,603.498 c 6.782,34.168 12.93,65.145 19.042,95.941 6.996,0 10.687,0.607 14.112,-0.089 81.554,-16.563 163.144,-32.965 244.564,-50.167 19.119,-4.04 37.648,-10.872 56.449,-16.42 -0.091,-2.984 -0.182,-5.968 -0.274,-8.952 -18.552,-7.497 -36.982,-21.068 -55.678,-21.445 -83.427,-1.681 -166.928,0.413 -250.403,1.124 -7.874,0.066 -15.748,0.01 -27.812,0.01 z m -842.144,-715.677 c 53.373,-30.033 103.564,-75.98 175.342,-43.442 1.571,-12.137 2.844,-21.366 3.951,-30.615 7.255,-60.594 24.306,-115.149 78.107,-153.103 51.469,-36.31 100.149,-76.395 125.24,-137.488 2.979,-7.253 9.061,-13.275 13.933,-19.695 5.159,-6.799 10.589,-13.393 15.901,-20.076 -1.429,-1.179 -2.858,-2.357 -4.287,-3.536 -131.612,109.77 -263.225,219.54 -394.837,329.31 69.485,-26.672 121.518,-79.42 184.607,-123.029 -19.616,47.139 -40.07,90.107 -33.495,141.507 -28.711,-20.38 -56.068,-11.629 -84.152,-0.374 -16.143,6.469 -33.632,9.628 -50.58,14.026 -21.956,5.698 -43.977,11.146 -64.216,16.258 12.414,10.892 22.928,20.116 34.486,30.257 z m -118.869,344.724 c 2.701,-2.337 5.401,-4.674 8.102,-7.01 11.474,-42.369 -38.363,-38.499 -49.662,-59.626 1.691,-12.786 2.996,-22.65 4.445,-33.599 22.14,6.769 32.702,24.593 45.428,40.982 5.988,7.711 17.396,11.405 26.812,15.959 0.916,0.443 7.805,-8.249 7.383,-8.732 -6.284,-7.187 -13.471,-13.571 -20.17,-20.413 -9.308,-9.507 -20.328,-18.103 -26.863,-29.282 -4.177,-7.146 -1.581,-18.253 -2.18,-30.942 5.417,0.511 11.136,0.832 16.784,1.648 5.204,0.752 13.374,4.48 14.886,2.598 3.623,-4.51 4.81,-11.45 5.65,-17.592 0.858,-6.267 0.128,-12.751 0.093,-19.14 6.915,1.519 13.829,3.038 23.695,5.205 3.007,-6 7.627,-13.227 10.249,-21.117 1.899,-5.715 1.149,-12.31 1.58,-18.513 6.209,2.091 12.417,4.182 23.777,8.007 3.309,-12.527 6.593,-24.956 10.619,-40.194 -2.439,1.408 -1.268,0.491 0.061,0.031 1.36,-0.471 3.095,-1.077 4.29,-0.626 21.858,8.242 31.519,3.117 25.313,-21.8 -0.552,-2.216 7.45,-9.578 9.131,-8.882 24.064,9.972 24.528,-8.301 24.972,-22.134 0.572,-17.815 10.232,-16.406 19.359,-9.875 12.965,9.279 23.885,21.399 35.794,32.178 11.723,10.612 23.589,21.065 35.392,31.589 1.775,-1.904 3.549,-3.808 5.324,-5.712 -4.51,-4.989 -8.823,-10.173 -13.564,-14.931 -15.512,-15.568 -32.048,-30.219 -46.507,-46.699 -11.153,-12.713 -7.672,-32.88 4.411,-32.175 28.54,1.665 29.971,-23.49 43.174,-38.1 -16.591,1.722 -33.387,3.935 -45.707,12.549 -32.901,23.005 -64.857,47.624 -95.269,73.829 -19.425,16.738 -35.837,36.784 -61.064,36.366 -26.266,71.416 -81.542,119.755 -122.574,180.646 26.33,22.448 51.583,43.978 76.836,65.507 z m -345.494,-2.807 c 12.724,27.229 24.325,52 35.875,76.794 5.373,11.534 12.123,22.715 15.405,34.827 1.933,7.134 -1.708,15.777 -3.031,25.068 9.352,4.384 30.041,7.016 6.985,26.298 -2.153,1.8 -0.287,8.406 -0.287,12.042 12.199,-14.343 22.622,-28.474 34.991,-40.624 13,-12.77 27.404,-24.251 42.001,-35.224 35.926,-27.004 47.274,-25.234 74.848,10.757 -22.171,-60.099 -49.299,-114.025 -122.31,-121.37 -28.972,-2.913 -58.927,-10.483 -84.477,11.432 z m -663.68,849.882 c 14.436,0.906 28.467,1.786 42.415,2.661 1.522,-15.955 2.763,-28.953 4.003,-41.952 2.242,0.023 4.484,0.046 6.726,0.069 1.483,13.222 2.965,26.443 4.714,42.04 14.393,-0.875 28.448,-1.73 41.117,-2.5 0,-94.389 0,-186.009 0,-278.894 -38.531,20.339 -50.569,43.293 -45.263,82.895 6.633,1.369 13.266,2.738 22.29,4.6 -5.543,7.218 -9.287,12.093 -13.613,17.726 9.261,2.471 17.369,4.634 24.762,6.607 -4.235,17.88 -8.054,34.005 -11.186,47.228 -4.306,2.763 -8.101,5.223 -11.921,7.644 -6.538,4.143 -12.74,10.905 -19.714,11.834 -14.028,1.871 -28.481,0.556 -44.331,0.556 10e-4,31.957 10e-4,64.619 10e-4,99.486 z M 512.074,2317.097 c 0.659,-1.734 1.318,-3.468 1.977,-5.202 -74.136,-45.566 -148.272,-91.133 -225.61,-138.667 -13.237,32.982 -24.53,61.121 -37.054,92.328 89.614,17.717 175.151,34.629 260.687,51.541 z M 2747.493,1196.964 c -0.12,-19.685 -5.929,-27.792 -21.935,-31.379 -40.083,-8.983 -71.913,-31.151 -95.218,-65.454 -10.768,-15.851 -22.684,-30.922 -34.08,-46.347 -2.464,0.584 -4.928,1.169 -7.392,1.753 0,9.772 -1.554,19.864 0.376,29.238 2.674,12.989 -2.081,18.068 -14.125,18.149 -5.473,0.037 -10.955,-1.05 -19.769,-1.979 19.969,39.769 38.528,76.728 56.482,112.484 46.612,-5.658 90.707,-11.009 135.661,-16.465 z M 665.574,2162.176 c 1.045,-0.582 2.09,-1.165 3.135,-1.747 -19.568,-84.752 -39.135,-169.504 -59.181,-256.327 -31.099,12.931 -58.313,24.246 -87.151,36.237 49.131,76.113 96.164,148.975 143.197,221.837 z m 622.541,427.807 c -85.381,-17.595 -167.264,-34.469 -249.147,-51.344 -0.469,1.666 -0.938,3.332 -1.407,4.998 64.165,40.735 128.33,81.47 186.95,118.686 22.432,-3.009 39.253,-5.265 61.823,-8.292 -9.706,-2.73 -13.649,-3.839 -17.772,-4.999 6.396,-19.315 12.302,-37.152 19.553,-59.049 z m 2093.898,-683.952 c -18.065,87.543 -35.032,169.766 -51.999,251.988 1.046,0.45 2.092,0.9 3.137,1.35 45.164,-71.61 90.328,-143.221 137.428,-217.903 -30.114,-12.049 -57.577,-23.037 -88.566,-35.435 z m -255.612,791.89 c -1.131,-0.22 -2.263,-0.441 -3.394,-0.662 -47.558,69.741 -95.116,139.481 -144.991,212.621 32.286,13.046 59.599,24.082 88.831,35.894 20.416,-84.97 39.985,-166.411 59.554,-247.853 z m 352.565,210.598 c -45.538,-71.683 -89.157,-140.345 -132.776,-209.008 -1.827,0.906 -3.654,1.812 -5.481,2.719 17.635,79.448 35.271,158.896 53.651,241.703 29.6,-12.39 55.484,-23.224 84.606,-35.414 z M 884.824,2702.542 c -1.333,0.844 -2.666,1.689 -3.999,2.533 18.122,78.385 36.244,156.77 55.049,238.104 29.684,-12.418 55.702,-23.303 85.628,-35.823 -46.917,-70.304 -91.797,-137.559 -136.678,-204.814 z m 2100.049,-762.23 c 45.037,75.758 88.361,148.636 131.685,221.514 1.639,-0.882 3.278,-1.763 4.918,-2.645 -20.753,-82.506 -41.505,-165.011 -62.798,-249.664 -24.072,10.043 -45.53,18.996 -73.805,30.795 z m 1.047,203.46 c -2.144,-0.089 -4.288,-0.178 -6.432,-0.267 -6.839,21.825 -14.817,43.394 -19.832,65.631 -1.527,6.769 3.062,17.394 8.368,22.8 24.02,24.475 48.82,48.253 74.451,71.031 6.635,5.896 17.291,7.267 26.101,10.716 0.806,-1.909 1.612,-3.818 2.419,-5.727 -28.359,-54.727 -56.717,-109.456 -85.075,-164.184 z M 2731.09,1135.559 c -5.606,-14.128 -8.942,-26.021 -14.765,-36.538 -15.534,-28.059 -30.905,-56.38 -49.109,-82.681 -5.092,-7.357 -19.79,-8.065 -30.081,-11.823 0.301,10.4 -2.479,22.167 1.426,30.967 18.817,42.398 48.571,75.545 92.529,100.075 z m 645.593,1369.91 c -16.559,-25.782 -36.356,-34.251 -65.131,-28.527 -3.317,23.729 22.015,15.734 32.564,28.524 -12.448,-1.68 -21.934,-2.96 -31.654,-4.271 3.256,25.566 6.275,49.279 9.527,74.812 23.306,-1.858 36.009,-17.461 46.893,-34.712 14.806,-23.468 13.264,-26.713 -17.681,-35.826 11.205,0 17.937,0 25.482,0 z M 2574.081,1010.043 c 19.495,25.845 38.188,49.663 55.818,74.243 22.547,31.435 48.355,58.495 86.52,70.505 6.722,2.116 13.719,3.358 20.589,5.003 -2.01,-7.246 -4.836,-10.579 -8.383,-12.718 -42.887,-25.866 -75.901,-60.521 -99.039,-105.35 -11.26,-21.813 -34.236,-26.802 -55.505,-31.683 z M 1227.907,2431.516 c -60.346,13.833 -120.692,27.666 -185.606,42.546 62.985,0 121.663,0 184.114,0 -19.748,-15.965 -17.42,-29.336 1.492,-42.546 z m 2159.055,-103.755 c -8.887,-11.641 -12.517,-19.388 -18.581,-23.752 -15.189,-10.931 -34.787,-31.441 -46.613,-27.924 -21.546,6.408 -18.733,33.57 -19.448,58.314 27.114,-2.126 52.679,-4.131 84.642,-6.638 z m -423.976,-91.24 c -1.574,0.588 -3.149,1.175 -4.724,1.763 4.581,15.19 8.862,30.479 13.8,45.552 12.61,38.496 29.564,46.57 72.489,32.437 -27.891,-27.271 -54.728,-53.512 -81.565,-79.752 z m 124.642,290.9 c 15.741,16.798 57.803,24.043 73.538,12.315 4.994,-3.722 9.541,-11.67 9.432,-17.595 -0.109,-5.908 -4.951,-14.689 -10.081,-17.027 -21.356,-9.733 -57.686,1.786 -72.889,22.307 z m -1487.705,-86.485 c -17.495,-4.677 -33.464,-2.317 -38.904,14.394 -2.639,8.107 5.68,20.422 11.01,29.699 0.692,1.204 13.219,-4.391 22.272,-7.534 14.472,18.89 26.278,2.18 41.142,-8.641 -7.074,-10.201 -13.24,-19.094 -20.27,-29.231 -6.202,10.427 -10.467,17.598 -14.733,24.769 -1.484,-0.751 -2.968,-1.503 -4.452,-2.255 1.27,-6.838 2.539,-13.677 3.935,-21.201 z m 216.365,-678.135 c -15.417,18.467 -30.033,35.974 -44.549,53.363 10.651,15.824 20.594,20.388 33.164,4.538 4.928,-6.215 11.165,-11.4 16.861,-16.998 20.106,-19.76 20.06,-20.526 -5.476,-40.903 z m -1080.69,674.52 c 1.004,13.135 10.212,23.45 26.789,25.144 14.444,1.476 30.176,-15.22 28.644,-29.909 -1.741,-16.694 -11.957,-26.492 -28.723,-27.45 -14.573,-0.834 -27.157,13.279 -26.71,32.215 z m 2531.803,-6.842 c -2.722,-21.375 -12.82,-30.928 -28.551,-29.517 -6.878,0.617 -18.672,12.912 -17.955,18.61 1.776,14.117 3.781,34.167 22.985,34.221 7.818,0.022 15.679,-15.089 23.521,-23.314 z m -88.358,114.403 c -24.758,3.659 -47.104,6.96 -69.45,10.262 -0.513,1.862 -1.027,3.725 -1.54,5.587 13.153,7.242 30.132,23.295 38.553,19.639 12.295,-5.339 38.369,-8.105 32.437,-35.488 z M 815.876,2319.68 c 21.099,-12.513 21.433,-13.875 9.213,-33.617 -5.632,2.637 -11.285,5.284 -18.067,8.46 -14.413,-36.778 -30.937,-0.375 -51.331,-6.334 9.59,10.779 15.407,17.319 21.263,23.901 20.837,-17.734 20.837,-17.734 38.922,7.59 z m 883.515,-195.891 c -0.09,-2.73 -0.179,-5.46 -0.269,-8.191 -16.236,-17.141 -32.471,-34.282 -53.789,-56.789 -2.742,22.136 -4.802,38.771 -7.303,58.963 11.274,-12.166 18.414,-19.87 24.896,-26.866 4.14,12.813 4.539,24.432 10.502,29.487 5.595,4.742 17.074,2.542 25.963,3.396 z m 606.18,-779.412 c -47.917,43.223 -78.192,90.819 -97.486,145.685 31.228,-46.667 62.455,-93.334 97.486,-145.685 z m 833.512,896.404 c 2.136,-0.895 4.272,-1.79 6.407,-2.685 -14.541,-46.989 -40.495,-87.986 -70.347,-126.975 17.947,41.199 37.818,81.425 57.84,121.575 1.481,2.971 4.041,5.403 6.1,8.085 z m -1885.821,235.112 c 21.81,0 39.599,0 58.523,0 0,-11.578 0,-21.368 0,-31.499 -20.822,6.856 -46.19,2.929 -58.523,31.499 z m 278.786,-158.221 c -3.519,-1.433 -14.095,-7.469 -15.309,-5.962 -9.925,12.319 -18.104,26.044 -26.814,39.342 1.108,0.382 2.217,0.765 3.325,1.147 11.269,-9.019 22.537,-18.038 35.491,-28.406 4.625,10.517 7.147,16.252 12.815,29.141 8.872,-15.664 15.267,-26.956 21.663,-38.248 -9.126,0.875 -18.251,1.749 -31.171,2.986 z m 1772.669,171.473 c -27.46,20.591 -22.386,52.695 10.522,79.779 -3.644,-27.629 -6.92,-52.467 -10.522,-79.779 z M 1581.051,2025.392 c -51.541,-8.605 -88.724,12.872 -86.491,39.778 7.031,-5.72 20.851,-23.424 27.283,-21.057 25.245,9.294 39.534,-5.955 59.208,-18.721 z m -47.471,390.751 c -1.559,-1.299 -3.119,-2.598 -4.678,-3.897 -9.402,5.647 -18.804,11.294 -31.094,18.676 21.049,10.168 15.854,45.339 51.832,34.888 -6.765,-10.521 -12.496,-19.435 -19.595,-30.476 0.749,-4.069 2.142,-11.63 3.535,-19.191 z m 1524.004,-41.821 c 5.432,5.771 15.48,14.326 22.886,24.757 15.237,21.459 14.655,21.872 30.981,12.91 -13.645,-15.377 -26.825,-30.23 -38.789,-43.713 1.96,-5.411 3.922,-10.825 6.167,-17.024 -8.266,8.977 -14.874,16.153 -21.245,23.07 z m -149.081,-387.906 c -7.742,6.865 -13.463,11.937 -21.355,18.935 18.732,17.223 35.927,33.035 58.001,53.331 -13.514,-26.652 -24.214,-47.753 -36.646,-72.266 z m 348.352,340.268 c 37.858,10.525 42.584,5.313 43.277,-44.575 -16.091,16.574 -28.226,29.073 -43.277,44.575 z m -77.231,-34.074 c -6.033,33.691 2.562,49.102 33.57,62.462 -11.619,-21.618 -21.231,-39.503 -33.57,-62.462 z m -2424.141,-5.419 c -16.719,0 -30.716,0 -45.963,0 21.519,28.737 27.675,29.191 45.963,0 z m 798.931,-36.184 c 8.406,-12.646 16.657,-19.597 15.999,-25.567 -0.691,-6.274 -9.91,-11.609 -15.403,-17.354 -4.75,5.331 -13.006,10.452 -13.341,16.048 -0.396,6.621 6.041,13.652 12.745,26.873 z m -949.901,125.214 c 15.058,18.088 18.355,-2.888 24.361,-3.08 27.869,-0.89 19.89,-13.755 11.737,-28.018 -11.782,10.151 -23.5,20.245 -36.098,31.098 z m 1315.538,-490.275 c -0.153,3.053 -0.306,6.107 -0.459,9.16 9.046,6.142 18.092,12.283 27.138,18.425 2.012,-1.195 4.025,-2.389 6.037,-3.584 -2.803,-9.593 -3.661,-20.699 -9.367,-28.035 -2.281,-2.934 -15.247,2.441 -23.349,4.034 z M 610.182,2479.177 c 2.668,14.858 4.714,26.25 6.771,37.704 25.104,-6.392 13.976,-23.314 15.709,-37.704 -9.394,0 -17.002,0 -22.48,0 z m 1042.974,-21.364 c 20.275,-8.865 16.032,-24.083 14.094,-41.563 -8.712,2.649 -15.896,4.833 -23.664,7.196 3.496,12.551 6.362,22.846 9.57,34.367 z M 3270.712,2509 c 1.905,-3.186 4.322,-7.229 9.553,-15.978 -9.911,3.328 -14.263,4.789 -18.624,6.253 -3.247,-5.943 -6.463,-11.828 -9.678,-17.713 -2.121,1.277 -4.243,2.554 -6.364,3.832 8.327,17.426 12.013,37.707 35.893,45.918 -3.382,-7.003 -6.765,-14.004 -10.78,-22.312 z M 691.055,2325.103 c 2.93,-0.153 5.86,-0.306 8.79,-0.459 0.577,-9.195 1.155,-18.391 1.732,-27.586 -9.887,1.99 -19.773,3.979 -35.886,7.221 12.59,10.336 18.977,15.58 25.364,20.824 z m 1110.739,-279.338 c 4.183,-8.547 8.702,-14.82 7.609,-16.031 -6.759,-7.494 -14.781,-13.849 -22.383,-20.583 -2.83,3.462 -8.687,9.12 -8.016,10.044 5.984,8.251 13.119,15.667 22.79,26.57 z m 1379.05,236.124 c 10.114,-14.436 17.658,-25.203 29.033,-41.438 -15.468,4.523 -24.721,7.229 -35.832,10.479 2.171,9.883 4.046,18.42 6.799,30.959 z M 602.605,2470.674 c 4.305,0.92 8.61,1.84 12.915,2.76 1.906,-8.489 4.65,-16.948 4.956,-25.494 0.056,-1.563 -9.81,-3.482 -15.096,-5.237 -0.925,9.323 -1.85,18.647 -2.775,27.971 z m 90.865,-256.663 c -2.3,1.26 -4.601,2.521 -6.902,3.781 9.412,10.765 -4.83,37.991 29.873,34.792 -8.624,-14.483 -15.797,-26.528 -22.971,-38.573 z m -61.943,191.857 c -35.812,0.321 -35.812,0.321 -25.393,32.51 8.492,-10.872 15.725,-20.133 25.393,-32.51 z M 3277.53,2284.844 c 2.838,2.12 5.677,4.24 8.515,6.36 6.855,-8.237 13.711,-16.474 20.566,-24.711 -3.819,-2.622 -7.638,-5.244 -11.457,-7.866 -5.874,8.739 -11.749,17.478 -17.624,26.217 z M 900.195,2529.932 c -0.71,-3.43 -1.421,-6.861 -2.131,-10.291 -8.195,0 -16.39,0 -24.586,0 1.176,6.415 2.353,12.83 3.529,19.246 7.73,-2.985 15.459,-5.97 23.188,-8.955 z m 950.87,-574.198 c -0.166,2.899 -0.331,5.797 -0.497,8.695 7.448,4.259 14.896,8.518 22.344,12.778 1.783,-1.062 3.566,-2.123 5.349,-3.185 -1.531,-7.591 -0.682,-18.516 -5.286,-21.8 -4.286,-3.058 -14.376,2.017 -21.91,3.512 z M 732.848,2759.493 c 8.673,-26.846 7.792,-30.459 -11.439,-38.781 8.393,12.798 -11.963,30.856 11.439,38.781 z M 2510.411,1264.955 c -2.312,1.101 -4.624,2.202 -6.936,3.303 7.433,15.913 14.865,31.826 22.298,47.74 2.485,-1.184 4.969,-2.369 7.453,-3.553 -7.605,-15.83 -15.21,-31.66 -22.815,-47.49 z m 755.041,1072.051 c -0.744,1.997 -1.487,3.995 -2.231,5.993 7.54,7.077 15.08,14.154 24.932,23.401 1.652,-12.055 2.663,-19.432 3.859,-28.159 -9.948,-0.462 -18.254,-0.849 -26.56,-1.235 z m -100.616,161.983 c -12.616,-21.724 -28.461,-10.878 -43.294,-10.179 -0.216,2.273 -0.432,4.547 -0.648,6.821 14.647,1.119 29.295,2.238 43.942,3.358 z m -2465.873,91.038 c 2.18,-1.163 4.36,-2.325 6.54,-3.489 -2.687,-8.341 -5.375,-16.682 -9.762,-30.301 -8.634,10.658 -13.157,16.241 -18.675,23.052 9.288,4.555 15.593,7.646 21.897,10.738 z m 824.3,-531.78 c -9.008,15.061 -13.154,21.994 -17.977,30.059 9.813,4.211 20.326,6.865 24.508,-8.031 1.418,-5.052 -3.282,-11.821 -6.531,-22.028 z m -613.077,458.544 c 0,-10.608 1.446,-21.113 -0.243,-21.644 -8.606,-2.706 -18.023,-2.832 -27.156,-3.86 -0.521,1.989 -1.041,3.979 -1.562,5.968 8.398,5.665 16.797,11.331 28.961,19.536 z m -29.845,33.567 c -11.525,-4.432 -19.59,-7.534 -27.655,-10.635 -1.265,1.628 -2.529,3.255 -3.794,4.883 2.814,7.428 5.628,14.857 9.419,24.867 7.945,-6.895 13.17,-11.428 22.03,-19.115 z m 2410.867,4.119 c -1.888,0.78 -3.775,1.56 -5.663,2.341 1.663,11.67 3.325,23.341 5.548,38.947 6.446,-5.381 14.441,-10.079 13.835,-11.877 -3.434,-10.188 -8.928,-19.681 -13.72,-29.411 z m -415.302,-653.173 c 1.041,1.949 2.081,3.898 3.122,5.847 17.831,-10.12 35.662,-20.24 53.493,-30.36 -0.727,-1.314 -1.454,-2.627 -2.181,-3.941 -18.145,9.486 -36.29,18.97 -54.434,28.454 z"
         id="path2-6" /><path
         d="m 1412.462,1221.886 c -5.119,1.945 -10.239,3.891 -15.358,5.836 -5.385,1.731 -11.408,2.444 -16.056,5.354 -38.374,24.027 -75.769,24.205 -114.995,0.336 -46.863,-28.516 -96.637,-50.855 -151.771,-58.608 0,0 0.289,0.416 0.289,0.416 20.493,-6.036 40.707,-15.78 61.536,-17.349 45.982,-3.465 92.439,-0.723 138.4,-4.348 62.704,-4.946 124.986,-15.667 187.72,-19.636 38.389,-2.429 77.433,1.808 115.856,6.027 10.424,1.145 26.935,12.229 27.905,20.285 1.93,16.031 -15.166,18.657 -28.434,20.26 -47.972,5.796 -96.273,9.548 -143.849,17.615 -21.152,3.586 -40.873,15.615 -61.243,23.812 z"
         id="path3" /><path
         d="m 2612.111,1271.655 c 5.504,-2.655 11.008,-5.31 16.512,-7.964 5.102,2.509 12.63,3.658 14.921,7.743 18.215,32.479 35.588,65.436 52.698,98.517 1.519,2.937 -0.668,7.79 -1.134,11.754 0,0 0.744,-0.747 0.744,-0.747 -21.034,9.651 -42.068,19.302 -63.772,29.261 -17.99,-35.473 -35.461,-69.845 -52.817,-104.275 -1.551,-3.077 -2.355,-6.531 -3.428,-9.584 12.746,-8.68 24.511,-16.693 36.276,-24.705 z"
         id="path4" /><path
         d="m 2695.109,1381.705 c 7.456,6.385 16.117,11.833 22.021,19.425 5.645,7.259 8.423,16.748 12.578,25.502 -23.512,11.949 -46.075,23.416 -68.215,34.667 -2.054,-0.976 -3.829,-1.234 -4.545,-2.244 -27.759,-39.121 -27.482,-39.662 14.274,-61.463 8.717,-4.551 16.432,-11.021 24.619,-16.62 0.012,-0.014 -0.732,0.733 -0.732,0.733 z"
         id="path5" /><path
         d="m 2479.864,1135.206 c -1.689,1.563 -3.378,3.127 -5.067,4.69 -16.463,1.29 -32.915,2.993 -49.401,3.445 -2.605,0.072 -5.366,-5.504 -8.054,-8.469 6.934,-0.603 13.868,-1.206 20.802,-1.809 -2.125,-5.71 -3.229,-15.364 -6.605,-16.239 -5.538,-1.434 -12.552,2.834 -18.944,4.697 6.669,-7.381 12.676,-15.547 20.209,-21.905 6.489,-5.477 14.715,-8.896 23.864,-14.206 8.04,17.264 15.618,33.53 23.196,49.796 z"
         id="path6" /><path
         d="m 1172.672,2105.049 c -28.698,30.618 -57.397,61.236 -86.095,91.854 -2.69,-2.735 -5.38,-5.47 -8.07,-8.205 30.732,-28.582 61.465,-57.165 92.197,-85.747 0.655,0.7 1.311,1.399 1.968,2.098 z"
         id="path7" /><path
         d="m 1555.586,2407.425 c 0.874,-8.654 0.695,-17.582 2.855,-25.902 3.809,-14.67 12.272,-25.278 29.462,-22.367 15.389,2.605 24.89,20.991 19.83,37.742 -4.944,16.367 -16.384,21.115 -32.244,16.438 -6.904,-2.036 -13.7,-4.438 -20.548,-6.67 z"
         id="path8" /><path
         d="m 1004.191,2590.249 c 47.846,46.362 95.693,92.723 143.539,139.084 -8.483,-4.974 -18.389,-8.492 -25.211,-15.164 -38.013,-37.177 -75.337,-75.06 -112.678,-112.917 -2.762,-2.8 -3.807,-7.296 -5.65,-11.003 z"
         id="path9" /><path
         d="m 3491.402,2543.991 c 15.649,8.638 31.837,16.438 46.84,26.082 36.303,23.336 72.054,47.531 108.028,71.38 -31.571,-18.794 -63.431,-37.124 -94.611,-56.546 -20.592,-12.826 -40.206,-27.222 -60.257,-40.916 z"
         id="path10" /><path
         d="m 781.716,2431.267 c -8.193,7.247 -12.613,13.57 -18.328,15.121 -2.586,0.702 -10.672,-7.948 -10.875,-12.591 -0.184,-4.217 6.401,-11.438 10.999,-12.358 4.22,-0.844 9.77,4.952 18.204,9.828 z"
         id="path11" /></g></g></svg>
