<?xml version="1.0" encoding="UTF-8" standalone="no"?>
<!-- Created with Inkscape (http://www.inkscape.org/) -->

<svg
   width="284.66901mm"
   height="284.66901mm"
   viewBox="0 0 284.66901 284.669"
   version="1.1"
   id="svg1"
   xml:space="preserve"
   inkscape:version="1.3.2 (091e20e, 2023-11-25, custom)"
   sodipodi:docname="ebike_dark.svg"
   xmlns:inkscape="http://www.inkscape.org/namespaces/inkscape"
   xmlns:sodipodi="http://sodipodi.sourceforge.net/DTD/sodipodi-0.dtd"
   xmlns="http://www.w3.org/2000/svg"
   xmlns:svg="http://www.w3.org/2000/svg"><sodipodi:namedview
     id="namedview1"
     pagecolor="#ffffff"
     bordercolor="#666666"
     borderopacity="1.0"
     inkscape:showpageshadow="2"
     inkscape:pageopacity="0.0"
     inkscape:pagecheckerboard="0"
     inkscape:deskcolor="#d1d1d1"
     inkscape:document-units="mm"
     inkscape:zoom="0.18284757"
     inkscape:cx="49.221326"
     inkscape:cy="-155.86753"
     inkscape:window-width="1920"
     inkscape:window-height="1017"
     inkscape:window-x="-8"
     inkscape:window-y="-8"
     inkscape:window-maximized="1"
     inkscape:current-layer="layer1" /><defs
     id="defs1" /><g
     inkscape:label="Layer 1"
     inkscape:groupmode="layer"
     id="layer1"
     transform="translate(47.797819,-57.484616)"><path
       id="path1"
       style="fill:#ffffff"
       d="m 132.02474,124.2212 c -0.31195,0.008 -0.54405,0.0676 -0.77566,0.17363 -1.02217,0.46797 -1.54344,1.26392 -1.53944,2.34767 0.003,0.80973 0.2413,1.37255 0.80202,1.89704 0.51186,0.47878 0.58355,0.50645 2.86029,1.10691 l 1.88722,0.49764 -0.0553,0.25993 c -0.12777,0.59869 -0.47201,1.56557 -0.65267,1.834 -0.1124,0.16702 -1.01188,0.88182 -2.13682,1.69757 -2.02821,1.47077 -2.23797,1.68557 -2.11719,2.16679 0.0755,0.30067 1.29703,2.5202 1.4764,2.68253 0.0845,0.0765 0.27749,0.14731 0.42891,0.15761 0.25846,0.0175 0.30042,0.0693 0.68885,0.84284 0.22757,0.45318 0.41393,0.8415 0.41393,0.863 0,0.0215 -0.65711,0.35814 -1.46038,0.74827 -1.49526,0.72622 -3.32764,1.79248 -7.42952,4.32325 -8.06356,4.97502 -23.76475,14.97109 -41.371631,26.33897 l -4.70927,3.04065 -4.53978,1.04799 c -2.49685,0.57646 -4.60723,1.05557 -4.68963,1.06557 -0.11906,0.0139 -0.54644,-0.81598 -2.0836,-4.04626 -1.27343,-2.67608 -1.90743,-4.09774 -1.85673,-4.16254 0.0494,-0.0631 -0.0145,-0.29973 -0.17777,-0.65991 -0.22656,-0.49969 -0.27847,-0.5586 -0.4718,-0.5364 -0.21018,0.0241 -0.28509,-0.12963 -2.29754,-4.71445 -2.19704,-5.00535 -2.2612,-5.19273 -1.94717,-5.672 0.0791,-0.12075 0.1217,-0.25456 0.0951,-0.29766 -0.0266,-0.0431 0.11412,-0.1222 0.31265,-0.1757 0.46428,-0.12501 1.0731,-0.43386 1.4056,-0.71365 0.14387,-0.12106 1.12481,-1.32146 2.17971,-2.66754 l 1.91823,-2.4474 0.6475,-0.24701 c 0.35621,-0.13575 1.2574,-0.44511 2.00246,-0.6873 1.43891,-0.46771 2.70138,-1.04191 3.20653,-1.4583 0.2645,-0.21801 0.30689,-0.30205 0.30489,-0.60669 -0.004,-0.79701 -0.5973,-1.47784 -1.44591,-1.65984 -1.22758,-0.26326 -1.8212,-0.0979 -9.38961,2.61793 -7.384956,2.65 -7.676811,2.73545 -15.446081,4.4974 -5.72353,1.29801 -6.953811,1.63542 -7.621241,2.09237 -0.70495,0.48265 -0.807524,1.11071 -0.269234,1.649 0.21212,0.21212 0.483736,0.33994 1.160136,0.54674 2.8597,0.87434 5.999604,1.29879 8.310604,1.12292 0.9866,-0.0751 1.285976,-0.0614 2.800346,0.12661 1.90522,0.23651 2.276336,0.25148 2.819466,0.11472 0.3182,-0.0801 0.396124,-0.0751 0.481624,0.0326 0.05613,0.0707 0.240664,0.15282 0.409794,0.18242 0.16912,0.0296 0.456985,0.16216 0.639755,0.29455 0.31443,0.22778 0.449417,0.50734 2.507861,5.19814 1.19645,2.72649 2.17506,4.97922 2.17506,5.00642 0,0.0272 -0.0584,0.0496 -0.12971,0.0496 -0.23545,0 -0.23384,0.25521 0.004,0.81545 0.14652,0.34475 0.30181,0.57825 0.41289,0.62115 0.13634,0.0526 0.87163,1.62404 3.13625,6.70347 1.62683,3.64888 3.08106,6.90598 3.23184,7.23832 l 0.27389,0.60409 -0.74466,0.13643 c -0.40971,0.075 -1.74992,0.44345 -2.97811,0.81855 -1.22819,0.37509 -3.18544,0.97068 -4.34961,1.32344 -2.26129,0.68521 -2.656187,0.85762 -3.089217,1.35082 -0.21078,0.24006 -1.397312,0.9213 -5.020882,2.88199 -2.6098,1.41214 -4.757852,2.56729 -4.773352,2.56729 h -5.17e-4 -5.17e-4 -5.16e-4 c -2.38e-4,-9e-5 -0.0013,-4e-4 -0.0015,-5.2e-4 l -5.17e-4,-5.1e-4 c -0.01349,-0.01 -0.02481,-0.0668 -0.02481,-0.13436 0,-0.0746 -0.273178,-0.51271 -0.607198,-0.97359 l -0.607198,-0.83819 h -0.40666 -0.40721 l -0.645956,-0.77618 -0.646472,-0.77669 0.04082,-0.47233 0.04031,-0.47232 -0.716752,-0.78341 -0.716752,-0.7829 h -0.434599 c -0.43095,0 -0.440274,-0.006 -1.134814,-0.6966 -0.69627,-0.69277 -0.700216,-0.69922 -0.700216,-1.13275 v -0.43615 l -0.782898,-0.71107 -0.783414,-0.71158 -0.42323,0.0543 c -0.39968,0.0515 -0.448147,0.0362 -0.866097,-0.28112 -0.24348,-0.18485 -0.614733,-0.48801 -0.825273,-0.67334 -0.35281,-0.31053 -0.382922,-0.36847 -0.382922,-0.73846 v -0.40153 l -0.845427,-0.61236 -0.845426,-0.61288 -0.403593,0.0677 c -0.2219,0.0372 -0.446278,0.0639 -0.498678,0.0589 -0.05242,-0.005 -0.459277,-0.24499 -0.904337,-0.5333 l -0.809253,-0.524 -0.06976,-0.43718 -0.06925,-0.43666 -0.916223,-0.52194 -0.916223,-0.52193 -0.419096,0.13436 -0.419613,0.13384 -0.911572,-0.44958 -0.911572,-0.4501 -0.12299,-0.42892 -0.123507,-0.42891 -0.957047,-0.42272 -0.957565,-0.42323 -0.423746,0.17932 -0.424264,0.17932 -0.918807,-0.35088 -0.919324,-0.35089 -0.197404,-0.42426 -0.196887,-0.42375 -0.995288,-0.32194 -0.994771,-0.32195 -0.33693,0.21291 c -0.18525,0.11693 -0.39749,0.21239 -0.47129,0.21239 -0.07384,0 -0.518993,-0.10325 -0.989603,-0.22944 -0.8498,-0.22788 -0.857573,-0.23234 -1.107943,-0.63511 -0.13866,-0.22306 -0.262319,-0.40514 -0.274919,-0.40514 -0.0126,0 -0.466563,-0.0962 -1.008723,-0.21342 l -0.98547,-0.21291 -0.370003,0.26562 -0.369487,0.26561 -0.982886,-0.14882 -0.982369,-0.14832 -0.261999,-0.36483 c -0.2855903,-0.39768 -0.1544193,-0.3575 -1.7218593,-0.52917 -0.5919,-0.0648 -0.593074,-0.0646 -0.973584,0.23823 l -0.380855,0.30334 -0.956014,-0.046 -0.956014,-0.046 -0.341581,-0.35915 -0.341581,-0.35916 h -0.999859 -0.999939 l -0.322978,0.35812 -0.323495,0.3576 -0.97771799,0.0444 -0.977718,0.0444 -0.340547,-0.30179 -0.341065,-0.30179 -0.97151701,0.10697 c -0.53432,0.0589 -1.011717,0.10962 -1.060917,0.11162 -0.04925,0.002 -0.207283,0.1704 -0.350883,0.37413 l -0.260966,0.37052 -0.976168,0.1478 -0.976168,0.14728 -0.371036,-0.26614 -0.37052,-0.26613 -0.989087,0.21394 c -0.54403,0.11767 -1.008262,0.21394 -1.031462,0.21394 h -5.5e-4 c -0.02546,0.005 -0.133461,0.18155 -0.242362,0.39584 l -0.201538,0.39584 -0.88005,0.23668 c -1.0787897,0.2906 -1.1045827,0.29146 -1.4960327,0.0326 l -0.316259,-0.20929 -1.007174,0.31212 -1.00769,0.31265 -0.198438,0.43304 -0.198437,0.43357 -0.934827,0.35243 -0.93431,0.35244 -0.332279,-0.1695 c -0.18257,-0.0931 -0.387253,-0.16898 -0.454753,-0.16898 -0.06756,0 -0.533672,0.18513 -1.036112,0.41186 l -0.91364,0.41238 -0.116789,0.41961 -0.116788,0.41961 -0.927592,0.45785 -0.927075,0.45734 -0.395842,-0.14211 -0.395841,-0.14263 -0.911056,0.51987 -0.911055,0.51935 -0.0925,0.44751 c -0.0926,0.44603 -0.0951,0.4485 -0.93121,0.99633 l -0.838191,0.54932 -0.453203,-0.0951 -0.452685,-0.0951 -0.859896,0.62787 -0.860413,0.62838 -0.0041,0.42323 -0.0036,0.42323 -0.731222,0.59273 c -0.92716,0.75149 -0.846194,0.71259 -1.331184,0.63769 l -0.413412,-0.0641 -0.793233,0.71727 -0.792717,0.71778 v 0.46871 0.4687 l -0.652673,0.66456 -0.652673,0.66508 h -0.480591 -0.481108 l -0.717269,0.79271 -0.717785,0.79272 0.06408,0.41393 c 0.07492,0.48498 0.113802,0.4035 -0.637688,1.33067 l -0.592728,0.73122 -0.42323,0.004 -0.42323,0.004 -0.627869,0.8599 -0.628385,0.86041 0.09508,0.45268 0.09508,0.45269 -0.54932,0.83819 c -0.54783,0.83613 -0.550292,0.83861 -0.996322,0.93121 l -0.447001,0.093 -0.521415,0.91364 -0.520899,0.91364 0.153479,0.40411 0.152962,0.40411 -0.473356,0.91777 c -0.47323,0.91715 -0.473707,0.91767 -0.886767,1.03301 l -0.412895,0.11524 -0.412378,0.91364 c -0.22673,0.50245 -0.412378,0.96913 -0.412378,1.03663 0,0.0676 0.0764,0.27218 0.169499,0.45475 l 0.168982,0.33176 -0.355534,0.9431 -0.355534,0.94361 -0.428914,0.18965 -0.428398,0.18914 -0.312642,1.00872 -0.312643,1.00821 0.207739,0.31574 c 0.25764,0.39113 0.25738,0.41733 -0.03307,1.49552 l -0.237195,0.88005 -0.395842,0.20102 c -0.214288,0.1089 -0.390396,0.21689 -0.395841,0.24236 v 5.2e-4 5.2e-4 c 0,0.0232 -0.09631,0.48742 -0.213941,1.03146 l -0.21394,0.98908 0.265617,0.36949 0.2651,0.36949 -0.147278,0.9958 -0.147278,0.99632 -0.370003,0.2341 c -0.20336,0.12865 -0.371621,0.27786 -0.373621,0.33176 -0.0023,0.0539 -0.0522,0.53538 -0.111104,1.0697 l -0.107487,0.97152 0.305925,0.34055 0.305407,0.34106 -0.05064,0.97979 -0.05013,0.97978 -0.355534,0.32143 -0.355534,0.32091 v 0.99994 0.99994 l 0.359668,0.3421 0.359668,0.34261 0.04238,0.97203 0.04237,0.97204 -0.29869,0.35036 -0.299207,0.35037 0.104387,0.94516 c 0.05734,0.51976 0.10652,0.98581 0.10852,1.03611 0.0023,0.0503 0.170361,0.21112 0.373621,0.35709 l 0.369486,0.26562 0.147795,0.97771 c 0.13646,0.90244 0.13726,0.99287 0.01085,1.16737 -0.42773,0.59046 -0.413117,0.46524 -0.180867,1.53945 0.11791,0.5452 0.214457,1.0018 0.214457,1.0144 0,0.0126 0.18336,0.1368 0.40721,0.27596 l 0.406694,0.25269 0.228926,0.8816 c 0.12575,0.48481 0.228253,0.92999 0.227893,0.98909 -3.6e-4,0.0591 -0.09648,0.25917 -0.213423,0.44442 l -0.212391,0.33641 0.321945,0.99529 0.321427,0.99477 0.424264,0.1974 0.423746,0.19741 0.350883,0.91881 0.350883,0.91932 -0.179317,0.42426 -0.1788,0.42375 0.422713,0.95705 0.422713,0.95756 0.428914,0.12299 0.429432,0.12351 0.449584,0.91157 0.450102,0.91157 -0.134875,0.42168 -0.134876,0.42168 0.501778,0.86868 c 0.27606,0.47783 0.54478,0.89509 0.59738,0.92759 0.05261,0.0326 0.25823,0.0839 0.45682,0.11369 0.34639,0.052 0.38253,0.087 0.88625,0.86455 0.2888,0.44581 0.527751,0.85349 0.531751,0.90589 0.0036,0.0524 -0.02473,0.27342 -0.06253,0.49144 -0.0687,0.39607 -0.06814,0.39731 0.549838,1.24902 l 0.618567,0.85266 0.427364,0.005 c 0.41622,0.005 0.437853,0.0174 0.813903,0.48679 0.96402,1.20332 0.91771,1.11754 0.84491,1.57665 l -0.06615,0.41754 0.694015,0.76792 0.693497,0.76791 0.459404,0.0253 c 0.45059,0.0247 0.472292,0.0383 1.157552,0.71778 0.6955,0.6898 0.698665,0.69432 0.698665,1.13068 v 0.43822 l 0.783415,0.71675 0.782898,0.71676 0.468189,-0.0403 0.467671,-0.0398 0.780831,0.64647 0.780831,0.64595 v 0.4067 0.40617 l 0.855762,0.61961 0.855245,0.62011 0.451135,-0.0816 0.451652,-0.0822 0.850077,0.54312 c 0.77452,0.49492 0.854354,0.57074 0.901754,0.85266 0.0286,0.17014 0.0688,0.37152 0.0894,0.44752 0.02059,0.076 0.442678,0.37087 0.937928,0.65577 l 0.90072,0.51831 0.436666,-0.13797 0.436665,-0.13746 0.882634,0.45527 c 0.87163,0.44945 0.884717,0.46054 1.022677,0.8785 l 0.139526,0.42323 0.961182,0.43305 0.960664,0.43305 0.391708,-0.19638 0.391707,-0.19637 0.956531,0.36742 c 0.92879,0.35671 0.960633,0.37787 1.091923,0.71366 0.07437,0.19022 0.172474,0.38009 0.218074,0.42219 0.04562,0.0422 0.510432,0.21744 1.033012,0.38964 l 0.95033,0.31316 0.40411,-0.22738 0.404626,-0.22685 0.9317257,0.24856 c 0.85272,0.22798 0.946851,0.27389 1.116211,0.53898 0.32197,0.504 0.388311,0.53928 1.398881,0.74466 l 0.989604,0.20102 0.33848,-0.2682 0.338998,-0.2682 0.984436,0.14676 0.984953,0.14728 0.261482,0.36432 c 0.14394,0.20044 0.264718,0.36594 0.268718,0.36794 0.0037,0.002 0.482971,0.0575 1.065051,0.1235 l 1.05833301,0.11989 0.31316,-0.30541 0.312642,-0.3054 0.999422,0.0481 0.99942199,0.0481 0.296106,0.34262 0.296106,0.34158 1.05575,0.003 1.056266,0.003 0.29869,-0.3452 0.29869,-0.3452 0.998905,-0.0486 0.999422,-0.0486 0.31316,0.30541 0.313159,0.30592 1.058333,-0.11988 c 0.58208,-0.066 1.066387,-0.12151 1.075387,-0.12351 0.0094,-0.002 0.129824,-0.16757 0.2676843,-0.36794 l 0.25063,-0.36432 0.992704,-0.14831 0.992705,-0.14831 0.33693,0.27027 0.336414,0.27027 0.942578,-0.19379 c 0.5186,-0.10652 0.989964,-0.21061 1.046964,-0.23151 0.05699,-0.0209 0.212889,-0.21483 0.346749,-0.4315 l 0.243396,-0.39429 0.942578,-0.24185 0.942578,-0.24132 0.381372,0.22324 0.381373,0.22324 1.008723,-0.31626 1.008724,-0.31626 0.198955,-0.42736 0.198954,-0.42737 0.929142,-0.3514 0.929142,-0.35191 0.384473,0.19482 0.38499,0.19533 0.965315,-0.43615 0.964799,-0.43615 0.138493,-0.42323 c 0.13639,-0.41791 0.149036,-0.42909 1.016476,-0.87849 l 0.879016,-0.45527 0.44235,0.13952 0.44235,0.13953 0.914156,-0.53072 0.914156,-0.53123 0.08888,-0.43925 c 0.08845,-0.43688 0.09338,-0.44147 0.923975,-0.9834 0.7786,-0.50798 0.855682,-0.54016 1.143082,-0.47336 0.53359,0.12402 0.630281,0.0898 1.469161,-0.5209 l 0.820105,-0.59686 0.02532,-0.4377 0.02532,-0.4377 0.762228,-0.62322 0.76171,-0.62322 0.465605,0.0377 0.466121,0.0377 0.77618,-0.68729 0.776697,-0.68678 0.0067,-0.46406 0.0072,-0.46405 0.696598,-0.70022 0.696598,-0.70021 0.467672,-0.007 0.467155,-0.007 0.687297,-0.77669 0.686779,-0.77618 -0.03721,-0.46561 -0.03772,-0.4656 0.623218,-0.76223 c 0.62005,-0.75843 0.624835,-0.76199 1.067635,-0.80409 l 0.444934,-0.0434 0.620118,-0.84181 0.620117,-0.84181 -0.112138,-0.42478 -0.112138,-0.42633 0.551904,-0.84956 c 0.55093,-0.84705 0.553658,-0.84871 0.992188,-0.93741 l 0.439766,-0.0894 0.530717,-0.91364 0.531234,-0.91468 -0.139526,-0.44235 -0.139527,-0.44286 0.455269,-0.8785 c 0.4494,-0.86744 0.46059,-0.88061 0.8785,-1.017 l 0.42323,-0.13745 0.436149,-0.96584 0.436149,-0.96531 -0.198954,-0.39223 -0.198955,-0.39274 0.356051,-0.92087 0.356567,-0.92139 0.442867,-0.20619 c 0.37397,-0.17417 0.451177,-0.24991 0.495577,-0.48679 0.02709,-0.14466 0.05577,-0.26513 0.06666,-0.27957 h 5.17e-4 l 5.17e-4,-0.001 h 5.16e-4 5.17e-4 c 0.0088,0 1.099838,-0.15127 2.424658,-0.33589 1.32481,-0.18463 5.45653,-0.75579 9.18187,-1.26918 3.72533,-0.51339 6.87824,-0.95201 7.00629,-0.97461 0.19374,-0.0342 0.23254,-0.0105 0.23254,0.13901 0,0.1756 0.0211,0.17782 0.91054,0.12092 2.04473,-0.13073 4.58848,-0.90552 6.0942,-1.85674 0.19699,-0.12444 0.3726,-0.22582 0.39016,-0.22582 0.0176,0 0.25875,0.27579 0.5364,0.6134 1.00554,1.22269 5.89427,7.13636 6.00377,7.2626 0.0977,0.11262 -0.097,0.27072 -1.49706,1.21337 -1.33278,0.8974 -1.63098,1.06546 -1.73478,0.97926 -0.19679,-0.16332 -0.56773,0.0648 -0.50592,0.3111 0.0382,0.15205 -0.0294,0.23467 -0.36587,0.45061 -0.38286,0.24569 -0.41608,0.29553 -0.46922,0.69609 -0.0309,0.23346 -0.0436,0.43803 -0.0284,0.45992 h 5.2e-4 l 5.2e-4,5.1e-4 c 0.071,0.071 2.53851,1.39062 2.60036,1.39062 0.0378,0 0.26648,-0.13687 0.50849,-0.30334 0.40384,-0.27779 0.44871,-0.29079 0.54571,-0.15813 0.0995,0.13652 0.11912,0.13684 0.33176,-0.003 0.25026,-0.16397 0.27045,-0.21945 0.13074,-0.35915 -0.0703,-0.0703 0.52983,-0.51202 2.30684,-1.69757 1.32124,-0.88147 3.59507,-2.40829 5.0524,-3.39307 1.45733,-0.98477 2.68562,-1.79059 2.73007,-1.79059 0.0445,0 0.0811,0.0383 0.0811,0.0847 0,0.12656 0.19084,0.10228 0.41134,-0.0522 0.14033,-0.0983 0.16983,-0.16241 0.10387,-0.22841 -0.14684,-0.14683 -0.11432,-0.1982 0.29146,-0.45269 l 0.38395,-0.24029 -0.0238,-0.46354 -0.0238,-0.46354 -1.18546,-0.65164 c -0.65193,-0.35831 -1.23561,-0.65436 -1.29707,-0.65836 -0.0615,-0.004 -0.27652,0.10685 -0.47801,0.24547 -0.31561,0.2171 -0.38097,0.2346 -0.46974,0.12764 -0.0901,-0.10859 -0.13279,-0.10667 -0.3421,0.0171 -0.19113,0.1129 -0.22281,0.17214 -0.15813,0.293 0.0691,0.12912 -0.0528,0.24027 -0.83095,0.76017 -0.50139,0.33497 -1.14484,0.77423 -1.42989,0.97616 l -0.5178,0.36691 -3.37654,-4.07986 c -1.85701,-2.24408 -3.44537,-4.1676 -3.53002,-4.27467 -0.15259,-0.19301 -0.14927,-0.20163 0.36742,-0.9741 0.68388,-1.02241 1.60663,-2.8839 1.60663,-3.24063 0,-0.0276 0.22732,0.4377 0.38033,0.85369 0.006,-0.93001 1.10021,1.8991 1.14205,0.10646 0.0542,-2.32106 2.49194,-2.95088 5.01003,-3.47473 2.39661,-0.49857 4.97415,-3.3522 6.71381,-4.76457 3.370761,-2.73662 6.372991,-5.31419 8.817551,-9.22579 11.76892,-18.83177 25.69957,-41.49822 28.03498,-48.34073 1.36892,-4.0108 2.34109,-7.22298 4.71082,-8.41447 0.94429,-0.47477 1.32426,-3.08381 1.41956,-3.05201 0.0609,0.0203 9.65697,18.23359 15.32051,29.07834 l 0.75861,1.45211 -0.34107,0.25063 c -0.30533,0.22456 -0.37827,0.24358 -0.6997,0.18138 -0.19737,-0.0382 -0.40096,-0.0714 -0.45216,-0.0734 -0.0512,-0.002 -0.46066,0.28457 -0.91003,0.63665 l -0.817,0.64027 -0.001,0.43925 -0.001,0.43925 -0.73949,0.65319 -0.74,0.65319 -0.51005,0.003 -0.51005,0.003 -0.71778,0.7214 -0.71779,0.72192 0.0279,0.4439 0.0274,0.44442 -0.69143,0.73897 c -0.67681,0.72342 -0.69961,0.73953 -1.08573,0.74053 -0.21699,7e-4 -0.43457,0.0299 -0.48317,0.0641 -0.0486,0.0342 -0.3669,0.39811 -0.70745,0.80874 l -0.61909,0.74672 0.0579,0.46406 0.0584,0.46457 -0.59583,0.79323 c -0.58472,0.77792 -0.6036,0.7937 -1.0325,0.863 l -0.43718,0.0703 -0.58963,0.8661 -0.58963,0.86558 0.12403,0.42323 0.12402,0.42271 -0.51676,0.88212 -0.51728,0.88211 -0.44907,0.10077 -0.44959,0.10077 -0.46974,0.9369 -0.47025,0.93689 0.13384,0.35037 c 0.0736,0.19275 0.13384,0.3951 0.13384,0.4501 0,0.055 -0.17461,0.49202 -0.38809,0.971 -0.38699,0.86831 -0.3895,0.87141 -0.82269,1.04024 l -0.43408,0.1695 -0.37776,0.95188 -0.37724,0.95188 0.19431,0.41445 0.19378,0.41444 -0.31419,0.9431 -0.31419,0.94361 -0.40876,0.20722 c -0.44324,0.22461 -0.4366,0.21001 -0.82269,1.68207 l -0.14211,0.5426 0.24029,0.36277 0.23978,0.36277 -0.14366,0.68368 c -0.27063,1.28641 -0.27468,1.29492 -0.68574,1.53582 -0.2048,0.12001 -0.37255,0.23884 -0.37776,0.26665 v 5.2e-4 l -5.2e-4,5.2e-4 v 5.1e-4 c 0,0.0253 -0.0774,0.49993 -0.17208,1.05472 l -0.17208,1.00872 0.29766,0.34727 c 0.19679,0.22997 0.28451,0.40718 0.25941,0.52451 -0.0209,0.0975 -0.0786,0.53948 -0.12816,0.98186 -0.0813,0.72541 -0.11257,0.82086 -0.31936,0.97358 -0.48781,0.36026 -0.49707,0.38346 -0.55397,1.44539 l -0.0537,1.00769 0.32505,0.33951 0.32504,0.34004 -0.0413,1.03972 -0.0413,1.03973 -0.29766,0.24495 -0.29714,0.24546 0.0413,1.07746 c 0.0311,0.80808 0.0724,1.10097 0.16485,1.17047 0.58572,0.43976 0.55891,0.38118 0.66301,1.43815 l 0.0977,0.99323 -0.29249,0.35656 -0.29249,0.35709 0.15452,0.99942 c 0.085,0.54963 0.19427,1.04737 0.24287,1.10587 0.0486,0.0585 0.21881,0.17684 0.37879,0.26304 0.28437,0.15315 0.29543,0.17856 0.48266,1.15031 l 0.1912,0.99426 -0.22686,0.34313 c -0.12492,0.18877 -0.22675,0.41049 -0.22634,0.49299 4.1e-4,0.0825 0.1075,0.55027 0.23823,1.03922 l 0.23771,0.88883 0.39946,0.21188 0.39894,0.21135 0.29714,0.94878 0.29714,0.94826 -0.21084,0.416 -0.21084,0.41599 0.3638,0.95964 c 0.19995,0.52783 0.41726,0.98916 0.48266,1.02526 0.0654,0.0361 0.25548,0.1195 0.42271,0.185 0.27588,0.10808 0.34106,0.20362 0.70384,1.03198 l 0.39997,0.91312 -0.17208,0.41393 -0.17156,0.41392 0.47697,0.9586 0.47749,0.95912 0.42995,0.0987 0.42994,0.0987 0.49248,0.88935 0.49196,0.88987 -0.13694,0.41238 -0.13694,0.41238 0.55913,0.88573 c 0.57793,0.91524 0.66822,0.98667 1.25988,0.99167 0.13105,0.001 0.34086,0.23096 0.77256,0.84646 0.32596,0.46476 0.58629,0.87347 0.57929,0.90847 -0.16432,0.77756 -0.16506,0.77527 0.52348,1.65107 l 0.64906,0.82578 h 0.44132 0.44131 l 0.65113,0.75345 c 0.65135,0.75365 0.65164,0.75369 0.65164,1.24695 v 0.49351 l 0.69659,0.70021 0.6966,0.70022 h 0.47853 c 0.47855,0 0.47893,3.8e-4 1.20096,0.65629 l 0.72243,0.65629 0.0129,0.46561 0.0129,0.4656 0.8015,0.66198 0.8015,0.66197 0.45889,-0.0574 0.45889,-0.0579 0.80098,0.58085 0.80047,0.58084 0.0605,0.44958 0.0605,0.44959 0.88005,0.59014 0.88005,0.59067 0.42013,-0.12506 0.42013,-0.12454 0.88108,0.51883 0.88057,0.51883 0.0966,0.43305 0.0971,0.43356 0.93431,0.49093 0.93431,0.49144 0.40772,-0.16949 0.40721,-0.16899 0.93431,0.42685 c 0.92799,0.42392 0.93499,0.42923 1.03922,0.8015 0.12299,0.43931 0.197,0.49167 1.28622,0.91571 l 0.82579,0.32143 0.42788,-0.19999 0.42789,-0.20051 0.90537,0.29921 0.90537,0.29921 0.23254,0.42633 0.23255,0.42633 0.9927,0.27337 c 0.84124,0.23145 1.0194,0.25654 1.16479,0.16484 0.60975,-0.3847 0.54374,-0.37749 1.56941,-0.16226 l 0.95705,0.2005 0.24598,0.39585 0.24649,0.39635 0.90434,0.14418 c 0.49756,0.0793 0.96445,0.16089 1.03715,0.18139 0.0727,0.0205 0.2865,-0.0951 0.47542,-0.25684 l 0.34365,-0.29404 1.00355,0.11679 c 1.05462,0.12266 1.04887,0.12009 1.43248,0.66663 0.0892,0.12712 0.29216,0.16731 1.15445,0.22841 l 1.04593,0.0739 0.3421,-0.33383 0.34158,-0.33435 h 0.95963 0.95911 l 0.34003,0.33848 c 0.37633,0.37629 0.51903,0.39858 1.85364,0.28577 0.60404,-0.0511 0.63866,-0.0658 0.86868,-0.37155 0.26374,-0.35062 0.34183,-0.37421 1.57561,-0.46871 l 0.71986,-0.0553 0.33072,0.28835 0.33022,0.28836 0.64337,-0.0992 c 0.35365,-0.055 0.82179,-0.12663 1.04025,-0.15813 0.35292,-0.0508 0.42338,-0.0985 0.63407,-0.4315 0.20766,-0.32825 0.29011,-0.38587 0.66145,-0.46147 0.2332,-0.0475 0.67142,-0.13705 0.9741,-0.19895 l 0.55036,-0.11214 0.3731,0.25218 0.37311,0.2527 0.60048,-0.14418 c 1.41656,-0.33979 1.47542,-0.3672 1.6955,-0.8015 l 0.20154,-0.39791 0.94103,-0.28577 0.94051,-0.28422 0.40049,0.21549 c 0.39884,0.21512 0.40262,0.21552 0.78186,0.0677 0.20955,-0.0817 0.65418,-0.25175 0.98806,-0.37776 0.58699,-0.22152 0.61188,-0.24205 0.75396,-0.63717 l 0.14676,-0.40876 0.92862,-0.40359 0.92863,-0.40308 0.42168,0.17777 0.42168,0.1788 0.92604,-0.46509 c 0.50947,-0.25551 0.94218,-0.51112 0.96118,-0.56792 0.019,-0.0568 0.0733,-0.25586 0.12092,-0.44235 0.0812,-0.31818 0.14115,-0.36908 0.9741,-0.83251 l 0.88781,-0.49454 0.42478,0.12454 0.42478,0.12454 0.8878,-0.55966 0.88728,-0.56069 0.0548,-0.43718 0.0543,-0.43615 0.82682,-0.59273 0.82682,-0.59221 0.44494,0.0811 c 0.4211,0.0765 0.46201,0.0676 0.75241,-0.16278 0.16886,-0.13397 0.54494,-0.4319 0.83561,-0.66198 0.52616,-0.41612 0.52847,-0.42071 0.52916,-0.85576 l 5.2e-4,-0.43718 0.76171,-0.65836 c 0.75084,-0.6489 0.76798,-0.65772 1.18494,-0.63562 0.42238,0.0224 0.42404,0.0211 1.18546,-0.68109 l 0.76274,-0.70332 v -0.49454 -0.49455 l 0.65578,-0.71261 0.65629,-0.71262 0.43563,-5.2e-4 0.43511,-0.001 0.58085,-0.69815 c 0.31954,-0.38417 0.63063,-0.76236 0.69143,-0.84026 0.0821,-0.10527 0.0912,-0.24844 0.0351,-0.55707 l -0.0754,-0.41548 0.58188,-0.79788 c 0.58068,-0.79569 0.71988,-0.89971 1.22059,-0.91571 0.23905,-0.008 0.32183,-0.0945 0.86093,-0.90589 l 0.59635,-0.89813 -0.12299,-0.41238 -0.12247,-0.41238 0.51728,-0.88625 0.51728,-0.88677 0.43822,-0.0987 0.43873,-0.0982 0.49351,-0.94361 0.49351,-0.94361 -0.17363,-0.40256 -0.17415,-0.40308 0.42994,-0.92294 c 0.42947,-0.92268 0.43023,-0.92366 0.85628,-1.079 l 0.42633,-0.15555 0.37931,-0.97358 0.3793,-0.97358 -0.20412,-0.38138 -0.20464,-0.38085 0.32298,-0.97359 0.32349,-0.97358 0.40153,-0.17673 0.40153,-0.17622 0.2806,-1.02526 0.2806,-1.02578 -0.24856,-0.36432 -0.24908,-0.36431 0.22066,-0.97359 0.22014,-0.9741 0.38757,-0.24908 0.38757,-0.24908 0.16899,-1.04438 0.16846,-1.04438 -0.28164,-0.3297 -0.28215,-0.32918 0.11369,-0.99322 0.11317,-0.99322 0.35657,-0.30489 0.35657,-0.30489 0.0713,-1.01596 0.0708,-1.01596 -0.32867,-0.34158 -0.32866,-0.3421 v -0.96738 -0.96687 l 0.34778,-0.3545 0.34779,-0.3545 -0.0605,-1.04696 -0.0605,-1.04697 -0.32349,-0.24339 c -0.37904,-0.28514 -0.39232,-0.32724 -0.46612,-1.48983 l -0.0563,-0.88935 0.26303,-0.24857 c 0.30587,-0.28959 0.30726,-0.31059 0.12299,-1.51515 l -0.14004,-0.91726 -0.34727,-0.21601 c -0.19085,-0.11881 -0.35653,-0.22354 -0.36793,-0.23254 -0.0114,-0.009 -0.11036,-0.45853 -0.22014,-0.9989 l -0.19947,-0.98237 0.25373,-0.39016 0.25373,-0.39016 -0.1757,-0.65267 c -0.0967,-0.35895 -0.21815,-0.81481 -0.26975,-1.01286 -0.0805,-0.30861 -0.1514,-0.38886 -0.49558,-0.56327 l -0.40153,-0.20361 -0.28887,-0.95394 -0.28887,-0.95343 0.21756,-0.39016 c 0.21605,-0.3869 0.21631,-0.39209 0.0713,-0.76843 -0.0803,-0.20845 -0.25001,-0.6546 -0.37723,-0.99167 -0.22429,-0.59422 -0.24383,-0.61728 -0.64028,-0.75809 l -0.40876,-0.14521 -0.40359,-0.92346 c -0.37508,-0.85801 -0.39579,-0.94178 -0.29507,-1.18908 0.22757,-0.5587 0.21454,-0.64221 -0.24805,-1.57975 l -0.44855,-0.90898 -0.4315,-0.0966 -0.4315,-0.0971 -0.48679,-0.85421 c -0.26776,-0.4698 -0.48731,-0.90238 -0.48731,-0.96118 0,-0.0588 0.0548,-0.26092 0.12144,-0.44959 l 0.12093,-0.34313 -0.55398,-0.87437 c -0.30477,-0.48076 -0.56407,-0.88452 -0.57567,-0.89762 -0.0116,-0.0131 -0.21298,-0.0461 -0.44804,-0.0739 l -0.42736,-0.0501 -0.59945,-0.83612 -0.59893,-0.83613 0.0899,-0.42064 c 0.0705,-0.32889 0.0662,-0.45404 -0.0217,-0.57465 -0.0618,-0.0848 -0.35668,-0.46684 -0.65526,-0.84904 l -0.54312,-0.69505 h -0.43977 -0.43976 l -0.66818,-0.76739 c -0.65456,-0.75172 -0.66869,-0.77645 -0.66869,-1.2175 0,-0.44337 -0.0101,-0.46125 -0.66249,-1.17977 l -0.6625,-0.72967 h -0.50901 -0.50901 l -0.70952,-0.65629 -0.70952,-0.6563 -0.003,-0.4408 -0.003,-0.4408 -0.81804,-0.68781 -0.81804,-0.68781 -0.47335,0.0553 -0.47336,0.0548 -0.76171,-0.56948 c -0.41886,-0.31325 -0.77638,-0.58196 -0.79478,-0.59686 -0.0184,-0.0149 -0.0521,-0.22086 -0.0749,-0.45785 l -0.0419,-0.43098 -0.88315,-0.59221 -0.8816,-0.5917 -0.42788,0.12506 -0.42788,0.12557 -0.87695,-0.51831 -0.8785,-0.5178 -0.0956,-0.4315 -0.0966,-0.4315 -0.94258,-0.49299 -0.94309,-0.49299 -0.416,0.16639 -0.41548,0.1664 -0.91208,-0.42374 c -0.90849,-0.4222 -0.91215,-0.4257 -1.06557,-0.84698 l -0.154,-0.42271 -0.95911,-0.37983 -0.9586,-0.37982 -0.4222,0.19792 -0.42168,0.19741 -0.95239,-0.31316 -0.95188,-0.31316 -0.1726,-0.40876 -0.17312,-0.40928 -1.00769,-0.27802 c -1.08391,-0.29888 -1.00584,-0.30266 -1.61695,0.0827 -0.16142,0.10176 -0.30903,0.0894 -1.14309,-0.0946 l -0.95756,-0.21136 -0.25218,-0.38809 -0.25167,-0.38861 -1.05936,-0.17621 -1.05885,-0.17622 -0.21291,0.1912 c -0.44,0.39574 -0.41373,0.39128 -1.44281,0.2651 l -0.97151,-0.11937 -0.30541,-0.35657 -0.30593,-0.35605 -1.00665,-0.063 -1.00666,-0.0636 -0.35553,0.34572 -0.35502,0.34571 -0.99374,-0.0532 -0.99322,-0.0532 -0.31936,-0.31161 -0.31936,-0.31161 -1.04128,0.0517 c -1.1113,0.0555 -1.07799,0.042 -1.45986,0.58601 -0.0799,0.11386 -0.33136,0.16883 -1.13533,0.24753 l -1.03301,0.10129 -0.29404,-0.28526 -0.29404,-0.28525 -0.86765,0.108 c -1.27909,0.15921 -1.26638,0.15447 -1.51515,0.55914 -0.24213,0.39384 -0.3011,0.41653 -1.69447,0.65578 -0.55072,0.0946 -0.57103,0.0916 -0.86248,-0.13075 -0.36086,-0.27524 -0.37986,-0.27491 -1.495,0.015 l -0.88883,0.23099 -0.21188,0.40101 -0.21135,0.40101 -0.97152,0.30438 -0.97203,0.30437 -0.38293,-0.21549 -0.38292,-0.21497 -0.97358,0.35863 c -0.84018,0.3093 -0.98872,0.39201 -1.08262,0.60616 -0.26675,0.60868 -0.3065,0.643 -1.20355,1.02578 l -0.88883,0.37931 -0.40876,-0.17157 c -0.32777,-0.1376 -0.44875,-0.15276 -0.61392,-0.0775 -0.10967,0.0503 -0.2129,0.0753 -0.23306,0.0594 l -5.2e-4,-5.1e-4 c -0.0154,-0.0192 -0.24787,-0.45412 -0.51625,-0.96635 -0.85073,-1.62371 -1.77603,-2.71296 -2.48511,-2.9254 -0.32809,-0.0983 -0.38917,-0.0854 -1.19786,0.25993 -0.46873,0.20015 -0.85215,0.39978 -0.85215,0.44338 0,0.0436 0.0697,0.18026 0.15503,0.30386 0.31729,0.45956 1.37255,2.38153 1.97456,3.59616 0.6012,1.21299 0.61663,1.25873 0.45733,1.37615 -0.0906,0.0666 -0.18984,0.0925 -0.22014,0.0574 -0.0303,-0.0351 -4.80914,-9.13141 -10.61951,-20.21428 -5.81038,-11.08287 -10.7028,-20.40973 -10.87168,-20.72639 -0.29268,-0.5488 -0.29966,-0.58109 -0.15141,-0.69194 0.14709,-0.10999 0.12774,-0.16793 -0.35967,-1.06764 -0.28345,-0.52321 -0.51522,-0.95732 -0.51522,-0.96532 0,-0.0208 2.28089,-1.02477 2.61225,-1.1498 0.31623,-0.11932 1.49853,-1.29551 1.72341,-1.71462 0.0796,-0.14823 0.14579,-0.43466 0.14779,-0.63665 0.004,-0.36544 -0.67493,-3.48433 -0.85524,-3.93155 -0.14075,-0.34911 -0.50201,-0.61339 -1.58957,-1.16272 -0.90669,-0.45797 -0.99722,-0.52625 -1.202,-0.90382 -0.34673,-0.6393 -0.89379,-1.27976 -1.24023,-1.45262 -0.35214,-0.17571 -0.741,-0.27815 -3.19515,-0.84026 -1.33106,-0.30486 -2.07269,-0.43736 -2.59261,-0.42478 z m -6.87193,26.96115 c 0.0177,0.054 -0.51439,0.77794 -1.18236,1.60868 -1.6864,2.09734 -1.8543,2.32786 -2.95796,4.05092 -0.53689,0.8382 -2.89382,4.51455 -5.2374,8.17004 -9.54086,14.88169 -12.43117,19.39361 -18.983861,29.63335 -3.76961,5.89069 -7.1835,11.22489 -7.5861,11.85354 -2.26096,3.5305 -4.28266,5.51908 -6.4456,6.34018 -0.35018,0.13294 -0.74113,0.26642 -0.86919,0.29662 -0.28838,0.068 -0.28832,0.0778 -0.0625,-1.51205 0.23,-1.61938 0.22227,-1.95828 -0.0553,-2.36678 -0.12294,-0.18092 -0.24077,-0.48463 -0.262,-0.67541 -0.0419,-0.37633 0.35349,-3.55352 0.50023,-4.0194 0.0495,-0.15721 0.27988,-0.46404 0.51159,-0.68161 l 0.42116,-0.39532 0.30283,-2.24018 c 0.16647,-1.23197 0.27848,-2.33594 0.24908,-2.45308 -0.0294,-0.11714 -0.14096,-0.30529 -0.24753,-0.41806 -0.10658,-0.11277 -0.25055,-0.37801 -0.3204,-0.58963 -0.0869,-0.26325 -0.21291,-0.43886 -0.39894,-0.55552 -0.18736,-0.11749 -0.27219,-0.23603 -0.27285,-0.38189 -10e-4,-0.32513 1.15458,-8.72364 1.20819,-8.77724 0.0259,-0.0259 0.50633,8.5e-4 1.06764,0.0594 1.1213,0.1173 1.09676,0.0996 0.93224,0.69195 -0.0479,0.1725 -0.18188,0.38794 -0.29765,0.47904 -0.11578,0.0911 -0.24734,0.27393 -0.29249,0.40617 -0.0451,0.13224 -0.25322,1.51683 -0.46251,3.07682 -0.20928,1.55998 -0.39963,2.94183 -0.42271,3.07113 -0.0349,0.19538 0.004,0.26363 0.23151,0.40359 0.44503,0.27402 1.54937,0.58662 2.44274,0.69143 0.94797,0.11122 2.07497,-0.005 2.24431,-0.23202 0.0523,-0.07 0.12033,-0.3645 0.15141,-0.65474 0.0836,-0.78063 0.14515,-1.07849 0.22273,-1.07849 0.0381,0 0.0812,0.0859 0.0961,0.19068 0.0198,0.1395 0.0837,0.19069 0.23875,0.19069 0.2043,0 0.21679,-0.0328 0.3545,-0.93173 0.20231,-1.32034 0.20303,-1.31206 -0.10026,-1.31206 -0.16933,0 -0.25424,0.0424 -0.25424,0.12712 0,0.0698 -0.0382,0.12661 -0.0847,0.12661 -0.11284,0 -0.11078,-0.0336 0.0847,-1.43919 0.21175,-1.52263 0.2109,-1.69739 -0.009,-2.06964 -0.15543,-0.26345 -0.17019,-0.37764 -0.1173,-0.90434 0.0423,-0.42101 0.12122,-0.69196 0.26148,-0.89865 0.27361,-0.40317 0.37161,-0.80253 0.37001,-1.50378 -0.002,-0.82474 -0.21015,-1.26778 -0.6935,-1.47485 -0.23173,-0.0993 -1.50673,-0.31124 -3.53725,-0.58859 -2.78874,-0.38091 -3.23131,-0.46204 -3.63699,-0.66508 -0.79889,-0.39985 -1.0845,-0.37794 -5.62859,0.43357 -2.23235,0.39867 -4.06727,0.7165 -4.07727,0.7059 -0.0413,-0.0443 -1.03995,-2.30154 -1.02475,-2.31614 0.0152,-0.0146 7.67097,-2.27891 8.05998,-2.38384 0.0931,-0.0251 10.27586,-6.61428 22.628581,-14.64252 22.82527,-14.8345 22.81563,-14.8286 22.94124,-14.44563 z m -61.304781,0.98753 c 0.0632,0.0633 -2.41899,3.17391 -2.68252,3.36156 -0.29219,0.20806 -1.17159,0.52273 -1.27745,0.45733 -0.0411,-0.0254 -0.0749,-0.0931 -0.0749,-0.15089 0,-0.24047 -0.18083,-0.29728 -0.53898,-0.16847 -0.19255,0.0693 -1.60259,0.51954 -3.133659,1.00046 -1.53106,0.48093 -2.81754,0.92618 -2.85874,0.98908 -0.0411,0.0629 -0.05792,0.18265 -0.03772,0.26665 0.02496,0.10384 -0.03113,0.17867 -0.17415,0.23307 -0.21568,0.082 -0.876456,0.0928 -1.164786,0.0191 -0.10985,-0.0281 0.07879,-0.14261 0.592212,-0.35864 1.00296,-0.42203 3.75154,-1.81538 6.758763,-3.42666 2.33576,-1.2515 4.51036,-2.30421 4.59196,-2.22261 z M 5.4794987,183.63981 c 10.1168343,0.50532 19.7387413,4.78408 27.0040363,12.26178 1.67866,1.72773 3.713188,4.19566 3.569808,4.33049 -0.04051,0.0381 -4.493274,2.45879 -9.895003,5.379 -5.40173,2.92021 -10.013737,5.41828 -10.248987,5.55108 l -0.427881,0.24133 -1.450041,-1.72393 c -0.79748,-0.94801 -1.531811,-1.8842 -1.631941,-2.08049 -0.25253,-0.49498 -0.845955,-1.04653 -1.420585,-1.32085 -1.0170903,-0.48554 -2.4515563,-0.33427 -3.3114263,0.34933 l -0.372071,0.29559 -0.413928,-0.38706 c -0.22763,-0.21292 -0.631349,-0.48911 -0.897619,-0.61391 -0.42394,-0.19871 -0.589269,-0.22686 -1.330669,-0.22686 -0.73725,0 -0.907091,0.0282 -1.312581,0.22066 -0.5636,0.26746 -1.175604,0.79639 -1.396814,1.20716 -0.13991,0.25978 -0.217203,0.31047 -0.547253,0.35657 -3.21292,0.44913 -6.247062,1.7475 -8.596892,3.67936 -0.74096,0.60916 -2.172696,2.07648 -2.682006,2.74867 -5.2887897,6.98012 -4.4168697,16.68494 2.02985,22.59655 1.69259,1.55209 3.740155,2.74827 6.004285,3.5078 1.67724001,0.56265 4.151901,0.92594 5.741251,0.84284 l 0.795817,-0.0413 -0.164331,0.20877 c -0.09033,0.11483 -0.57482,0.63482 -1.07642,1.15549 l -0.911572,0.94671 -0.571542,0.11162 -0.571541,0.11162 v 0.50075 0.50074 l 1.079521,0.71003 c 1.316,0.86599 2.604127,1.55018 3.619417,1.92185 0.71761,0.26271 0.825869,0.27899 1.862419,0.27699 0.86604,-0.001 1.250687,-0.0421 1.803507,-0.19017 1.0750703,-0.28801 1.5611773,-0.5008 1.8148773,-0.79427 l 0.23151,-0.26768 3.536218,-0.4868 c 11.22045,-1.54376 23.887999,-3.30079 24.088969,-3.34139 0.13823,-0.028 0.232544,-0.0104 0.232544,0.0434 0,0.16372 -1.344835,2.54592 -2.105815,3.73001 -0.90712,1.41149 -1.892641,2.75754 -3.008601,4.10931 -0.96363,1.16724 -3.795573,4.02643 -4.918563,4.9661 -6.48836,5.42921 -13.894985,8.56661 -22.2673753,9.43199 -1.17978,0.12196 -4.796813,0.21589 -5.926253,0.15399 -8.78396,-0.48155 -16.8774127,-3.61856 -23.7194827,-9.19375 -1.39987,-1.14067 -4.164873,-3.87372 -5.292183,-5.23121 -3.13841,-3.77926 -5.494699,-7.84868 -7.084839,-12.23646 -4.63987,-12.80312 -2.562982,-27.04925 5.529378,-37.93257 5.96464,-8.02177 14.772524,-13.6556 24.3979937,-15.60525 3.413383,-0.69138 6.840536,-0.94203 10.212814,-0.77359 z m 177.1809113,0.003 v 5.1e-4 c 1.64051,-0.12676 4.81119,-0.10769 6.47609,0.0393 8.32742,0.73459 16.01411,3.90876 22.4839,9.2847 1.46518,1.21747 3.93312,3.68541 5.15059,5.15059 5.21977,6.28183 8.31388,13.61639 9.21494,21.84415 0.21057,1.92278 0.21137,6.33018 0.001,8.21242 -0.55533,4.97337 -1.73643,9.12399 -3.81941,13.42243 -0.90695,1.87159 -1.56069,3.03518 -2.56677,4.56923 -7.02466,10.71097 -18.33839,17.3803 -31.09422,18.32963 v -5.1e-4 c -1.31926,0.0984 -4.52465,0.093 -5.8844,-0.008 -9.48819,-0.71114 -18.36235,-4.72858 -25.22223,-11.41843 -7.03472,-6.86038 -11.25781,-15.7326 -12.11502,-25.45012 -0.14739,-1.67021 -0.16767,-5.21482 -0.0388,-6.7846 0.71146,-8.65273 4.06967,-16.64349 9.77821,-23.2668 1.03882,-1.20528 3.52541,-3.67167 4.54701,-4.51032 l 0.64647,-0.53071 0.29249,0.53071 c 0.37926,0.68844 10.39047,19.80404 10.41177,19.88044 0.009,0.0319 -0.60089,0.91183 -1.35496,1.95544 -1.18893,1.64547 -1.42077,1.92191 -1.74718,2.08049 -1.51743,0.73721 -2.16561,2.64655 -1.42627,4.20233 0.2665,0.5608 0.79598,1.1458 1.28675,1.42162 0.26785,0.15054 0.36028,0.30162 0.75964,1.2392 0.40154,0.94271 0.46784,1.18305 0.56534,2.0469 0.57313,5.07766 3.19891,9.39653 7.44451,12.24473 4.46531,2.9956 10.34718,3.58769 15.4435,1.55495 5.37277,-2.143 9.32373,-7.04935 10.29084,-12.77907 0.18828,-1.11527 0.25346,-3.39535 0.12868,-4.48913 -0.57941,-5.07892 -3.19573,-9.39123 -7.40523,-12.20545 -1.98331,-1.32591 -4.12859,-2.17123 -6.65489,-2.62258 -0.85531,-0.15273 -4.30355,-0.15364 -5.16506,-0.001 -1.74835,0.30938 -3.59089,0.91191 -5.02037,1.64228 -0.4563,0.23314 -0.84371,0.40984 -0.86041,0.39274 -0.0167,-0.0171 -2.26863,-4.29816 -5.00435,-9.51363 l -4.97385,-9.48263 -0.016,-1.05833 c -0.009,-0.58208 -0.0453,-1.16356 -0.0811,-1.29243 -0.0645,-0.23224 -0.0532,-0.23997 1.2361,-0.85731 4.39976,-2.10672 9.23192,-3.38237 14.29267,-3.77341 z m -104.098551,6.40788 c 0.0163,-0.001 0.0263,0.002 0.0295,0.0119 0.0138,0.0415 -0.16671,1.46707 -0.40153,3.16828 -0.23482,1.70121 -0.42736,3.11556 -0.42736,3.14296 0,0.0275 -0.0418,0.0501 -0.093,0.0501 -0.26455,0 -0.6917,0.3058 -0.84388,0.6041 -0.0918,0.17986 -0.21962,0.32711 -0.2837,0.32711 -0.13693,0 -0.64177,0.5516 -0.64182,0.70125 -2e-5,0.0566 -0.13256,1.0693 -0.29456,2.24999 -0.31276,2.27953 -0.31591,2.1844 0.0873,2.77864 0.15462,0.22784 0.20723,0.41753 0.20723,0.74931 0,0.49021 -0.37683,3.29529 -0.50592,3.76618 -0.0472,0.172 -0.24778,0.45756 -0.47594,0.67748 l -0.39429,0.38034 0.0532,-5.62602 0.0527,-5.62549 0.20722,-0.21653 c 0.40202,-0.42032 0.6315,-1.0969 0.80822,-2.38383 0.0921,-0.67044 0.25122,-1.48401 0.35399,-1.80764 0.20566,-0.64768 0.80922,-1.60991 1.31258,-2.0929 0.36907,-0.35414 1.09274,-0.84159 1.25005,-0.85524 z m -15.81764,3.77031 v 5.2e-4 5.1e-4 10e-4 0.001 c 1.84364,-0.11249 3.52253,0.70501 4.52479,2.20297 0.34337,0.51315 0.34922,0.53467 0.29972,1.07383 -0.60505,6.59561 -1.47622,15.70966 -1.53582,16.06465 -0.0253,0.15078 -0.11324,0.31009 -0.19534,0.35399 -0.12664,0.0678 -0.73846,-0.61314 -4.03903,-4.49482 -2.13947,-2.51615 -3.99335,-4.6994 -4.11964,-4.85138 l -0.22996,-0.27595 1.74769,-1.16479 c 1.51469,-1.00952 1.75995,-1.14651 1.84485,-1.03043 0.0963,0.13175 0.19802,0.0998 0.54054,-0.16846 l 5.1e-4,-5.2e-4 5.2e-4,-5.2e-4 v -5.1e-4 h 5.2e-4 v -5.2e-4 l 5.1e-4,-5.2e-4 v -5.1e-4 c 2.8e-4,-6.8e-4 8.8e-4,-0.002 10e-4,-0.003 0.01,-0.0209 -0.0233,-0.0864 -0.0785,-0.15296 -0.0571,-0.0687 -0.0899,-0.13726 -0.077,-0.15606 l 5.2e-4,-5.2e-4 v -5.2e-4 h 5.2e-4 v -5.1e-4 h 5.1e-4 v -5.2e-4 c 0.0183,-0.0146 0.21393,-0.14869 0.43512,-0.29817 0.38666,-0.26135 0.40256,-0.28751 0.40256,-0.68058 v -0.40876 l -1.31465,-0.6966 -1.31413,-0.6966 -0.39998,0.25993 c -0.34247,0.2228 -0.41644,0.24345 -0.51779,0.14211 -0.17521,-0.17521 -0.53324,0.0692 -0.47284,0.32298 0.0377,0.1585 -0.43157,0.49981 -3.738793,2.72128 -2.07978,1.397 -3.819097,2.55475 -3.865397,2.57245 -0.046,0.0177 -0.06462,-9e-4 -0.04082,-0.0424 0.02376,-0.041 -0.152558,-0.50994 -0.391708,-1.0418 l -0.434598,-0.96686 -0.428915,-0.11938 -0.428914,-0.11937 -0.416512,-0.85266 c -0.220255,-0.45081 -0.366279,-0.83645 -0.335897,-0.88057 l 5.17e-4,-5.1e-4 5.17e-4,-5.2e-4 5.16e-4,-5.2e-4 h 5.17e-4 c 1.87e-4,-1.7e-4 8.52e-4,-8.9e-4 10e-4,-0.001 v -5.2e-4 l 5.17e-4,-5.1e-4 c 0.04657,-0.0169 2.313785,-1.23334 5.037935,-2.7032 l 4.952665,-2.6727 1.90531,-0.59221 c 1.56954,-0.48786 2.04069,-0.60044 2.67684,-0.63924 z m -23.462649,11.41222 0.499194,0.99271 c 0.63473,1.26183 1.226806,2.63311 1.759066,4.0752 0.64841,1.75677 1.637134,5.34332 1.503784,5.45496 -0.02005,0.0168 -5.313616,0.15156 -11.763106,0.29973 -6.44948,0.14817 -11.923376,0.27805 -12.164116,0.28835 -0.218179,0.009 -0.387525,0.004 -0.403076,-0.0108 v -5.2e-4 l -5.17e-4,-5.1e-4 -5.16e-4,-5.2e-4 v -5.2e-4 -5.1e-4 -5.2e-4 l 5.16e-4,-5.2e-4 v -5.1e-4 l 5.17e-4,-5.2e-4 5.17e-4,-5.2e-4 c 0.01916,-0.019 4.65458,-2.52296 10.30118,-5.56452 z m 14.160893,1.36013 3.672126,4.31963 c 2.01976,2.37567 3.68302,4.34959 3.69642,4.38629 0.0134,0.0367 -1.43395,0.0916 -3.21686,0.12248 -1.782902,0.0309 -3.479358,0.0789 -3.769798,0.10645 -0.67058,0.0634 -0.753194,-0.0672 -0.358634,-0.56534 l 0.272851,-0.34468 -0.201021,-0.98961 c -0.20538,-1.01057 -0.240657,-1.07691 -0.744657,-1.39888 -0.2651,-0.16936 -0.310489,-0.26349 -0.538469,-1.11621 l -0.24908,-0.93121 0.226859,-0.40462 0.227377,-0.40463 -0.259933,-0.78083 c -0.14311,-0.42956 -0.260449,-0.8278 -0.260449,-0.8847 0,-0.0569 0.338025,-0.33082 0.751375,-0.60875 z m -51.1880913,4.39249 0.382406,0.33642 c 0.41209,0.36273 1.023077,0.62952 1.659847,0.72502 0.21936,0.0329 0.398425,0.10531 0.398425,0.16071 0,0.21662 0.562092,0.64557 0.927592,0.70797 l 0.365353,0.062 0.58136,1.33687 c 0.31972,0.73531 0.581359,1.36993 0.581359,1.40973 0,3.2e-4 2.4e-5,8.7e-4 0,0.001 -9.5e-5,5.8e-4 -3.28e-4,0.002 -5.16e-4,0.003 l -5.17e-4,5.2e-4 -5.17e-4,5.2e-4 v 5.2e-4 l -5.17e-4,5.1e-4 c -0.02237,0.0279 -0.208826,-0.0135 -0.433048,-0.0987 -1.37378,-0.52199 -3.124282,-0.69782 -4.559412,-0.45785 -2.61577999,0.43739 -4.79012,1.82424 -6.21254,3.96255 -2.51068,3.77429 -1.890709,8.77344 1.469161,11.84682 0.6415,0.5868 3.43591701,2.37229 7.816577,4.99401 0.78274,0.46845 1.404428,0.87037 1.381828,0.89297 -0.02265,0.0226 -0.453078,0.11217 -0.957048,0.19947 -1.08256,0.18752 -3.243077,0.2078 -4.303097,0.0403 -2.06783999,-0.32665 -4.139527,-1.20171 -5.808947,-2.45463 -0.96481,-0.7241 -2.382092,-2.21106 -3.026172,-3.17397 -0.64223,-0.96014 -1.273488,-2.23837 -1.611788,-3.2644 -1.2664797,-3.84115 -0.693623,-8.00113 1.573547,-11.42359 0.78659,-1.18742 2.391623,-2.78675 3.597713,-3.58531 1.75062,-1.1591 3.55374101,-1.85187 5.557801,-2.13476 z m 183.4254983,0.0171 c 1.40231,0.005 2.80574,0.22439 4.10259,0.65887 3.91489,1.31161 7.07521,4.46572 8.36693,8.34988 0.70072,2.10707 0.84832,4.421 0.42271,6.62647 -1.03104,5.34269 -5.27823,9.51777 -10.65723,10.47636 -0.71783,0.12794 -2.90813,0.22299 -3.47214,0.15089 -1.83425,-0.23458 -3.11303,-0.60742 -4.6147,-1.34565 -3.61734,-1.77832 -6.26021,-5.21412 -7.07089,-9.1922 -0.0922,-0.45271 -0.16795,-0.95832 -0.16795,-1.12345 0,-0.27372 0.0333,-0.3149 0.37517,-0.46612 0.40931,-0.18105 0.64771,-0.527 0.65991,-0.95756 0.004,-0.14 0.0487,-0.26923 0.0997,-0.28733 0.10169,-0.036 2.7109,-0.44579 2.728,-0.42839 0.006,0.006 0.57659,1.09309 1.26814,2.41587 1.23839,2.36877 1.26291,2.40777 1.6247,2.5678 0.47119,0.20843 0.49861,0.19872 2.4443,-0.8692 1.81795,-0.99781 1.81933,-0.99842 3.41529,-0.54777 1.1748,0.33173 1.5634,0.35947 2.1916,0.15658 1.45255,-0.46911 2.11261,-2.287 1.32085,-3.63802 -0.36979,-0.631 -1.07139,-1.08508 -2.07894,-1.34565 -1.13338,-0.29312 -2.63519,-1.15004 -3.6835,-2.10168 -0.4902,-0.44499 -0.59646,-0.62371 -2.26963,-3.81786 -0.96545,-1.84307 -1.72884,-3.39358 -1.69654,-3.44578 0.0878,-0.14209 1.84699,-0.95936 2.5952,-1.20561 1.29277,-0.42549 2.69407,-0.63533 4.09639,-0.63045 z M 61.310719,217.0005 c 0.10219,0.003 0.0886,0.0411 0.031,0.13488 -0.0538,0.0875 -0.28037,0.4445 -0.50385,0.79375 l -0.40669,0.6351 -1.387,0.61547 c -1.66478,0.73871 -2.721303,1.1409 -3.608563,1.37356 -0.36295,0.0952 -0.859845,0.19651 -1.104325,0.22531 -0.3946,0.0465 -0.444934,0.0348 -0.444934,-0.10387 0,-0.0859 0.131985,-0.29085 0.293005,-0.45579 l 0.293006,-0.30024 -0.120406,-1.05833 c -0.06592,-0.58208 -0.12099,-1.06264 -0.12299,-1.06764 -0.0019,-0.005 -0.160367,-0.11841 -0.351917,-0.25115 -0.33972,-0.23541 -0.343163,-0.24272 -0.141593,-0.29662 0.11365,-0.0304 1.689612,-0.0809 3.502107,-0.11214 1.8125,-0.0312 3.49931,-0.079 3.74861,-0.10645 0.16033,-0.0177 0.26321,-0.0279 0.32453,-0.0258 z m -18.509984,0.50281 0.640788,0.003 0.146761,1.1219 c 0.13437,1.02717 0.295901,2.54212 0.274401,2.57452 -0.0049,0.007 -4.885836,0.18827 -10.846366,0.40153 -5.96054,0.21327 -11.319857,0.41223 -11.909867,0.44183 l -1.072803,0.0537 -0.05581,-0.41289 c -0.08883,-0.65839 -0.518422,-2.39141 -0.751892,-3.03393 -0.11782,-0.32426 -0.206887,-0.59396 -0.196887,-0.59996 0.03184,-0.0191 23.123916,-0.55284 23.771676,-0.54984 z m -27.613302,0.80357 c 0.24167,0.14937 1.191659,3.09759 1.191659,3.69797 v 0.24288 l -1.502751,-0.0134 c -0.82656,-0.008 -1.705903,-0.0363 -1.954403,-0.0636 l -0.452168,-0.0501 -0.232028,-0.71933 c -0.12769,-0.39582 -0.298521,-0.84686 -0.379821,-1.00253 -0.07999,-0.15324 -0.133666,-0.29116 -0.120923,-0.30954 v -5.1e-4 h 5.17e-4 c 0.14503,-0.14286 3.390018,-1.81881 3.449918,-1.78181 z m 158.590837,0.25528 h 5.1e-4 5.2e-4 5.2e-4 5.1e-4 c 0.11771,-0.0106 1.49511,2.55167 1.41335,2.63343 -0.0241,0.0241 -0.51536,0.11786 -1.0914,0.20826 -1.1616,0.1822 -1.34359,0.19602 -1.34359,0.10232 0,-0.36258 0.85888,-2.84427 1.01854,-2.94297 l 5.2e-4,-5.2e-4 z m -161.636646,9.05578 c 0.0026,-2.1e-4 0.0051,0 0.0078,0 0.01967,5e-5 0.04012,0.006 0.06253,0.0165 0.08011,0.0379 0.974139,0.0823 1.986959,0.0987 1.01283,0.0165 1.841748,0.0398 1.841748,0.0517 0,0.0119 -0.09189,0.29118 -0.204122,0.62115 -0.65691,1.9314 -2.021639,4.01629 -3.505729,5.35574 -0.30993,0.27973 -0.584282,0.5085 -0.609782,0.5085 -0.02554,0 -0.11387,-0.11398 -0.19637,-0.25373 -0.08743,-0.148 -0.713877,-0.64524 -1.500167,-1.19114 -0.7424103,-0.51542 -1.3486883,-0.96308 -1.3466883,-0.99478 v -5.1e-4 l 5.17e-4,-5.2e-4 c 0.0089,-0.0362 0.238939,-0.23142 0.517281,-0.4377 0.9775003,-0.72443 2.1524053,-2.20153 2.6551353,-3.3383 0.13935,-0.31506 0.209242,-0.42901 0.290938,-0.43563 z m 31.675586,0.13281 -0.05116,0.44442 c -0.47358,4.1096 -1.378994,7.77125 -2.738334,11.07322 l -0.437183,1.06144 -5.649784,0.78238 c -3.10742,0.4304 -9.478875,1.31458 -14.158825,1.96474 -8.3569,1.16102 -8.901199,1.22996 -8.991699,1.13946 -0.0246,-0.0247 -0.0262,-0.30204 -0.0036,-0.61598 0.08496,-1.18735 -0.280765,-2.12329 -1.171505,-2.99827 -0.58945,-0.57906 -0.594344,-0.58766 -0.500744,-0.87126 0.0819,-0.24817 0.2139,-0.34933 0.99012,-0.76016 1.16657,-0.61744 2.415067,-1.47433 3.389457,-2.32596 2.38832,-2.08743 4.234172,-5.05654 5.054472,-8.13129 l 0.19172,-0.71985 12.038541,-0.0217 z m 12.885519,5.2e-4 h 2.81585 l 0.20309,0.57154 c 0.51828,1.45791 1.52058,3.03109 2.68562,4.21576 1.76484,1.79459 3.91381,2.90891 6.45232,3.34502 0.5285,0.0908 1.19566,0.16863 1.48208,0.17363 0.25711,0.004 0.37843,0.0103 0.39326,0.0269 l 5.1e-4,5.2e-4 5.2e-4,5.2e-4 v 5.1e-4 5.2e-4 5.2e-4 l 5.2e-4,5.1e-4 c 1e-5,2.4e-4 3e-5,0.001 0,0.002 v 5.2e-4 l -5.2e-4,5.1e-4 v 5.2e-4 5.2e-4 c -0.007,0.0117 -0.0514,0.0286 -0.12764,0.0512 -0.1397,0.0413 -3.45436,0.51489 -7.36596,1.05264 -3.9116,0.53775 -7.909423,1.09085 -8.883693,1.22887 v -5.2e-4 c -0.97427,0.13801 -1.85399,0.25115 -1.95492,0.25115 -0.11752,0 -0.221154,-0.0825 -0.288354,-0.22996 -0.08965,-0.19675 -0.0698,-0.3652 0.134875,-1.15858 0.21409,-0.82993 0.265506,-0.94228 0.487826,-1.06092 0.50326,-0.26857 0.591217,-0.42683 0.797367,-1.43351 l 0.196887,-0.96169 -0.264583,-0.36897 -0.2651,-0.36897 0.146761,-0.98392 0.147278,-0.98341 0.364319,-0.25063 c 0.20037,-0.13786 0.365936,-0.2592 0.367936,-0.2682 0.0019,-0.009 0.05699,-0.4933 0.12299,-1.07538 l 0.120406,-1.05834 -0.293006,-0.29972 c -0.16102,-0.16494 -0.293005,-0.32667 -0.293005,-0.35967 0,-0.0329 1.267606,-0.0599 2.816366,-0.0599 z m 27.62105,1.91461 c -5.5e-4,0.0898 0.009,0.21426 0.0305,0.38137 0.012,0.0926 0.0202,0.1728 0.0253,0.24133 0.14706,0.0335 0.071,-0.27758 -0.0558,-0.6227 z m 0.0558,0.6227 c -0.0116,-0.003 -0.0248,-0.007 -0.0393,-0.0145 -0.39007,-0.19122 0.10762,0.93515 0.0393,0.0145 z" /><g
       id="g1"
       transform="translate(-6.3261719e-6,66.736586)"
       style="fill:#55d400"><rect
         style="fill:#55d400;stroke-width:0.2334"
         id="rect187"
         width="14.821785"
         height="5.6220565"
         x="152.90379"
         y="60.021896"
         transform="rotate(33.553846)" /><rect
         style="fill:#55d400;stroke-width:0.2334"
         id="rect187-5"
         width="14.821785"
         height="5.6220565"
         x="152.81984"
         y="53.169495"
         transform="rotate(33.553846)" /><rect
         style="fill:#55d400;stroke-width:0.2334"
         id="rect187-5-7"
         width="14.821785"
         height="5.6220565"
         x="152.69858"
         y="46.278961"
         transform="rotate(33.553846)" /><rect
         style="fill:#55d400;stroke-width:0.2334"
         id="rect187-4"
         width="14.821785"
         height="5.6220565"
         x="152.29968"
         y="39.259674"
         transform="rotate(33.553846)" /><rect
         style="fill:#55d400;stroke-width:0.2334"
         id="rect187-5-1"
         width="14.821785"
         height="5.6220565"
         x="152.21573"
         y="32.407272"
         transform="rotate(33.553846)" /><rect
         style="fill:#55d400;stroke-width:0.2334"
         id="rect187-5-7-9"
         width="14.821785"
         height="5.6220565"
         x="152.09447"
         y="25.516739"
         transform="rotate(33.553846)" /></g></g></svg>
