<?xml version="1.0" encoding="UTF-8" standalone="no"?>
<!-- Created with Inkscape (http://www.inkscape.org/) -->

<svg
   width="284.66901mm"
   height="284.66901mm"
   viewBox="0 0 284.66901 284.669"
   version="1.1"
   id="svg1"
   xml:space="preserve"
   inkscape:version="1.3.2 (091e20e, 2023-11-25, custom)"
   sodipodi:docname="enduro_rider.svg"
   xmlns:inkscape="http://www.inkscape.org/namespaces/inkscape"
   xmlns:sodipodi="http://sodipodi.sourceforge.net/DTD/sodipodi-0.dtd"
   xmlns="http://www.w3.org/2000/svg"
   xmlns:svg="http://www.w3.org/2000/svg"><sodipodi:namedview
     id="namedview1"
     pagecolor="#ffffff"
     bordercolor="#666666"
     borderopacity="1.0"
     inkscape:showpageshadow="2"
     inkscape:pageopacity="0.0"
     inkscape:pagecheckerboard="0"
     inkscape:deskcolor="#d1d1d1"
     inkscape:document-units="mm"
     inkscape:zoom="0.12929276"
     inkscape:cx="-696.09467"
     inkscape:cy="65.742274"
     inkscape:window-width="1920"
     inkscape:window-height="1017"
     inkscape:window-x="-8"
     inkscape:window-y="-8"
     inkscape:window-maximized="1"
     inkscape:current-layer="g27" /><defs
     id="defs1" /><g
     inkscape:label="Layer 1"
     inkscape:groupmode="layer"
     id="layer1"
     transform="translate(47.797819,-57.484616)"><g
       id="g27"
       transform="translate(-4.4784901,81.079187)"><g
         id="g2"
         transform="translate(-1.0881332,1.6297663)"><path
           id="path26"
           style="fill:#000000;stroke-width:2.2966"
           d="m 7.7416651,157.72222 c -4.8611322,0 -4.8611395,3e-5 -4.8611395,2.73441 0,2.43171 -0.1508179,2.73437 -1.368381,2.73437 -1.26176081,0 -7.9448386,1.76473 -10.2563379,2.70829 -0.7105372,0.29007 -1.3712687,-0.21151 -2.3356277,-1.77189 -1.34479,-2.17591 -1.344657,-2.17532 -4.781623,-0.24923 -4.767569,2.67176 -4.773935,2.68085 -3.530735,4.98932 1.700276,3.15721 -7.173885,12.03256 -10.331104,10.33229 -2.308488,-1.24321 -2.318735,-1.23686 -4.990501,3.53072 -1.926091,3.43699 -1.925508,3.43684 0.250414,4.78163 1.579409,0.97615 2.059341,1.61644 1.751719,2.33564 -0.894506,2.09128 -2.689292,8.92769 -2.689292,10.24447 0,1.23079 -0.296107,1.38024 -2.734392,1.38024 -2.734387,0 -2.73439,0 -2.73439,4.86113 0,4.86116 3e-6,4.86116 2.73439,4.86116 2.438285,0 2.734392,0.14928 2.734392,1.38023 0,1.31676 1.794786,8.15317 2.689292,10.24447 0.307622,0.71921 -0.172314,1.3595 -1.751719,2.33562 -2.175922,1.34481 -2.176505,1.34469 -0.250414,4.78164 2.671766,4.76758 2.682013,4.77394 4.990501,3.53072 3.188937,-1.71735 12.025689,7.17952 10.312117,10.38216 -0.9659,1.80524 -0.990295,2.12635 -0.191077,2.61452 7.393372,4.51597 7.063485,4.43604 8.520048,2.07928 0.966287,-1.5636 1.627309,-2.06557 2.3379988,-1.77547 2.3114994,0.94359 8.99457894,2.70829 10.2563377,2.70829 1.2175756,0 1.368382,0.30267 1.368382,2.73439 0,2.73439 6.3e-6,2.73439 4.8611395,2.73439 4.861134,0 4.861137,0 4.861137,-2.73439 0,-2.43828 0.149371,-2.73439 1.38025,-2.73439 1.316774,0 8.153157,-1.79479 10.244473,-2.68928 0.719208,-0.30764 1.359497,0.17338 2.335624,1.75288 1.344797,2.17593 1.344658,2.17533 4.781625,0.24924 4.767567,-2.67177 4.775123,-2.68082 3.53192,-4.98932 -1.700275,-3.15723 7.173892,-12.03256 10.331102,-10.3323 2.308501,1.24322 2.318739,1.23686 4.990502,-3.53072 1.92609,-3.43695 1.925505,-3.43683 -0.250418,-4.78164 -1.579405,-0.97612 -2.059339,-1.61641 -1.75172,-2.33562 0.894515,-2.0913 2.688113,-8.92771 2.688113,-10.24447 0,-1.23083 0.296111,-1.38023 2.734391,-1.38023 2.734389,0 2.734389,0 2.734389,-4.86116 0,-4.86113 0,-4.86113 -2.734389,-4.86113 -2.43828,0 -2.734391,-0.14951 -2.734391,-1.38024 0,-1.31678 -1.793598,-8.15319 -2.688113,-10.24447 -0.307619,-0.7192 0.172315,-1.35949 1.75172,-2.33564 2.175923,-1.34479 2.176508,-1.34464 0.250418,-4.78163 -2.671763,-4.76758 -2.682001,-4.77393 -4.990502,-3.53072 -3.15721,1.70027 -12.031377,-7.17508 -10.331102,-10.33229 1.243203,-2.30847 1.235647,-2.31756 -3.53192,-4.98932 -3.436967,-1.92609 -3.436828,-1.92668 -4.781625,0.24923 -0.976127,1.57942 -1.616416,2.06053 -2.335624,1.7529 -2.091316,-0.8945 -8.927699,-2.6893 -10.244473,-2.6893 -1.230879,0 -1.38025,-0.2961 -1.38025,-2.73437 0,-2.73438 -3e-6,-2.73441 -4.8611349,-2.73441 z m -0.00481,14.63328 c 8.1867809,-0.0641 16.5853159,2.8479 23.5900529,9.47185 3.258794,3.08165 3.365877,3.2767 2.224068,4.04937 -0.65973,0.44645 -7.078806,4.31395 -14.26417,8.59482 -7.185363,4.28089 -13.3074912,8.00186 -13.6054917,8.26845 -0.3047242,0.27261 0.3171641,1.82357 1.4217899,3.54497 2.3286608,3.6289 -0.012421,4.4696 18.2601248,-6.55115 14.933038,-9.00652 13.663212,-8.90956 15.483023,-1.19036 4.250297,18.02882 -7.249113,36.63692 -25.267014,40.88412 -20.6652381,4.87123 -40.5592,-10.04654 -41.701831,-31.27103 -1.136693,-21.11418 15.848529,-35.66003 33.8594481,-35.80104 z" /><path
           style="fill:#000000;stroke-width:2.2966"
           d="M 74.223482,21.642629 C 65.951932,17.481738 57.568779,2.6547565 57.568779,2.5156053 c 0,-23.5841423 25.290774,-31.1046823 46.180841,-13.7324573 12.11736,10.0768428 9.70717,12.07669498 -6.860888,4.9251557 -13.251778,-5.7200717 -12.870067,-6.6239887 -17.365957,-2.3701774 -6.574748,6.2206883 0.261685,8.24436862 10.811681,16.1787105 5.531809,4.1603162 -0.36442,10.5488472 -2.23164,10.4149562 -0.250647,-0.01838 -5.607811,7.871704 -13.879334,3.710836 z"
           id="path24"
           sodipodi:nodetypes="sssssscs" /><path
           style="fill:#000000;stroke-width:2.2966"
           d="M 44.329272,21.987521 C 39.657825,13.320975 39.255267,11.716248 41.148759,9.309066 42.607765,7.4542393 44.728717,6.9651084 47.035633,7.9514534 48.563291,8.6046059 61.023726,28.461847 60.709696,29.374655 c -0.902924,2.624593 -7.996187,6.323613 -8.480505,6.323613 -0.319256,0 -5.489755,-9.239356 -7.899919,-13.710747 z"
           id="path23"
           sodipodi:nodetypes="ssssss" /><path
           style="fill:#000000;stroke-width:2.2966"
           d="M 68.502412,56.923756 C 65.491188,55.94794 63.212258,54.459846 61.030367,52.04477 58.432451,49.169195 53.604525,39.908773 54.333494,39.199536 c 0.752656,-0.732318 8.139116,-4.828718 8.70692,-4.828718 0.271552,0 2.219802,3.076181 4.329431,6.835969 6.436072,11.47037 4.118662,11.065514 26.599293,4.647196 19.127432,-5.46095 20.404642,-5.592269 23.287772,-2.394321 7.48009,8.296908 -3.6151,16.283928 -11.38597,8.196343 -3.96314,-4.12463 -3.25728,-4.170608 -16.376441,1.066972 -11.340175,4.527332 -16.684361,5.596775 -20.992087,4.200779 z"
           id="path22" /><path
           style="fill:#000000;stroke-width:2.2966"
           d="m 88.542042,66.514526 c -0.36906,-1.370536 -0.584668,-2.556778 -0.479163,-2.63611 3.786683,-2.845963 11.428933,-4.196396 13.519791,-2.38899 1.26819,1.096287 3.43669,2.382065 4.81888,2.857272 2.96585,1.019739 3.41993,0.842255 -8.052378,3.14733 -9.511291,1.911068 -9.015436,1.960587 -9.80713,-0.979502 z"
           id="path21" /><path
           style="fill:#000000;stroke-width:2.2966"
           d="M 15.185728,63.107169 C 5.3907052,57.787815 3.4891231,57.255549 3.4921959,56.087956 3.5361292,39.39702 10.727972,25.686013 24.243536,16.526227 c 5.754157,-3.899721 6.276476,-3.942484 6.735321,-0.551391 0.170683,1.261408 5.916685,5.600497 8.667844,10.608212 l 4.245244,7.727266 2.385706,4.204304 c 4.437061,7.819448 -6.070955,11.210367 -7.047903,22.86709 l -1.185021,14.139463 z"
           id="path20"
           sodipodi:nodetypes="ssssscsscs" /><path
           style="fill:#000000;stroke-width:2.2966"
           d="m 136.33514,67.157694 c -8.42331,-11.571019 -8.42331,-11.571019 -7.7637,-14.127683 0.3628,-1.406161 0.74011,-3.100824 0.83847,-3.765919 0.27208,-1.839739 20.58724,23.701986 20.50754,25.783613 -0.0114,0.327138 -4.52148,3.680993 -4.94874,3.680993 -0.1158,0 -4.00074,-5.206938 -8.63357,-11.571004 z"
           id="path19" /><path
           style="fill:#000000;stroke-width:2.2966"
           d="m 121.36755,77.463096 c -4.45453,-6.017395 -8.53189,-11.19382 -9.06078,-11.503152 -0.72581,-0.424477 -0.44007,-0.575045 1.16511,-0.613926 1.16973,-0.02827 3.35724,-0.529694 4.86115,-1.114077 2.73441,-1.062545 2.73441,-1.062545 8.82843,7.172837 10.04194,13.570558 9.277,12.156758 7.39099,13.660614 -5.07443,4.046198 -4.17999,4.561929 -13.1849,-7.602296 z"
           id="path18" /><path
           style="fill:#000000;stroke-width:2.2966"
           d="m 154.7622,92.357955 c -1.05088,-1.527401 -1.81598,-2.849518 -1.70022,-2.938017 3.52306,-2.693753 43.378,-4.588802 45.15244,-2.299206 0.9798,1.264261 -39.02196,9.427965 -41.11525,8.014307 -0.19429,-0.131078 -1.28609,-1.249682 -2.33697,-2.777084 z"
           id="path17" /><path
           style="fill:#000000;stroke-width:2.69065"
           d="m -32.536413,117.36799 c 0,-1.10066 4.701734,-3.99787 6.527834,-4.02245 0.767569,-0.008 11.880531,-0.79733 24.6954652,-1.7489 21.7630538,-1.61601 40.1117098,-0.17431 35.9908008,2.82809 -0.270563,0.19704 -62.252478,3.72614 -66.588568,3.79134 -0.34404,0.004 -0.625532,-0.37646 -0.625532,-0.84808 z"
           id="path16" /><path
           style="fill:#000000;stroke-width:2.2966"
           d="m 75.789779,109.56656 c -0.0043,-5.09661 -0.162377,-9.840292 -0.350584,-10.541517 -0.803745,-2.993919 16.378227,-6.756343 27.959035,-6.122356 15.33481,0.839499 24.29864,5.613037 28.1717,15.002343 0.0948,0.23014 -2.97559,2.7831 -6.82338,5.67323 l -6.996,5.25485 H 96.774309 75.798061 Z"
           id="path15" /><path
           style="fill:#000000;stroke-width:2.2966"
           d="m 144.86235,109.1064 -9.48328,-12.764929 3.34734,-2.222515 c 1.95349,-1.297044 3.55731,-1.991015 3.85158,-1.666576 1.44502,1.593184 18.40627,25.24461 18.21311,25.39705 -0.98554,0.7778 -5.97045,4.02189 -6.18006,4.02189 -0.14607,0 -4.53287,-5.74423 -9.74869,-12.76492 z"
           id="path14" /><path
           style="fill:#000000;stroke-width:2.2966"
           d="m 51.492356,117.98897 c 0,-7.6249 1.07918,-6.77913 -22.116909,-17.33322 C 3.1622336,88.728866 1.3618641,87.059306 1.3618641,74.677546 c 0,-3.397862 0.1880232,-6.365837 0.4178163,-6.595524 0.2297973,-0.229672 13.8989216,5.865413 30.3758326,13.544642 37.055963,17.2703 33.543215,14.125427 33.814809,30.273356 l 0.198388,11.79422 h -7.33817 -7.33817 z"
           id="path13" /><path
           style="fill:#000000;stroke-width:2.2966"
           d="m 75.798061,134.53842 v -5.98303 h 9.722276 9.7223 v 5.98303 5.98306 l -3.190146,-1.10206 c -1.754546,-0.60615 -4.694021,-1.10211 -6.532154,-1.10211 -1.838105,0 -4.77758,0.49596 -6.532155,1.10211 l -3.190121,1.10206 z"
           id="path12" /><path
           style="fill:#000000;stroke-width:2.2966"
           d="M 22.889547,140.88606 C 4.3128377,128.50282 4.3128377,128.50282 -0.06107582,128.13614 -2.4667289,127.9345 -4.3611745,127.69898 -4.2709549,127.61288 c 0.3187967,-0.30427 45.5312439,-3.41569 45.7953989,-3.15155 0.147441,0.14744 0.194662,6.68954 0.104949,14.53801 l -0.163134,14.26995 z"
           id="path11" /><path
           style="fill:#000000;stroke-width:2.2966"
           d="m 81.243695,166.0773 c -6.967239,-3.51339 -6.967239,-13.1968 0,-16.71017 6.243197,-3.14826 13.998942,1.48064 13.998942,8.35509 0,4.51022 -5.212074,9.72228 -9.7223,9.72228 -0.860974,0 -2.78548,-0.61524 -4.276642,-1.3672 z"
           id="path10" /><path
           style="fill:#000000;stroke-width:2.2966"
           d="m 88.558547,179.59733 c 0,-2.26517 0.117372,-2.43057 1.72589,-2.43057 2.518497,0 8.992665,-3.43978 10.708703,-5.68964 3.82942,-5.02063 3.94383,-5.74755 3.95843,-25.14819 l 0.0143,-17.77354 h 4.86112 4.86114 v 20.82314 20.82314 l -5.93538,5.91311 c -6.98895,6.96273 -20.193238,9.23996 -20.193238,3.48255 z"
           id="path9" /><path
           style="fill:#000000;stroke-width:2.2966"
           d="m 51.492356,157.72222 v -24.30571 h 7.291707 7.291708 v 17.66158 c 0,20.61815 -0.650593,18.61249 7.863695,24.24215 10.099675,6.67795 10.064864,6.70767 -7.863695,6.70767 H 51.492356 Z"
           id="path8" /><path
           style="fill:#000000;stroke-width:2.2966"
           d="m 181.89702,158.7956 c -3.96014,-5.42527 -7.30071,-10.14211 -7.42346,-10.48181 -0.20692,-0.57258 5.73629,-4.89233 6.13419,-4.45858 0.89865,0.97962 14.28822,20.22873 14.28822,20.54102 0,0.37863 -5.08552,4.26355 -5.58114,4.26355 -0.11965,0 -3.45764,-4.43886 -7.41781,-9.86418 z"
           id="path7" /><path
           id="path25"
           style="fill:#000000;stroke-width:2.2966"
           d="m 192.46495,118.83312 c -4.86114,0 -4.86114,0 -4.86114,2.73437 0,2.43171 -0.1509,2.7344 -1.3684,2.7344 -1.26177,0 -7.94364,1.76471 -10.25514,2.7083 -0.71053,0.29001 -1.37126,-0.21151 -2.33563,-1.7719 -1.3448,-2.1759 -1.34582,-2.17531 -4.78281,-0.24922 -4.76755,2.67175 -4.77392,2.68078 -3.53072,4.98929 1.70029,3.15724 -7.1739,12.03257 -10.33112,10.3323 -2.30807,-1.243 -2.31888,-1.23546 -4.98574,3.52363 -1.92175,3.42938 -1.92205,3.42907 0.27178,4.72346 1.66188,0.98057 2.08608,1.54821 1.74814,2.34274 -0.91794,2.15837 -2.71184,8.97268 -2.71184,10.30262 0,1.23084 -0.2961,1.38027 -2.73437,1.38027 -2.73441,0 -2.73441,0 -2.73441,4.86113 0,4.86113 0,4.86113 2.73441,4.86113 2.43827,0 2.73437,0.14951 2.73437,1.38025 0,1.31678 1.7948,8.15317 2.6893,10.24448 0.30761,0.7192 -0.17225,1.35947 -1.7517,2.33562 -2.17593,1.34477 -2.17653,1.34466 -0.25044,4.78161 2.67176,4.76759 2.682,4.77394 4.9905,3.53076 3.18895,-1.71737 12.02569,7.17949 10.31213,10.38212 -0.96598,1.80525 -0.9903,2.12637 -0.19107,2.61453 7.39337,4.51596 7.06348,4.43601 8.52003,2.07929 0.96629,-1.5636 1.62733,-2.06557 2.33802,-1.77546 2.31147,0.94356 8.99454,2.70827 10.25631,2.70827 1.21756,0 1.3684,0.30269 1.3684,2.73441 0,2.73438 0,2.73438 4.86114,2.73438 4.86112,0 4.86115,0 4.86115,-2.73438 0,-2.43832 0.15065,-2.73441 1.38143,-2.73441 1.31677,0 8.15194,-1.79479 10.24327,-2.6893 0.71921,-0.30763 1.3595,0.17363 2.33562,1.75292 1.3448,2.1759 1.34466,2.1753 4.78164,0.24923 4.76757,-2.67178 4.77512,-2.68084 3.53192,-4.98931 -1.70029,-3.15724 7.17389,-12.03256 10.3311,-10.33229 2.30849,1.24318 2.31874,1.23683 4.99052,-3.53076 1.92609,-3.43695 1.9255,-3.43684 -0.25044,-4.78161 -1.57939,-0.97615 -2.05935,-1.61642 -1.75173,-2.33562 0.89451,-2.09131 2.68813,-8.9277 2.68813,-10.24448 0,-1.23082 0.29609,-1.38025 2.73439,-1.38025 2.73438,0 2.73439,0 2.73439,-4.86113 0,-4.86113 -10e-6,-4.86113 -2.73439,-4.86113 -2.4383,0 -2.73439,-0.1493 -2.73439,-1.38027 0,-1.31677 -1.79362,-8.15316 -2.68813,-10.24447 -0.30762,-0.71924 0.17226,-1.3595 1.75173,-2.33562 2.17594,-1.3448 2.17653,-1.34466 0.25044,-4.78162 -2.67178,-4.76758 -2.68203,-4.77397 -4.99052,-3.53074 -3.15721,1.70027 -12.03139,-7.17506 -10.3311,-10.3323 1.2432,-2.30851 1.23565,-2.31754 -3.53192,-4.98929 -3.43698,-1.92609 -3.43684,-1.92668 -4.78164,0.24922 -0.97612,1.57941 -1.61641,2.06054 -2.33562,1.75291 -2.09133,-0.89451 -8.9265,-2.68931 -10.24327,-2.68931 -1.23085,0 -1.38143,-0.29612 -1.38143,-2.7344 0,-2.73437 -3e-5,-2.73437 -4.86115,-2.73437 z m -0.68122,14.72227 c 8.7362,-0.24672 17.64662,2.82002 24.61426,9.80417 18.74818,18.7926 9.65167,51.10979 -16.09541,57.1789 -24.45857,5.76541 -46.69578,-16.47183 -40.93041,-40.9304 3.77745,-16.02511 17.85123,-25.64144 32.41156,-26.05267 z" /><circle
           style="fill:#000000;fill-opacity:1;stroke-width:0.294305"
           id="path27-3"
           cx="7.7416716"
           cy="206.33362"
           r="9.5090351" /><circle
           style="fill:#000000;fill-opacity:1;stroke-width:0.294305"
           id="path27-0"
           cx="191.70219"
           cy="167.4445"
           r="9.5090351" /></g></g></g></svg>
