<?xml version="1.0" encoding="UTF-8" standalone="no"?>
<!-- Created with Inkscape (http://www.inkscape.org/) -->

<svg
   width="284.66901mm"
   height="284.66901mm"
   viewBox="0 0 284.66901 284.669"
   version="1.1"
   id="svg1"
   xml:space="preserve"
   inkscape:version="1.3.2 (091e20e, 2023-11-25, custom)"
   sodipodi:docname="horse_riding.svg"
   xmlns:inkscape="http://www.inkscape.org/namespaces/inkscape"
   xmlns:sodipodi="http://sodipodi.sourceforge.net/DTD/sodipodi-0.dtd"
   xmlns="http://www.w3.org/2000/svg"
   xmlns:svg="http://www.w3.org/2000/svg"><sodipodi:namedview
     id="namedview1"
     pagecolor="#ffffff"
     bordercolor="#666666"
     borderopacity="1.0"
     inkscape:showpageshadow="2"
     inkscape:pageopacity="0.0"
     inkscape:pagecheckerboard="0"
     inkscape:deskcolor="#d1d1d1"
     inkscape:document-units="mm"
     inkscape:zoom="0.18284757"
     inkscape:cx="-596.12495"
     inkscape:cy="1134.825"
     inkscape:window-width="1920"
     inkscape:window-height="1017"
     inkscape:window-x="-8"
     inkscape:window-y="-8"
     inkscape:window-maximized="1"
     inkscape:current-layer="g27" /><defs
     id="defs1" /><g
     inkscape:label="Layer 1"
     inkscape:groupmode="layer"
     id="layer1"
     transform="translate(47.797819,-57.484616)"><g
       id="g27"
       transform="translate(-4.4784901,81.079187)"><path
         d="m 237.41264,129.14988 c -2.18304,-4.20252 -4.15731,-8.51256 -5.91449,-12.90856 -0.76735,-1.92493 -1.49259,-4.1165 -0.64949,-6.0091 0.5869,-1.31619 1.90333,-2.43672 1.73775,-3.86696 -0.30319,-2.58516 -4.3638,-4.49499 -5.31437,-7.271573 -0.92909,-2.714159 -1.37648,-5.948795 -1.47754,-8.815697 -0.16744,-4.755262 5.08643,-8.989968 7.90383,-12.383766 -1.9356,-1.049571 -4.3681,-1.129152 -6.36823,-0.208905 -3.02818,1.391545 -5.65634,10.975072 -9.01363,4.682108 -0.26906,-0.503165 -1.01511,-0.858143 -1.38935,-0.427568 -0.90758,-2.841129 -0.6064,-6.047804 0.81513,-8.669541 -1.45388,-0.679556 -3.24974,0.313766 -4.01108,1.727016 -0.76328,1.413003 -0.76571,3.09702 -0.75272,4.703648 0.0407,4.112127 -1.32057,3.223909 -4.5961,2.871124 -3.28195,-0.352784 -6.71232,-0.09267 -10.02232,-0.320269 -7.19842,-0.492596 -14.35593,-1.507623 -21.45112,-2.800242 l -30.34006,2.649698 c -9.77285,1.348465 -20.35644,-4.664874 -31.03905,-11.579438 -0.52429,-0.339777 1.04527,-10.056696 1.1012,-11.250309 0.18289,-3.940124 0.11786,-7.897399 -0.35523,-11.815982 -0.6064,-5.015465 -0.65192,-11.119194 -4.64333,-14.854964 -0.56576,-0.529177 -1.20874,-0.993649 -1.64102,-1.638819 -0.70964,-1.058189 -0.7332,-2.456156 -0.38692,-3.68204 0.13981,-0.492596 0.34627,-0.987144 0.7267,-1.327002 1.34846,-1.20223 4.10352,0.406432 5.46709,-1.382849 0.21541,-0.282065 0.29671,-0.638914 0.37392,-0.985031 0.21541,-0.954955 0.43001,-1.912023 0.64543,-2.866896 0.0966,-0.427568 0.20646,-0.879684 0.52022,-1.185079 0.35522,-0.346281 0.89683,-0.425941 1.29043,-0.726702 0.65841,-0.503164 0.73565,-1.483967 0.50561,-2.279763 -0.22761,-0.795797 -0.69501,-1.505429 -0.93773,-2.296916 -0.417,-1.352772 -0.15039,-2.810972 0.11624,-4.200322 0.0406,-0.202404 0.0838,-0.4170004 0.22759,-0.5657546 0.1138,-0.1162391 0.27313,-0.1739544 0.42758,-0.2276034 1.87756,-0.6535426 3.55085,-0.9441441 5.4736,-1.3420425 2.59157,-0.5356774 5.54446,-2.2088003 5.41758,-4.8519968 -0.0162,-0.2991341 -0.0813,-0.6088361 -0.26662,-0.8409103 -0.5438,-0.662485 -1.59362,-0.2536133 -2.37437,0.099171 -1.8001,0.8172549 -3.92713,0.9957602 -5.83916,0.4519539 -0.48609,-0.1373745 -3.94653,-1.4043898 -3.96808,-1.4990876 -0.65842,-2.8603949 -1.31831,-5.7208704 -1.97648,-8.5812645 -1.82375,-0.8323748 -3.95728,-0.1186785 -5.78972,0.7015033 -3.24537,1.4495839 -6.35962,2.4432313 -9.6136,0.4665852 -1.09257,-0.6649245 -2.363652,-1.4302379 -3.561573,-0.9872258 -1.299042,0.4820294 -1.714172,2.0905286 -1.862521,3.4690682 -0.305636,2.81747446 -0.279624,5.6736417 0.08129,8.4846147 0.04878,0.3909877 0.09672,0.8300971 -0.139814,1.1463024 -0.143876,0.1959008 -0.372292,0.3072632 -0.591766,0.4088717 -3.275525,1.4882764 -12.10203,1.7485572 -11.332083,7.3145761 0.03251,0.225977 11.078307,-0.475527 12.205264,-0.924798 1.004377,1.503315 1.802287,3.202368 2.673354,4.796073 0.08779,0.160946 0.17883,0.337338 0.159321,0.520233 -0.01626,0.176393 -0.137374,0.322709 -0.256052,0.456019 -1.109726,1.249538 -2.651813,2.19799 -3.548648,3.630341 -0.916182,1.462509 -0.412936,3.434683 -1.499087,4.735919 -0.886024,1.062417 -2.664739,1.640932 -3.716424,2.649618 -1.471043,1.408778 -2.802355,3.008906 -3.520684,4.93808 -0.733207,1.965754 -0.778726,4.11432 -0.738084,6.211191 0.09917,5.264933 0.660048,10.540676 0.260118,15.80561 -0.178831,2.357148 -0.305638,5.905797 -1.582895,7.970477 -1.172152,1.892678 -3.383065,1.301234 -1.780826,4.135861 3.639038,6.44562 -5.51871,13.702158 -1.038762,19.672495 l 0.997955,1.337734 c -11.011653,2.860478 -39.932206,-16.048577 -65.474,-0.929107 0,0 -18.362806,8.654427 -18.373536,8.658735 -0.946257,0.445448 -1.9355961,1.604432 -2.8840486,3.006707 -6.7704414,1.57215 -12.9150584,6.24134 -16.7561754,12.16437 -5.198278,8.01575 -6.761825,17.89394 -6.695172,27.4474 0.02438,3.19594 0.208907,6.43919 -0.543807,9.54484 -1.004376,4.13796 -3.580917,7.67799 -5.729486,11.35352 -7.333921,12.55587 -9.663106,29.04965 -2.139951,41.49366 -2.206605,-5.69512 0.761656,-12.03538 4.221864,-17.068 3.460451,-5.0327 7.647849,-10.05677 8.166214,-16.14109 0.638914,6.81776 -1.875444,13.86774 -6.686555,18.74129 10.39867,-5.93815 15.10224,-19.86393 11.187964,-31.04766 1.318387,2.75504 2.84755,5.40685 4.598219,7.90821 0.329212,-9.08248 -3.10344,-17.96271 -2.995897,-27.05161 0.04878,-3.97241 0.855947,-7.89959 2.264644,-11.60311 -1.34635,6.57683 -1.864634,14.50438 1.61305,19.10042 1.182885,1.56362 2.727085,2.81746 3.963779,4.34012 4.2970538,5.2951 4.1809771,13.04626 1.9205583,19.48115 -2.2604173,6.43489 -6.3338513,12.04611 -9.5362183,18.06595 -0.786855,1.48185 -1.533471,3.01744 -1.800174,4.67349 -0.380419,2.35283 0.232481,4.73584 0.629972,7.08656 1.621669,9.62012 -0.739708,21.33716 -5.819796,29.67336 -0.705567,1.15923 -1.55924,2.56792 -0.911871,3.75942 0.586888,1.08176 2.088333,1.2818 2.920626,2.19156 1.030227,1.12485 0.71207,2.92282 0.07316,4.30998 -0.636475,1.38725 -1.544201,2.74002 -1.52266,4.26487 4.854111,1.74425 10.080351,2.44104 15.2227049,2.0281 0.3609122,-1.96356 -0.1918369,-4.07343 -1.4668169,-5.60902 -0.918296,-1.1033 -2.271149,-2.13784 -2.176531,-3.57019 0.18696,-2.82813 2.494849,-5.53163 2.905671,-8.48233 0.496662,-3.58742 0.09673,-7.24582 -0.01626,-10.84607 -0.178831,-5.8177 0.451953,-11.66113 1.8689404,-17.30463 0.4470775,-1.77863 0.9786102,-3.55295 1.8604072,-5.16169 1.4151187,-2.57865 3.6475734,-4.5853 5.6799835,-6.71233 5.6391753,-5.90156 9.002896,-12.57949 12.2461499,-19.94992 0.526737,-1.20012 1.124845,-2.32927 1.836672,-3.36803 0.836683,-1.21514 1.832444,-2.30985 3.073364,-3.25188 0.804737,-0.61046 6.441395,-4.51433 7.385539,-3.90143 -2.727085,-1.77213 -5.099353,-4.08415 -6.942445,-6.76613 3.675536,3.74008 10.131968,2.77017 14.381794,5.5704 4.112126,2.70986 7.112334,9.03299 6.017647,13.93441 -0.0021,0.008 -3.608881,16.14319 -3.608881,16.14319 -1.07534,2.50346 -0.980724,4.66488 0.294258,6.48658 l 12.605274,16.94322 c 3.737965,7.07584 7.998521,13.54308 13.123641,19.00156 -1.466817,2.26896 -2.671239,4.52507 -1.791558,6.66933 3.238947,4.2799 7.314576,7.76188 13.220373,9.4954 0.342217,-6.02415 0.331648,-11.86767 -1.184996,-16.92395 l -4.542295,-6.18331 -0.355222,-4.07343 c -0.05691,-0.67305 -0.361727,-1.2797 -0.849528,-1.75066 -3.61961,-3.48842 -6.944638,-8.31034 -10.086772,-13.94952 l -1.275387,0.92481 c -1.903407,-6.22202 -3.247562,-12.2569 -1.09046,-17.13466 3.049711,-6.74248 6.290851,-13.73654 6.961871,-17.36266 0.909761,-4.91442 0.103228,-10.19219 2.69701,-14.68507 1.35708,-2.35073 3.174404,-4.40458 4.56164,-6.73818 2.088335,-3.51205 3.144329,-7.63069 3.006711,-11.71485 0.146316,7.01129 -1.34635,14.05275 -4.325097,20.40164 0.303198,-0.64542 9.220095,3.95078 10.351359,4.38312 4.649839,1.77863 9.503949,3.33357 14.52803,3.41957 0.256053,0.004 -1.63451,12.94083 -1.896903,14.06568 -0.06503,0.27963 -0.130866,0.57631 -0.03251,0.8452 0.148753,0.41051 0.6129,0.5999 1.025917,0.73972 0.939835,0.32027 1.881867,0.64297 2.821701,0.96349 1.13777,0.38937 2.466886,0.75678 3.471265,0.0992 0.333275,-0.21947 0.595829,-0.53569 0.926992,-0.75923 0.903256,-0.61046 2.109793,-0.42595 3.159365,-0.1333 1.559246,0.43406 3.073366,1.0538 4.669186,1.3248 1.59582,0.2707 3.34438,0.15282 4.66699,-0.78034 0.81514,-0.5747 1.42382,-1.75499 0.81303,-2.54216 -0.35279,-0.45602 -0.97429,-0.58526 -1.53347,-0.7267 -1.04096,-0.26255 -2.09264,-0.69664 -2.76797,-1.53128 -1.9808,-2.43675 0.67549,-4.38103 -0.0651,-6.38548 -0.69012,-1.86033 -5.834915,-3.12497 -7.391959,-4.40468 4.223979,1.0625 8.321069,1.38935 12.583739,1.78084 3.14433,0.29018 6.78979,0.19752 9.74919,1.39577 -0.56982,-2.93998 -0.59827,-5.98538 -0.0813,-8.93615 0.0406,2.07109 0.45358,4.13576 1.20443,6.06714 1.57435,4.04758 1.38723,6.25858 -0.20403,10.18358 -1.34205,3.30569 -2.95079,6.44782 -4.11432,9.8395 -2.8196,8.22003 -4.57457,16.80348 -6.02847,25.35687 -0.67305,3.95296 -3.80893,9.04581 -6.0048,12.33857 -1.20434,1.80447 -2.2948,3.95947 -1.75929,6.06285 0.52918,2.0776 2.58947,3.92508 1.9378,5.96611 -0.50968,1.59362 -2.37439,2.21733 -3.67765,3.26902 -1.729215,1.39585 -2.529237,3.8455 -1.95503,5.99187 6.52097,1.47113 13.33223,1.65826 19.92416,0.54381 -0.5438,-2.29911 -1.86895,-4.40678 -3.70569,-5.89505 -0.99356,-0.80475 -2.14637,-1.44958 -2.90129,-2.47983 -3.55726,-4.85841 2.35504,-14.6011 4.34444,-19.10039 1.39579,-3.15937 2.86903,-6.29085 4.5337,-9.31692 1.26676,-2.3012 3.42825,-4.56805 4.43693,-6.93602 3.94435,-9.24374 9.78138,-17.46369 17.18627,-24.8363 9.89113,12.30418 19.66826,24.18464 28.01941,30.83681 4.83483,9.68464 9.67822,19.69402 14.40334,24.06643 -1.16144,3.82827 -1.25386,7.16826 0.83017,9.51468 l 15.97112,0.59584 c -11.05898,-13.43757 -20.90701,-26.4623 -24.79762,-37.45021 0.90756,-3.95947 -1.04097,-7.9878 -4.85199,-12.05902 L 158.00435,163.3891 c 5.28647,-2.40023 7.39636,-8.59858 5.72949,-19.31336 5.50367,-11.17936 14.90658,-19.88329 27.1463,-26.79143 l 8.25872,-0.7202 0.48611,5.56601 c 4.86703,5.92734 12.14722,11.62024 21.21458,17.14117 l 0.58038,6.64354 c 5.02189,1.44309 10.00508,2.74432 13.91723,-0.13091 1.89691,-3.3508 5.24981,-6.16826 4.59174,-10.33412 -0.35686,-2.23247 -1.47324,-4.27779 -2.52275,-6.29728 z"
         id="path12"
         style="stroke-width:2.1507" /></g></g></svg>
