<?xml version="1.0" encoding="UTF-8" standalone="no"?>
<!-- Created with Inkscape (http://www.inkscape.org/) -->

<svg
   width="37.420853mm"
   height="48.353157mm"
   viewBox="0 0 37.420853 48.353157"
   version="1.1"
   id="svg1"
   xml:space="preserve"
   inkscape:version="1.3.2 (091e20e, 2023-11-25, custom)"
   sodipodi:docname="ice_climbing_2.svg"
   xmlns:inkscape="http://www.inkscape.org/namespaces/inkscape"
   xmlns:sodipodi="http://sodipodi.sourceforge.net/DTD/sodipodi-0.dtd"
   xmlns="http://www.w3.org/2000/svg"
   xmlns:svg="http://www.w3.org/2000/svg"><sodipodi:namedview
     id="namedview1"
     pagecolor="#ffffff"
     bordercolor="#666666"
     borderopacity="1.0"
     inkscape:showpageshadow="2"
     inkscape:pageopacity="0.0"
     inkscape:pagecheckerboard="0"
     inkscape:deskcolor="#d1d1d1"
     inkscape:document-units="mm"
     inkscape:zoom="0.73139029"
     inkscape:cx="-62.893917"
     inkscape:cy="166.12198"
     inkscape:window-width="1920"
     inkscape:window-height="1017"
     inkscape:window-x="-8"
     inkscape:window-y="-8"
     inkscape:window-maximized="1"
     inkscape:current-layer="layer1" /><defs
     id="defs1" /><g
     inkscape:label="Layer 1"
     inkscape:groupmode="layer"
     id="layer1"
     transform="translate(-91.359658,-86.587992)"><path
       id="path1"
       style="fill:#000000"
       d="m 120.91537,86.587992 c -0.56316,0.920432 -1.10014,1.5452 -2.00194,2.482019 -1.05062,1.091402 -2.53959,2.647928 -3.30885,3.45922 l -1.39888,1.475362 0.65423,4.186307 0.65422,4.18631 -1.37046,1.55959 -1.37046,1.56011 -0.0816,-1.0759 c -0.0703,-0.92614 -0.22656,-1.16811 -1.11931,-1.73168 -1.20351,-0.75973 -1.46434,-0.80058 -1.67121,-0.26148 -0.096,0.25018 0.10512,0.52786 0.55242,0.76223 l 0.70331,0.36845 -1.10277,0.56276 c -1.46055,0.74512 -2.83207,1.97223 -3.21014,2.87269 -0.40804,0.97183 -5.26893,3.73349 -5.62395,3.19515 -0.12673,-0.19215 -0.4764,-0.73692 -0.77721,-1.21077 -0.561985,-0.88523 -0.615377,-0.88591 -1.865525,-0.0212 -0.386268,0.26718 -0.912835,0.48576 -1.169954,0.48576 -0.689068,0 -1.435055,-0.78454 -1.435055,-1.50895 0,-0.60251 1.129431,-1.93064 1.641761,-1.93064 0.13286,0 0.167972,-0.11906 0.07803,-0.26458 -0.323803,-0.52392 -1.870538,-0.28771 -2.499589,0.38189 -0.516488,0.54978 -0.659743,1.14696 -0.95498,3.9827 -0.191019,1.83473 -0.609312,4.21877 -0.929659,5.29787 -0.553108,1.86314 -0.560077,1.99663 -0.134359,2.64635 0.246567,0.37631 0.633575,0.75501 0.859896,0.84181 0.364013,0.13968 5.556247,-0.51134 7.187674,-0.90124 l 0.61857,-0.14779 -0.0816,3.98425 c -0.0735,3.59238 -0.0324,4.0382 0.41496,4.53254 0.27288,0.30153 0.77704,0.54829 1.12035,0.54829 h 0.62425 l -0.63356,0.99218 c -0.34826,0.54571 -0.84801,1.61343 -1.11104,2.37299 -0.43625,1.25974 -0.58253,1.41676 -1.6645,1.78542 -0.652358,0.22229 -1.220354,0.36973 -1.262454,0.32763 -0.04205,-0.042 0.391301,-1.36583 0.963254,-2.94143 0.94781,-2.61106 1.05188,-3.15987 1.17408,-6.19807 0.13211,-3.2846 0.12396,-3.34325 -0.53175,-4.02766 -0.62811,-0.65561 -0.75023,-0.68191 -2.177125,-0.47025 -3.070559,0.45544 -2.985836,0.31611 -1.254187,2.06602 l 1.532206,1.54874 -1.754415,4.85449 c -0.965097,2.66983 -1.754931,4.98604 -1.754931,5.14697 0,0.16093 0.237341,0.59423 0.527616,0.96325 l 0.528133,0.67127 -0.991154,0.86248 c -0.03543,0.0309 -0.0459,0.0406 -0.08061,0.0708 0.212753,5.8e-4 0.425627,0.005 0.638204,0.0109 1.544704,-1.32424 2.226079,-1.70843 3.762561,-2.22105 l 2.077912,-0.6935 0.74362,-1.83813 c 0.51971,-1.28472 1.50678,-2.79229 3.27939,-5.00796 1.73674,-2.17083 2.99539,-4.08384 3.99304,-6.06992 l 1.45676,-2.90008 -0.12041,-2.25929 c -0.11077,-2.07994 -0.0409,-2.49583 0.87798,-5.23637 0.84761,-2.5279 1.20698,-3.21633 2.3828,-4.5682 l 1.38441,-1.59215 -0.61443,-4.20956 -0.61443,-4.209049 3.31814,-3.506762 3.31815,-3.506246 0.24649,-0.534851 z m 3.34605,0 -0.54364,1.82056 -2.76055,2.782259 c -1.51811,1.530343 -2.76004,2.879893 -2.76004,2.998784 0,0.45461 0.57145,-0.04962 3.18844,-2.815332 l 2.70164,-2.85564 0.59118,-1.930631 z m 3.94963,0 c 0.0247,6.068403 0.0403,14.533808 0.0403,24.045558 v 24.11739 c 0.17637,0.0118 0.35277,0.0231 0.52916,0.0346 V 110.51211 86.587992 Z m -21.29379,2.495454 -1.33791,0.15813 c -1.16713,0.138226 -1.32101,0.225433 -1.20199,0.680579 0.10687,0.408664 0.29309,0.490702 0.85783,0.377755 l 0.72088,-0.144178 -0.62011,1.507402 c -0.60575,1.472825 -0.78114,3.042124 -0.47026,4.201294 0.0953,0.355212 0.2973,0.522712 0.52555,0.435112 0.25534,-0.098 0.37052,-0.59211 0.37052,-1.586463 0,-0.882501 0.21705,-1.948622 0.55811,-2.741435 l 0.5581,-1.297078 0.84543,0.644922 c 0.46489,0.354583 1.3118,0.839187 1.88206,1.077453 1.01755,0.425161 1.002,0.398466 -0.82579,-1.440222 z m 18.43402,2.241724 c -0.10251,-0.06336 -0.79251,1.46277 -1.53324,3.391008 -1.3083,3.405672 -1.35189,3.607492 -1.52084,7.065722 -0.0957,1.95798 -0.40205,5.40545 -0.6811,7.66103 -0.27905,2.25555 -0.5077,4.23892 -0.50798,4.40748 -2.8e-4,0.16857 -0.54247,0.97198 -1.20509,1.78542 l -1.20509,1.47898 1.24746,4.69635 1.24747,4.69636 -1.73374,3.30781 -1.73426,3.30781 -1.63918,1.27124 c 0.15834,0.0427 0.31605,0.088 0.47594,0.12402 0.0312,0.007 0.11079,-0.008 0.1757,-0.0186 l 1.12706,-0.8475 1.88981,-3.54035 1.88929,-3.54035 -1.19372,-4.44469 c -0.65671,-2.44446 -1.19425,-4.58527 -1.19425,-4.75733 0,-0.17207 0.48005,-0.88589 1.06661,-1.58647 l 1.0666,-1.27383 0.65215,-5.11286 c 0.35872,-2.81212 0.65543,-6.36302 0.66043,-7.89099 0.008,-2.71828 0.0385,-2.85691 1.42213,-6.421833 0.77777,-2.003873 1.33035,-3.695067 1.22784,-3.758427 z m -9.46558,3.846277 c -0.15733,0.01675 0.0591,1.588533 0.67696,4.925283 l 0.49868,2.69182 -1.54874,1.89549 c -0.8518,1.0425 -1.54874,1.94473 -1.54874,2.00453 0,0.0598 0.10058,0.10852 0.22324,0.10852 0.30731,0 3.21634,-3.70831 3.21634,-4.1 0,-0.69959 -1.31261,-7.354334 -1.48105,-7.50859 -0.0138,-0.01264 -0.0262,-0.01817 -0.0367,-0.01705 z m -9.47694,1.350823 c -0.10053,-0.0103 -0.21142,-0.008 -0.33383,0.006 -0.62075,0.0717 -0.93529,0.52288 -2.50631,3.59358 l -1.79627,3.5109 -2.629298,1.75028 c -2.860471,1.90449 -3.325695,2.55094 -2.385901,3.31194 0.698656,0.56574 0.640788,0.59036 4.338759,-1.87017 l 2.60966,-1.73633 1.81642,-3.8039 c 1.47882,-3.09742 1.76473,-3.90024 1.53945,-4.32118 -0.14315,-0.26751 -0.3511,-0.41054 -0.65268,-0.44132 z m -11.310939,0.65681 c -1.971961,0.0198 -3.769234,1.5819 -3.737756,3.75274 0.01043,0.71928 0.217427,1.54339 0.49351,1.96474 0.261517,0.39913 0.557547,0.72553 0.657841,0.72553 0.100294,0 0.723679,-0.34358 1.385445,-0.76326 0.866519,-0.54953 1.248244,-0.98727 1.363741,-1.56476 0.124364,-0.62182 0.461879,-0.9664 1.504301,-1.53376 1.543845,-0.84027 1.610009,-1.28854 0.30179,-2.05258 -0.634943,-0.37083 -1.311551,-0.53524 -1.968872,-0.52865 z m 1.211296,0.90072 c 0.301717,0.0186 0.721403,0.26938 0.721403,0.50694 0,0.15009 -0.171679,0.27285 -0.381372,0.27285 -0.421383,0 -0.814091,-0.47988 -0.582394,-0.71158 0.05441,-0.0544 0.14179,-0.0744 0.242363,-0.0682 z m 10.663433,1.13688 c -0.0652,0.0251 -0.12924,0.15219 -0.22376,0.3607 -0.1869,0.41226 -0.16711,0.82348 0.0672,1.38906 h 5.2e-4 c 0.18304,0.44189 0.44066,0.80357 0.57309,0.80357 0.47216,0 0.4988,-0.70535 0.0651,-1.73374 -0.26134,-0.61973 -0.3734,-0.8614 -0.48214,-0.81959 z m -9.010821,0.4284 c -0.275051,8.2e-4 -0.638145,0.15723 -1.129647,0.4501 -0.618462,0.36852 -1.124479,0.83428 -1.124479,1.03456 0,0.20028 0.319197,1.0144 0.709001,1.80919 0.583251,1.18924 0.78781,1.40266 1.156002,1.20561 0.736636,-0.39424 1.386769,-2.06277 1.215429,-3.11867 -0.154362,-0.95122 -0.367888,-1.38217 -0.826306,-1.38079 z m -2.529561,2.65358 -1.081071,0.71572 -1.081588,0.71572 0.587044,0.4749 c 0.53051,0.42959 2.6448,0.69519 2.6448,0.33228 0,-0.0786 -0.240294,-0.61425 -0.534334,-1.19062 z m 16.008842,2.1084 0.37879,1.36167 c 0.3609,1.29732 0.34518,1.46444 -0.33693,3.55896 -0.59206,1.81798 -0.70846,2.6256 -0.67386,4.67207 0.0415,2.45682 0.0328,2.49189 -1.21284,4.97799 -0.68994,1.37698 -1.96022,3.38961 -2.82257,4.47259 l -1.56787,1.96939 0.18449,-4.77335 c 0.1015,-2.62527 0.1043,-5.09341 0.006,-5.48442 -0.27541,-1.09734 -1.14047,-1.2792 -3.93103,-0.82786 -1.32887,0.21493 -2.428045,0.36288 -2.442745,0.32918 -0.01472,-0.0337 0.100832,-0.70428 0.256832,-1.49035 l 0.283187,-1.42937 0.459916,0.70177 c 0.62279,0.9505 1.23015,0.88613 3.35794,-0.35657 0.99666,-0.58208 1.86802,-1.05833 1.93632,-1.05833 0.0683,0 3e-5,0.48804 -0.15142,1.08469 -0.21923,0.8638 -0.20006,1.13124 0.0925,1.31206 0.48894,0.30218 0.61009,0.11152 1.01958,-1.603 0.19115,-0.80037 0.58182,-1.67914 0.86816,-1.95286 0.37133,-0.3546 0.47805,-0.70926 0.3731,-1.23403 -0.20885,-1.04425 0.72769,-2.31513 2.48047,-3.36568 z m 2.56832,4.77128 c -0.12064,0 -0.49672,0.59214 -0.83561,1.31569 l -0.6165,1.31516 0.43874,2.64118 c 0.56959,3.42972 0.5573,3.77057 -0.19017,5.25395 -1.42584,2.82964 -2.61269,6.57026 -3.06183,9.6485 -0.24948,1.71 -0.39454,3.16855 -0.32194,3.24115 0.21842,0.21842 0.24375,0.11192 0.69711,-2.97656 0.48,-3.26996 1.09556,-5.29189 2.76779,-9.08989 l 1.10588,-2.51251 -0.51418,-3.02927 -0.5147,-3.02927 0.632,-1.24799 c 0.69419,-1.36993 0.73781,-1.53014 0.41341,-1.53014 z m -7.54889,20.59616 c -0.1483,0.0694 -0.64597,0.79926 -1.20148,1.7756 -0.90821,1.59628 -1.28307,2.09879 -2.7895,2.99517 0.3086,-0.0143 0.61755,-0.0278 0.92656,-0.0372 0.91071,-0.58242 1.21594,-1.04328 2.02107,-2.43241 0.64521,-1.11319 1.13329,-2.14337 1.08469,-2.28926 -0.006,-0.0182 -0.0202,-0.0218 -0.0413,-0.0119 z" /></g></svg>
