<?xml version="1.0" encoding="UTF-8" standalone="no"?>
<!-- Created with Inkscape (http://www.inkscape.org/) -->

<svg
   width="284.66901mm"
   height="284.66901mm"
   viewBox="0 0 284.66901 284.669"
   version="1.1"
   id="svg1"
   xml:space="preserve"
   inkscape:version="1.3.2 (091e20e, 2023-11-25, custom)"
   sodipodi:docname="mountain_bike.svg"
   xmlns:inkscape="http://www.inkscape.org/namespaces/inkscape"
   xmlns:sodipodi="http://sodipodi.sourceforge.net/DTD/sodipodi-0.dtd"
   xmlns="http://www.w3.org/2000/svg"
   xmlns:svg="http://www.w3.org/2000/svg"><sodipodi:namedview
     id="namedview1"
     pagecolor="#ffffff"
     bordercolor="#666666"
     borderopacity="1.0"
     inkscape:showpageshadow="2"
     inkscape:pageopacity="0.0"
     inkscape:pagecheckerboard="0"
     inkscape:deskcolor="#d1d1d1"
     inkscape:document-units="mm"
     inkscape:zoom="0.25858552"
     inkscape:cx="224.29717"
     inkscape:cy="303.57462"
     inkscape:window-width="1920"
     inkscape:window-height="1017"
     inkscape:window-x="-8"
     inkscape:window-y="-8"
     inkscape:window-maximized="1"
     inkscape:current-layer="g27" /><defs
     id="defs1"><path
       id="SVGID_1_"
       d="m 468.373,738.907 c 7.273,11.213 10.962,22.708 10.962,34.161 0,11.453 -3.689,22.948 -10.962,34.161 -8.287,12.78 -21.245,25.127 -37.468,35.702 -18.073,11.788 -39.449,21.13 -63.536,27.776 -25.785,7.111 -53.311,10.716 -81.807,10.716 -28.497,0 -56.022,-3.605 -81.808,-10.716 -24.087,-6.646 -45.463,-15.988 -63.536,-27.776 -16.224,-10.575 -29.182,-22.922 -37.468,-35.702 -7.273,-11.213 -10.962,-22.708 -10.962,-34.161 0,-11.453 3.689,-22.948 10.962,-34.161 8.287,-12.78 21.245,-25.127 37.468,-35.702 18.073,-11.788 39.449,-21.13 63.536,-27.776 25.785,-7.111 53.311,-10.716 81.808,-10.716 28.497,0 56.022,3.605 81.807,10.716 24.087,6.646 45.463,15.988 63.536,27.776 16.224,10.575 29.181,22.922 37.468,35.702 z" /><path
       id="SVGID_1_-2"
       d="m 468.373,738.907 c 7.273,11.213 10.962,22.708 10.962,34.161 0,11.453 -3.689,22.948 -10.962,34.161 -8.287,12.78 -21.245,25.127 -37.468,35.702 -18.073,11.788 -39.449,21.13 -63.536,27.776 -25.785,7.111 -53.311,10.716 -81.807,10.716 -28.497,0 -56.022,-3.605 -81.808,-10.716 -24.087,-6.646 -45.463,-15.988 -63.536,-27.776 -16.224,-10.575 -29.182,-22.922 -37.468,-35.702 -7.273,-11.213 -10.962,-22.708 -10.962,-34.161 0,-11.453 3.689,-22.948 10.962,-34.161 8.287,-12.78 21.245,-25.127 37.468,-35.702 18.073,-11.788 39.449,-21.13 63.536,-27.776 25.785,-7.111 53.311,-10.716 81.808,-10.716 28.497,0 56.022,3.605 81.807,10.716 24.087,6.646 45.463,15.988 63.536,27.776 16.224,10.575 29.181,22.922 37.468,35.702 z" /></defs><g
     inkscape:label="Layer 1"
     inkscape:groupmode="layer"
     id="layer1"
     transform="translate(47.797819,-57.484616)"><g
       id="g27"
       transform="translate(-4.4784901,81.079187)"><g
         inkscape:label="Layer 1"
         id="layer1-6"
         transform="matrix(1.8726759,0,0,1.8726759,-239.86015,-63.950803)"><g
           id="Guides_For_Artboard"
           transform="matrix(0.26458333,0,0,0.26458333,-493.70926,-133.57392)">
</g><g
           id="g2"
           transform="matrix(0.05498269,0,0,0.05498269,100.6243,18.404601)">
		<path
   d="m 425.239,2200.174 c 0.649,-3.39 1.179,-6.156 1.823,-9.521 -3.898,-1.897 -7.48,-3.641 -11.02,-5.364 -1.004,0.822 -1.847,1.234 -2.281,1.909 -4.342,6.745 -4.875,7.181 -11.709,4.266 -6.128,-2.613 -12.051,-5.744 -17.913,-8.924 -2.69,-1.459 -3.924,-3.91 -3.776,-7.308 0.183,-4.18 -6.392,-12.055 -10.41,-11.944 -2.423,0.067 -5.177,2.088 -7.09,3.944 -4.869,4.722 -4.608,4.729 -9.876,1.128 -4.325,-2.956 -8.873,-5.608 -13.443,-8.18 -6.107,-3.438 -6.157,-3.349 -4.744,-10.005 1.28,-6.029 -9.672,-16.74 -15.513,-14.674 -2.738,0.969 -4.803,3.841 -7.583,6.197 -6.698,-3.261 -12.555,-7.938 -18.168,-12.967 -1.087,-0.974 -2.088,-2.044 -3.131,-3.067 -7.013,-6.876 -7.013,-6.875 -1.488,-16.019 -3.185,-3.827 -6.554,-8.101 -10.175,-12.149 -2.512,-2.808 -5.012,-1.608 -7.701,0.296 -6.572,4.655 -7.004,4.642 -12.303,-0.866 -6.829,-7.098 -13.447,-14.4 -20.594,-22.086 2.502,-3.037 4.674,-5.673 7.195,-8.735 -2.233,-5.834 -6.265,-10.471 -11.289,-14.786 -1.555,0.812 -2.852,1.405 -4.064,2.138 -7.649,4.627 -8.572,4.414 -14.27,-2.873 -4.136,-5.29 -8.368,-10.506 -12.593,-15.726 -4.643,-5.736 -4.527,-6.663 1.536,-11.803 0.868,-0.736 1.592,-1.641 2.949,-3.059 -1.518,-3.278 -2.735,-6.857 -4.711,-9.952 -3.097,-4.85 -4.959,-4.966 -10.002,-1.675 -1.664,1.085 -3.375,2.1 -5.764,3.579 -1.996,-2.437 -3.952,-4.499 -5.532,-6.817 -3.941,-5.782 -7.696,-11.691 -11.554,-17.531 -3.137,-4.749 -2.456,-8.679 2.246,-11.932 1.39,-0.962 2.982,-1.632 4.352,-2.366 -0.859,-7.977 -1.649,-9.45 -7.389,-14.113 -12.518,4.947 -12.512,4.945 -18.747,-8.122 -1.383,-2.899 -2.843,-5.762 -4.221,-8.664 -3.492,-7.353 -2.943,-9.081 4.146,-13.394 0.984,-0.599 1.935,-1.255 2.869,-1.93 0.214,-0.155 0.29,-0.498 0.695,-1.242 -0.464,-4.327 -1.565,-8.67 -5.869,-11.031 -1.018,0 -1.699,-0.21 -2.126,0.031 -8.329,4.695 -9.773,4.07 -12.724,-5.005 -1.713,-5.27 -3.764,-10.43 -5.68,-15.634 -2.444,-6.639 -2.086,-7.347 4.994,-9.867 0.811,-0.289 1.577,-0.707 2.952,-1.333 0.148,-2.029 0.664,-4.323 0.411,-6.529 -0.672,-5.865 -3.089,-7.629 -8.828,-6.818 -1.141,0.161 -2.257,0.577 -3.353,0.964 -3.551,1.253 -5.714,-0.24 -6.623,-3.589 -1.982,-7.307 -3.831,-14.652 -5.677,-21.996 -0.825,-3.284 0.048,-5.451 3.628,-6.719 7.408,-2.624 7.568,-3.188 5.742,-10.524 -0.493,-1.981 -1.057,-3.949 -1.686,-5.891 -0.166,-0.514 -0.697,-0.909 -1.062,-1.357 -0.266,-0.123 -0.522,-0.339 -0.794,-0.361 -11.32,-0.954 -11.413,-0.935 -13.462,-12.369 -1.166,-6.505 -1.971,-13.076 -2.988,-19.953 2.759,-0.718 4.68,-1.199 6.591,-1.72 5.412,-1.474 6.553,-3.115 5.956,-8.762 -0.153,-1.446 -0.558,-2.866 -0.854,-4.297 -0.407,-1.972 -0.819,-3.943 -1.357,-6.528 -3.851,0 -7.491,0 -11.743,0 -0.717,-2.625 -1.655,-4.739 -1.823,-6.914 -0.586,-7.572 -1.078,-15.161 -1.277,-22.751 -0.201,-7.645 -0.03,-7.651 7.466,-8.706 0.867,-0.122 1.743,-0.188 2.604,-0.336 0.268,-0.046 0.505,-0.276 0.756,-0.422 2.589,-6.363 2.654,-7.668 0.782,-15.734 -0.484,-0.307 -0.953,-0.851 -1.455,-0.883 -9.108,-0.581 -9.45,0.236 -9.909,-10.296 -0.316,-7.241 0.576,-14.57 1.343,-21.815 0.782,-7.38 1.005,-7.349 8.716,-7.678 1.141,-0.049 2.277,-0.194 4.49,-0.389 0.716,-5.082 1.804,-10.14 2.022,-15.236 0.157,-3.683 -2.848,-4.297 -6.109,-4.621 -6.049,-0.601 -6.563,-1.203 -5.784,-6.975 1.094,-8.098 2.64,-16.133 3.925,-24.206 0.594,-3.731 2.338,-5.518 6.44,-5.447 8.551,0.149 9.874,-1.31 9.958,-9.858 0.019,-1.986 -0.366,-3.977 -0.569,-6.007 -3.84,-1.2 -7.352,-2.297 -11.99,-3.745 2.607,-9.275 4.748,-17.962 7.527,-26.44 2.225,-6.787 2.913,-6.848 10.32,-5.449 0.845,0.16 1.709,0.219 2.517,0.318 3.959,-5.67 3.959,-5.67 3.993,-15.092 -1.335,-0.609 -2.856,-1.345 -4.409,-2.004 -3.332,-1.414 -4.249,-4.097 -3.102,-7.176 3.051,-8.193 6.31,-16.311 9.633,-24.398 1.442,-3.508 4.06,-4.686 7.812,-3.294 2.12,0.787 4.402,1.139 7.416,1.887 1.985,-4.768 3.848,-9.242 5.788,-13.902 -1.262,-1.325 -2.108,-2.507 -3.219,-3.33 -6.488,-4.804 -6.751,-4.877 -3.774,-11.977 2.702,-6.447 5.97,-12.659 9.062,-18.939 1.646,-3.343 4.34,-4.602 7.977,-3.488 1.917,0.587 3.807,1.263 6.79,2.26 2.354,-4.758 4.891,-9.253 6.738,-14.015 0.534,-1.377 -0.479,-3.866 -1.558,-5.236 -1.554,-1.974 -3.815,-3.391 -6.681,-5.811 5.986,-8.467 11.606,-16.545 17.38,-24.511 1.921,-2.65 4.307,-1.993 6.981,-0.671 6.733,3.327 6.794,3.2 11.083,-2.835 2.351,-3.308 4.706,-6.613 7.104,-9.981 -0.701,-1.282 -1.026,-2.547 -1.837,-3.254 -7.401,-6.449 -5.048,-9.292 -0.256,-15.535 3.376,-4.399 7.048,-8.57 10.457,-12.944 4.114,-5.277 5.523,-5.739 11.812,-3.217 1.067,0.428 2.07,1.012 4.131,2.033 4.423,-4.664 9.046,-9.419 13.519,-14.312 1.935,-2.116 2.524,-4.685 0.702,-7.212 -3.608,-5.005 -1.16,-8.798 2.403,-12.304 4.159,-4.093 8.455,-8.046 12.656,-12.095 3.992,-3.848 5.376,-4.04 9.81,-1.056 0.965,0.649 1.777,1.52 2.71,2.22 0.922,0.691 1.909,1.296 3.537,2.388 2.596,-2.192 5.268,-4.347 7.828,-6.629 6.402,-5.706 6.203,-5.654 2.901,-13.515 -0.731,-1.739 -0.536,-5.117 0.644,-6.196 5.578,-5.102 11.487,-9.894 17.667,-14.243 1.322,-0.93 4.51,-0.055 6.397,0.88 2.265,1.123 4.056,3.2 6.526,5.26 3.189,-2.223 6.236,-4.402 9.34,-6.498 4.051,-2.736 6.491,-5.781 3.408,-10.884 -2.358,-3.902 0.049,-6.594 3.023,-8.886 0.924,-0.713 1.86,-1.422 2.853,-2.032 5.447,-3.343 10.914,-6.655 17.23,-10.498 3.398,3.534 6.725,6.994 10.753,11.183 4.45,-3.326 8.967,-6.701 13.2,-9.865 -3.758,-10.665 -3.753,-10.656 5.258,-15.703 3.813,-2.135 7.54,-4.431 11.413,-6.449 7.148,-3.725 9.924,-2.865 14.23,4.099 0.448,0.725 0.96,1.41 1.949,2.854 4.937,-1.974 10.128,-3.667 14.874,-6.195 1.32,-0.703 2.005,-3.947 1.809,-5.909 -0.774,-7.772 -0.96,-7.79 6.429,-10.574 4.909,-1.85 9.824,-3.698 14.806,-5.337 7.383,-2.43 8.651,-1.762 11.798,5.613 0.439,1.028 0.806,2.087 1.544,4.009 2.969,-0.934 5.616,-1.88 8.325,-2.584 2.507,-0.651 5.081,-1.043 8.387,-1.7 0.252,-2.905 0.745,-5.721 0.681,-8.524 -0.094,-4.126 1.396,-6.517 5.642,-7.452 5.951,-1.31 11.771,-3.204 17.709,-4.581 3.888,-0.902 6.885,0.192 7.914,4.65 0.449,1.947 1.417,3.773 2.263,5.945 2.721,0 5.277,0.157 7.809,-0.028 9.497,-0.695 9.577,-0.727 10.701,-10.036 0.4,-3.316 1.689,-5.531 5.15,-6.043 6.64,-0.982 13.261,-2.149 19.931,-2.847 7.865,-0.823 8.158,-0.466 10.471,7.063 0.426,1.387 0.747,2.806 1.24,4.68 5.481,-0.365 10.916,-0.728 17.237,-1.149 0.729,-2.153 1.733,-4.499 2.304,-6.946 0.952,-4.081 3.442,-5.833 7.512,-5.842 6.137,-0.014 12.275,-0.233 18.411,-0.193 8.429,0.055 8.586,0.252 10.593,8.311 0.278,1.115 0.617,2.215 1.172,4.19 6.179,0.377 12.472,0.761 18.293,1.116 0.946,-0.832 1.641,-1.138 1.772,-1.603 3.061,-10.862 3.054,-10.916 14.694,-9.902 4.649,0.405 9.322,0.836 13.901,1.698 7.914,1.489 7.867,1.635 8.317,9.448 0.082,1.418 0.397,2.823 0.672,4.692 6.13,0.664 12.084,1.31 18.601,2.016 0.737,-1.747 1.626,-3.505 2.232,-5.354 2.486,-7.59 3.564,-8.224 11.44,-6.202 5.358,1.375 10.673,2.923 16.051,4.211 4.375,1.048 6.888,3.145 5.422,8.024 -1.491,4.961 0.914,7.023 5.509,7.688 2.012,0.291 4.006,0.857 5.942,1.497 4.265,1.412 7.636,0.588 9.018,-3.982 1.606,-5.308 5.241,-5.747 9.62,-4.42 4.745,1.438 9.427,3.097 14.098,4.767 8.976,3.209 8.965,3.24 5.664,13.545 2.969,1.656 6.054,3.698 9.391,5.164 4.842,2.126 7.143,1.578 10.051,-3.295 2.456,-4.116 5.42,-4.991 9.468,-3.397 5.428,2.137 10.822,4.373 16.155,6.737 2.567,1.138 4.061,2.881 3.404,6.211 -1.653,8.376 -1.513,8.412 6.394,11.934 1.303,0.581 2.653,1.058 3.7,1.471 0.935,-0.388 1.625,-0.466 1.976,-0.852 8.21,-9.012 8.197,-9.009 18.78,-2.828 1.51,0.882 3.108,1.613 4.654,2.433 6.952,3.687 6.985,3.7 4.442,11.711 -1.026,3.232 -0.445,5.782 2.724,7.358 3.533,1.756 6.744,4.848 11.203,1.655 8.668,-6.207 8.81,-6.107 17.479,0.594 0.925,0.715 1.841,1.441 2.746,2.181 2.451,2.005 5.932,3.588 7.006,6.17 0.847,2.037 -1.182,5.34 -2.101,8.023 -1.138,3.319 0.021,5.793 2.765,7.512 3.014,1.888 6.199,3.706 9.489,0.379 1.232,-1.246 2.231,-3.019 3.717,-3.642 1.893,-0.794 4.494,-1.474 6.226,-0.785 5.216,2.075 13.702,9.892 17.986,15.793 -1.605,2.364 -3.337,4.917 -5.603,8.255 1.951,2.536 3.869,5.345 6.112,7.864 2.886,3.242 6.012,3.856 10.029,1.22 6.086,-3.993 6.06,-3.469 12.605,0.907 6.277,4.197 10.237,10.137 15.366,17.468 -3.26,2.074 -6.446,4.102 -9.674,6.155 3.865,7.415 9.288,11.231 13.935,15.328 1.091,-0.095 1.802,0.06 2.199,-0.224 8.442,-6.028 8.576,-6.152 15.168,1.885 5.692,6.94 11.017,14.18 17.9,23.096 -4.007,2.242 -7.605,4.255 -10.537,5.896 2.272,8.663 7.864,11.475 12.339,15.193 9.968,-6.097 11.112,-5.824 17.277,3.919 2.5,3.951 5.06,7.87 7.408,11.911 2.607,4.486 2.263,5.591 -2.451,8.072 -22.228,11.696 -44.494,23.322 -66.719,35.024 -4.869,2.564 -9.627,5.338 -14.895,8.271 -1.07,-1.374 -2.201,-2.607 -3.086,-3.996 -14.825,-23.263 -32.444,-44.218 -51.707,-63.931 -22.801,-23.334 -48.24,-43.249 -75.722,-60.698 -30.75,-19.524 -63.669,-34.481 -98.106,-46.038 -15.722,-5.277 -31.714,-10.075 -47.922,-13.485 -15.363,-3.233 -31.218,-4.041 -46.764,-6.506 -19.5,-3.092 -39.082,-2.458 -58.62,-1.714 -46.237,1.762 -90.456,12.564 -133.536,29.407 -76.02,29.721 -138.199,77.249 -187.646,141.974 -27.724,36.29 -49.588,75.801 -65.117,118.616 -12.88,35.511 -22.344,71.949 -23.315,110.11 -0.408,16.034 -1.496,32.051 -1.913,48.086 -0.518,19.903 2.938,39.491 6.072,59.004 5.39,33.561 15.371,65.853 29.077,96.999 16.085,36.554 36.088,70.62 61.374,101.698 18.698,22.981 38.81,44.438 61.597,63.32 37.395,30.986 78.713,55.375 123.905,73.264 22.843,9.042 46.217,16.443 70.229,21.28 17.647,3.554 35.508,6.544 53.675,6.886 9.255,0.174 18.543,2.363 27.727,1.896 20.354,-1.036 40.658,-3.118 60.973,-4.881 15.094,-1.311 29.85,-4.432 44.562,-8.031 19.623,-4.801 38.568,-11.445 57.277,-18.974 36.262,-14.593 69.935,-33.785 101.465,-56.764 20.612,-15.022 39.1,-32.446 56.039,-51.493 3.064,-3.445 5.612,-7.35 8.78,-11.55 -3.344,-3.759 -6.352,-7.14 -9.75,-10.959 -2.017,1.797 -3.569,2.986 -4.894,4.388 -29.043,30.747 -61.137,57.633 -97.689,79.213 -33.933,20.033 -69.521,35.957 -107.797,45.409 -41.614,10.277 -83.917,15.691 -126.799,13.49 -46.094,-2.365 -90.698,-11.864 -133.617,-29.535 -43.1,-17.746 -82.503,-41.326 -117.591,-71.838 -36.412,-31.663 -66.868,-68.472 -91.32,-110.148 -17.219,-29.346 -31.112,-60.159 -40.109,-93.028 -5.619,-20.527 -9.572,-41.352 -12.483,-62.508 -2.807,-20.398 -3.231,-40.741 -2.47,-61.091 0.887,-23.754 2.979,-47.402 7.729,-70.891 7.401,-36.599 18.528,-71.841 35.924,-104.785 19.842,-37.577 43.681,-72.44 73.546,-103.067 18.628,-19.104 38.235,-37.027 60.077,-52.213 37.896,-26.349 78.864,-46.826 123.428,-59.27 17.369,-4.85 35.248,-8.058 53.046,-11.14 26.282,-4.552 52.884,-5.959 79.463,-3.931 18.559,1.416 36.994,4.481 55.478,6.856 32.424,4.165 63.089,14.588 92.818,27.552 55.699,24.288 103.895,59.288 143.984,104.99 11.52,13.133 21.327,27.77 31.875,41.751 0.836,1.109 1.318,2.486 2.292,4.373 -7.228,4.228 -13.972,8.555 -21.053,12.231 -12.526,6.503 -12.538,6.281 -21.293,-5.087 -5.167,-6.708 -10.57,-13.238 -15.969,-19.763 -1.235,-1.492 -2.891,-2.634 -4.995,-4.509 -3.538,3.655 -6.738,6.97 -9.947,10.277 -25.633,26.414 -50.642,53.478 -77.201,78.925 -10.996,10.536 -25.301,17.625 -38.149,26.208 -0.541,0.362 -1.579,-0.021 -3.175,-0.092 0.565,-1.627 0.646,-3.132 1.437,-3.958 34.31,-35.898 68.696,-71.722 103.031,-107.596 4.613,-4.82 9.005,-9.852 14.007,-15.344 -24.357,-28.942 -54.219,-49.887 -86.228,-69.276 -40.035,60.132 -79.801,119.859 -120.1,180.386 13.361,6.261 25.413,13.772 35.773,23.482 10.175,9.536 19.651,19.817 30.58,30.937 1.274,-0.535 4.209,-1.529 6.927,-2.943 54.669,-28.451 109.276,-57.022 163.979,-85.405 22.556,-11.703 45.38,-22.888 67.956,-34.553 26.461,-13.673 52.835,-27.518 79.155,-41.46 29.166,-15.449 58.229,-31.094 87.337,-46.652 1.029,-0.55 2.088,-1.05 3.089,-1.646 5.308,-3.163 5.709,-4.021 3.552,-9.844 -4.158,-11.225 -8.437,-22.406 -12.705,-33.59 -19.896,-52.129 -39.793,-104.258 -59.722,-156.375 -3.856,-10.084 -7.835,-20.121 -11.829,-30.152 -0.62,-1.556 -1.62,-2.961 -2.801,-5.071 -3.494,1.208 -6.724,2.356 -9.976,3.441 -8.013,2.675 -14.052,0.32 -17.645,-6.847 -2.857,-5.699 -0.208,-13.205 6.126,-17.284 0.734,-0.472 1.537,-0.845 2.332,-1.212 7.545,-3.479 9.722,-3.363 5.101,-14.995 -19.945,-50.212 -40.018,-100.373 -60.086,-150.535 -1.409,-3.521 -2.918,-7.048 -4.843,-10.297 -1.105,-1.865 -2.928,-4.129 -4.803,-4.553 -4.982,-1.127 -7.175,-4.609 -9.183,-8.604 -1.577,-3.139 -3.071,-6.097 -7.258,-6.817 -18.925,-3.255 -34.674,-13.451 -50.448,-23.537 -1.968,-1.258 -4.038,-2.394 -5.858,-3.842 -11.956,-9.512 -26.305,-9.848 -40.573,-11.185 -19.529,-1.83 -38.476,-6.603 -56.484,-14.413 -12.452,-5.401 -22.119,-13.839 -26.759,-27.32 -6.02,-17.489 2.592,-34.007 20.565,-38.787 9.206,-2.448 18.22,-1.972 27.653,-0.562 28.531,4.264 56.848,10.528 86.006,9.63 22.193,-0.683 44.425,-0.245 66.607,-1.125 14.817,-0.588 29.576,-2.616 44.362,-3.995 12.446,-1.161 25.075,-1.356 37.299,-3.683 21.748,-4.141 43.625,-2.018 65.424,-2.874 10.831,-0.425 21.513,1.774 31.55,6.07 7.597,3.252 12.85,8.914 15.621,16.837 3.078,8.802 0.593,14.079 -8.512,16.633 -3.902,1.094 -8.031,1.437 -12.079,1.946 -15.035,1.892 -30.155,3.248 -45.097,5.695 -13.717,2.247 -26.259,7.985 -37.248,16.567 -7.589,5.927 -14.792,12.359 -22.036,18.715 -5.231,4.59 -10.247,9.427 -16.454,15.166 23.336,61.95 48.93,123.853 74.526,186.315 5.618,-1.599 10.483,-3.563 15.527,-4.295 9.788,-1.422 17.204,6.986 14.026,16.233 -1.192,3.469 -4.796,6.297 -7.751,8.907 -2.066,1.826 -4.897,2.787 -8.212,4.582 4.251,8.931 7.624,17.668 12.349,25.599 9.484,15.919 24.927,21.856 42.542,23.988 10.876,1.316 20.98,-0.562 30.44,-5.691 15.922,-8.633 31.783,-17.388 47.485,-26.411 42.795,-24.591 85.533,-49.28 128.218,-74.061 38.9,-22.584 77.714,-45.316 116.541,-68.026 43.621,-25.514 87.165,-51.159 130.832,-76.592 40.891,-23.816 81.935,-47.37 122.839,-71.163 15.372,-8.942 30.541,-18.234 46.087,-27.536 -1.267,-7.281 0.149,-13.942 3.95,-20.102 2.338,-3.789 0.625,-7.07 -1.02,-10.678 -9.084,-19.92 -18.095,-39.878 -26.758,-59.983 -3.275,-7.6 -2.391,-9.455 4.293,-13.633 3.206,-2.004 6.658,-3.641 10.085,-5.259 17.423,-8.225 34.886,-16.363 52.298,-24.611 1.993,-0.944 3.753,-2.38 6.984,-4.47 -6.3,-2.558 -11.392,-4.401 -16.29,-6.667 -7.67,-3.548 -15.542,-6.835 -22.731,-11.212 -13.788,-8.394 -17.434,-24.611 -9.691,-40.008 6.956,-13.832 22.634,-20.061 37.127,-13.812 16.88,7.278 33.428,15.331 50.054,23.188 6.386,3.018 12.778,5.258 20.01,5.708 11.203,0.698 19.93,5.754 24.891,16.507 1.253,2.717 3.777,5.03 6.155,6.999 2.798,2.317 5.495,4.282 4.784,8.551 -0.683,4.099 2.208,5.382 5.417,6.7 14.036,5.762 28.32,11.055 41.907,17.75 23.428,11.544 43.23,27.822 57.994,49.562 12.913,19.014 17.832,39.828 11.386,62.449 -1.06,3.719 0.44,6.21 2.156,8.901 15.759,24.704 22.982,52.281 24.885,80.991 1.639,24.743 1.215,49.651 1.002,74.48 -0.18,21.074 1.146,42.014 3.728,62.878 0.997,8.06 3.187,15.971 4.783,23.96 1.982,9.916 3.521,19.94 5.981,29.735 2.245,8.938 5.463,17.632 8.259,26.456 2.959,0.139 4.965,0.202 6.966,0.332 7.074,0.459 12.116,3.875 14.796,10.479 3.841,9.467 7.582,18.975 11.36,28.469 4.947,12.432 9.888,24.867 15.124,38.035 3.608,-0.635 7.208,-1.269 11.213,-1.974 0.257,-3.66 0.474,-6.756 0.74,-10.545 6.179,-1.955 12.388,-4.498 18.846,-5.835 11.101,-2.299 12.557,-1.103 15.382,10.744 4.006,-0.328 8.267,-0.415 12.405,-1.175 1.25,-0.229 3.132,-2.377 3.065,-3.552 -0.423,-7.49 3.344,-9.993 10.181,-9.469 0.535,0.041 1.312,-0.151 1.621,-0.526 6.611,-8.027 15.243,-2.355 22.869,-3.223 4.275,-0.486 7.011,2.293 6.908,7.093 -0.023,1.088 0.58,2.19 1.135,4.118 6.024,-0.457 11.949,-0.907 17.573,-1.334 0.787,-1.389 1.297,-2.101 1.621,-2.89 3.49,-8.499 3.604,-8.593 12.874,-8.29 5.257,0.171 10.512,0.407 15.769,0.574 7.864,0.25 8.713,1.002 9.991,8.947 0.177,1.102 0.459,2.187 0.765,3.617 6.256,0.516 12.251,1.011 17.728,1.463 0.959,-1.093 1.536,-1.467 1.691,-1.971 3.417,-11.087 3.404,-11.066 15.081,-8.71 3.149,0.635 6.36,0.971 9.501,1.639 7.49,1.593 8.163,2.499 8.636,10.501 0.084,1.414 0.401,2.814 0.671,4.631 4.148,0.871 8.104,1.617 12.017,2.547 4.392,1.043 6.352,-0.894 7.492,-5.013 1.773,-6.405 2.102,-6.609 8.307,-5.333 5.424,1.115 10.813,2.542 16.073,4.27 6.601,2.168 6.811,2.813 6.456,10.274 -0.055,1.155 -0.01,2.314 -0.01,4.483 3.269,0.923 6.764,2.111 10.35,2.867 3.785,0.797 6.896,0.102 8.061,-4.439 1.223,-4.766 4.426,-5.653 8.789,-3.906 5.957,2.385 12.032,4.485 17.939,6.984 3.75,1.586 5.846,3.918 4.895,8.856 -1.13,5.868 0.257,6.384 8.431,9.803 4.822,2.017 7.594,1.111 9.979,-3.352 1.022,-1.912 3.012,-3.307 4.969,-5.364 8.437,6.433 19.395,7.789 25.608,16.588 -3.979,10.568 -3.19,11.906 10.719,18.036 1.496,-1.421 3.248,-2.892 4.764,-4.578 1.542,-1.714 2.85,-3.639 4.115,-5.282 11.665,3.777 19.501,11.042 27.76,18.585 -1.749,2.62 -3.317,4.969 -5.025,7.529 3.04,5.478 8.561,7.867 13.333,10.915 1.064,0.679 4.253,-0.796 5.709,-2.113 5.471,-4.95 6.01,-5.188 11.581,-0.667 6.06,4.919 12.002,9.983 18.178,15.136 -1.042,1.854 -1.468,2.901 -2.138,3.757 -4.774,6.101 -4.758,6.052 0.916,11.004 3.064,2.675 5.997,5.5 8.941,8.214 1.133,-0.341 2.073,-0.402 2.741,-0.859 8.968,-6.137 9.049,-6.239 16.508,1.364 5.281,5.383 10.276,11.045 15.66,16.863 -1.995,2.604 -3.708,4.84 -6.192,8.082 4.649,5.228 9.345,10.508 13.631,15.327 1.614,-0.111 2.284,0.029 2.747,-0.217 9.348,-4.977 10.428,-4.783 16.414,3.463 5.107,7.035 10.145,14.119 15.515,21.603 -2.848,2.218 -5.266,4.1 -8.117,6.32 2.486,4.452 4.703,8.819 7.291,12.954 2.993,4.783 4.51,5.063 10.047,2.736 5.912,-2.485 7.207,-2.158 10.585,3.337 3.051,4.964 5.87,10.07 8.827,15.093 4.81,8.17 4.773,8.328 -4.743,13.399 1.586,3.809 3.046,7.811 4.899,11.622 1.81,3.722 4.311,5.47 9.149,4.429 6.35,-1.366 7.938,0.062 10.724,6.11 2.805,6.089 5.621,12.174 8.283,18.326 0.649,1.498 0.712,3.25 1.013,4.726 -12.888,7.155 -13.079,8.432 -2.994,20.159 1.381,-0.34 3.051,-0.632 4.639,-1.166 4.399,-1.479 7.886,0.173 9.428,4.054 3.616,9.101 6.633,18.44 10.014,28.024 -3.74,1.691 -6.582,2.976 -10.364,4.686 1.336,4.832 2.671,9.657 3.763,13.608 1.527,0.716 1.798,0.961 2.053,0.946 11.988,-0.722 13.29,0.379 15.141,12.162 0.813,5.179 1.963,10.305 2.884,15.469 1.216,6.817 1.074,6.969 -6.082,8.31 -0.856,0.16 -1.714,0.325 -2.552,0.554 -0.252,0.069 -0.441,0.363 -1.779,1.534 0.532,3.833 1.177,8.476 1.722,12.401 1.835,0.786 2.359,1.194 2.897,1.214 12.079,0.458 12.07,0.475 13.316,12.86 0.554,5.51 0.981,11.056 1.978,16.492 1.186,6.469 0.733,7.566 -5.663,9.017 -1.656,0.376 -3.348,0.589 -6.088,1.06 1.108,6.231 2.142,12.047 3.161,17.784 1.349,0.365 2.169,0.785 2.984,0.777 9.372,-0.086 9.459,-0.107 9.862,8.671 0.335,7.293 0.516,14.597 0.584,21.897 0.021,2.242 -0.553,4.489 -0.876,6.893 -2.196,0.389 -3.868,0.757 -5.56,0.971 -7.202,0.912 -7.834,1.58 -7.941,8.646 -0.102,6.805 0.096,7.037 6.993,8.182 5.946,0.988 6.976,1.882 6.852,7.914 -0.18,8.761 -0.764,17.512 -1.185,26.268 -0.175,3.649 -1.633,5.786 -5.684,6.388 -8.743,1.299 -8.752,1.497 -8.778,10.291 -0.01,2.279 0.312,4.56 0.471,6.713 12.887,2.33 13.249,2.954 10.472,15.39 -1.145,5.123 -2.188,10.283 -2.949,15.475 -1.105,7.53 -0.979,7.547 -8.66,7.03 -0.854,-0.058 -1.71,-0.079 -2.5,-0.115 -3.743,6.268 -3.935,7.469 -2.515,15.523 3.067,1.257 6.167,2.528 8.834,3.622 -2.255,9.255 -4.368,17.675 -6.335,26.127 -0.705,3.029 -2.435,4.592 -5.475,4.569 -1.742,-0.013 -3.492,-0.27 -5.222,-0.522 -3.493,-0.509 -6.366,-0.089 -7.642,3.907 -1.545,4.842 -0.682,8.006 3.275,10.524 1.913,1.217 3.901,2.317 5.398,3.2 -2.167,7.584 -4.017,14.519 -6.148,21.367 -1.709,5.493 -3.539,6.538 -9.007,5.896 -10.003,-1.175 -11.179,0.031 -11.136,11.893 1.036,0.573 2.276,1.246 3.504,1.941 6.615,3.745 7.094,5.688 3.545,12.537 -2.683,5.178 -4.981,10.557 -7.734,15.695 -3.833,7.154 -4.816,7.341 -12.214,3.619 -0.764,-0.384 -1.615,-0.595 -3.408,-1.24 -1.726,2.288 -3.636,4.705 -5.423,7.212 -2.696,3.782 -3.145,6.849 1.114,10.479 5.197,4.429 4.824,6.002 1.038,11.978 -3.437,5.424 -6.711,10.952 -10.104,16.405 -5.264,8.459 -5.66,8.536 -14.131,3.812 -0.98,-0.547 -2.135,-0.781 -4.227,-1.519 -2.993,4.879 -5.965,9.724 -8.61,14.036 0.515,1.494 0.563,2.158 0.911,2.568 6.917,8.154 6.775,8.01 -0.739,16.163 -3.944,4.279 -7.229,9.161 -10.856,13.734 -5.051,6.37 -5.743,6.441 -12.804,1.856 -1.199,-0.778 -2.503,-1.395 -4.869,-2.698 -3.183,4.136 -6.553,8.05 -9.291,12.365 -0.783,1.234 -0.276,3.944 0.589,5.42 1.406,2.398 3.596,4.336 6.612,7.794 -2.117,1.277 -3.79,1.951 -5.033,3.093 -6.429,5.906 -12.731,11.95 -19.112,17.908 -4.463,4.167 -5.451,4.438 -10.237,0.379 -3.405,-2.887 -6.125,-2.899 -9.127,0.074 -3.08,3.05 -6.118,6.142 -8.563,8.601 0,1.717 -0.224,2.431 0.033,2.847 5.895,9.528 5.824,9.413 -3.17,16.033 -4.927,3.627 -9.594,7.619 -14.26,11.586 -4.395,3.737 -5.15,3.762 -9.142,-0.476 -1.189,-1.262 -2.452,-2.462 -3.757,-3.604 -0.406,-0.355 -1.06,-0.428 -2.578,-0.996 -3.895,2.842 -8.248,6.017 -12.787,9.328 0.939,2.114 1.518,3.383 2.069,4.664 2.476,5.75 1.927,7.349 -3.406,10.646 -5.678,3.511 -11.368,7.01 -16.939,10.686 -2.706,1.785 -4.707,1.644 -6.729,-0.986 -2.091,-2.72 -4.445,-5.239 -6.7,-7.865 -4.261,2.583 -7.927,4.804 -11.895,7.21 0,1.218 -0.238,2.664 0.04,4.003 1.415,6.826 0.759,8.853 -5.292,11.885 -6.745,3.38 -13.698,6.344 -20.566,9.491 -4.875,-1.166 -5.315,-11.062 -12.19,-6.987 -4.143,2.456 -10.377,4.501 -9.89,12.676 3.7,0 6.811,0.01 9.921,-10e-4 50.559,-0.181 101.118,-0.246 151.676,-0.64 11.12,-0.087 18.629,6.621 23.431,17.876 3.413,7.998 -0.393,19.841 -7.51,26.303 -4.894,4.444 -10.809,5.39 -17.091,5.401 -29.52,0.052 -59.04,0.2 -88.56,0.204 -325.015,0.044 -650.03,0.093 -975.045,0.091 -410.952,0 -821.903,-0.047 -1232.855,-0.091 -30.104,0 -60.208,-0.229 -90.311,-0.151 -4.902,0.013 -9.215,-1.06 -13.212,-3.733 -8.955,-5.988 -13.281,-17.473 -10.413,-27.613 3.086,-10.912 11.508,-17.83 23.1,-17.933 30.395,-0.271 60.792,-0.254 91.189,-0.256 20.166,-10e-4 40.332,0.171 60.498,0.235 1.735,0 3.471,-0.226 6.226,-0.415 z m 408.887,-2.595 c 0.172,0.723 0.344,1.447 0.516,2.171 2.806,0.143 5.612,0.404 8.418,0.41 30.104,0.063 60.208,0.155 90.312,0.098 29.518,-0.056 59.036,-0.25 88.554,-0.474 2.232,-0.017 5.124,0 6.577,-1.277 7.819,-6.895 15.28,-14.196 22.832,-21.325 -4.539,-6.76 -4.626,-7.91 0.648,-13.586 3.14,-3.379 6.813,-6.262 10.25,-9.373 -4.696,-7.445 -4.566,-8.7 1.635,-15.618 1.365,-1.523 2.957,-2.91 4.011,-4.625 0.823,-1.339 1.791,-3.46 1.278,-4.591 -1.797,-3.964 0.221,-6.726 2.117,-9.699 4.24,-6.651 8.453,-13.32 12.655,-19.995 2.177,-3.458 4.123,-7.079 6.512,-10.38 2.53,-3.495 5.097,-3.469 7.828,-0.185 1.11,1.336 1.919,2.93 2.81,4.439 6.51,11.022 13.007,22.052 19.763,33.512 -0.769,1.554 -1.767,3.573 -2.969,6.002 3.003,3.069 5.934,5.885 8.657,8.889 3.603,3.974 3.745,6.371 0.954,10.864 -0.698,1.125 -1.491,2.191 -1.96,2.875 5.353,5.91 10.261,11.271 15.099,16.694 2.766,3.101 5.214,3.381 7.509,-0.392 -5.404,-8.619 -5.438,-8.652 1.697,-16.158 3.219,-3.386 6.685,-6.538 9.894,-9.933 2.547,-2.694 4.873,-5.597 7.539,-8.687 -4.347,-4.027 -8.033,-7.44 -12.274,-11.368 8.341,-8.361 15.87,-15.907 23.354,-23.409 -3.388,-3.519 -6.106,-6.343 -9.206,-9.562 6.619,-7.969 12.687,-15.275 18.748,-22.572 -1.092,-1.345 -1.528,-2.116 -2.168,-2.635 -6.164,-4.996 -6.048,-4.9 -2.041,-10.993 4.332,-6.587 8.582,-13.243 12.531,-20.064 5.559,-9.603 10.609,-19.502 16.26,-29.048 3.605,-6.09 6.304,-5.778 9.868,0.472 4.77,8.364 9.57,16.712 14.328,25.084 5.342,9.398 10.696,18.789 15.959,28.231 3.576,6.414 3.426,6.852 -2.018,12.662 -0.553,0.59 -0.754,1.509 -1.471,3.015 3.975,4.347 8.07,8.812 12.152,13.291 6.497,7.128 6.396,8.124 -1.24,14.189 -0.397,0.315 -0.48,1.024 -0.947,2.094 3.598,10.114 15.582,14.181 19.843,24.532 -3.605,2.85 -6.921,5.471 -10.997,8.693 4.87,4.358 8.864,8.093 13.036,11.618 4.01,3.387 5.835,9.279 12.436,11.072 2.857,-13.336 15.92,-18.29 22.442,-28.903 -3.335,-2.549 -6.33,-4.815 -9.299,-7.115 -2.874,-2.227 -3.124,-4.907 -0.815,-7.565 3.249,-3.741 6.648,-7.361 10.114,-10.903 3.784,-3.867 7.719,-7.586 11.619,-11.399 -1.12,-1.302 -1.592,-2.063 -2.253,-2.586 -7.242,-5.731 -7.24,-5.713 -1.583,-12.806 3.939,-4.939 7.845,-9.904 11.671,-14.736 -5.955,-5.979 -6.169,-7.437 -2.748,-13.325 9.237,-15.901 18.422,-31.832 27.725,-47.694 0.786,-1.34 2.302,-2.253 4.377,-4.211 11.263,20.118 22.11,39.494 32.825,58.634 -6.739,7.256 -6.748,8.165 -0.687,14.851 1.177,1.299 2.392,2.563 3.588,3.845 7.232,7.753 7.217,7.742 0.691,16.615 -0.472,0.641 -0.504,1.605 -0.827,2.714 1.099,1.269 2.114,2.667 3.35,3.83 4.253,4.003 8.696,7.81 12.858,11.903 6.433,6.325 6.203,8.888 -0.657,14.679 -2.117,1.787 -3.981,3.873 -5.745,5.609 6.253,8.186 11.849,15.511 17.446,22.837 11.041,-6.871 18.192,-14.3 21.284,-22.405 -5.684,-3.984 -11.478,-8.045 -17.289,-12.118 8.44,-15.926 24.888,-23.198 33.735,-37.246 -6.103,-4.364 -11.446,-8.185 -17.347,-12.404 9.03,-13.052 21.606,-21.088 30.727,-32.402 -3.483,-6.946 -12.911,-7.658 -15.256,-15.656 8.261,-10.766 18.72,-19.864 25.144,-31.736 -0.648,-1.024 -0.865,-1.614 -1.278,-1.982 -9.687,-8.646 -9.691,-8.641 -3.258,-19.866 0.291,-0.507 0.572,-1.02 0.854,-1.531 11.162,-20.184 22.292,-40.386 33.519,-60.534 1.743,-3.127 1.893,-8.888 6.543,-8.019 2.728,0.51 5.155,4.948 6.893,8.077 13.038,23.48 25.877,47.071 38.743,70.646 0.528,0.967 0.71,2.123 1.246,3.788 -3.83,3.019 -7.577,5.972 -12.265,9.667 9.49,11.159 18.447,21.691 27.71,32.583 -5.496,4.755 -10.199,8.824 -15.701,13.584 10.835,11.121 20.889,21.44 31.398,32.227 -6.238,5.022 -11.511,9.266 -17.573,14.145 6.082,6.166 11.174,11.339 16.279,16.5 4.927,4.981 9.843,9.974 14.809,14.916 3.213,3.197 2.8,6.333 -0.434,8.981 -3.796,3.108 -7.892,5.851 -12.783,9.429 8.359,9.728 15.589,20.104 26.837,26.829 8.032,-9.63 15.548,-18.64 23.074,-27.662 -4.322,-4.241 -7.812,-7.665 -11.463,-11.247 5.969,-10.658 16.457,-16.698 23.807,-25.321 -0.793,-1.454 -1.053,-2.347 -1.63,-2.925 -6.574,-6.597 -6.56,-6.561 -0.259,-13.789 4.326,-4.962 8.564,-10 12.757,-14.906 -7.466,-7.771 -7.252,-7.702 -2.274,-16.25 8.814,-15.135 17.331,-30.444 25.977,-45.677 1.631,-2.873 1.58,-8.198 5.951,-7.378 2.649,0.497 5.13,4.349 6.797,7.212 8.522,14.632 16.751,29.434 25.092,44.171 1.95,3.445 3.941,6.868 5.965,10.39 -1.832,1.626 -2.948,2.529 -3.959,3.538 -0.983,0.98 -1.859,2.068 -3.434,3.844 5.911,7.371 11.66,14.54 18.465,23.025 -3.505,2.407 -6.589,4.525 -9.978,6.853 1.762,2.548 2.669,4.353 4.02,5.72 4.311,4.365 8.854,8.5 13.184,12.847 7.597,7.625 7.26,10.392 -1.601,16.07 -1.609,1.031 -2.994,2.412 -5.011,4.064 2.398,2.591 4.286,4.754 6.306,6.786 3.911,3.936 8.031,7.673 11.823,11.718 7.604,8.111 7.538,8.174 4.85,17.348 4.816,0.222 10.721,-4.203 20.561,-15.549 -1.806,-1.691 -3.631,-3.4 -5.522,-5.17 1.003,-9.265 10.192,-12.676 13.771,-19.947 -2.07,-3.289 -4.563,-6.064 -1.757,-10.361 7.333,-11.231 14.192,-22.771 21.326,-34.134 1.282,-2.042 2.976,-3.825 5.585,-7.126 10.572,17.205 20.261,32.974 30.041,48.89 -1.448,1.522 -2.776,2.919 -4.332,4.554 1.879,2.236 3.259,4.628 5.29,6.153 6.02,4.519 8.064,9.635 3.144,15.902 4.797,7.529 16.314,10.923 11.818,22.452 4.245,3.836 9.13,6.971 12.276,11.354 7.038,9.805 16.074,13.695 27.803,12.013 0.573,-0.082 1.168,0 1.752,0 59.911,0.263 119.822,0.525 179.734,0.791 0.876,0 1.926,0.365 2.592,0 1.386,-0.752 3.348,-1.701 3.621,-2.9 0.289,-1.27 -0.703,-3.589 -1.845,-4.282 -3.177,-1.929 -6.723,-3.251 -9.262,-4.418 -3.722,2.268 -6.961,5.907 -9.393,5.431 -9.667,-1.895 -19.071,-5.097 -25.755,-13.078 0.822,-2.507 1.524,-4.646 2.156,-6.573 -9.437,-9.026 -9.437,-9.026 -16.507,-8.843 -0.618,1.115 -1.224,2.432 -2.026,3.617 -2.97,4.389 -5.138,5.26 -9.435,2.834 -6.856,-3.871 -13.494,-8.131 -20.185,-12.29 -3.2,-1.989 -4.057,-4.814 -2.521,-8.29 0.672,-1.521 1.409,-3.012 2.467,-5.261 -5.668,-3.872 -11.017,-7.527 -16.241,-11.096 -1.564,1.458 -2.238,1.999 -2.809,2.632 -5.597,6.208 -5.697,6.354 -11.998,1.652 -6.786,-5.064 -13.411,-10.351 -19.973,-15.704 -2.154,-1.758 -3.89,-4.028 -4.615,-4.794 0.813,-5.013 2.871,-9.234 1.553,-11.256 -3.227,-4.953 -8.013,-8.89 -12.062,-13.121 -1.786,1.074 -2.591,1.416 -3.221,1.959 -6.24,5.381 -7.617,5.543 -12.996,0.09 -5.948,-6.029 -11.704,-12.258 -17.356,-18.567 -4.224,-4.715 -4.359,-5.176 0.043,-10.111 2.967,-3.327 2.711,-6.175 0.525,-9.405 -0.979,-1.447 -2.11,-2.802 -3.264,-4.118 -4.41,-5.034 -5.161,-5.255 -10.64,-1.231 -3.058,2.246 -6.022,3.064 -8.456,-0.044 -6.434,-8.216 -12.537,-16.692 -19.124,-25.537 2.274,-2.456 4.285,-4.49 6.121,-6.671 0.906,-1.076 2.411,-2.893 2.066,-3.57 -2.077,-4.074 -4.104,-8.385 -7.155,-11.687 -2.458,-2.659 -5.234,0.265 -7.725,1.739 -4.671,2.765 -6.296,2.367 -9.287,-2.088 -3.908,-5.819 -7.713,-11.707 -11.564,-17.563 -3.91,-5.945 -3.624,-7.666 2.056,-12.331 4.252,-3.492 4.509,-7.203 1.22,-12.892 -2.586,-4.473 -5.451,-2.594 -8.861,-1.095 -5.683,2.497 -7.691,1.712 -10.582,-3.748 -2.869,-5.418 -5.544,-10.95 -8.046,-16.547 -3.128,-6.994 -3.099,-7.959 3.775,-11.792 4.358,-2.429 4.97,-5.454 3.731,-9.381 -1.352,-4.283 -4.161,-5.515 -8.858,-4.453 -5.719,1.294 -8.18,-0.433 -9.584,-4.856 -1.755,-5.532 -3.475,-11.076 -5.303,-16.584 -1.852,-5.579 -1.407,-6.634 4.326,-9.32 1.02,-0.478 2.049,-0.934 2.919,-1.33 0.518,-10.609 -0.659,-12.127 -9.627,-11.624 -3.862,0.217 -6.162,-1.1 -7.139,-4.799 -1.641,-6.212 -3.326,-12.412 -4.929,-18.633 -2.103,-8.161 -2.074,-8.154 6.715,-9.895 0.495,-0.098 0.891,-0.699 1.619,-1.303 0.093,-1.771 0.329,-3.79 0.281,-5.802 -0.178,-7.359 -0.877,-8.34 -8.302,-9.269 -4.935,-0.618 -7.207,-3.371 -7.883,-7.895 -0.82,-5.488 -1.451,-11.005 -2.301,-16.489 -1.509,-9.739 -1.382,-9.953 8.482,-11.7 0.508,-0.09 0.935,-0.634 2.466,-1.729 -0.266,-4.907 -0.571,-10.516 -0.889,-16.384 -4.784,-0.35 -8.485,-0.62 -12.077,-0.883 -0.553,-1.117 -1.226,-1.873 -1.275,-2.667 -0.452,-7.286 -0.888,-14.576 -1.15,-21.871 -0.433,-12.077 -0.377,-12.079 11.005,-14.644 1.48,-5.283 1.89,-10.582 -0.442,-15.714 -1.235,-0.427 -2.032,-0.795 -2.869,-0.979 -8.142,-1.786 -8.519,-1.987 -8.486,-10.254 0.022,-5.522 0.68,-11.044 1.113,-16.561 0.897,-11.412 0.915,-11.4 11.682,-12.522 0.512,-0.054 0.972,-0.596 2.074,-1.313 0.944,-4.49 1.991,-9.474 3.079,-14.65 -4.891,-1.766 -8.866,-3.202 -12.8,-4.622 0.98,-8.755 1.677,-16.861 2.848,-24.898 1.136,-7.802 2.523,-8.584 11.01,-7.915 1.117,0.088 2.265,-0.218 3.242,-0.324 6.083,-12.765 5.692,-13.922 -6.532,-19.456 -1.613,-9.883 2.396,-18.838 5.277,-27.951 2.385,-7.542 3.835,-8.167 11.448,-6.208 1.047,0.269 2.158,0.285 3.403,0.438 0.645,-1.365 1.225,-2.357 1.594,-3.422 0.765,-2.206 1.414,-4.452 2.117,-6.679 0.995,-3.151 0.299,-5.325 -2.678,-7.388 -5.799,-4.017 -5.991,-5.013 -3.795,-11.512 2.053,-6.075 4.31,-12.087 6.646,-18.06 2.24,-5.724 4.001,-6.537 10.019,-4.977 1.609,0.417 3.161,1.058 5.248,1.77 2.406,-4.661 4.622,-8.954 6.953,-13.47 -1.968,-1.524 -3.233,-2.675 -4.657,-3.575 -5.693,-3.6 -5.873,-3.638 -3.472,-9.515 2.644,-6.472 5.585,-12.823 8.473,-19.193 1.878,-4.141 4.491,-6.997 9.544,-4.566 3.669,1.765 6.244,0.269 8.09,-2.843 2.482,-4.183 4.783,-8.474 7.086,-12.582 -1.458,-1.627 -2.176,-2.534 -3,-3.331 -5.776,-5.593 -5.864,-5.635 -1.726,-12.427 2.274,-3.732 4.789,-7.328 7.349,-10.873 7.217,-9.992 7.248,-9.97 18.687,-5.502 3.897,-5.636 7.929,-11.467 11.778,-17.033 -0.876,-1.56 -1.216,-2.378 -1.736,-3.057 -4.661,-6.085 -4.745,-6.136 -0.349,-11.795 5.194,-6.685 10.678,-13.148 15.75,-19.922 2.548,-3.404 5.421,-4.786 8.869,-2.189 4.637,3.492 7.952,2.126 11.207,-1.833 1.851,-2.252 3.88,-4.384 6.007,-6.379 3.323,-3.115 4.007,-6.321 0.821,-9.893 -3.112,-3.487 -1.795,-6.251 1.215,-8.98 4.328,-3.924 8.547,-7.97 12.756,-12.023 5.308,-5.111 5.876,-5.333 11.244,-0.227 2.665,2.535 5.025,3.012 7.578,0.648 3.752,-3.474 7.239,-7.235 10.704,-10.738 -8.161,-10.353 -6.968,-10.54 1.247,-16.545 1.413,-1.033 2.706,-2.23 4.129,-3.247 10.391,-7.424 10.397,-7.416 19.358,1.476 4.609,-3.107 9.331,-6.289 14.38,-9.692 -2.261,-3.326 -3.994,-5.873 -6.347,-9.334 7.209,-5.269 14.166,-10.354 20.954,-15.316 2.858,1.175 5.12,2.104 7.655,3.147 -0.853,-11.148 -57.751,-148.027 -66.333,-159.366 -10.234,4.825 -12.559,-3.369 -15.551,-10.641 -2.111,-5.133 -4.603,-10.144 -6.266,-15.417 -1.694,-5.373 -4.748,-7.731 -10.329,-6.862 -5.812,0.905 -9.308,-2.077 -11.745,-6.997 -4.405,-8.897 -8.836,-17.783 -13.421,-26.588 -3.058,-5.872 -6.402,-11.595 -10.182,-18.402 -21.393,11.68 -41.809,22.939 -62.335,33.993 -12.559,6.764 -21.197,16.734 -27.65,29.466 -25.092,49.506 -50.697,98.752 -76.055,148.124 -33.366,64.965 -66.602,129.996 -100.041,194.924 -24.745,48.047 -49.446,96.12 -74.713,143.893 -12.828,24.256 -25.911,48.476 -40.572,71.641 -22.859,36.12 -54.308,63.076 -93.193,81.159 -0.585,0.272 -0.837,1.259 -1.954,3.052 4.396,0 7.818,-0.016 11.239,0 25.135,0.141 50.276,0 75.402,0.565 10.917,0.243 21.465,-0.587 32.006,-3.547 11.242,-3.156 22.442,-2.685 33.197,2.575 7.604,3.719 13.688,8.972 17.115,16.8 12.478,28.505 -10.788,55.423 -36.654,55.454 -9.679,0.012 -18.284,-3.091 -27.009,-6.46 -4.336,-1.674 -8.765,-3.803 -13.282,-4.183 -13.949,-1.174 -27.954,-1.786 -41.95,-2.276 -13.429,-0.47 -27.04,0.718 -40.268,-1.07 -15.166,-2.05 -30.279,-1.687 -45.42,-2.26 -2.868,-0.108 -5.744,-0.016 -8.293,-0.016 -1.031,1.784 -1.834,2.719 -2.155,3.798 -4.588,15.465 -13.52,28.372 -23.686,40.58 -21.695,26.052 -49.848,39.983 -83.178,43.59 -20.862,2.258 -41.278,-0.998 -61.378,-6.78 -4.655,-1.339 -9.748,-2.418 -14.489,-1.983 -23.491,2.158 -46.935,4.844 -70.387,7.412 -1.996,0.218 -4.188,0.517 -5.852,1.51 -4.025,2.401 -7.793,5.234 -11.849,8.02 1.985,2.135 3.905,4.199 5.77,6.204 -2.687,6.917 -5.588,13.296 -7.651,19.936 -3.51,11.297 -3.403,11.417 -15.149,7.84 -0.465,-0.142 -1.092,0.247 -2.693,0.657 -1.016,3.748 -2.17,8 -3.336,12.3 2.517,0.997 3.882,1.482 5.203,2.069 6.041,2.688 6.306,3.689 3.287,9.863 -2.564,5.243 -5.121,10.502 -7.368,15.885 -4.62,11.071 -4.816,11.213 -15.821,6.371 -0.463,-0.203 -1.132,0.062 -3.102,0.224 -1.384,3.293 -3.98,7.129 -4.296,11.145 -0.177,2.241 3.359,4.847 5.357,7.172 3.536,4.115 3.638,6.247 0.465,10.861 -3.796,5.521 -7.569,11.059 -11.264,16.648 -3.606,5.454 -4.681,5.755 -10.511,2.5 -6.073,-3.391 -6.084,-3.398 -9.874,2.823 -1.328,2.179 -2.593,4.396 -4.643,7.883 1.707,1.065 3.44,1.759 4.657,2.972 5.58,5.558 5.495,7.13 0.734,13.114 -3.632,4.565 -7.052,9.313 -10.348,14.129 -5.073,7.41 -4.994,7.464 -12.688,2.274 -4.523,-3.051 -6.028,-2.821 -9.474,1.448 -4.177,5.175 -4.212,7.135 -0.538,11.14 1.918,2.09 3.588,4.407 5.418,6.68 -1.161,1.727 -1.823,3.048 -2.787,4.09 -5.338,5.775 -10.899,11.351 -16.098,17.247 -6.527,7.402 -6.393,7.491 -13.842,0.432 -0.553,-0.525 -1.549,-0.583 -2.379,-0.871 -4.451,3.77 -8.783,7.441 -13.375,11.331 1.396,1.979 2.405,3.365 3.367,4.783 3.924,5.789 3.753,6.317 -1.389,10.698 -4.655,3.967 -9.117,8.161 -13.636,12.286 -3.783,3.454 -5.904,3.535 -9.69,0.058 -2.291,-2.104 -4.434,-4.371 -6.857,-6.777 -3.826,2.997 -6.962,5.454 -9.938,7.785 4.55,10.71 4.452,10.666 -4.702,17.529 -3.466,2.598 -6.668,5.627 -9.626,8.8 -2.749,2.95 -5.281,2.948 -8.466,0.901 -9.093,-5.845 -10.419,-5.665 -18.508,1.91 0.098,0.786 0.075,1.684 0.332,2.492 3.019,9.502 2.353,10.735 -6.801,14.058 -2.992,1.086 -6.071,2.374 -8.57,4.278 -4.867,3.708 -9.145,5.335 -14.961,1.235 -4.325,-3.049 -10.638,-1.343 -11.962,2.783 -2.014,6.265 -5.737,10.48 -12.146,12.608 z m 420.312,-766.018 c 0.441,3.611 0.395,5.698 0.973,7.595 9.354,30.663 19.036,61.229 28.112,91.974 5.528,18.725 9.324,37.835 9.858,57.497 0.196,7.198 1.294,14.372 1.927,21.003 8.384,2.346 15.515,5.004 22.886,6.251 11.731,1.986 23.627,4.263 35.441,4.199 20.056,-0.109 38.083,-7.873 54.999,-18.308 15.237,-9.4 27.46,-21.387 35.276,-37.851 12.769,-26.897 26.159,-53.499 39.093,-80.32 33.107,-68.656 66.098,-137.367 99.151,-206.048 24.315,-50.524 48.61,-101.057 73,-151.545 21.34,-44.174 42.808,-88.287 64.174,-132.448 0.802,-1.658 1.129,-3.547 2.046,-6.524 -20.113,11.107 -39.201,21.194 -57.852,32.032 -53.537,31.109 -106.877,62.556 -160.333,93.805 -46.4,27.125 -92.816,54.224 -139.293,81.216 -38.646,22.444 -77.42,44.667 -116.08,67.087 -13.389,7.764 -26.563,15.899 -39.928,23.703 -3.901,2.278 -5.196,4.582 -3.305,9.209 4.522,11.064 8.417,22.385 12.583,33.594 5.579,15.01 11.176,30.014 17.112,45.951 4.078,-1.777 7.841,-3.152 11.361,-4.994 17.852,-9.343 35.589,-18.907 53.463,-28.208 29.021,-15.101 58.077,-30.134 87.201,-45.034 10.206,-5.222 21.169,-6.451 32.387,-4.279 13.109,2.538 24.155,8.421 31.423,20.209 1.203,1.951 3.172,3.42 4.718,5.172 13.91,15.772 27.871,31.5 41.663,47.374 4.075,4.69 7.266,10.16 7.108,16.565 -0.25,10.129 -11.819,23.106 -21.824,25.946 -3.175,0.901 -6.355,2.949 -8.736,5.285 -11.669,11.449 -23.05,23.191 -34.567,34.796 -18.525,18.667 -37.061,37.323 -55.624,55.952 -9.89,9.926 -20.082,19.563 -29.698,29.746 -7.566,8.012 -21.509,10.452 -30.08,3.379 -14.075,-11.615 -25.919,-25.328 -33.67,-42.056 -4.416,-9.53 -2.242,-17.49 5.822,-24.21 3.138,-2.615 6.683,-4.781 9.607,-7.603 10.665,-10.292 21.216,-20.705 31.683,-31.2 22.27,-22.329 44.472,-44.727 66.645,-67.152 0.985,-0.996 1.411,-2.544 2.097,-3.835 -0.428,-0.489 -0.856,-0.977 -1.284,-1.466 -49.694,24.438 -99.389,48.879 -149.535,73.541 z m 821.341,-81.961 c -17.378,8.986 -42.657,27.41 -61.178,44.434 -40.197,36.949 -73.447,79.258 -97.503,128.393 -18.16,37.092 -33.144,75.401 -40.537,116.286 -1.188,6.574 -1.895,13.237 -2.731,19.871 -1.627,12.907 -4.262,25.802 -4.524,38.741 -0.401,19.753 -1.903,39.522 1.972,59.33 3.348,17.111 3.672,34.797 6.661,51.999 3.7,21.293 10.391,41.823 18.014,62.108 19.56,52.05 47.495,98.833 85.571,139.465 21.248,22.674 44.619,42.882 70.06,60.724 28.595,20.055 59.251,36.305 91.831,48.733 17.148,6.542 34.566,12.714 52.329,17.211 16.86,4.269 34.249,6.795 51.551,8.886 19.608,2.37 39.376,4.629 59.078,4.653 17.632,0.021 35.265,-3.094 52.904,-4.767 19.471,-1.846 38.506,-5.892 57.184,-11.57 36.474,-11.088 71.295,-26.037 103.97,-45.729 29.865,-17.998 57.629,-38.756 82.462,-63.383 26.478,-26.258 50.004,-54.838 68.716,-87.125 26.539,-45.794 46.026,-94.374 55.319,-146.674 2.596,-14.61 4.91,-29.404 5.579,-44.195 1.385,-30.595 1.722,-61.256 -3.596,-91.628 -3.017,-17.224 -4.859,-34.795 -9.568,-51.553 -11.166,-39.739 -26.263,-77.987 -47.643,-113.56 -16.309,-27.136 -34.497,-52.92 -56.859,-75.321 -15.025,-15.051 -31.371,-28.834 -47.628,-42.591 -17.206,-14.561 -35.905,-27.217 -55.847,-37.666 -43.28,-22.676 -87.548,-42.972 -136.625,-49.809 -17.038,-2.374 -34.114,-5.694 -51.228,-6.07 -48.457,-1.066 -96.164,4.522 -142.212,20.654 -7.913,2.772 -15.654,6.036 -24.166,9.342 2.17,5.414 3.937,9.824 5.454,13.609 18.598,-4.934 35.875,-10.322 53.511,-13.979 19.346,-4.011 38.927,-7.431 58.578,-9.3 28.771,-2.737 57.677,-3.115 86.325,2.256 16.317,3.059 32.772,5.567 48.887,9.47 19.865,4.811 38.874,12.318 57.624,20.531 46.298,20.28 86.894,49.099 123.494,83.47 24.544,23.049 45.438,49.376 62.963,78.282 36.533,60.258 57.077,125.639 61.221,195.837 2.431,41.172 -0.5,82.116 -10.282,122.503 -11.335,46.8 -30.31,90.217 -56.469,130.394 -22.106,33.951 -48.718,64.276 -80.019,90.101 -15.519,12.803 -31.681,25 -48.521,35.986 -23.275,15.184 -48.375,27.13 -74.348,37.121 -20.219,7.777 -41.07,13.075 -62.343,17.231 -33.989,6.641 -68.037,9.548 -102.714,7.504 -21.366,-1.259 -42.384,-4.15 -63.39,-7.747 -32.172,-5.511 -62.862,-15.833 -92.346,-29.547 -32.428,-15.083 -62.608,-33.856 -89.932,-57.135 -35.16,-29.956 -65.858,-63.748 -89.929,-103.3 -34.028,-55.915 -52.972,-116.592 -56.741,-181.942 -1.227,-21.259 -1.675,-42.472 0.469,-63.796 1.631,-16.214 3.174,-32.373 6.231,-48.396 6.046,-31.698 15.97,-62.136 29.467,-91.397 14.109,-30.588 30.689,-59.757 52.091,-85.9 10.715,-13.088 21.708,-26.014 33.407,-38.216 18.238,-19.02 39.012,-35.186 60.169,-50.833 3.677,-2.719 7.269,-5.551 10.996,-8.404 -1.894,-4.939 -3.423,-8.928 -5.209,-13.592 z M 451.632,1756.704 c -1.038,-12.801 -1.931,-23.74 -2.809,-34.679 -0.231,-2.872 -1.521,-4.695 -4.327,-5.909 -13.641,-5.901 -27.103,-12.221 -40.798,-17.989 -41.115,-17.317 -82.306,-34.453 -123.476,-51.642 -8.766,-3.66 -17.566,-7.24 -27.217,-11.214 -1.363,4.868 -2.836,8.663 -3.445,12.591 -1.606,10.366 -3.084,20.765 -4.169,31.196 -3.457,33.215 -2.875,66.401 4.637,98.976 5.083,22.042 12.201,43.626 18.749,65.313 1.549,5.131 3.417,10.452 7.541,14.155 58.901,-33.864 117.454,-67.53 175.314,-100.798 z M 1936.247,1627.25 c -0.848,2.112 -1.484,3.388 -1.882,4.734 -6.4,21.642 -8.814,43.977 -10.446,66.321 -1.061,14.523 -0.57,29.2 -0.053,43.782 0.318,8.955 1.771,17.897 3.13,26.781 1.312,8.581 2.993,17.115 4.81,25.606 1.761,8.229 3.911,16.375 5.869,24.563 0.674,2.817 2.595,3.834 5.218,3.345 2.552,-0.476 5.082,-1.185 7.543,-2.023 11.319,-3.854 22.48,-8.228 33.934,-11.615 41.349,-12.225 82.802,-24.096 124.193,-36.176 9.954,-2.905 19.823,-6.1 28.882,-8.899 -1.415,-8.722 -2.613,-16.306 -3.906,-23.874 -0.192,-1.121 -1.012,-2.133 -1.219,-3.254 -0.307,-1.666 -0.669,-3.439 -0.41,-5.072 2.013,-12.696 1.988,-13.186 -9.677,-18.661 -24.823,-11.651 -49.784,-23.01 -74.622,-34.628 -33.827,-15.822 -67.578,-31.804 -101.407,-47.622 -3.055,-1.428 -6.436,-2.158 -9.957,-3.308 z m 529.976,135.849 c 3.818,1.431 7.25,3.016 10.845,4.014 18.494,5.137 37.115,9.834 55.533,15.226 34.131,9.991 68.164,20.32 102.212,30.593 9.11,2.748 18.127,5.799 26.972,8.642 19.081,-33.213 23.304,-160.531 6.689,-187.312 -5.505,2.617 -10.922,5.44 -16.531,7.812 -17.468,7.388 -34.969,14.7 -52.529,21.869 -39.978,16.322 -79.97,32.61 -120.045,48.693 -3.969,1.593 -6.702,3.756 -7.372,7.757 -1.14,6.802 -0.219,13.646 -2.019,20.688 -1.35,5.282 -0.789,11.329 -3.24,16.758 -0.649,1.438 -0.353,3.302 -0.515,5.26 z m 135.238,-277.328 c -8.577,7.863 -16.424,14.796 -23.982,22.031 -29.335,28.082 -58.621,56.215 -87.836,84.421 -12.182,11.761 -24.316,23.582 -36.124,35.714 -5.405,5.552 -5.087,8.509 -0.331,14.526 0.903,1.142 2.001,2.128 2.98,3.212 3.412,3.776 5.749,7.607 4.889,13.323 -0.79,5.246 0.941,10.118 5.801,13.672 4.473,3.271 5.242,8.106 3.562,13.38 -1.576,4.944 -1.254,9.681 1.848,14.023 64.348,-26.717 128.438,-53.326 193.547,-80.359 -12.879,-48.155 -32.36,-93.217 -64.354,-133.943 z m -591.794,-3.816 c -1.698,0.976 -2.331,1.149 -2.67,1.562 -28.87,35.204 -48.811,75.23 -63.449,118.069 -2.932,8.582 -2.049,10.275 6.32,14.222 19.784,9.331 39.677,18.43 59.475,27.73 35.633,16.739 71.229,33.556 106.84,50.342 4.92,2.319 9.837,4.642 15.632,7.377 1.16,-7.572 6.371,-13.116 2.689,-20.684 -1.927,-3.96 -0.26,-8.324 3.742,-10.618 4.258,-2.44 5.717,-6.071 4.656,-10.267 -1.582,-6.26 0.59,-10.767 4.983,-14.819 1.493,-1.377 2.911,-2.906 4.06,-4.575 4.223,-6.131 4.079,-8.267 -0.853,-13.817 -5.815,-6.544 -11.48,-13.241 -17.588,-19.503 -36.069,-36.979 -72.22,-73.879 -108.424,-110.727 -4.868,-4.955 -10.187,-9.468 -15.413,-14.292 z M 448.916,1700.898 c 0.452,-1.313 1.489,-2.911 1.468,-4.494 -0.133,-10.114 2.685,-19.512 6.352,-28.777 3.753,-9.482 6.959,-19.196 11.07,-28.514 3.676,-8.332 4.118,-8.198 -2.663,-14.894 -20.168,-19.914 -40.292,-39.872 -60.582,-59.662 -25.522,-24.892 -51.18,-49.644 -76.821,-74.414 -1.556,-1.503 -3.47,-2.635 -5.381,-4.061 -3.839,5.038 -7.394,9.297 -10.509,13.857 -21.734,31.809 -38.565,66.075 -50.374,102.722 -1.793,5.566 -5.216,11.267 -3.055,17.66 63.479,26.851 126.802,53.635 190.495,80.577 z m 1659.25,338.402 c 1.376,-1.589 2.604,-2.768 3.55,-4.141 3.634,-5.281 6.936,-10.806 10.792,-15.915 23.377,-30.966 46.938,-61.794 70.3,-92.772 10.534,-13.968 20.788,-28.149 31.078,-42.3 1.877,-2.581 3.589,-5.359 4.886,-8.266 1.622,-3.633 0.439,-5.591 -3.356,-6.233 -1.422,-0.241 -2.943,-0.313 -4.361,-0.092 -7.367,1.147 -12.301,-1.44 -14.974,-8.669 -1.454,-3.931 -4.185,-7.398 -8.933,-7.274 -7.532,0.196 -10.779,-4.32 -13.222,-10.49 -3.042,-7.68 -8.683,-9.606 -15.755,-5.365 -11.254,6.749 -22.489,13.547 -33.494,20.69 -36.458,23.665 -72.829,47.463 -109.187,71.28 -7.979,5.226 -15.767,10.743 -24.156,16.477 29.715,38.24 65.074,68.512 106.832,93.07 z M 546.616,1343.626 c 0.76,5.953 1.247,11.101 2.105,16.186 1.489,8.827 3.336,17.594 4.791,26.427 1.319,8.012 2.189,16.097 3.487,24.112 1.439,8.889 3.355,17.704 4.678,26.609 2.221,14.952 4.026,29.966 6.21,44.924 2.391,16.379 4.744,32.772 7.654,49.063 1.351,7.565 1.969,15.506 6.508,23.192 5.436,-5.398 11.794,-4.33 17.702,-3.273 4.213,0.754 7.848,0.363 11.877,-0.617 7.974,-1.94 16.085,-2.805 23.917,0.945 6.703,3.21 9.359,2.11 10.805,-5.502 2.821,-14.855 5.282,-29.78 7.761,-44.698 2.526,-15.197 4.892,-30.421 7.335,-45.632 2.026,-12.619 4.16,-25.221 6.065,-37.858 1.823,-12.095 3.287,-24.244 5.139,-36.334 1.758,-11.475 3.887,-22.894 5.707,-34.36 0.744,-4.686 -0.456,-6.307 -5.28,-7.093 -8.311,-1.352 -16.627,-2.85 -25.002,-3.601 -26.873,-2.407 -53.642,-0.091 -80.341,2.725 -7.124,0.753 -14.075,3.144 -21.118,4.785 z m 1714.287,-3.717 c 5.729,69.863 11.318,138.102 16.981,206.336 0.109,1.317 1.099,2.562 1.551,3.558 6.741,-0.559 13.032,-1.502 19.322,-1.489 6.785,0.014 13.585,0.765 20.348,1.478 9.772,1.031 20.233,-1.303 29.434,7.004 1.296,-3.617 2.628,-6.172 3.095,-8.877 1.04,-6.023 1.58,-12.13 2.446,-18.186 1.443,-10.089 3.07,-20.151 4.46,-30.247 2.224,-16.143 4.155,-32.329 6.517,-48.451 2.191,-14.964 4.799,-29.867 7.192,-44.803 1.148,-7.164 2.118,-14.359 3.363,-21.506 1.445,-8.298 3.438,-16.515 4.545,-24.853 0.674,-5.078 0.124,-10.318 0.124,-15.895 -39.293,-9.21 -78.635,-11.824 -119.378,-4.069 z M 282.896,1871.277 c 6.787,24.133 48.048,83.793 70.805,103.179 46.968,-47.282 93.959,-94.587 141.242,-142.186 -17.457,-17.722 -27.753,-38.956 -38,-60.693 -58.317,33.406 -115.974,66.434 -174.047,99.7 z m 131.106,-470.6 c -31.087,19.841 -56.79,44.332 -81.191,71.762 49.971,48.746 99.207,96.775 149.33,145.668 13.413,-22.288 34.304,-35.196 54.03,-50.595 -40.694,-55.572 -81.296,-111.019 -122.169,-166.835 z m 92.028,442.632 c -47.587,47.808 -94.242,94.68 -141.277,141.934 29.346,30.432 64.054,51.316 100.542,70.332 1.04,-1.638 1.881,-2.786 2.542,-4.03 14.389,-27.047 28.826,-54.069 43.111,-81.171 15.104,-28.656 30.086,-57.377 45.034,-86.114 1.25,-2.403 1.846,-5.146 2.831,-7.973 -19.522,-8.364 -37.263,-17.682 -52.783,-32.978 z m 1852.127,245.515 c 0,-6.574 0.275,-11.502 -0.046,-16.392 -1.72,-26.196 -3.688,-52.376 -5.371,-78.575 -1.176,-18.299 -1.966,-36.622 -3.054,-54.926 -0.88,-14.798 -1.77,-29.6 -3.06,-44.365 -0.31,-3.55 -2.222,-6.96 -3.594,-11.013 -7.08,3.467 -14.24,2.756 -20.431,6.889 -2.613,1.744 -8.018,0.749 -11.527,-0.616 -6.098,-2.372 -11.859,-3.022 -17.663,-0.073 -4.339,2.205 -8.209,2.056 -12.409,-0.346 -3.718,-2.127 -7.681,-4.001 -12.594,-3.209 -0.525,1.884 -1.275,3.5 -1.392,5.161 -1.149,16.281 -2.203,32.569 -3.262,48.856 -1.156,17.77 -2.151,35.551 -3.47,53.309 -1.598,21.509 -3.412,43.002 -5.24,64.494 -0.592,6.955 -1.544,13.878 -2.281,20.821 -0.184,1.736 -0.253,3.494 -0.226,5.24 0.052,3.394 1.572,5.396 5.206,5.733 8.711,0.809 17.389,2.247 26.114,2.583 17.132,0.659 34.269,2.544 51.375,-1.563 7.205,-1.729 14.911,-1.373 22.925,-2.008 z m 80.71,-469.57 c 51.219,-49.078 101.657,-97.407 152.406,-146.034 -22.545,-27.754 -48.564,-49.962 -76.818,-70.367 -5.182,6.743 -10.026,12.913 -14.729,19.189 -29.406,39.241 -58.792,78.498 -88.155,117.771 -5.417,7.244 -10.98,14.402 -15.972,21.933 -6.232,9.401 -5.36,12.56 4.123,18.154 2.48,1.463 5.102,2.847 7.838,3.683 5.211,1.593 8.242,4.942 9.926,10.014 0.686,2.068 1.932,5.155 3.473,5.531 7.856,1.918 11.306,7.553 13.941,14.346 0.7,1.811 2.227,3.301 3.967,5.78 z m 157.789,327.825 c -4.43,-3.237 -8.499,-6.458 -12.807,-9.32 -31.831,-21.149 -63.69,-42.258 -95.583,-63.315 -17.274,-11.405 -34.625,-22.693 -51.958,-34.007 -1.95,-1.273 -3.927,-2.56 -6.037,-3.52 -8.344,-3.796 -10.987,-2.808 -12.989,6.164 -1.66,7.439 -6.4,10.707 -13.103,12.286 -1.699,0.4 -3.571,0.308 -5.142,0.969 -9.01,3.787 -12.948,8.067 -6.753,17.077 1.65,2.4 3.092,4.945 4.781,7.314 7.616,10.681 15.325,21.296 22.931,31.984 24.345,34.212 48.605,68.485 73.043,102.631 3.998,5.586 8.732,10.645 13.266,16.115 34.316,-24.352 65.412,-50.446 90.351,-84.378 z M 1977.037,994.591 c 3.819,2.637 7.242,4.106 9.346,6.661 3.233,3.927 6.959,4.799 11.608,4.349 2.897,-0.281 5.878,0.206 8.755,-0.166 10.037,-1.297 16.205,3.437 19.645,12.369 6.709,17.42 13.379,34.857 19.839,52.37 0.85,2.304 1.455,5.875 0.286,7.514 -2.901,4.071 -0.854,7.212 0.56,10.618 13.642,32.879 27.306,65.748 41.037,98.589 0.541,1.294 1.813,2.282 2.257,2.82 0,-8.894 -0.184,-17.898 0.061,-26.891 0.183,-6.725 2.592,-12.682 8.493,-16.459 4.192,-2.683 4.632,-5.732 3.37,-10.404 -3.545,-13.134 -7.023,-26.336 -9.474,-39.704 -2.724,-14.855 -4.588,-29.89 -6.26,-44.91 -1.449,-13.024 -2.635,-26.122 -2.992,-39.213 -0.55,-20.147 0.077,-40.325 -0.478,-60.471 -0.56,-20.361 -0.584,-40.83 -6.379,-60.689 -2.275,-7.798 -4.503,-15.552 -9.673,-23.324 -26.651,38.471 -65.117,59.29 -106.894,75.793 0.634,2.066 0.927,3.452 1.471,4.73 4.228,9.927 8.705,19.753 12.683,29.778 2.082,5.244 5.822,10.344 2.739,16.64 z M 625.548,2054.365 c -2.571,-2.239 -4.255,-3.505 -5.685,-5.013 -1.161,-1.224 -1.919,-3.845 -3.026,-3.944 -7.599,-0.682 -15.451,-3.566 -22.528,2.217 -5.538,4.525 -9.178,3.258 -9.936,-3.669 -0.748,-6.826 -3.209,-12.294 -9.088,-16.064 -0.964,-0.618 -1.749,-1.552 -2.524,-2.422 -4.234,-4.756 -4.839,-8.529 -0.521,-13.153 3.83,-4.101 4.511,-8.373 4.254,-13.557 -0.91,-18.355 -1.525,-36.724 -2.287,-55.086 -0.689,-16.599 -1.399,-33.197 -2.175,-49.792 -0.086,-1.847 -0.67,-3.67 -1.177,-6.298 -30.723,58.645 -60.938,116.319 -91.548,174.748 55.979,23.698 113.614,35.956 174.114,30.371 35.985,-3.322 71.054,-11.533 105.665,-25.5 -3.827,-9.721 -8.651,-17.538 -14.949,-24.388 -0.936,-1.018 -4.195,-1.225 -5.42,-0.394 -3.047,2.068 -5.68,4.822 -8.218,7.546 -2.346,2.518 -5.75,4.046 -7.239,0.861 -3.874,-8.291 -10.854,-6.491 -17.332,-6.544 -4.448,-0.036 -8.418,0.474 -10.469,5.864 -1.494,3.924 -4.832,3.702 -7.273,0.23 -1.141,-1.623 -1.95,-4.682 -3.183,-4.831 -5.75,-0.695 -11.594,-0.676 -17.407,-0.765 -3.955,-0.061 -5.058,3.372 -6.939,5.906 -0.792,1.066 -2.146,1.714 -3.886,3.041 -3.371,-6.638 -7.857,-10.839 -15.585,-10.344 -7.01,0.447 -13.52,1.071 -15.638,10.98 z M 2607.007,1934.31 c 21.986,-29.706 39.474,-61.841 51.402,-97.44 -2.256,-1.088 -3.464,-1.87 -4.788,-2.277 -11.401,-3.513 -22.832,-6.93 -34.237,-10.432 -19.488,-5.984 -38.886,-12.275 -58.464,-17.948 -22.063,-6.393 -44.274,-12.282 -66.441,-18.314 -8.129,-2.212 -16.217,-4.853 -24.503,-6.152 -14.099,-2.21 -14.347,-1.676 -14.073,12.29 0.094,4.795 -1.105,8.398 -6.441,9.983 -2.219,0.659 -4.422,2.807 -5.712,4.857 -2.603,4.136 -4.575,8.668 -6.892,13.204 56.738,37.422 113.084,74.589 170.149,112.229 z M 1950.029,922.547 c 4.845,-2.366 8.915,-4.561 13.146,-6.384 20.771,-8.95 40.014,-20.327 57.406,-34.884 12.074,-10.105 21.481,-22.109 28.575,-36.131 2.348,-4.64 1.882,-8.095 -1.466,-11.855 -6.014,-6.753 -11.637,-13.855 -17.657,-20.603 -21.837,-24.478 -48.625,-42.404 -76.726,-58.197 -0.976,0.468 -1.571,0.626 -2.007,0.981 -15.379,12.523 -32.323,16.944 -51.498,10.059 -2.466,-0.885 -4.956,-1.809 -7.516,-2.284 -1.589,-0.295 -3.685,-0.335 -4.941,0.468 -6.574,4.203 -12.951,8.713 -19.775,13.374 2.772,6.312 5.165,12.504 8.26,18.322 0.859,1.616 3.753,2.241 5.803,3.11 2.909,1.232 7.082,1.408 8.639,3.547 5.063,6.953 14.901,11.074 13.744,21.989 -0.134,1.27 0.993,2.697 1.608,4.018 9.736,20.9 19.453,41.808 29.242,62.684 4.917,10.487 9.97,20.911 15.163,31.786 z m 42.535,1012.045 c 6.655,-4.69 12.036,-8.668 17.603,-12.369 18.22,-12.114 36.48,-24.169 54.778,-36.167 16.108,-10.562 32.311,-20.978 48.427,-31.527 14.637,-9.581 29.33,-19.086 43.773,-28.954 8.237,-5.628 8.238,-8.182 1.396,-15.44 -1,-1.061 -2.04,-2.103 -3.17,-3.02 -5.688,-4.619 -9.316,-9.729 -8.311,-17.909 0.733,-5.965 -2.584,-8.225 -8.775,-7.824 -3.479,0.225 -7.051,0.438 -10.378,1.375 -30.18,8.503 -60.351,17.041 -90.452,25.817 -26.25,7.653 -52.459,15.457 -78.556,23.609 -5.015,1.567 -11.233,0.842 -14.906,5.975 10.559,34.822 27.076,66.351 48.571,96.434 z m -1247.466,63.036 c 2.289,-0.496 3.99,-0.688 5.569,-1.235 18.456,-6.392 36.874,-12.895 55.343,-19.251 14.036,-4.83 14.9,-4.362 20.533,9.617 3.277,8.13 2.037,10.915 -6.218,13.828 -20.898,7.377 -41.802,14.739 -62.703,22.106 -5.254,1.852 -5.942,3.498 -2.994,8.272 5.362,8.684 10.961,17.223 16.28,25.934 2.315,3.792 4.819,4.09 8.742,2.267 37.778,-17.552 73.747,-37.785 103.288,-67.884 5.438,-5.541 5.805,-6.435 0.505,-11.883 -8.95,-9.2 -17.977,-18.328 -27.055,-27.401 -15.275,-15.266 -30.628,-30.452 -45.922,-45.699 -4.534,-4.52 -9.137,-8.126 -16.194,-5.02 -2.289,1.007 -5.163,0.763 -7.78,0.934 -8.984,0.587 -17.971,1.153 -26.961,1.636 -11.354,0.61 -22.714,1.598 -34.07,1.578 -16.855,-0.03 -28.769,8.4 -37.677,21.49 -4.57,6.717 -5.452,15.665 4.57,21.925 2.96,1.849 5.798,4.033 8.987,5.346 6.987,2.875 14.099,5.484 21.278,7.844 8.967,2.948 15.183,8.238 17.419,17.788 1.375,5.874 3.283,11.624 5.06,17.808 z m 1614.319,-118.643 c 4.606,68.76 6.228,137.143 14.221,206.041 3.569,-0.422 6.698,-0.532 9.708,-1.188 35.664,-7.774 69.002,-21.504 100.561,-39.673 7.712,-4.44 7.682,-5.467 2.383,-12.673 -11.237,-15.282 -22.49,-30.556 -33.522,-45.986 -23.764,-33.241 -47.378,-66.59 -71.095,-99.864 -2.512,-3.524 -4.696,-8.551 -8.138,-9.78 -3.343,-1.195 -8.111,1.605 -14.118,3.123 z M 533.272,1345.473 c -38.93,10.552 -73.99,25.53 -107.245,46.094 1.34,2.218 2.104,3.761 3.117,5.12 15.171,20.351 30.566,40.539 45.528,61.043 23.225,31.828 46.138,63.884 69.252,95.793 2.468,3.408 5.395,6.483 8.115,9.72 3.049,-1.82 4.91,-3.332 7.04,-4.124 5.039,-1.873 6.137,-4.754 5,-10.166 -2.51,-11.947 -4.14,-24.086 -5.954,-36.173 -3.027,-20.169 -5.814,-40.375 -8.901,-60.536 -2.16,-14.107 -4.683,-28.157 -6.984,-42.243 -1.123,-6.875 -2.198,-13.76 -3.142,-20.661 -1.927,-14.083 -3.749,-28.179 -5.826,-43.867 z m 1588.461,700.014 c 2.799,1.828 4.62,3.198 6.598,4.282 31.698,17.389 65.492,28.905 100.909,35.809 10.57,2.061 10.679,1.972 11.455,-8.668 1.018,-13.955 1.753,-27.931 2.831,-41.881 1.549,-20.036 3.518,-40.042 4.905,-60.089 1.931,-27.903 3.489,-55.833 5.209,-83.75 0.072,-1.164 0.533,-2.451 0.183,-3.463 -0.714,-2.065 -1.399,-4.929 -2.958,-5.685 -1.478,-0.716 -4.615,0.228 -6.041,1.523 -3.211,2.917 -5.998,6.363 -8.636,9.838 -32.81,43.233 -65.583,86.494 -98.307,129.792 -5.403,7.15 -10.524,14.513 -16.148,22.292 z m 274.142,-697.631 c -2.31,14.278 -4.466,26.87 -6.361,39.501 -2.116,14.103 -3.899,28.255 -6,42.36 -3.34,22.424 -6.812,44.828 -10.252,67.238 -2.771,18.056 -5.598,36.103 -8.335,54.164 -0.259,1.71 -0.173,3.499 -0.046,5.237 0.313,4.292 2.768,6.889 6.752,8.233 4.374,1.475 5.426,-2.099 7.232,-4.633 13.382,-18.773 26.474,-37.764 40.254,-56.241 23.926,-32.079 48.288,-63.832 72.449,-95.736 3.276,-4.326 6.448,-8.732 10.173,-13.785 -33.812,-19.688 -67.536,-37.05 -105.866,-46.338 z m -375.701,120.45 c 8.645,9.054 16.389,17.358 24.343,25.456 20.648,21.024 41.515,41.835 62.055,62.964 17.903,18.417 35.452,37.179 53.246,55.703 1.678,1.747 3.993,2.882 6.785,4.845 1.184,-3.222 1.616,-5.544 2.809,-7.367 1.651,-2.523 3.46,-5.371 5.937,-6.839 5.651,-3.35 6.257,-3.956 3.745,-9.949 -2.03,-4.843 -4.422,-9.536 -6.411,-14.395 -9.178,-22.414 -17.989,-44.983 -27.46,-67.272 -14.492,-34.108 -29.403,-68.039 -44.19,-102.021 -0.978,-2.247 -2.416,-4.295 -3.882,-6.859 -28.369,19.298 -53.799,40.472 -76.977,65.734 z m -879.614,154.51 c 26.891,-3.991 52.943,-7.858 79.693,-11.828 -1.407,-53.957 -16.447,-103.387 -36.169,-152.178 -16.134,8.063 -31.515,15.616 -46.77,23.416 -12.984,6.638 -25.83,13.547 -38.717,20.373 -2.123,1.125 -4.763,1.98 -4.511,5.472 1.333,0.137 2.188,0.407 2.975,0.276 7.537,-1.255 7.593,-1.298 10.211,5.426 2.847,7.314 5.675,14.64 8.276,22.043 0.698,1.986 0.541,4.273 0.767,6.336 -3.588,1.212 -6.257,2.114 -8.823,2.981 -1.942,6.705 2.457,10.686 4.709,15.301 9.874,-1.268 11.121,-0.526 13.763,8.047 1.799,5.837 3.632,11.667 5.234,17.56 1.59,5.85 0.794,6.914 -5.143,8.325 -1.601,0.381 -3.127,1.079 -5.714,1.996 1.42,5.294 2.731,10.183 4.241,15.811 9.767,-3.662 13.13,2.447 15.978,10.643 z M 693.609,1342.858 c -0.706,2.587 -1.224,3.944 -1.437,5.347 -2.443,16.072 -4.841,32.15 -7.246,48.228 -1.159,7.744 -2.206,15.507 -3.486,23.231 -1.377,8.31 -3.184,16.553 -4.416,24.883 -2.214,14.959 -3.856,30.007 -6.253,44.935 -3.131,19.497 -6.791,38.908 -10.163,58.366 -1.053,6.076 0.233,7.948 6.581,10.245 5.985,2.165 7.367,1.658 10.779,-3.553 32.121,-49.052 64.264,-98.09 96.392,-147.138 6.363,-9.713 12.691,-19.449 19.438,-29.793 -32.281,-16.211 -64.781,-28.356 -100.189,-34.751 z m 434.232,494.546 c 15.784,2.316 30.183,-2.105 46.142,-3.216 -2.469,-3.462 -3.804,-5.677 -5.467,-7.61 -9.417,-10.945 -17.166,-23.01 -22.272,-36.455 -2.522,-6.64 -6.017,-8.385 -12.876,-8.399 -63.036,-0.128 -126.075,1.663 -189.109,-1.665 -31.165,-1.646 -62.45,-1.019 -93.681,-1.408 -3.327,-0.042 -6.654,-0.01 -11.326,-0.01 1.763,2.036 2.327,3.054 3.187,3.627 34.735,23.141 69.479,46.271 104.284,69.307 3.639,2.408 7.825,3.986 11.482,6.371 6.271,4.09 12.533,1.12 18.709,0.22 4.933,-0.719 5.607,-5.609 6.894,-9.319 3.722,-10.734 7.055,-21.603 10.614,-32.394 3.673,-11.133 3.711,-11.088 15.174,-11.258 3.5,-0.052 7.009,-0.604 10.49,-0.441 3.633,0.17 7.238,0.927 11.704,1.544 -3.321,15.728 -6.407,30.341 -9.601,45.467 1.992,0.207 3.387,0.478 4.782,0.477 8.717,-0.01 8.941,0.036 11.282,-8.365 2.814,-10.093 5.251,-20.292 7.747,-30.471 1.652,-6.737 2.505,-7.519 9.415,-7.571 4.382,-0.033 8.763,-0.071 13.145,-0.051 20.448,0.095 40.896,0.158 61.343,0.35 5.659,0.053 7.247,1.686 5.877,6.724 -1.809,6.656 -4.358,13.109 -6.561,19.659 -0.439,1.305 -0.754,2.653 -1.378,4.882 z M 997.499,1668.797 c -72.25,8.588 -142.578,16.948 -213.402,25.366 0,4.703 0,8.272 0,12.78 7.392,0 14.064,-0.05 20.735,0.01 105.13,0.895 210.259,1.808 315.389,2.697 4.671,0.04 9.344,-0.104 14.016,-0.156 5.187,-0.058 8.299,-2.176 10.445,-7.383 7.368,-17.883 16.993,-34.517 29.644,-49.286 1.001,-1.169 1.6,-2.683 2.558,-4.336 -4.978,0.326 -9.216,0.47 -13.422,0.909 -6.338,0.661 -12.776,1.007 -18.949,2.443 -7.083,1.648 -7.475,2.675 -6.243,9.808 1.67,9.669 0.724,19.049 -2.011,28.324 -45.497,0 -90.576,0 -135.736,0 -0.999,-6.99 -1.883,-13.182 -3.024,-21.173 z m -71.316,191.826 c 0.179,-0.544 0.357,-1.088 0.536,-1.632 -4.348,-3.207 -8.572,-6.6 -13.063,-9.593 -31.066,-20.699 -62.716,-40.578 -93.033,-62.317 -12.152,-8.713 -23.982,-11.478 -38.151,-10.306 -5.872,0.485 -8.666,2.627 -11.16,7.599 -5.737,11.436 -11.919,22.666 -18.371,33.716 -2.094,3.586 -2.687,6.118 0.429,9.194 13.061,12.892 26.252,25.664 38.941,38.915 5.471,5.713 11.747,5.491 18.481,4.9 19.649,-1.725 39.3,-3.428 58.942,-5.23 3.424,-0.314 6.806,-1.08 10.211,-1.616 2.28,-0.359 4.556,-0.828 6.852,-0.989 13.125,-0.924 26.256,-1.769 39.386,-2.641 z m 1330.902,-306.551 c 7.797,-3.01 8.519,-4.159 7.798,-11.471 -0.858,-8.698 -1.894,-17.379 -2.711,-26.08 -1.035,-11.029 -1.844,-22.079 -2.906,-33.105 -1.226,-12.737 -2.822,-25.44 -3.891,-38.189 -1.313,-15.658 -2.276,-31.346 -3.324,-47.025 -0.292,-4.363 -0.219,-8.752 -0.546,-13.111 -0.542,-7.234 -1.21,-14.459 -1.941,-21.676 -0.75,-7.399 -0.292,-15.094 -4.607,-21.672 -41.892,8.266 -59.618,13.593 -66.648,20.156 0.351,1.216 0.615,2.642 1.163,3.948 7.667,18.298 15.254,36.631 23.097,54.853 12.801,29.742 25.787,59.406 38.656,89.118 1.035,2.39 2.45,4.88 2.546,7.368 0.532,13.653 8.741,24.246 13.314,36.886 z m -441.383,-532.444 c -9.357,2.139 -16.082,6.105 -20.6,12.982 -4.323,6.58 -8.322,13.414 -11.95,20.402 -14.941,28.779 -29.745,57.63 -44.494,86.509 -44.78,87.676 -89.521,175.371 -134.224,263.086 -1.983,3.89 -3.503,8.024 -5.11,12.095 -1.327,3.363 -0.908,6.534 2.473,8.354 3.431,1.848 7.017,1.349 9.589,-1.617 1.878,-2.166 3.228,-4.848 4.531,-7.443 3.536,-7.043 6.82,-14.214 10.384,-21.243 28.648,-56.506 57.289,-113.016 86.036,-169.472 14.049,-27.59 28.237,-55.11 42.513,-82.584 12.793,-24.621 26.184,-48.94 38.543,-73.775 6.605,-13.273 14.342,-25.388 25.421,-35.267 1.959,-1.747 4.817,-3.554 3.025,-6.404 -1.527,-2.428 -4.344,-4.045 -6.137,-5.623 z m -610.422,718.797 c -0.745,29.07 22.655,60.034 61.173,59.475 32.327,-0.469 58.759,-26.936 58.515,-58.041 -0.269,-34.381 -24.936,-60.256 -59.514,-60.909 -39.084,-0.737 -60.129,30.356 -60.174,59.475 z m -243.126,149.214 c -46.022,3.045 -90.509,5.989 -134.996,8.932 -0.281,0.744 -0.561,1.487 -0.842,2.231 24.758,24.78 49.517,49.559 74.669,74.732 3.521,-3.908 6.653,-7.303 9.697,-10.776 17.921,-20.444 34.385,-41.955 47.753,-65.7 1.458,-2.59 2.224,-5.571 3.719,-9.419 z M 785.808,1663.211 c 0.253,0.603 0.505,1.205 0.758,1.808 0.834,0.134 1.704,0.493 2.498,0.368 16.61,-2.603 33.327,-4.702 49.77,-8.121 9.555,-1.987 19.241,-4.997 27.873,-9.467 33.117,-17.147 65.834,-35.067 98.694,-52.712 2.311,-1.241 4.825,-2.291 6.757,-3.985 1.317,-1.155 2.88,-3.664 2.444,-4.902 -2.062,-5.856 -3.608,-12.093 -7.874,-16.74 -60.651,31.429 -120.785,62.59 -180.92,93.751 z m 113.37,-16.396 c 0.234,0.826 0.468,1.652 0.702,2.478 30.082,-3.391 60.341,-5.306 90.633,-10.936 -1.987,-12.654 -5.071,-23.927 -10.175,-34.986 -27.588,14.768 -54.374,29.106 -81.16,43.444 z M 2328.435,1824.8 c -4.507,-14.864 -10.421,-28.696 -17.317,-42.089 -0.898,-1.744 -4.078,-2.694 -6.382,-3.214 -1.872,-0.422 -4.056,0.739 -6.028,0.523 -5.155,-0.565 -7.036,2.264 -8.628,6.601 -3.504,9.538 -7.568,18.869 -11.324,28.315 -1.456,3.661 -2.698,7.407 -4.255,11.716 18.375,3.908 35.481,5.006 53.934,-1.852 z M 1074.231,879.312 c -10.452,-4.091 -100.063,16.471 -130.428,29.798 7.111,7.552 16.418,10.842 24.82,15.301 3.334,-2.477 6.184,-4.966 9.374,-6.89 6.743,-4.065 13.561,-8.034 20.544,-11.665 5.945,-3.092 11.989,-6.164 18.3,-8.343 11.375,-3.927 22.983,-7.277 34.553,0.404 7.787,-6.343 15.224,-12.402 22.837,-18.605 z m -299.982,994.277 c 0.267,-0.807 0.533,-1.614 0.8,-2.421 -11.086,-12.926 -23.635,-24.324 -36.826,-34.966 -10.983,8.295 -21.363,16.134 -32.277,24.377 1.417,2.957 3.097,5.954 4.319,9.128 2.029,5.269 5.155,7.553 11.25,7.04 14.76,-1.242 29.584,-1.71 44.38,-2.516 2.789,-0.152 5.57,-0.425 8.354,-0.642 z M 2257.484,1822.1 c 4.304,-11.671 8.957,-22.048 11.944,-32.884 5.202,-18.874 7.936,-13.151 -8.929,-24.292 -0.446,-0.294 -1.114,-0.252 -1.657,-0.363 -12.001,10.385 -23.98,20.75 -36.135,31.268 9.024,11.903 20.792,19.146 34.777,26.271 z m 124.079,-27.241 c -3.048,-2.829 -4.876,-4.624 -6.807,-6.301 -7.704,-6.694 -15.559,-13.219 -23.131,-20.059 -8.273,-7.473 -8.919,-7.616 -17.279,-0.361 -1.101,0.955 -2.148,1.974 -3.212,2.971 -2.209,2.071 -2.408,4.36 -1.197,7.126 4.556,10.411 8.875,20.928 13.511,31.303 1.476,3.303 3.663,6.288 6.143,10.458 10.958,-8.615 20.937,-16.461 31.972,-25.137 z m -1769.35,92.064 c -9.808,-0.988 -18.374,-1.852 -27.096,-1.391 0.681,11.624 1.257,22.331 1.951,33.03 0.678,10.469 1.477,20.931 2.222,31.396 3.43,-7.498 9.19,-12.222 15.132,-16.871 3.879,-3.035 7.518,-6.385 11.195,-9.67 3.609,-3.225 4.594,-7.226 3.309,-11.874 -2.233,-8.071 -4.409,-16.157 -6.713,-24.62 z m 390.931,-336.141 c 1.246,3.56 2.216,6.829 3.516,9.962 7.706,18.583 14.585,37.406 18.58,57.215 1.226,6.081 3.602,11.931 5.54,18.174 4.775,-1.208 8.326,-2.106 11.716,-2.964 0.965,-19.175 -16.388,-75.528 -27.781,-87.735 -3.536,1.635 -7.156,3.308 -11.571,5.348 z m 1406.231,193.806 c -5.331,-1.669 -9.682,-3.363 -14.187,-4.37 -8.203,-1.833 -16.447,-3.716 -24.778,-4.629 -3.403,-0.372 -7.438,1.098 -10.535,2.868 -3.704,2.116 -4.015,6.217 -1.581,9.885 1.121,1.689 2.523,3.227 3.971,4.659 8.3,8.205 16.618,16.393 25.02,24.493 1.357,1.308 3.165,2.149 5.131,3.448 9.069,-10.732 13.452,-22.884 16.959,-36.354 z m -197.539,39.072 c 10.454,-10.026 20.25,-19.416 30.034,-28.817 0.626,-0.602 1.168,-1.293 1.739,-1.952 3.851,-4.445 0.628,-8.165 -1.365,-11.886 -1.763,-3.291 -3.983,-5.132 -8.441,-3.857 -8.88,2.54 -18.025,4.141 -26.959,6.51 -4.326,1.147 -8.425,3.151 -13.757,5.202 6.494,11.931 10.468,23.948 18.749,34.8 z m 132.426,-167.798 c -5.039,11.407 -9.931,21.938 -14.341,32.667 -2.756,6.705 6.292,18.041 13.506,17.245 1.3,-0.143 2.735,-0.979 3.705,-1.913 9.202,-8.865 18.323,-17.812 27.426,-26.779 0.325,-0.32 0.206,-1.092 0.473,-2.8 -9.559,-6.46 -19.377,-13.324 -30.769,-18.42 z m -63.418,-5.568 c 3.253,8.634 6.311,16.739 9.361,24.846 3.452,9.175 7.549,11.696 16.892,10.336 3.7,-0.539 6.26,-2.176 7.656,-6.052 2.849,-7.907 6.216,-15.627 9.321,-23.443 0.696,-1.75 1.196,-3.579 2.058,-6.199 -15.6,-1.936 -30.312,-5.699 -45.288,0.512 z m 127.595,71.834 c -6.514,-11.778 -12.748,-23.049 -19.569,-35.381 -12.249,11.877 -25.089,21.153 -34.879,33.539 5.43,6.078 6.985,6.942 12.318,6.39 13.501,-1.398 26.99,-2.906 42.13,-4.548 z m 4.628,41.839 c 0,-6.714 0.184,-11.895 -0.046,-17.057 -0.289,-6.472 -1.269,-7.786 -7.968,-7.444 -12.471,0.637 -24.921,1.847 -37.334,3.232 -1.704,0.19 -4.076,2.498 -4.542,4.25 -1.887,7.083 2.863,13.144 10.091,13.677 6.108,0.45 12.21,0.992 18.313,1.507 6.636,0.558 13.269,1.132 21.486,1.835 z M 1965.214,725.596 c 1.063,7.02 1.021,7.092 6.787,10.439 25.009,14.519 48.55,30.997 69.289,51.294 3.608,3.531 7.663,6.607 11.897,10.222 -5.234,-15.808 -14.492,-28.49 -26.807,-39.022 -13.836,-11.834 -29.879,-20.128 -46.243,-27.778 -4.37,-2.043 -9.156,-3.195 -14.923,-5.155 z m -402.234,1017.52 c -7.624,-0.223 -15.684,7.725 -15.7,15.481 -0.016,7.817 7.62,16.896 14.459,17.189 8.107,0.348 16.343,-7.487 16.641,-15.831 0.3,-8.459 -7.143,-16.598 -15.4,-16.839 z m 671.737,-25.013 c 2.033,-7.979 -0.056,-13.697 -2.824,-19.202 -2.589,-5.148 -5.302,-6.354 -10.703,-4.347 -9.003,3.345 -17.915,6.951 -26.758,10.702 -2.143,0.909 -3.865,2.811 -7.332,5.427 16.845,4.874 32.147,4.959 47.617,7.42 z m -13.347,-39.745 c -1.81,-9.025 -5.479,-16.902 -11.217,-25.243 -7.437,12.913 -14.065,24.702 -15.715,40.438 10.016,-5.652 18.304,-10.327 26.932,-15.195 z m 171.684,-55.285 c 0.992,-3.161 2.274,-5.108 1.754,-5.98 -1.74,-2.92 -3.642,-6.169 -6.352,-8.009 -8.656,-5.877 -17.66,-11.253 -26.64,-16.638 -1.838,-1.102 -4.154,-1.406 -6.052,-2.015 -2.25,2.969 -2.031,5.121 0.538,6.434 13.135,6.716 26.605,12.896 36.752,26.208 z m -1811.085,-7.474 c -0.713,3.624 4.146,6.938 -0.1,9.244 -3.732,2.027 -5.254,-2.245 -7.656,-4.084 -1.672,-1.28 -4.56,-2.914 -5.867,-2.273 -1.943,0.953 -3.776,3.61 -4.231,5.834 -1.284,6.277 4.124,10.87 10.263,8.656 4.842,-1.746 9.446,-4.246 13.965,-6.755 2.906,-1.614 3.958,-7.302 1.973,-10.167 -2.336,-3.375 -5.23,-2.981 -8.347,-0.455 z m -34.8,35.305 c 6.405,-2.728 10.53,-6.275 12.038,-10.456 0.543,-1.505 0.862,-3.527 0.298,-4.913 -1.678,-4.126 -8.982,-5.793 -13.836,-3.463 -4.977,2.389 -6.047,4.996 -3.604,10.459 1.348,3.012 3.44,5.691 5.104,8.373 z m -16.022,23.843 c 3.04,-4.908 5.829,-8.351 7.366,-12.283 0.941,-2.408 0.802,-5.99 -0.356,-8.286 -1.667,-3.305 -9.311,-2.617 -13.554,0.666 -4.074,3.152 -4.989,7.467 -1.927,11.386 2.102,2.691 4.822,4.899 8.471,8.517 z m -9.575,21.935 c 4.276,-3.686 4.497,-8.425 3.781,-12.938 -0.333,-2.098 -2.463,-4.772 -4.414,-5.514 -2.028,-0.771 -5.548,-0.378 -7.157,0.988 -6.905,5.864 -4.861,14.18 3.824,16.79 1.333,0.4 2.764,0.477 3.966,0.674 z M 2336.133,1849.2 c -9.011,-1.321 -17.771,-1.111 -26.307,1.206 -3.01,0.818 -3.219,3.591 -1.783,6.734 10.045,-0.064 20.295,1.126 28.09,-7.94 z M 507.602,1719.603 c 7.259,2.653 10.813,2.421 12.84,-0.721 2.007,-3.11 1.741,-10.104 -0.671,-12.34 -2.899,-2.688 -6.711,-3.11 -9.651,-1.027 -5.194,3.679 -3.613,9.101 -2.518,14.088 z m 1723.109,116.865 c 0.365,-0.608 0.73,-1.216 1.095,-1.825 -5.848,-5.944 -11.664,-11.921 -17.566,-17.811 -1.68,-1.677 -4.093,-3.5 -5.885,-1.009 -1.001,1.392 -0.931,4.863 0.143,6.22 5.782,7.3 12.581,13.306 22.213,14.425 z M 510.084,1733.651 c -0.183,2.614 -0.669,4.651 -0.39,6.578 0.597,4.11 6.002,8.273 9.274,7.473 3.596,-0.879 6.35,-7.044 5.25,-11.754 -1.131,-4.844 -3,-5.624 -9.225,-3.822 -1.382,0.401 -2.749,0.853 -4.909,1.525 z m 1864.367,97.251 c 4.753,3.668 8.107,1.199 10.828,-1.285 3.782,-3.453 7.13,-7.427 10.279,-11.477 0.459,-0.591 -0.886,-3.214 -2.013,-4.172 -0.665,-0.564 -2.948,-0.163 -3.807,0.594 -5.027,4.426 -9.876,9.055 -14.695,13.709 -0.487,0.472 -0.373,1.565 -0.592,2.631 z m -85.422,-252.132 c -4.001,0.791 -8.283,1.589 -12.542,2.498 -2.38,0.508 -4.72,1.382 -4.302,4.453 0.436,3.211 3.127,3.166 5.417,2.897 5.773,-0.679 11.537,-1.498 17.249,-2.561 1.064,-0.198 2.554,-1.76 2.607,-2.758 0.058,-1.093 -1.08,-2.809 -2.131,-3.275 -1.796,-0.797 -3.931,-0.832 -6.298,-1.254 z m 7.479,278.409 c 0.375,-0.785 0.75,-1.571 1.124,-2.356 -1.776,-1.491 -3.393,-3.98 -5.356,-4.293 -6.843,-1.09 -13.802,-1.493 -20.729,-1.971 -0.923,-0.064 -2.601,0.81 -2.734,1.485 -0.235,1.195 0.033,3.275 0.824,3.741 2.45,1.445 5.19,3.042 7.917,3.245 6.287,0.468 12.632,0.149 18.954,0.149 z m 39.258,-268.282 c 0.111,-4.238 -1.69,-6.19 -4.781,-6.958 -4.19,-1.04 -8.408,-2.046 -12.673,-2.667 -2.236,-0.326 -4.686,-0.129 -6.868,0.461 -1.399,0.378 -2.487,1.904 -3.715,2.915 1.385,1.163 2.604,2.953 4.187,3.372 4.716,1.247 9.547,2.159 14.386,2.802 3.008,0.4 6.114,0.075 9.464,0.075 z M 603.705,1625.67 c 4.182,-1.514 7.87,-1.978 10.241,-3.993 1.798,-1.528 2.653,-5.085 2.471,-7.634 -0.091,-1.271 -3.318,-2.88 -5.354,-3.348 -7.265,-1.672 -9.522,0.499 -8.824,8.06 0.155,1.678 0.688,3.323 1.466,6.915 z m 1564.901,138.316 c 2.323,5.27 4.14,10.042 6.571,14.478 0.67,1.224 3.172,1.444 4.833,2.124 0.477,-1.515 1.602,-3.17 1.31,-4.519 -0.965,-4.462 -2.144,-8.935 -3.865,-13.149 -0.704,-1.725 -3.005,-2.798 -4.579,-4.168 -1.273,1.56 -2.545,3.12 -4.27,5.234 z m 2.298,-76.889 c 1.746,-4.174 3.054,-6.8 3.938,-9.561 0.86,-2.688 1.035,-5.604 1.972,-8.257 1.046,-2.962 2.152,-5.747 0.458,-8.949 -9.797,7.195 -12.845,17.267 -6.368,26.767 z m 251.657,96.094 c 8.205,-6.706 9.305,-14.603 11.466,-21.737 -3.973,-3.233 -6.38,-2.299 -7.726,1.031 -1.946,4.814 -3.684,9.732 -5.134,14.715 -0.378,1.295 0.644,2.996 1.394,5.991 z m 3.635,-124.506 c -2.213,9.22 0.849,15.891 4.983,22.148 0.703,1.063 3.109,1.001 5.103,1.566 -0.62,-10.57 -2.477,-14.975 -10.086,-23.714 z m -19.589,-28.383 c 1.353,11.53 5.947,18.007 12.614,19.497 1.875,-6.388 -2.277,-10.909 -5.145,-15.566 -1.027,-1.669 -3.953,-2.168 -7.469,-3.931 z M 547.751,1595.648 c -3.846,0.067 -7.095,3.411 -6.822,7.302 0.206,2.936 1.768,4.887 4.971,4.662 3.897,-0.274 8.853,-4.36 8.859,-7.1 0.005,-2.802 -3.064,-4.933 -7.008,-4.864 z m 1821.759,238.051 c -6.092,-0.876 -9.961,1.809 -13.671,4.222 -1.132,0.736 -1.845,3.824 -1.222,5.071 0.628,1.258 3.447,2.53 4.798,2.12 5.106,-1.548 8.87,-4.775 10.095,-11.413 z M 521.848,1627.219 c 3.011,-0.21 6.434,-3.952 6.435,-7.035 10e-4,-3.685 -3.081,-6.318 -6.926,-5.866 -3.624,0.426 -4.723,2.93 -4.65,6.098 0.09,3.917 2.523,6.986 5.141,6.803 z m 1667.416,160.189 c -4.73,1.576 -4.213,4.714 -3.099,8.224 1.049,3.307 1.634,6.876 6.192,7.1 3.806,0.188 5.86,-2.833 3.805,-6.328 -1.859,-3.161 -4.466,-5.883 -6.898,-8.996 z m 244.902,-92.494 c -2.178,12.385 -1.807,13.725 4.476,16.176 4.325,-9.507 2.738,-15.242 -4.476,-16.176 z M 597.621,1582.205 c 3.14,5.631 6.742,6.546 10.604,6.257 3.62,-0.271 4.753,-2.958 4.425,-6.238 -0.292,-2.911 -2.333,-4.109 -4.919,-3.487 -3.185,0.765 -6.232,2.106 -10.11,3.468 z m -23.45,11.399 c 3.542,-1.801 6.495,-3.178 9.26,-4.865 0.355,-0.216 0.092,-2.359 -0.514,-3.08 -2.821,-3.356 -6.479,-1.865 -9.585,-0.786 -1.741,0.605 -2.905,2.871 -4.329,4.389 1.581,1.329 3.163,2.657 5.168,4.342 z m 1834.226,202.79 c 0.226,2.456 -0.3,5.833 3.865,6.103 2.39,0.155 6.309,-5.454 5.537,-8.681 -0.406,-1.695 -2.614,-3.68 -4.384,-4.164 -2.948,-0.806 -4.871,1.992 -5.018,6.742 z m -241.443,-68.465 c -5.138,5.909 -4.326,10.569 -2.134,15.067 0.5,1.027 3.027,1.978 4.086,1.572 1.135,-0.436 2.511,-2.713 2.257,-3.844 -0.859,-3.821 -2.394,-7.491 -4.209,-12.795 z M 500.691,1653.982 c 1.856,-2.925 4.119,-5.463 5.065,-8.423 0.455,-1.426 -1.098,-4.46 -2.581,-5.321 -2.5,-1.452 -5.255,-0.157 -6.206,2.653 -1.294,3.824 -1.796,7.784 3.722,11.091 z m 139.052,-68.296 c 0.366,-4.255 -1.76,-6.217 -5.588,-6.513 -2.941,-0.228 -6.024,-0.253 -6.272,3.847 -0.191,3.162 2.755,6.4 5.924,5.836 2.365,-0.422 4.464,-2.339 5.936,-3.17 z m 1597.655,254.678 c 3.036,5.646 6.149,7.579 10.488,6.159 1.148,-0.376 2.542,-1.673 2.76,-2.76 0.226,-1.128 -0.496,-3.241 -1.394,-3.661 -3.885,-1.817 -8.012,-3.816 -11.854,0.262 z m -75.057,-129.377 c 4.318,0.951 6.394,-0.914 6.769,-3.518 0.468,-3.244 0.044,-6.687 -0.512,-9.956 -0.134,-0.788 -2.421,-1.855 -3.505,-1.653 -1.059,0.198 -2.548,1.801 -2.627,2.878 -0.308,4.134 -0.125,8.305 -0.125,12.249 z M 477.61,1708.264 c 1.334,0.608 1.863,1.068 2.372,1.048 5.051,-0.203 6.598,-1.637 6.443,-5.883 -0.104,-2.868 -1.104,-5.661 -4.239,-5.599 -3.992,0.079 -5.06,3.293 -5.015,6.818 0.016,1.138 0.269,2.273 0.439,3.616 z m 11.688,-40.739 c -5.708,1.015 -7.747,3.952 -7.164,8.033 0.232,1.624 2.588,3.461 4.374,4.113 0.81,0.296 3.585,-1.952 3.721,-3.233 0.299,-2.791 -0.522,-5.702 -0.931,-8.913 z m 187.486,308.082 c 0.391,-0.388 0.782,-0.776 1.172,-1.165 -2.77,-1.926 -5.366,-4.196 -8.35,-5.694 -4.136,-2.077 -5.134,-1.232 -7.082,4.778 4.744,0.692 9.502,1.386 14.26,2.081 z m 1760.774,-228.692 c 0,-5.537 0,-10.071 0,-15.725 -5.477,3.616 -4.157,8.87 -7.072,13.003 2.551,0.982 4.455,1.715 7.072,2.722 z m -257.263,-92.408 c 7.331,-3.016 8.79,-5.36 8.073,-12.024 -5.734,2.074 -6.128,2.628 -8.073,12.024 z M 668.089,1592.139 c -0.102,-3.984 -2.232,-5.975 -5.309,-5.853 -2.478,0.098 -4.668,0.889 -4.774,3.95 -0.1,2.908 2.529,4.959 6.195,4.303 1.59,-0.284 2.96,-1.797 3.888,-2.4 z m 26.202,12.442 c -2.945,-2.234 -4.229,-3.95 -5.752,-4.2 -2.67,-0.438 -5.57,0.477 -5.331,3.857 0.1,1.416 2.292,3.817 3.462,3.775 2.038,-0.073 4.021,-1.691 7.621,-3.432 z m -212.787,131.37 c 4.69,-4.492 4.728,-5.09 0.679,-10.694 -4.658,5.081 -4.702,5.766 -0.679,10.694 z"
   id="path1" />
		<path
   d="m 1304.936,1740.502 c 0.01,24.248 -24.394,39.323 -41.625,39.139 -20.389,-0.218 -38.108,-19.632 -37.573,-40.704 0.509,-20.049 19.825,-38.227 39.81,-37.464 21.635,0.827 40.053,19.077 39.388,39.029 z"
   id="path2" />
	</g></g></g></g></svg>
