<?xml version="1.0" encoding="UTF-8" standalone="no"?>
<!-- Created with Inkscape (http://www.inkscape.org/) -->

<svg
   width="284.66901mm"
   height="284.66901mm"
   viewBox="0 0 284.66901 284.669"
   version="1.1"
   id="svg1"
   xml:space="preserve"
   inkscape:version="1.3.2 (091e20e, 2023-11-25, custom)"
   sodipodi:docname="offroad_Car.svg"
   xmlns:inkscape="http://www.inkscape.org/namespaces/inkscape"
   xmlns:sodipodi="http://sodipodi.sourceforge.net/DTD/sodipodi-0.dtd"
   xmlns="http://www.w3.org/2000/svg"
   xmlns:svg="http://www.w3.org/2000/svg"><sodipodi:namedview
     id="namedview1"
     pagecolor="#ffffff"
     bordercolor="#666666"
     borderopacity="1.0"
     inkscape:showpageshadow="2"
     inkscape:pageopacity="0.0"
     inkscape:pagecheckerboard="0"
     inkscape:deskcolor="#d1d1d1"
     inkscape:document-units="mm"
     inkscape:zoom="0.25858552"
     inkscape:cx="224.29717"
     inkscape:cy="303.57462"
     inkscape:window-width="1920"
     inkscape:window-height="1017"
     inkscape:window-x="-8"
     inkscape:window-y="-8"
     inkscape:window-maximized="1"
     inkscape:current-layer="g27" /><defs
     id="defs1"><path
       id="SVGID_1_"
       d="m 468.373,738.907 c 7.273,11.213 10.962,22.708 10.962,34.161 0,11.453 -3.689,22.948 -10.962,34.161 -8.287,12.78 -21.245,25.127 -37.468,35.702 -18.073,11.788 -39.449,21.13 -63.536,27.776 -25.785,7.111 -53.311,10.716 -81.807,10.716 -28.497,0 -56.022,-3.605 -81.808,-10.716 -24.087,-6.646 -45.463,-15.988 -63.536,-27.776 -16.224,-10.575 -29.182,-22.922 -37.468,-35.702 -7.273,-11.213 -10.962,-22.708 -10.962,-34.161 0,-11.453 3.689,-22.948 10.962,-34.161 8.287,-12.78 21.245,-25.127 37.468,-35.702 18.073,-11.788 39.449,-21.13 63.536,-27.776 25.785,-7.111 53.311,-10.716 81.808,-10.716 28.497,0 56.022,3.605 81.807,10.716 24.087,6.646 45.463,15.988 63.536,27.776 16.224,10.575 29.181,22.922 37.468,35.702 z" /><path
       id="SVGID_1_-2"
       d="m 468.373,738.907 c 7.273,11.213 10.962,22.708 10.962,34.161 0,11.453 -3.689,22.948 -10.962,34.161 -8.287,12.78 -21.245,25.127 -37.468,35.702 -18.073,11.788 -39.449,21.13 -63.536,27.776 -25.785,7.111 -53.311,10.716 -81.807,10.716 -28.497,0 -56.022,-3.605 -81.808,-10.716 -24.087,-6.646 -45.463,-15.988 -63.536,-27.776 -16.224,-10.575 -29.182,-22.922 -37.468,-35.702 -7.273,-11.213 -10.962,-22.708 -10.962,-34.161 0,-11.453 3.689,-22.948 10.962,-34.161 8.287,-12.78 21.245,-25.127 37.468,-35.702 18.073,-11.788 39.449,-21.13 63.536,-27.776 25.785,-7.111 53.311,-10.716 81.808,-10.716 28.497,0 56.022,3.605 81.807,10.716 24.087,6.646 45.463,15.988 63.536,27.776 16.224,10.575 29.181,22.922 37.468,35.702 z" /></defs><g
     inkscape:label="Layer 1"
     inkscape:groupmode="layer"
     id="layer1"
     transform="translate(47.797819,-57.484616)"><g
       id="g27"
       transform="translate(-4.4784901,81.079187)"><path
         style="fill:#000000;stroke-width:1.62085"
         d="m 172.81896,201.21125 c -0.99395,-0.17486 -2.19515,-0.66904 -2.66933,-1.09816 -0.79764,-0.72186 -0.94013,-0.72913 -1.90459,-0.0973 -0.97791,0.64077 -1.28384,0.60208 -4.94276,-0.62507 -3.03929,-1.01932 -3.90034,-1.4834 -3.90034,-2.10218 0,-0.93423 -0.68105,-1.47746 -1.0678,-0.85169 -0.51167,0.8279 -1.59141,0.42766 -4.7652,-1.76638 -1.93135,-1.33513 -3.28341,-2.59185 -3.43399,-3.19178 -0.16698,-0.6653 -0.61612,-1.03276 -1.37063,-1.12137 -0.77977,-0.0916 -1.88466,-1.04096 -3.62047,-3.11089 -2.06973,-2.46811 -2.45509,-3.17534 -2.24686,-4.12341 0.21997,-1.00152 0.0953,-1.17555 -0.99888,-1.39438 -0.97315,-0.19464 -1.46478,-0.70645 -2.21832,-2.30935 -1.52961,-3.2538 -2.18749,-5.78501 -1.66666,-6.41258 0.52556,-0.63325 0.14556,-1.43621 -0.67956,-1.43621 -0.64437,0 -1.3486,-2.74261 -1.67024,-6.50484 -0.17286,-2.02181 -0.0687,-2.55661 0.61875,-3.17879 0.72222,-0.65359 0.74912,-0.83398 0.21322,-1.4289 -1.49055,-1.65471 -1.21397,-4.47906 0.85951,-8.7772 0.56838,-1.17821 1.03344,-2.20258 1.03344,-2.27637 0,-0.0738 -2.6971,-0.13421 -5.99355,-0.13421 -5.23498,0 -6.17127,0.10827 -7.39767,0.8561 -1.3635,0.83132 -2.17712,0.85615 -28.113886,0.85771 -22.774399,0.001 -26.936586,-0.0932 -28.249326,-0.64168 -0.888166,-0.37109 -2.855233,-0.64327 -4.649071,-0.64327 -3.446171,0 -5.345412,-0.66351 -10.033954,-3.50545 -1.507741,-0.91392 -2.812436,-1.59056 -2.899324,-1.50368 -0.08689,0.0869 0.131095,0.97729 0.484409,1.97869 0.451291,1.27909 0.515991,2.05688 0.217496,2.61463 -0.33157,0.61954 -0.227544,0.93214 0.473636,1.42327 0.696664,0.48796 1.054424,1.54573 1.592453,4.70835 l 0.693927,4.079 -0.981632,0.79488 -0.981632,0.79488 0.891665,0.80695 c 1.547311,1.40028 0.872853,7.33055 -1.100427,9.67567 -0.83984,0.99809 -0.966758,1.42769 -0.615621,2.0838 0.338262,0.63204 0.181988,1.46836 -0.664229,3.55474 -1.44459,3.56168 -2.412334,4.84906 -3.654854,4.86201 -0.899824,0.01 -0.993422,0.18272 -0.879832,1.62943 0.119311,1.51959 -0.09591,1.84194 -3.507388,5.25342 -2.982333,2.98234 -3.870855,3.6345 -4.951685,3.6345 -0.994403,0 -1.317186,0.19391 -1.317186,0.79124 0,1.10218 -0.967037,1.84957 -4.999147,3.86366 -3.010459,1.50375 -3.570833,1.6598 -4.019382,1.11934 -0.741544,-0.89351 -1.237365,-0.77995 -1.680216,0.38484 -0.276576,0.72746 -0.933142,1.15087 -2.329955,1.5026 -3.056242,0.76957 -6.526144,0.72005 -7.351094,-0.10487 -0.651484,-0.65149 -0.786498,-0.63738 -1.841165,0.19222 -0.923297,0.72627 -1.503647,0.84595 -3.074601,0.63406 -4.0769768,-0.54989 -5.9723614,-1.15434 -6.2372998,-1.98908 -0.2855312,-0.89964 -1.4777115,-1.08719 -2.2162391,-0.34865 -0.3411168,0.34111 -1.3914221,0.0172 -3.82449751,-1.17935 -2.55607549,-1.25706 -3.41570999,-1.90471 -3.61258219,-2.72172 -0.2088454,-0.8667 -0.4946538,-1.05446 -1.4916055,-0.97987 -0.9722304,0.0728 -1.7533281,-0.40381 -3.6904059,-2.25147 -1.351431,-1.28905 -2.738493,-2.34373 -3.082359,-2.34373 -0.661785,0 -3.327002,-2.73984 -4.136402,-4.25221 -0.264119,-0.49352 -0.424785,-1.42726 -0.357033,-2.07499 0.09863,-0.94288 -0.07059,-1.20518 -0.848696,-1.31564 -1.021697,-0.14507 -1.942524,-1.62139 -3.541626,-5.67836 -0.66595,-1.68953 -0.756598,-2.35306 -0.382967,-2.80325 0.602645,-0.72614 0.213889,-1.88729 -0.631871,-1.88729 -0.784008,0 -1.402726,-1.9769 -1.755159,-5.60802 -0.22032,-2.26994 -0.143073,-2.92895 0.395705,-3.3761 0.871315,-0.72312 0.851592,-1.59258 -0.04754,-2.09578 -0.644847,-0.36086 -0.666881,-0.76222 -0.218948,-3.98817 0.400007,-2.8808 0.700967,-3.76505 1.528794,-4.49178 0.883369,-0.77548 0.999542,-1.18165 0.812536,-2.84076 -0.206839,-1.83506 -0.327679,-1.98538 -2.320019,-2.8858 -1.155998,-0.52245 -3.138771,-1.89763 -4.406163,-3.05594 -1.946174,-1.77869 -2.567969,-2.10606 -4.000369,-2.10606 -2.952109,0 -3.115509,-0.47541 -3.115509,-9.06488 0,-8.19466 0.157725,-8.79832 2.358682,-9.02738 0.987777,-0.10276 1.286552,-0.3474 1.286552,-1.05326 0,-0.65402 -0.804532,-1.45856 -2.787531,-2.78753 -3.343843,-2.24099 -5.315964,-4.99236 -6.029863,-8.41241 -0.662302,-3.17289 -0.290264,-10.741223 0.848305,-17.256991 0.47398,-2.712483 1.15238,-7.440563 1.507555,-10.506846 0.773457,-6.677384 1.506678,-9.310802 3.356364,-12.054583 1.676922,-2.487525 4.333251,-3.972616 7.733368,-4.323531 l 2.400508,-0.247748 0.244221,-2.193923 c 0.13432,-1.206645 0.532899,-4.799187 0.885727,-7.983403 0.352827,-3.184217 0.944201,-6.850896 1.314162,-8.148162 1.864809,-6.538979 6.182208,-10.082701 13.5204793,-11.097599 4.1448625,-0.573247 116.2839877,-0.636785 121.2117677,-0.06872 9.23105,1.064204 11.29787,3.762197 21.53076,28.105884 2.87528,6.840182 5.45404,12.665386 5.73059,12.944918 0.58547,0.591774 23.87146,3.019603 52.6082,5.484986 16.43548,1.41003 20.30772,2.207409 24.15705,4.97445 2.27805,1.637533 3.59217,3.560725 4.66393,6.825579 0.82459,2.511918 0.93178,3.951674 1.06984,14.370569 0.0845,6.36843 0.24806,12.01319 0.36369,12.54389 0.2074,0.95176 0.30391,0.96491 7.0832,0.96491 6.67099,0 6.90299,0.03 7.89578,1.02284 1.43823,1.43823 2.04735,4.1071 2.0266,8.87965 -0.034,7.84249 -1.09928,8.73577 -10.24673,8.59322 -6.75939,-0.10536 -6.6001,-0.15074 -13.48577,3.84836 -2.59795,1.50887 -2.86351,1.79472 -3.03842,3.27067 -0.1368,1.15372 0.047,1.94174 0.64085,2.74918 0.51826,0.7046 1.0054,2.44143 1.29053,4.60102 0.4032,3.05398 0.37208,3.5641 -0.25999,4.26252 -0.87511,0.967 -0.89328,1.3199 -0.11297,2.19307 0.83993,0.93982 -0.15285,7.82906 -1.31288,9.11087 -0.49205,0.5437 -0.80143,1.55132 -0.81488,2.65406 -0.0311,2.55026 -2.42966,7.38977 -3.83765,7.74315 -0.83367,0.20923 -1.07245,0.54433 -1.07245,1.50506 0,0.80242 -0.69154,2.15585 -1.97167,3.8588 -2.04541,2.72099 -3.27311,3.68449 -4.22792,3.3181 -0.69447,-0.2665 -1.51973,0.51843 -1.51973,1.44546 0,1.51294 -5.86235,5.37134 -7.52648,4.95367 -0.70237,-0.17629 -1.14037,0.0404 -1.64793,0.81494 -0.94938,1.44895 -7.50581,3.51 -8.86007,2.78522 -0.72066,-0.38569 -1.06264,-0.34356 -1.66952,0.20565 -0.89909,0.81368 -4.20923,1.16327 -6.76211,0.71416 z M 19.287927,180.80311 c 10.087956,-2.13764 17.094815,-12.25573 15.386411,-22.21837 -0.980029,-5.71509 -4.161799,-10.60407 -8.962941,-13.77211 -7.464161,-4.92524 -18.0726521,-3.74051 -24.5554588,2.74231 -6.106874,6.10687 -7.5026741,15.22528 -3.5414235,23.13524 2.43835121,4.869 8.2108835,9.20777 13.6237793,10.23999 3.104522,0.59202 4.781056,0.56555 8.049633,-0.12707 z m -8.318901,-6.36804 c -7.2712969,-2.71902 -10.79336905,-9.65039 -8.5899152,-16.90478 2.1751035,-7.16105 9.5798732,-11.07964 16.9099832,-8.94872 3.364601,0.97812 7.212064,4.53959 8.434905,7.80793 2.531346,6.76562 -0.524541,14.65948 -6.746752,17.42796 -2.531122,1.12618 -7.781684,1.45021 -10.008221,0.61761 z m 168.246164,6.52052 c 9.2189,-1.94136 15.78138,-10.14836 15.78138,-19.73612 0,-12.14297 -10.86724,-21.53802 -22.7758,-19.69035 -13.4616,2.08865 -21.01016,16.47146 -15.05509,28.6856 3.92595,8.05234 13.24943,12.59404 22.04951,10.74087 z m -7.94594,-6.542 c -6.10812,-1.72021 -10.1858,-7.79271 -9.58111,-14.26823 0.42901,-4.59408 2.85309,-8.29164 7.04741,-10.74967 1.62763,-0.95385 2.62294,-1.18631 5.7119,-1.33399 3.31984,-0.15868 4.00946,-0.0559 6.12832,0.91419 6.90678,3.16203 9.96669,11.34144 6.76812,18.09177 -1.37529,2.90243 -3.96717,5.47639 -6.75727,6.71059 -2.45451,1.08575 -6.69206,1.3747 -9.31737,0.63534 z M 60.640901,142.12975 c -1.044088,-1.37971 -4.138927,-5.914 -6.877424,-10.0762 -8.133669,-12.36227 -11.010284,-15.52663 -15.828858,-17.41222 -1.57422,-0.61601 -4.500376,-0.74726 -21.125621,-0.94755 -13.8612187,-0.167 -20.0390731,-0.0908 -21.9276095,0.2705 -4.6268122,0.88512 -8.1099565,3.17936 -10.8036875,7.11607 -1.295774,1.89368 -9.081673,17.49754 -9.081673,18.20075 0,0.22157 0.989598,1.20786 2.199108,2.19175 l 2.19911,1.78888 2.338602,-3.32124 c 1.286231,-1.82669 3.694505,-6.1195 5.35172,-9.5396 1.657216,-3.42008 3.5177901,-6.75611 4.1346093,-7.4134 2.0925761,-2.22985 3.6989105,-2.39909 24.0888427,-2.53773 18.643785,-0.12675 18.656496,-0.12627 21.11055,0.865 3.135783,1.26661 4.669674,3.0566 7.891915,9.20958 3.039206,5.80345 5.835431,8.82039 10.359329,11.177 2.949709,1.53658 7.435998,3.3079 7.733407,3.05338 0.0748,-0.064 -0.718233,-1.24525 -1.76232,-2.62497 z m 77.363709,1.24389 c 4.46876,-7.38696 11.95179,-18.66475 13.34452,-20.1117 2.87955,-2.99166 3.40851,-3.05499 24.66715,-2.95305 21.53853,0.10325 19.32312,-0.44196 22.2108,5.46621 2.61528,5.35083 3.47133,6.59981 4.94067,7.20844 1.63197,0.67598 4.97059,4.44698 5.58482,6.30809 0.43701,1.32416 0.5765,1.40168 2.52156,1.40168 1.86375,0 2.10742,-0.11702 2.56991,-1.23352 0.47402,-1.14438 0.3575,-1.46204 -1.61267,-4.39572 -1.168,-1.73921 -3.80343,-5.86396 -5.85652,-9.1661 -5.24049,-8.42874 -6.67218,-10.22513 -9.10318,-11.42208 -2.05999,-1.01427 -2.06698,-1.01464 -21.13621,-1.14287 -16.24846,-0.10924 -19.53278,-0.0266 -22.16068,0.55811 -4.0437,0.89964 -7.63683,3.21733 -10.04811,6.48136 -4.03487,5.46179 -14.54429,22.89386 -14.54429,24.12472 0,0.32403 1.26741,0.48462 3.82468,0.48462 h 3.82468 z m 22.46946,-17.77889 1.7154,-0.68557 -2.48719,-0.0417 c -1.45029,-0.0243 -3.00543,0.22632 -3.73028,0.60116 -1.12831,0.58347 -3.43167,3.12241 -3.43167,3.78265 0,0.14879 1.39912,-0.4589 3.10917,-1.35028 1.71003,-0.89139 3.8811,-1.92921 4.82457,-2.30629 z M 36.972287,127.8354 c -1.241725,-1.29608 -4.471279,-2.80813 -5.362979,-2.51089 -0.470291,0.15673 5.371996,3.71127 6.186409,3.76388 0.221031,0.0146 -0.149508,-0.54957 -0.82343,-1.25299 z M 218.37632,114.42619 c 0.13097,-0.5307 0.1829,-3.95615 0.11541,-7.6121 l -0.1227,-6.64718 -3.61861,-0.12594 c -4.09659,-0.142477 -5.37042,0.24507 -7.20328,2.1916 -2.82903,3.00448 -2.92291,7.42356 -0.2258,10.62888 1.62489,1.93107 3.25627,2.49362 7.28708,2.5128 3.31072,0.0162 3.54463,-0.0431 3.76798,-0.94814 z M -30.60572,109.0999 c 0.234413,-3.08028 1.507263,-12.696049 2.828554,-21.36838 1.656529,-10.872657 2.264481,-15.905749 1.958261,-16.211977 -0.799922,-0.799924 -3.740001,0.436431 -5.175178,2.176256 -1.677814,2.033961 -2.056465,3.38094 -2.799946,9.960343 -0.333167,2.948349 -0.897238,6.965652 -1.253491,8.92734 -1.8505,10.189698 -1.750676,17.039418 0.286057,19.628708 0.823253,1.0466 3.350762,2.867 3.614483,2.60327 0.06328,-0.0632 0.306847,-2.63529 0.54126,-5.71556 z M 79.011882,97.184438 c 1.266701,-1.266697 1.326914,-2.103885 0.230197,-3.200603 -1.036729,-1.036731 -4.227952,-1.455268 -9.589826,-1.257718 -3.270091,0.120429 -4.259412,0.312549 -4.982199,0.967277 -1.227493,1.111922 -1.135746,2.582069 0.228088,3.654847 1.020152,0.802453 1.709688,0.888828 7.095533,0.888828 5.762016,0 6.001491,-0.03598 7.018207,-1.052631 z M 54.005054,80.689865 55.405586,79.438971 55.530213,65.596505 C 55.615063,56.172098 55.503163,51.387823 55.17959,50.606668 54.209026,48.263529 54.462163,48.285848 27.393448,48.155451 L 2.3832634,48.035021 0.97299558,49.445294 c -1.21719494,1.217197 -1.45316049,1.810802 -1.72358216,4.335963 -0.17232272,1.609119 -0.18094891,7.87962 -0.0191747,13.934417 0.22940109,8.585664 0.4336287,11.228661 0.92786438,12.007968 1.3750337,2.168103 1.5556633,2.18235 27.9014659,2.200358 l 24.544952,0.01686 z m 62.511796,0.881113 c 0,-0.203353 -1.66233,-1.747913 -3.69407,-3.432337 l -3.69408,-3.062604 -1.46,1.281901 c -1.73167,1.520426 -3.29395,1.991349 -4.82809,1.455365 -2.42472,-0.847123 -1.3322,-4.785993 2.45869,-8.864386 2.98205,-3.208189 5.06851,-4.591069 6.92692,-4.591069 3.27618,0 3.79904,2.468869 1.21134,5.719816 l -1.30997,1.645734 1.65856,1.725918 c 0.91222,0.949253 3.47937,3.267123 5.7048,5.150798 3.93819,3.333433 4.09276,3.417442 5.78948,3.146645 3.61723,-0.577299 4.28763,-1.845083 3.07223,-5.809935 -0.60558,-1.975529 -6.2797,-15.564008 -8.1967,-19.629612 -1.45545,-3.086722 -4.07118,-5.802949 -6.75812,-7.017779 l -2.24163,-1.013488 -21.964667,-0.125454 c -24.393598,-0.139394 -23.91813,-0.189429 -25.279153,2.664668 -0.598972,1.256048 -0.642793,3.01307 -0.36329,14.566485 0.298359,12.332868 0.371727,13.206654 1.197002,14.255833 1.794122,2.28085 1.643115,2.268369 27.64788,2.286458 13.267578,0.0097 24.122868,-0.149605 24.122868,-0.352973 z"
         id="path2" /></g></g></svg>
