<?xml version="1.0" encoding="UTF-8" standalone="no"?>
<!-- Created with Inkscape (http://www.inkscape.org/) -->

<svg
   width="284.66901mm"
   height="284.66901mm"
   viewBox="0 0 284.66901 284.669"
   version="1.1"
   id="svg1"
   xml:space="preserve"
   inkscape:version="1.3.2 (091e20e, 2023-11-25, custom)"
   sodipodi:docname="rock_climbing.svg"
   xmlns:inkscape="http://www.inkscape.org/namespaces/inkscape"
   xmlns:sodipodi="http://sodipodi.sourceforge.net/DTD/sodipodi-0.dtd"
   xmlns="http://www.w3.org/2000/svg"
   xmlns:svg="http://www.w3.org/2000/svg"><sodipodi:namedview
     id="namedview1"
     pagecolor="#ffffff"
     bordercolor="#666666"
     borderopacity="1.0"
     inkscape:showpageshadow="2"
     inkscape:pageopacity="0.0"
     inkscape:pagecheckerboard="0"
     inkscape:deskcolor="#d1d1d1"
     inkscape:document-units="mm"
     inkscape:zoom="0.25858552"
     inkscape:cx="224.29717"
     inkscape:cy="303.57462"
     inkscape:window-width="1920"
     inkscape:window-height="1017"
     inkscape:window-x="-8"
     inkscape:window-y="-8"
     inkscape:window-maximized="1"
     inkscape:current-layer="g27" /><defs
     id="defs1"><path
       id="SVGID_1_"
       d="m 468.373,738.907 c 7.273,11.213 10.962,22.708 10.962,34.161 0,11.453 -3.689,22.948 -10.962,34.161 -8.287,12.78 -21.245,25.127 -37.468,35.702 -18.073,11.788 -39.449,21.13 -63.536,27.776 -25.785,7.111 -53.311,10.716 -81.807,10.716 -28.497,0 -56.022,-3.605 -81.808,-10.716 -24.087,-6.646 -45.463,-15.988 -63.536,-27.776 -16.224,-10.575 -29.182,-22.922 -37.468,-35.702 -7.273,-11.213 -10.962,-22.708 -10.962,-34.161 0,-11.453 3.689,-22.948 10.962,-34.161 8.287,-12.78 21.245,-25.127 37.468,-35.702 18.073,-11.788 39.449,-21.13 63.536,-27.776 25.785,-7.111 53.311,-10.716 81.808,-10.716 28.497,0 56.022,3.605 81.807,10.716 24.087,6.646 45.463,15.988 63.536,27.776 16.224,10.575 29.181,22.922 37.468,35.702 z" /><path
       id="SVGID_1_-2"
       d="m 468.373,738.907 c 7.273,11.213 10.962,22.708 10.962,34.161 0,11.453 -3.689,22.948 -10.962,34.161 -8.287,12.78 -21.245,25.127 -37.468,35.702 -18.073,11.788 -39.449,21.13 -63.536,27.776 -25.785,7.111 -53.311,10.716 -81.807,10.716 -28.497,0 -56.022,-3.605 -81.808,-10.716 -24.087,-6.646 -45.463,-15.988 -63.536,-27.776 -16.224,-10.575 -29.182,-22.922 -37.468,-35.702 -7.273,-11.213 -10.962,-22.708 -10.962,-34.161 0,-11.453 3.689,-22.948 10.962,-34.161 8.287,-12.78 21.245,-25.127 37.468,-35.702 18.073,-11.788 39.449,-21.13 63.536,-27.776 25.785,-7.111 53.311,-10.716 81.808,-10.716 28.497,0 56.022,3.605 81.807,10.716 24.087,6.646 45.463,15.988 63.536,27.776 16.224,10.575 29.181,22.922 37.468,35.702 z" /></defs><g
     inkscape:label="Layer 1"
     inkscape:groupmode="layer"
     id="layer1"
     transform="translate(47.797819,-57.484616)"><g
       id="g27"
       transform="translate(-4.4784901,81.079187)"><g
         inkscape:label="Layer 1"
         id="layer1-7"
         transform="matrix(4.9082692,0,0,4.9082692,-725.84142,-582.02904)"><g
           id="g1264"
           transform="matrix(0.26458333,0,0,0.26458333,93.285738,78.409269)"><polygon
             style="fill:#414042"
             points="356.331,282.533 360.097,282.28 360.097,284.53 361.237,284.517 361.237,282.28 365.003,282.533 362.56,278.415 364.318,278.415 361.928,275.063 363.953,275.712 361.483,272.076 362.659,272.42 360.667,268.875 358.676,272.42 359.851,272.076 357.381,275.712 359.406,275.063 357.016,278.415 358.774,278.415 "
             id="polygon1263" /></g><g
           id="g1265"
           transform="matrix(0.26458333,0,0,0.26458333,93.285738,78.409269)"
           style="fill:#1a1a1a"><polygon
             style="fill:#1a1a1a"
             points="324.634,323.475 326.316,323.475 323.979,328.008 327.581,327.729 327.581,330.447 328.126,330.447 328.671,330.447 328.671,327.729 332.274,328.008 329.937,323.475 331.618,323.475 329.333,319.785 331.269,320.499 328.906,316.497 330.031,316.876 328.126,312.973 326.222,316.876 327.346,316.497 324.984,320.499 326.92,319.785 "
             id="polygon1264" /></g><g
           id="g1266"
           transform="matrix(0.26458333,0,0,0.26458333,93.285738,78.409269)"
           style="fill:#1a1a1a"><polygon
             style="fill:#1a1a1a"
             points="347.035,316.511 350.036,316.511 345.866,323.59 352.294,323.155 352.294,327.399 353.266,327.399 354.239,327.399 354.239,323.155 360.667,323.59 356.497,316.511 359.497,316.511 355.419,310.749 358.874,311.865 354.659,305.614 356.665,306.206 353.266,300.111 349.868,306.206 351.874,305.614 347.659,311.865 351.114,310.749 "
             id="polygon1265" /></g><g
           id="g1267"
           transform="matrix(0.26458333,0,0,0.26458333,93.285738,78.409269)"
           style="fill:#1a1a1a"><polygon
             style="fill:#1a1a1a"
             points="335.724,320.608 337.549,320.608 335.012,326.104 338.922,325.766 338.922,329.062 339.513,329.062 340.105,329.062 340.105,325.766 344.015,326.104 341.478,320.608 343.303,320.608 340.823,316.134 342.924,317 340.36,312.147 341.581,312.606 339.513,307.874 337.446,312.606 338.667,312.147 336.103,317 338.204,316.134 "
             id="polygon1266" /></g><g
           id="g1268"
           transform="matrix(0.26458333,0,0,0.26458333,93.285738,78.409269)"><polygon
             style="fill:#ffffff"
             points="347.965,156.569 341.362,153.007 339.19,153.93 342.231,157.264 "
             id="polygon1267" /></g><g
           id="g1269"
           transform="matrix(0.26458333,0,0,0.26458333,93.285738,78.409269)"><polygon
             style="fill:#414042"
             points="376.864,279.281 380.63,278.964 380.63,281.705 381.77,281.691 381.77,278.964 385.536,279.281 383.093,274.123 384.851,274.123 382.461,269.925 384.486,270.738 382.016,266.183 383.192,266.614 381.2,262.173 379.209,266.614 380.385,266.183 377.914,270.738 379.939,269.925 377.549,274.123 379.307,274.123 "
             id="polygon1268" /></g><g
           id="g1270"
           transform="matrix(0.26458333,0,0,0.26458333,93.285738,78.409269)"
           style="fill:#1a1a1a"><polygon
             style="fill:#1a1a1a"
             points="367.293,279.931 370.729,279.519 370.729,283.137 371.77,283.119 371.77,279.519 375.207,279.931 372.977,273.222 374.581,273.222 372.401,267.76 374.248,268.818 371.994,262.893 373.067,263.454 371.25,257.678 369.432,263.454 370.505,262.893 368.251,268.818 370.099,267.76 367.918,273.222 369.522,273.222 "
             id="polygon1269" /></g><g
           id="g1276"
           transform="matrix(0.26458333,0,0,0.26458333,93.285738,78.409269)"
           style="fill:#1a1a1a"><g
             id="g1271"
             style="fill:#1a1a1a"><path
               style="fill:#1a1a1a"
               d="m 257.913,246.49 9.754,-7.95 4.775,-3.756 -11.724,-7.883 c -0.004,0.002 -0.009,0.003 -0.013,0.005 -0.112,0.038 -0.23,0.058 -0.345,0.086 l -6.581,24.678 z"
               id="path1270" /></g><g
             id="g1272"
             style="fill:#1a1a1a"><path
               style="fill:#1a1a1a"
               d="m 197.996,313.987 c 1.862,2.411 3.842,4.748 5.917,7.019 h 2.784 l 1.254,-2.332 c -2.523,-0.475 -6.863,-1.94 -9.955,-4.687 z"
               id="path1271" /></g><g
             id="g1273"
             style="fill:#1a1a1a"><path
               style="fill:#1a1a1a"
               d="m 258.634,222.684 c 0.009,0.006 0.017,0.009 0.026,0.015 0.075,-0.038 0.152,-0.073 0.232,-0.103 0.259,-0.096 0.529,-0.144 0.805,-0.149 0.029,-0.067 0.058,-0.139 0.087,-0.221 0.022,-0.938 -1.34,-3.992 -1.863,-5.164 -0.082,-0.183 -0.162,-0.362 -0.239,-0.538 l -0.407,-0.022 c -0.161,2.033 -0.215,3.576 -0.144,4.278 0.04,0.408 0.647,1.354 1.503,1.904 z"
               id="path1272" /></g><g
             id="g1274"
             style="fill:#1a1a1a"><path
               style="fill:#1a1a1a"
               d="m 251.121,193.793 c -0.021,0.001 -0.042,0.001 -0.063,0.002 -0.282,0.921 -0.19,1.943 0.015,2.274 0.491,0.792 1.409,2.028 2.17,3.02 l 0.685,-0.22 c -0.024,-0.108 -0.049,-0.218 -0.073,-0.328 -0.277,-1.244 -0.994,-4.46 -1.558,-5.224 -0.324,0.267 -0.727,0.442 -1.176,0.476 z"
               id="path1273" /></g><g
             id="g1275"
             style="fill:#1a1a1a"><path
               style="fill:#1a1a1a"
               d="m 202.879,305.224 0.291,0.064 0.201,0.04 c 0.396,0.079 0.797,0.152 1.201,0.217 l 0.191,0.031 0.335,0.049 c 0.309,0.045 0.618,0.088 0.926,0.126 l 0.552,0.065 c 0.389,0.044 0.772,0.083 1.145,0.116 l 0.386,0.032 0.154,-12.559 4.887,-13.488 3.615,-11.043 14.434,-6.702 17.14,-3.973 8.473,-31.771 c -0.142,-0.077 -0.283,-0.159 -0.423,-0.248 -1.819,-1.168 -3.214,-3.216 -3.394,-4.982 -0.21,-2.075 0.323,-7.153 0.385,-7.725 0.06,-0.558 0.335,-1.044 0.738,-1.378 l -1.447,-5.243 -0.204,-2.781 c -0.462,-0.1 -0.877,-0.355 -1.179,-0.734 -0.025,-0.032 -2.652,-3.313 -3.747,-5.08 -0.935,-1.508 -1.078,-3.983 -0.349,-6.019 0.138,-0.384 0.312,-0.737 0.506,-1.069 -0.549,-0.564 -0.751,-1.397 -0.545,-2.314 0.162,-0.719 0.568,-1.465 1.144,-2.097 0.852,-0.937 1.945,-1.497 2.924,-1.497 0.586,0 1.108,0.193 1.511,0.56 0.812,0.739 0.938,1.989 0.33,3.263 0.587,0.198 1.179,0.501 1.769,0.916 l 0.169,0.132 0.029,0.026 c 1.417,1.281 2.089,3.907 2.885,7.476 0.206,0.926 0.401,1.799 0.552,2.243 0.317,0.928 -0.068,1.942 -0.882,2.441 l 2.178,5.852 -0.185,3.91 c 0.604,0.205 1.092,0.681 1.303,1.299 0.146,0.429 0.478,1.174 0.83,1.963 1.483,3.324 2.502,5.812 2.16,7.703 l -0.048,0.208 -0.012,0.038 c -0.126,0.405 -0.271,0.765 -0.429,1.089 l 12.008,8.087 5.373,-4.226 5.163,-8.575 c -0.399,-0.236 -0.74,-0.609 -1.074,-1.173 -2.206,-3.74 -4.843,-21.818 -5.378,-25.613 l -5.809,-4.959 -2.087,-6.13 1.178,-2.751 0.288,-1.223 1.877,-3.333 2.789,-0.949 3.576,4.946 2.396,2.007 0.158,0.104 -0.02,-0.042 c -0.454,-0.943 -0.439,-2.062 0.039,-2.993 l 0.691,-1.344 3.574,2.565 c 0.489,0.353 0.834,0.868 0.972,1.452 l 0.359,1.522 c 0.432,1.832 0.214,3.774 -0.614,5.468 -0.544,1.114 -0.776,1.684 -0.874,1.956 1.517,3.434 4.053,9.231 5.183,12.139 1.037,2.67 3.253,6.209 4.614,8.27 l 4.722,-4.02 13.825,-7.819 11.94,-9.209 7.895,-8.476 c -0.447,-3.294 -1.858,-8.938 -2.542,-11.484 -0.377,-0.5 -0.765,-0.952 -1.141,-1.389 -0.818,-0.95 -1.59,-1.848 -1.973,-2.973 -0.491,-1.443 -2.482,-3.853 -3.207,-4.659 l -0.663,-0.737 0.533,-0.836 c 0.296,-0.464 0.984,-1.005 1.949,-1.005 0.727,0 1.492,0.304 2.272,0.904 l 0.058,0.044 c 0.466,0.358 1.43,1.099 2.229,1.589 -0.781,-0.81 -2.283,-1.927 -3.828,-2.767 l -0.116,-0.063 -1.894,-1.257 3.025,-2.281 0.302,-0.006 c 0.287,0 0.567,0.03 0.814,0.068 l 0.874,-0.288 c 0.394,-0.129 0.798,-0.217 1.208,-0.262 l 3.808,0.34 c 0.676,0.092 1.31,0.372 1.834,0.807 l 0.851,0.708 1.366,2.024 c 0.734,0.89 1.088,2.044 0.979,3.193 l 0.09,6.717 0.01,0.054 c 0.284,1.594 0.684,3.262 1.17,4.961 l 1.859,-1.996 5.066,-8.002 c -19.01,-14.795 -42.255,-22.815 -66.729,-22.815 -29.093,0 -56.449,11.329 -77.019,31.904 -5.654,5.655 -10.61,11.818 -14.823,18.389 -11.123,17.343 -17.081,37.53 -17.081,58.63 0,22.516 6.791,43.988 19.397,62.083 -0.551,-1.183 -0.803,-2.201 -0.749,-3.072 l 1.493,-2.38 c 0.432,-0.221 0.996,-0.374 1.732,-0.374 0.913,0 1.995,0.238 3.215,0.707 0.644,0.252 1.441,0.481 2.367,0.687 z"
               id="path1274" /></g></g><g
           id="g1277"
           transform="matrix(0.26458333,0,0,0.26458333,93.285738,78.409269)"><polygon
             style="fill:#ffffff"
             points="321.206,184.892 307.305,193.993 321.727,186.568 332.274,189.584 334.585,183.85 "
             id="polygon1276" /></g><g
           id="g1278"
           transform="matrix(0.26458333,0,0,0.26458333,93.285738,78.409269)"><polygon
             style="fill:#ffffff"
             points="199.139,293.168 216.764,287.397 212.855,284.356 "
             id="polygon1277" /></g><g
           id="g1279"
           transform="matrix(0.26458333,0,0,0.26458333,93.285738,78.409269)"><polygon
             style="fill:#ffffff"
             points="317.73,160.74 306.318,165.257 318.599,157.264 347.096,152.225 349.081,159.953 "
             id="polygon1278" /></g><g
           id="g1301"
           transform="matrix(0.26458333,0,0,0.26458333,93.285738,78.409269)"
           style="fill:#1a1a1a"><g
             id="g1280"
             style="fill:#1a1a1a"><path
               style="fill:#1a1a1a"
               d="m 339.682,193.993 c 4.76,-1.097 8.595,-0.779 11.471,-0.007 -0.896,-3.356 -2.252,-7.57 -4.179,-11.54 -4.108,-8.465 -5.148,-15.031 -5.304,-15.869 l -0.092,-6.902 c 0.099,-0.848 -0.162,-1.699 -0.717,-2.348 l -1.3,-1.927 -0.708,-0.589 c -0.336,-0.279 -0.744,-0.459 -1.177,-0.518 l -0.695,-0.095 c 0.415,0.508 0.785,0.958 0.91,1.105 0.216,0.252 -0.974,-0.59 -1.87,-1.236 l -0.697,-0.095 c -0.699,-0.095 -1.411,-0.031 -2.081,0.19 l 2.06,1.528 -3.034,-1.099 c -0.287,-0.056 -0.759,-0.153 -1.183,-0.143 l -1.411,0.502 0.778,0.655 c 0,0 5.673,3.079 5,5.149 -0.502,1.544 -3.213,-0.561 -4.875,-1.837 -1.662,-1.276 -2.329,-0.23 -2.329,-0.23 0,0 2.785,3.093 3.472,5.111 0.472,1.386 1.825,2.485 3.075,4.205 0,0 2.948,10.865 2.783,13.99 -0.121,2.283 0.539,7.93 2.103,12 z"
               id="path1279" /></g><g
             id="g1283"
             style="fill:#1a1a1a"><g
               id="g1281"
               style="fill:#1a1a1a"><path
                 style="fill:#1a1a1a"
                 d="m 286.607,260.134 h 0.002 c 0.251,-0.016 0.498,-0.028 0.744,-0.038 -0.246,0.009 -0.495,0.022 -0.746,0.038 z"
                 id="path1280" /></g><g
               id="g1282"
               style="fill:#1a1a1a"><path
                 style="fill:#1a1a1a"
                 d="m 288.222,260.074 c -0.241,0.002 -0.487,0.008 -0.735,0.017 0.248,-0.009 0.494,-0.016 0.735,-0.017 z"
                 id="path1281" /></g></g><g
             id="g1287"
             style="fill:#1a1a1a"><g
               id="g1284"
               style="fill:#1a1a1a"><path
                 style="fill:#1a1a1a"
                 d="m 251.854,186.788 c -0.551,-0.501 -1.712,-0.121 -2.594,0.849 -0.882,0.97 -1.15,2.162 -0.599,2.663 0.243,0.221 0.607,0.262 1.011,0.165 l -0.112,-1.479 c -0.04,-0.529 0.282,-1.017 0.784,-1.188 0.092,-0.031 0.189,-0.051 0.288,-0.058 l 0.065,-0.005 c 0.309,-0.023 0.609,0.075 0.845,0.278 0.162,0.14 0.276,0.318 0.342,0.517 0.339,-0.71 0.353,-1.393 -0.03,-1.742 z"
                 id="path1283" /></g><g
               id="g1285"
               style="fill:#1a1a1a"><path
                 style="fill:#1a1a1a"
                 d="m 251.023,192.493 v 0 c -0.445,0.033 -0.832,-0.3 -0.866,-0.744 l -0.208,-2.76 c -0.034,-0.445 0.3,-0.832 0.744,-0.866 v 0 c 0.444,-0.033 0.832,0.3 0.865,0.744 l 0.208,2.76 c 0.034,0.445 -0.299,0.833 -0.743,0.866 z"
                 id="path1284" /></g><g
               id="g1286"
               style="fill:#1a1a1a"><path
                 style="fill:#1a1a1a"
                 d="m 254.152,191.128 -0.074,-0.059 c -0.685,-0.483 -1.342,-0.777 -1.97,-0.893 l -0.34,1.484 -0.116,-1.537 c -0.367,-0.016 -0.723,0.027 -1.065,0.143 -0.181,0.062 -0.354,0.148 -0.521,0.247 l 0.115,1.414 -0.569,-1.091 c -0.506,0.44 -0.917,1.067 -1.196,1.844 -0.594,1.66 -0.498,3.718 0.23,4.893 1.033,1.667 3.551,4.82 3.658,4.953 0.216,0.27 0.584,0.365 0.903,0.232 l 0.454,-0.189 0.298,4.062 1.742,6.314 -0.179,-0.019 c -0.424,-0.043 -0.804,0.264 -0.85,0.688 v 0 c -0.024,0.222 -0.585,5.469 -0.384,7.454 0.14,1.375 1.318,3.065 2.802,4.018 1.1,0.706 2.233,0.915 3.192,0.589 v 0 c 1.053,-0.358 1.818,-1.289 2.276,-2.765 l 0.022,-0.091 c 0.275,-1.52 -0.725,-3.93 -2.061,-6.924 -0.383,-0.86 -0.715,-1.602 -0.881,-2.089 v 0 c -0.098,-0.286 -0.353,-0.49 -0.654,-0.521 l -0.772,-0.079 0.228,-4.824 -2.514,-6.754 0.863,-0.359 c 0.377,-0.157 0.567,-0.579 0.436,-0.965 -0.173,-0.509 -0.366,-1.376 -0.59,-2.379 -0.714,-3.228 -1.354,-5.775 -2.483,-6.797 z m 6.914,31.37 c -0.212,0.663 -0.603,1.478 -1.28,1.708 -0.678,0.231 -1.454,-0.168 -1.856,-0.426 -1.083,-0.695 -2.004,-1.956 -2.097,-2.87 -0.142,-1.402 0.156,-4.828 0.305,-6.364 l 0.008,0.001 0.164,0.594 1.81,0.1 0.023,-0.489 0.208,0.021 c 0.195,0.49 0.461,1.086 0.757,1.749 0.851,1.91 2.132,4.78 1.958,5.976 z m -4.026,-10.71 -1.533,-5.208 -0.16,-2.776 1.886,5.226 z m -1.913,-13.53 c 0.155,0.694 0.295,1.325 0.431,1.843 l -0.168,0.07 -0.133,-0.359 -1.754,0.563 0.041,0.564 -0.389,0.162 c -0.742,-0.943 -2.429,-3.119 -3.189,-4.345 -0.484,-0.781 -0.523,-2.341 -0.089,-3.553 0.161,-0.45 0.533,-1.238 1.211,-1.469 0.677,-0.23 1.483,0.177 2.056,0.573 0.839,0.818 1.526,3.902 1.983,5.951 z"
                 id="path1285" /></g></g><g
             id="g1290"
             style="fill:#1a1a1a"><g
               id="g1288"
               style="fill:#1a1a1a"><path
                 style="fill:#1a1a1a"
                 d="m 247.543,270.001 12.045,-45.167 c 0.019,-0.071 0.072,-0.101 0.101,-0.112 0.031,-0.013 0.088,-0.024 0.149,0.017 l 38.779,26.074 0.388,-0.865 -38.627,-26.013 c -0.303,-0.204 -0.693,-0.246 -1.03,-0.12 -0.342,0.128 -0.602,0.416 -0.697,0.769 l -12.22,45.823 c 0.361,-0.133 0.73,-0.268 1.112,-0.406 z"
                 id="path1287" /></g><g
               id="g1289"
               style="fill:#1a1a1a"><path
                 style="fill:#1a1a1a"
                 d="m 238.167,301.398 -11.033,41.28 0.936,0.25 11.342,-42.439 c -0.404,0.3 -0.817,0.602 -1.245,0.909 z"
                 id="path1288" /></g></g><g
             id="g1300"
             style="fill:#1a1a1a"><g
               id="g1291"
               style="fill:#1a1a1a"><path
                 style="fill:#1a1a1a"
                 d="m 262.46,289.837 c 1.09,5.306 7.491,2.452 8.171,1.762 0.728,-0.739 0.77,-2.056 0.79,-3.112 0.598,-1.153 1.203,-2.548 1.795,-3.948 l -11.095,2.033 c 0.056,1.455 0.151,2.351 0.339,3.265 z"
                 id="path1290" /></g><g
               id="g1292"
               style="fill:#1a1a1a"><path
                 style="fill:#1a1a1a"
                 d="m 298.994,248.98 c 1.199,-2.355 2.831,-4.962 4.396,-7.389 -3.001,-4.695 -5.82,-8.833 -7.135,-9.961 -3.757,-3.223 -7.062,-2.712 -10.48,-0.731 -0.49,0.284 -0.885,0.657 -1.207,1.083 -0.068,0.09 -0.123,0.19 -0.184,0.285 -0.001,0.03 -0.002,0.048 -0.002,0.048 0,0 -0.89,3.173 0.179,6.957 z"
                 id="path1291" /></g><g
               id="g1293"
               style="fill:#1a1a1a"><path
                 style="fill:#1a1a1a"
                 d="m 351.517,195.404 c -10e-4,-0.005 -0.003,-0.01 -0.004,-0.016 -0.402,-0.142 -0.843,-0.283 -1.313,-0.421 -0.017,-0.005 -0.034,-0.011 -0.051,-0.016 -0.049,-0.014 -0.096,-0.028 -0.145,-0.042 -0.046,-0.013 -0.093,-0.026 -0.14,-0.039 -0.186,-0.051 -0.377,-0.101 -0.572,-0.15 -0.007,-0.002 -0.014,-0.003 -0.022,-0.005 -0.191,-0.048 -0.386,-0.094 -0.586,-0.14 -0.032,-0.007 -0.065,-0.014 -0.097,-0.021 -0.181,-0.04 -0.366,-0.079 -0.555,-0.117 -0.034,-0.007 -0.068,-0.014 -0.102,-0.02 -0.202,-0.04 -0.407,-0.078 -0.616,-0.114 -0.017,-0.003 -0.034,-0.006 -0.052,-0.009 -0.944,-0.161 -1.966,-0.282 -3.06,-0.344 -0.014,-10e-4 -0.027,-0.002 -0.041,-0.002 -0.268,-0.015 -0.54,-0.026 -0.816,-0.033 h -0.01 c -1.132,-0.029 -2.334,0.01 -3.599,0.137 -0.011,0.001 -0.021,0.002 -0.031,0.003 v 0.001 c -0.156,0.016 -0.311,0.03 -0.469,0.049 -5.067,1.42 -5.341,6.913 -5.341,6.913 l -3.767,0.106 c -0.732,0.021 -1.236,0.744 -0.999,1.438 l 0.898,2.638 c 0,0 -1.917,0.38 -1.657,2.747 0.37,3.37 -2.149,2.505 -1.521,5.15 0.213,0.896 0.866,1.8 1.638,2.604 0.267,0.259 0.564,0.482 0.887,0.667 1.241,0.708 4.643,2.569 8.345,3.912 0.747,0.271 1.497,0.513 2.231,0.706 l -1.824,-0.227 c 0,0 -4.27,-0.94 -7.097,-2.197 l -0.784,0.983 c 3.392,1.324 6.837,3.641 10.428,7.409 -2.546,-2.138 -4.91,-3.681 -6.99,-4.8 l -0.003,-0.002 c -0.008,-0.004 -0.016,-0.008 -0.023,-0.012 -0.251,-0.135 -0.498,-0.263 -0.74,-0.386 -0.03,-0.015 -0.059,-0.03 -0.089,-0.045 -0.232,-0.116 -0.46,-0.228 -0.683,-0.333 -0.022,-0.01 -0.045,-0.021 -0.067,-0.032 -0.731,-0.343 -1.416,-0.632 -2.05,-0.873 -0.045,-0.017 -0.088,-0.033 -0.132,-0.049 -0.09,-0.034 -0.182,-0.069 -0.27,-0.101 l -0.002,0.002 c -0.512,-0.186 -0.992,-0.344 -1.426,-0.471 -3.691,-0.972 -7.47,-1.081 -10.886,-0.91 -2.583,-1.577 -9.406,-4.304 -9.406,-4.304 l -0.007,0.111 c -2.092,-1.04 -4.931,-2.044 -8.587,-2.491 -2.102,-0.595 -2.427,-1.631 -2.427,-1.631 -1.415,-2.125 -3.824,-5.933 -4.95,-8.832 -1.158,-2.982 -3.83,-9.076 -5.319,-12.444 -0.1,-0.227 0.474,-1.508 1.054,-2.695 0.697,-1.427 0.88,-3.051 0.516,-4.597 l -0.358,-1.52 c -0.066,-0.28 -0.231,-0.526 -0.464,-0.694 l -2.346,-1.684 c -0.295,0.573 -0.304,1.251 -0.024,1.831 l 0.979,1.254 -1.267,1.488 -1.804,-1.193 -2.576,-2.159 -3.106,-4.297 -1.308,0.445 c 0.68,1.405 2.366,4.447 2.366,4.447 l -3.518,-3.755 -0.34,1.447 c 0.604,1.238 2.07,3.769 2.07,3.769 l -2.333,-2.65 -0.156,0.667 -0.364,0.849 c 0.699,1.438 1.628,3.331 1.628,3.331 l -1.965,-2.545 -0.326,0.76 1.81,5.318 5.913,5.047 c 0,0 3.016,21.787 5.277,25.619 0.204,0.346 0.41,0.593 0.616,0.716 0.097,0.017 0.359,0.284 0.79,0.498 3.95,3.518 12.07,8.165 18.614,10.92 l 1.546,-10.159 -0.725,10.498 c 0.015,0.006 0.03,0.012 0.046,0.018 l -0.066,0.992 10.441,4.223 -7.788,-1.238 c -0.413,1.206 -1.253,3.223 -2.773,4.921 -0.013,0.014 -4.631,4.651 -7.537,9.849 L 298,251.346 c -0.24,0.555 -0.864,1.804 -0.993,3.153 -0.159,-0.841 0.353,-2.819 0.592,-3.423 l -16.67,-11.214 c -1.454,3.382 -3.134,8.003 -3.915,12.741 -0.175,1.064 -1.502,6.841 -2.169,8.616 0.283,-0.008 9.007,-1.573 12.079,-1.31 0.079,-0.004 0.149,-0.008 0.21,-0.012 l -1.473,-15.294 0.313,0.781 2.259,14.689 h -0.003 l -1.622,0.061 c -0.424,0.027 -0.853,0.062 -1.286,0.105 -0.526,0.096 -1.123,0.206 -1.759,0.323 -2.836,0.351 -5.645,0.885 -7.486,1.33 -0.51,0.127 -1.03,0.261 -1.556,0.398 -0.071,0.018 -0.139,0.035 -0.211,0.054 v 0.001 c -7.836,2.051 -17.202,4.428 -24.158,6.886 -0.23,2.561 -0.691,9.052 2.48,14.503 -2.38,-2.752 -3.62,-8.797 -3.709,-13.407 -2.628,0.941 -4.839,1.776 -6.381,2.405 -1.43,0.584 -2.646,1.582 -3.502,2.868 -3.86,5.793 -15.955,23.859 -17.895,25.72 -2.314,2.22 -8.768,6.125 -8.768,6.125 h -0.002 c 0.016,1.485 0.269,3.746 1.54,5.001 -1.313,-0.597 -2.075,-3.2 -2.456,-5.007 -0.802,-0.011 -1.948,-0.056 -3.243,-0.157 -0.238,1.129 -0.328,2.812 0.512,4.602 -1.229,-1.265 -1.3,-3.193 -1.123,-4.652 -0.383,-0.034 -0.777,-0.074 -1.175,-0.119 -0.144,1.088 -0.097,2.512 0.609,4.016 -1.075,-1.106 -1.264,-2.719 -1.176,-4.083 -0.317,-0.039 -0.636,-0.083 -0.955,-0.13 -0.092,1.04 0.008,2.337 0.645,3.696 -0.996,-1.025 -1.231,-2.485 -1.19,-3.779 -0.421,-0.068 -0.838,-0.143 -1.249,-0.226 -0.008,0.922 0.151,1.987 0.672,3.097 -0.851,-0.876 -1.146,-2.071 -1.189,-3.207 -0.918,-0.203 -1.79,-0.445 -2.553,-0.738 -2.188,-0.84 -3.795,-0.833 -4.407,0.064 1.135,2.827 3.73,7.2 9.17,9.534 -4.921,-1.452 -7.906,-5.736 -9.435,-8.687 -0.057,0.925 0.402,2.275 1.52,4.067 2.567,4.12 8.459,6.123 11.301,6.657 2.842,0.534 4.395,3.894 6.544,4.799 2.15,0.905 5.697,-0.097 5.97,-5.306 0.016,-0.305 0.059,-0.608 0.123,-0.909 -0.685,0.185 -1.475,0.317 -1.991,0.135 -1.075,-0.379 -1.709,-1.641 -2.296,-2.464 -0.587,-0.823 -2.12,-1.12 -2.12,-1.12 0,0 1.071,-0.16 2.178,0.538 1.107,0.697 0.642,2.186 2.543,2.511 0.898,0.154 1.488,-0.023 1.862,-0.252 1.474,-4.595 8.006,-8.741 12.244,-11.511 10.971,-7.169 15.25,-11.915 17.182,-17.455 0.329,-0.005 31.118,-2.626 32.427,-2.736 -0.107,-0.221 -3.585,-7.127 -2.422,-14.163 0,-0.002 0,-0.005 10e-4,-0.007 0.069,-1.459 1.18,-6.612 1.18,-6.612 0,0 -1.153,6.273 -0.724,9.898 0.848,7.165 2.852,10.59 2.926,10.702 0.548,-0.046 1.429,0.021 1.429,0.021 0,0 5.782,1.671 10.633,2.388 l -0.571,-4.608 0.188,-2.569 c -0.056,-0.078 -0.111,-0.155 -0.165,-0.232 -0.328,-0.023 -0.637,-0.196 -0.808,-0.49 -0.017,-0.029 -1.709,-2.922 -2.363,-4.432 -0.495,-1.142 -0.328,-2.901 0.405,-4.275 0.479,-0.898 1.143,-1.512 1.919,-1.776 0.122,-0.041 0.247,-0.074 0.371,-0.097 0.928,-0.171 1.862,0.147 2.782,0.932 -0.275,-0.593 -0.52,-1.189 -0.749,-1.773 -0.305,-0.835 -0.577,-1.649 -0.78,-2.437 -0.207,-0.786 -0.372,-1.537 -0.484,-2.237 -0.239,-1.397 -0.3,-2.579 -0.306,-3.403 -0.004,-0.825 0.052,-1.293 0.052,-1.293 0,0 -0.038,0.47 -0.002,1.292 0.038,0.82 0.144,1.994 0.435,3.37 0.139,0.689 0.33,1.427 0.565,2.196 0.231,0.771 0.531,1.565 0.862,2.375 0.351,0.802 0.73,1.625 1.182,2.424 10e-4,0.003 0.003,0.005 0.004,0.008 -0.508,0.396 -1.506,1.181 -1.506,1.181 l 0.212,0.623 1.79,-0.944 c 0.306,0.505 0.631,1.004 0.964,1.495 0.215,0.301 0.435,0.596 0.655,0.892 -0.364,0.342 -1.543,1.47 -1.543,1.47 l 0.271,0.6 1.91,-1.257 c 0.134,0.166 0.268,0.331 0.406,0.491 0.307,0.34 0.597,0.689 0.908,1.013 0.314,0.32 0.615,0.645 0.928,0.948 0.317,0.298 0.629,0.592 0.934,0.879 0.318,0.273 0.629,0.54 0.931,0.801 0.298,0.265 0.615,0.491 0.907,0.727 0.295,0.232 0.579,0.458 0.866,0.655 0.566,0.406 1.083,0.779 1.564,1.078 0.467,0.303 0.871,0.572 1.222,0.77 1.002,-0.841 1.946,-1.664 2.764,-2.393 l -2.768,4.914 -4.399,5.917 c 0,0 10e-4,0.004 0.002,0.007 -0.133,0.127 -0.253,0.266 -0.341,0.427 -0.889,1.62 0.93,4.333 4.063,6.057 2.905,1.598 5.915,1.785 7.052,0.518 0.004,-10e-4 0.004,-10e-4 0.007,-0.003 l 0.005,-0.01 c 0.085,-0.098 0.164,-0.203 0.227,-0.319 0.016,-0.026 0.025,-0.058 0.04,-0.087 l 1.996,-3.454 c -3.569,-0.099 -4.807,-2.268 -4.807,-2.268 l 2.019,-3.085 c 2.118,1.894 4.112,1.777 5.128,1.529 l 0.004,-10e-4 3.243,-4.312 c -2.317,0.527 -5.218,-0.409 -7.057,-1.773 5.546,2.373 6.989,1.608 7.779,0.672 0.033,-0.048 0.067,-0.092 0.095,-0.143 0.89,-1.617 -0.929,-4.329 -4.062,-6.054 -0.529,-0.291 -1.061,-0.532 -1.585,-0.729 4.102,-2.033 6.627,-6.545 9.15,-8.514 3.719,-2.903 26.535,-37.474 27.813,-41.182 0.681,-1.976 0.245,-5.315 -0.311,-8.003 -1.695,1.482 -3.875,2.975 -6.861,4.339 l -0.027,-0.153 c 2.302,-1.252 4.085,-2.595 5.445,-3.845 0.013,-0.012 0.028,-0.024 0.042,-0.036 0.017,-0.016 0.031,-0.031 0.048,-0.046 0.19,-0.176 0.37,-0.35 0.544,-0.522 0.043,-0.043 0.085,-0.086 0.128,-0.128 0.169,-0.171 0.333,-0.34 0.487,-0.504 v 0 c 1.1,-1.182 1.801,-2.201 2.201,-2.866 0.16,-0.273 0.307,-0.544 0.442,-0.815 v 0 c 2.122,-4.254 1.264,-8.249 0.779,-11.269 -0.476,-2.975 -3.636,-5.282 -7.606,-6.71 z m -62.867,64.783 c 0.001,-0.001 0.001,-0.002 0.001,-0.003 l 0.002,0.003 z m 24.889,16.005 c -0.205,-0.103 -0.415,-0.211 -0.632,-0.323 -0.321,-0.157 -0.645,-0.342 -0.979,-0.534 -0.333,-0.195 -0.688,-0.376 -1.031,-0.601 -0.347,-0.218 -0.703,-0.443 -1.066,-0.672 -0.353,-0.246 -0.714,-0.496 -1.081,-0.751 -0.363,-0.26 -0.718,-0.544 -1.084,-0.821 -0.363,-0.281 -0.711,-0.591 -1.073,-0.889 -0.355,-0.306 -0.695,-0.634 -1.046,-0.952 -0.337,-0.333 -0.674,-0.67 -1.003,-1.012 -0.644,-0.699 -1.273,-1.414 -1.833,-2.162 -0.575,-0.737 -1.08,-1.507 -1.552,-2.259 -0.454,-0.763 -0.873,-1.513 -1.219,-2.25 -0.35,-0.734 -0.651,-1.441 -0.891,-2.108 -0.494,-1.329 -0.774,-2.479 -0.932,-3.287 -0.157,-0.81 -0.189,-1.28 -0.189,-1.28 0,0 0.05,0.469 0.238,1.27 0.189,0.799 0.512,1.933 1.053,3.231 0.264,0.651 0.589,1.341 0.963,2.053 0.37,0.714 0.812,1.439 1.288,2.173 0.494,0.723 1.018,1.461 1.611,2.163 0.578,0.714 1.221,1.39 1.878,2.049 0.336,0.322 0.678,0.639 1.019,0.952 0.355,0.298 0.699,0.605 1.058,0.89 0.364,0.278 0.715,0.566 1.08,0.827 0.368,0.256 0.724,0.519 1.088,0.759 0.367,0.235 0.728,0.465 1.081,0.691 0.363,0.21 0.718,0.414 1.064,0.614 0.342,0.205 0.696,0.368 1.026,0.546 0.333,0.174 0.654,0.342 0.973,0.483 0.174,0.081 0.521,0.257 0.931,0.468 -0.321,0.184 -0.572,0.428 -0.74,0.732 z"
                 id="path1292" /></g><g
               id="g1294"
               style="fill:#1a1a1a"><path
                 style="fill:#1a1a1a"
                 d="m 284.229,239.048 c -0.443,-1.371 -0.713,-2.962 -0.767,-4.451 -0.132,0.239 -0.713,1.306 -1.484,2.937 z"
                 id="path1293" /></g><g
               id="g1295"
               style="fill:#1a1a1a"><path
                 style="fill:#1a1a1a"
                 d="m 299.468,272.074 -0.06,-0.048 c -0.143,-0.101 -0.284,-0.189 -0.424,-0.27 0.053,0.393 0.098,0.804 0.138,1.225 l 0.647,-0.569 c -0.095,-0.128 -0.196,-0.242 -0.301,-0.338 z"
                 id="path1294" /></g><g
               id="g1296"
               style="fill:#1a1a1a"><path
                 style="fill:#1a1a1a"
                 d="m 308.021,280.347 c -0.481,-0.326 -0.999,-0.73 -1.563,-1.169 -0.287,-0.214 -0.57,-0.456 -0.863,-0.706 -0.291,-0.254 -0.606,-0.497 -0.902,-0.781 -0.3,-0.279 -0.608,-0.565 -0.923,-0.858 -0.301,-0.307 -0.609,-0.62 -0.923,-0.939 -0.308,-0.323 -0.604,-0.668 -0.913,-1.008 -0.305,-0.344 -0.59,-0.712 -0.889,-1.072 -0.108,-0.136 -0.212,-0.276 -0.317,-0.415 0.425,1.046 0.759,2.428 1.128,4.082 0.18,0.805 0.333,1.492 0.466,1.882 0.171,0.503 -0.079,1.057 -0.57,1.262 l -0.354,0.147 1.655,4.447 c 1.717,-0.954 3.866,-2.571 5.889,-4.229 -0.277,-0.187 -0.582,-0.404 -0.921,-0.643 z"
                 id="path1295" /></g><g
               id="g1297"
               style="fill:#1a1a1a"><path
                 style="fill:#1a1a1a"
                 d="m 300.904,280.556 0.698,-0.29 c 0.304,-0.127 0.458,-0.468 0.352,-0.78 -0.14,-0.411 -0.296,-1.112 -0.477,-1.922 -0.353,-1.583 -0.682,-2.961 -1.091,-3.987 l -0.985,0.946 -0.002,-0.004 c 0.344,1.021 0.634,2.32 0.856,3.317 0.125,0.561 0.239,1.07 0.348,1.489 l -0.136,0.056 -0.108,-0.29 -1.417,0.455 0.033,0.456 -0.161,0.067 0.658,3.084 -0.193,0.988 0.034,0.461 1.408,5.102 -0.145,-0.015 c -0.081,-0.008 -0.16,0 -0.234,0.021 0.25,0.9 0.467,1.731 0.622,2.485 0.038,-0.463 0.077,-0.88 0.108,-1.197 l 0.006,0.001 0.133,0.48 1.463,0.081 0.019,-0.395 0.168,0.017 c 0.157,0.396 0.372,0.878 0.612,1.414 0.688,1.542 1.723,3.861 1.582,4.828 -0.171,0.536 -0.487,1.194 -1.034,1.38 -0.548,0.186 -1.175,-0.136 -1.5,-0.344 -0.875,-0.562 -1.62,-1.581 -1.695,-2.319 -0.01,-0.097 -0.016,-0.209 -0.021,-0.328 -0.298,0.522 -0.642,0.928 -1.026,1.225 0.355,0.919 1.132,1.878 2.065,2.476 0.888,0.571 1.805,0.739 2.58,0.476 v 0 c 0.851,-0.289 1.469,-1.041 1.84,-2.234 l 0.018,-0.074 c 0.222,-1.228 -0.586,-3.176 -1.666,-5.596 -0.31,-0.694 -0.577,-1.294 -0.712,-1.688 -0.079,-0.232 -0.285,-0.396 -0.529,-0.421 l -0.624,-0.064 0.184,-3.898 z m 0.898,8.213 -1.239,-4.208 -0.13,-2.243 1.525,4.223 z"
                 id="path1296" /></g><g
               id="g1298"
               style="fill:#1a1a1a"><path
                 style="fill:#1a1a1a"
                 d="m 294.834,273.329 c -0.077,0.216 -0.135,0.441 -0.184,0.67 0.347,0.664 0.739,1.374 1.048,1.923 l 0.005,-0.077 0.117,-0.019 c -0.102,-0.635 -0.043,-1.416 0.192,-2.074 0.13,-0.363 0.43,-1.001 0.978,-1.187 0.017,-0.006 0.034,-0.007 0.05,-0.011 -0.047,-0.418 -0.102,-0.83 -0.169,-1.203 l -0.012,-0.043 c -0.092,0.019 -0.183,0.041 -0.273,0.071 -0.773,0.263 -1.396,0.956 -1.752,1.95 z"
                 id="path1297" /></g><g
               id="g1299"
               style="fill:#1a1a1a"><path
                 style="fill:#1a1a1a"
                 d="m 300.689,295.187 c 0.398,-1.183 -0.117,-3.228 -0.834,-5.778 -0.205,-0.732 -0.383,-1.364 -0.458,-1.774 -0.044,-0.241 -0.225,-0.433 -0.462,-0.493 l -0.608,-0.154 0.75,-3.83 -1.215,-5.695 0.733,-0.186 c 0.319,-0.081 0.521,-0.396 0.462,-0.72 -0.079,-0.427 -0.131,-1.143 -0.192,-1.971 -0.119,-1.617 -0.244,-3.029 -0.499,-4.103 l -0.089,-0.252 -1.116,0.716 0.092,0.324 c 0.191,1.061 0.289,2.388 0.364,3.406 0.042,0.573 0.08,1.094 0.128,1.524 l -0.143,0.036 -0.065,-0.302 -1.468,0.244 -0.033,0.456 -0.33,0.084 c -0.482,-0.841 -1.575,-2.779 -2.038,-3.849 -0.295,-0.681 -0.143,-1.933 0.347,-2.851 0.182,-0.341 0.571,-0.928 1.141,-1.032 0.568,-0.104 1.165,0.316 1.576,0.699 0.014,0.019 0.027,0.041 0.041,0.063 l 0.981,-0.77 c -0.026,-0.037 -0.048,-0.082 -0.076,-0.116 l -0.052,-0.056 c -0.906,-0.861 -1.813,-1.215 -2.696,-1.052 -0.805,0.148 -1.522,0.743 -2.019,1.674 -0.671,1.257 -0.835,2.914 -0.391,3.939 0.63,1.454 2.272,4.271 2.342,4.39 0.141,0.241 0.424,0.36 0.695,0.291 l 0.385,-0.098 -0.24,3.283 0.65,5.253 -0.141,-0.036 c -0.334,-0.085 -0.674,0.116 -0.76,0.45 -0.045,0.175 -1.111,4.303 -1.183,5.914 -0.05,1.116 0.693,2.605 1.767,3.541 0.796,0.694 1.678,0.994 2.483,0.846 v 0 c 0.884,-0.163 1.605,-0.816 2.145,-1.943 z m -3.748,-13.814 0.198,-2.238 0.894,4.4 -0.478,2.182 z m 1.709,8.374 c 0.456,1.625 1.143,4.071 0.863,5.007 -0.247,0.505 -0.656,1.111 -1.224,1.215 -0.569,0.104 -1.143,-0.305 -1.434,-0.559 -0.784,-0.683 -1.372,-1.8 -1.339,-2.541 0.051,-1.137 0.693,-3.841 0.992,-5.052 l 0.006,0.002 0.061,0.494 1.435,0.293 0.076,-0.388 0.164,0.042 c 0.099,0.414 0.241,0.922 0.4,1.487 z"
                 id="path1298" /></g></g></g><g
           id="g1302"
           transform="matrix(0.26458333,0,0,0.26458333,93.285738,78.409269)"><polygon
             style="fill:#ffffff"
             points="304.074,151.139 288.131,158.267 262.396,161.082 246.309,170.069 234.081,179.375 246.309,171.35 266.532,164.263 290.076,160.604 "
             id="polygon1301" /></g><g
           id="g1306"
           transform="matrix(0.26458333,0,0,0.26458333,93.285738,78.409269)"
           style="fill:#1a1a1a"><g
             id="g1303"
             style="fill:#1a1a1a"><path
               style="fill:#1a1a1a"
               d="m 359.864,327.735 c 0.794,-0.749 1.581,-1.507 2.357,-2.282 0.163,-0.163 0.321,-0.331 0.483,-0.495 l -92.643,13.166 z"
               id="path1302" /></g><g
             id="g1304"
             style="fill:#1a1a1a"><path
               style="fill:#1a1a1a"
               d="m 341.729,341.621 c 3.757,-2.302 7.389,-4.839 10.877,-7.605 l -99.254,13.864 z"
               id="path1303" /></g><g
             id="g1305"
             style="fill:#1a1a1a"><path
               style="fill:#1a1a1a"
               d="m 353.266,285.218 35.368,-2.084 c 0.391,-1.15 0.77,-2.305 1.123,-3.47 z"
               id="path1304" /></g></g></g></g></g></svg>
