<?xml version="1.0" encoding="UTF-8" standalone="no"?>
<!-- Created with Inkscape (http://www.inkscape.org/) -->

<svg
   width="284.66901mm"
   height="284.66901mm"
   viewBox="0 0 284.66901 284.669"
   version="1.1"
   id="svg1"
   xml:space="preserve"
   inkscape:version="1.3.2 (091e20e, 2023-11-25, custom)"
   sodipodi:docname="rv_camper.svg"
   xmlns:inkscape="http://www.inkscape.org/namespaces/inkscape"
   xmlns:sodipodi="http://sodipodi.sourceforge.net/DTD/sodipodi-0.dtd"
   xmlns="http://www.w3.org/2000/svg"
   xmlns:svg="http://www.w3.org/2000/svg"><sodipodi:namedview
     id="namedview1"
     pagecolor="#ffffff"
     bordercolor="#666666"
     borderopacity="1.0"
     inkscape:showpageshadow="2"
     inkscape:pageopacity="0.0"
     inkscape:pagecheckerboard="0"
     inkscape:deskcolor="#d1d1d1"
     inkscape:document-units="mm"
     inkscape:zoom="0.25858552"
     inkscape:cx="270.70348"
     inkscape:cy="75.410256"
     inkscape:window-width="1920"
     inkscape:window-height="1017"
     inkscape:window-x="-8"
     inkscape:window-y="-8"
     inkscape:window-maximized="1"
     inkscape:current-layer="g27" /><defs
     id="defs1"><path
       id="SVGID_1_"
       d="m 468.373,738.907 c 7.273,11.213 10.962,22.708 10.962,34.161 0,11.453 -3.689,22.948 -10.962,34.161 -8.287,12.78 -21.245,25.127 -37.468,35.702 -18.073,11.788 -39.449,21.13 -63.536,27.776 -25.785,7.111 -53.311,10.716 -81.807,10.716 -28.497,0 -56.022,-3.605 -81.808,-10.716 -24.087,-6.646 -45.463,-15.988 -63.536,-27.776 -16.224,-10.575 -29.182,-22.922 -37.468,-35.702 -7.273,-11.213 -10.962,-22.708 -10.962,-34.161 0,-11.453 3.689,-22.948 10.962,-34.161 8.287,-12.78 21.245,-25.127 37.468,-35.702 18.073,-11.788 39.449,-21.13 63.536,-27.776 25.785,-7.111 53.311,-10.716 81.808,-10.716 28.497,0 56.022,3.605 81.807,10.716 24.087,6.646 45.463,15.988 63.536,27.776 16.224,10.575 29.181,22.922 37.468,35.702 z" /><path
       id="SVGID_1_-2"
       d="m 468.373,738.907 c 7.273,11.213 10.962,22.708 10.962,34.161 0,11.453 -3.689,22.948 -10.962,34.161 -8.287,12.78 -21.245,25.127 -37.468,35.702 -18.073,11.788 -39.449,21.13 -63.536,27.776 -25.785,7.111 -53.311,10.716 -81.807,10.716 -28.497,0 -56.022,-3.605 -81.808,-10.716 -24.087,-6.646 -45.463,-15.988 -63.536,-27.776 -16.224,-10.575 -29.182,-22.922 -37.468,-35.702 -7.273,-11.213 -10.962,-22.708 -10.962,-34.161 0,-11.453 3.689,-22.948 10.962,-34.161 8.287,-12.78 21.245,-25.127 37.468,-35.702 18.073,-11.788 39.449,-21.13 63.536,-27.776 25.785,-7.111 53.311,-10.716 81.808,-10.716 28.497,0 56.022,3.605 81.807,10.716 24.087,6.646 45.463,15.988 63.536,27.776 16.224,10.575 29.181,22.922 37.468,35.702 z" /></defs><g
     inkscape:label="Layer 1"
     inkscape:groupmode="layer"
     id="layer1"
     transform="translate(47.797819,-57.484616)"><g
       id="g27"
       transform="translate(-4.4784901,81.079187)"><g
         id="g10"
         transform="matrix(0.17141832,0,0,0.17141832,-89.804737,-73.053434)"><path
           d="m 832.28,820.648 c 169.723,0 339.447,0.002 509.17,-0.016 2.858,0 5.805,0.159 8.556,-0.452 7.096,-1.576 11.539,-6.198 11.591,-13.488 0.052,-7.246 -4.299,-12.125 -11.264,-13.831 -3.747,-0.918 -7.821,-0.666 -11.748,-0.666 -329.778,-0.03 -659.557,-0.032 -989.335,-0.047 -6.445,0 -12.893,-0.025 -19.332,-0.265 -2.366,-0.088 -5.575,1.257 -6.93,-1.319 -1.613,-3.069 1.542,-5.155 3.104,-7.321 11.998,-16.636 28.617,-24.399 48.842,-24.533 29.718,-0.198 59.439,-0.133 89.158,-0.134 170.797,-0.002 341.595,-0.013 512.392,0.101 6.616,0.004 12.694,-1.529 18.822,-3.577 44.417,-14.851 88.879,-29.568 133.251,-44.553 7.254,-2.45 14.473,-3.475 22.08,-3.469 151.82,0.109 303.642,0.67 455.457,-0.155 49.714,-0.27 89.638,17.543 121.965,54.573 27.632,31.651 51.916,65.622 73.595,101.604 18.997,31.53 17.17,62.717 -0.141,93.691 -13.553,24.249 -34.86,35.989 -62.775,35.95 -92.381,-0.129 -184.762,-0.125 -277.143,-0.167 -19.229,-0.009 -22.165,2.931 -22.168,22.492 -0.011,66.958 -0.174,133.918 0.248,200.874 0.057,8.997 -2.272,11.459 -11.201,11.231 -23.258,-0.594 -46.553,-0.51 -69.812,0.124 -8.262,0.225 -10.05,-2.399 -10.037,-10.239 0.144,-86.288 -0.019,-172.577 -0.239,-258.866 -0.077,-30.265 -15.511,-51.521 -42.008,-58.9 -5.633,-1.569 -11.309,-1.681 -17.026,-1.674 -41.177,0.056 -82.355,0.11 -123.531,0.273 -34.186,0.135 -57.63,22.92 -57.737,57.061 -0.271,86.651 -0.307,173.304 0.113,259.954 0.049,10.183 -3.105,12.262 -12.602,12.255 -258.166,-0.195 -516.331,-0.153 -774.497,0.134 -8.698,0.01 -10.612,-2.666 -10.605,-10.821 0.097,-124.248 -0.164,-248.495 -0.169,-372.743 0,-22.986 0.35,-22.952 23.527,-22.95 166.143,0.011 332.285,0.006 498.428,0.006 v -0.136 z m -250.068,268.077 c 46.541,0 93.081,0.025 139.622,-0.01 23.829,-0.018 36.307,-12.459 36.38,-36.471 0.114,-37.232 0.162,-74.465 0.033,-111.697 -0.07,-20.262 -13.312,-33.817 -33.591,-33.851 -94.155,-0.159 -188.311,-0.182 -282.466,-0.011 -21.195,0.038 -33.807,13.221 -33.841,34.549 -0.057,36.516 0.015,73.033 0.188,109.549 0.123,25.979 12.303,37.944 38.347,37.957 45.109,0.023 90.218,0.01 135.327,-0.014 z m 970.082,-186.528 v 0.108 c 31.118,0 62.237,0.126 93.354,-0.043 21.844,-0.118 33.234,-18.203 22.996,-37.601 -8.659,-16.406 -18.64,-32.137 -28.498,-47.878 -6.535,-10.434 -16.382,-15.501 -28.876,-15.496 -50.79,0.02 -101.581,-0.186 -152.371,-0.053 -16.291,0.043 -25.947,9.762 -26.284,26.082 -0.309,15.016 -0.115,30.044 -0.066,45.066 0.071,21.962 7.908,29.816 29.61,29.814 30.045,-0.003 60.09,0 90.135,0 z m -603.116,122.995 c 0,0.075 0,0.15 0,0.225 24.703,0 49.407,-0.029 74.11,0.01 18.546,0.029 27.256,-8.243 27.373,-26.516 0.122,-18.975 0.076,-37.952 -0.067,-56.927 -0.135,-17.957 -9.036,-27.482 -26.924,-27.598 -50.122,-0.323 -100.248,-0.395 -150.37,-0.178 -17.566,0.076 -26.579,9.935 -26.636,27.897 -0.059,18.617 0.042,37.236 0.243,55.852 0.196,18.091 9.141,27.114 27.084,27.204 25.062,0.126 50.124,0.032 75.187,0.032 z"
           id="path1" /><path
           d="m 1468.068,1242.435 c 0,-70.142 0.151,-140.286 -0.2,-210.426 -0.042,-8.341 2.576,-10.022 10.352,-9.998 64.057,0.196 128.117,0.086 192.173,-0.331 6.078,-0.04 9.135,2.936 12.418,6.714 38.019,43.761 76.078,87.485 113.977,131.349 4.552,5.269 9.719,9.183 15.928,12.305 19.484,9.798 38.579,20.378 58.162,29.966 24.928,12.204 34.656,32.632 34.178,59.315 -0.338,18.825 -0.181,18.827 -18.621,18.804 -7.873,-0.01 -15.749,-0.145 -23.619,0.01 -12.388,0.241 -18.501,5.929 -18.978,18.321 -0.413,10.72 -0.36,21.476 -0.033,32.202 0.4,13.117 6.069,19.029 19.105,19.647 11.073,0.525 22.191,0.587 33.271,0.256 6.399,-0.191 9.472,1.617 8.564,8.456 -0.421,3.169 0.093,6.452 -0.197,9.649 -0.766,8.472 -0.524,14.795 11.311,15.054 7.89,0.173 11.772,7.542 11.869,15.509 0.191,15.743 0.343,31.498 -0.055,47.234 -0.277,10.953 -5.813,16.118 -17.088,16.173 -34.355,0.167 -68.716,-0.267 -103.063,0.249 -9.071,0.136 -7.412,-5.16 -7.628,-10.322 -3.571,-85.125 -86.968,-140.257 -164.897,-107.74 -47.369,19.766 -71.644,57.424 -74.354,108.556 -0.387,7.302 -1.782,9.729 -9.442,9.576 -23.967,-0.477 -47.962,-0.534 -71.923,0.108 -8.948,0.24 -11.321,-2.341 -11.274,-11.281 0.374,-69.783 0.207,-139.569 0.207,-209.354 h -0.143 z m 161.504,-29.374 v -0.119 c 31.116,0 62.233,-0.035 93.349,0.023 8.374,0.016 17.692,-1.418 19.128,-10.273 2.788,-17.199 7.568,-35.298 -5.907,-50.972 -24.013,-27.931 -47.923,-55.951 -71.835,-83.968 -6.432,-7.536 -14.266,-11.147 -24.4,-11.062 -33.976,0.284 -67.956,0.053 -101.934,0.121 -16.717,0.033 -23.156,6.507 -23.225,23.565 -0.146,36.482 -0.191,72.964 -0.123,109.446 0.031,16.548 6.853,23.165 23.744,23.214 30.401,0.088 60.802,0.025 91.203,0.025 z m -79.104,67.155 v -0.034 c 3.212,0 6.424,0 9.636,0 3.212,0 6.428,0.128 9.635,0 9.613,-0.393 15.75,-5.772 15.862,-13.774 0.118,-8.387 -6.321,-14.477 -16.221,-14.642 -12.843,-0.214 -25.699,-0.188 -38.54,0.13 -9.517,0.236 -15.482,6.05 -15.384,14.184 0.096,7.947 6.316,13.689 15.743,14.088 6.412,0.271 12.845,0.052 19.269,0.052 z"
           id="path2" /><path
           d="m 964.169,1462.864 c -44.751,0.01 -89.503,-0.112 -134.253,0.139 -6.635,0.037 -9.097,-1.247 -9.312,-8.676 -1.922,-66.507 -52.639,-117.77 -116.915,-118.743 -65.757,-0.996 -118.829,48.985 -122.191,115.953 -0.472,9.414 -2.882,10.669 -11.946,11.613 -56.615,5.898 -107.373,-17.098 -159.907,-31.112 -30.725,-8.196 -61.031,-17.963 -91.726,-26.282 -7.045,-1.91 -14.913,-0.828 -22.405,-1.035 -14.422,-0.399 -20.225,-6.094 -20.327,-20.294 -0.09,-12.53 -0.123,-25.062 0.008,-37.591 0.139,-13.31 5.734,-18.885 18.876,-19.172 15.754,-0.345 16.14,-0.347 16.041,-15.555 -0.049,-7.599 1.682,-10.297 10.095,-10.288 259.2,0.276 518.4,0.3 777.601,0.05 9.019,-0.01 10.499,3.037 10.442,11.025 -0.329,46.539 -0.425,93.084 0.043,139.621 0.089,8.868 -2.839,10.574 -10.945,10.509 -44.391,-0.353 -88.785,-0.168 -133.179,-0.16 z"
           id="path3" /><path
           d="m 1319.496,1204.852 c 0,82.347 -0.155,164.694 0.219,247.039 0.041,9.129 -2.619,11.101 -11.341,11.042 -53.702,-0.359 -107.409,-0.304 -161.11,0.154 -8.594,0.073 -10.713,-2.389 -10.707,-10.768 0.12,-164.694 -0.077,-329.388 -0.144,-494.083 -0.01,-20.945 9.934,-31.206 30.724,-31.337 40.456,-0.253 80.914,-0.272 121.371,-0.165 20.917,0.055 30.836,10.122 30.852,31.076 0.063,82.347 0.026,164.694 0.026,247.041 h 0.11 z m -35.021,-152.382 h -0.142 c 0,-21.476 0.235,-42.955 -0.075,-64.427 -0.243,-16.812 -9.445,-25.846 -26.058,-26.033 -20.042,-0.226 -40.089,-0.329 -60.132,-0.159 -17.102,0.144 -25.895,8.64 -25.972,25.838 -0.19,42.234 -0.127,84.471 0.248,126.704 0.158,17.793 9.709,26.463 27.861,26.513 18.612,0.051 37.225,0.023 55.837,-0.072 19.205,-0.098 28.261,-9.031 28.401,-28.232 0.146,-20.043 0.032,-40.088 0.032,-60.133 z m -96.097,169.038 c 0,-6.786 0.501,-13.619 -0.128,-20.347 -0.765,-8.179 -5.82,-13.081 -14.132,-13.173 -7.402,-0.082 -12.72,4.341 -13.141,11.532 -0.791,13.524 -0.909,27.157 -0.131,40.677 0.441,7.675 6.393,12.247 14.011,12.016 8.062,-0.244 13.279,-4.865 13.503,-13.562 0.147,-5.711 0.028,-11.429 0.019,-17.144 z"
           id="path4" /><path
           d="m 701.484,1364.586 c 49.371,-0.289 90.547,40.639 90.597,90.051 0.051,49.853 -41.115,91.799 -90.272,91.983 -50.011,0.187 -91.343,-40.63 -91.513,-90.372 -0.174,-50.916 40.064,-91.363 91.188,-91.662 z m -42.361,89.844 c -0.24,24.202 18.265,42.992 42.373,43.024 22.897,0.03 41.541,-18.298 42.012,-41.302 0.489,-23.825 -18.419,-43.502 -41.983,-43.689 -23.435,-0.187 -42.169,18.355 -42.403,41.967 z"
           id="path5" /><path
           d="m 1589.425,1455.723 c -0.069,-50.008 40.569,-90.879 90.519,-91.039 50.352,-0.161 90.666,40.166 90.601,90.63 -0.065,50.124 -40.766,91.128 -90.5,91.174 -50.251,0.046 -90.551,-40.317 -90.62,-90.765 z m 91.061,41.979 c 23.383,-0.225 42.089,-19.043 42.186,-42.435 0.099,-24.054 -18.989,-42.953 -42.956,-42.53 -23.282,0.411 -41.684,19.41 -41.626,42.977 0.058,23.356 19.097,42.212 42.396,41.988 z"
           id="path6" /><path
           d="m 1439.533,1383.253 c 0,23.585 -0.265,47.175 0.161,70.752 0.128,7.1 -1.989,9.042 -9.013,8.925 -24.293,-0.404 -48.601,-0.372 -72.894,0.045 -7.074,0.121 -9.081,-2.069 -9.046,-9.061 0.239,-47.884 0.199,-95.77 -0.084,-143.654 -0.039,-6.636 1.966,-8.472 8.52,-8.375 24.652,0.361 49.316,0.361 73.967,-0.022 6.674,-0.104 8.527,1.936 8.432,8.492 -0.353,24.295 -0.141,48.598 -0.141,72.897 h 0.098 z"
           id="path7" /><path
           d="m 707.807,1273.429 c -128.863,0 -257.725,-0.104 -386.587,0.218 -9.314,0.023 -11.832,-2.83 -10.857,-11.519 0.542,-4.835 2.65,-5.924 6.846,-5.855 8.946,0.148 17.897,0.084 26.845,0.084 250.566,0.01 501.133,-0.013 751.699,0.208 4.438,0 11.861,-4.219 12.567,6.286 0.65,9.681 -3.468,10.842 -11.777,10.827 -129.578,-0.236 -259.157,-0.165 -388.736,-0.165 z"
           id="path8" /><path
           d="m 757.401,737.261 c -5.233,0 -8.33,-0.002 -11.428,0 -97.959,0.074 -195.919,0.047 -293.877,0.411 -8.061,0.03 -11.184,-2.041 -9.948,-10.098 0.483,-3.152 0.075,-6.43 0.276,-9.638 1.045,-16.686 10.564,-26.669 27.392,-26.721 72.93,-0.225 145.862,-0.066 218.793,0.073 16.848,0.032 31.325,6.4 43.644,17.752 8.669,7.988 16.695,16.566 25.148,28.221 z"
           id="path9" /><path
           d="m 1393.82,1256.143 c 12.884,0 25.778,0.297 38.648,-0.118 7.04,-0.227 6.929,3.661 7.085,8.771 0.171,5.617 -0.915,8.508 -7.468,8.435 -25.407,-0.28 -50.823,-0.309 -76.229,0.029 -7.058,0.094 -7.007,-3.644 -7.163,-8.761 -0.172,-5.633 0.976,-8.527 7.552,-8.285 12.509,0.459 25.048,0.133 37.574,0.133 v -0.204 z"
           id="path10" /></g></g></g></svg>
