<?xml version="1.0" encoding="UTF-8" standalone="no"?>
<!-- Created with Inkscape (http://www.inkscape.org/) -->

<svg
   width="284.66901mm"
   height="284.66901mm"
   viewBox="0 0 284.66901 284.669"
   version="1.1"
   id="svg1"
   xml:space="preserve"
   inkscape:version="1.3.2 (091e20e, 2023-11-25, custom)"
   sodipodi:docname="sup.svg"
   xmlns:inkscape="http://www.inkscape.org/namespaces/inkscape"
   xmlns:sodipodi="http://sodipodi.sourceforge.net/DTD/sodipodi-0.dtd"
   xmlns="http://www.w3.org/2000/svg"
   xmlns:svg="http://www.w3.org/2000/svg"><sodipodi:namedview
     id="namedview1"
     pagecolor="#ffffff"
     bordercolor="#666666"
     borderopacity="1.0"
     inkscape:showpageshadow="2"
     inkscape:pageopacity="0.0"
     inkscape:pagecheckerboard="0"
     inkscape:deskcolor="#d1d1d1"
     inkscape:document-units="mm"
     inkscape:zoom="0.25858552"
     inkscape:cx="270.70348"
     inkscape:cy="75.410256"
     inkscape:window-width="1920"
     inkscape:window-height="1017"
     inkscape:window-x="-8"
     inkscape:window-y="-8"
     inkscape:window-maximized="1"
     inkscape:current-layer="g27" /><defs
     id="defs1"><path
       id="SVGID_1_"
       d="m 468.373,738.907 c 7.273,11.213 10.962,22.708 10.962,34.161 0,11.453 -3.689,22.948 -10.962,34.161 -8.287,12.78 -21.245,25.127 -37.468,35.702 -18.073,11.788 -39.449,21.13 -63.536,27.776 -25.785,7.111 -53.311,10.716 -81.807,10.716 -28.497,0 -56.022,-3.605 -81.808,-10.716 -24.087,-6.646 -45.463,-15.988 -63.536,-27.776 -16.224,-10.575 -29.182,-22.922 -37.468,-35.702 -7.273,-11.213 -10.962,-22.708 -10.962,-34.161 0,-11.453 3.689,-22.948 10.962,-34.161 8.287,-12.78 21.245,-25.127 37.468,-35.702 18.073,-11.788 39.449,-21.13 63.536,-27.776 25.785,-7.111 53.311,-10.716 81.808,-10.716 28.497,0 56.022,3.605 81.807,10.716 24.087,6.646 45.463,15.988 63.536,27.776 16.224,10.575 29.181,22.922 37.468,35.702 z" /><path
       id="SVGID_1_-2"
       d="m 468.373,738.907 c 7.273,11.213 10.962,22.708 10.962,34.161 0,11.453 -3.689,22.948 -10.962,34.161 -8.287,12.78 -21.245,25.127 -37.468,35.702 -18.073,11.788 -39.449,21.13 -63.536,27.776 -25.785,7.111 -53.311,10.716 -81.807,10.716 -28.497,0 -56.022,-3.605 -81.808,-10.716 -24.087,-6.646 -45.463,-15.988 -63.536,-27.776 -16.224,-10.575 -29.182,-22.922 -37.468,-35.702 -7.273,-11.213 -10.962,-22.708 -10.962,-34.161 0,-11.453 3.689,-22.948 10.962,-34.161 8.287,-12.78 21.245,-25.127 37.468,-35.702 18.073,-11.788 39.449,-21.13 63.536,-27.776 25.785,-7.111 53.311,-10.716 81.808,-10.716 28.497,0 56.022,3.605 81.807,10.716 24.087,6.646 45.463,15.988 63.536,27.776 16.224,10.575 29.181,22.922 37.468,35.702 z" /><inkscape:path-effect
       effect="spiro"
       id="path-effect282"
       is_visible="true"
       lpeversion="1" /><inkscape:path-effect
       effect="spiro"
       id="path-effect281"
       is_visible="true"
       lpeversion="1" /><path
       id="SVGID_1_-9"
       d="m 468.373,738.907 c 7.273,11.213 10.962,22.708 10.962,34.161 0,11.453 -3.689,22.948 -10.962,34.161 -8.287,12.78 -21.245,25.127 -37.468,35.702 -18.073,11.788 -39.449,21.13 -63.536,27.776 -25.785,7.111 -53.311,10.716 -81.807,10.716 -28.497,0 -56.022,-3.605 -81.808,-10.716 -24.087,-6.646 -45.463,-15.988 -63.536,-27.776 -16.224,-10.575 -29.182,-22.922 -37.468,-35.702 -7.273,-11.213 -10.962,-22.708 -10.962,-34.161 0,-11.453 3.689,-22.948 10.962,-34.161 8.287,-12.78 21.245,-25.127 37.468,-35.702 18.073,-11.788 39.449,-21.13 63.536,-27.776 25.785,-7.111 53.311,-10.716 81.808,-10.716 28.497,0 56.022,3.605 81.807,10.716 24.087,6.646 45.463,15.988 63.536,27.776 16.224,10.575 29.181,22.922 37.468,35.702 z" /></defs><g
     inkscape:label="Layer 1"
     inkscape:groupmode="layer"
     id="layer1"
     transform="translate(47.797819,-57.484616)"><g
       id="g27"
       transform="translate(-4.4784901,81.079187)"><path
         style="fill:#000000;stroke-width:2.32601"
         d="m 76.454426,259.2995 c 5.789451,-3.22917 6.54064,-4.68199 10.142729,-19.61708 1.700646,-7.05132 3.239836,-13.30522 3.420423,-13.89768 0.309517,-1.01504 3.450665,-1.07683 54.655212,-1.07683 60.68405,0 56.24491,0.29819 65.0259,-4.38128 7.94094,-4.23236 12.68647,-11.64861 11.34936,-17.73654 -0.85822,-3.9074 2.19573,-3.7299 -64.20158,-3.7299 H 96.592234 l 1.40055,-5.9392 c 1.7534,-7.43557 1.21023,-9.33919 -2.963771,-10.38665 -3.991347,-1.00185 25.055967,-87.055013 29.389767,-87.067853 10.57216,-0.0269 17.98359,-11.602602 13.38481,-20.897557 -1.06157,-2.145639 -1.16997,-2.928178 -0.62873,-4.539133 0.9893,-2.944418 1.58915,-3.424526 4.15098,-3.322357 5.20236,0.207571 10.27823,-13.72699 7.02438,-19.283592 -2.49338,-4.25791 -18.87574,-10.683726 -23.61657,-9.263338 -6.89198,2.064873 -12.67604,16.414163 -8.00767,19.865633 1.5498,1.145821 2.51989,2.979788 1.57618,2.979788 -0.14864,0 -11.68195,-5.590545 -25.629802,-12.423436 C 60.427925,32.786284 56.354637,32.168061 46.889144,41.633583 c -5.894547,5.894544 -5.859895,5.672943 -5.859895,37.451909 0,31.463028 0.09664,32.210408 5.538531,42.730088 5.052045,9.76647 4.908046,8.45178 4.916329,44.8888 l 0.007,32.15581 H 21.764025 c -34.105086,0 -33.021519,-0.18144 -39.174976,6.55173 -10.406446,11.38618 -6.618622,19.29599 9.2405321,19.29599 H 2.2574405 v 12.61605 c 0,16.24707 0.1629317,16.49633 9.0126285,13.78558 13.167874,-4.0335 27.297178,-17.16547 27.297178,-25.37068 0,-0.91347 0.945856,-1.03095 8.292953,-1.03095 9.605846,0 9.025149,-1.1283 4.453177,8.65206 -4.265923,9.12579 -4.481972,12.75205 -1.066563,17.90199 4.121079,6.21404 20.480813,11.23141 26.207243,8.03754 z m -11.715391,-9.35401 c -9.83923,-3.32592 -9.838306,-3.30552 -1.017882,-22.25128 3.679998,-7.90434 9.246264,-20.04893 12.369467,-26.98771 6.693356,-14.87069 5.577209,-13.30793 8.784333,-12.29971 5.13695,1.61485 5.039352,0.17694 1.094223,16.13111 -1.947929,7.87784 -5.167685,21.10843 -7.155028,29.40123 -4.70028,19.61349 -4.403158,19.27568 -14.075113,16.00636 z m -53.865353,-16.6217 v -8.61588 h 9.272778 c 10.676262,0 10.410291,-0.25778 6.245846,6.05083 -2.741489,4.15304 -12.227524,11.05229 -15.364764,11.17481 -0.08443,0.002 -0.153771,-3.87109 -0.153771,-8.60976 z m 81.862835,-18.30887 c 0.0073,-0.25419 0.37077,-1.84623 0.809352,-3.53869 l 0.797597,-3.07701 58.348874,-0.15719 c 63.59419,-0.17155 59.76537,-0.38442 54.92899,3.05941 -6.10278,4.34553 -3.10958,4.14415 -61.81682,4.16032 -29.19399,0.007 -53.074644,-0.19311 -53.068107,-0.4464 z m -105.864236,-0.47783 c 0,-0.51647 1.238944,-2.17822 2.753192,-3.69255 l 2.7532108,-2.75313 H 27.473851 c 19.302354,0 35.095168,0.1042 35.095168,0.23353 0,0.12843 -0.712713,1.78991 -1.58366,3.69254 l -1.583678,3.4591 H 23.136982 c -32.1028878,0 -36.264701,-0.10683 -36.264701,-0.93949 z M 76.831822,171.9719 c -0.231737,-37.74047 1.530937,-32.91837 0.169943,-45.3298 -2.398462,-11.26617 1.860677,-1.73873 1.613037,-31.112023 -0.235774,-27.970579 -4.597477,-15.001968 -1.68622,-18.461703 4.28119,-5.08789 -2.324801,-5.723548 7.044724,-1.354172 20.836264,9.716789 37.779484,11.600408 38.936564,13.071373 2.36011,3.000401 7.09258,-3.78099 3.49175,-2.592615 -2.36525,0.780617 -1.03383,1.191709 -29.514486,-9.112334 C 69.087061,67.022875 72.352023,61.039883 72.55857,121.66226 c 0.182782,53.63879 -0.07275,50.73466 4.472803,50.73466 4.523815,0 4.290025,2.44119 4.473696,-46.71733 0.09029,-24.40074 0.36807,-44.362924 0.615528,-44.3605 1.841216,0.01886 30.592493,11.126425 30.533203,11.796925 -0.435,4.920642 -28.241989,85.493145 -29.391632,85.164135 -5.679021,-1.62491 -6.416267,-0.92935 -11.862144,11.19153 -4.215284,9.38202 -4.215284,9.38202 -7.412307,9.38527 l -3.196987,0.002 z M 127.59469,65.574249 c -0.74613,-0.286342 -0.80083,-0.711186 -0.28283,-2.197141 0.8759,-2.512579 0.24726,-6.490533 -1.37174,-8.680354 -1.35228,-1.829036 -0.89971,-6.590912 0.72169,-7.592949 0.4191,-0.258948 13.05506,3.746697 13.97444,4.430004 0.94211,0.700139 -1.9974,6.292057 -3.47311,6.606926 -2.8741,0.613194 -5.46828,2.65802 -6.6665,5.254695 -1.20723,2.61629 -1.39483,2.757153 -2.90195,2.178819 z M 23.638252,181.22514 c 3.304724,-0.70958 4.313805,-5.42947 1.614827,-7.5526 -4.550487,-3.57938 -19.9181799,-1.25793 -19.9181799,3.00893 0,4.12448 9.3971879,6.45708 18.3033529,4.54367 z m 166.744188,-3.90902 c 2.88614,-1.16279 3.46903,-4.77711 1.14517,-7.10098 -2.15225,-2.15225 -16.36247,-2.32785 -19.02302,-0.23443 -6.57071,5.16853 8.20706,11.23257 17.87785,7.33613 z m -46.87842,-3.69613 c 4.50415,-4.97715 0.69754,-7.37719 -11.70019,-7.37719 -11.35844,0 -12.82126,0.47962 -12.82126,4.20416 0,4.07041 0.99203,4.41181 12.82126,4.41181 9.82014,0 10.65953,-0.0934 11.70019,-1.23878 z M 35.826193,146.26968 c 3.848192,-3.84829 0.896483,-7.10522 -6.439163,-7.10522 -6.128353,0 -7.640895,0.87394 -7.640895,4.41164 0,4.32138 10.452703,6.32091 14.080058,2.69358 z m 125.579587,-1.18309 c 3.10853,-1.40432 3.6362,-4.43418 1.19708,-6.8734 -2.1059,-2.1058 -10.91074,-2.2593 -13.48425,-0.23443 -5.918,4.65515 4.44599,10.65091 12.28717,7.10836 z m 30.12183,-25.89542 c 4.54683,-4.54682 1.20572,-7.41303 -8.64122,-7.41303 -10.10529,0 -14.00762,3.46693 -8.8318,7.84666 2.24122,1.89645 15.47126,1.56807 17.47302,-0.43381 z m -39.86352,-8.74801 c 1.67595,-0.67454 2.71554,-3.80059 1.85837,-5.58835 -2.6675,-5.563113 -20.79549,-4.31212 -20.79549,1.43521 0,3.86186 12.72505,6.65253 18.93712,4.15314 z M 32.306137,92.814312 c 4.181078,-4.450616 1.147157,-7.194288 -7.941654,-7.182126 -7.447857,0.009 -7.976619,0.141374 -9.090726,2.257894 -2.884084,5.479314 12.368289,9.888887 17.03238,4.924232 z M 184.14256,84.112189 c 4.21572,-4.215713 -0.50991,-8.538986 -8.18401,-7.487116 -5.09471,0.698343 -6.99165,4.939421 -3.45396,7.722172 2.52157,1.983454 9.56166,1.84127 11.63797,-0.235056 z M 66.722695,29.899414 C 83.52267,25.375586 91.985119,7.5595753 84.507374,-7.5427652 73.235797,-30.307297 40.796278,-26.860899 34.478299,-2.2276411 29.625859,16.69158 47.95427,34.95331 66.722695,29.899414 Z"
         id="path27"
         sodipodi:nodetypes="cscscsscsccsccssssssscccscscscssssccsscscssccsscccccccscccsccssccssccccssscssccccscccscscccssccsccsccccsssccsscccccccscccccscccccsssssssscc" /></g></g></svg>
