<?xml version="1.0" encoding="UTF-8" standalone="no"?>
<!-- Created with Inkscape (http://www.inkscape.org/) -->

<svg
   width="284.66901mm"
   height="284.66901mm"
   viewBox="0 0 284.66901 284.669"
   version="1.1"
   id="svg1"
   xml:space="preserve"
   inkscape:version="1.3.2 (091e20e, 2023-11-25, custom)"
   sodipodi:docname="via_ferrata.svg"
   xmlns:inkscape="http://www.inkscape.org/namespaces/inkscape"
   xmlns:sodipodi="http://sodipodi.sourceforge.net/DTD/sodipodi-0.dtd"
   xmlns="http://www.w3.org/2000/svg"
   xmlns:svg="http://www.w3.org/2000/svg"><sodipodi:namedview
     id="namedview1"
     pagecolor="#ffffff"
     bordercolor="#666666"
     borderopacity="1.0"
     inkscape:showpageshadow="2"
     inkscape:pageopacity="0.0"
     inkscape:pagecheckerboard="0"
     inkscape:deskcolor="#d1d1d1"
     inkscape:document-units="mm"
     inkscape:zoom="0.25858552"
     inkscape:cx="270.70348"
     inkscape:cy="75.410256"
     inkscape:window-width="1920"
     inkscape:window-height="1017"
     inkscape:window-x="-8"
     inkscape:window-y="-8"
     inkscape:window-maximized="1"
     inkscape:current-layer="g27" /><defs
     id="defs1"><path
       id="SVGID_1_"
       d="m 468.373,738.907 c 7.273,11.213 10.962,22.708 10.962,34.161 0,11.453 -3.689,22.948 -10.962,34.161 -8.287,12.78 -21.245,25.127 -37.468,35.702 -18.073,11.788 -39.449,21.13 -63.536,27.776 -25.785,7.111 -53.311,10.716 -81.807,10.716 -28.497,0 -56.022,-3.605 -81.808,-10.716 -24.087,-6.646 -45.463,-15.988 -63.536,-27.776 -16.224,-10.575 -29.182,-22.922 -37.468,-35.702 -7.273,-11.213 -10.962,-22.708 -10.962,-34.161 0,-11.453 3.689,-22.948 10.962,-34.161 8.287,-12.78 21.245,-25.127 37.468,-35.702 18.073,-11.788 39.449,-21.13 63.536,-27.776 25.785,-7.111 53.311,-10.716 81.808,-10.716 28.497,0 56.022,3.605 81.807,10.716 24.087,6.646 45.463,15.988 63.536,27.776 16.224,10.575 29.181,22.922 37.468,35.702 z" /><path
       id="SVGID_1_-2"
       d="m 468.373,738.907 c 7.273,11.213 10.962,22.708 10.962,34.161 0,11.453 -3.689,22.948 -10.962,34.161 -8.287,12.78 -21.245,25.127 -37.468,35.702 -18.073,11.788 -39.449,21.13 -63.536,27.776 -25.785,7.111 -53.311,10.716 -81.807,10.716 -28.497,0 -56.022,-3.605 -81.808,-10.716 -24.087,-6.646 -45.463,-15.988 -63.536,-27.776 -16.224,-10.575 -29.182,-22.922 -37.468,-35.702 -7.273,-11.213 -10.962,-22.708 -10.962,-34.161 0,-11.453 3.689,-22.948 10.962,-34.161 8.287,-12.78 21.245,-25.127 37.468,-35.702 18.073,-11.788 39.449,-21.13 63.536,-27.776 25.785,-7.111 53.311,-10.716 81.808,-10.716 28.497,0 56.022,3.605 81.807,10.716 24.087,6.646 45.463,15.988 63.536,27.776 16.224,10.575 29.181,22.922 37.468,35.702 z" /><inkscape:path-effect
       effect="spiro"
       id="path-effect282"
       is_visible="true"
       lpeversion="1" /><inkscape:path-effect
       effect="spiro"
       id="path-effect281"
       is_visible="true"
       lpeversion="1" /><path
       id="SVGID_1_-9"
       d="m 468.373,738.907 c 7.273,11.213 10.962,22.708 10.962,34.161 0,11.453 -3.689,22.948 -10.962,34.161 -8.287,12.78 -21.245,25.127 -37.468,35.702 -18.073,11.788 -39.449,21.13 -63.536,27.776 -25.785,7.111 -53.311,10.716 -81.807,10.716 -28.497,0 -56.022,-3.605 -81.808,-10.716 -24.087,-6.646 -45.463,-15.988 -63.536,-27.776 -16.224,-10.575 -29.182,-22.922 -37.468,-35.702 -7.273,-11.213 -10.962,-22.708 -10.962,-34.161 0,-11.453 3.689,-22.948 10.962,-34.161 8.287,-12.78 21.245,-25.127 37.468,-35.702 18.073,-11.788 39.449,-21.13 63.536,-27.776 25.785,-7.111 53.311,-10.716 81.808,-10.716 28.497,0 56.022,3.605 81.807,10.716 24.087,6.646 45.463,15.988 63.536,27.776 16.224,10.575 29.181,22.922 37.468,35.702 z" /></defs><g
     inkscape:label="Layer 1"
     inkscape:groupmode="layer"
     id="layer1"
     transform="translate(47.797819,-57.484616)"><g
       id="g27"
       transform="translate(-4.4784901,81.079187)"><g
         inkscape:label="Layer 1"
         id="layer1-1"
         transform="matrix(0.48710415,0,0,0.48710415,271.17445,-9.0837042)"><g
           id="Guides_For_Artboard"
           transform="matrix(0.26458333,0,0,0.26458333,-493.70926,-133.57392)">
</g><g
           id="g11"
           transform="matrix(0.26458333,0,0,0.26458333,-882.60127,-90.608346)">
	<path
   d="m 2662.996,2414.719 c 0.019,13.522 -4.873,16.307 -17.061,16.062 -92.979,-1.873 -410.363,-0.724 -476.054,0.094 -12.046,0.15 -15.091,-3.233 -13.078,-15.304 10.03,-60.149 42.346,-379.489 43.109,-411.85 0.252,-10.69 2.644,-20.299 10.011,-27.98 41.178,-42.936 53.065,-98.215 65.096,-153.471 4.171,-19.158 -3.82,-35.054 -18.127,-45.095 -23.683,-16.62 -25.142,-36.833 -21.612,-63.299 8.969,-67.252 21.4,-134.206 26.479,-201.746 2.69,-35.771 14.198,-64.565 37.312,-89.559 25.753,-27.847 34.017,-61.541 37.158,-97.61 0.883,-10.134 1.467,-20.789 6.68,-29.531 7.489,-12.556 2.372,-21.031 -6.736,-28.919 -18.181,-15.745 -35.896,-32.137 -55.064,-46.589 -9.998,-7.538 -12.735,-15.556 -11.247,-26.98 3.989,-30.644 71.491,-619.792 73.042,-629.814 1.044,-6.746 -18.358,-331.07232 -10.954,-325.40832 87.009,66.561 355.3271,25.01618 323.772,542.06032 -10.7575,176.26538 7.018,8.688 7.01,14.989 -0.271,204.984 -0.111,1350.656 0.264,1619.95 z"
   id="path1-3"
   sodipodi:nodetypes="scscscsccsccccscssscs" />
	<path
   d="m 1713.598,1078.193 c 6.479,-0.221 6.963,2.886 7.723,5.43 1.844,6.173 6.632,9.179 12.281,9.635 6.479,0.522 7.482,-5.756 9.703,-10.162 51.405,-101.982 107.394,-201.342 169.154,-297.452 36.481,-56.772 71.265,-114.663 112.435,-168.29 7.034,-9.163 13.951,-18.582 22.137,-26.651 8.989,-8.86 10.854,-17.945 7.857,-30.05 -7.721,-31.185 9.413,-61.357 38.775,-70.138 2.196,-0.657 4.563,-1.779 6.685,-1.486 29.51,4.072 37.052,-20.606 50.029,-38.104 1.331,-1.795 2.521,-4.639 0.599,-6.277 -1.443,-1.229 -4.486,-1.721 -6.335,-1.102 -4.342,1.454 -8.439,3.685 -12.56,5.752 -43.668,21.906 -81.42,52.463 -120.222,81.59 -39.648,29.762 -81.388,55.959 -128.404,73.229 -33.799,12.415 -66.704,27.248 -100.309,40.219 -10.299,3.975 -13.666,7.864 -12.916,20.349 1.609,26.788 -6.003,53.018 -11.148,79.297 -11.434,58.399 -28.212,115.776 -33.828,175.284 -1.694,17.946 -2.906,35.942 -4.007,53.935 -0.385,6.292 -1.878,10.525 -9.174,11.29 -45.935,4.82 -88.375,23.156 -132.621,34.53 -28.596,7.351 -57.219,14.604 -85.873,21.725 -17.103,4.25 -17.84,4.095 -20.131,-13.438 -2.573,-19.689 -4.393,-39.505 -5.648,-59.323 -0.533,-8.418 -3.881,-11.415 -11.852,-11.32 -13.878,0.165 -27.762,-0.078 -41.643,-0.167 -46.872,-0.3 -77.364,-30.005 -77.298,-77.211 0.11,-79.122 13.675,-156.27 36.775,-231.808 4.864,-15.906 10.489,-31.579 15.632,-47.402 18.501,-56.924 67.814,-79.199 123.747,-71.059 10.938,1.592 22.058,2.897 31.54,9.511 7.014,4.892 9.674,9.807 1.232,16.11 -7.847,5.859 -13.932,13.5 -19.468,21.521 -1.526,2.211 -3.783,4.971 -1.828,7.564 2.826,3.749 6.257,0.851 8.513,-0.905 16.165,-12.585 34.93,-20.744 52.37,-31.142 5.145,-3.067 10.642,-5.551 16.013,-8.233 16.992,-8.486 33.123,-9.314 48.936,3.519 7.468,6.061 16.447,10.271 24.778,15.256 41.086,24.587 81.449,23.541 120.926,-3.667 13.698,-9.441 27.427,-18.873 40.662,-28.94 29.802,-22.669 64.833,-35.288 97.972,-51.492 59.768,-29.223 120.874,-55.773 178.44,-89.363 8.734,-5.097 17.786,-10.538 24.677,-17.745 23.832,-24.925 53.272,-30.193 85.36,-25.414 8.633,1.286 12.157,-0.319 15.653,-8 3.19,-7.01 8.569,-13.106 13.423,-19.258 10.49,-13.297 10.277,-21.858 -1.277,-34.112 -12.907,-13.688 134.4154,55.74111 117.2254,55.01511 -183.025,-10.63562 -107.2584,-146.63645 -18.6974,-65.08411 22.292,20.528 51.933,33.08 74.839,54.324 36.705,34.044 66.237,73.32 88.844,117.869 6.511,12.831 11.095,26.389 12.764,40.771 0.303,2.612 1.257,6.172 -1.513,7.621 -3.92,2.051 -5.756,-1.716 -7.514,-4.286 -9.647,-14.104 -18.435,-28.865 -28.891,-42.334 -37.49,-48.296 -81.673,-89.325 -134.966,-119.81 -41.5171,-23.12688 -61.955,3.38209 -87.782,30.571 -3.986,4.119 -2.346,8.368 -1.383,12.922 6.087,28.777 -8.222,52.382 -36.882,60.152 -18.237,4.944 -26.037,21.129 -37.314,33.521 -4.616,5.073 -7.159,12.123 -12.015,16.873 -16.969,16.6 -22.319,34.154 -18.069,59.162 6.886,40.516 -22.514,73.459 -63.648,78.431 -0.458,0.055 -1.001,0.321 -1.36,0.163 -20.399,-8.994 -25.822,7.316 -34.859,19.552 -53.609,72.582 -100.196,149.8 -148.344,225.91 -41.71,65.934 -78.657,134.782 -112.604,205.142 -5.611,11.63 -12.322,22.747 -18.87,33.899 -3.262,5.555 -4.634,9.188 2.88,12.966 11.383,5.722 15.157,15.873 11.227,28.058 -7.719,23.934 -17.26,46.332 -46.852,49.932 -5.389,0.655 -7.206,5.637 -9.023,9.718 -38.278,85.995 -78.872,170.911 -104.77,262.05 -20.425,71.881 -42.962,143.204 -60.345,215.888 -21.585,90.256 -37.925,181.526 -49.686,273.664 -7.423,58.154 -15.442,116.223 -21.615,174.533 -1.169,11.045 -4.974,20.524 -18.048,23.107 -16.284,3.218 -27.482,-4.941 -27.646,-21.694 -0.222,-22.743 3.999,-45.048 8.255,-67.25 8.188,-42.711 10.011,-86.196 16.277,-129.128 20.09,-137.637 46.062,-273.972 87.423,-407.091 33.045,-106.351 66.979,-212.294 116.773,-312.348 2.054,-4.128 3.72,-8.63 6.564,-12.154 11.304,-14.006 17.82,-26.438 5.687,-45.33 -7.992,-12.444 -4.676,-30.234 5.011,-43.318 8.571,-11.574 22.207,-20.549 11.442,-38.022 z m 31.174,82.737 c 8.879,-0.164 19.366,-9.809 19.507,-17.943 0.155,-8.946 -12.781,-17.198 -26.156,-17.27 -11.084,-0.059 -14.307,6.529 -14.29,15.9 0.02,10.501 10.02,19.514 20.939,19.313 z"
   id="path2-4"
   sodipodi:nodetypes="cscccccsscscccsssscsscsssssccscssssccccscscccssccccscsscccsscscccccccsscscccsssccsccscscccsccc" />
	<path
   d="m 2231.903,1832.393 c -0.967,20.954 -12.916,42.646 -28.599,62.469 -8.294,10.483 -17.646,20.203 -27.146,29.639 -14.98,14.88 -24.553,30.566 -22.717,53.658 2.285,28.738 -25.343,53.624 -51.993,50.078 -4.968,-0.661 -10.149,-1.865 -14.575,-4.113 -35.232,-17.892 -63.671,-42.037 -77.112,-81.091 -13.71,-39.835 -34.823,-76.454 -52.025,-114.792 -30.261,-67.44 -62.831,-133.844 -93.161,-201.254 -21.471,-47.721 -53.226,-87.283 -90.262,-123.403 -31.417,-30.64 -58.94,-65.163 -92.711,-93.465 -5.489,-4.6 -2.454,-9.189 -0.882,-13.773 9.806,-28.597 27.234,-52.268 48.203,-73.531 22.392,-22.706 44.905,-45.295 67.546,-67.753 12.464,-12.363 19.937,-11.808 30.132,2.966 45.668,66.181 91.115,132.514 136.56,198.849 12.405,18.107 20.119,38.368 26.568,59.199 33.595,108.505 67.244,216.994 100.905,325.479 4.543,14.642 7.944,15.981 21.629,9.695 11.669,-5.359 17.81,-15.765 24.357,-25.817 9.173,-14.083 19.189,-27.105 35.15,-34.369 29.199,-13.29 60.344,5.281 60.133,41.329 z"
   id="path3-0" />
	<path
   d="m 2042.379,1398.008 c -0.734,-18.071 -5.728,-45.633 -4.11,-74.068 3.622,-63.656 7.537,-127.284 11.906,-190.892 0.317,-4.613 3.668,-11.075 -1.865,-13.866 -4.006,-2.02 -8.571,2.243 -12.514,4.464 -46.304,26.08 -92.72,51.969 -138.694,78.621 -9.508,5.512 -14.695,4.639 -22.033,-3.614 -25.46,-28.636 -47.729,-58.788 -56.76,-97.009 -1.33,-5.627 -2.365,-10.23 0.383,-15.819 10.381,-21.116 20.466,-42.386 30.179,-63.818 3.188,-7.035 8.818,-10.437 15.145,-13.365 35.709,-16.526 73.141,-28.504 110.28,-41.17 42.334,-14.438 83.444,-32.639 127.855,-40.772 55.05,-10.082 103.18,28.289 104.656,84.669 0.888,33.951 -7.178,66.94 -12.515,100.178 -12.07,75.177 -24.419,150.31 -36.901,225.42 -1.784,10.737 1.603,14.6 12.345,12.634 12.55,-2.297 21.883,-8.681 28.916,-19.42 10.226,-15.613 21.924,-29.753 40.55,-36.299 9.559,-3.359 18.891,-3.838 28.437,-0.734 19.041,6.19 24.807,13.839 22.715,33.79 -4.868,46.433 -32.21,78.377 -68.965,103.734 -9.114,6.288 -18.806,11.769 -28.418,17.3 -12.489,7.186 -20.833,16.518 -25.154,31.23 -9.518,32.411 -45.886,44.322 -73.744,25.126 -33.653,-23.188 -54.425,-53.603 -51.694,-106.32 z"
   id="path4-3" />
	<path
   d="m 1375.491,1282.003 c -3.239,-27.658 10.48,-48.088 34.587,-62.527 6.912,-4.14 8.331,-9.68 6.801,-16.38 -1.868,-8.177 -8.857,-4.99 -13.8,-4.791 -8.263,0.332 -16.483,1.709 -24.724,2.623 -10.161,1.127 -15.746,-3.878 -17.557,-13.487 -7.26,-38.527 -14.42,-77.074 -21.653,-115.606 -2.58,-13.745 4.981,-19.94 17.009,-21.777 26.51,-4.049 53.198,-6.204 80.034,-6.855 11.013,-0.267 16.949,3.332 15.482,15.094 -1.6,12.832 4.177,14.165 15.491,12.103 51.259,-9.345 100.769,-26.047 151.973,-35.52 8.606,-1.592 17.223,-3.188 25.739,-5.191 9.262,-2.178 18.794,-3.063 23.533,-14.239 2.937,-6.927 11.876,-6.113 18.54,-7.283 15.44,-2.713 31.071,-4.441 46.404,-7.627 10.156,-2.11 16.142,0.337 18.17,10.812 0.701,3.622 1.848,7.16 2.514,10.787 2.029,11.056 0.426,18.175 -12.877,22.457 -27.284,8.784 -54.359,14.741 -83.286,17.057 -40.378,3.233 -78.684,18.79 -117.835,29.219 -24.921,6.638 -49.565,14.337 -74.572,20.611 -7.171,1.799 -8.727,4.495 -8.089,11.214 2.566,27.016 8.732,53.897 3.175,81.273 -1.457,7.178 4.907,9.116 9.473,11.991 33.564,21.136 47.521,67.816 31.003,103.774 -12.9,28.084 -43.733,41.143 -79.881,33.833 -25.63,-5.183 -45.064,-30.195 -45.643,-58.781 -0.076,-3.7 -0.011,-7.402 -0.011,-12.784 z m 100.048,6.271 c -0.153,-22.299 -19.979,-49.108 -35.973,-48.64 -15.91,0.465 -34.164,23.784 -33.832,43.22 0.455,26.651 11.174,38.761 34.363,38.826 22.371,0.062 35.586,-12.394 35.442,-33.406 z"
   id="path5-6" />
	<path
   d="m 1564.376,399.743 c 2.583,-33.363 5.276,-69.343 28.176,-99.771 34.307,-45.584 103.553,-65.263 164.377,-45.883 58.432,18.618 94.697,58.595 110.228,117.64 1.628,6.19 3.997,13.555 -0.371,18.668 -5.113,5.985 -12.166,1.172 -18.061,-0.566 -54.758,-16.136 -110.658,-22.148 -166.955,-13.014 -33.9,5.5 -64.53,21.439 -92.201,42.39 -4.999,3.785 -8.758,12.247 -17.383,7.928 -8.643,-4.328 -8.015,-12.64 -7.815,-20.579 0.035,-1.385 0,-2.772 0,-6.813 z m 191.471,-89.26 c 0.318,-11.619 -12.526,-24.51 -25.119,-25.21 -10.251,-0.57 -22.984,10.902 -23.532,21.201 -0.596,11.206 12.866,24.653 24.948,24.919 10.856,0.239 23.428,-10.851 23.703,-20.91 z m -96.678,9.307 c -0.024,-10.784 -10.395,-21.163 -21.257,-21.274 -11.889,-0.122 -23.313,11.112 -23.331,22.942 -0.015,9.848 13.682,22.61 24.335,22.675 9.834,0.06 20.28,-12.496 20.253,-24.343 z"
   id="path6-3" />
	<path
   d="m 1489.955,1139.352 c -1.24,-7.951 5.196,-8.98 10.273,-10.323 45.849,-12.126 91.304,-25.813 137.92,-34.925 12.196,-2.384 24.316,-5.157 36.487,-7.673 3.604,-0.745 7.399,-1.671 10.437,1.426 3.435,3.501 1.073,7.268 -0.566,10.22 -12.646,22.783 -15.469,48.025 -19.188,73.141 -3.327,22.472 -17.483,40.485 -26.477,60.61 -12.416,27.783 -26.361,54.885 -39.732,82.239 -8.093,16.555 -8.318,16.281 -21.792,5.099 -40.387,-33.514 -58.037,-80.108 -73.75,-127.731 -5.619,-17.033 -10.737,-34.296 -13.612,-52.083 z"
   id="path7-0" />
	<path
   d="m 1652.019,467.263 c 5.909,-15.178 6.606,-27.315 6.795,-39.556 0.292,-18.855 4.413,-24.832 22.193,-27.132 53.839,-6.964 106.647,-0.941 158.604,14.134 7.683,2.229 9.099,7.318 9.228,14.637 0.919,51.846 -38.624,96.108 -93.661,105.183 -29.192,4.814 -56.77,2.333 -82.473,-13.546 -8.349,-5.158 -18.135,-7.915 -27.639,-8.087 -11.285,-0.203 -17.859,-5.478 -23.476,-14.09 -6.322,-9.694 -12.333,-19.527 -16.411,-30.391 -7.748,-20.638 -4.889,-29.422 13.443,-42.112 20.128,-13.933 21.821,-13.295 24.435,11.002 0.996,9.267 3.278,17.902 8.962,29.958 z"
   id="path8-0" />
	<path
   d="m 1933.809,700.48 c -7.865,12.194 -14.469,22.054 -20.688,32.152 -14.509,23.56 -29.975,46.567 -42.325,71.392 -3.098,6.228 -7.001,9.348 -14.133,7.486 -23.157,-6.044 -46.317,-12.079 -69.527,-17.912 -7.175,-1.803 -9.752,-4.773 -7.358,-12.755 10.066,-33.564 16.877,-67.893 22.897,-102.395 1.989,-11.4 9.733,-15.086 19.614,-9.164 27.272,16.344 57.04,25.431 87.91,31.766 6.946,1.425 13.632,1.179 23.61,-0.57 z"
   id="path9-9" />
	<path
   d="m 1963.04,829.566 c 9.967,-16.307 114.262,-172.758 124.338,-182.284 4.872,-4.607 11.114,-8.234 17.244,-2.73 6.06,5.442 0.028,9.941 -2.886,14.213 -8.818,12.926 -69.324,105.052 -90.173,138.562 -7.485,12.031 -16.573,22.128 -28.677,29.362 -5.449,3.257 -11.144,6.736 -19.846,2.877 z"
   id="path10-5" />
	<path
   d="m 1839.537,1231.368 c -17.998,-4.241 -34.426,-14.867 -50.2,-25.789 -6.995,-4.843 0.237,-12.817 3.842,-18.086 4.018,-5.874 9.084,-13.049 17.963,-7.939 16.319,9.391 29.07,22.721 38.384,38.951 4.857,8.46 0.98,13.054 -9.989,12.863 z"
   id="path11" />
</g></g></g></g></svg>
