<?xml version="1.0" encoding="UTF-8"?>
<svg xmlns="http://www.w3.org/2000/svg" xmlns:xlink="http://www.w3.org/1999/xlink" width="20" height="20" viewBox="0 0 20 20">
<path fill-rule="nonzero" fill="rgb(67.45098%, 22.352941%, 67.45098%)" fill-opacity="1" d="M 4.285156 0 C 2.855469 0 2.855469 0.667969 2.855469 1.429688 L 2.855469 4.285156 C 2.855469 5.714844 0 5.714844 0 8.570312 L 0 18.570312 C 0 19.378906 0.667969 20 1.429688 20 L 7.144531 20 C 8 20 8.570312 19.429688 8.570312 18.570312 L 8.570312 8.570312 C 8.570312 5.714844 5.714844 5.714844 5.714844 4.285156 L 5.714844 1.429688 C 5.714844 0.621094 5.714844 0 4.285156 0 Z M 10 7.144531 C 10 11.429688 10.671875 14.285156 14.285156 14.285156 L 14.285156 17.144531 C 14.285156 18.09375 12.855469 18.570312 12.144531 18.570312 C 10.714844 18.570312 10 18.570312 10 20 L 20 20 C 20 18.570312 19.285156 18.570312 17.855469 18.570312 C 17.144531 18.570312 15.714844 18.046875 15.714844 17.144531 L 15.714844 14.285156 C 19.246094 14.285156 20 11.429688 20 7.144531 Z M 10 7.144531 "/>
</svg>
