<?xml version="1.0" encoding="UTF-8"?>
<svg xmlns="http://www.w3.org/2000/svg" xmlns:xlink="http://www.w3.org/1999/xlink" width="20" height="20" viewBox="0 0 20 20">
<path fill-rule="nonzero" fill="rgb(0%, 57.254902%, 85.490196%)" fill-opacity="1" d="M 10 0 L 0 5 L 0 7.855469 L 2.144531 6.929688 L 2.144531 20 L 4.285156 20 L 4.285156 6 L 10 3.570312 L 15.714844 6 L 15.714844 20 L 17.855469 20 L 17.855469 6.929688 L 20 7.855469 L 20 5 Z M 9.960938 7.210938 C 9.40625 7.210938 8.953125 7.660156 8.953125 8.21875 C 8.953125 8.773438 9.40625 9.222656 9.960938 9.222656 C 10.515625 9.222656 10.964844 8.773438 10.964844 8.21875 C 10.964844 7.660156 10.515625 7.210938 9.960938 7.210938 Z M 7.210938 8.839844 C 7.054688 8.804688 6.902344 8.894531 6.867188 9.046875 L 6.164062 11.964844 C 6.125 12.117188 6.21875 12.269531 6.375 12.308594 L 7.210938 12.511719 C 7.363281 12.550781 7.523438 12.457031 7.558594 12.300781 L 8.261719 9.390625 C 8.300781 9.234375 8.203125 9.078125 8.050781 9.039062 Z M 9.667969 9.378906 C 8.847656 9.355469 8.640625 10.21875 8.640625 10.21875 L 6.515625 19.152344 C 6.507812 19.199219 6.503906 19.246094 6.503906 19.292969 C 6.503906 19.6875 6.820312 20 7.210938 20 C 7.53125 20 7.800781 19.785156 7.886719 19.496094 L 9.105469 14.46875 L 10.257812 19.464844 C 10.335938 19.773438 10.617188 20 10.945312 20 C 11.335938 20 11.648438 19.6875 11.648438 19.292969 C 11.648438 19.242188 11.648438 19.1875 11.636719 19.136719 L 10.046875 12.496094 L 10.179688 11.914062 L 10.285156 12.375 C 10.378906 12.675781 10.652344 12.699219 10.652344 12.699219 L 12.289062 13.121094 C 12.320312 13.125 12.355469 13.128906 12.386719 13.128906 C 12.65625 13.128906 12.871094 12.914062 12.871094 12.648438 C 12.871094 12.417969 12.714844 12.222656 12.5 12.171875 L 11.082031 11.820312 L 10.695312 10.238281 C 10.507812 9.355469 9.667969 9.378906 9.667969 9.378906 Z M 14.042969 10.398438 C 13.925781 10.398438 13.839844 10.488281 13.8125 10.601562 L 12.125 19.75 C 12.125 19.757812 12.125 19.761719 12.125 19.765625 C 12.125 19.894531 12.226562 19.996094 12.355469 19.996094 C 12.472656 19.996094 12.570312 19.90625 12.585938 19.796875 L 14.273438 10.644531 L 14.273438 10.628906 C 14.273438 10.503906 14.171875 10.398438 14.042969 10.398438 Z M 14.042969 10.398438 "/>
</svg>
