<?xml version="1.0" encoding="UTF-8"?>
<svg xmlns="http://www.w3.org/2000/svg" xmlns:xlink="http://www.w3.org/1999/xlink" width="20" height="20" viewBox="0 0 20 20">
<path fill-rule="nonzero" fill="rgb(18.431373%, 38.039216%, 20%)" fill-opacity="1" d="M 5.714844 1.402344 L 0 1.402344 L 0 4.261719 L 5.714844 4.261719 Z M 5.714844 1.402344 "/>
<path fill-rule="nonzero" fill="rgb(18.431373%, 38.039216%, 20%)" fill-opacity="1" d="M 20 1.402344 L 14.285156 1.402344 L 14.285156 4.261719 L 20 4.261719 Z M 20 1.402344 "/>
<path fill-rule="nonzero" fill="rgb(18.431373%, 38.039216%, 20%)" fill-opacity="1" d="M 14.285156 4.265625 L 11.429688 4.265625 L 11.429688 7.121094 L 14.285156 7.121094 Z M 14.285156 4.265625 "/>
<path fill-rule="nonzero" fill="rgb(18.431373%, 38.039216%, 20%)" fill-opacity="1" d="M 8.570312 4.265625 L 5.714844 4.265625 L 5.714844 7.121094 L 8.570312 7.121094 Z M 8.570312 4.265625 "/>
<path fill-rule="nonzero" fill="rgb(18.431373%, 38.039216%, 20%)" fill-opacity="1" d="M 2.855469 7.128906 L 2.855469 9.984375 L 0 9.984375 L 0 19.984375 L 2.855469 19.984375 L 2.855469 17.128906 L 5.714844 17.128906 L 5.714844 19.984375 L 8.570312 19.984375 L 8.570312 17.128906 L 11.429688 17.128906 L 11.429688 19.984375 L 14.285156 19.984375 L 14.285156 17.128906 L 17.144531 17.128906 L 17.144531 19.984375 L 20 19.984375 L 20 9.984375 L 17.144531 9.984375 L 17.144531 7.128906 Z M 5.714844 9.984375 L 8.570312 9.984375 L 8.570312 12.839844 L 5.714844 12.839844 Z M 11.429688 9.984375 L 14.285156 9.984375 L 14.285156 12.839844 L 11.429688 12.839844 Z M 11.429688 9.984375 "/>
</svg>
