<?xml version="1.0" encoding="UTF-8"?>
<svg xmlns="http://www.w3.org/2000/svg" xmlns:xlink="http://www.w3.org/1999/xlink" width="20" height="20" viewBox="0 0 20 20">
<defs>
<filter id="filter-remove-color" x="0%" y="0%" width="100%" height="100%">
<feColorMatrix color-interpolation-filters="sRGB" values="0 0 0 0 1 0 0 0 0 1 0 0 0 0 1 0 0 0 1 0" />
</filter>
<mask id="mask-0">
<g filter="url(#filter-remove-color)">
<rect x="-2" y="-2" width="24" height="24" fill="rgb(0%, 0%, 0%)" fill-opacity="0.5"/>
</g>
</mask>
<clipPath id="clip-0">
<rect x="0" y="0" width="20" height="20"/>
</clipPath>
<g id="source-7" clip-path="url(#clip-0)">
<path fill-rule="nonzero" fill="rgb(0%, 57.254902%, 85.490196%)" fill-opacity="1" d="M 20 0 L 0 0 L 0 2.855469 L 20 2.855469 Z M 20 0 "/>
</g>
<mask id="mask-1">
<g filter="url(#filter-remove-color)">
<rect x="-2" y="-2" width="24" height="24" fill="rgb(0%, 0%, 0%)" fill-opacity="0.5"/>
</g>
</mask>
<clipPath id="clip-1">
<rect x="0" y="0" width="20" height="20"/>
</clipPath>
<g id="source-11" clip-path="url(#clip-1)">
<path fill-rule="nonzero" fill="rgb(0%, 57.254902%, 85.490196%)" fill-opacity="1" d="M 20 17.144531 L 0 17.144531 L 0 20 L 20 20 Z M 20 17.144531 "/>
</g>
</defs>
<path fill-rule="nonzero" fill="rgb(0%, 57.254902%, 85.490196%)" fill-opacity="1" d="M 0.714844 4.285156 C 0.320312 4.285156 0 4.605469 0 5 L 0 15.714844 L 1.429688 15.714844 L 1.429688 12.855469 L 18.570312 12.855469 L 18.570312 15.714844 L 20 15.714844 L 20 7.855469 C 20 7.460938 19.679688 7.144531 19.285156 7.144531 C 18.890625 7.144531 18.570312 7.460938 18.570312 7.855469 L 18.570312 11.429688 L 1.429688 11.429688 L 1.429688 5 C 1.429688 4.605469 1.109375 4.285156 0.714844 4.285156 Z M 5 5.714844 C 3.816406 5.714844 2.855469 6.671875 2.855469 7.855469 C 2.855469 9.039062 3.816406 10 5 10 C 6.183594 10 7.144531 9.039062 7.144531 7.855469 C 7.144531 6.671875 6.183594 5.714844 5 5.714844 Z M 8.570312 7.144531 L 8.570312 10 L 17.144531 10 C 17.144531 8.570312 15.664062 7.144531 14.285156 7.144531 Z M 8.570312 7.144531 "/>
<g mask="url(#mask-0)">
<use xlink:href="#source-7"/>
</g>
<g mask="url(#mask-1)">
<use xlink:href="#source-11"/>
</g>
</svg>
