<?xml version="1.0" encoding="UTF-8"?>
<svg xmlns="http://www.w3.org/2000/svg" xmlns:xlink="http://www.w3.org/1999/xlink" width="20" height="20" viewBox="0 0 20 20">
<path fill-rule="nonzero" fill="rgb(45.098039%, 29.019608%, 3.137255%)" fill-opacity="1" d="M 4.285156 0 L 4.285156 1.429688 L 5.714844 1.429688 C 6.570312 1.429688 6.914062 2.917969 7.054688 4.152344 C 5.664062 3.070312 4.320312 2.683594 3.167969 2.902344 C 1.699219 3.179688 0.714844 4.535156 0.714844 6.070312 C 0.714844 7.273438 1.160156 8.328125 1.917969 9.417969 C 2.582031 10.375 3.519531 11.476562 4.6875 12.8125 C 5.210938 14.753906 6.175781 16.53125 7.144531 17.5 L 7.144531 18.570312 L 5.714844 19.285156 L 5.714844 20 L 14.285156 20 L 14.285156 19.285156 L 12.855469 18.570312 L 12.855469 17.5 C 13.824219 16.53125 14.789062 14.753906 15.3125 12.8125 C 16.480469 11.476562 17.417969 10.375 18.082031 9.417969 C 18.839844 8.328125 19.285156 7.273438 19.285156 6.070312 C 19.285156 4.535156 18.300781 3.179688 16.832031 2.902344 C 15.679688 2.683594 14.335938 3.070312 12.945312 4.152344 C 13.085938 2.917969 13.429688 1.429688 14.285156 1.429688 L 15.714844 1.429688 L 15.714844 0 Z M 3.394531 4.332031 C 4.121094 4.191406 5.335938 4.476562 6.742188 5.757812 C 5.148438 5.957031 4.285156 7.355469 4.285156 10 C 4.285156 10.042969 4.285156 10.089844 4.285156 10.132812 C 3.800781 9.570312 3.394531 9.066406 3.082031 8.617188 C 2.410156 7.652344 2.144531 6.945312 2.144531 6.070312 C 2.144531 5.070312 2.585938 4.480469 3.394531 4.332031 Z M 15.894531 4.332031 C 16.160156 4.292969 16.40625 4.292969 16.605469 4.332031 C 17.414062 4.480469 17.855469 5.070312 17.855469 6.070312 C 17.855469 6.945312 17.589844 7.652344 16.917969 8.617188 C 16.605469 9.066406 16.199219 9.570312 15.714844 10.132812 C 15.714844 10.089844 15.714844 10.042969 15.714844 10 C 15.714844 7.355469 14.851562 5.957031 13.257812 5.757812 C 14.273438 4.832031 15.191406 4.433594 15.894531 4.332031 Z M 15.894531 4.332031 "/>
</svg>
