<?xml version="1.0" encoding="UTF-8"?>
<svg xmlns="http://www.w3.org/2000/svg" xmlns:xlink="http://www.w3.org/1999/xlink" width="20" height="20" viewBox="0 0 20 20">
<path fill-rule="nonzero" fill="rgb(67.45098%, 22.352941%, 67.45098%)" fill-opacity="1" d="M 10 0 C 4.476562 0 0 4.476562 0 10 C 0 15.523438 4.476562 20 10 20 C 10.921875 20 11.664062 19.257812 11.664062 18.335938 C 11.664062 17.902344 11.503906 17.511719 11.234375 17.214844 C 10.972656 16.921875 10.816406 16.539062 10.816406 16.109375 C 10.816406 15.1875 11.5625 14.445312 12.484375 14.445312 L 14.445312 14.445312 C 17.511719 14.445312 20 11.957031 20 8.890625 C 20 3.976562 15.523438 0 10 0 Z M 12.761719 1.863281 C 13.289062 1.863281 13.792969 2.074219 14.164062 2.445312 C 14.535156 2.816406 14.746094 3.320312 14.746094 3.847656 C 14.746094 4.109375 14.695312 4.367188 14.597656 4.609375 C 14.496094 4.847656 14.351562 5.066406 14.164062 5.253906 C 13.980469 5.4375 13.761719 5.582031 13.523438 5.683594 C 13.28125 5.78125 13.023438 5.835938 12.761719 5.835938 C 12.5 5.835938 12.242188 5.78125 12.003906 5.683594 C 11.761719 5.582031 11.542969 5.4375 11.359375 5.253906 C 11.175781 5.066406 11.027344 4.847656 10.929688 4.609375 C 10.828125 4.367188 10.777344 4.109375 10.777344 3.847656 C 10.777344 3.320312 10.988281 2.816406 11.359375 2.445312 C 11.730469 2.074219 12.234375 1.863281 12.761719 1.863281 Z M 7.199219 1.890625 C 7.460938 1.890625 7.71875 1.941406 7.960938 2.042969 C 8.199219 2.140625 8.417969 2.289062 8.605469 2.472656 C 8.789062 2.65625 8.933594 2.875 9.035156 3.117188 C 9.132812 3.359375 9.183594 3.617188 9.183594 3.878906 C 9.183594 4.140625 9.132812 4.398438 9.035156 4.636719 C 8.933594 4.878906 8.789062 5.097656 8.601562 5.28125 C 8.417969 5.464844 8.199219 5.613281 7.957031 5.710938 C 7.71875 5.8125 7.460938 5.863281 7.199219 5.863281 C 6.671875 5.863281 6.167969 5.652344 5.796875 5.28125 C 5.425781 4.910156 5.214844 4.40625 5.214844 3.878906 C 5.214844 3.617188 5.265625 3.359375 5.367188 3.117188 C 5.464844 2.878906 5.609375 2.660156 5.796875 2.472656 C 5.980469 2.289062 6.199219 2.144531 6.4375 2.042969 C 6.679688 1.941406 6.9375 1.890625 7.199219 1.890625 Z M 3.867188 6.351562 C 4.128906 6.351562 4.386719 6.40625 4.625 6.503906 C 4.867188 6.605469 5.085938 6.75 5.269531 6.933594 C 5.453125 7.121094 5.601562 7.339844 5.699219 7.578125 C 5.800781 7.820312 5.851562 8.078125 5.851562 8.339844 C 5.851562 8.867188 5.640625 9.371094 5.269531 9.742188 C 4.898438 10.113281 4.394531 10.324219 3.867188 10.324219 C 3.339844 10.324219 2.835938 10.113281 2.464844 9.742188 C 2.09375 9.371094 1.882812 8.867188 1.882812 8.339844 C 1.882812 8.078125 1.933594 7.820312 2.035156 7.578125 C 2.132812 7.339844 2.28125 7.121094 2.464844 6.933594 C 2.648438 6.75 2.867188 6.605469 3.109375 6.503906 C 3.347656 6.40625 3.605469 6.351562 3.867188 6.351562 Z M 16.09375 6.351562 C 16.355469 6.351562 16.613281 6.40625 16.851562 6.503906 C 17.09375 6.605469 17.3125 6.75 17.496094 6.933594 C 17.679688 7.121094 17.828125 7.339844 17.925781 7.578125 C 18.027344 7.820312 18.078125 8.078125 18.078125 8.339844 C 18.078125 8.867188 17.867188 9.371094 17.496094 9.742188 C 17.125 10.113281 16.621094 10.324219 16.09375 10.324219 C 15.566406 10.324219 15.0625 10.113281 14.691406 9.742188 C 14.320312 9.371094 14.109375 8.867188 14.109375 8.339844 C 14.109375 8.078125 14.160156 7.820312 14.261719 7.578125 C 14.359375 7.339844 14.507812 7.121094 14.691406 6.933594 C 14.875 6.75 15.09375 6.605469 15.335938 6.503906 C 15.574219 6.40625 15.832031 6.351562 16.09375 6.351562 Z M 16.09375 6.351562 "/>
</svg>
