<?xml version="1.0" encoding="UTF-8"?>
<svg xmlns="http://www.w3.org/2000/svg" xmlns:xlink="http://www.w3.org/1999/xlink" width="20" height="20" viewBox="0 0 20 20">
<path fill-rule="nonzero" fill="rgb(45.098039%, 29.019608%, 3.137255%)" fill-opacity="1" d="M 20 0.00390625 C 19.046875 0.132812 18.09375 0.285156 17.144531 0.433594 L 17.144531 14.53125 L 16.417969 14.476562 C 14.539062 14.339844 12.550781 15.277344 11.679688 16.703125 C 11.359375 17.226562 11.324219 18.058594 11.605469 18.511719 C 12.046875 19.21875 13.09375 19.8125 14.234375 20.003906 C 16.851562 19.925781 18.726562 19.003906 19.996094 17.097656 C 20 11.429688 20 5.714844 20 0.00390625 Z M 10.152344 0.0078125 C 6.648438 -0.0820312 3.203125 1.699219 1.324219 4.949219 C -1.40625 9.675781 0.214844 15.71875 4.945312 18.449219 C 5.734375 18.90625 6.738281 18.636719 7.191406 17.847656 C 7.40625 17.476562 7.464844 17.0625 7.378906 16.675781 C 7.300781 16.292969 7.355469 15.894531 7.566406 15.527344 C 8.023438 14.738281 9.027344 14.46875 9.816406 14.925781 L 10.175781 15.132812 C 11.207031 13.769531 12.753906 13.058594 14.429688 12.742188 C 14.167969 12.433594 14.007812 12.054688 13.972656 11.652344 C 13.9375 11.25 14.027344 10.847656 14.226562 10.5 C 14.410156 10.183594 14.679688 9.925781 15 9.753906 L 15 7.929688 C 14.757812 7.894531 14.523438 7.8125 14.3125 7.691406 C 13.859375 7.429688 13.53125 7 13.398438 6.5 C 13.265625 5.996094 13.335938 5.460938 13.597656 5.011719 C 13.742188 4.757812 13.945312 4.539062 14.1875 4.371094 C 14.433594 4.207031 14.710938 4.097656 15 4.054688 L 15 1.441406 C 14.941406 1.40625 14.890625 1.363281 14.828125 1.332031 C 13.351562 0.476562 11.746094 0.0507812 10.152344 0.0078125 Z M 10.421875 1.304688 C 10.796875 1.285156 11.171875 1.378906 11.5 1.566406 C 11.722656 1.695312 11.917969 1.867188 12.074219 2.070312 C 12.230469 2.277344 12.347656 2.507812 12.414062 2.757812 C 12.480469 3.007812 12.496094 3.269531 12.464844 3.523438 C 12.429688 3.78125 12.34375 4.027344 12.214844 4.25 C 12.085938 4.472656 11.914062 4.667969 11.710938 4.824219 C 11.503906 4.980469 11.273438 5.097656 11.023438 5.164062 C 10.773438 5.230469 10.515625 5.246094 10.257812 5.214844 C 10.003906 5.179688 9.757812 5.09375 9.535156 4.964844 C 9.082031 4.707031 8.753906 4.277344 8.621094 3.777344 C 8.488281 3.273438 8.558594 2.738281 8.816406 2.289062 C 8.980469 2.003906 9.214844 1.765625 9.492188 1.59375 C 9.773438 1.421875 10.09375 1.320312 10.421875 1.304688 Z M 5.367188 3.480469 C 5.742188 3.460938 6.113281 3.550781 6.441406 3.738281 C 6.664062 3.867188 6.859375 4.039062 7.015625 4.242188 C 7.171875 4.449219 7.289062 4.683594 7.355469 4.929688 C 7.421875 5.179688 7.4375 5.441406 7.402344 5.695312 C 7.371094 5.949219 7.285156 6.195312 7.15625 6.421875 C 6.898438 6.871094 6.46875 7.199219 5.964844 7.335938 C 5.464844 7.46875 4.929688 7.398438 4.476562 7.140625 C 4.253906 7.011719 4.058594 6.839844 3.902344 6.636719 C 3.746094 6.429688 3.628906 6.199219 3.5625 5.949219 C 3.496094 5.699219 3.476562 5.441406 3.511719 5.183594 C 3.546875 4.929688 3.628906 4.683594 3.757812 4.457031 C 3.921875 4.175781 4.15625 3.933594 4.4375 3.765625 C 4.71875 3.59375 5.035156 3.496094 5.367188 3.480469 Z M 5.367188 3.480469 "/>
</svg>
