<?xml version="1.0" encoding="UTF-8"?>
<svg xmlns="http://www.w3.org/2000/svg" xmlns:xlink="http://www.w3.org/1999/xlink" width="20" height="20" viewBox="0 0 20 20">
<path fill-rule="nonzero" fill="rgb(45.098039%, 29.019608%, 3.137255%)" fill-opacity="1" d="M 5.714844 0 L 7.144531 2.855469 L 8.570312 2.855469 L 7.144531 5.714844 L 8.570312 8.570312 L 7.144531 11.429688 L 8.570312 14.285156 L 7.144531 17.144531 L 12.855469 17.144531 L 11.429688 14.285156 L 12.855469 11.429688 L 11.429688 8.570312 L 12.855469 5.714844 L 11.429688 2.855469 L 12.855469 2.855469 L 14.285156 0 Z M 10 4.285156 C 10.378906 4.285156 10.742188 4.4375 11.011719 4.703125 C 11.277344 4.972656 11.429688 5.335938 11.429688 5.714844 C 11.429688 6.09375 11.277344 6.457031 11.011719 6.722656 C 10.742188 6.992188 10.378906 7.144531 10 7.144531 C 9.621094 7.144531 9.257812 6.992188 8.988281 6.722656 C 8.722656 6.457031 8.570312 6.09375 8.570312 5.714844 C 8.570312 5.335938 8.722656 4.972656 8.988281 4.703125 C 9.257812 4.4375 9.621094 4.285156 10 4.285156 Z M 10 10 C 10.378906 10 10.742188 10.152344 11.011719 10.417969 C 11.277344 10.6875 11.429688 11.050781 11.429688 11.429688 C 11.429688 11.808594 11.277344 12.171875 11.011719 12.4375 C 10.742188 12.707031 10.378906 12.855469 10 12.855469 C 9.621094 12.855469 9.257812 12.707031 8.988281 12.4375 C 8.722656 12.171875 8.570312 11.808594 8.570312 11.429688 C 8.570312 11.050781 8.722656 10.6875 8.988281 10.417969 C 9.257812 10.152344 9.621094 10 10 10 Z M 4.285156 18.570312 L 4.285156 20 L 15.714844 20 L 15.714844 18.570312 Z M 4.285156 18.570312 "/>
</svg>
