<?xml version="1.0" encoding="UTF-8"?>
<svg xmlns="http://www.w3.org/2000/svg" xmlns:xlink="http://www.w3.org/1999/xlink" width="20" height="20" viewBox="0 0 20 20">
<path fill-rule="nonzero" fill="rgb(45.098039%, 29.019608%, 3.137255%)" fill-opacity="1" d="M 0 0 C 0 1.429688 0 2.855469 0 4.285156 L 1.429688 4.285156 L 1.429688 1.429688 L 18.570312 1.429688 L 18.570312 4.285156 L 20 4.285156 L 20 0 C 13.332031 0 6.667969 0 0 0 Z M 2.855469 2.855469 C 2.855469 7.144531 2.855469 11.429688 2.855469 15.714844 C 2.855469 16.570312 3.429688 17.144531 4.285156 17.144531 L 15.714844 17.144531 C 16.46875 17.144531 17.144531 16.5 17.144531 15.714844 C 17.144531 11.429688 17.144531 7.144531 17.144531 2.855469 L 15.714844 2.855469 C 15.714844 6.191406 15.714844 9.523438 15.714844 12.855469 C 14.285156 12.855469 12.855469 14.285156 12.855469 15.714844 L 7.144531 15.714844 C 7.144531 14.285156 5.714844 12.855469 4.285156 12.855469 C 4.285156 9.523438 4.285156 6.191406 4.285156 2.855469 Z M 10 5.714844 C 7.757812 5.714844 5.714844 7.074219 5.714844 8.570312 C 5.714844 10.066406 7.757812 11.429688 10 11.429688 C 12.242188 11.429688 14.285156 10.066406 14.285156 8.570312 C 14.285156 7.074219 12.242188 5.714844 10 5.714844 Z M 2.855469 17.855469 C 2.855469 19.363281 3.464844 20 4.285156 20 L 15.714844 20 C 16.46875 20 17.144531 19.363281 17.144531 17.855469 C 16.707031 18.246094 16.433594 18.5625 15.714844 18.527344 L 4.285156 18.617188 C 3.601562 18.582031 3.292969 18.292969 2.855469 17.855469 Z M 2.855469 17.855469 "/>
</svg>
