<?xml version="1.0" encoding="UTF-8"?>
<svg xmlns="http://www.w3.org/2000/svg" xmlns:xlink="http://www.w3.org/1999/xlink" width="20" height="20" viewBox="0 0 20 20">
<path fill-rule="nonzero" fill="rgb(45.098039%, 29.019608%, 3.137255%)" fill-opacity="1" d="M 0 2.855469 L 0 12.855469 C 0 13.753906 0.605469 14.285156 1.429688 14.285156 L 18.570312 14.285156 C 19.394531 14.285156 20 13.679688 20 12.855469 L 20 2.855469 Z M 4.285156 4.285156 L 15.714844 4.285156 C 15.714844 5.714844 17.144531 7.144531 18.570312 7.144531 L 18.570312 10 C 17.144531 10 15.714844 11.429688 15.714844 12.855469 L 4.285156 12.855469 C 4.285156 11.429688 2.855469 10 1.429688 10 L 1.429688 7.144531 C 2.855469 7.144531 4.285156 5.714844 4.285156 4.285156 Z M 10 5.714844 C 7.632812 5.714844 5.714844 6.992188 5.714844 8.570312 C 5.714844 10.148438 7.632812 11.429688 10 11.429688 C 12.367188 11.429688 14.285156 10.148438 14.285156 8.570312 C 14.285156 6.992188 12.367188 5.714844 10 5.714844 Z M 0 15 C 0 16.609375 0.640625 17.144531 1.429688 17.144531 L 18.570312 17.144531 C 19.359375 17.144531 20 16.507812 20 15 C 19.589844 15.386719 19.199219 15.714844 18.570312 15.714844 L 1.429688 15.714844 C 0.800781 15.714844 0.386719 15.363281 0 15 Z M 0 15 "/>
</svg>
