<?xml version="1.0" encoding="UTF-8"?>
<svg xmlns="http://www.w3.org/2000/svg" xmlns:xlink="http://www.w3.org/1999/xlink" width="20" height="20" viewBox="0 0 20 20">
<path fill-rule="nonzero" fill="rgb(45.098039%, 29.019608%, 3.137255%)" fill-opacity="1" d="M 5.714844 0 C 4.285156 0.714844 2.855469 0.714844 2.855469 2.144531 C 2.855469 3.570312 5 4.285156 5 5 C 5 5.714844 4.046875 6.429688 3.570312 7.144531 C 5.714844 6.429688 6.429688 6.429688 6.429688 5 C 6.429688 3.570312 5 2.855469 4.285156 2.144531 C 4.285156 1.429688 5.476562 0.953125 5.714844 0 Z M 11.070312 0 C 9.644531 0.714844 8.214844 0.714844 8.214844 2.144531 C 8.214844 3.570312 10.355469 4.285156 10.355469 5 C 10.355469 5.714844 9.40625 6.429688 8.929688 7.144531 C 11.070312 6.429688 11.785156 6.429688 11.785156 5 C 11.785156 3.570312 10.355469 2.855469 9.644531 2.144531 C 9.644531 1.429688 10.832031 0.953125 11.070312 0 Z M 16.429688 0 C 15 0.714844 13.570312 0.714844 13.570312 2.144531 C 13.570312 3.570312 15.714844 4.285156 15.714844 5 C 15.714844 5.714844 14.761719 6.429688 14.285156 7.144531 C 16.429688 6.429688 17.144531 6.429688 17.144531 5 C 17.144531 3.570312 15.714844 2.855469 15 2.144531 C 15 1.429688 16.191406 0.953125 16.429688 0 Z M 1.429688 8.570312 L 1.429688 20 L 2.855469 20 L 2.855469 17.144531 L 17.144531 17.144531 L 17.144531 20 L 18.570312 20 L 18.570312 8.570312 C 12.855469 8.570312 7.144531 8.570312 1.429688 8.570312 Z M 2.855469 10 L 17.144531 10 L 17.144531 15.714844 L 2.855469 15.714844 Z M 5.714844 11.429688 C 4.925781 11.429688 4.285156 12.066406 4.285156 12.855469 C 4.285156 13.644531 4.925781 14.285156 5.714844 14.285156 C 6.503906 14.285156 7.144531 13.644531 7.144531 12.855469 C 7.144531 12.066406 6.503906 11.429688 5.714844 11.429688 Z M 10 11.429688 C 9.210938 11.429688 8.570312 12.066406 8.570312 12.855469 C 8.570312 13.644531 9.210938 14.285156 10 14.285156 C 10.789062 14.285156 11.429688 13.644531 11.429688 12.855469 C 11.429688 12.066406 10.789062 11.429688 10 11.429688 Z M 14.285156 11.429688 C 13.496094 11.429688 12.855469 12.066406 12.855469 12.855469 C 12.855469 13.644531 13.496094 14.285156 14.285156 14.285156 C 15.074219 14.285156 15.714844 13.644531 15.714844 12.855469 C 15.714844 12.066406 15.074219 11.429688 14.285156 11.429688 Z M 14.285156 11.429688 "/>
</svg>
