<?xml version="1.0" encoding="UTF-8"?>
<svg xmlns="http://www.w3.org/2000/svg" xmlns:xlink="http://www.w3.org/1999/xlink" width="20" height="20" viewBox="0 0 20 20">
<path fill-rule="evenodd" fill="rgb(40%, 40%, 40%)" fill-opacity="1" d="M 10 0 L 4.285156 4.285156 L 4.285156 20 L 5.714844 20 L 5.714844 8.570312 C 5.714844 7.433594 6.164062 6.34375 6.96875 5.539062 C 7.773438 4.738281 8.863281 4.285156 10 4.285156 C 11.136719 4.285156 12.226562 4.738281 13.03125 5.539062 C 13.835938 6.34375 14.285156 7.433594 14.285156 8.570312 L 14.285156 20 L 15.714844 20 L 15.714844 4.285156 Z M 9.488281 6.429688 C 7.386719 8 8.039062 8.738281 7.320312 11.46875 C 7.179688 11.613281 6.429688 12.074219 6.429688 12.515625 L 6.429688 12.855469 L 13.570312 12.855469 L 13.570312 12.515625 C 13.582031 12.074219 12.753906 11.613281 12.613281 11.46875 C 11.910156 8.78125 12.515625 7.632812 10.511719 6.429688 Z M 10 13.929688 C 9.714844 13.929688 9.441406 14.042969 9.242188 14.242188 C 9.042969 14.441406 8.929688 14.714844 8.929688 15 C 8.929688 15.285156 9.042969 15.558594 9.242188 15.757812 C 9.441406 15.957031 9.714844 16.070312 10 16.070312 C 10.285156 16.070312 10.558594 15.957031 10.757812 15.757812 C 10.957031 15.558594 11.070312 15.285156 11.070312 15 C 11.070312 14.714844 10.957031 14.441406 10.757812 14.242188 C 10.558594 14.042969 10.285156 13.929688 10 13.929688 Z M 10 13.929688 "/>
</svg>
