<?xml version="1.0" encoding="UTF-8"?>
<svg xmlns="http://www.w3.org/2000/svg" xmlns:xlink="http://www.w3.org/1999/xlink" width="20" height="20" viewBox="0 0 20 20">
<path fill-rule="nonzero" fill="rgb(67.45098%, 22.352941%, 67.45098%)" fill-opacity="1" d="M 4.285156 0 C 2.855469 0 2.855469 0.71875 2.855469 2.855469 C 2.855469 4.285156 0 10 0 11.429688 L 0 18.570312 C 0 19.378906 0.667969 20 1.429688 20 L 7.144531 20 C 8 20 8.570312 19.429688 8.570312 18.570312 L 8.570312 11.429688 C 8.570312 10 5.714844 4.285156 5.714844 2.855469 C 5.714844 0.671875 5.714844 0 4.285156 0 Z M 15.535156 1.429688 L 14.105469 7.144531 L 15.714844 7.144531 L 16.785156 2.855469 L 20 2.855469 L 20 1.429688 Z M 10 8.570312 L 11.429688 18.570312 C 11.429688 18.570312 11.429688 20 12.855469 20 L 15.714844 20 C 17.144531 20 17.144531 18.570312 17.144531 18.570312 L 18.570312 8.570312 Z M 10 8.570312 "/>
</svg>
