<?xml version="1.0" encoding="UTF-8"?>
<svg xmlns="http://www.w3.org/2000/svg" xmlns:xlink="http://www.w3.org/1999/xlink" width="20" height="20" viewBox="0 0 20 20">
<path fill-rule="nonzero" fill="rgb(78.039216%, 45.490196%, 0%)" fill-opacity="1" d="M 4.285156 0 C 2.855469 0 1.429688 1.429688 1.429688 2.855469 L 1.429688 17.144531 C 1.429688 18.570312 0 20 0 20 L 15.714844 20 C 15.714844 20 14.285156 18.570312 14.285156 17.144531 L 18.570312 17.144531 C 20 17.144531 20 15.714844 20 15.714844 L 20 7.144531 C 20 5.714844 18.570312 4.285156 17.144531 4.285156 L 14.285156 4.285156 L 14.285156 2.855469 C 14.285156 1.085938 13.234375 0 11.429688 0 Z M 5.714844 1.429688 L 10 1.429688 C 11.972656 1.429688 12.855469 1.933594 12.855469 2.855469 C 8.570312 2.855469 5.507812 3.140625 5.714844 7.144531 C 5.714844 10 2.855469 10 2.855469 7.144531 L 2.855469 4.285156 C 2.855469 2.136719 3.566406 1.429688 5.714844 1.429688 Z M 14.285156 6.429688 L 15.714844 6.429688 C 16.699219 6.429688 17.855469 6.46875 17.855469 8.570312 L 17.855469 15 L 14.285156 15 Z M 2.855469 17.144531 L 12.855469 17.144531 L 12.855469 18.570312 L 2.855469 18.570312 Z M 2.855469 17.144531 "/>
</svg>
