<?xml version="1.0" encoding="UTF-8"?>
<svg xmlns="http://www.w3.org/2000/svg" xmlns:xlink="http://www.w3.org/1999/xlink" width="20" height="20" viewBox="0 0 20 20">
<path fill-rule="nonzero" fill="rgb(18.431373%, 38.039216%, 20%)" fill-opacity="1" d="M 4.386719 0.15625 L 4.386719 2.878906 L 8.1875 2.878906 L 8.1875 0.15625 Z M 11.828125 0.15625 L 11.828125 2.878906 L 15.636719 2.878906 L 15.636719 0.15625 Z M 11.828125 3.730469 L 11.828125 11.253906 C 11.828125 11.613281 12.121094 11.902344 12.480469 11.902344 L 13.132812 11.902344 L 13.132812 19.195312 C 13.132812 19.542969 13.417969 19.828125 13.765625 19.828125 L 19.355469 19.828125 C 19.703125 19.828125 19.988281 19.542969 19.988281 19.195312 L 19.988281 14.65625 L 20 13.996094 L 17.578125 3.730469 Z M 2.425781 3.742188 L 0 14.007812 L 0.0117188 14.675781 L 0.0117188 19.210938 C 0.0117188 19.558594 0.296875 19.84375 0.644531 19.84375 L 6.234375 19.84375 C 6.589844 19.84375 6.875 19.558594 6.875 19.210938 L 6.875 11.925781 L 7.519531 11.925781 C 7.878906 11.925781 8.171875 11.632812 8.171875 11.269531 L 8.171875 3.742188 Z M 9.011719 3.742188 L 9.011719 10.738281 L 10.984375 10.738281 L 10.984375 3.742188 Z M 9.011719 3.742188 "/>
</svg>
