<?xml version="1.0" encoding="UTF-8"?>
<svg xmlns="http://www.w3.org/2000/svg" xmlns:xlink="http://www.w3.org/1999/xlink" width="20" height="20" viewBox="0 0 20 20">
<path fill-rule="evenodd" fill="rgb(45.098039%, 29.019608%, 3.137255%)" fill-opacity="1" d="M 0 0 C 0 6.667969 0 13.332031 0 20 L 1.429688 20 L 1.429688 15.714844 L 18.570312 15.714844 L 18.570312 20 L 20 20 C 20 13.332031 20 6.667969 20 0 C 13.332031 0 6.667969 0 0 0 Z M 1.429688 1.429688 L 18.570312 1.429688 L 18.570312 14.285156 L 1.429688 14.285156 Z M 5.714844 4.285156 L 5.714844 5.714844 L 14.285156 5.714844 L 14.285156 4.285156 Z M 2.855469 7.144531 L 2.855469 8.570312 L 17.144531 8.570312 L 17.144531 7.144531 Z M 2.855469 10 L 2.855469 11.429688 L 17.144531 11.429688 L 17.144531 10 Z M 2.855469 10 "/>
</svg>
