<?xml version="1.0" encoding="UTF-8"?>
<svg xmlns="http://www.w3.org/2000/svg" xmlns:xlink="http://www.w3.org/1999/xlink" width="20" height="20" viewBox="0 0 20 20">
<path fill-rule="nonzero" fill="rgb(0%, 57.254902%, 85.490196%)" fill-opacity="1" d="M 5 0 C 3.027344 0 1.429688 1.597656 1.429688 3.570312 C 1.429688 5.542969 3.027344 7.144531 5 7.144531 C 6.320312 7.144531 7.460938 6.425781 8.082031 5.355469 L 10 5.355469 L 11.429688 3.929688 L 12.855469 5.355469 L 14.285156 3.929688 L 15.714844 5.355469 L 16.429688 5.355469 L 18.570312 3.570312 L 16.429688 1.785156 L 8.082031 1.785156 C 7.460938 0.71875 6.320312 0 5 0 Z M 3.570312 2.855469 C 3.964844 2.855469 4.285156 3.175781 4.285156 3.570312 C 4.285156 3.964844 3.964844 4.285156 3.570312 4.285156 C 3.175781 4.285156 2.855469 3.964844 2.855469 3.570312 C 2.855469 3.175781 3.175781 2.855469 3.570312 2.855469 Z M 7.476562 7.757812 L 7.476562 11.464844 L 0 11.464844 L 2.09375 15.09375 L 17.90625 15.09375 L 20 11.464844 L 12.523438 11.464844 L 12.523438 7.757812 Z M 4.285156 16.429688 C 3.523438 16.429688 2.152344 17.855469 1.429688 17.855469 L 1.429688 20 C 2.195312 20 3.609375 18.570312 4.285156 18.570312 C 5.007812 18.570312 6.378906 20 7.144531 20 C 7.820312 20 9.273438 18.570312 10 18.570312 C 10.71875 18.570312 12.175781 20 12.855469 20 C 13.578125 20 15.035156 18.570312 15.714844 18.570312 C 16.390625 18.570312 17.851562 20 18.570312 20 L 18.570312 17.855469 C 17.976562 17.855469 16.476562 16.386719 15.714844 16.429688 C 15.03125 16.429688 13.621094 17.855469 12.855469 17.855469 C 12.222656 17.855469 10.71875 16.429688 10 16.429688 C 9.28125 16.429688 7.78125 17.855469 7.144531 17.855469 C 6.464844 17.855469 5.046875 16.429688 4.285156 16.429688 Z M 4.285156 16.429688 "/>
</svg>
