<?xml version="1.0" encoding="UTF-8"?>
<svg xmlns="http://www.w3.org/2000/svg" xmlns:xlink="http://www.w3.org/1999/xlink" width="20" height="20" viewBox="0 0 20 20">
<path fill-rule="evenodd" fill="rgb(45.098039%, 29.019608%, 3.137255%)" fill-opacity="1" d="M 10 0 C 9.242188 0 8.515625 0.300781 7.980469 0.835938 C 7.445312 1.371094 7.144531 2.097656 7.144531 2.855469 C 7.144531 3.613281 7.445312 4.339844 7.980469 4.878906 C 8.515625 5.414062 9.242188 5.714844 10 5.714844 C 10.757812 5.714844 11.484375 5.414062 12.019531 4.878906 C 12.554688 4.339844 12.855469 3.613281 12.855469 2.855469 C 12.855469 2.097656 12.554688 1.371094 12.019531 0.835938 C 11.484375 0.300781 10.757812 0 10 0 Z M 9.9375 6.6875 C 7.558594 6.691406 5.195312 7.453125 2.855469 8.953125 C 4.789062 10.246094 6.375 11.789062 6.335938 13.964844 L 13.628906 13.964844 C 13.53125 11.765625 15.449219 10.164062 17.144531 8.953125 C 14.722656 7.433594 12.320312 6.683594 9.9375 6.6875 Z M 7.144531 15.714844 L 7.144531 17.144531 L 12.855469 17.144531 L 12.855469 15.714844 Z M 4.285156 18.570312 L 4.285156 20 L 15.714844 20 L 15.714844 18.570312 Z M 4.285156 18.570312 "/>
</svg>
