<?xml version="1.0" encoding="UTF-8"?>
<svg xmlns="http://www.w3.org/2000/svg" xmlns:xlink="http://www.w3.org/1999/xlink" width="20" height="20" viewBox="0 0 20 20">
<path fill-rule="evenodd" fill="rgb(67.45098%, 22.352941%, 67.45098%)" fill-opacity="1" d="M 8.953125 14.097656 C 8.953125 14.097656 7.472656 12.363281 5.933594 9.84375 C 4.714844 7.84375 3.585938 5.210938 3.480469 4.929688 C 4.316406 4.324219 8.570312 2.414062 9.429688 2.226562 C 9.683594 3.191406 10.074219 5.085938 10.902344 6.925781 C 11.761719 8.828125 12.792969 10.308594 13.175781 10.8125 C 12.257812 11.675781 8.953125 14.097656 8.953125 14.097656 Z M 11.851562 13.039062 C 11.960938 13.921875 14.949219 18.042969 15.960938 18.789062 C 16.351562 19.078125 16.625 18.84375 17.289062 18.375 C 17.949219 17.90625 18.199219 17.507812 17.957031 16.945312 C 17.460938 15.789062 15.292969 11.640625 14.277344 10.972656 C 13.296875 9.550781 12.476562 8.472656 11.667969 6.5 C 10.832031 4.457031 10.300781 2.382812 9.980469 1.164062 C 8.84375 1.496094 6.957031 2.289062 5.800781 2.824219 C 4.507812 3.417969 3.585938 4 2.558594 4.546875 C 2.886719 5.488281 3.660156 7.808594 5.28125 10.316406 C 6.5625 12.296875 7.636719 13.871094 8.851562 15.070312 Z M 7.355469 4.796875 C 7.355469 4.339844 7.746094 3.96875 8.234375 3.96875 C 8.71875 3.96875 9.109375 4.339844 9.109375 4.796875 C 9.109375 5.253906 8.71875 5.628906 8.234375 5.628906 C 7.746094 5.628906 7.355469 5.253906 7.355469 4.796875 Z M 7.355469 4.796875 "/>
</svg>
