<?xml version="1.0" encoding="UTF-8"?>
<svg xmlns="http://www.w3.org/2000/svg" xmlns:xlink="http://www.w3.org/1999/xlink" width="20" height="20" viewBox="0 0 20 20">
<path fill-rule="nonzero" fill="rgb(78.039216%, 45.490196%, 0%)" fill-opacity="1" d="M 1.429688 1.429688 L 1.429688 10 C 1.429688 12.855469 4.285156 14.285156 7.855469 14.285156 C 11.429688 14.285156 14.285156 12.855469 14.285156 10 L 17.144531 10 C 18.570312 10 20 8.570312 20 7.144531 L 20 5.714844 C 20 4.285156 18.570312 2.855469 17.144531 2.855469 L 14.285156 2.855469 L 14.285156 1.429688 Z M 14.285156 4.644531 L 16.785156 4.644531 C 17.738281 4.644531 18.214844 5.445312 18.214844 6.429688 C 18.214844 7.410156 17.660156 8.214844 16.785156 8.214844 L 14.285156 8.214844 Z M 0 15.714844 C 0 17.144531 1.429688 18.570312 2.855469 18.570312 L 12.855469 18.570312 C 14.285156 18.570312 15.714844 17.144531 15.714844 15.714844 Z M 0 15.714844 "/>
</svg>
