<?xml version="1.0" encoding="UTF-8"?>
<svg xmlns="http://www.w3.org/2000/svg" xmlns:xlink="http://www.w3.org/1999/xlink" width="20" height="20" viewBox="0 0 20 20">
<path fill-rule="evenodd" fill="rgb(0%, 57.254902%, 85.490196%)" fill-opacity="1" d="M 0 13.570312 C 0 14.140625 0.226562 14.683594 0.628906 15.085938 C 1.03125 15.488281 1.574219 15.714844 2.144531 15.714844 L 17.855469 15.714844 C 18.425781 15.714844 18.96875 15.488281 19.371094 15.085938 C 19.773438 14.683594 20 14.140625 20 13.570312 L 20 9.285156 C 20 8.71875 19.773438 8.171875 19.371094 7.769531 C 18.96875 7.367188 18.425781 7.144531 17.855469 7.144531 L 2.144531 7.144531 C 1.574219 7.144531 1.03125 7.367188 0.628906 7.769531 C 0.226562 8.171875 0 8.71875 0 9.285156 Z M 2.285156 10.714844 C 2.289062 10.375 2.425781 10.046875 2.667969 9.808594 C 2.90625 9.570312 3.234375 9.433594 3.574219 9.4375 C 3.914062 9.4375 4.242188 9.574219 4.480469 9.8125 C 4.722656 10.054688 4.855469 10.382812 4.855469 10.722656 C 4.855469 11.0625 4.722656 11.386719 4.480469 11.628906 C 4.242188 11.871094 3.914062 12.007812 3.574219 12.007812 C 3.234375 12.007812 2.90625 11.875 2.667969 11.632812 C 2.425781 11.394531 2.289062 11.070312 2.285156 10.730469 Z M 15.144531 10.714844 C 15.144531 10.375 15.28125 10.046875 15.523438 9.808594 C 15.765625 9.570312 16.089844 9.433594 16.433594 9.4375 C 16.773438 9.4375 17.097656 9.574219 17.339844 9.8125 C 17.578125 10.054688 17.714844 10.382812 17.714844 10.722656 C 17.714844 11.0625 17.578125 11.386719 17.339844 11.628906 C 17.097656 11.871094 16.773438 12.007812 16.433594 12.007812 C 16.089844 12.007812 15.765625 11.875 15.523438 11.632812 C 15.28125 11.394531 15.144531 11.070312 15.144531 10.730469 Z M 15.144531 10.714844 "/>
<path fill-rule="nonzero" fill="rgb(0%, 57.254902%, 85.490196%)" fill-opacity="1" d="M 4.285156 14.285156 L 1.429688 14.285156 L 1.429688 18.570312 L 4.285156 18.570312 Z M 4.285156 14.285156 "/>
<path fill-rule="nonzero" fill="rgb(0%, 57.254902%, 85.490196%)" fill-opacity="1" d="M 18.570312 14.285156 L 15.714844 14.285156 L 15.714844 18.570312 L 18.570312 18.570312 Z M 18.570312 14.285156 "/>
<path fill-rule="nonzero" fill="rgb(0%, 57.254902%, 85.490196%)" fill-opacity="1" d="M 2.855469 7.144531 L 2.855469 3.570312 C 2.855469 3.003906 3.082031 2.457031 3.484375 2.054688 C 3.886719 1.65625 4.433594 1.429688 5 1.429688 L 15 1.429688 C 15.566406 1.429688 16.113281 1.65625 16.515625 2.054688 C 16.917969 2.457031 17.144531 3.003906 17.144531 3.570312 L 17.144531 7.144531 L 15 7.144531 L 15 5 C 15 4.621094 14.847656 4.257812 14.582031 3.988281 C 14.3125 3.722656 13.949219 3.570312 13.570312 3.570312 L 6.429688 3.570312 C 6.050781 3.570312 5.6875 3.722656 5.417969 3.988281 C 5.152344 4.257812 5 4.621094 5 5 L 5 7.144531 Z M 2.855469 7.144531 "/>
</svg>
