<?xml version="1.0" encoding="UTF-8"?>
<svg xmlns="http://www.w3.org/2000/svg" xmlns:xlink="http://www.w3.org/1999/xlink" width="20" height="20" viewBox="0 0 20 20">
<path fill-rule="evenodd" fill="rgb(45.098039%, 29.019608%, 3.137255%)" fill-opacity="1" d="M 7.144531 2.855469 L 4.285156 7.144531 L 2.855469 7.144531 L 5.714844 2.855469 Z M 12.855469 2.855469 L 15.714844 7.144531 L 17.144531 7.144531 L 14.285156 2.855469 Z M 9.285156 2.855469 L 10.714844 2.855469 L 10.714844 7.144531 L 9.285156 7.144531 Z M 8.570312 0 L 5.714844 1.429688 L 14.285156 1.429688 L 11.429688 0 Z M 5.714844 8.570312 L 4.285156 12.855469 C 3.609375 12.855469 2.855469 13.40625 2.855469 14.285156 L 2.855469 18.570312 L 4.285156 18.570312 C 4.285156 18.570312 4.285156 20 5.714844 20 C 7.144531 20 7.144531 18.570312 7.144531 18.570312 L 12.855469 18.570312 C 12.855469 18.570312 12.855469 20 14.285156 20 C 15.714844 20 15.714844 18.570312 15.714844 18.570312 L 17.144531 18.570312 L 17.144531 14.285156 C 17.144531 13.542969 16.492188 12.855469 15.714844 12.855469 L 14.285156 8.570312 Z M 7.144531 10 L 12.855469 10 L 13.75 12.855469 L 6.25 12.855469 Z M 5.714844 14.644531 C 6.304688 14.644531 6.785156 15.121094 6.785156 15.714844 C 6.785156 16.304688 6.304688 16.785156 5.714844 16.785156 C 5.121094 16.785156 4.644531 16.304688 4.644531 15.714844 C 4.644531 15.121094 5.121094 14.644531 5.714844 14.644531 Z M 14.285156 14.644531 C 14.878906 14.644531 15.355469 15.121094 15.355469 15.714844 C 15.355469 16.304688 14.878906 16.785156 14.285156 16.785156 C 13.695312 16.785156 13.214844 16.304688 13.214844 15.714844 C 13.214844 15.121094 13.695312 14.644531 14.285156 14.644531 Z M 14.285156 14.644531 "/>
</svg>
