<?xml version="1.0" encoding="UTF-8"?>
<svg xmlns="http://www.w3.org/2000/svg" xmlns:xlink="http://www.w3.org/1999/xlink" width="20" height="20" viewBox="0 0 20 20">
<path fill-rule="evenodd" fill="rgb(67.45098%, 22.352941%, 67.45098%)" fill-opacity="1" d="M 12.855469 4.285156 L 12.855469 1.429688 L 17.144531 1.429688 L 17.144531 4.285156 Z M 2.855469 4.285156 L 2.855469 1.429688 L 7.144531 1.429688 L 7.144531 4.285156 Z M 0 4.285156 L 0 18.570312 L 20 18.570312 L 20 4.285156 Z M 4.921875 7.144531 L 7.144531 7.144531 L 7.144531 10 L 10 10 L 10 12.253906 L 7.144531 12.253906 L 7.144531 15.144531 L 4.910156 15.191406 L 4.945312 12.1875 L 1.988281 12.207031 L 2.03125 10 L 4.898438 10 Z M 12.855469 10 L 18.570312 10 L 18.570312 12.300781 L 12.855469 12.277344 Z M 12.855469 10 "/>
</svg>
