<?xml version="1.0" encoding="UTF-8"?>
<svg xmlns="http://www.w3.org/2000/svg" xmlns:xlink="http://www.w3.org/1999/xlink" width="20" height="20" viewBox="0 0 20 20">
<path fill-rule="nonzero" fill="rgb(0%, 57.254902%, 85.490196%)" fill-opacity="1" d="M 2.855469 2.855469 C 1.429688 2.855469 0 4.285156 0 5.714844 L 0 11.429688 C 0 12.855469 1.429688 14.285156 2.855469 14.285156 L 4.375 14.285156 C 4.707031 12.660156 6.132812 11.429688 7.855469 11.429688 C 9.582031 11.429688 11.007812 12.660156 11.339844 14.285156 L 20 14.285156 C 20 14.285156 20 12.855469 18.570312 12.855469 L 16.429688 12.855469 L 16.429688 5.714844 C 16.429688 4.34375 14.964844 2.855469 13.570312 2.855469 Z M 4.0625 5.714844 C 4.195312 5.691406 4.285156 5.714844 4.285156 5.714844 L 7.144531 5.714844 C 7.144531 5.714844 8.570312 5.714844 8.570312 7.144531 C 8.570312 8.570312 7.144531 8.570312 7.144531 8.570312 L 4.285156 8.570312 C 4.285156 8.570312 2.855469 8.570312 2.855469 7.144531 C 2.855469 6.070312 3.660156 5.78125 4.0625 5.714844 Z M 11.429688 5.714844 L 12.144531 5.714844 C 12.144531 5.714844 13.570312 5.714844 13.570312 7.144531 C 13.570312 8.570312 12.144531 8.570312 12.144531 8.570312 L 11.429688 8.570312 C 11.429688 8.570312 10 8.570312 10 7.144531 C 10 5.714844 11.429688 5.714844 11.429688 5.714844 Z M 7.855469 12.855469 C 6.671875 12.855469 5.714844 13.816406 5.714844 15 C 5.714844 16.183594 6.671875 17.144531 7.855469 17.144531 C 9.039062 17.144531 10 16.183594 10 15 C 10 13.816406 9.039062 12.855469 7.855469 12.855469 Z M 7.855469 12.855469 "/>
</svg>
