<?xml version="1.0" encoding="UTF-8"?>
<svg xmlns="http://www.w3.org/2000/svg" xmlns:xlink="http://www.w3.org/1999/xlink" width="20" height="20" viewBox="0 0 20 20">
<path fill-rule="nonzero" fill="rgb(67.45098%, 22.352941%, 67.45098%)" fill-opacity="1" d="M 17.144531 0 C 15.558594 0 14.285156 1.273438 14.285156 2.855469 L 14.285156 17.144531 C 14.285156 18.726562 15.558594 20 17.144531 20 C 18.726562 20 20 18.726562 20 17.144531 L 20 2.855469 C 20 1.273438 18.726562 0 17.144531 0 Z M 0 2.855469 L 0 4.285156 L 1.429688 4.285156 L 1.429688 6 L 0 6 L 0 7.425781 L 1.429688 7.425781 L 1.429688 9.144531 L 0 9.144531 L 0 10.570312 L 1.429688 10.570312 L 1.429688 12.285156 L 0 12.285156 L 0 13.714844 L 1.429688 13.714844 L 1.429688 15.429688 L 0 15.429688 L 0 16.859375 L 1.429688 16.859375 L 1.429688 18.570312 L 0 18.570312 L 0 20 L 12.855469 20 L 12.855469 2.855469 Z M 2.855469 4.285156 L 5.714844 5.714844 L 8.570312 4.285156 L 11.429688 5.714844 L 11.429688 7.144531 L 8.570312 5.714844 L 5.714844 7.144531 L 2.855469 5.714844 Z M 2.855469 8.09375 L 5.714844 9.523438 L 8.570312 8.09375 L 11.429688 9.523438 L 11.429688 10.953125 L 8.570312 9.523438 L 5.714844 10.953125 L 2.855469 9.523438 Z M 2.855469 11.90625 L 5.714844 13.335938 L 8.570312 11.90625 L 11.429688 13.335938 L 11.429688 14.761719 L 8.570312 13.335938 L 5.714844 14.761719 L 2.855469 13.335938 Z M 2.855469 15.714844 L 5.714844 17.144531 L 8.570312 15.714844 L 11.429688 17.144531 L 11.429688 18.570312 L 8.570312 17.144531 L 5.714844 18.570312 L 2.855469 17.144531 Z M 17.144531 15.714844 C 17.933594 15.714844 18.570312 16.355469 18.570312 17.144531 C 18.570312 17.933594 17.933594 18.570312 17.144531 18.570312 C 16.355469 18.570312 15.714844 17.933594 15.714844 17.144531 C 15.714844 16.355469 16.355469 15.714844 17.144531 15.714844 Z M 17.144531 15.714844 "/>
</svg>
