<?xml version="1.0" encoding="UTF-8"?>
<svg xmlns="http://www.w3.org/2000/svg" xmlns:xlink="http://www.w3.org/1999/xlink" width="20" height="20" viewBox="0 0 20 20">
<path fill-rule="nonzero" fill="rgb(45.098039%, 29.019608%, 3.137255%)" fill-opacity="1" d="M 11.285156 7.097656 C 9.699219 7.097656 8.425781 8.375 8.425781 9.957031 L 8.425781 15.671875 C 8.425781 17.253906 9.699219 18.527344 11.285156 18.527344 L 16.996094 18.527344 C 18.582031 18.527344 19.855469 17.253906 19.855469 15.671875 L 19.855469 9.957031 C 19.855469 8.375 18.582031 7.097656 16.996094 7.097656 Z M 16.996094 8.171875 C 17.472656 8.171875 17.925781 8.359375 18.261719 8.695312 C 18.59375 9.027344 18.78125 9.484375 18.78125 9.957031 C 18.78125 10.429688 18.59375 10.882812 18.261719 11.21875 C 17.925781 11.554688 17.472656 11.742188 16.996094 11.742188 C 16.523438 11.742188 16.070312 11.554688 15.734375 11.21875 C 15.398438 10.882812 15.210938 10.429688 15.210938 9.957031 C 15.210938 9.484375 15.398438 9.027344 15.734375 8.695312 C 16.070312 8.359375 16.523438 8.171875 16.996094 8.171875 Z M 11.285156 13.886719 C 11.757812 13.886719 12.210938 14.074219 12.546875 14.40625 C 12.882812 14.742188 13.070312 15.195312 13.070312 15.671875 C 13.070312 16.144531 12.882812 16.597656 12.546875 16.933594 C 12.210938 17.269531 11.757812 17.457031 11.285156 17.457031 C 10.808594 17.457031 10.355469 17.269531 10.019531 16.933594 C 9.6875 16.597656 9.496094 16.144531 9.496094 15.671875 C 9.496094 15.195312 9.6875 14.742188 10.019531 14.40625 C 10.355469 14.074219 10.808594 13.886719 11.285156 13.886719 Z M 11.285156 13.886719 "/>
<path fill-rule="nonzero" fill="rgb(45.098039%, 29.019608%, 3.137255%)" fill-opacity="1" d="M 5.523438 1.519531 C 4.609375 1.582031 3.742188 2.089844 3.246094 2.949219 L 0.390625 7.902344 C -0.402344 9.273438 0.046875 10.996094 1.417969 11.785156 L 6.371094 14.644531 C 6.574219 14.757812 6.785156 14.894531 6.996094 14.957031 L 6.996094 9.957031 C 6.996094 7.605469 8.933594 5.671875 11.285156 5.671875 L 13.023438 5.671875 C 12.789062 5.320312 12.480469 5.003906 12.085938 4.777344 L 7.132812 1.921875 C 6.617188 1.625 6.074219 1.480469 5.523438 1.519531 Z M 5.960938 2.53125 C 6.761719 2.539062 7.460938 3.082031 7.667969 3.855469 C 7.921875 4.808594 7.359375 5.785156 6.40625 6.042969 C 5.453125 6.296875 4.476562 5.734375 4.21875 4.78125 C 3.964844 3.828125 4.527344 2.847656 5.480469 2.59375 C 5.636719 2.550781 5.796875 2.53125 5.960938 2.53125 Z M 2.929688 7.78125 C 3.730469 7.789062 4.429688 8.332031 4.636719 9.105469 C 4.890625 10.058594 4.324219 11.035156 3.375 11.289062 C 2.421875 11.542969 1.445312 10.980469 1.1875 10.027344 C 0.933594 9.078125 1.496094 8.097656 2.449219 7.839844 C 2.605469 7.800781 2.769531 7.777344 2.929688 7.78125 Z M 2.929688 7.78125 "/>
</svg>
