<?xml version="1.0" encoding="UTF-8"?>
<svg xmlns="http://www.w3.org/2000/svg" xmlns:xlink="http://www.w3.org/1999/xlink" width="20" height="20" viewBox="0 0 20 20">
<path fill-rule="nonzero" fill="rgb(0%, 57.254902%, 85.490196%)" fill-opacity="1" d="M 6.058594 1.046875 L 0 6.5625 L 0.699219 6.5625 L 0.699219 16.03125 L 4.410156 16.03125 L 4.410156 10.722656 L 7.710938 10.722656 L 7.710938 14.640625 L 4.496094 18.335938 C 4.292969 18.566406 4.457031 18.925781 4.761719 18.925781 L 19.640625 18.953125 C 19.894531 18.953125 20.070312 18.695312 19.972656 18.457031 L 15.152344 6.875 C 15.09375 6.742188 14.960938 6.652344 14.8125 6.65625 C 14.710938 6.65625 14.617188 6.703125 14.550781 6.777344 L 11.421875 10.375 L 11.421875 6.5625 L 12.121094 6.5625 Z M 14.710938 7.683594 L 19.105469 18.238281 L 5.546875 18.210938 L 7.710938 15.722656 L 7.710938 16.03125 L 11.421875 16.03125 L 11.421875 11.464844 Z M 14.710938 7.683594 "/>
<path fill-rule="nonzero" fill="rgb(0%, 57.254902%, 85.490196%)" fill-opacity="0.2" d="M 14.710938 7.683594 L 11.421875 11.464844 L 11.421875 16.03125 L 7.710938 16.03125 L 7.710938 15.722656 L 5.546875 18.210938 L 19.105469 18.238281 Z M 14.710938 7.683594 "/>
</svg>
