<?xml version="1.0" encoding="UTF-8"?>
<svg xmlns="http://www.w3.org/2000/svg" xmlns:xlink="http://www.w3.org/1999/xlink" width="20" height="20" viewBox="0 0 20 20">
<path fill-rule="nonzero" fill="rgb(0%, 57.254902%, 85.490196%)" fill-opacity="1" d="M 2.855469 1.429688 C 1.191406 1.429688 0 2.566406 0 4.285156 L 0 20 L 10 20 L 10 8.75 C 10 8.75 11.25 8.570312 11.25 10 L 11.25 15.714844 C 11.25 18.570312 13.914062 18.75 14.285156 18.75 C 14.679688 18.75 17.320312 18.570312 17.320312 15.714844 L 17.320312 10 C 17.320312 10 19.304688 10.023438 19.285156 5.757812 L 18.214844 5.757812 L 18.214844 2.902344 C 18.214844 2.089844 17.144531 2.097656 17.144531 2.855469 L 17.144531 5.714844 L 15.714844 5.714844 L 15.714844 2.855469 C 15.714844 2.078125 14.644531 2.078125 14.644531 2.855469 L 14.644531 5.714844 L 13.570312 5.714844 C 13.589844 9.980469 15.535156 10 15.535156 10 L 15.535156 15.714844 C 15.535156 16.964844 14.441406 16.964844 14.285156 16.964844 C 14.132812 16.964844 13.035156 16.902344 13.035156 15.714844 L 13.035156 10 C 13.035156 8.171875 11.429688 6.964844 10 6.964844 L 10 4.285156 C 10 2.539062 8.832031 1.429688 7.144531 1.429688 Z M 4.242188 4.285156 L 8.167969 4.285156 L 5.714844 8.09375 L 8.660156 8.09375 L 3.257812 15.714844 L 2.277344 15.714844 L 4.242188 10 L 1.785156 10 Z M 4.242188 4.285156 "/>
</svg>
