<?xml version="1.0" encoding="UTF-8"?>
<svg xmlns="http://www.w3.org/2000/svg" xmlns:xlink="http://www.w3.org/1999/xlink" width="20" height="20" viewBox="0 0 20 20">
<path fill-rule="nonzero" fill="rgb(67.45098%, 22.352941%, 67.45098%)" fill-opacity="1" d="M 7.144531 0 C 5.714844 0 5.714844 0 5.714844 1.429688 L 5.726562 5.714844 L 1.429688 5.714844 L 1.429688 18.570312 C 1.429688 20 1.429688 20 2.855469 20 L 17.144531 20 C 18.570312 20 18.570312 20 18.570312 18.570312 L 18.570312 5.714844 L 14.339844 5.714844 L 14.285156 1.429688 C 14.285156 0 14.285156 0 12.855469 0 Z M 7.144531 1.429688 L 12.855469 1.429688 L 12.855469 5.714844 L 7.144531 5.714844 Z M 7.398438 7.855469 C 8.136719 7.851562 8.289062 7.9375 8.726562 8.175781 C 9.253906 8.464844 9.796875 9.546875 9.910156 9.984375 L 9.980469 10.257812 L 10.152344 9.882812 C 11.195312 7.59375 14.207031 6.957031 15.289062 9.476562 C 15.585938 10.175781 15.667969 11.609375 15.367188 12.425781 C 14.96875 13.492188 14.226562 14.304688 12.515625 15.550781 C 11.390625 16.367188 10.117188 17.601562 10.027344 17.773438 C 9.925781 17.976562 10.023438 17.804688 9.566406 17.296875 C 9.328125 17.027344 8.730469 16.507812 8.238281 16.136719 C 6.785156 15.035156 6.585938 14.878906 5.996094 14.332031 C 4.90625 13.328125 4.441406 12.320312 4.445312 10.953125 C 4.445312 10.285156 4.488281 10.03125 4.675781 9.636719 C 4.992188 8.96875 5.460938 8.472656 6.058594 8.167969 C 6.480469 7.953125 6.691406 7.859375 7.398438 7.855469 Z M 7.398438 7.855469 "/>
</svg>
