<?xml version="1.0" encoding="UTF-8"?>
<svg xmlns="http://www.w3.org/2000/svg" xmlns:xlink="http://www.w3.org/1999/xlink" width="20" height="20" viewBox="0 0 20 20">
<path fill-rule="nonzero" fill="rgb(45.098039%, 29.019608%, 3.137255%)" fill-opacity="1" d="M 0 1.429688 L 0 5.714844 L 20 5.714844 L 20 1.429688 L 17.144531 1.429688 L 17.144531 4.285156 L 14.285156 4.285156 L 14.285156 1.429688 L 11.429688 1.429688 L 11.429688 4.285156 L 8.570312 4.285156 L 8.570312 1.429688 L 5.714844 1.429688 L 5.714844 4.285156 L 2.855469 4.285156 L 2.855469 1.429688 Z M 0 7.140625 L 0 18.570312 L 3.570312 18.570312 C 3.570312 14.285156 4.980469 9.285156 10 9.285156 C 14.863281 9.246094 16.429688 14.285156 16.429688 18.570312 L 20 18.570312 L 20 7.140625 Z M 10 11.429688 C 7.144531 11.429688 5.714844 14.285156 5.714844 18.570312 L 14.285156 18.570312 C 14.285156 14.285156 12.855469 11.429688 10 11.429688 Z M 10 11.429688 "/>
</svg>
