<?xml version="1.0" encoding="UTF-8"?>
<svg xmlns="http://www.w3.org/2000/svg" xmlns:xlink="http://www.w3.org/1999/xlink" width="20" height="20" viewBox="0 0 20 20">
<path fill-rule="nonzero" fill="rgb(67.45098%, 22.352941%, 67.45098%)" fill-opacity="1" d="M 17.691406 0.804688 C 17.691406 0.804688 16.613281 -0.207031 14.832031 0.0390625 C 13.054688 0.28125 8.105469 2.652344 5.804688 4.691406 C 3.507812 6.730469 0.34375 10.003906 0.140625 12.175781 C -0.0625 14.347656 -0.394531 15.292969 2.007812 17.691406 C 4.414062 20.09375 10.089844 17.800781 10.089844 17.800781 C 10.089844 17.800781 15.089844 15.523438 17.546875 11.296875 C 20.003906 7.070312 19.917969 5.28125 19.917969 5.28125 C 19.917969 5.28125 20.257812 3.71875 19.558594 2.351562 C 18.859375 0.984375 17.859375 1.109375 17.859375 1.109375 C 17.859375 1.109375 16.632812 1.914062 15.699219 2.941406 C 14.765625 3.972656 14.78125 4.003906 14.316406 4.414062 C 13.851562 4.824219 13.132812 4.984375 12.597656 5.480469 C 12.0625 5.972656 10.757812 9.203125 8.351562 11.1875 C 5.941406 13.171875 4.710938 13.648438 4.109375 14.308594 C 3.511719 14.964844 3.386719 15.65625 2.933594 15.527344 C 2.484375 15.398438 2.667969 13.027344 3.53125 12.289062 C 4.394531 11.550781 4.625 11.695312 5.867188 10.882812 C 7.109375 10.070312 8.542969 6.148438 12.035156 3.492188 C 15.53125 0.835938 17.691406 0.804688 17.691406 0.804688 Z M 17.691406 0.804688 "/>
</svg>
