<?xml version="1.0" encoding="UTF-8"?>
<svg xmlns="http://www.w3.org/2000/svg" xmlns:xlink="http://www.w3.org/1999/xlink" width="20" height="20" viewBox="0 0 20 20">
<path fill-rule="evenodd" fill="rgb(45.098039%, 29.019608%, 3.137255%)" fill-opacity="1" d="M 16.390625 3.570312 C 16.390625 4.753906 15.449219 5.714844 14.285156 5.714844 C 13.125 5.714844 12.179688 4.753906 12.179688 3.570312 C 12.179688 2.386719 13.125 1.429688 14.285156 1.429688 C 15.449219 1.429688 16.390625 2.386719 16.390625 3.570312 Z M 4.285156 8.570312 L 7.144531 8.570312 L 7.144531 12.855469 L 4.285156 12.855469 Z M 7.820312 3.570312 C 7.820312 4.753906 6.875 5.714844 5.714844 5.714844 C 4.550781 5.714844 3.609375 4.753906 3.609375 3.570312 C 3.609375 2.386719 4.550781 1.429688 5.714844 1.429688 C 6.875 1.429688 7.820312 2.386719 7.820312 3.570312 Z M 0 7.144531 L 10 7.144531 L 10 8.570312 L 0 8.570312 Z M 1.429688 18.570312 L 4.285156 12.855469 L 5.714844 12.855469 L 2.855469 18.570312 Z M 10 18.570312 L 7.144531 12.855469 L 5.714844 12.855469 L 8.570312 18.570312 Z M 12.855469 8.570312 L 15.714844 8.570312 L 15.714844 12.855469 L 12.855469 12.855469 Z M 10 7.144531 L 20 7.144531 L 20 8.570312 L 10 8.570312 Z M 10 18.570312 L 12.855469 12.855469 L 14.285156 12.855469 L 11.429688 18.570312 Z M 18.570312 18.570312 L 15.714844 12.855469 L 14.285156 12.855469 L 17.144531 18.570312 Z M 18.570312 18.570312 "/>
</svg>
