<?xml version="1.0" encoding="UTF-8"?>
<svg xmlns="http://www.w3.org/2000/svg" xmlns:xlink="http://www.w3.org/1999/xlink" width="20" height="20" viewBox="0 0 20 20">
<path fill-rule="nonzero" fill="rgb(67.45098%, 22.352941%, 67.45098%)" fill-opacity="1" d="M 0.574219 10 C 0.554688 8.570312 2.855469 5.714844 5.714844 5.714844 C 7.144531 5.761719 8.570312 7.980469 10 7.914062 C 11.429688 8.082031 12.855469 5.707031 14.285156 5.714844 C 17.144531 5.714844 19.386719 8.570312 19.390625 10 C 18.953125 10 18.34375 10 17.902344 10 C 17.144531 8.570312 15.714844 7.839844 14.285156 7.78125 C 12.855469 7.929688 11.429688 10.007812 10 10 C 8.570312 10.039062 7.144531 8.011719 5.714844 7.914062 C 4.285156 7.875 2.855469 8.570312 2.257812 10 C 1.761719 10 1.066406 10 0.574219 10 Z M 12.855469 2.855469 C 12.855469 4.433594 11.578125 5.714844 10 5.714844 C 8.421875 5.714844 7.144531 4.433594 7.144531 2.855469 C 7.144531 1.277344 8.421875 0 10 0 C 11.308594 0 12.453125 0.890625 12.769531 2.160156 M 4.285156 18.570312 L 1.429688 11.429688 C 2.457031 11.632812 3.410156 12.710938 4.285156 12.855469 C 4.863281 12.953125 6.613281 11.378906 7.144531 11.429688 C 8.480469 11.558594 8.964844 12.738281 10 12.855469 C 11.082031 12.980469 11.527344 11.703125 12.855469 11.429688 C 13.5 11.296875 14.828125 12.78125 15.714844 12.855469 C 16.8125 12.949219 17.503906 11.640625 18.570312 11.429688 L 15.714844 18.570312 C 14.285156 20 12.855469 20 10 20 C 7.144531 20 5.714844 20 4.285156 18.570312 Z M 4.285156 18.570312 "/>
</svg>
