<?xml version="1.0" encoding="UTF-8"?>
<svg xmlns="http://www.w3.org/2000/svg" xmlns:xlink="http://www.w3.org/1999/xlink" width="20" height="20" viewBox="0 0 20 20">
<path fill-rule="nonzero" fill="rgb(45.098039%, 29.019608%, 3.137255%)" fill-opacity="1" d="M 3.570312 0 C 3.214844 0 2.855469 0.316406 2.855469 0.953125 L 2.855469 16.191406 C 2.855469 17.460938 4.285156 17.460938 4.285156 16.191406 L 4.285156 0.953125 C 4.285156 0.316406 3.929688 0 3.570312 0 Z M 12.335938 0.0078125 C 11.601562 -0.046875 10.6875 0.128906 9.644531 0.828125 C 6.855469 2.695312 5 0.828125 5 0.828125 L 5 7.359375 C 5 7.359375 6.855469 9.222656 9.644531 7.359375 C 12.429688 5.492188 14.285156 7.359375 14.285156 7.359375 L 14.285156 0.828125 C 14.285156 0.828125 13.558594 0.0976562 12.335938 0.0078125 Z M 13.570312 8.570312 C 13.003906 8.570312 12.457031 8.796875 12.054688 9.199219 C 11.65625 9.601562 11.429688 10.144531 11.429688 10.714844 C 11.429688 11.28125 11.65625 11.828125 12.054688 12.230469 C 12.457031 12.632812 13.003906 12.855469 13.570312 12.855469 C 14.140625 12.855469 14.683594 12.632812 15.085938 12.230469 C 15.488281 11.828125 15.714844 11.28125 15.714844 10.714844 C 15.714844 10.144531 15.488281 9.601562 15.085938 9.199219 C 14.683594 8.796875 14.140625 8.570312 13.570312 8.570312 Z M 14.753906 13.585938 C 14.570312 13.5625 14.378906 13.574219 14.191406 13.621094 C 13.957031 13.683594 13.773438 13.808594 13.617188 13.960938 C 13.597656 13.972656 13.578125 13.980469 13.558594 14 L 11.191406 16.433594 L 8.609375 17.164062 C 8.226562 17.269531 8.007812 17.660156 8.113281 18.042969 C 8.222656 18.421875 8.613281 18.640625 8.996094 18.535156 L 11.742188 17.761719 C 11.769531 17.753906 11.789062 17.738281 11.8125 17.730469 C 11.855469 17.714844 11.898438 17.6875 11.9375 17.660156 C 11.964844 17.644531 11.996094 17.628906 12.019531 17.609375 C 12.042969 17.589844 12.074219 17.578125 12.09375 17.554688 L 13.550781 16.058594 L 14.285156 20 L 17.144531 20 L 16 14.59375 C 15.8125 14.042969 15.3125 13.660156 14.753906 13.585938 Z M 14.753906 13.585938 "/>
</svg>
