<?xml version="1.0" encoding="UTF-8"?>
<svg xmlns="http://www.w3.org/2000/svg" xmlns:xlink="http://www.w3.org/1999/xlink" width="20" height="20" viewBox="0 0 20 20">
<path fill-rule="nonzero" fill="rgb(67.45098%, 22.352941%, 67.45098%)" fill-opacity="1" d="M 12.902344 -0.0429688 L 1.429688 0 L 1.429688 14.285156 L 5.714844 14.285156 L 5.714844 12.855469 L 2.855469 12.855469 L 2.855469 1.429688 L 11.429688 1.429688 L 11.429688 4.285156 L 12.902344 4.285156 Z M 4.285156 2.855469 L 4.285156 3.570312 L 10 3.570312 L 10 2.855469 Z M 4.285156 4.285156 L 4.285156 5 L 5.714844 5 L 5.714844 4.285156 Z M 4.285156 5.714844 L 4.285156 6.429688 L 5.714844 6.429688 L 5.714844 5.714844 Z M 7.144531 5.714844 L 7.144531 20 L 18.570312 20 L 18.570312 10.402344 L 13.882812 5.714844 Z M 4.285156 7.144531 L 4.285156 7.855469 L 5.714844 7.855469 L 5.714844 7.144531 Z M 8.570312 7.144531 L 12.855469 7.144531 L 12.855469 11.429688 L 17.144531 11.429688 L 17.144531 18.570312 L 8.570312 18.570312 Z M 14.285156 8.125 L 16.160156 10 L 14.285156 10 Z M 4.285156 8.570312 L 4.285156 9.285156 L 5.714844 9.285156 L 5.714844 8.570312 Z M 10 8.570312 L 10 9.285156 L 11.429688 9.285156 L 11.429688 8.570312 Z M 4.285156 10 L 4.285156 10.714844 L 5.714844 10.714844 L 5.714844 10 Z M 10 10 L 10 10.714844 L 11.429688 10.714844 L 11.429688 10 Z M 10 11.429688 L 10 12.144531 L 11.429688 12.144531 L 11.429688 11.429688 Z M 10 12.855469 L 10 13.570312 L 15.714844 13.570312 L 15.714844 12.855469 Z M 10 14.285156 L 10 15 L 15.714844 15 L 15.714844 14.285156 Z M 10 15.714844 L 10 16.429688 L 15.714844 16.429688 L 15.714844 15.714844 Z M 10 15.714844 "/>
</svg>
