<?xml version="1.0" encoding="UTF-8"?>
<svg xmlns="http://www.w3.org/2000/svg" xmlns:xlink="http://www.w3.org/1999/xlink" width="20" height="20" viewBox="0 0 20 20">
<path fill-rule="nonzero" fill="rgb(67.45098%, 22.352941%, 67.45098%)" fill-opacity="1" d="M 20 3.570312 C 20 5.230469 18.402344 6.574219 16.429688 6.574219 C 14.457031 6.574219 12.855469 5.230469 12.855469 3.570312 C 12.855469 1.914062 14.457031 0.570312 16.429688 0.570312 C 18.402344 0.570312 20 1.914062 20 3.570312 Z M 11.429688 2.855469 L 14.285156 2.855469 L 14.285156 4.285156 L 11.429688 4.285156 Z M 4.285156 0 L 5.714844 0 L 5.714844 1.429688 L 4.285156 1.429688 Z M 1.429688 0 L 2.855469 0 L 2.855469 1.429688 L 1.429688 1.429688 Z M 1.429688 5.714844 L 2.855469 5.714844 L 2.855469 7.144531 L 1.429688 7.144531 Z M 4.285156 5.714844 L 5.714844 5.714844 L 5.714844 7.144531 L 4.285156 7.144531 Z M 5.714844 2.855469 L 7.144531 2.855469 L 7.144531 4.285156 L 5.714844 4.285156 Z M 2.855469 2.855469 L 4.285156 2.855469 L 4.285156 4.285156 L 2.855469 4.285156 Z M 0 2.855469 L 1.429688 2.855469 L 1.429688 4.285156 L 0 4.285156 Z M 8.570312 7.746094 L 11.429688 7.710938 L 11.429688 2.855469 C 11.429688 1.429688 11.429688 1.429688 10 1.429688 C 8.621094 1.453125 8.570312 1.429688 8.570312 2.855469 Z M 7.144531 8.570312 C 4.285156 8.570312 2.097656 12.855469 2.097656 15.714844 C 2.097656 17.144531 5.714844 20 7.144531 20 L 12.855469 20 C 14.285156 20 17.734375 17.144531 17.734375 15.714844 C 17.734375 12.855469 15.714844 8.570312 12.855469 8.570312 Z M 7.144531 8.570312 "/>
</svg>
