<?xml version="1.0" encoding="UTF-8"?>
<svg xmlns="http://www.w3.org/2000/svg" xmlns:xlink="http://www.w3.org/1999/xlink" width="20" height="20" viewBox="0 0 20 20">
<path fill-rule="nonzero" fill="rgb(45.098039%, 29.019608%, 3.137255%)" fill-opacity="1" d="M 10 0 C 8.570312 0 8.570312 1.429688 8.570312 1.429688 L 3.214844 2.855469 L 3.214844 4.285156 L 0 11.429688 C 0 12.855469 1.132812 14.285156 3.570312 14.285156 C 6.011719 14.285156 7.144531 12.855469 7.144531 11.429688 L 3.929688 4.285156 L 8.570312 4.285156 L 8.570312 18.570312 L 2.855469 18.570312 L 1.429688 20 L 18.570312 20 L 17.144531 18.570312 L 11.429688 18.570312 L 11.429688 4.285156 L 16.070312 4.285156 L 12.855469 11.429688 C 12.855469 12.855469 13.960938 14.285156 16.429688 14.285156 C 18.894531 14.285156 20 12.855469 20 11.429688 L 16.785156 4.285156 L 16.785156 2.855469 L 11.429688 1.429688 C 11.429688 1.429688 11.429688 0 10 0 Z M 3.570312 5.714844 L 6.070312 11.429688 L 1.070312 11.429688 Z M 16.429688 5.714844 L 18.929688 11.429688 L 13.929688 11.429688 Z M 16.429688 5.714844 "/>
</svg>
