<?xml version="1.0" encoding="UTF-8"?>
<svg xmlns="http://www.w3.org/2000/svg" xmlns:xlink="http://www.w3.org/1999/xlink" width="20" height="20" viewBox="0 0 20 20">
<path fill-rule="nonzero" fill="rgb(40%, 40%, 40%)" fill-opacity="1" d="M 1.429688 0 C 0.636719 0 0 0.636719 0 1.429688 C 0 2.855469 0 4.285156 0 5.714844 L 1.429688 5.714844 L 1.429688 20 L 2.855469 20 L 2.855469 15.714844 L 7.144531 20 L 8.570312 20 L 8.570312 5.714844 L 15.714844 5.714844 L 15.714844 12.855469 L 12.855469 12.855469 L 12.855469 15.714844 L 20 15.714844 L 20 12.855469 L 17.144531 12.855469 L 17.144531 5.714844 L 20 5.714844 L 18.570312 2.855469 L 8.570312 2.855469 L 7.144531 0 C 5.238281 0 3.332031 0 1.429688 0 Z M 1.429688 1.429688 C 3.332031 1.429688 5.238281 1.429688 7.144531 1.429688 L 7.855469 2.855469 L 1.429688 2.855469 Z M 2.855469 5.714844 L 7.144531 5.714844 L 7.144531 10 Z M 2.855469 7.144531 L 6.429688 10.714844 L 2.855469 14.285156 Z M 7.144531 11.429688 L 7.144531 18.570312 L 3.570312 15 Z M 7.144531 11.429688 "/>
</svg>
