<?xml version="1.0" encoding="UTF-8"?>
<svg xmlns="http://www.w3.org/2000/svg" xmlns:xlink="http://www.w3.org/1999/xlink" width="20" height="20" viewBox="0 0 20 20">
<path fill-rule="nonzero" fill="rgb(74.901961%, 0%, 0%)" fill-opacity="1" d="M 10 11.429688 C 12.855469 11.429688 12.855469 12.855469 12.855469 15.714844 C 12.855469 17.144531 11.414062 20 12.855469 20 C 14.285156 20 15.359375 18.367188 15.714844 15.714844 C 16.070312 13.0625 15.714844 11.429688 15.714844 10 C 15.714844 7.144531 17.144531 4.285156 17.144531 2.855469 C 17.144531 1.429688 16.570312 0.3125 15.714844 0 C 12.855469 0 12.855469 1.429688 10 1.429688 C 7.144531 1.429688 7.144531 0 4.285156 0 C 3.429688 0.3125 2.855469 1.429688 2.855469 2.855469 C 2.855469 4.285156 4.285156 7.144531 4.285156 10 C 4.285156 11.429688 4.109375 13.675781 4.285156 15.714844 C 4.460938 17.753906 5.714844 20 7.144531 20 C 8.582031 20 7.144531 17.144531 7.144531 15.714844 C 7.144531 12.855469 7.144531 11.429688 10 11.429688 Z M 10 11.429688 "/>
</svg>
