<?xml version="1.0" encoding="UTF-8"?>
<svg xmlns="http://www.w3.org/2000/svg" xmlns:xlink="http://www.w3.org/1999/xlink" width="20" height="20" viewBox="0 0 20 20">
<defs>
<filter id="filter-remove-color" x="0%" y="0%" width="100%" height="100%">
<feColorMatrix color-interpolation-filters="sRGB" values="0 0 0 0 1 0 0 0 0 1 0 0 0 0 1 0 0 0 1 0" />
</filter>
<mask id="mask-0">
<g filter="url(#filter-remove-color)">
<rect x="-2" y="-2" width="24" height="24" fill="rgb(0%, 0%, 0%)" fill-opacity="0.7"/>
</g>
</mask>
<clipPath id="clip-0">
<rect x="0" y="0" width="20" height="20"/>
</clipPath>
<g id="source-7" clip-path="url(#clip-0)">
<path fill-rule="nonzero" fill="rgb(65.098039%, 87.843137%, 67.058824%)" fill-opacity="1" d="M 5.453125 11.875 C 4.898438 11.941406 4.582031 12.550781 4.542969 13.078125 C 4.476562 13.546875 4.679688 14.148438 5.175781 14.253906 C 5.601562 14.292969 5.941406 13.890625 6.082031 13.507812 C 6.246094 13.027344 6.253906 12.386719 5.851562 12.027344 C 5.742188 11.929688 5.597656 11.871094 5.453125 11.875 Z M 3.1875 11.902344 C 2.726562 11.933594 2.488281 12.472656 2.519531 12.902344 C 2.523438 13.480469 2.839844 14.125 3.417969 14.261719 C 3.847656 14.308594 4.136719 13.855469 4.164062 13.453125 C 4.21875 12.84375 3.945312 12.105469 3.332031 11.917969 C 3.285156 11.90625 3.238281 11.898438 3.1875 11.902344 Z M 6.898438 13.75 C 6.28125 13.796875 5.886719 14.457031 5.859375 15.054688 C 5.828125 15.441406 6.078125 15.933594 6.503906 15.90625 C 7.132812 15.839844 7.515625 15.132812 7.5 14.519531 C 7.496094 14.167969 7.273438 13.765625 6.898438 13.75 Z M 1.253906 14.558594 C 1.199219 15.21875 1.660156 15.964844 2.332031 16.007812 C 2.738281 15.980469 2.933594 15.507812 2.886719 15.132812 C 2.847656 14.582031 2.480469 14.015625 2 13.941406 C 1.519531 13.867188 1.246094 14.207031 1.253906 14.558594 Z M 4.445312 15.121094 C 3.816406 15.125 3.238281 15.535156 2.929688 16.09375 C 2.671875 16.507812 2.460938 16.980469 2.421875 17.480469 C 2.429688 17.863281 2.796875 18.183594 3.164062 18.105469 C 3.6875 18.039062 4.15625 17.675781 4.703125 17.742188 C 5.15625 17.777344 5.527344 18.128906 5.984375 18.125 C 6.429688 18.140625 6.683594 17.632812 6.515625 17.234375 C 6.332031 16.664062 5.980469 16.167969 5.601562 15.71875 C 5.300781 15.390625 4.902344 15.105469 4.445312 15.121094 Z M 4.445312 15.121094 "/>
</g>
<mask id="mask-1">
<g filter="url(#filter-remove-color)">
<rect x="-2" y="-2" width="24" height="24" fill="rgb(0%, 0%, 0%)" fill-opacity="0.7"/>
</g>
</mask>
<clipPath id="clip-1">
<rect x="0" y="0" width="20" height="20"/>
</clipPath>
<g id="source-11" clip-path="url(#clip-1)">
<path fill-rule="nonzero" fill="rgb(65.098039%, 87.843137%, 67.058824%)" fill-opacity="1" d="M 15.453125 1.875 C 14.898438 1.941406 14.582031 2.550781 14.542969 3.078125 C 14.476562 3.546875 14.679688 4.148438 15.175781 4.253906 C 15.601562 4.292969 15.941406 3.890625 16.082031 3.507812 C 16.246094 3.027344 16.253906 2.386719 15.851562 2.027344 C 15.742188 1.929688 15.597656 1.871094 15.453125 1.875 Z M 13.1875 1.902344 C 12.726562 1.933594 12.488281 2.472656 12.519531 2.902344 C 12.523438 3.480469 12.839844 4.125 13.417969 4.261719 C 13.847656 4.308594 14.136719 3.855469 14.164062 3.453125 C 14.21875 2.84375 13.945312 2.105469 13.332031 1.917969 C 13.285156 1.90625 13.238281 1.898438 13.1875 1.902344 Z M 16.898438 3.75 C 16.28125 3.796875 15.886719 4.457031 15.859375 5.054688 C 15.828125 5.441406 16.078125 5.933594 16.503906 5.90625 C 17.132812 5.839844 17.515625 5.132812 17.5 4.519531 C 17.496094 4.167969 17.273438 3.765625 16.898438 3.75 Z M 11.253906 4.558594 C 11.199219 5.21875 11.660156 5.964844 12.332031 6.007812 C 12.738281 5.980469 12.933594 5.507812 12.886719 5.132812 C 12.847656 4.582031 12.480469 4.015625 12 3.941406 C 11.519531 3.867188 11.246094 4.207031 11.253906 4.558594 Z M 14.445312 5.121094 C 13.816406 5.125 13.238281 5.535156 12.929688 6.09375 C 12.671875 6.507812 12.460938 6.980469 12.421875 7.480469 C 12.429688 7.863281 12.796875 8.183594 13.164062 8.105469 C 13.6875 8.039062 14.15625 7.675781 14.703125 7.742188 C 15.15625 7.777344 15.527344 8.128906 15.984375 8.125 C 16.429688 8.140625 16.683594 7.632812 16.515625 7.234375 C 16.332031 6.664062 15.980469 6.167969 15.601562 5.71875 C 15.300781 5.390625 14.902344 5.105469 14.445312 5.121094 Z M 14.445312 5.121094 "/>
</g>
</defs>
<g mask="url(#mask-0)">
<use xlink:href="#source-7"/>
</g>
<g mask="url(#mask-1)">
<use xlink:href="#source-11"/>
</g>
</svg>
