<?xml version="1.0" encoding="UTF-8"?>
<svg xmlns="http://www.w3.org/2000/svg" xmlns:xlink="http://www.w3.org/1999/xlink" width="20" height="20" viewBox="0 0 20 20">
<path fill-rule="nonzero" fill="rgb(45.098039%, 29.019608%, 3.137255%)" fill-opacity="1" d="M 1.429688 8.570312 L 3.570312 20 L 10.714844 20 L 12.855469 8.570312 Z M 3.113281 10 L 11.15625 10 L 10.628906 12.855469 L 3.644531 12.855469 Z M 5.714844 7.144531 C 5.714844 4.285156 7.144531 2.855469 10 2.855469 L 11.429688 2.855469 L 11.429688 1.429688 L 10 1.429688 C 8.570312 1.429688 8.570312 0 10 0 L 14.285156 0 C 15.714844 0 15.714844 1.429688 14.285156 1.429688 L 12.855469 1.429688 L 12.855469 2.855469 L 18.570312 2.855469 L 18.570312 5 L 10 5 C 8.449219 4.988281 7.855469 5.6875 7.855469 7.144531 Z M 5.714844 7.144531 "/>
</svg>
