<?xml version="1.0" encoding="UTF-8"?>
<svg xmlns="http://www.w3.org/2000/svg" xmlns:xlink="http://www.w3.org/1999/xlink" width="20" height="20" viewBox="0 0 20 20">
<path fill-rule="nonzero" fill="rgb(67.45098%, 22.352941%, 67.45098%)" fill-opacity="1" d="M 13.394531 0.0429688 C 13.183594 0.0195312 12.957031 0.078125 12.769531 0.269531 L 8.617188 4.464844 L 5.894531 1.695312 C 5.589844 1.289062 4.910156 1.246094 4.554688 1.605469 C 4.195312 1.96875 4.238281 2.640625 4.644531 2.945312 L 7.367188 5.714844 L 2.855469 5.714844 C 1.429688 5.714844 0 7.144531 0 8.570312 L 0 17.144531 C 0 18.570312 1.429688 20 2.855469 20 L 17.144531 20 C 18.570312 20 20 18.570312 20 17.144531 L 20 8.570312 C 20 7.144531 18.570312 5.714844 17.144531 5.714844 L 9.867188 5.714844 L 14.019531 1.519531 C 14.570312 0.964844 14.019531 0.117188 13.394531 0.0429688 Z M 8.570312 8.570312 C 12.855469 8.570312 14.285156 8.570312 14.285156 12.855469 C 14.285156 17.144531 12.855469 17.144531 8.570312 17.144531 C 4.285156 17.144531 2.855469 17.144531 2.855469 12.855469 C 2.855469 8.570312 4.285156 8.570312 8.570312 8.570312 Z M 17.144531 8.75 C 17.832031 8.75 18.394531 9.308594 18.394531 10 C 18.394531 10.691406 17.832031 11.25 17.144531 11.25 C 16.453125 11.25 15.894531 10.691406 15.894531 10 C 15.894531 9.308594 16.453125 8.75 17.144531 8.75 Z M 17.144531 13.035156 C 17.832031 13.035156 18.394531 13.59375 18.394531 14.285156 C 18.394531 14.976562 17.832031 15.535156 17.144531 15.535156 C 16.453125 15.535156 15.894531 14.976562 15.894531 14.285156 C 15.894531 13.59375 16.453125 13.035156 17.144531 13.035156 Z M 17.144531 13.035156 "/>
</svg>
