<?xml version="1.0" encoding="UTF-8"?>
<svg xmlns="http://www.w3.org/2000/svg" xmlns:xlink="http://www.w3.org/1999/xlink" width="20" height="20" viewBox="0 0 20 20">
<path fill-rule="evenodd" fill="rgb(51.764706%, 38.039216%, 76.862745%)" fill-opacity="1" d="M 10 0 C 8.75 0 7.734375 1.003906 7.734375 2.242188 C 7.734375 3.152344 8.289062 3.9375 9.078125 4.285156 C 9.066406 4.761719 9.054688 5.238281 9.046875 5.714844 L 2.855469 5.714844 L 2.855469 7.144531 L 9.019531 7.144531 C 8.960938 9.949219 8.898438 12.757812 8.84375 15.5625 C 8.839844 15.742188 8.84375 17.554688 6.414062 16.304688 C 3.976562 15.050781 5.351562 13.628906 5.515625 13.589844 C 4.085938 13.136719 2.789062 11.886719 1.742188 10.601562 C 0.710938 12.890625 2.554688 15.335938 2.640625 15.6875 C 2.863281 15.445312 3.191406 15.480469 3.394531 15.515625 C 5.875 19.382812 9.128906 18.917969 10 20 C 10.871094 18.917969 14.125 19.382812 16.605469 15.515625 C 16.808594 15.480469 17.136719 15.445312 17.359375 15.6875 C 17.445312 15.335938 19.289062 12.890625 18.257812 10.601562 C 17.210938 11.886719 15.914062 13.136719 14.484375 13.589844 C 14.648438 13.628906 16.023438 15.050781 13.589844 16.304688 C 11.15625 17.554688 11.160156 15.742188 11.15625 15.5625 C 11.101562 12.757812 11.039062 9.949219 10.980469 7.144531 L 17.144531 7.144531 L 17.144531 5.714844 L 10.953125 5.714844 C 10.945312 5.238281 10.933594 4.761719 10.921875 4.285156 C 11.714844 3.9375 12.265625 3.152344 12.265625 2.242188 C 12.265625 1.003906 11.25 0 10 0 Z M 10 1.421875 C 10.441406 1.421875 10.804688 1.789062 10.804688 2.242188 C 10.804688 2.691406 10.441406 3.058594 10 3.058594 C 9.558594 3.058594 9.195312 2.691406 9.195312 2.242188 C 9.195312 1.789062 9.558594 1.421875 10 1.421875 Z M 10 1.421875 "/>
</svg>
