<?xml version="1.0" encoding="UTF-8"?>
<svg xmlns="http://www.w3.org/2000/svg" xmlns:xlink="http://www.w3.org/1999/xlink" width="20" height="20" viewBox="0 0 20 20">
<path fill-rule="nonzero" fill="rgb(45.098039%, 29.019608%, 3.137255%)" fill-opacity="1" d="M 10 0 C 4.890625 1.773438 2.855469 7.144531 2.855469 11.429688 C 2.855469 15.714844 5.351562 18.941406 8.570312 20 C 5.714844 15.34375 5.714844 11.429688 10 8.570312 C 9.277344 10.503906 10 14.285156 11.429688 15.714844 C 12.046875 15.140625 12.855469 13.679688 12.855469 12.855469 C 15.714844 15.714844 13.660156 18.046875 12.855469 20 C 14.410156 19.203125 17.144531 17.144531 17.144531 12.855469 C 17.144531 8.570312 14.285156 7.144531 14.285156 2.855469 C 12.308594 3.714844 11.429688 5.714844 11.429688 7.144531 C 10.070312 6.347656 8.570312 3.210938 10 0 Z M 10 0 "/>
</svg>
