<?xml version="1.0" encoding="UTF-8"?>
<svg xmlns="http://www.w3.org/2000/svg" xmlns:xlink="http://www.w3.org/1999/xlink" width="20" height="20" viewBox="0 0 20 20">
<path fill-rule="nonzero" fill="rgb(45.098039%, 29.019608%, 3.137255%)" fill-opacity="1" d="M 8.375 -0.015625 C 10.707031 4.773438 -1.535156 7.910156 9.109375 14.472656 L 9.570312 14.304688 C 6.917969 10.46875 17.675781 5.972656 8.375 -0.015625 Z M 13.214844 4.890625 C 14.714844 9.300781 9.589844 10.566406 11.199219 13.710938 L 13.613281 12.835938 C 14.582031 10.472656 17.0625 8.566406 13.214844 4.890625 Z M 2.105469 12.855469 C 1.941406 12.859375 1.78125 12.925781 1.65625 13.035156 C 1.53125 13.148438 1.449219 13.296875 1.425781 13.464844 C 1.402344 13.628906 1.433594 13.796875 1.523438 13.9375 C 1.609375 14.082031 1.742188 14.191406 1.898438 14.242188 L 7.921875 16.433594 L 1.902344 18.621094 C 1.816406 18.652344 1.734375 18.703125 1.667969 18.765625 C 1.597656 18.828125 1.542969 18.902344 1.503906 18.984375 C 1.425781 19.15625 1.414062 19.347656 1.480469 19.527344 C 1.542969 19.703125 1.671875 19.84375 1.84375 19.925781 C 2.011719 20.003906 2.207031 20.011719 2.382812 19.949219 L 9.984375 17.183594 L 17.613281 19.957031 C 17.792969 20.023438 17.988281 20.011719 18.160156 19.933594 C 18.332031 19.851562 18.464844 19.707031 18.53125 19.527344 C 18.59375 19.351562 18.585938 19.152344 18.503906 18.980469 C 18.421875 18.808594 18.277344 18.675781 18.101562 18.613281 L 12.078125 16.421875 L 18.097656 14.234375 C 18.253906 14.179688 18.386719 14.074219 18.472656 13.929688 C 18.558594 13.785156 18.589844 13.617188 18.5625 13.453125 C 18.535156 13.289062 18.449219 13.140625 18.324219 13.03125 C 18.199219 12.925781 18.039062 12.863281 17.871094 12.863281 C 17.785156 12.863281 17.699219 12.878906 17.617188 12.90625 L 10.015625 15.671875 L 2.386719 12.898438 C 2.296875 12.867188 2.203125 12.851562 2.105469 12.855469 Z M 2.105469 12.855469 "/>
</svg>
