<?xml version="1.0" encoding="UTF-8"?>
<svg xmlns="http://www.w3.org/2000/svg" xmlns:xlink="http://www.w3.org/1999/xlink" width="20" height="20" viewBox="0 0 20 20">
<path fill-rule="nonzero" fill="rgb(18.431373%, 38.039216%, 20%)" fill-opacity="1" d="M 0 0 L 0 7.144531 C 0 8.28125 0.453125 9.371094 1.253906 10.171875 C 2.058594 10.976562 3.148438 11.429688 4.285156 11.429688 C 5.421875 11.429688 6.511719 10.976562 7.316406 10.171875 C 8.121094 9.371094 8.570312 8.28125 8.570312 7.144531 L 8.570312 4.285156 L 5.714844 7.144531 L 7.144531 7.144531 C 7.144531 7.902344 6.84375 8.628906 6.304688 9.164062 C 5.769531 9.699219 5.042969 10 4.285156 10 C 3.527344 10 2.800781 9.699219 2.265625 9.164062 C 1.730469 8.628906 1.429688 7.902344 1.429688 7.144531 L 1.429688 0 Z M 7.855469 12.855469 C 4.488281 12.855469 1.121094 14.644531 0 16.429688 C 1.121094 18.214844 4.488281 20 7.855469 20 C 11.222656 20 14.59375 18.214844 15.714844 16.429688 C 14.59375 14.644531 11.222656 12.855469 7.855469 12.855469 Z M 15.714844 16.429688 L 20 20 L 20 12.855469 Z M 4.285156 14.285156 C 4.664062 14.285156 5.027344 14.4375 5.296875 14.703125 C 5.5625 14.972656 5.714844 15.335938 5.714844 15.714844 C 5.714844 16.09375 5.5625 16.457031 5.296875 16.722656 C 5.027344 16.992188 4.664062 17.144531 4.285156 17.144531 C 3.90625 17.144531 3.542969 16.992188 3.277344 16.722656 C 3.007812 16.457031 2.855469 16.09375 2.855469 15.714844 C 2.855469 15.335938 3.007812 14.972656 3.277344 14.703125 C 3.542969 14.4375 3.90625 14.285156 4.285156 14.285156 Z M 4.285156 14.285156 "/>
</svg>
