<?xml version="1.0" encoding="UTF-8"?>
<svg xmlns="http://www.w3.org/2000/svg" xmlns:xlink="http://www.w3.org/1999/xlink" width="20" height="20" viewBox="0 0 20 20">
<path fill-rule="nonzero" fill="rgb(67.45098%, 22.352941%, 67.45098%)" fill-opacity="1" d="M 4.285156 0 C 5.636719 4.046875 3.191406 9.191406 8.929688 9.910156 L 8.929688 17.855469 C 8.929688 15.761719 5.710938 11.429688 1.429688 11.429688 C 5.714844 14.285156 2.855469 20 8.570312 20 C 11.429688 20 8.570312 20 11.429688 20 C 17.144531 20 14.285156 14.285156 18.570312 11.429688 C 14.289062 11.429688 11.070312 15.636719 11.070312 17.855469 L 11.070312 9.910156 C 16.789062 9.214844 14.363281 4.046875 15.714844 0 C 14.285156 0 12.5 4.285156 12.5 4.285156 C 12.5 4.285156 11.429688 1.429688 10 0 C 8.570312 1.429688 7.5 4.285156 7.5 4.285156 C 7.5 4.285156 5.714844 0 4.285156 0 Z M 4.285156 0 "/>
</svg>
