<?xml version="1.0" encoding="UTF-8"?>
<svg xmlns="http://www.w3.org/2000/svg" xmlns:xlink="http://www.w3.org/1999/xlink" width="20" height="20" viewBox="0 0 20 20">
<path fill-rule="nonzero" fill="rgb(0%, 57.254902%, 85.490196%)" fill-opacity="1" d="M 7.144531 1.429688 L 1.429688 6.429688 L 7.144531 11.429688 L 7.144531 8.570312 L 12.855469 8.570312 L 12.855469 11.429688 L 18.570312 6.429688 L 12.855469 1.429688 L 12.855469 4.285156 L 7.144531 4.285156 Z M 7.144531 1.429688 "/>
<path fill-rule="nonzero" fill="rgb(0%, 57.254902%, 85.490196%)" fill-opacity="1" d="M 0 12.855469 C 1.070312 12.855469 3.046875 15.714844 4 15.714844 C 4.890625 15.714844 6.992188 12.855469 8 12.855469 C 9.007812 12.855469 11.109375 15.714844 12 15.714844 C 13.070312 15.714844 15.042969 12.855469 16 12.855469 C 17.066406 12.816406 19.167969 15.714844 20 15.714844 L 20 20 C 18.992188 20 16.949219 17.144531 16 17.144531 C 15.050781 17.144531 13.007812 20 12 20 C 11.042969 20 9.007812 17.144531 8 17.144531 C 6.984375 17.144531 4.953125 20 4 20 C 2.933594 20 1.011719 17.144531 0 17.144531 Z M 0 12.855469 "/>
</svg>
