<?xml version="1.0" encoding="UTF-8"?>
<svg xmlns="http://www.w3.org/2000/svg" xmlns:xlink="http://www.w3.org/1999/xlink" width="20" height="20" viewBox="0 0 20 20">
<path fill-rule="evenodd" fill="rgb(66.666667%, 82.745098%, 87.45098%)" fill-opacity="1" d="M 0 15.714844 L 20 15.714844 C 18.570312 18.570312 12.855469 20 10 20 C 7.144531 20 1.859375 18.570312 0 15.714844 Z M 12.855469 0.0859375 C 11.429688 0.0859375 10.464844 1.566406 9.984375 2.679688 C 9.5 1.511719 8.570312 0.0234375 7.144531 0.0234375 C 5 0.0234375 4.285156 2.769531 4.285156 4.199219 C 4.285156 5.628906 5.714844 5.164062 5.714844 4.242188 C 7.144531 1.386719 8.570312 1.9375 8.917969 6.453125 L 8.917969 6.953125 C 8.371094 6.683594 7.757812 6.511719 7.144531 6.511719 C 5.046875 6.511719 3.214844 7.988281 3.214844 10.796875 L 3.214844 12.226562 C 3.214844 13.65625 5.355469 13.65625 5.355469 12.226562 L 5.355469 10.796875 C 5.355469 9.417969 6.332031 8.65625 7.144531 8.65625 C 7.929688 8.65625 8.859375 9.421875 8.917969 10.679688 L 8.917969 14.285156 C 10 13.460938 10 13.4375 11.039062 14.285156 L 11.070312 10.796875 L 11.070312 10.617188 C 11.128906 9.359375 12.0625 8.597656 12.847656 8.597656 C 13.65625 8.597656 14.632812 9.359375 14.632812 10.738281 L 14.632812 12.167969 C 14.632812 13.597656 16.773438 13.597656 16.773438 12.167969 L 16.773438 10.738281 C 16.773438 7.929688 14.941406 6.453125 12.847656 6.453125 C 12.230469 6.453125 11.617188 6.625 11.070312 6.898438 C 11.070312 6.769531 11.046875 6.636719 11.070312 6.511719 C 11.429688 2.589844 12.855469 1.429688 14.285156 4.285156 C 14.285156 5.039062 15.714844 5.605469 15.714844 4.175781 C 15.714844 2.75 15 0.0859375 12.855469 0.0859375 Z M 12.855469 0.0859375 "/>
</svg>
