<?xml version="1.0" encoding="UTF-8"?>
<svg xmlns="http://www.w3.org/2000/svg" xmlns:xlink="http://www.w3.org/1999/xlink" width="20" height="20" viewBox="0 0 20 20">
<path fill-rule="nonzero" fill="rgb(67.45098%, 22.352941%, 67.45098%)" fill-opacity="1" d="M 4.285156 2.855469 C 2.855469 2.855469 1.429688 4.285156 1.429688 5.714844 C 4.285156 5.714844 5.714844 7.964844 5.714844 10 L 14.285156 10 C 14.285156 7.832031 15.714844 5.714844 18.570312 5.714844 C 18.570312 4.285156 17.144531 2.855469 15.714844 2.855469 Z M 1.429688 7.144531 C 0 7.144531 0 8.570312 0 8.570312 C 0 9.3125 0.6875 10 1.429688 10 L 1.429688 14.285156 C 1.429688 15.207031 2.035156 15.714844 2.855469 15.714844 L 3.570312 15.714844 C 3.570312 15.714844 3.570312 17.144531 5 17.144531 C 6.429688 17.144531 6.429688 15.714844 6.429688 15.714844 L 13.570312 15.714844 C 13.570312 15.714844 13.570312 17.144531 15 17.144531 C 16.429688 17.144531 16.429688 15.714844 16.429688 15.714844 L 17.144531 15.714844 C 17.871094 15.714844 18.570312 15.023438 18.570312 14.285156 L 18.570312 10 C 19.277344 10 20 9.445312 20 8.570312 C 20 8.570312 20 7.144531 18.570312 7.144531 C 17.144531 7.144531 15.714844 8.570312 15.714844 11.429688 L 4.285156 11.429688 C 4.285156 8.570312 2.855469 7.144531 1.429688 7.144531 Z M 1.429688 7.144531 "/>
</svg>
