<?xml version="1.0" encoding="UTF-8"?>
<svg xmlns="http://www.w3.org/2000/svg" xmlns:xlink="http://www.w3.org/1999/xlink" width="20" height="20" viewBox="0 0 20 20">
<path fill-rule="nonzero" fill="rgb(40%, 40%, 40%)" fill-opacity="1" d="M 17.144531 0 C 13.683594 2.078125 12.476562 2.867188 10.804688 4.402344 C 11.265625 4.539062 11.683594 4.785156 12.019531 5.125 C 12.355469 5.460938 12.605469 5.878906 12.738281 6.335938 C 14.285156 4.660156 15.050781 3.484375 17.144531 0 Z M 5.3125 5.21875 C 3.996094 5.253906 2.515625 5.414062 0 5.714844 C 3.714844 7.160156 5.085938 7.636719 7.28125 8.011719 C 7.191406 7.730469 7.144531 7.4375 7.144531 7.144531 C 7.144531 6.480469 7.375 5.835938 7.796875 5.324219 C 6.917969 5.246094 6.117188 5.199219 5.3125 5.21875 Z M 10 5.714844 C 9.621094 5.714844 9.257812 5.863281 8.988281 6.132812 C 8.722656 6.402344 8.570312 6.765625 8.570312 7.144531 C 8.570312 7.523438 8.722656 7.886719 8.988281 8.152344 C 9.257812 8.421875 9.621094 8.570312 10 8.570312 C 10.378906 8.570312 10.742188 8.421875 11.011719 8.152344 C 11.277344 7.886719 11.429688 7.523438 11.429688 7.144531 C 11.429688 6.765625 11.277344 6.402344 11.011719 6.132812 C 10.742188 5.863281 10.378906 5.714844 10 5.714844 Z M 12.742188 7.941406 C 12.570312 8.535156 12.210938 9.054688 11.714844 9.425781 C 11.21875 9.800781 10.617188 10 10 10 C 9.652344 10 9.304688 9.933594 8.980469 9.808594 L 8.324219 18.570312 L 5.714844 18.570312 L 5.714844 20 L 14.285156 20 L 14.285156 18.570312 L 11.429688 18.570312 L 10.953125 10.015625 C 12.578125 11.503906 13.703125 12.21875 17.144531 14.285156 C 15.054688 10.796875 14.289062 9.621094 12.742188 7.941406 Z M 12.742188 7.941406 "/>
</svg>
