<?xml version="1.0" encoding="UTF-8"?>
<svg xmlns="http://www.w3.org/2000/svg" xmlns:xlink="http://www.w3.org/1999/xlink" width="20" height="20" viewBox="0 0 20 20">
<path fill-rule="nonzero" fill="rgb(0%, 54.901961%, 5.098039%)" fill-opacity="1" d="M 10.253906 1.25 L 9.554688 2.265625 C 9.382812 2.507812 9.425781 2.710938 9.679688 2.882812 C 9.917969 3.03125 10.121094 2.988281 10.292969 2.765625 L 10.695312 2.167969 L 16.921875 6.253906 L 11.832031 7.171875 C 11.648438 7.210938 11.496094 7.304688 11.382812 7.460938 C 11.269531 7.613281 11.242188 7.773438 11.292969 7.945312 L 12.390625 12.230469 L 8.796875 17.59375 C 8.730469 17.714844 8.695312 17.839844 8.695312 17.972656 C 8.695312 18.183594 8.773438 18.371094 8.925781 18.523438 C 9.082031 18.675781 9.265625 18.75 9.476562 18.75 C 9.757812 18.75 9.984375 18.617188 10.15625 18.351562 L 13.910156 12.710938 L 14.109375 13.488281 L 13.550781 17.714844 C 13.523438 17.925781 13.570312 18.117188 13.691406 18.285156 C 13.808594 18.449219 13.976562 18.550781 14.191406 18.589844 C 14.402344 18.632812 14.597656 18.585938 14.777344 18.460938 C 14.957031 18.335938 15.058594 18.164062 15.085938 17.953125 L 15.667969 13.628906 C 15.679688 13.480469 15.664062 13.328125 15.625 13.167969 L 14.347656 8.085938 L 17.683594 7.488281 C 17.859375 7.460938 17.996094 7.375 18.105469 7.21875 C 18.210938 7.066406 18.25 6.902344 18.222656 6.730469 C 18.183594 6.558594 18.082031 6.414062 17.921875 6.292969 Z M 1.769531 1.648438 L 1.769531 18.398438 L 2.894531 18.398438 L 2.894531 6.402344 L 8.449219 4.144531 L 2.894531 2.082031 L 2.894531 1.648438 Z M 11.59375 4.199219 C 11.234375 4.199219 10.929688 4.320312 10.675781 4.566406 C 10.421875 4.8125 10.292969 5.117188 10.292969 5.476562 C 10.292969 5.835938 10.421875 6.136719 10.675781 6.382812 C 10.929688 6.628906 11.234375 6.75 11.59375 6.75 C 11.953125 6.75 12.261719 6.628906 12.523438 6.382812 C 12.78125 6.136719 12.910156 5.835938 12.910156 5.476562 C 12.910156 5.117188 12.78125 4.8125 12.523438 4.566406 C 12.261719 4.320312 11.953125 4.199219 11.59375 4.199219 Z M 11.59375 4.199219 "/>
</svg>
