<?xml version="1.0" encoding="UTF-8"?>
<svg xmlns="http://www.w3.org/2000/svg" xmlns:xlink="http://www.w3.org/1999/xlink" width="20" height="20" viewBox="0 0 20 20">
<defs>
<filter id="filter-remove-color" x="0%" y="0%" width="100%" height="100%">
<feColorMatrix color-interpolation-filters="sRGB" values="0 0 0 0 1 0 0 0 0 1 0 0 0 0 1 0 0 0 1 0" />
</filter>
<mask id="mask-0">
<g filter="url(#filter-remove-color)">
<rect x="-2" y="-2" width="24" height="24" fill="rgb(0%, 0%, 0%)" fill-opacity="0.9"/>
</g>
</mask>
<clipPath id="clip-0">
<rect x="0" y="0" width="20" height="20"/>
</clipPath>
<g id="source-6" clip-path="url(#clip-0)">
<path fill-rule="nonzero" fill="rgb(0%, 57.254902%, 85.490196%)" fill-opacity="0.3" d="M 10 1.21875 L 1.429688 7.144531 L 4.285156 7.144531 L 4.285156 18.570312 L 8.570312 18.570312 L 8.570312 11.429688 L 11.429688 11.429688 L 11.429688 18.570312 L 15.714844 18.570312 L 15.714844 7.144531 L 18.570312 7.144531 Z M 10 1.21875 "/>
</g>
</defs>
<g mask="url(#mask-0)">
<use xlink:href="#source-6"/>
</g>
<path fill-rule="nonzero" fill="rgb(0%, 57.254902%, 85.490196%)" fill-opacity="1" d="M 0.714844 8.570312 C 0.320312 8.570312 0 8.890625 0 9.285156 L 0 20 L 1.429688 20 L 1.429688 17.144531 L 18.570312 17.144531 L 18.570312 20 L 20 20 L 20 12.144531 C 20 11.746094 19.679688 11.429688 19.285156 11.429688 C 18.890625 11.429688 18.570312 11.746094 18.570312 12.144531 L 18.570312 15.714844 L 1.429688 15.714844 L 1.429688 9.285156 C 1.429688 8.890625 1.109375 8.570312 0.714844 8.570312 Z M 5 10 C 3.816406 10 2.855469 10.960938 2.855469 12.144531 C 2.855469 13.328125 3.816406 14.285156 5 14.285156 C 6.183594 14.285156 7.144531 13.328125 7.144531 12.144531 C 7.144531 10.960938 6.183594 10 5 10 Z M 8.570312 11.429688 L 8.570312 14.285156 L 17.144531 14.285156 C 17.144531 12.855469 15.664062 11.429688 14.285156 11.429688 Z M 8.570312 11.429688 "/>
</svg>
