<?xml version="1.0" encoding="UTF-8"?>
<svg xmlns="http://www.w3.org/2000/svg" xmlns:xlink="http://www.w3.org/1999/xlink" width="20" height="20" viewBox="0 0 20 20">
<path fill-rule="evenodd" fill="rgb(51.764706%, 38.039216%, 76.862745%)" fill-opacity="1" d="M 10 0.625 C 4.824219 0.625 0.625 4.824219 0.625 10 C 0.625 15.175781 4.824219 19.375 10 19.375 C 15.175781 19.375 19.375 15.175781 19.375 10 C 19.375 4.824219 15.175781 0.625 10 0.625 Z M 10 1.875 C 14.488281 1.875 18.125 5.511719 18.125 10 C 18.125 14.488281 14.488281 18.125 10 18.125 C 5.511719 18.125 1.875 14.488281 1.875 10 C 1.875 5.511719 5.511719 1.875 10 1.875 Z M 6.25 3.75 L 5.3125 4.6875 L 5.3125 15.3125 C 5.3125 15.3125 6.25 16.25 6.25 16.25 L 7.5 16.25 L 7.5 11.25 L 12.5 11.25 L 12.5 16.25 L 13.75 16.25 L 14.6875 15.3125 L 14.6875 4.6875 L 13.75 3.75 L 12.5 3.75 L 12.5 8.75 L 7.5 8.75 L 7.5 3.75 Z M 6.25 3.75 "/>
</svg>
