<?xml version="1.0" encoding="UTF-8"?>
<svg xmlns="http://www.w3.org/2000/svg" xmlns:xlink="http://www.w3.org/1999/xlink" width="20" height="20" viewBox="0 0 20 20">
<path fill-rule="evenodd" fill="rgb(67.45098%, 22.352941%, 67.45098%)" fill-opacity="1" d="M 12.160156 13.621094 C 12.160156 14.191406 11.933594 14.734375 11.53125 15.136719 C 11.128906 15.539062 10.585938 15.765625 10.015625 15.765625 C 9.449219 15.765625 8.902344 15.539062 8.5 15.136719 C 8.101562 14.734375 7.875 14.191406 7.875 13.621094 C 7.875 13.054688 8.101562 12.507812 8.5 12.105469 C 8.902344 11.703125 9.449219 11.476562 10.015625 11.476562 C 10.585938 11.476562 11.128906 11.703125 11.53125 12.105469 C 11.933594 12.507812 12.160156 13.054688 12.160156 13.621094 Z M 2.855469 0 L 2.855469 20 L 17.144531 20 L 17.144531 0 Z M 10.101562 1.382812 C 11.679688 1.382812 12.957031 2.664062 12.957031 4.242188 C 12.957031 5.820312 11.679688 7.097656 10.101562 7.097656 C 8.523438 7.097656 7.242188 5.820312 7.242188 4.242188 C 7.242188 2.664062 8.523438 1.382812 10.101562 1.382812 Z M 10.015625 8.554688 C 10.671875 8.554688 11.320312 8.683594 11.925781 8.933594 C 12.535156 9.1875 13.085938 9.554688 13.550781 10.019531 C 14.015625 10.484375 14.382812 11.035156 14.632812 11.640625 C 14.882812 12.246094 15.015625 12.898438 15.015625 13.554688 C 15.015625 14.210938 14.882812 14.863281 14.632812 15.46875 C 14.382812 16.074219 14.015625 16.625 13.550781 17.089844 C 13.085938 17.554688 12.535156 17.921875 11.925781 18.175781 C 11.320312 18.425781 10.671875 18.554688 10.015625 18.554688 C 8.6875 18.554688 7.417969 18.027344 6.476562 17.089844 C 5.539062 16.152344 5.015625 14.878906 5.015625 13.554688 C 5.015625 12.230469 5.539062 10.957031 6.476562 10.019531 C 7.417969 9.082031 8.6875 8.554688 10.015625 8.554688 Z M 10.015625 8.554688 "/>
</svg>
