<?xml version="1.0" encoding="UTF-8"?>
<svg xmlns="http://www.w3.org/2000/svg" xmlns:xlink="http://www.w3.org/1999/xlink" width="20" height="20" viewBox="0 0 20 20">
<path fill-rule="nonzero" fill="rgb(0%, 0%, 0%)" fill-opacity="1" d="M 8.570312 2.855469 C 8.570312 2.855469 10.855469 6.886719 14.285156 3.570312 C 14.757812 4.285156 15.714844 5.714844 15.714844 5.714844 C 15.714844 5.714844 10.796875 9.078125 8.570312 2.855469 Z M 1.429688 5.714844 C 1.839844 6.582031 2.371094 7.652344 2.855469 8.570312 C 3.578125 7.144531 5.714844 7.144531 5.714844 7.144531 C 7.144531 7.144531 8.191406 7.703125 8.191406 8.609375 C 8.191406 9.519531 7.144531 10 5.714844 10 C 5.714844 10 5.714844 11.429688 5.714844 12.144531 C 7.585938 11.789062 8.574219 13.269531 8.117188 14.296875 C 7.25 16.238281 2.148438 16.464844 0 12.855469 C 0 18.554688 4.917969 18.570312 5.714844 18.570312 C 8.570312 18.570312 10 15.714844 10 12.855469 C 10.742188 13.632812 11.933594 13.636719 12.855469 12.855469 C 14.148438 11.765625 14.65625 9.984375 16.429688 10 C 18.589844 10.019531 18.570312 14.285156 17.144531 15.714844 C 15.714844 17.144531 12.292969 16.636719 11.429688 14.285156 C 11.429688 15.714844 11.429688 18.574219 15.714844 18.570312 C 20 18.570312 20.867188 13.738281 19.285156 10 C 18.308594 7.691406 16.476562 7.070312 14.5 7.683594 C 12.972656 8.15625 13.042969 8.832031 12.144531 10 C 11.671875 10.566406 11.429688 11.429688 10 11.429688 C 9.503906 11.429688 8.898438 11.035156 8.570312 10.714844 C 10.339844 9.449219 10.078125 7.019531 8.570312 5.714844 C 6.589844 4 3.085938 4.351562 1.429688 5.714844 Z M 10 2.855469 L 11.429688 1.429688 L 12.855469 2.855469 L 11.429688 4.285156 Z M 10 2.855469 "/>
</svg>
