<?xml version="1.0" encoding="UTF-8"?>
<svg xmlns="http://www.w3.org/2000/svg" xmlns:xlink="http://www.w3.org/1999/xlink" width="20" height="20" viewBox="0 0 20 20">
<path fill-rule="nonzero" fill="rgb(67.45098%, 22.352941%, 67.45098%)" fill-opacity="1" d="M 14.285156 4.285156 L 6.894531 4.285156 C 6.460938 5.316406 5.128906 6.070312 3.53125 6.070312 C 1.578125 6.070312 0 4.953125 0 3.570312 C 0 2.191406 1.578125 1.070312 3.53125 1.070312 C 5.128906 1.070312 6.460938 1.828125 6.894531 2.855469 L 14.285156 2.855469 Z M 1.429688 12.003906 L 1.429688 17.144531 C 1.429688 18.71875 2.707031 20 4.285156 20 L 10 20 C 11.578125 20 12.855469 18.71875 12.855469 17.144531 L 12.855469 12.003906 Z M 14.285156 11.429688 L 14.285156 10 L 10 10 C 10 9.210938 9.363281 8.570312 8.570312 8.570312 L 5.714844 8.570312 C 4.925781 8.570312 4.285156 9.210938 4.285156 10 L 0 10 L 0 11.429688 Z M 17.144531 20 L 17.144531 15.714844 L 19.285156 15.714844 C 19.285156 9.96875 18.570312 4.285156 15.714844 1.429688 L 15.714844 20 Z M 17.144531 20 "/>
</svg>
