<?xml version="1.0" encoding="UTF-8"?>
<svg xmlns="http://www.w3.org/2000/svg" xmlns:xlink="http://www.w3.org/1999/xlink" width="20" height="20" viewBox="0 0 20 20">
<path fill-rule="nonzero" fill="rgb(78.039216%, 45.490196%, 0%)" fill-opacity="1" d="M 7.144531 0 C 4.777344 0 2.855469 1.917969 2.855469 4.285156 C 2.855469 4.792969 2.960938 5.261719 3.125 5.714844 L 11.160156 5.714844 C 11.324219 5.261719 11.429688 4.792969 11.429688 4.285156 C 11.429688 1.917969 9.511719 0 7.144531 0 Z M 12.855469 0 C 12.28125 0 11.753906 0.152344 11.25 0.355469 C 12.234375 1.382812 12.855469 2.753906 12.855469 4.285156 C 12.855469 4.78125 12.757812 5.253906 12.632812 5.714844 L 16.875 5.714844 C 17.039062 5.261719 17.144531 4.792969 17.144531 4.285156 C 17.144531 1.917969 15.222656 0 12.855469 0 Z M 4.644531 7.144531 L 10 20 L 15.355469 7.144531 Z M 4.644531 7.144531 "/>
</svg>
