<?xml version="1.0" encoding="UTF-8"?>
<svg xmlns="http://www.w3.org/2000/svg" xmlns:xlink="http://www.w3.org/1999/xlink" width="20" height="20" viewBox="0 0 20 20">
<path fill-rule="evenodd" fill="rgb(67.45098%, 22.352941%, 67.45098%)" fill-opacity="1" d="M 1.867188 0 L 0 6.875 L 4.085938 6.875 L 4.085938 18.398438 L 2.164062 18.398438 L 2.164062 20 L 7.613281 20 L 7.613281 18.398438 L 5.691406 18.398438 L 5.691406 6.875 L 9.78125 6.875 L 7.894531 0 Z M 16.066406 0.777344 C 15.699219 0.777344 15.339844 0.894531 15.046875 1.117188 C 14.753906 1.339844 14.539062 1.648438 14.4375 2.003906 C 14.304688 1.96875 14.167969 1.953125 14.03125 1.953125 C 13.808594 1.953125 13.585938 1.996094 13.382812 2.082031 C 13.175781 2.167969 12.988281 2.292969 12.832031 2.449219 C 12.671875 2.609375 12.546875 2.796875 12.460938 3.003906 C 12.375 3.207031 12.332031 3.429688 12.332031 3.652344 C 12.332031 3.917969 12.394531 4.179688 12.515625 4.414062 C 12.636719 4.652344 12.808594 4.855469 13.023438 5.015625 C 12.808594 5.171875 12.632812 5.378906 12.515625 5.613281 C 12.394531 5.851562 12.332031 6.113281 12.332031 6.378906 C 12.332031 6.601562 12.375 6.824219 12.460938 7.027344 C 12.546875 7.234375 12.671875 7.421875 12.832031 7.578125 C 12.988281 7.738281 13.175781 7.863281 13.382812 7.949219 C 13.585938 8.035156 13.808594 8.078125 14.03125 8.078125 C 14.175781 8.078125 14.320312 8.058594 14.457031 8.023438 C 14.539062 8.261719 14.671875 8.484375 14.851562 8.667969 C 15.027344 8.851562 15.242188 8.992188 15.484375 9.078125 L 15.484375 12.367188 L 12.203125 12.367188 L 13.707031 20 L 18.511719 20 L 20 12.367188 L 16.644531 12.367188 L 16.644531 9.082031 C 16.914062 8.984375 17.152344 8.820312 17.34375 8.605469 C 17.53125 8.390625 17.664062 8.128906 17.726562 7.847656 C 17.910156 7.917969 18.105469 7.953125 18.300781 7.953125 C 18.523438 7.953125 18.746094 7.910156 18.949219 7.824219 C 19.15625 7.738281 19.34375 7.613281 19.503906 7.457031 C 19.660156 7.300781 19.785156 7.113281 19.871094 6.90625 C 19.957031 6.699219 20 6.480469 20 6.253906 C 20 6.023438 19.953125 5.796875 19.859375 5.582031 C 19.765625 5.371094 19.632812 5.179688 19.464844 5.023438 C 19.632812 4.863281 19.769531 4.671875 19.859375 4.460938 C 19.953125 4.246094 20 4.019531 20 3.785156 C 20 3.5625 19.957031 3.34375 19.871094 3.136719 C 19.785156 2.929688 19.660156 2.742188 19.503906 2.585938 C 19.34375 2.425781 19.15625 2.300781 18.949219 2.214844 C 18.746094 2.132812 18.523438 2.085938 18.300781 2.085938 C 18.109375 2.089844 17.917969 2.121094 17.738281 2.1875 C 17.671875 1.792969 17.46875 1.433594 17.160156 1.175781 C 16.855469 0.917969 16.464844 0.777344 16.066406 0.777344 Z M 16.167969 3.714844 C 16.332031 3.714844 16.496094 3.75 16.648438 3.8125 C 16.804688 3.875 16.941406 3.96875 17.058594 4.085938 C 17.175781 4.203125 17.269531 4.34375 17.335938 4.496094 C 17.398438 4.648438 17.429688 4.816406 17.429688 4.980469 C 17.429688 5.144531 17.398438 5.3125 17.335938 5.464844 C 17.269531 5.617188 17.175781 5.757812 17.058594 5.875 C 16.941406 5.992188 16.804688 6.085938 16.648438 6.148438 C 16.496094 6.210938 16.332031 6.246094 16.167969 6.246094 C 16 6.246094 15.835938 6.210938 15.683594 6.148438 C 15.527344 6.085938 15.390625 5.992188 15.273438 5.875 C 15.15625 5.757812 15.0625 5.617188 15 5.464844 C 14.933594 5.3125 14.902344 5.144531 14.902344 4.980469 C 14.902344 4.816406 14.933594 4.648438 15 4.496094 C 15.0625 4.34375 15.15625 4.203125 15.273438 4.085938 C 15.390625 3.96875 15.527344 3.875 15.683594 3.8125 C 15.835938 3.75 16 3.714844 16.167969 3.714844 Z M 16.167969 3.714844 "/>
</svg>
