<?xml version="1.0" encoding="UTF-8"?>
<svg xmlns="http://www.w3.org/2000/svg" xmlns:xlink="http://www.w3.org/1999/xlink" width="20" height="20" viewBox="0 0 20 20">
<path fill-rule="nonzero" fill="rgb(45.098039%, 29.019608%, 3.137255%)" fill-opacity="1" d="M 11.085938 13.824219 C 10.628906 14.34375 10.117188 14.765625 9.546875 15.082031 C 8.984375 15.394531 8.417969 15.550781 7.847656 15.550781 C 7.21875 15.550781 6.609375 15.371094 6.019531 15.011719 C 5.425781 14.648438 4.945312 14.09375 4.574219 13.347656 C 4.207031 12.597656 4.023438 11.777344 4.023438 10.882812 C 4.023438 9.78125 4.308594 8.679688 4.878906 7.578125 C 5.457031 6.46875 6.171875 5.636719 7.023438 5.082031 C 7.875 4.527344 8.699219 4.25 9.503906 4.25 C 10.117188 4.25 10.699219 4.410156 11.257812 4.730469 C 11.8125 5.042969 12.292969 5.519531 12.691406 6.164062 L 13.050781 4.554688 L 14.941406 4.554688 L 13.421875 11.527344 C 13.210938 12.5 13.105469 13.035156 13.105469 13.140625 C 13.105469 13.328125 13.175781 13.488281 13.316406 13.628906 C 13.464844 13.757812 13.640625 13.824219 13.84375 13.824219 C 14.21875 13.824219 14.707031 13.613281 15.3125 13.191406 C 16.113281 12.636719 16.746094 11.894531 17.210938 10.964844 C 17.683594 10.03125 17.917969 9.066406 17.917969 8.078125 C 17.917969 6.917969 17.617188 5.839844 17.011719 4.832031 C 16.414062 3.828125 15.515625 3.023438 14.320312 2.421875 C 13.128906 1.820312 11.8125 1.519531 10.371094 1.519531 C 8.722656 1.519531 7.214844 1.898438 5.851562 2.660156 C 4.492188 3.417969 3.433594 4.503906 2.683594 5.925781 C 1.9375 7.339844 1.5625 8.855469 1.5625 10.476562 C 1.5625 12.175781 1.9375 13.636719 2.683594 14.863281 C 3.433594 16.089844 4.519531 16.996094 5.933594 17.578125 C 7.355469 18.167969 8.929688 18.460938 10.65625 18.460938 C 12.5 18.460938 14.042969 18.15625 15.289062 17.546875 C 16.535156 16.9375 17.46875 16.195312 18.089844 15.324219 L 20 15.324219 C 19.640625 16.050781 19.023438 16.792969 18.152344 17.546875 C 17.277344 18.300781 16.242188 18.898438 15.035156 19.335938 C 13.832031 19.777344 12.382812 20 10.6875 20 C 9.125 20 7.679688 19.800781 6.355469 19.40625 C 5.039062 19.011719 3.917969 18.417969 2.988281 17.621094 C 2.058594 16.828125 1.359375 15.917969 0.886719 14.886719 C 0.296875 13.574219 0 12.164062 0 10.644531 C 0 8.953125 0.351562 7.34375 1.054688 5.8125 C 1.914062 3.933594 3.132812 2.496094 4.710938 1.496094 C 6.292969 0.5 8.210938 0 10.464844 0 C 12.210938 0 13.777344 0.351562 15.164062 1.058594 C 16.558594 1.761719 17.65625 2.808594 18.457031 4.199219 C 19.140625 5.398438 19.484375 6.703125 19.484375 8.109375 C 19.484375 10.117188 18.765625 11.902344 17.328125 13.460938 C 16.046875 14.863281 14.644531 15.5625 13.125 15.5625 C 12.640625 15.5625 12.246094 15.488281 11.941406 15.34375 C 11.648438 15.199219 11.429688 14.988281 11.289062 14.71875 C 11.195312 14.546875 11.128906 14.25 11.085938 13.824219 Z M 5.976562 11.007812 C 5.976562 11.957031 6.207031 12.695312 6.664062 13.222656 C 7.121094 13.75 7.644531 14.011719 8.238281 14.011719 C 8.628906 14.011719 9.046875 13.898438 9.484375 13.667969 C 9.917969 13.433594 10.335938 13.085938 10.730469 12.628906 C 11.128906 12.171875 11.457031 11.59375 11.710938 10.894531 C 11.964844 10.1875 12.089844 9.480469 12.089844 8.773438 C 12.089844 7.832031 11.851562 7.101562 11.371094 6.578125 C 10.902344 6.058594 10.324219 5.800781 9.640625 5.800781 C 9.191406 5.800781 8.765625 5.914062 8.363281 6.144531 C 7.96875 6.363281 7.585938 6.726562 7.210938 7.222656 C 6.839844 7.722656 6.539062 8.328125 6.316406 9.042969 C 6.089844 9.757812 5.976562 10.414062 5.976562 11.007812 Z M 5.976562 11.007812 "/>
</svg>
