<?xml version="1.0" encoding="UTF-8"?>
<svg xmlns="http://www.w3.org/2000/svg" xmlns:xlink="http://www.w3.org/1999/xlink" width="20" height="20" viewBox="0 0 20 20">
<path fill-rule="nonzero" fill="rgb(67.45098%, 22.352941%, 67.45098%)" fill-opacity="1" d="M 7.855469 -0.0429688 L 5.714844 2.8125 L 14.285156 2.8125 L 12.144531 -0.0429688 Z M 5.714844 4.242188 L 10 8.167969 L 14.285156 4.242188 Z M 5.535156 7.277344 C 3.941406 8.601562 2.855469 10.605469 2.855469 12.8125 C 2.855469 16.738281 6.199219 20 9.957031 20 C 13.710938 20 17.054688 16.738281 17.054688 12.8125 C 17.054688 10.621094 15.992188 8.648438 14.421875 7.320312 L 12.8125 8.792969 C 14.128906 9.753906 15.046875 11.316406 15.046875 12.8125 C 15.046875 15.257812 12.570312 17.769531 9.957031 17.769531 C 7.339844 17.769531 4.910156 15.257812 4.910156 12.8125 C 4.910156 11.304688 5.859375 9.753906 7.1875 8.792969 Z M 5.535156 7.277344 "/>
</svg>
