<?xml version="1.0" encoding="UTF-8"?>
<svg xmlns="http://www.w3.org/2000/svg" xmlns:xlink="http://www.w3.org/1999/xlink" width="20" height="20" viewBox="0 0 20 20">
<path fill-rule="evenodd" fill="rgb(24.705882%, 24.705882%, 24.705882%)" fill-opacity="1" d="M 7.144531 1.429688 L 6.285156 2.855469 L 1.429688 2.855469 L 1.429688 4.285156 L 5.425781 4.285156 L 4.570312 5.714844 L 1.429688 5.714844 L 1.429688 7.144531 L 3.714844 7.144531 L 2.855469 8.570312 L 4.285156 8.570312 L 5.140625 7.144531 L 10 7.144531 L 10 5.714844 L 6 5.714844 L 6.855469 4.285156 L 10 4.285156 L 10 2.855469 L 7.714844 2.855469 L 8.570312 1.429688 Z M 10 4.285156 L 10 5.714844 L 11.429688 5.714844 C 12.945312 5.714844 14.398438 6.316406 15.46875 7.386719 C 16.539062 8.460938 17.144531 9.914062 17.144531 11.429688 C 17.144531 12.945312 16.539062 14.398438 15.46875 15.46875 C 14.398438 16.539062 12.945312 17.144531 11.429688 17.144531 C 10.425781 17.140625 9.441406 16.878906 8.574219 16.375 C 7.707031 15.875 6.988281 15.152344 6.488281 14.285156 L 4.886719 14.285156 C 5.441406 15.558594 6.355469 16.640625 7.519531 17.402344 C 8.679688 18.164062 10.039062 18.570312 11.429688 18.570312 C 13.324219 18.570312 15.140625 17.820312 16.480469 16.480469 C 17.820312 15.140625 18.570312 13.324219 18.570312 11.429688 C 18.570312 9.535156 17.820312 7.71875 16.480469 6.378906 C 15.140625 5.039062 13.324219 4.285156 11.429688 4.285156 Z M 10 4.285156 "/>
</svg>
