<?xml version="1.0" encoding="UTF-8"?>
<svg xmlns="http://www.w3.org/2000/svg" xmlns:xlink="http://www.w3.org/1999/xlink" width="20" height="20" viewBox="0 0 20 20">
<path fill-rule="evenodd" fill="rgb(67.45098%, 22.352941%, 67.45098%)" fill-opacity="1" d="M 13.570312 12.144531 C 13.570312 14.117188 11.972656 15.714844 10 15.714844 C 8.027344 15.714844 6.429688 14.117188 6.429688 12.144531 Z M 1.429688 0 L 1.429688 20 L 18.570312 20 L 18.570312 0 Z M 4.285156 1.429688 L 11.429688 1.429688 L 11.429688 4.285156 L 4.285156 4.285156 Z M 14.285156 1.429688 L 17.144531 1.429688 L 17.144531 4.285156 L 14.285156 4.285156 Z M 10 7.144531 C 12.292969 7.144531 14.308594 8.714844 14.867188 10.9375 L 15 12.144531 C 15 14.902344 12.761719 17.144531 10 17.144531 C 7.238281 17.144531 5 14.902344 5 12.144531 C 5 9.382812 7.238281 7.144531 10 7.144531 Z M 10 7.144531 "/>
</svg>
