<?xml version="1.0" encoding="UTF-8"?>
<svg xmlns="http://www.w3.org/2000/svg" xmlns:xlink="http://www.w3.org/1999/xlink" width="20" height="20" viewBox="0 0 20 20">
<path fill-rule="nonzero" fill="rgb(67.45098%, 22.352941%, 67.45098%)" fill-opacity="1" d="M 7.921875 1.429688 C 7.351562 1.429688 6.808594 1.65625 6.40625 2.054688 C 6.003906 2.457031 5.777344 3.003906 5.777344 3.570312 C 5.777344 4.140625 6.003906 4.683594 6.40625 5.085938 C 6.808594 5.488281 7.351562 5.714844 7.921875 5.714844 C 8.488281 5.714844 9.035156 5.488281 9.4375 5.085938 C 9.839844 4.683594 10.0625 4.140625 10.0625 3.570312 C 10.0625 3.003906 9.839844 2.457031 9.4375 2.054688 C 9.035156 1.65625 8.488281 1.429688 7.921875 1.429688 Z M 6.1875 6.441406 C 5.628906 6.515625 5.128906 6.898438 4.9375 7.449219 L 3.082031 12.855469 L 6.039062 12.855469 L 7.390625 8.917969 L 8.84375 10.414062 C 8.867188 10.4375 8.894531 10.445312 8.921875 10.464844 C 8.945312 10.488281 8.972656 10.5 9 10.519531 C 9.042969 10.542969 9.082031 10.570312 9.128906 10.585938 C 9.152344 10.59375 9.171875 10.613281 9.195312 10.621094 L 11.945312 11.390625 C 12.324219 11.5 12.71875 11.28125 12.828125 10.898438 C 12.933594 10.515625 12.714844 10.125 12.332031 10.019531 L 9.75 9.292969 L 7.378906 6.855469 C 7.363281 6.839844 7.34375 6.832031 7.324219 6.816406 C 7.167969 6.664062 6.984375 6.539062 6.75 6.480469 C 6.5625 6.429688 6.371094 6.417969 6.1875 6.441406 Z M 16.429688 11.429688 C 15.859375 11.429688 15.316406 11.65625 14.914062 12.054688 C 14.511719 12.457031 14.285156 13.003906 14.285156 13.570312 C 14.285156 14.140625 14.511719 14.683594 14.914062 15.085938 C 15.316406 15.488281 15.859375 15.714844 16.429688 15.714844 C 16.996094 15.714844 17.542969 15.488281 17.945312 15.085938 C 18.347656 14.683594 18.570312 14.140625 18.570312 13.570312 C 18.570312 13.003906 18.347656 12.457031 17.945312 12.054688 C 17.542969 11.65625 16.996094 11.429688 16.429688 11.429688 Z M 1.429688 14.285156 C 0.636719 14.285156 0 14.921875 0 15.714844 C 0 16.503906 0.636719 17.144531 1.429688 17.144531 L 13.136719 17.144531 L 16.078125 18.5 C 16.171875 18.542969 16.273438 18.5625 16.371094 18.558594 C 16.390625 18.5625 16.40625 18.570312 16.429688 18.570312 L 19.285156 18.570312 C 19.679688 18.570312 20 18.253906 20 17.855469 C 20 17.460938 19.679688 17.144531 19.285156 17.144531 L 16.515625 17.144531 L 10.492188 14.359375 C 10.375 14.304688 10.25 14.300781 10.132812 14.3125 C 10.085938 14.308594 10.046875 14.285156 10 14.285156 Z M 1.429688 14.285156 "/>
</svg>
