<?xml version="1.0" encoding="UTF-8"?>
<svg xmlns="http://www.w3.org/2000/svg" xmlns:xlink="http://www.w3.org/1999/xlink" width="20" height="20" viewBox="0 0 20 20">
<path fill-rule="nonzero" fill="rgb(40%, 40%, 40%)" fill-opacity="1" d="M 5.714844 0.582031 C 3.191406 1.695312 1.382812 4.21875 1.382812 7.144531 C 1.382812 10.070312 3.191406 12.59375 5.714844 13.707031 L 5.714844 12.054688 C 4.007812 11.066406 2.855469 9.269531 2.855469 7.144531 C 2.855469 5.015625 4.007812 3.21875 5.714844 2.230469 Z M 14.285156 0.582031 L 14.285156 2.230469 C 15.992188 3.21875 17.144531 5.015625 17.144531 7.144531 C 17.144531 9.269531 15.992188 11.066406 14.285156 12.054688 L 14.285156 13.707031 C 16.808594 12.59375 18.617188 10.070312 18.617188 7.144531 C 18.617188 4.21875 16.808594 1.695312 14.285156 0.582031 Z M 7.144531 3.125 C 5.488281 3.71875 4.285156 5.289062 4.285156 7.144531 C 4.285156 8.996094 5.488281 10.566406 7.144531 11.160156 L 7.144531 9.597656 C 6.289062 9.105469 5.714844 8.207031 5.714844 7.144531 C 5.714844 6.082031 6.289062 5.179688 7.144531 4.6875 Z M 12.855469 3.125 L 12.855469 4.6875 C 13.710938 5.179688 14.285156 6.082031 14.285156 7.144531 C 14.285156 8.207031 13.710938 9.105469 12.855469 9.597656 L 12.855469 11.160156 C 14.511719 10.566406 15.714844 8.996094 15.714844 7.144531 C 15.714844 5.289062 14.511719 3.71875 12.855469 3.125 Z M 10 5.714844 C 9.144531 5.714844 8.570312 6.382812 8.570312 7.144531 L 8.570312 12.855469 L 4.449219 20 L 6.097656 20 L 8.570312 15.714844 L 8.570312 20 L 11.429688 20 L 11.429688 15.714844 L 13.902344 20 L 15.550781 20 L 11.429688 12.855469 L 11.429688 7.144531 C 11.429688 6.433594 10.855469 5.714844 10 5.714844 Z M 10 5.714844 "/>
</svg>
