<?xml version="1.0" encoding="UTF-8"?>
<svg xmlns="http://www.w3.org/2000/svg" xmlns:xlink="http://www.w3.org/1999/xlink" width="20" height="20" viewBox="0 0 20 20">
<path fill-rule="nonzero" fill="rgb(67.45098%, 22.352941%, 67.45098%)" fill-opacity="1" d="M 19.742188 0 L 14.964844 0.347656 L 14.964844 0.355469 L 14.949219 0.351562 L 14.191406 6.636719 L 6.59375 6.636719 L 6.59375 8.660156 L 9.929688 8.660156 C 8.648438 9.328125 7.648438 10.4375 7.117188 11.777344 L 2.917969 11.777344 L 2.917969 11.851562 L 2.035156 14.785156 C 1.46875 14.941406 0.972656 15.273438 0.617188 15.734375 C 0.261719 16.199219 0.0664062 16.765625 0.0664062 17.347656 C 0.0664062 17.695312 0.136719 18.039062 0.269531 18.363281 C 0.40625 18.683594 0.601562 18.976562 0.847656 19.222656 C 1.097656 19.46875 1.390625 19.664062 1.714844 19.796875 C 2.039062 19.929688 2.386719 20 2.734375 20 C 3.085938 20 3.433594 19.929688 3.757812 19.796875 C 4.078125 19.664062 4.375 19.46875 4.621094 19.222656 C 4.867188 18.976562 5.066406 18.683594 5.199219 18.363281 C 5.332031 18.039062 5.402344 17.695312 5.402344 17.347656 C 5.402344 16.882812 5.277344 16.429688 5.046875 16.027344 C 4.8125 15.625 4.480469 15.289062 4.078125 15.058594 L 4.25 14.476562 L 6.710938 14.476562 C 6.835938 15.980469 7.523438 17.386719 8.640625 18.40625 C 9.757812 19.429688 11.21875 20 12.734375 20 C 13.53125 20 14.316406 19.84375 15.050781 19.542969 C 15.785156 19.238281 16.449219 18.796875 17.011719 18.238281 C 17.574219 17.679688 18.019531 17.015625 18.324219 16.285156 C 18.628906 15.554688 18.785156 14.773438 18.78125 13.984375 C 18.78125 13.101562 18.585938 12.226562 18.207031 11.429688 C 17.828125 10.628906 17.277344 9.921875 16.59375 9.359375 L 17.460938 2.195312 L 19.933594 2.015625 Z M 12.773438 10.339844 C 13.265625 10.339844 13.753906 10.4375 14.207031 10.625 C 14.664062 10.8125 15.078125 11.089844 15.425781 11.4375 C 15.773438 11.78125 16.046875 12.195312 16.238281 12.648438 C 16.425781 13.101562 16.523438 13.585938 16.523438 14.078125 C 16.523438 14.570312 16.425781 15.054688 16.238281 15.507812 C 16.046875 15.960938 15.773438 16.375 15.425781 16.722656 C 15.078125 17.070312 14.664062 17.34375 14.207031 17.53125 C 13.753906 17.71875 13.265625 17.816406 12.773438 17.816406 C 12.28125 17.816406 11.796875 17.71875 11.339844 17.53125 C 10.886719 17.34375 10.472656 17.070312 10.125 16.722656 C 9.777344 16.375 9.5 15.960938 9.3125 15.507812 C 9.125 15.054688 9.027344 14.570312 9.027344 14.078125 C 9.027344 13.585938 9.125 13.101562 9.3125 12.648438 C 9.5 12.195312 9.777344 11.78125 10.125 11.4375 C 10.472656 11.089844 10.886719 10.8125 11.339844 10.625 C 11.796875 10.4375 12.28125 10.339844 12.773438 10.339844 Z M 12.773438 10.339844 "/>
</svg>
