<?xml version="1.0" encoding="UTF-8"?>
<svg xmlns="http://www.w3.org/2000/svg" xmlns:xlink="http://www.w3.org/1999/xlink" width="20" height="20" viewBox="0 0 20 20">
<path fill-rule="nonzero" fill="rgb(45.098039%, 29.019608%, 3.137255%)" fill-opacity="1" d="M 8.570312 2.855469 C 7.144531 2.855469 5.714844 4.285156 5.714844 5.714844 L 5.714844 17.144531 L 17.144531 17.144531 L 17.144531 5.714844 C 17.144531 4.285156 15.714844 2.855469 14.285156 2.855469 Z M 10 5.714844 L 12.855469 5.714844 L 12.855469 7.144531 L 10 7.144531 Z M 7.144531 8.570312 L 15.714844 8.570312 L 15.714844 10 L 7.144531 10 Z M 8.570312 11.429688 L 14.285156 11.429688 L 14.285156 12.855469 L 8.570312 12.855469 Z M 4.285156 18.570312 L 2.855469 20 L 2.855469 21.429688 L 20 21.429688 L 20 20 L 18.570312 18.570312 Z M 4.285156 18.570312 "/>
</svg>
