<?xml version="1.0" encoding="UTF-8"?>
<svg xmlns="http://www.w3.org/2000/svg" xmlns:xlink="http://www.w3.org/1999/xlink" width="20" height="20" viewBox="0 0 20 20">
<path fill-rule="nonzero" fill="rgb(18.431373%, 38.039216%, 20%)" fill-opacity="0.33333" d="M 3.09375 17.664062 L 4.324219 9.585938 L 5.289062 9.011719 L 6.230469 9.601562 C 6.230469 9.601562 7.300781 17.761719 7.199219 17.710938 C 7.097656 17.664062 3.117188 17.738281 3.09375 17.664062 Z M 3.09375 17.664062 "/>
<path fill-rule="nonzero" fill="rgb(18.431373%, 38.039216%, 20%)" fill-opacity="1" d="M 2.445312 6.128906 C 2.394531 6.132812 2.34375 6.15625 2.304688 6.191406 L 1.183594 7.238281 C 1.085938 7.332031 1.089844 7.492188 1.191406 7.578125 L 4.492188 10.398438 L 1.191406 13.21875 C 1.089844 13.308594 1.085938 13.46875 1.183594 13.558594 L 2.304688 14.605469 C 2.40625 14.699219 2.5625 14.683594 2.644531 14.574219 L 5.28125 10.976562 L 7.921875 14.574219 C 8 14.683594 8.160156 14.699219 8.257812 14.605469 L 9.378906 13.558594 C 9.476562 13.46875 9.472656 13.308594 9.371094 13.21875 L 6.070312 10.398438 L 9.371094 7.578125 C 9.472656 7.492188 9.476562 7.332031 9.378906 7.238281 L 8.257812 6.191406 C 8.214844 6.148438 8.15625 6.128906 8.09375 6.128906 C 8.027344 6.132812 7.960938 6.167969 7.921875 6.226562 L 5.28125 9.824219 L 2.644531 6.226562 C 2.597656 6.160156 2.523438 6.125 2.445312 6.128906 Z M 5.28125 10.261719 L 5.425781 10.398438 L 5.28125 10.535156 L 5.136719 10.402344 Z M 5.28125 10.261719 "/>
<path fill-rule="nonzero" fill="rgb(18.431373%, 38.039216%, 20%)" fill-opacity="1" d="M 13.578125 5.476562 C 13.578125 5.117188 13.449219 4.816406 13.1875 4.570312 C 12.929688 4.324219 12.621094 4.199219 12.261719 4.199219 C 11.902344 4.199219 11.597656 4.324219 11.34375 4.570312 C 11.09375 4.816406 10.964844 5.117188 10.964844 5.476562 C 10.964844 5.835938 11.09375 6.136719 11.34375 6.382812 C 11.597656 6.628906 11.902344 6.75 12.261719 6.75 C 12.621094 6.75 12.929688 6.628906 13.1875 6.382812 C 13.449219 6.136719 13.578125 5.835938 13.578125 5.476562 Z M 10.148438 18.75 C 10.429688 18.75 10.65625 18.617188 10.828125 18.351562 L 14.574219 12.710938 L 14.773438 13.488281 L 14.214844 17.714844 C 14.1875 17.925781 14.234375 18.117188 14.355469 18.28125 C 14.476562 18.449219 14.640625 18.550781 14.855469 18.589844 C 15.066406 18.632812 15.261719 18.589844 15.441406 18.460938 C 15.621094 18.335938 15.722656 18.167969 15.75 17.953125 L 16.328125 13.628906 C 16.34375 13.480469 16.328125 13.328125 16.289062 13.167969 L 15.011719 8.085938 L 18.34375 7.488281 C 18.515625 7.460938 18.65625 7.375 18.761719 7.21875 C 18.867188 7.066406 18.90625 6.90625 18.878906 6.730469 C 18.839844 6.558594 18.742188 6.414062 18.582031 6.292969 L 10.925781 1.25 L 10.230469 2.265625 C 10.054688 2.507812 10.097656 2.710938 10.347656 2.886719 C 10.589844 3.03125 10.792969 2.992188 10.964844 2.765625 L 11.367188 2.167969 L 17.585938 6.253906 L 12.5 7.171875 C 12.316406 7.210938 12.167969 7.304688 12.054688 7.460938 C 11.941406 7.613281 11.910156 7.773438 11.964844 7.949219 L 13.058594 12.234375 L 9.472656 17.59375 C 9.40625 17.714844 9.371094 17.839844 9.371094 17.972656 C 9.371094 18.1875 9.449219 18.367188 9.601562 18.523438 C 9.753906 18.675781 9.9375 18.75 10.148438 18.75 Z M 10.148438 18.75 "/>
</svg>
