<?xml version="1.0" encoding="UTF-8"?>
<svg xmlns="http://www.w3.org/2000/svg" xmlns:xlink="http://www.w3.org/1999/xlink" width="20" height="20" viewBox="0 0 20 20">
<path fill-rule="nonzero" fill="rgb(67.45098%, 22.352941%, 67.45098%)" fill-opacity="1" d="M 8.570312 0 C 7.882812 0 7.144531 0.554688 7.144531 1.429688 L 7.144531 2.855469 C 5.546875 2.972656 4.285156 4.152344 4.285156 5.714844 L 4.285156 17.144531 C 4.285156 18.785156 5.433594 20 7.144531 20 L 12.855469 20 C 14.566406 20 15.714844 18.785156 15.714844 17.144531 L 15.714844 5.714844 C 15.714844 4.074219 14.566406 2.855469 12.855469 2.855469 L 10 2.855469 L 10 1.429688 C 10 0.519531 9.261719 0 8.570312 0 Z M 5.714844 5.714844 L 14.285156 5.714844 L 14.285156 15.714844 L 5.714844 15.714844 Z M 8.570312 17.144531 L 11.429688 17.144531 L 11.429688 18.570312 L 8.570312 18.570312 Z M 8.570312 17.144531 "/>
</svg>
