<?xml version="1.0" encoding="UTF-8"?>
<svg xmlns="http://www.w3.org/2000/svg" xmlns:xlink="http://www.w3.org/1999/xlink" width="20" height="20" viewBox="0 0 20 20">
<path fill-rule="evenodd" fill="rgb(0%, 57.254902%, 85.490196%)" fill-opacity="1" d="M 16.652344 8.324219 C 17.078125 8.621094 17.328125 8.953125 17.449219 9.371094 C 17.488281 9.511719 17.492188 9.539062 17.492188 9.820312 C 17.492188 10.082031 17.488281 10.148438 17.460938 10.296875 C 17.398438 10.578125 17.285156 10.898438 17.15625 11.171875 L 17.097656 11.300781 L 16.898438 11.3125 C 16.171875 11.355469 15.589844 11.5 15.082031 11.773438 C 13.996094 12.355469 13.316406 13.453125 12.976562 15.152344 L 12.949219 15.285156 L 12.804688 15.433594 C 12.726562 15.511719 12.621094 15.609375 12.570312 15.644531 C 12.101562 15.980469 11.429688 16.179688 10.472656 16.273438 C 10.046875 16.316406 9.757812 16.324219 8.375 16.339844 C 7.5625 16.347656 6.894531 16.359375 6.890625 16.363281 C 6.886719 16.371094 6.855469 16.375 6.820312 16.375 C 6.75 16.375 6.753906 16.40625 6.796875 16.03125 C 6.859375 15.449219 6.851562 14.78125 6.777344 14.292969 C 6.5625 12.898438 5.796875 11.980469 4.496094 11.5625 C 3.925781 11.378906 3.421875 11.3125 2.566406 11.296875 L 2.019531 11.285156 L 1.984375 11.242188 C 1.800781 11.019531 1.707031 10.675781 1.757812 10.414062 C 1.785156 10.289062 1.867188 10.113281 1.941406 10.035156 L 3.480469 8.269531 C 6.816406 8.257812 7.707031 8.273438 10.894531 8.308594 C 11.070312 8.355469 11.878906 10.175781 11.960938 10.328125 C 12.007812 10.410156 12.070312 10.589844 12.085938 10.679688 C 12.089844 10.714844 12.097656 10.746094 12.101562 10.746094 C 12.121094 10.746094 12.417969 10.609375 12.570312 10.53125 C 12.976562 10.320312 13.488281 9.496094 13.746094 9.15625 C 13.988281 5.898438 9.96875 -2.753906 16.652344 8.324219 Z M 16.496094 11.683594 C 17.46875 11.609375 18.421875 12 19.101562 12.753906 C 20.046875 13.800781 20.269531 15.367188 19.65625 16.660156 C 19.148438 17.730469 18.140625 18.457031 17.015625 18.5625 C 16.589844 18.601562 16.082031 18.539062 15.683594 18.398438 C 14.699219 18.046875 13.929688 17.234375 13.609375 16.203125 C 13.3125 15.25 13.425781 14.1875 13.914062 13.347656 C 14.476562 12.375 15.417969 11.769531 16.496094 11.683594 Z M 3.277344 11.691406 C 3.671875 11.691406 3.785156 11.707031 4.074219 11.78125 C 5.367188 12.128906 6.335938 13.261719 6.519531 14.65625 C 6.554688 14.914062 6.554688 15.367188 6.519531 15.609375 C 6.355469 16.769531 5.679688 17.734375 4.679688 18.238281 C 4.363281 18.398438 3.964844 18.519531 3.605469 18.5625 C 3.398438 18.585938 2.953125 18.570312 2.738281 18.53125 C 1.34375 18.277344 0.285156 17.167969 0.0390625 15.691406 C -0.0078125 15.410156 -0.0117188 14.898438 0.0273438 14.621094 C 0.140625 13.871094 0.457031 13.21875 0.960938 12.6875 C 1.453125 12.175781 2.03125 11.859375 2.738281 11.71875 C 2.863281 11.695312 2.96875 11.691406 3.277344 11.691406 Z M 16.621094 12.871094 C 15.976562 12.90625 15.394531 13.230469 15.003906 13.773438 C 14.882812 13.945312 14.71875 14.289062 14.664062 14.488281 C 14.441406 15.308594 14.65625 16.152344 15.230469 16.742188 C 15.378906 16.890625 15.59375 17.058594 15.75 17.140625 C 15.871094 17.207031 16.121094 17.296875 16.269531 17.332031 C 16.457031 17.375 16.875 17.390625 17.058594 17.355469 C 17.933594 17.203125 18.617188 16.523438 18.816406 15.609375 C 18.863281 15.398438 18.875 14.988281 18.839844 14.773438 C 18.652344 13.617188 17.714844 12.816406 16.621094 12.871094 Z M 3.285156 12.878906 C 2.898438 12.878906 2.617188 12.949219 2.292969 13.125 C 2.070312 13.25 1.90625 13.375 1.730469 13.566406 C 1.441406 13.882812 1.265625 14.230469 1.171875 14.667969 C 1.132812 14.851562 1.125 15.28125 1.15625 15.488281 C 1.238281 16.015625 1.523438 16.539062 1.914062 16.871094 C 2.214844 17.128906 2.5625 17.292969 2.921875 17.351562 C 3.101562 17.382812 3.472656 17.382812 3.632812 17.351562 C 4.90625 17.109375 5.683594 15.796875 5.328125 14.488281 C 5.148438 13.816406 4.628906 13.238281 3.988281 13.003906 C 3.746094 12.914062 3.5625 12.882812 3.285156 12.878906 Z M 3.285156 12.878906 "/>
</svg>
