<?xml version="1.0" encoding="UTF-8"?>
<svg xmlns="http://www.w3.org/2000/svg" xmlns:xlink="http://www.w3.org/1999/xlink" width="20" height="20" viewBox="0 0 20 20">
<path fill-rule="nonzero" fill="rgb(0%, 0%, 0%)" fill-opacity="1" d="M 9.285156 0 C 8.101562 0 7.140625 0.960938 7.140625 2.144531 C 7.140625 3.328125 8.101562 4.285156 9.285156 4.285156 C 10.46875 4.285156 11.429688 3.328125 11.429688 2.144531 C 11.429688 0.960938 10.46875 0 9.285156 0 Z M 1.667969 6.53125 L 3.570312 10 L 7.855469 8.570312 L 9.285156 14.285156 L 6.429688 17.144531 C 6.039062 17.578125 5.761719 17.796875 5.714844 18.570312 C 5.714844 20 7.140625 20 7.140625 20 L 15.714844 20 C 15.714844 20 17.140625 20 17.140625 18.570312 C 17.140625 17.144531 15.714844 17.144531 15.714844 17.144531 L 11.429688 17.144531 L 12.855469 15.714844 C 14.285156 14.285156 14.183594 13.609375 14.015625 12.855469 L 12.855469 7.144531 C 12.515625 5.867188 11.625 5.242188 10 5.5 L 8.570312 5.714844 L 4.285156 7.855469 L 2.855469 5.714844 C 2.226562 4.875 1.167969 5.597656 1.667969 6.53125 Z M 1.667969 6.53125 "/>
</svg>
