<?xml version="1.0" encoding="UTF-8"?>
<svg xmlns="http://www.w3.org/2000/svg" xmlns:xlink="http://www.w3.org/1999/xlink" width="20" height="20" viewBox="0 0 20 20">
<path fill-rule="nonzero" fill="rgb(45.098039%, 29.019608%, 3.137255%)" fill-opacity="1" d="M 10 1.429688 L 1.429688 4.285156 L 1.429688 5.714844 L 18.570312 5.714844 L 18.570312 4.285156 Z M 1.429688 7.144531 L 1.429688 8.570312 L 2.855469 8.570312 L 2.855469 15.714844 L 1.429688 15.714844 L 0 18.570312 L 20 18.570312 L 18.570312 15.714844 L 17.144531 15.714844 L 17.144531 8.570312 L 18.570312 8.570312 L 18.570312 7.144531 Z M 7.144531 8.570312 C 7.851562 8.570312 8.570312 9.332031 8.570312 10 L 8.570312 15.714844 L 5.714844 15.714844 L 5.714844 10 C 5.714844 9.246094 6.433594 8.570312 7.144531 8.570312 Z M 12.855469 8.570312 C 13.578125 8.570312 14.285156 9.246094 14.285156 10 L 14.285156 15.714844 L 11.429688 15.714844 L 11.429688 10 C 11.429688 9.246094 12.136719 8.570312 12.855469 8.570312 Z M 12.855469 8.570312 "/>
</svg>
