<?xml version="1.0" encoding="UTF-8"?>
<svg xmlns="http://www.w3.org/2000/svg" xmlns:xlink="http://www.w3.org/1999/xlink" width="20" height="20" viewBox="0 0 20 20">
<path fill-rule="nonzero" fill="rgb(67.45098%, 22.352941%, 67.45098%)" fill-opacity="1" d="M 8.671875 0 L 5.894531 0.4375 C 5.871094 5.132812 5.855469 9.832031 5.835938 14.527344 L 5.054688 14.472656 C 3.15625 14.339844 1.148438 15.273438 0.265625 16.699219 C -0.0585938 17.222656 -0.0898438 18.058594 0.195312 18.511719 C 0.640625 19.21875 1.695312 19.808594 2.847656 20 C 5.492188 19.925781 7.382812 19 8.667969 17.09375 C 8.667969 11.324219 8.671875 5.121094 8.671875 0 Z M 10.015625 0.0273438 C 10.003906 0.0273438 9.992188 0.03125 9.984375 0.03125 L 9.984375 1.433594 C 12.25 1.4375 14.421875 2.34375 16.023438 3.953125 C 17.625 5.5625 18.523438 7.742188 18.523438 10.015625 C 18.523438 11.140625 18.304688 12.257812 17.875 13.296875 C 17.441406 14.339844 16.8125 15.285156 16.019531 16.082031 C 15.222656 16.878906 14.28125 17.511719 13.242188 17.941406 C 12.203125 18.371094 11.089844 18.59375 9.96875 18.59375 C 9.734375 18.589844 9.5 18.578125 9.265625 18.558594 L 8.027344 19.78125 C 8.679688 19.914062 9.347656 19.984375 10.015625 19.984375 C 12.664062 19.984375 15.203125 18.933594 17.074219 17.0625 C 18.949219 15.191406 20 12.65625 20 10.007812 C 20 8.699219 19.742188 7.398438 19.242188 6.1875 C 18.738281 4.976562 18.003906 3.878906 17.078125 2.949219 C 16.148438 2.023438 15.046875 1.289062 13.835938 0.789062 C 12.625 0.285156 11.324219 0.0273438 10.015625 0.0273438 Z M 4.324219 1.8125 C 3 2.730469 1.917969 3.953125 1.167969 5.382812 C 0.421875 6.808594 0.03125 8.398438 0.03125 10.007812 C 0.0351562 11.445312 0.347656 12.867188 0.953125 14.175781 L 2.199219 13.582031 C 1.683594 12.464844 1.417969 11.246094 1.414062 10.015625 C 1.414062 8.796875 1.675781 7.59375 2.175781 6.484375 C 2.679688 5.371094 3.410156 4.382812 4.324219 3.578125 Z M 9.984375 7.144531 L 9.984375 8.570312 C 9.992188 8.570312 10 8.570312 10.007812 8.570312 C 10.203125 8.570312 10.394531 8.609375 10.574219 8.679688 C 10.753906 8.75 10.914062 8.855469 11.054688 8.988281 C 11.191406 9.121094 11.296875 9.28125 11.371094 9.453125 C 11.445312 9.625 11.484375 9.8125 11.484375 10 C 11.484375 10.1875 11.445312 10.375 11.371094 10.546875 C 11.296875 10.71875 11.191406 10.878906 11.054688 11.011719 C 10.914062 11.144531 10.753906 11.25 10.574219 11.320312 C 10.394531 11.390625 10.203125 11.429688 10.007812 11.429688 C 10 11.425781 9.992188 11.425781 9.984375 11.425781 L 9.984375 12.855469 C 10.738281 12.851562 11.460938 12.550781 11.992188 12.015625 C 12.523438 11.480469 12.824219 10.753906 12.824219 10 C 12.824219 9.246094 12.523438 8.519531 11.992188 7.984375 C 11.460938 7.449219 10.738281 7.148438 9.984375 7.144531 Z M 9.984375 7.144531 "/>
</svg>
