<?xml version="1.0" encoding="UTF-8"?>
<svg xmlns="http://www.w3.org/2000/svg" xmlns:xlink="http://www.w3.org/1999/xlink" width="20" height="20" viewBox="0 0 20 20">
<path fill-rule="nonzero" fill="rgb(0%, 0%, 0%)" fill-opacity="1" d="M 8.570312 1.429688 C 3.726562 1.429688 0 5.15625 0 10 C 0 14.84375 3.726562 18.570312 8.570312 18.570312 C 11.28125 18.570312 14.105469 17.644531 15.714844 15.714844 C 14.664062 16.398438 12.777344 17.144531 11.429688 17.144531 C 7.726562 17.144531 4.285156 13.703125 4.285156 10 C 4.285156 6.296875 7.726562 2.855469 11.429688 2.855469 C 12.777344 2.855469 14.664062 3.601562 15.714844 4.285156 C 14.105469 2.355469 11.28125 1.429688 8.570312 1.429688 Z M 15 5.714844 L 13.570312 8.570312 L 10 8.570312 L 12.855469 10.714844 L 11.429688 14.285156 L 15 12.144531 L 18.570312 14.285156 L 17.144531 10.714844 L 20 8.570312 L 16.429688 8.570312 Z M 15 5.714844 "/>
</svg>
