<?xml version="1.0" encoding="UTF-8"?>
<svg xmlns="http://www.w3.org/2000/svg" xmlns:xlink="http://www.w3.org/1999/xlink" width="20" height="20" viewBox="0 0 20 20">
<path fill-rule="evenodd" fill="rgb(45.098039%, 29.019608%, 3.137255%)" fill-opacity="1" d="M 10 0 C 7.347656 0 4.804688 1.054688 2.929688 2.929688 C 1.054688 4.804688 0 7.347656 0 10 C 0 12.652344 1.054688 15.195312 2.929688 17.070312 C 4.804688 18.945312 7.347656 20 10 20 C 12.652344 20 15.195312 18.945312 17.070312 17.070312 C 18.945312 15.195312 20 12.652344 20 10 C 20 7.347656 18.945312 4.804688 17.070312 2.929688 C 15.195312 1.054688 12.652344 0 10 0 Z M 10 2.144531 C 11.03125 2.144531 12.054688 2.347656 13.007812 2.742188 C 13.960938 3.136719 14.828125 3.714844 15.554688 4.445312 C 16.285156 5.171875 16.863281 6.039062 17.257812 6.992188 C 17.652344 7.945312 17.855469 8.96875 17.855469 10 C 17.855469 11.03125 17.652344 12.054688 17.257812 13.007812 C 16.863281 13.960938 16.285156 14.828125 15.554688 15.554688 C 14.828125 16.285156 13.960938 16.863281 13.007812 17.257812 C 12.054688 17.652344 11.03125 17.855469 10 17.855469 C 7.917969 17.855469 5.917969 17.027344 4.445312 15.554688 C 2.96875 14.082031 2.144531 12.082031 2.144531 10 C 2.144531 7.917969 2.96875 5.917969 4.445312 4.445312 C 5.917969 2.96875 7.917969 2.144531 10 2.144531 Z M 10 4.097656 C 9.804688 4.097656 9.613281 4.136719 9.429688 4.210938 C 9.25 4.289062 9.085938 4.398438 8.949219 4.535156 C 8.8125 4.671875 8.703125 4.835938 8.628906 5.015625 C 8.554688 5.199219 8.515625 5.390625 8.515625 5.585938 C 8.515625 5.980469 8.671875 6.355469 8.949219 6.636719 C 9.230469 6.914062 9.605469 7.070312 10 7.070312 C 10.394531 7.070312 10.769531 6.914062 11.050781 6.636719 C 11.328125 6.355469 11.484375 5.980469 11.484375 5.585938 C 11.484375 5.390625 11.445312 5.199219 11.371094 5.015625 C 11.296875 4.835938 11.1875 4.671875 11.050781 4.535156 C 10.914062 4.398438 10.75 4.289062 10.570312 4.210938 C 10.386719 4.136719 10.195312 4.097656 10 4.097656 Z M 10.980469 8.050781 L 8.039062 9.03125 L 8.039062 10.011719 L 8.941406 10.011719 L 9.019531 14.917969 L 8.039062 14.917969 L 8.039062 15.902344 L 11.960938 15.902344 L 11.960938 14.917969 L 10.980469 14.917969 Z M 10.980469 8.050781 "/>
</svg>
