<?xml version="1.0" encoding="UTF-8"?>
<svg xmlns="http://www.w3.org/2000/svg" xmlns:xlink="http://www.w3.org/1999/xlink" width="20" height="20" viewBox="0 0 20 20">
<path fill-rule="evenodd" fill="rgb(45.098039%, 29.019608%, 3.137255%)" fill-opacity="1" d="M 0 0 L 0 4.285156 L 1.429688 4.285156 L 1.429688 1.429688 L 18.570312 1.429688 L 18.570312 4.285156 L 20 4.285156 L 20 0 C 13.101562 0 5.933594 0 0 0 Z M 4.285156 2.855469 L 4.285156 20 L 8.570312 20 L 8.570312 18.5 L 8.574219 18.5 C 8.613281 17.742188 9.238281 17.144531 10 17.144531 C 10.761719 17.144531 11.386719 17.742188 11.425781 18.5 L 11.429688 18.5 L 11.429688 20 L 15.714844 20 L 15.714844 2.855469 L 14.285156 2.855469 L 14.285156 18.570312 L 12.855469 18.570312 C 12.855469 16.992188 11.578125 15.714844 10 15.714844 C 8.421875 15.714844 7.144531 16.992188 7.144531 18.570312 L 5.714844 18.570312 L 5.714844 2.855469 Z M 7.144531 5.714844 L 7.144531 14.285156 L 8.570312 14.285156 L 8.570312 10.714844 L 10.953125 10.714844 C 13.492188 10.714844 13.492188 5.714844 10.953125 5.714844 Z M 8.570312 6.964844 L 10.636719 6.964844 C 11.972656 6.964844 11.972656 9.464844 10.636719 9.464844 L 8.570312 9.464844 Z M 8.570312 6.964844 "/>
</svg>
