<?xml version="1.0" encoding="UTF-8"?>
<svg xmlns="http://www.w3.org/2000/svg" xmlns:xlink="http://www.w3.org/1999/xlink" width="20" height="20" viewBox="0 0 20 20">
<path fill-rule="nonzero" fill="rgb(67.45098%, 22.352941%, 67.45098%)" fill-opacity="1" d="M 2.714844 5.691406 C 0 5.714844 0 5.996094 0 8.558594 L 0.0234375 17.191406 C 0 20 0 20 2.757812 20.050781 L 17.21875 19.996094 C 20 20 20 20 20.070312 17.117188 L 20.070312 8.566406 C 20 5.714844 20 5.714844 17.21875 5.703125 Z M 11.429688 7.164062 C 14.585938 7.164062 17.144531 9.722656 17.144531 12.878906 C 17.144531 16.035156 14.585938 18.59375 11.429688 18.59375 C 8.273438 18.59375 5.714844 16.035156 5.714844 12.878906 C 5.714844 9.722656 8.273438 7.164062 11.429688 7.164062 Z M 2.832031 2.832031 L 4.308594 2.832031 C 5.714844 2.855469 5.714844 4.285156 5.757812 4.984375 L 1.5 5.03125 C 1.429688 4.285156 1.429688 2.855469 2.832031 2.832031 Z M 15.007812 12.910156 C 15.007812 14.882812 13.410156 16.484375 11.4375 16.484375 C 9.464844 16.484375 7.867188 14.882812 7.867188 12.910156 C 7.867188 10.9375 9.464844 9.339844 11.4375 9.339844 C 13.410156 9.339844 15.007812 10.9375 15.007812 12.910156 Z M 12.859375 1.402344 L 12.835938 5.125 L 20.023438 5.101562 L 20.046875 1.238281 C 20 0 20 0 18.597656 0.00390625 L 14.367188 0.0195312 C 12.855469 0 12.855469 0 12.859375 1.402344 Z M 14.433594 1.472656 L 18.597656 1.449219 L 18.644531 4.285156 L 14.480469 4.308594 Z M 14.433594 1.472656 "/>
</svg>
