<?xml version="1.0" encoding="UTF-8"?>
<svg xmlns="http://www.w3.org/2000/svg" xmlns:xlink="http://www.w3.org/1999/xlink" width="20" height="20" viewBox="0 0 20 20">
<path fill-rule="nonzero" fill="rgb(18.431373%, 38.039216%, 20%)" fill-opacity="1" d="M 4.285156 2.855469 C 2.394531 2.855469 2.394531 5 4.285156 5 L 15.714844 5 C 17.625 5 17.625 2.855469 15.714844 2.855469 Z M 5.714844 5.714844 L 4.640625 10 L 1.429688 10 C -0.460938 10 -0.460938 12.144531 1.429688 12.144531 L 4.105469 12.144531 L 2.855469 17.144531 L 5 17.144531 L 6.25 12.144531 L 13.75 12.144531 L 15 17.144531 L 17.140625 17.144531 L 15.890625 12.144531 L 18.570312 12.144531 C 20.484375 12.144531 20.484375 10 18.570312 10 L 15.355469 10 L 14.285156 5.714844 L 12.140625 5.714844 L 13.214844 10 L 6.785156 10 L 7.855469 5.714844 Z M 5.714844 5.714844 "/>
</svg>
