<?xml version="1.0" encoding="UTF-8"?>
<svg xmlns="http://www.w3.org/2000/svg" xmlns:xlink="http://www.w3.org/1999/xlink" width="20" height="20" viewBox="0 0 20 20">
<path fill-rule="nonzero" fill="rgb(99.215686%, 99.215686%, 98.823529%)" fill-opacity="1" stroke-width="1" stroke-linecap="butt" stroke-linejoin="miter" stroke="rgb(34.117647%, 34.117647%, 28.627451%)" stroke-opacity="1" stroke-miterlimit="4" d="M 5.499609 3 C 5.499609 4.380469 4.380469 5.499609 3 5.499609 C 1.619531 5.499609 0.500391 4.380469 0.500391 3 C 0.500391 1.619531 1.619531 0.500391 3 0.500391 C 4.380469 0.500391 5.499609 1.619531 5.499609 3 Z M 5.499609 3 " transform="matrix(3.333333, 0, 0, 3.333333, 0, 0)"/>
<path fill-rule="nonzero" fill="rgb(34.117647%, 34.117647%, 28.627451%)" fill-opacity="1" d="M 13.332031 10 C 13.332031 11.839844 11.839844 13.332031 10 13.332031 C 8.160156 13.332031 6.667969 11.839844 6.667969 10 C 6.667969 8.160156 8.160156 6.667969 10 6.667969 C 11.839844 6.667969 13.332031 8.160156 13.332031 10 Z M 13.332031 10 "/>
</svg>
