<?xml version="1.0" encoding="UTF-8"?>
<svg xmlns="http://www.w3.org/2000/svg" xmlns:xlink="http://www.w3.org/1999/xlink" width="20" height="20" viewBox="0 0 20 20">
<path fill-rule="nonzero" fill="rgb(45.098039%, 29.019608%, 3.137255%)" fill-opacity="1" d="M 3.570312 2.855469 C 2.414062 2.855469 1.429688 3.839844 1.429688 5 L 1.429688 15 C 1.429688 16.097656 2.382812 17.140625 3.570312 17.140625 L 16.429688 17.140625 C 17.496094 17.140625 18.570312 16.128906 18.570312 15 L 18.570312 5 C 18.570312 3.898438 17.527344 2.855469 16.429688 2.855469 Z M 3.570312 4.285156 C 3.964844 4.285156 4.285156 4.605469 4.285156 5 C 4.285156 5.394531 3.964844 5.714844 3.570312 5.714844 C 3.175781 5.714844 2.855469 5.394531 2.855469 5 C 2.855469 4.605469 3.175781 4.285156 3.570312 4.285156 Z M 16.429688 4.285156 C 16.824219 4.285156 17.140625 4.605469 17.140625 5 C 17.140625 5.394531 16.824219 5.714844 16.429688 5.714844 C 16.035156 5.714844 15.714844 5.394531 15.714844 5 C 15.714844 4.605469 16.035156 4.285156 16.429688 4.285156 Z M 7.140625 5.714844 L 8.570312 5.714844 L 8.570312 7.140625 L 7.140625 7.140625 Z M 10 5.714844 L 12.855469 5.714844 L 12.855469 7.140625 L 10 7.140625 Z M 4.285156 8.570312 L 15.714844 8.570312 L 15.714844 10 L 4.285156 10 Z M 7.140625 11.429688 L 12.855469 11.429688 L 12.855469 12.855469 L 7.140625 12.855469 Z M 3.570312 14.285156 C 3.964844 14.285156 4.285156 14.605469 4.285156 15 C 4.285156 15.394531 3.964844 15.714844 3.570312 15.714844 C 3.175781 15.714844 2.855469 15.394531 2.855469 15 C 2.855469 14.605469 3.175781 14.285156 3.570312 14.285156 Z M 16.429688 14.285156 C 16.824219 14.285156 17.140625 14.605469 17.140625 15 C 17.140625 15.394531 16.824219 15.714844 16.429688 15.714844 C 16.035156 15.714844 15.714844 15.394531 15.714844 15 C 15.714844 14.605469 16.035156 14.285156 16.429688 14.285156 Z M 16.429688 14.285156 "/>
</svg>
