<?xml version="1.0" encoding="UTF-8"?>
<svg xmlns="http://www.w3.org/2000/svg" xmlns:xlink="http://www.w3.org/1999/xlink" width="20" height="20" viewBox="0 0 20 20">
<path fill-rule="nonzero" fill="rgb(45.098039%, 29.019608%, 3.137255%)" fill-opacity="1" d="M 1.667969 0 C 0.761719 0 0 0.761719 0 1.667969 L 0 3.332031 C 0 4.265625 0.8125 5 1.667969 5 L 1.667969 1.667969 L 18.332031 1.667969 L 18.332031 5 C 19.1875 5 20 4.191406 20 3.332031 L 20 1.667969 C 20 0.761719 19.179688 0 18.332031 0 Z M 12.5 19.980469 L 3.332031 20 L 3.332031 3.332031 L 12.464844 3.3125 L 7.480469 11.65625 Z M 16.667969 20 L 15 19.972656 L 9.980469 11.652344 L 14.964844 3.308594 L 16.667969 3.332031 Z M 16.667969 20 "/>
</svg>
