<?xml version="1.0" encoding="UTF-8"?>
<svg xmlns="http://www.w3.org/2000/svg" xmlns:xlink="http://www.w3.org/1999/xlink" width="20" height="20" viewBox="0 0 20 20">
<path fill-rule="nonzero" fill="rgb(45.098039%, 29.019608%, 3.137255%)" fill-opacity="1" d="M 0 0 L 0 20 L 20 20 L 20 0 Z M 1.429688 1.429688 L 5.714844 1.429688 L 5.714844 18.570312 L 5 18.570312 L 5 12.542969 C 4.574219 13.050781 4.285156 13.660156 4.285156 14.285156 L 4.285156 18.570312 L 1.429688 18.570312 Z M 7.144531 1.429688 L 12.855469 1.429688 L 12.855469 18.570312 L 12.144531 18.570312 L 12.144531 11.429688 L 7.855469 11.429688 L 7.855469 18.570312 L 7.144531 18.570312 Z M 14.285156 1.429688 L 18.570312 1.429688 L 18.570312 18.570312 L 15.714844 18.570312 L 15.714844 14.285156 C 15.714844 13.660156 15.425781 13.050781 15 12.542969 L 15 18.570312 L 14.285156 18.570312 Z M 10 4.285156 C 9.140625 4.285156 8.382812 4.667969 7.855469 5.269531 L 7.855469 9.019531 C 8.382812 9.617188 9.140625 10 10 10 C 10.859375 10 11.617188 9.617188 12.144531 9.019531 L 12.144531 5.269531 C 11.617188 4.667969 10.859375 4.285156 10 4.285156 Z M 10 4.285156 "/>
</svg>
