<?xml version="1.0" encoding="UTF-8"?>
<svg xmlns="http://www.w3.org/2000/svg" xmlns:xlink="http://www.w3.org/1999/xlink" width="20" height="20" viewBox="0 0 20 20">
<path fill-rule="nonzero" fill="rgb(45.098039%, 29.019608%, 3.137255%)" fill-opacity="1" d="M 0 -0.0078125 L 0 4.28125 L 1.425781 4.28125 L 1.425781 1.421875 L 18.570312 1.421875 L 18.570312 4.28125 L 20 4.28125 L 20 -0.0078125 Z M 4.285156 2.851562 L 4.285156 19.992188 L 8.570312 19.992188 L 8.570312 18.496094 L 8.574219 18.496094 C 8.609375 17.734375 9.238281 17.136719 10 17.136719 C 10.761719 17.136719 11.386719 17.734375 11.425781 18.496094 L 11.425781 19.992188 L 15.710938 19.992188 L 15.710938 2.851562 L 14.285156 2.851562 L 14.285156 11.421875 L 5.714844 11.421875 L 5.714844 2.851562 Z M 5.714844 12.851562 L 14.285156 12.855469 L 14.285156 18.566406 L 12.855469 18.566406 C 12.855469 16.988281 11.578125 15.707031 10 15.707031 C 8.421875 15.707031 7.140625 16.988281 7.140625 18.566406 L 5.714844 18.566406 Z M 5.714844 12.851562 "/>
</svg>
