<?xml version="1.0" encoding="UTF-8"?>
<svg xmlns="http://www.w3.org/2000/svg" xmlns:xlink="http://www.w3.org/1999/xlink" width="20" height="20" viewBox="0 0 20 20">
<path fill-rule="nonzero" fill="rgb(45.098039%, 29.019608%, 3.137255%)" fill-opacity="1" d="M 17.144531 2.855469 L 15.714844 5 L 15.714844 5.714844 L 20 5.714844 L 20 5 L 18.570312 2.855469 Z M 1.429688 2.855469 L 0 5 L 0 5.714844 L 4.285156 5.714844 L 4.285156 5 L 2.855469 2.855469 Z M 5.714844 5.714844 L 14.285156 5.714844 L 14.285156 4.285156 L 10 0 L 5.714844 4.285156 Z M 0 7.144531 L 0 18.570312 L 7.144531 18.570312 C 7.144531 17.144531 7.144531 14.285156 10 14.285156 C 12.855469 14.285156 12.855469 17.144531 12.855469 18.570312 L 20 18.570312 L 20 7.144531 L 15.738281 7.144531 L 15.714844 8.570312 L 14.285156 8.570312 L 14.332031 7.144531 L 5.777344 7.144531 L 5.714844 8.570312 L 4.285156 8.570312 L 4.285156 7.144531 Z M 4.285156 11.429688 C 5.714844 11.429688 5.714844 12.855469 5.714844 14.285156 L 2.855469 14.285156 C 2.855469 12.855469 2.855469 11.429688 4.285156 11.429688 Z M 15.714844 11.429688 C 17.144531 11.429688 17.144531 12.472656 17.144531 14.285156 L 14.285156 14.320312 C 14.234375 12.496094 14.285156 11.429688 15.714844 11.429688 Z M 15.714844 11.429688 "/>
</svg>
