<?xml version="1.0" encoding="UTF-8"?>
<svg xmlns="http://www.w3.org/2000/svg" xmlns:xlink="http://www.w3.org/1999/xlink" width="20" height="20" viewBox="0 0 20 20">
<path fill-rule="nonzero" fill="rgb(0%, 57.254902%, 85.490196%)" fill-opacity="1" d="M 5 0 C 3.027344 0 1.429688 1.597656 1.429688 3.570312 C 1.429688 5.542969 3.027344 7.144531 5 7.144531 C 6.320312 7.144531 7.460938 6.425781 8.082031 5.355469 L 10 5.355469 L 11.429688 3.929688 L 12.855469 5.355469 L 14.285156 3.929688 L 15.714844 5.355469 L 16.429688 5.355469 L 18.570312 3.570312 L 16.429688 1.785156 L 8.082031 1.785156 C 7.460938 0.71875 6.320312 0 5 0 Z M 3.570312 2.855469 C 3.964844 2.855469 4.285156 3.175781 4.285156 3.570312 C 4.285156 3.964844 3.964844 4.285156 3.570312 4.285156 C 3.175781 4.285156 2.855469 3.964844 2.855469 3.570312 C 2.855469 3.175781 3.175781 2.855469 3.570312 2.855469 Z M 11.429688 7.769531 L 11.472656 9.195312 L 12.855469 10 L 12.855469 11.429688 L 7.144531 11.429688 L 7.144531 10 L 7.855469 10 C 9.285156 10 9.285156 8.570312 7.855469 8.570312 L 5 8.570312 C 3.570312 8.570312 3.570312 10 5 10 L 5.714844 10 L 5.714844 11.429688 L 4.910156 13.394531 C 4.851562 13.390625 4.792969 13.394531 4.730469 13.394531 C 2.917969 13.394531 1.429688 14.882812 1.429688 16.695312 C 1.429688 18.511719 2.917969 20 4.730469 20 C 6.546875 20 8.035156 18.511719 8.035156 16.695312 C 8.035156 16.355469 7.957031 16.027344 7.855469 15.714844 L 10 15.714844 L 13.078125 12.855469 L 13.082031 12.855469 L 13.480469 13.882812 C 12.570312 14.480469 11.964844 15.539062 11.964844 16.695312 C 11.964844 18.511719 13.453125 20 15.269531 20 C 17.082031 20 18.617188 18.511719 18.617188 16.695312 C 18.617188 14.882812 17.082031 13.394531 15.269531 13.394531 C 15.207031 13.394531 15.148438 13.390625 15.089844 13.394531 L 14.285156 11.429688 L 14.285156 9.464844 Z M 6.917969 12.855469 L 11.367188 12.855469 L 9.5 14.644531 L 7.277344 14.644531 C 7.058594 14.375 6.808594 14.074219 6.519531 13.882812 Z M 4.730469 15 C 5.679688 15 6.429688 15.75 6.429688 16.695312 C 6.429688 17.644531 5.679688 18.394531 4.730469 18.394531 C 3.785156 18.394531 3.035156 17.644531 3.035156 16.695312 C 3.035156 15.75 3.785156 15 4.730469 15 Z M 15.269531 15 C 16.214844 15 16.964844 15.75 16.964844 16.695312 C 16.964844 17.644531 16.214844 18.394531 15.269531 18.394531 C 14.320312 18.394531 13.617188 17.644531 13.617188 16.695312 C 13.617188 15.75 14.320312 15 15.269531 15 Z M 15.269531 15 "/>
</svg>
