<?xml version="1.0" encoding="UTF-8"?>
<svg xmlns="http://www.w3.org/2000/svg" xmlns:xlink="http://www.w3.org/1999/xlink" width="20" height="20" viewBox="0 0 20 20">
<path fill-rule="nonzero" fill="rgb(18.431373%, 38.039216%, 20%)" fill-opacity="1" d="M 1.183594 14.421875 L 6.003906 14.421875 L 5.363281 20 L 1.726562 20 Z M 1.183594 14.421875 "/>
<path fill-rule="nonzero" fill="rgb(18.431373%, 38.039216%, 20%)" fill-opacity="1" stroke-width="0.086943" stroke-linecap="butt" stroke-linejoin="miter" stroke="rgb(18.431373%, 38.039216%, 20%)" stroke-opacity="1" stroke-miterlimit="4" d="M 1.367188 0.0683594 C -2.630469 2.66875 4.59375 3.095312 0.150391 6.179688 L 1.028125 6.16875 C 5.195312 2.876562 -2.067187 2.635937 2.332422 0.04375 Z M 1.367188 0.0683594 " transform="matrix(1.428571, 0, 0, 1.428571, 0, 0)"/>
<path fill-rule="nonzero" fill="rgb(18.431373%, 38.039216%, 20%)" fill-opacity="1" stroke-width="0.086943" stroke-linecap="butt" stroke-linejoin="miter" stroke="rgb(18.431373%, 38.039216%, 20%)" stroke-opacity="1" stroke-miterlimit="4" d="M 4.402344 0.0710937 C 0.404687 2.671484 7.626172 3.098047 3.182812 6.182422 L 4.060547 6.16875 C 8.230469 2.879297 0.967969 2.638672 5.364844 0.04375 Z M 4.402344 0.0710937 " transform="matrix(1.428571, 0, 0, 1.428571, 0, 0)"/>
<path fill-rule="nonzero" fill="rgb(18.431373%, 38.039216%, 20%)" fill-opacity="1" d="M 14.585938 5.167969 C 15.683594 5.167969 16.574219 4.277344 16.574219 3.179688 C 16.574219 2.078125 15.683594 1.1875 14.585938 1.1875 C 13.484375 1.1875 12.59375 2.078125 12.59375 3.179688 C 12.59375 4.277344 13.484375 5.167969 14.585938 5.167969 Z M 14.585938 5.167969 "/>
<path fill-rule="nonzero" fill="rgb(18.431373%, 38.039216%, 20%)" fill-opacity="1" d="M 12.65625 13.972656 L 9.082031 18.289062 C 8.734375 18.710938 8.765625 19.359375 9.152344 19.742188 C 9.539062 20.121094 10.136719 20.09375 10.480469 19.675781 L 14.054688 15.355469 C 14.402344 14.9375 14.371094 14.289062 13.984375 13.90625 C 13.597656 13.523438 13.003906 13.554688 12.65625 13.972656 Z M 12.65625 13.972656 "/>
<path fill-rule="nonzero" fill="rgb(18.431373%, 38.039216%, 20%)" fill-opacity="1" d="M 13.882812 9.699219 L 10.109375 10.988281 C 9.75 11.113281 9.558594 11.503906 9.683594 11.863281 C 9.804688 12.21875 10.195312 12.410156 10.554688 12.289062 L 14.332031 10.996094 C 14.691406 10.875 14.882812 10.484375 14.757812 10.125 C 14.632812 9.765625 14.242188 9.574219 13.882812 9.699219 Z M 13.882812 9.699219 "/>
<path fill-rule="nonzero" fill="rgb(18.431373%, 38.039216%, 20%)" fill-opacity="1" d="M 14.796875 10.53125 L 16.582031 7.019531 C 16.75 6.683594 16.617188 6.273438 16.285156 6.101562 C 15.949219 5.929688 15.542969 6.058594 15.371094 6.394531 L 13.589844 9.90625 C 13.417969 10.242188 13.550781 10.652344 13.886719 10.824219 C 14.21875 10.996094 14.625 10.867188 14.796875 10.53125 Z M 14.796875 10.53125 "/>
<path fill-rule="nonzero" fill="rgb(18.431373%, 38.039216%, 20%)" fill-opacity="1" d="M 19.082031 13.601562 L 13.371094 13.59375 C 12.863281 13.589844 12.449219 14 12.449219 14.507812 C 12.449219 15.015625 12.859375 15.429688 13.367188 15.429688 L 19.082031 15.441406 C 19.589844 15.441406 20 15.03125 20 14.523438 C 20 14.015625 19.589844 13.601562 19.082031 13.601562 Z M 19.082031 13.601562 "/>
<path fill-rule="nonzero" fill="rgb(18.431373%, 38.039216%, 20%)" fill-opacity="1" d="M 20 17.285156 L 15.128906 17.285156 L 15.128906 18.328125 L 20 18.328125 Z M 20 17.285156 "/>
<path fill-rule="nonzero" fill="rgb(18.431373%, 38.039216%, 20%)" fill-opacity="1" d="M 19.945312 14.171875 L 17.160156 6.429688 C 16.984375 5.9375 16.441406 5.679688 15.949219 5.859375 C 15.457031 6.035156 15.203125 6.578125 15.378906 7.070312 L 18.164062 14.8125 C 18.339844 15.304688 18.882812 15.5625 19.375 15.382812 C 19.863281 15.207031 20.121094 14.664062 19.945312 14.171875 Z M 19.945312 14.171875 "/>
</svg>
