<?xml version="1.0" encoding="UTF-8"?>
<svg xmlns="http://www.w3.org/2000/svg" xmlns:xlink="http://www.w3.org/1999/xlink" width="20" height="20" viewBox="0 0 20 20">
<path fill-rule="nonzero" fill="rgb(67.45098%, 22.352941%, 67.45098%)" fill-opacity="1" d="M 7.144531 0 C 5.714844 0 5.714844 0 5.714844 1.429688 L 5.726562 5.714844 L 1.429688 5.714844 L 1.429688 18.570312 C 1.429688 20 1.429688 20 2.855469 20 L 17.144531 20 C 18.570312 20 18.570312 20 18.570312 18.570312 L 18.570312 5.714844 L 14.339844 5.714844 L 14.285156 1.429688 C 14.285156 0 14.285156 0 12.855469 0 Z M 7.144531 1.429688 L 12.855469 1.429688 L 12.855469 5.714844 L 7.144531 5.714844 Z M 10.722656 7.144531 L 11.011719 7.195312 C 13.039062 7.558594 14.730469 8.972656 15.433594 10.898438 C 15.605469 11.375 15.710938 11.863281 15.753906 12.351562 C 15.871094 13.703125 15.429688 15.007812 14.660156 16.109375 L 15.183594 16.109375 C 15.566406 16.109375 15.882812 16.421875 15.882812 16.800781 L 15.878906 17.335938 C 15.878906 17.714844 15.5625 18.027344 15.179688 18.027344 L 11.839844 18.023438 C 11.605469 18.019531 11.410156 17.824219 11.410156 17.59375 L 11.414062 14.265625 C 11.414062 13.886719 11.734375 13.574219 12.113281 13.574219 L 12.652344 13.578125 C 13.03125 13.578125 13.347656 13.890625 13.34375 14.273438 L 13.34375 14.449219 C 13.777344 13.546875 13.980469 12.539062 13.621094 11.550781 C 13.15625 10.269531 12.023438 9.324219 10.671875 9.085938 L 10.382812 9.035156 Z M 4.820312 7.6875 L 8.160156 7.695312 C 8.394531 7.695312 8.589844 7.886719 8.589844 8.121094 L 8.582031 11.449219 C 8.582031 11.828125 8.265625 12.144531 7.886719 12.144531 L 7.347656 12.140625 C 6.96875 12.140625 6.65625 11.824219 6.65625 11.445312 L 6.65625 11.261719 C 6.21875 12.167969 6.019531 13.171875 6.378906 14.160156 C 6.84375 15.441406 7.976562 16.390625 9.324219 16.632812 L 9.617188 16.683594 L 9.277344 18.570312 L 8.984375 18.519531 C 6.957031 18.15625 5.269531 16.738281 4.566406 14.8125 C 3.914062 13.019531 4.328125 11.109375 5.375 9.609375 L 4.8125 9.609375 C 4.429688 9.609375 4.117188 9.292969 4.117188 8.914062 L 4.117188 8.382812 C 4.121094 8 4.4375 7.6875 4.820312 7.6875 Z M 4.820312 7.6875 "/>
</svg>
