<?xml version="1.0" encoding="UTF-8"?>
<svg xmlns="http://www.w3.org/2000/svg" xmlns:xlink="http://www.w3.org/1999/xlink" width="20" height="20" viewBox="0 0 20 20">
<path fill-rule="nonzero" fill="rgb(100%, 100%, 100%)" fill-opacity="1" d="M 4.679688 13.960938 L 4.269531 13.882812 L 3.238281 19.367188 L 3.652344 19.445312 Z M 4.679688 13.960938 "/>
<path fill-rule="evenodd" fill="rgb(45.098039%, 29.019608%, 3.137255%)" fill-opacity="1" d="M 4.667969 6.300781 C 5.0625 4.191406 7.097656 2.800781 9.207031 3.199219 C 11.316406 3.59375 12.707031 5.625 12.308594 7.738281 "/>
<path fill-rule="nonzero" fill="rgb(45.098039%, 29.019608%, 3.137255%)" fill-opacity="1" d="M 10.796875 1.21875 C 10.902344 0.664062 10.535156 0.128906 9.980469 0.0234375 C 9.425781 -0.0820312 8.890625 0.285156 8.785156 0.839844 L 8.046875 4.769531 C 7.941406 5.324219 8.308594 5.859375 8.863281 5.964844 C 9.417969 6.066406 9.953125 5.703125 10.058594 5.148438 Z M 10.796875 1.21875 "/>
<path fill-rule="nonzero" fill="rgb(45.098039%, 29.019608%, 3.137255%)" fill-opacity="1" d="M 7.414062 12.371094 C 8.078125 12.496094 8.71875 12.058594 8.839844 11.394531 C 8.964844 10.730469 8.53125 10.09375 7.867188 9.96875 C 7.203125 9.84375 6.5625 10.28125 6.441406 10.945312 C 6.316406 11.605469 6.75 12.246094 7.414062 12.371094 Z M 7.414062 12.371094 "/>
<path fill-rule="nonzero" fill="rgb(45.098039%, 29.019608%, 3.137255%)" fill-opacity="1" d="M 6.75 16.097656 C 7.414062 16.222656 8.054688 15.785156 8.179688 15.121094 C 8.304688 14.457031 7.867188 13.820312 7.203125 13.695312 C 6.539062 13.570312 5.902344 14.007812 5.777344 14.671875 C 5.652344 15.335938 6.089844 15.972656 6.75 16.097656 Z M 6.75 16.097656 "/>
<path fill-rule="nonzero" fill="rgb(45.098039%, 29.019608%, 3.137255%)" fill-opacity="1" d="M 5.964844 19.828125 C 6.628906 19.953125 7.265625 19.515625 7.390625 18.855469 C 7.515625 18.191406 7.078125 17.550781 6.414062 17.425781 C 5.753906 17.300781 5.113281 17.738281 4.988281 18.402344 C 4.863281 19.066406 5.300781 19.703125 5.964844 19.828125 Z M 5.964844 19.828125 "/>
<path fill-rule="nonzero" fill="rgb(45.098039%, 29.019608%, 3.137255%)" fill-opacity="1" d="M 11.15625 12.304688 C 11.816406 12.429688 12.457031 11.992188 12.582031 11.328125 C 12.707031 10.667969 12.269531 10.027344 11.605469 9.902344 C 10.941406 9.777344 10.304688 10.214844 10.179688 10.878906 C 10.054688 11.542969 10.492188 12.179688 11.15625 12.304688 Z M 11.15625 12.304688 "/>
<path fill-rule="nonzero" fill="rgb(45.098039%, 29.019608%, 3.137255%)" fill-opacity="1" d="M 11.097656 16.117188 C 11.761719 16.238281 12.398438 15.804688 12.523438 15.140625 C 12.648438 14.476562 12.210938 13.835938 11.546875 13.714844 C 10.886719 13.589844 10.246094 14.023438 10.121094 14.6875 C 9.996094 15.351562 10.433594 15.992188 11.097656 16.117188 Z M 11.097656 16.117188 "/>
<path fill-rule="nonzero" fill="rgb(45.098039%, 29.019608%, 3.137255%)" fill-opacity="1" d="M 11.1875 19.980469 C 11.847656 20.101562 12.488281 19.667969 12.613281 19.003906 C 12.738281 18.339844 12.300781 17.699219 11.636719 17.578125 C 10.972656 17.453125 10.335938 17.886719 10.210938 18.550781 C 10.085938 19.214844 10.523438 19.855469 11.1875 19.980469 Z M 11.1875 19.980469 "/>
<path fill-rule="nonzero" fill="rgb(45.098039%, 29.019608%, 3.137255%)" fill-opacity="1" d="M 4.042969 11.023438 C 4.707031 11.148438 5.347656 10.710938 5.472656 10.046875 C 5.59375 9.382812 5.160156 8.746094 4.496094 8.621094 C 3.832031 8.496094 3.195312 8.933594 3.070312 9.59375 C 2.945312 10.257812 3.378906 10.898438 4.042969 11.023438 Z M 4.042969 11.023438 "/>
<path fill-rule="nonzero" fill="rgb(45.098039%, 29.019608%, 3.137255%)" fill-opacity="1" d="M 2.503906 14.515625 C 3.167969 14.640625 3.804688 14.203125 3.929688 13.539062 C 4.054688 12.875 3.617188 12.238281 2.953125 12.113281 C 2.292969 11.988281 1.652344 12.425781 1.527344 13.085938 C 1.402344 13.75 1.839844 14.390625 2.503906 14.515625 Z M 2.503906 14.515625 "/>
<path fill-rule="nonzero" fill="rgb(45.098039%, 29.019608%, 3.137255%)" fill-opacity="1" d="M 0.996094 18.027344 C 1.660156 18.152344 2.296875 17.714844 2.421875 17.050781 C 2.546875 16.390625 2.109375 15.75 1.449219 15.625 C 0.785156 15.5 0.144531 15.9375 0.0195312 16.601562 C -0.105469 17.265625 0.332031 17.902344 0.996094 18.027344 Z M 0.996094 18.027344 "/>
<path fill-rule="nonzero" fill="rgb(45.098039%, 29.019608%, 3.137255%)" fill-opacity="1" d="M 20 1.046875 C 20.007812 0.480469 19.554688 0.0234375 18.988281 0.0195312 L 10.171875 -0.0117188 C 9.605469 -0.015625 9.140625 0.441406 9.132812 1.007812 C 9.128906 1.570312 9.582031 2.03125 10.144531 2.035156 L 18.964844 2.066406 C 19.53125 2.070312 19.992188 1.613281 20 1.046875 Z M 20 1.046875 "/>
<path fill-rule="nonzero" fill="rgb(45.098039%, 29.019608%, 3.137255%)" fill-opacity="1" d="M 19.988281 2.085938 L 20 0.0390625 L 14.480469 0 L 14.46875 2.046875 Z M 19.988281 2.085938 "/>
</svg>
