<?xml version="1.0" encoding="UTF-8"?>
<svg xmlns="http://www.w3.org/2000/svg" xmlns:xlink="http://www.w3.org/1999/xlink" width="20" height="20" viewBox="0 0 20 20">
<path fill-rule="nonzero" fill="rgb(0%, 0%, 0%)" fill-opacity="1" d="M 9.976562 0 L 8.546875 1.429688 C 8.632812 2.050781 8.65625 2.535156 8.722656 3.082031 C 6.976562 3.621094 5.679688 5.21875 5.679688 7.144531 C 5.679688 9.082031 7 10.675781 8.769531 11.207031 C 8.695312 11.742188 8.648438 12.246094 8.546875 12.855469 L 9.261719 13.570312 L 9.261719 14.152344 C 7.945312 13.265625 6.546875 12.277344 5.679688 11.429688 C 2.777344 8.570312 3.542969 3.570312 7.113281 1.429688 C 4.257812 2.144531 1.429688 4.726562 1.429688 8.570312 C 1.429688 12.855469 5.679688 14.285156 5.679688 15.714844 L 7.113281 14.285156 L 8.949219 15.3125 C 8.070312 15.855469 7.113281 16.429688 7.113281 16.429688 L 7.828125 17.144531 L 9.351562 16.292969 L 9.351562 17.320312 C 8.886719 17.558594 8.546875 18.015625 8.546875 18.570312 C 8.546875 19.359375 9.1875 20 9.976562 20 C 10.769531 20 11.410156 19.359375 11.410156 18.570312 C 11.410156 18.015625 11.113281 17.558594 10.648438 17.320312 L 10.648438 16.292969 L 12.125 17.144531 L 12.84375 16.429688 C 12.84375 16.429688 11.832031 15.796875 11.050781 15.3125 L 12.84375 14.285156 L 14.273438 15.714844 C 14.273438 14.285156 18.570312 12.855469 18.570312 8.570312 C 18.570312 4.726562 15.707031 2.144531 12.84375 1.429688 C 16.421875 3.570312 17.1875 8.570312 14.273438 11.429688 C 13.394531 12.289062 12.03125 13.300781 10.695312 14.195312 L 10.695312 13.570312 L 11.410156 12.855469 C 11.3125 12.265625 11.257812 11.75 11.1875 11.207031 C 12.957031 10.675781 14.273438 9.082031 14.273438 7.144531 C 14.273438 5.203125 12.957031 3.609375 11.1875 3.082031 C 11.257812 2.535156 11.3125 2.019531 11.410156 1.429688 Z M 11.007812 4.464844 C 12.082031 4.875 12.84375 5.925781 12.84375 7.144531 C 12.84375 8.359375 12.082031 9.410156 11.007812 9.820312 C 10.832031 7.980469 10.832031 6.304688 11.007812 4.464844 Z M 8.859375 4.507812 C 8.871094 4.503906 8.890625 4.515625 8.902344 4.507812 C 9.097656 6.496094 9.117188 8.054688 8.949219 9.820312 C 7.871094 9.410156 7.113281 8.359375 7.113281 7.144531 C 7.113281 5.960938 7.832031 4.941406 8.859375 4.507812 Z M 6.398438 17.144531 C 6 17.144531 5.679688 17.460938 5.679688 17.855469 C 5.679688 18.25 6 18.570312 6.398438 18.570312 C 6.792969 18.570312 7.113281 18.25 7.113281 17.855469 C 7.113281 17.460938 6.792969 17.144531 6.398438 17.144531 Z M 13.558594 17.144531 C 13.164062 17.144531 12.84375 17.460938 12.84375 17.855469 C 12.84375 18.25 13.164062 18.570312 13.558594 18.570312 C 13.953125 18.570312 14.273438 18.25 14.273438 17.855469 C 14.273438 17.460938 13.953125 17.144531 13.558594 17.144531 Z M 13.558594 17.144531 "/>
</svg>
