<?xml version="1.0" encoding="UTF-8"?>
<svg xmlns="http://www.w3.org/2000/svg" xmlns:xlink="http://www.w3.org/1999/xlink" width="20" height="20" viewBox="0 0 20 20">
<path fill-rule="evenodd" fill="rgb(45.098039%, 29.019608%, 3.137255%)" fill-opacity="1" d="M 10.011719 0.0585938 C 8.828125 0.0585938 7.867188 0.992188 7.867188 2.140625 C 7.867188 3.289062 8.828125 4.222656 10.011719 4.222656 C 11.195312 4.222656 12.15625 3.289062 12.152344 2.140625 C 12.152344 0.992188 11.195312 0.0585938 10.011719 0.0585938 Z M 2.144531 2.144531 C 1.953125 2.144531 1.773438 2.21875 1.636719 2.351562 C 1.503906 2.484375 1.429688 2.667969 1.429688 2.855469 L 1.429688 11.429688 C 1.429688 12.855469 1.429688 12.855469 3.097656 14.285156 C 4.285156 15.714844 4.285156 15.714844 4.285156 17.144531 L 4.285156 20 L 8.570312 20 L 8.570312 15.714844 C 8.570312 14.585938 7.980469 14.660156 7.144531 14.285156 C 4.660156 12.855469 2.855469 11.429688 2.855469 10 L 2.855469 2.855469 C 2.855469 2.667969 2.78125 2.484375 2.648438 2.351562 C 2.515625 2.21875 2.332031 2.144531 2.144531 2.144531 Z M 17.855469 2.144531 C 17.667969 2.144531 17.484375 2.21875 17.351562 2.351562 C 17.21875 2.484375 17.144531 2.667969 17.144531 2.855469 L 17.144531 10 C 17.144531 11.429688 15.339844 12.855469 12.855469 14.285156 C 12.019531 14.660156 11.429688 14.585938 11.429688 15.714844 L 11.429688 20 L 15.714844 20 L 15.714844 17.144531 C 15.714844 15.714844 15.714844 15.714844 16.902344 14.285156 C 18.574219 12.855469 18.570312 12.855469 18.570312 11.429688 L 18.570312 2.855469 C 18.570312 2.667969 18.496094 2.484375 18.363281 2.351562 C 18.226562 2.21875 18.046875 2.144531 17.855469 2.144531 Z M 10 5.714844 C 7.144531 5.714844 7.144531 7.144531 7.144531 8.570312 L 7.144531 12.855469 L 12.855469 12.855469 L 12.855469 8.570312 C 12.855469 7.144531 12.855469 5.714844 10 5.714844 Z M 10 5.714844 "/>
</svg>
