<?xml version="1.0" encoding="UTF-8" standalone="no"?>
<svg
   width="11"
   height="11"
   viewBox="0 0 11 11"
   fill="none"
   version="1.1"
   id="svg3"
   sodipodi:docname="spring.svg"
   inkscape:version="1.3.2 (091e20e, 2023-11-25, custom)"
   xmlns:inkscape="http://www.inkscape.org/namespaces/inkscape"
   xmlns:sodipodi="http://sodipodi.sourceforge.net/DTD/sodipodi-0.dtd"
   xmlns="http://www.w3.org/2000/svg"
   xmlns:svg="http://www.w3.org/2000/svg">
  <defs
     id="defs3" />
  <sodipodi:namedview
     id="namedview3"
     pagecolor="#ffffff"
     bordercolor="#666666"
     borderopacity="1.0"
     inkscape:showpageshadow="2"
     inkscape:pageopacity="0.0"
     inkscape:pagecheckerboard="0"
     inkscape:deskcolor="#d1d1d1"
     inkscape:zoom="73.272727"
     inkscape:cx="5.5"
     inkscape:cy="5.4931762"
     inkscape:window-width="1920"
     inkscape:window-height="1017"
     inkscape:window-x="-8"
     inkscape:window-y="-8"
     inkscape:window-maximized="1"
     inkscape:current-layer="svg3" />
  <path
     d="M9 5.5C9 6.42826 8.63125 7.3185 7.97487 7.97487C7.3185 8.63125 6.42826 9 5.5 9C4.57174 9 3.6815 8.63125 3.02513 7.97487C2.36875 7.3185 2 6.42826 2 5.5C2 4.57174 2.36875 3.6815 3.02513 3.02513C3.6815 2.36875 4.57174 2 5.5 2C6.42826 2 7.3185 2.36875 7.97487 3.02513C8.63125 3.6815 9 4.57174 9 5.5V5.5Z"
     stroke="white"
     stroke-width="0.7"
     id="path1" />
  <path
     d="M8.875 5.5C8.875 5.94321 8.7877 6.38215 8.61809 6.79163C8.44848 7.2011 8.19988 7.57308 7.88649 7.88647C7.57309 8.19987 7.20103 8.44855 6.79156 8.61816C6.38208 8.78777 5.94321 8.875 5.5 8.875C5.05679 8.875 4.61792 8.78777 4.20844 8.61816C3.79897 8.44855 3.42691 8.19987 3.11351 7.88647C2.80012 7.57308 2.55152 7.2011 2.38191 6.79163C2.2123 6.38215 2.125 5.94321 2.125 5.5C2.125 5.05679 2.2123 4.61797 2.38191 4.2085C2.55152 3.79902 2.80012 3.42692 3.11351 3.11353C3.42691 2.80013 3.79897 2.55157 4.20844 2.38196C4.61792 2.21235 5.05679 2.125 5.5 2.125C5.94321 2.125 6.38208 2.21235 6.79156 2.38196C7.20103 2.55157 7.57309 2.80013 7.88649 3.11353C8.19988 3.42692 8.44848 3.79902 8.61809 4.2085C8.7877 4.61797 8.875 5.05679 8.875 5.5V5.5Z"
     stroke="white"
     stroke-width="3.5"
     id="path2" />
  <path
     d="M8.875 5.50001C8.875 6.39511 8.51942 7.25356 7.88649 7.8865C7.25355 8.51943 6.39511 8.87501 5.5 8.87501C4.60489 8.87501 3.74645 8.51943 3.11351 7.8865C2.48058 7.25356 2.125 6.39511 2.125 5.50001C2.125 4.6049 2.48058 3.74645 3.11351 3.11352C3.74645 2.48058 4.60489 2.125 5.5 2.125C6.39511 2.125 7.25355 2.48058 7.88649 3.11352C8.51942 3.74645 8.875 4.6049 8.875 5.50001V5.50001Z"
     stroke="#7ABCEC"
     stroke-width="1.6875"
     id="path3"
     style="stroke:#2096dd;stroke-opacity:1;stroke-width:2.5;stroke-dasharray:none" />
</svg>
