<?xml version="1.0" encoding="UTF-8"?>
<svg xmlns="http://www.w3.org/2000/svg" xmlns:xlink="http://www.w3.org/1999/xlink" width="20" height="20" viewBox="0 0 20 20">
<path fill-rule="evenodd" fill="rgb(67.45098%, 22.352941%, 67.45098%)" fill-opacity="1" d="M 7.144531 14.285156 C 7.144531 13.257812 7.144531 6.667969 7.144531 2.855469 C 7.144531 1.429688 7.144531 1.429688 8.570312 1.429688 L 10 1.429688 C 11.429688 1.429688 11.429688 1.429688 11.429688 2.855469 L 11.414062 12.871094 L 9.984375 12.871094 L 10 4.285156 L 8.570312 4.285156 C 8.570312 6.667969 8.554688 10.488281 8.554688 12.871094 C 8.554688 14.296875 8.554688 14.273438 10 14.285156 L 11.414062 14.296875 C 12.84375 14.296875 12.84375 14.296875 12.84375 12.871094 L 12.855469 2.855469 C 12.863281 0 12.855469 0 10 0 C 8.570312 0 10 0 8.570312 0 C 5.714844 0 5.714844 0 5.714844 2.855469 C 5.714844 7.144531 5.714844 10 5.714844 14.285156 C 5.714844 15.714844 5.714844 15.714844 9.507812 19.527344 C 9.800781 19.953125 10 20 10.765625 20 C 11.429688 20 11.707031 20.023438 12.148438 19.550781 C 15.714844 15.714844 15.714844 15.714844 15.714844 14.285156 C 15.714844 9.523438 15.714844 7.617188 15.714844 2.855469 L 14.285156 2.855469 L 14.285156 14.285156 C 14.285156 14.984375 11.429688 18.890625 10.804688 18.570312 C 10 18.800781 7.144531 15.210938 7.144531 14.285156 Z M 7.144531 14.285156 "/>
</svg>
