<?xml version="1.0" encoding="UTF-8"?>
<svg xmlns="http://www.w3.org/2000/svg" xmlns:xlink="http://www.w3.org/1999/xlink" width="20" height="20" viewBox="0 0 20 20">
<path fill-rule="evenodd" fill="rgb(45.098039%, 29.019608%, 3.137255%)" fill-opacity="1" d="M 10 0 C 9.179688 0 8.515625 0.664062 8.515625 1.484375 C 8.515625 2.304688 9.179688 2.964844 10 2.964844 C 10.820312 2.964844 11.484375 2.304688 11.484375 1.484375 C 11.484375 0.664062 10.820312 0 10 0 Z M 8.515625 3.957031 C 7.992188 3.957031 7.527344 4.429688 7.527344 4.945312 C 7.527344 5.933594 9.257812 8.917969 9.257812 9.890625 L 9.257812 12.855469 L 10.742188 12.855469 L 10.742188 9.890625 C 10.742188 8.9375 12.472656 5.933594 12.472656 4.945312 C 12.472656 4.398438 12.03125 3.957031 11.484375 3.957031 Z M 5.714844 14.285156 L 5.714844 15.714844 L 14.285156 15.714844 L 14.285156 14.285156 Z M 7.144531 17.144531 L 7.144531 20 L 12.855469 20 L 12.855469 17.144531 Z M 7.144531 17.144531 "/>
</svg>
