<?xml version="1.0" encoding="UTF-8"?>
<svg xmlns="http://www.w3.org/2000/svg" xmlns:xlink="http://www.w3.org/1999/xlink" width="20" height="20" viewBox="0 0 20 20">
<path fill-rule="evenodd" fill="rgb(24.705882%, 24.705882%, 24.705882%)" fill-opacity="1" d="M 6.429688 2.855469 C 6.03125 2.855469 5.714844 3.175781 5.714844 3.570312 C 5.714844 8.09375 5.714844 12.617188 5.714844 17.144531 L 7.144531 17.144531 L 7.144531 15.714844 L 12.855469 15.714844 L 12.855469 17.144531 L 14.285156 17.144531 C 14.285156 12.617188 14.285156 8.09375 14.285156 3.570312 C 14.285156 3.175781 13.96875 2.855469 13.570312 2.855469 C 13.175781 2.855469 12.855469 3.175781 12.855469 3.570312 C 12.855469 5.238281 12.855469 6.90625 12.855469 8.570312 L 7.144531 8.570312 C 7.144531 6.90625 7.144531 5.238281 7.144531 3.570312 C 7.144531 3.175781 6.824219 2.855469 6.429688 2.855469 Z M 7.144531 10 L 12.855469 10 L 12.855469 11.429688 L 7.144531 11.429688 Z M 7.144531 12.855469 L 12.855469 12.855469 L 12.855469 14.285156 L 7.144531 14.285156 Z M 7.144531 12.855469 "/>
</svg>
