<?xml version="1.0" encoding="UTF-8"?>
<svg xmlns="http://www.w3.org/2000/svg" xmlns:xlink="http://www.w3.org/1999/xlink" width="20" height="20" viewBox="0 0 20 20">
<path fill-rule="nonzero" fill="rgb(67.45098%, 22.352941%, 67.45098%)" fill-opacity="1" d="M 5.714844 5 L 5 5 L 5 12.144531 L 5.714844 12.144531 Z M 5.714844 5 "/>
<path fill-rule="nonzero" fill="rgb(67.45098%, 22.352941%, 67.45098%)" fill-opacity="1" d="M 8.570312 5 L 7.855469 5 L 7.855469 12.855469 L 8.570312 12.855469 Z M 8.570312 5 "/>
<path fill-rule="nonzero" fill="rgb(67.45098%, 22.352941%, 67.45098%)" fill-opacity="1" d="M 11.429688 5 L 10.714844 5 L 10.714844 13.570312 L 11.429688 13.570312 Z M 11.429688 5 "/>
<path fill-rule="nonzero" fill="rgb(67.45098%, 22.352941%, 67.45098%)" fill-opacity="1" d="M 14.285156 5 L 13.570312 5 L 13.570312 13.570312 L 14.285156 13.570312 Z M 14.285156 5 "/>
<path fill-rule="nonzero" fill="rgb(67.45098%, 22.352941%, 67.45098%)" fill-opacity="1" d="M 16.429688 7.144531 L 1.429688 7.144531 L 1.429688 7.855469 L 16.429688 7.855469 Z M 16.429688 7.144531 "/>
<path fill-rule="nonzero" fill="rgb(67.45098%, 22.352941%, 67.45098%)" fill-opacity="1" d="M 16.429688 10 L 1.429688 10 L 1.429688 10.714844 L 16.429688 10.714844 Z M 16.429688 10 "/>
<path fill-rule="nonzero" fill="rgb(67.45098%, 22.352941%, 67.45098%)" fill-opacity="1" d="M 13.570312 18.855469 C 14.359375 18.855469 15 18.21875 15 17.429688 C 15 16.640625 14.359375 16 13.570312 16 C 12.78125 16 12.144531 16.640625 12.144531 17.429688 C 12.144531 18.21875 12.78125 18.855469 13.570312 18.855469 Z M 13.570312 18.855469 "/>
<path fill-rule="nonzero" fill="rgb(67.45098%, 22.352941%, 67.45098%)" fill-opacity="1" d="M 5 18.855469 C 5.789062 18.855469 6.429688 18.21875 6.429688 17.429688 C 6.429688 16.640625 5.789062 16 5 16 C 4.210938 16 3.570312 16.640625 3.570312 17.429688 C 3.570312 18.21875 4.210938 18.855469 5 18.855469 Z M 5 18.855469 "/>
<path fill-rule="nonzero" fill="rgb(67.45098%, 22.352941%, 67.45098%)" fill-opacity="1" d="M 15.714844 14.285156 L 15.714844 17.144531 L 2.144531 17.144531 C 1.953125 17.144531 1.773438 17.066406 1.636719 16.933594 C 1.503906 16.800781 1.429688 16.617188 1.429688 16.429688 C 1.429688 16.238281 1.503906 16.058594 1.636719 15.921875 C 1.773438 15.789062 1.953125 15.714844 2.144531 15.714844 L 14.285156 15.714844 L 14.285156 13.570312 Z M 15.714844 14.285156 "/>
<path fill-rule="nonzero" fill="rgb(67.45098%, 22.352941%, 67.45098%)" fill-opacity="1" d="M 16.429688 4.285156 L 16.8125 2.5 L 18.929688 1.714844 C 19.027344 1.679688 19.132812 1.667969 19.234375 1.675781 C 19.339844 1.683594 19.4375 1.710938 19.53125 1.757812 C 19.625 1.804688 19.707031 1.867188 19.777344 1.945312 C 19.84375 2.023438 19.894531 2.117188 19.929688 2.214844 C 19.960938 2.3125 19.972656 2.417969 19.96875 2.519531 C 19.960938 2.625 19.933594 2.726562 19.886719 2.816406 C 19.839844 2.910156 19.773438 2.992188 19.695312 3.0625 C 19.617188 3.128906 19.527344 3.179688 19.429688 3.214844 L 18 3.714844 L 17.855469 4.285156 "/>
<path fill-rule="evenodd" fill="rgb(67.45098%, 22.352941%, 67.45098%)" fill-opacity="1" d="M 0 4.285156 L 17.855469 4.285156 L 15.714844 14.285156 L 1.429688 12.855469 Z M 1.667969 5.714844 L 16.121094 5.714844 L 14.644531 12.714844 L 2.714844 11.570312 Z M 1.667969 5.714844 "/>
</svg>
