<?xml version="1.0" encoding="UTF-8"?>
<svg xmlns="http://www.w3.org/2000/svg" xmlns:xlink="http://www.w3.org/1999/xlink" width="20" height="20" viewBox="0 0 20 20">
<path fill-rule="nonzero" fill="rgb(0%, 0%, 0%)" fill-opacity="1" d="M 10 20 C 15.511719 20 20 15.472656 20 10 C 20 4.527344 15.539062 0 10 0 C 4.460938 0 0 4.484375 0 10 C 0 15.515625 4.488281 20 10 20 Z M 10 18.570312 C 5.257812 18.570312 1.429688 14.742188 1.429688 10 C 1.429688 5.257812 5.257812 1.429688 10 1.429688 C 14.285156 1.429688 15.714844 9.257812 10 10 C 4.285156 10.742188 5.835938 18.570312 10 18.570312 Z M 10 15.714844 C 9.210938 15.714844 8.570312 15.074219 8.570312 14.285156 C 8.570312 13.496094 9.210938 12.855469 10 12.855469 C 10.789062 12.855469 11.429688 13.496094 11.429688 14.285156 C 11.429688 15.074219 10.789062 15.714844 10 15.714844 Z M 10 7.144531 C 10.789062 7.144531 11.429688 6.503906 11.429688 5.714844 C 11.429688 4.925781 10.789062 4.285156 10 4.285156 C 9.210938 4.285156 8.570312 4.925781 8.570312 5.714844 C 8.570312 6.503906 9.210938 7.144531 10 7.144531 Z M 10 7.144531 "/>
</svg>
