<?xml version="1.0" encoding="UTF-8"?>
<svg xmlns="http://www.w3.org/2000/svg" xmlns:xlink="http://www.w3.org/1999/xlink" width="20" height="20" viewBox="0 0 20 20">
<path fill-rule="nonzero" fill="rgb(67.45098%, 22.352941%, 67.45098%)" fill-opacity="1" d="M 9.761719 2.710938 C 9.535156 2.710938 9.308594 2.746094 9.101562 2.816406 C 8.890625 2.882812 8.703125 2.984375 8.542969 3.109375 C 8.382812 3.234375 8.253906 3.386719 8.167969 3.550781 C 8.082031 3.714844 8.039062 3.890625 8.039062 4.066406 C 8.039062 4.355469 8.15625 4.636719 8.371094 4.867188 C 8.585938 5.101562 8.890625 5.273438 9.238281 5.359375 C 7.269531 5.519531 5.570312 6.53125 4.574219 8.023438 C 4.554688 8.015625 4.535156 7.996094 4.515625 7.988281 C 3.585938 7.609375 2.199219 7.421875 1.296875 8.003906 C 0.421875 8.574219 0.0546875 9.589844 0.00390625 10.855469 C -0.0976562 13.433594 1.832031 13.949219 3.753906 14.207031 C 3.910156 14.230469 4.066406 14.21875 4.21875 14.210938 C 4.640625 15.429688 5.273438 16.574219 6.085938 17.148438 L 13.4375 17.148438 C 14.3125 16.53125 14.976562 15.25 15.394531 13.925781 C 15.726562 13.992188 16.089844 13.929688 16.589844 13.53125 C 17.460938 12.835938 18.371094 11.464844 18.667969 10.792969 C 19.199219 9.632812 20 5.472656 20 5.472656 C 20 5.472656 18.742188 5.8125 17.738281 5.464844 C 17.515625 6.21875 17.242188 7.640625 16.824219 8.320312 C 16.464844 8.90625 16.226562 9.414062 15.632812 9.507812 C 14.945312 7.242188 12.847656 5.566406 10.277344 5.359375 C 10.628906 5.273438 10.933594 5.101562 11.148438 4.867188 C 11.363281 4.636719 11.480469 4.355469 11.480469 4.066406 C 11.480469 3.890625 11.4375 3.714844 11.351562 3.550781 C 11.265625 3.386719 11.136719 3.234375 10.976562 3.109375 C 10.816406 2.984375 10.628906 2.882812 10.417969 2.816406 C 10.210938 2.746094 9.984375 2.710938 9.761719 2.710938 Z M 2.828125 8.785156 C 3.289062 8.769531 3.671875 8.914062 4.019531 9.113281 C 3.777344 9.730469 3.625 10.394531 3.625 11.089844 C 3.625 11.648438 3.71875 12.335938 3.882812 13.050781 C 2.777344 13.03125 1.476562 12.890625 1.550781 10.960938 C 1.59375 9.882812 1.882812 8.949219 2.417969 8.832031 C 2.5625 8.804688 2.695312 8.789062 2.828125 8.785156 Z M 2.828125 8.785156 "/>
</svg>
