<?xml version="1.0" encoding="UTF-8"?>
<svg xmlns="http://www.w3.org/2000/svg" xmlns:xlink="http://www.w3.org/1999/xlink" width="20" height="20" viewBox="0 0 20 20">
<path fill-rule="nonzero" fill="rgb(45.098039%, 29.019608%, 3.137255%)" fill-opacity="1" d="M 2.855469 11.429688 C 1.445312 12.839844 0.800781 15.105469 2.210938 16.503906 L 2.855469 17.144531 L 7.144531 12.855469 L 7.144531 10.714844 L 10.714844 7.144531 L 12.855469 7.144531 L 17.144531 2.855469 L 16.414062 2.160156 C 15.019531 0.832031 12.828125 1.457031 11.429688 2.855469 Z M 3.636719 17.910156 L 4.121094 18.414062 C 4.121094 18.414062 5.335938 18.523438 5.960938 17.90625 L 7.953125 15.945312 C 8.496094 15.371094 8.390625 14.082031 8.390625 14.082031 L 7.90625 13.578125 Z M 13.648438 7.886719 L 14.132812 8.390625 C 14.132812 8.390625 15.375 8.617188 15.9375 8.058594 L 17.929688 6.097656 C 18.492188 5.542969 18.386719 4.085938 18.386719 4.085938 L 17.90625 3.582031 Z M 13.648438 7.886719 "/>
</svg>
