<?xml version="1.0" encoding="UTF-8"?>
<svg xmlns="http://www.w3.org/2000/svg" xmlns:xlink="http://www.w3.org/1999/xlink" width="20" height="20" viewBox="0 0 20 20">
<path fill-rule="nonzero" fill="rgb(40%, 40%, 40%)" fill-opacity="1" d="M 8.570312 0 L 8.570312 1.429688 L 10 1.429688 C 12.273438 1.429688 14.453125 2.332031 16.0625 3.9375 C 17.667969 5.546875 18.570312 7.726562 18.570312 10 L 18.570312 11.429688 L 20 11.429688 L 20 10 C 19.996094 7.84375 19.292969 5.746094 18 4.019531 L 20 2.019531 L 17.980469 0 L 15.980469 2 C 14.253906 0.707031 12.15625 0.00390625 10 0 Z M 8.570312 2.855469 C 7.445312 2.855469 6.332031 3.078125 5.292969 3.507812 C 4.25 3.941406 3.304688 4.570312 2.511719 5.367188 C 1.714844 6.164062 1.082031 7.109375 0.652344 8.148438 C 0.222656 9.1875 0 10.304688 0 11.429688 L 17.144531 11.429688 C 17.144531 10.304688 16.921875 9.1875 16.492188 8.148438 C 16.058594 7.109375 15.429688 6.164062 14.632812 5.367188 C 13.835938 4.570312 12.890625 3.941406 11.851562 3.507812 C 10.8125 3.078125 9.695312 2.855469 8.570312 2.855469 Z M 0 12.855469 L 0 20 L 17.144531 20 L 17.144531 12.855469 Z M 0 12.855469 "/>
</svg>
