<?xml version="1.0" encoding="UTF-8"?>
<svg xmlns="http://www.w3.org/2000/svg" xmlns:xlink="http://www.w3.org/1999/xlink" width="20" height="20" viewBox="0 0 20 20">
<path fill-rule="evenodd" fill="rgb(40%, 40%, 40%)" fill-opacity="1" d="M 4.285156 0 L 4.285156 20 L 15.714844 20 L 15.714844 0 Z M 5.714844 1.429688 L 14.285156 1.429688 L 14.285156 15.714844 L 5.714844 15.714844 Z M 10 2.847656 C 9.808594 2.847656 9.621094 2.886719 9.445312 2.957031 C 9.269531 3.03125 9.113281 3.136719 8.976562 3.269531 C 8.84375 3.402344 8.738281 3.5625 8.664062 3.738281 C 8.59375 3.914062 8.554688 4.097656 8.554688 4.289062 C 8.554688 4.476562 8.59375 4.664062 8.664062 4.839844 C 8.738281 5.015625 8.84375 5.171875 8.976562 5.308594 C 9.113281 5.441406 9.269531 5.546875 9.445312 5.617188 C 9.621094 5.691406 9.808594 5.726562 10 5.726562 C 10.191406 5.726562 10.378906 5.691406 10.554688 5.617188 C 10.730469 5.546875 10.886719 5.441406 11.023438 5.308594 C 11.15625 5.171875 11.261719 5.015625 11.335938 4.839844 C 11.40625 4.664062 11.445312 4.476562 11.445312 4.289062 C 11.445312 4.097656 11.40625 3.914062 11.335938 3.738281 C 11.261719 3.5625 11.15625 3.402344 11.023438 3.269531 C 10.886719 3.136719 10.730469 3.03125 10.554688 2.957031 C 10.378906 2.886719 10.191406 2.847656 10 2.847656 Z M 10.953125 6.675781 L 8.089844 7.625 L 8.089844 8.574219 L 8.96875 8.574219 L 9.046875 13.328125 L 8.089844 13.328125 L 8.089844 14.277344 L 11.910156 14.277344 L 11.910156 13.328125 L 10.953125 13.328125 Z M 10.953125 6.675781 "/>
</svg>
