<?xml version="1.0" encoding="UTF-8"?>
<svg xmlns="http://www.w3.org/2000/svg" xmlns:xlink="http://www.w3.org/1999/xlink" width="20" height="20" viewBox="0 0 20 20">
<path fill-rule="nonzero" fill="rgb(45.098039%, 29.019608%, 3.137255%)" fill-opacity="1" d="M 0 0 L 0 10 C 0 10 0 15.714844 5.714844 15.714844 C 6.410156 15.714844 7.007812 15.59375 7.542969 15.445312 C 7.460938 14.757812 7.5 14.285156 7.5 14.285156 L 7.5 13.972656 C 7.011719 14.164062 6.414062 14.285156 5.714844 14.285156 C 1.429688 14.285156 1.429688 10 1.429688 10 L 1.429688 2.144531 C 4.285156 3.503906 7.144531 3.503906 10 2.144531 L 10 3.792969 C 10.476562 3.984375 10.964844 4.164062 11.429688 4.285156 L 11.429688 0 C 7.144531 1.960938 4.285156 1.863281 0 0 Z M 3.570312 4.285156 C 2.78125 4.285156 2.144531 4.925781 2.144531 5.714844 C 2.144531 6.503906 2.78125 7.144531 3.570312 7.144531 C 4.359375 7.144531 5 6.503906 5 5.714844 C 5 4.925781 4.359375 4.285156 3.570312 4.285156 Z M 8.570312 4.285156 L 8.570312 14.285156 C 8.570312 14.285156 8.570312 20 14.285156 20 C 20 20 20 14.285156 20 14.285156 L 20 4.285156 C 15.714844 6.246094 12.855469 6.148438 8.570312 4.285156 Z M 12.144531 8.570312 C 12.933594 8.570312 13.570312 9.210938 13.570312 10 C 13.570312 10.789062 12.933594 11.429688 12.144531 11.429688 C 11.355469 11.429688 10.714844 10.789062 10.714844 10 C 10.714844 9.210938 11.355469 8.570312 12.144531 8.570312 Z M 16.429688 8.570312 C 17.21875 8.570312 17.855469 9.210938 17.855469 10 C 17.855469 10.789062 17.21875 11.429688 16.429688 11.429688 C 15.640625 11.429688 15 10.789062 15 10 C 15 9.210938 15.640625 8.570312 16.429688 8.570312 Z M 5.714844 9.285156 C 3.625 9.285156 2.855469 10.738281 2.855469 12.144531 L 7.5 12.144531 L 7.5 9.777344 C 7.066406 9.460938 6.492188 9.285156 5.714844 9.285156 Z M 11.429688 14.285156 L 17.144531 14.285156 C 17.144531 15.714844 15.714844 17.144531 14.285156 17.144531 C 12.855469 17.144531 11.429688 15.714844 11.429688 14.285156 Z M 11.429688 14.285156 "/>
</svg>
