<?xml version="1.0" encoding="UTF-8"?>
<svg xmlns="http://www.w3.org/2000/svg" xmlns:xlink="http://www.w3.org/1999/xlink" width="20" height="20" viewBox="0 0 20 20">
<path fill-rule="nonzero" fill="rgb(67.45098%, 22.352941%, 67.45098%)" fill-opacity="1" d="M 0 4.285156 C 0 5.355469 0 6.996094 0 8.570312 L 1.429688 8.570312 C 1.808594 8.570312 2.171875 8.722656 2.4375 8.988281 C 2.707031 9.257812 2.855469 9.621094 2.855469 10 C 2.855469 10.378906 2.707031 10.742188 2.4375 11.011719 C 2.171875 11.277344 1.808594 11.429688 1.429688 11.429688 L 0 11.429688 C 0 13.003906 0 14.644531 0 15.714844 C 7.046875 15.714844 13.886719 15.714844 20 15.714844 C 20 14.644531 20 13.003906 20 11.429688 L 18.570312 11.429688 C 18.191406 11.429688 17.828125 11.277344 17.5625 11.011719 C 17.292969 10.742188 17.144531 10.378906 17.144531 10 C 17.144531 9.621094 17.292969 9.257812 17.5625 8.988281 C 17.828125 8.722656 18.191406 8.570312 18.570312 8.570312 L 20 8.570312 C 20 6.996094 20 5.355469 20 4.285156 C 13.0625 4.285156 5.949219 4.285156 0 4.285156 Z M 11.429688 5.714844 L 12.855469 5.714844 L 12.855469 14.285156 L 11.429688 14.285156 Z M 11.429688 5.714844 "/>
</svg>
