<?xml version="1.0" encoding="UTF-8"?>
<svg xmlns="http://www.w3.org/2000/svg" xmlns:xlink="http://www.w3.org/1999/xlink" width="20" height="20" viewBox="0 0 20 20">
<path fill-rule="nonzero" fill="rgb(40%, 40%, 40%)" fill-opacity="1" d="M 3.570312 0 L 3.570312 4.285156 L 16.429688 4.285156 L 16.429688 0 L 14.285156 0 L 14.285156 1.429688 L 11.429688 1.429688 L 11.429688 0 L 8.570312 0 L 8.570312 1.429688 L 5.714844 1.429688 L 5.714844 0 Z M 4.285156 5.714844 L 3.570312 18.570312 L 1.429688 18.570312 L 1.429688 20 L 7.855469 20 C 7.855469 18.570312 8.253906 16.429688 10 16.429688 C 11.820312 16.464844 12.140625 18.570312 12.140625 20 L 18.570312 20 L 18.570312 18.570312 L 16.429688 18.570312 L 15.714844 5.714844 Z M 10 8.570312 C 11.429688 8.570312 11.429688 10 11.429688 10 L 11.429688 11.429688 L 8.570312 11.429688 L 8.570312 10 C 8.570312 10 8.570312 8.570312 10 8.570312 Z M 10 8.570312 "/>
</svg>
