<?xml version="1.0" encoding="UTF-8"?>
<svg xmlns="http://www.w3.org/2000/svg" xmlns:xlink="http://www.w3.org/1999/xlink" width="20" height="20" viewBox="0 0 20 20">
<path fill-rule="nonzero" fill="rgb(40%, 40%, 40%)" fill-opacity="1" d="M 11.527344 0.0742188 C 10.730469 0.117188 9.9375 0.285156 9.183594 0.574219 L 10.398438 1.785156 C 12.378906 1.257812 14.542969 1.730469 16.105469 3.285156 C 17.667969 4.84375 18.140625 7 17.613281 8.976562 L 18.824219 10.183594 C 19.863281 7.519531 19.332031 4.351562 17.183594 2.210938 C 15.84375 0.871094 14.097656 0.164062 12.324219 0.0742188 C 12.058594 0.0625 11.792969 0.0585938 11.527344 0.0742188 Z M 11.496094 3.433594 C 10.824219 3.425781 10.152344 3.574219 9.53125 3.863281 L 10.679688 5.007812 C 11.667969 4.742188 12.753906 4.980469 13.53125 5.757812 C 14.3125 6.535156 14.550781 7.617188 14.285156 8.601562 L 15.433594 9.746094 C 16.210938 8.097656 15.941406 6.066406 14.582031 4.710938 C 13.730469 3.863281 12.617188 3.441406 11.496094 3.433594 Z M 4.28125 3.933594 C 1.347656 6.859375 1.347656 11.605469 4.28125 14.53125 C 7.21875 17.457031 11.976562 17.457031 14.910156 14.53125 L 10.300781 9.9375 L 12.242188 8.007812 L 11.195312 6.964844 L 9.261719 8.898438 Z M 3.375 15.621094 L 0.660156 20.0625 L 11.046875 20.0625 L 11.046875 18.023438 C 8.34375 18.460938 5.480469 17.664062 3.375 15.621094 Z M 3.375 15.621094 "/>
</svg>
