<?xml version="1.0" encoding="UTF-8"?>
<svg xmlns="http://www.w3.org/2000/svg" xmlns:xlink="http://www.w3.org/1999/xlink" width="20" height="20" viewBox="0 0 20 20">
<path fill-rule="nonzero" fill="rgb(67.45098%, 22.352941%, 67.45098%)" fill-opacity="1" d="M 4.285156 0 L 4.285156 5.714844 L 14.285156 5.714844 L 14.285156 0 L 10 0 L 10 2.855469 L 8.570312 2.855469 L 8.570312 0 Z M 0 7.144531 L 0 14.285156 L 7.144531 14.285156 L 7.144531 7.144531 L 4.285156 7.144531 L 4.285156 10 L 2.855469 10 L 2.855469 7.144531 Z M 8.570312 7.144531 L 8.570312 14.285156 L 20 14.285156 L 20 7.144531 Z M 0 15.714844 C 0 17.144531 0 18.570312 0 20 L 2.855469 20 L 2.855469 17.144531 L 8.570312 17.144531 L 8.570312 20 L 11.429688 20 L 11.429688 17.144531 L 17.144531 17.144531 L 17.144531 20 L 20 20 C 20 18.570312 20 17.144531 20 15.714844 Z M 0 15.714844 "/>
</svg>
