<?xml version="1.0" encoding="UTF-8"?>
<svg xmlns="http://www.w3.org/2000/svg" xmlns:xlink="http://www.w3.org/1999/xlink" width="20" height="20" viewBox="0 0 20 20">
<path fill-rule="evenodd" fill="rgb(67.45098%, 22.352941%, 67.45098%)" fill-opacity="1" d="M 0 12.855469 C 0 11.429688 0 11.429688 1.429688 11.429688 C 4.761719 11.429688 8.09375 11.429688 11.429688 11.429688 C 12.855469 11.429688 12.855469 11.429688 12.855469 12.855469 C 12.855469 14.761719 12.855469 16.667969 12.855469 18.570312 C 12.855469 20 12.855469 20 11.429688 20 C 8.09375 20 4.761719 20 1.429688 20 C 0 20 0 20 0 18.570312 C 0 16.667969 0 14.761719 0 12.855469 Z M 18.570312 5.757812 L 18.570312 10 L 20 10 L 20 5.757812 Z M 16.027344 5.269531 L 13.707031 8.792969 L 14.867188 9.554688 L 17.230469 6.070312 Z M 14.195312 2.902344 L 10.179688 4.554688 L 10.714844 5.847656 L 14.730469 4.242188 Z M 10 -0.0429688 L 10 1.382812 L 14.417969 1.429688 L 14.417969 0 Z M 4.285156 11.429688 L 4.285156 8.996094 L 8.570312 8.996094 L 8.570312 11.429688 L 10 11.429688 L 10 8.570312 C 10 7.144531 10 7.144531 8.570312 7.144531 C 7.144531 7.144531 5.714844 7.144531 4.285156 7.144531 C 2.855469 7.144531 2.855469 7.144531 2.855469 8.570312 L 2.855469 11.429688 Z M 21.039062 2.125 C 21.039062 3.703125 19.757812 4.980469 18.179688 4.980469 C 16.601562 4.980469 15.324219 3.703125 15.324219 2.125 C 15.324219 0.546875 16.601562 -0.734375 18.179688 -0.734375 C 19.492188 -0.734375 20.632812 0.15625 20.953125 1.429688 "/>
</svg>
