<?xml version="1.0" encoding="UTF-8"?>
<svg xmlns="http://www.w3.org/2000/svg" xmlns:xlink="http://www.w3.org/1999/xlink" width="20" height="20" viewBox="0 0 20 20">
<path fill-rule="nonzero" fill="rgb(67.45098%, 22.352941%, 67.45098%)" fill-opacity="1" d="M 12.527344 0.0390625 C 15.746094 0.0390625 18.347656 4.507812 18.347656 10.019531 C 18.347656 15.527344 15.746094 20 12.527344 20 C 9.3125 20 6.703125 15.527344 6.703125 10.019531 C 6.703125 4.507812 9.3125 0.0390625 12.527344 0.0390625 Z M 10.03125 10.019531 C 10.03125 13.179688 11.335938 15.71875 12.941406 15.71875 C 14.605469 15.71875 15.855469 13.164062 15.855469 10.015625 C 15.855469 6.863281 14.550781 4.3125 12.941406 4.3125 C 11.28125 4.3125 10.03125 6.863281 10.03125 10.015625 Z M 12.941406 5.027344 C 12.476562 5.027344 12.046875 5.414062 11.699219 6.042969 C 12.210938 7.070312 12.527344 8.46875 12.527344 10.019531 C 12.527344 11.683594 12.210938 12.964844 11.695312 13.996094 C 12.046875 14.628906 12.472656 15.007812 12.941406 15.007812 C 14.09375 15.007812 15.023438 12.78125 15.023438 10.019531 C 15.023438 7.261719 14.089844 5.027344 12.941406 5.027344 Z M 5.871094 10.019531 C 5.871094 4.761719 8.074219 0.453125 10.863281 0.0390625 L 10.863281 0 L 8.367188 0 C 4.691406 0.0390625 1.714844 4.496094 1.714844 10.019531 C 1.714844 15.527344 4.691406 20 8.367188 20 L 10.832031 20 C 8.074219 19.574219 5.871094 15.277344 5.871094 10.019531 Z M 5.871094 10.019531 "/>
</svg>
