<?xml version="1.0" encoding="UTF-8"?>
<svg xmlns="http://www.w3.org/2000/svg" xmlns:xlink="http://www.w3.org/1999/xlink" width="20" height="20" viewBox="0 0 20 20">
<path fill-rule="nonzero" fill="rgb(74.901961%, 0%, 0%)" fill-opacity="1" d="M 7.054688 0.179688 C 5.027344 0.179688 4.707031 2.9375 5.226562 4.332031 C 5.554688 5.21875 6.558594 6.078125 7.589844 5.714844 C 8.925781 5.054688 9.300781 3.363281 8.929688 2.054688 C 8.75 1.179688 8.054688 0.179688 7.054688 0.179688 Z M 12.726562 0.179688 C 11.726562 0.179688 11.03125 1.179688 10.851562 2.054688 C 10.480469 3.363281 10.855469 5.054688 12.191406 5.714844 C 13.222656 6.078125 14.226562 5.21875 14.554688 4.332031 C 15.074219 2.9375 14.753906 0.179688 12.726562 0.179688 Z M 1.25 4.597656 C 0.449219 5.398438 0.554688 7.703125 2.007812 8.660156 C 2.953125 9.144531 3.910156 8.519531 4.242188 7.769531 C 4.800781 6.699219 4.648438 5.183594 3.660156 4.417969 C 2.714844 3.789062 1.988281 3.859375 1.25 4.597656 Z M 16.339844 4.417969 C 15.652344 4.816406 15.199219 6.699219 15.757812 7.769531 C 16.089844 8.519531 17.09375 9.144531 18.035156 8.660156 C 19.492188 7.703125 19.566406 5.414062 18.75 4.597656 C 17.988281 3.960938 17.089844 3.984375 16.339844 4.417969 Z M 10 6.429688 C 6.449219 6.429688 3.570312 9.308594 3.570312 12.855469 C 3.570312 16.40625 6.449219 19.285156 10 19.285156 C 13.550781 19.285156 16.429688 16.40625 16.429688 12.855469 C 16.429688 9.308594 13.550781 6.429688 10 6.429688 Z M 8.570312 8.570312 L 11.429688 8.570312 L 11.429688 11.429688 L 14.285156 11.429688 L 14.285156 14.285156 L 11.429688 14.332031 L 11.429688 17.144531 L 8.570312 17.144531 L 8.570312 14.285156 L 5.714844 14.285156 L 5.714844 11.429688 L 8.570312 11.429688 Z M 8.570312 8.570312 "/>
</svg>
