<?xml version="1.0" encoding="UTF-8"?>
<svg xmlns="http://www.w3.org/2000/svg" xmlns:xlink="http://www.w3.org/1999/xlink" width="20" height="20" viewBox="0 0 20 20">
<path fill-rule="nonzero" fill="rgb(67.45098%, 22.352941%, 67.45098%)" fill-opacity="1" d="M 19.984375 0.0234375 C 14.46875 0.0234375 10 4.492188 10 10.003906 C 10 15.515625 14.484375 20 20 20 C 20.015625 18.585938 19.96875 19.980469 20 18.570312 C 15.273438 18.574219 11.476562 14.753906 11.476562 10.015625 C 11.476562 5.28125 15.296875 1.445312 20.015625 1.433594 L 20.015625 0.03125 L 19.984375 0.0273438 Z M 0 1.429688 L 0 20 L 12.378906 20 L 12.378906 18.570312 L 4.285156 18.570312 L 4.285156 11.429688 L 8.570312 11.429688 L 8.570312 10 L 4.285156 10 L 4.285156 2.855469 L 11.429688 2.855469 L 11.429688 1.429688 Z M 1.429688 2.855469 L 2.855469 2.855469 L 2.855469 4.285156 L 1.429688 4.285156 Z M 1.429688 5.714844 L 2.855469 5.714844 L 2.855469 7.144531 L 1.429688 7.144531 Z M 20.015625 7.144531 C 18.445312 7.152344 17.179688 8.429688 17.179688 10 C 17.179688 11.570312 18.445312 12.847656 20.015625 12.855469 L 20.015625 11.425781 C 20.007812 11.425781 20 11.429688 19.992188 11.429688 C 19.175781 11.429688 18.515625 10.789062 18.515625 10 C 18.515625 9.210938 19.175781 8.570312 19.992188 8.570312 C 20 8.570312 20.007812 8.570312 20.015625 8.570312 Z M 1.429688 8.570312 L 2.855469 8.570312 L 2.855469 10 L 1.429688 10 Z M 1.429688 11.429688 L 2.855469 11.429688 L 2.855469 12.855469 L 1.429688 12.855469 Z M 1.429688 14.285156 L 2.855469 14.285156 L 2.855469 15.714844 L 1.429688 15.714844 Z M 1.429688 17.144531 L 2.855469 17.144531 L 2.855469 18.570312 L 1.429688 18.570312 Z M 1.429688 17.144531 "/>
</svg>
