<?xml version="1.0" encoding="UTF-8"?>
<svg xmlns="http://www.w3.org/2000/svg" xmlns:xlink="http://www.w3.org/1999/xlink" width="20" height="20" viewBox="0 0 20 20">
<path fill-rule="nonzero" fill="rgb(67.45098%, 22.352941%, 67.45098%)" fill-opacity="1" d="M 4.601562 5.464844 C 3.925781 5.625 3.515625 5.859375 3 6.382812 C 2.410156 6.96875 1.96875 7.644531 1.640625 8.488281 C 1.203125 9.417969 0.898438 10.429688 0.683594 11.367188 C 0.191406 13.53125 0.0742188 15.699219 0.191406 16.71875 C 0.457031 17.925781 0.761719 18.601562 1.324219 19.15625 C 1.90625 19.734375 2.332031 19.917969 3.175781 19.960938 C 4.003906 20 4.625 19.847656 5.21875 19.453125 C 5.675781 19.148438 6.875 17.902344 7.585938 16.976562 L 8.058594 16.347656 L 10.15625 16.332031 C 11.316406 16.324219 12.257812 16.332031 12.257812 16.355469 C 12.699219 17.003906 13.242188 17.621094 13.746094 18.222656 C 14.808594 19.460938 15.757812 19.976562 16.972656 19.976562 C 17.839844 19.976562 18.371094 19.75 18.980469 19.132812 C 19.882812 18.214844 20.101562 17.492188 20.09375 15.472656 C 20.09375 13.976562 20.011719 13.203125 19.699219 11.652344 C 19.285156 10.007812 18.71875 8.246094 17.777344 6.96875 C 17.535156 6.648438 17.171875 6.238281 16.957031 6.058594 C 15.734375 5.054688 13.238281 5.125 11.953125 6.210938 C 11.71875 6.378906 11.375 6.570312 11.164062 6.671875 C 10.96875 6.765625 10.757812 6.855469 10.671875 6.878906 C 10.535156 6.984375 9.882812 6.992188 9.660156 6.886719 C 9.5625 6.839844 9.316406 6.777344 9.097656 6.664062 C 8.320312 6.214844 7.511719 5.671875 6.8125 5.488281 C 6.105469 5.3125 5.257812 5.304688 4.601562 5.464844 Z M 6.523438 8.648438 C 6.691406 8.8125 6.707031 8.890625 6.707031 9.597656 C 6.707031 10.089844 6.730469 10.523438 6.730469 10.523438 C 6.730469 10.523438 7.171875 10.566406 7.640625 10.566406 C 8.257812 10.566406 8.40625 10.589844 8.589844 10.734375 C 8.703125 10.820312 8.78125 10.925781 8.757812 10.964844 C 8.800781 11.25 8.789062 11.5 8.582031 11.707031 C 8.414062 11.867188 8.277344 11.835938 7.558594 11.867188 L 6.707031 11.890625 L 6.707031 12.839844 C 6.675781 13.597656 6.542969 13.75 6.40625 13.847656 C 5.996094 14.09375 5.613281 14.039062 5.402344 13.613281 C 5.300781 13.414062 5.261719 13.148438 5.257812 12.632812 L 5.253906 11.84375 C 5.253906 11.84375 4.171875 11.839844 3.660156 11.800781 C 3.242188 11.65625 3.121094 11.160156 3.410156 10.78125 C 3.570312 10.582031 3.625 10.574219 4.398438 10.546875 L 5.277344 10.523438 L 5.300781 9.707031 C 5.359375 8.785156 5.335938 8.773438 5.652344 8.511719 C 5.917969 8.359375 6.28125 8.417969 6.523438 8.648438 Z M 15.261719 8.898438 C 16.046875 9.882812 14.582031 11.066406 13.773438 10.125 C 12.90625 9.199219 14.347656 7.847656 15.261719 8.898438 Z M 13.59375 10.46875 C 14.441406 11.460938 13.050781 12.804688 12.117188 11.835938 C 11.09375 10.773438 12.703125 9.421875 13.59375 10.46875 Z M 16.960938 10.308594 C 17.976562 11.269531 16.605469 12.691406 15.628906 11.734375 C 14.589844 10.71875 16.042969 9.4375 16.960938 10.308594 Z M 15.679688 12.796875 C 15.703125 14.234375 13.707031 14.121094 13.679688 12.785156 C 13.648438 11.46875 15.605469 11.476562 15.679688 12.796875 Z M 15.679688 12.796875 "/>
<path fill-rule="nonzero" fill="rgb(67.45098%, 22.352941%, 67.45098%)" fill-opacity="1" d="M 1.902344 -0.0859375 C 1.863281 0.667969 2.285156 1.230469 2.792969 1.75 C 3.304688 2.273438 3.972656 2.746094 4.722656 3.109375 C 5.46875 3.472656 6.296875 3.726562 7.140625 3.734375 C 7.980469 3.746094 8.859375 3.480469 9.507812 2.804688 C 10.429688 1.847656 11.246094 1.816406 11.679688 1.988281 C 11.894531 2.078125 12.015625 2.210938 12.066406 2.339844 C 12.117188 2.464844 12.128906 2.597656 12.011719 2.820312 C 11.613281 3.457031 11.03125 4.074219 10.507812 4.765625 C 9.976562 5.457031 9.472656 6.269531 9.480469 7.28125 L 10.96875 7.273438 C 10.964844 6.769531 11.226562 6.269531 11.6875 5.667969 C 12.148438 5.066406 12.78125 4.40625 13.289062 3.589844 L 13.296875 3.574219 L 13.308594 3.558594 C 13.621094 2.984375 13.667969 2.324219 13.449219 1.78125 C 13.230469 1.238281 12.777344 0.828125 12.230469 0.609375 C 11.140625 0.167969 9.667969 0.492188 8.433594 1.773438 C 8.105469 2.117188 7.695312 2.253906 7.15625 2.246094 C 6.613281 2.238281 5.96875 2.058594 5.371094 1.769531 C 4.773438 1.480469 4.222656 1.082031 3.859375 0.710938 C 3.496094 0.339844 3.390625 -0.0195312 3.390625 -0.00390625 Z M 1.902344 -0.0859375 "/>
</svg>
