<?xml version="1.0" encoding="UTF-8"?>
<svg xmlns="http://www.w3.org/2000/svg" xmlns:xlink="http://www.w3.org/1999/xlink" width="20" height="20" viewBox="0 0 20 20">
<path fill-rule="nonzero" fill="rgb(45.098039%, 29.019608%, 3.137255%)" fill-opacity="1" d="M 13.792969 0.847656 C 13.363281 0.914062 12.976562 1.203125 12.722656 1.5625 C 12.128906 2.363281 11.976562 3.355469 11.695312 4.285156 C 11.378906 5.488281 11.074219 6.714844 10.894531 7.945312 C 10.863281 8.300781 11.132812 8.378906 11.472656 8.035156 C 12.652344 6.9375 13.8125 5.777344 14.957031 4.644531 C 15.234375 4.347656 15.511719 4.058594 15.714844 3.707031 C 16.03125 3.175781 16.179688 2.480469 15.847656 1.917969 C 15.507812 1.355469 14.882812 0.96875 14.242188 0.847656 C 14.09375 0.820312 13.9375 0.828125 13.792969 0.847656 Z M 6.027344 0.9375 C 5.367188 0.949219 4.710938 1.292969 4.285156 1.785156 C 3.890625 2.242188 3.90625 2.90625 4.152344 3.4375 C 4.546875 4.351562 5.316406 5.003906 5.980469 5.714844 C 6.863281 6.589844 7.777344 7.441406 8.75 8.214844 C 9.042969 8.417969 9.230469 8.234375 9.105469 7.769531 C 8.746094 6.199219 8.355469 4.636719 7.945312 3.082031 C 7.832031 2.691406 7.703125 2.269531 7.5 1.917969 C 7.203125 1.382812 6.675781 0.933594 6.027344 0.9375 Z M 1.429688 8.082031 C 0.960938 8.160156 0.507812 8.414062 0.269531 8.839844 C -0.0507812 9.417969 -0.0820312 10.140625 0.132812 10.757812 C 0.332031 11.328125 0.933594 11.6875 1.519531 11.742188 C 2.507812 11.855469 3.425781 11.46875 4.375 11.25 C 5.574219 10.925781 6.789062 10.589844 7.945312 10.132812 C 8.269531 9.984375 8.191406 9.679688 7.722656 9.554688 C 6.183594 9.078125 4.632812 8.640625 3.082031 8.214844 C 2.6875 8.121094 2.28125 8.082031 1.875 8.082031 C 1.722656 8.078125 1.585938 8.054688 1.429688 8.082031 Z M 18.125 8.082031 C 17.71875 8.082031 17.3125 8.121094 16.917969 8.214844 C 15.367188 8.640625 13.816406 9.078125 12.277344 9.554688 C 11.808594 9.679688 11.730469 9.984375 12.054688 10.132812 C 13.210938 10.589844 14.425781 10.925781 15.625 11.25 C 16.574219 11.46875 17.492188 11.855469 18.480469 11.742188 C 19.0625 11.6875 19.667969 11.328125 19.867188 10.757812 C 20.082031 10.140625 20.050781 9.417969 19.730469 8.839844 C 19.410156 8.273438 18.738281 8.070312 18.125 8.082031 Z M 8.972656 11.519531 C 8.914062 11.519531 8.824219 11.554688 8.75 11.605469 C 7.777344 12.382812 6.863281 13.277344 5.980469 14.152344 C 5.316406 14.863281 4.546875 15.46875 4.152344 16.382812 C 3.90625 16.914062 3.890625 17.578125 4.285156 18.035156 C 4.710938 18.53125 5.367188 18.917969 6.027344 18.929688 C 6.675781 18.933594 7.203125 18.441406 7.5 17.902344 C 7.703125 17.550781 7.832031 17.175781 7.945312 16.785156 C 8.355469 15.226562 8.746094 13.625 9.105469 12.054688 C 9.199219 11.703125 9.144531 11.507812 8.972656 11.519531 Z M 11.070312 11.605469 C 10.964844 11.625 10.878906 11.742188 10.894531 11.917969 C 11.074219 13.152344 11.378906 14.332031 11.695312 15.535156 C 11.976562 16.46875 12.128906 17.503906 12.722656 18.304688 C 13.058594 18.78125 13.648438 19.085938 14.242188 18.972656 C 14.882812 18.851562 15.507812 18.46875 15.847656 17.902344 C 16.179688 17.34375 16.03125 16.644531 15.714844 16.117188 C 15.511719 15.765625 15.234375 15.472656 14.957031 15.179688 C 13.8125 14.042969 12.652344 12.929688 11.472656 11.832031 C 11.300781 11.660156 11.175781 11.585938 11.070312 11.605469 Z M 11.070312 11.605469 "/>
</svg>
