<?xml version="1.0" encoding="UTF-8"?>
<svg xmlns="http://www.w3.org/2000/svg" xmlns:xlink="http://www.w3.org/1999/xlink" width="20" height="20" viewBox="0 0 20 20">
<path fill-rule="nonzero" fill="rgb(0%, 54.901961%, 5.098039%)" fill-opacity="1" d="M 12.441406 0.773438 C 12.261719 0.789062 12.089844 0.847656 11.90625 0.953125 L 6.132812 4.046875 C 5.398438 4.394531 5.113281 5.480469 5.59375 6.132812 L 7.144531 8.570312 L 0.476562 12.382812 L 0.535156 13.570312 C 0.535156 13.570312 1.425781 12.855469 2.382812 12.855469 C 3.285156 12.855469 5.09375 14.285156 6.191406 14.285156 C 7.148438 14.285156 9.039062 12.855469 10 12.855469 C 11 12.855469 12.8125 14.285156 13.808594 14.285156 L 14.464844 14.285156 L 9.046875 5.714844 L 13.035156 3.632812 C 13.890625 3.136719 14.164062 2.28125 13.808594 1.667969 C 13.480469 1.097656 12.976562 0.730469 12.441406 0.773438 Z M 15.714844 5.714844 C 14.136719 5.714844 12.855469 6.992188 12.855469 8.570312 C 12.855469 10.148438 14.136719 11.429688 15.714844 11.429688 C 17.292969 11.429688 18.570312 10.148438 18.570312 8.570312 C 18.570312 6.992188 17.292969 5.714844 15.714844 5.714844 Z M 2.382812 15.714844 C 1.769531 15.714844 0.863281 16.230469 0.0273438 16.644531 L 0.00390625 19.539062 C 0.882812 19.121094 1.820312 18.570312 2.382812 18.570312 C 3.339844 18.570312 5.171875 20 6.191406 20 C 7.097656 20 9.03125 18.570312 10 18.570312 C 10.960938 18.570312 12.898438 20 13.808594 20 C 14.769531 20 16.714844 18.570312 17.617188 18.570312 C 18.183594 18.570312 19.160156 19.132812 20.042969 19.550781 L 20.109375 16.660156 C 19.25 16.230469 18.246094 15.679688 17.617188 15.714844 C 16.707031 15.714844 14.828125 17.144531 13.808594 17.144531 C 12.960938 17.144531 10.960938 15.714844 10 15.714844 C 9.039062 15.714844 7.039062 17.144531 6.191406 17.144531 C 5.285156 17.144531 3.398438 15.714844 2.382812 15.714844 Z M 2.382812 15.714844 "/>
</svg>
