<?xml version="1.0" encoding="UTF-8"?>
<svg xmlns="http://www.w3.org/2000/svg" xmlns:xlink="http://www.w3.org/1999/xlink" width="20" height="20" viewBox="0 0 20 20">
<path fill-rule="nonzero" fill="rgb(40%, 40%, 40%)" fill-opacity="1" d="M 2.855469 0 L 2.855469 5 C 2.855469 7.066406 3.988281 8.542969 5.582031 9.464844 L 4.285156 20 L 6.429688 20 L 6.695312 17.902344 L 10 15.714844 L 13.304688 17.945312 L 13.570312 20 L 15.714844 20 L 14.417969 9.507812 C 16.027344 8.589844 17.144531 7.089844 17.144531 5 L 17.144531 0 L 15 0 L 15 2.144531 L 14.285156 2.144531 C 12.675781 2.855469 11.429688 2.855469 10 2.144531 C 8.570312 1.429688 7.199219 1.429688 5.714844 2.144531 L 5 2.144531 L 5 0 Z M 7.632812 10.269531 C 9.160156 10.648438 10.835938 10.6875 12.367188 10.3125 L 12.632812 12.542969 L 10 14.285156 L 7.367188 12.542969 Z M 7.1875 13.839844 L 8.929688 15 L 6.875 16.382812 Z M 12.8125 13.839844 L 13.125 16.382812 L 11.070312 15 Z M 12.8125 13.839844 "/>
</svg>
