<?xml version="1.0" encoding="UTF-8"?>
<svg xmlns="http://www.w3.org/2000/svg" xmlns:xlink="http://www.w3.org/1999/xlink" width="20" height="20" viewBox="0 0 20 20">
<path fill-rule="nonzero" fill="rgb(40%, 40%, 40%)" fill-opacity="1" d="M 3.882812 0 L 1.429688 2.457031 L 8.527344 8.570312 L 1.429688 14.6875 L 3.882812 17.144531 L 10 10.042969 L 16.117188 17.144531 L 18.570312 14.6875 L 11.472656 8.570312 L 18.570312 2.457031 L 16.117188 0 L 10 7.097656 Z M 10 2.855469 C 9.40625 2.855469 8.910156 2.984375 8.480469 3.167969 L 10 4.910156 L 11.519531 3.167969 C 11.09375 2.976562 10.585938 2.855469 10 2.855469 Z M 10 7.855469 C 10.394531 7.855469 10.714844 8.175781 10.714844 8.570312 C 10.714844 8.964844 10.394531 9.285156 10 9.285156 C 9.605469 9.285156 9.285156 8.964844 9.285156 8.570312 C 9.285156 8.175781 9.605469 7.855469 10 7.855469 Z M 5.980469 8.257812 L 5.9375 8.929688 L 6.339844 8.570312 Z M 14.019531 8.257812 L 13.660156 8.570312 L 14.0625 8.929688 Z M 10 12.230469 L 5.179688 17.8125 L 5 20 L 15 20 L 14.820312 17.8125 Z M 10 12.230469 "/>
</svg>
