<?xml version="1.0" encoding="UTF-8"?>
<svg xmlns="http://www.w3.org/2000/svg" xmlns:xlink="http://www.w3.org/1999/xlink" width="24" height="24" viewBox="0 0 24 24">
<path fill-rule="nonzero" fill="rgb(0%, 0%, 0%)" fill-opacity="1" d="M 16.804688 12.257812 C 16.644531 11.640625 15.859375 11.152344 15.265625 11.433594 L 12.960938 12.476562 L 12.960938 8.355469 L 17.007812 2 C 17.300781 1.535156 17.1875 0.921875 16.714844 0.625 C 16.246094 0.332031 15.636719 0.464844 15.375 0.921875 L 11.980469 6.328125 L 9.9375 6.332031 C 9.804688 6.332031 9.675781 6.351562 9.542969 6.402344 L 6.003906 7.78125 L 4.1875 5.039062 C 3.886719 4.578125 3.269531 4.445312 2.796875 4.742188 C 2.328125 5.039062 2.195312 5.660156 2.496094 6.125 L 4.769531 9.546875 C 5.03125 9.945312 5.566406 10.125 6.023438 9.929688 L 8.636719 8.921875 L 8.636719 13.441406 L 5.082031 21.308594 C 4.8125 21.90625 5.105469 22.570312 5.734375 22.914062 C 6.359375 23.265625 7.078125 23.058594 7.339844 22.464844 L 10.195312 15.945312 C 10.445312 16.019531 10.71875 16.050781 10.996094 16.050781 C 11.257812 16.050781 11.503906 16.003906 11.730469 15.921875 L 14.9375 14.429688 L 15.636719 17.242188 C 15.796875 17.867188 16.433594 18.25 17.0625 18.089844 C 17.691406 17.933594 18.070312 17.304688 17.914062 16.679688 L 16.796875 12.269531 Z M 13.921875 10.601562 L 13.921875 11.347656 C 18.71875 8.9375 20.582031 0.6875 20.582031 0 L 19.910156 0 C 19.660156 1.722656 17.761719 8.605469 13.921875 10.601562 Z M 10.515625 5.964844 C 11.5 5.964844 12.296875 5.179688 12.296875 4.203125 C 12.296875 3.230469 11.5 2.4375 10.515625 2.4375 C 9.53125 2.4375 8.734375 3.230469 8.734375 4.203125 C 8.734375 5.179688 9.53125 5.964844 10.515625 5.964844 Z M 12 24 L 12.960938 24 L 12.960938 16.046875 L 12 16.800781 Z M 12 24 "/>
</svg>
