<?xml version="1.0" encoding="UTF-8"?>
<svg xmlns="http://www.w3.org/2000/svg" xmlns:xlink="http://www.w3.org/1999/xlink" width="24" height="24" viewBox="0 0 24 24">
<path fill-rule="nonzero" fill="rgb(0%, 0%, 0%)" fill-opacity="1" d="M 19.679688 0.480469 L 4.320312 0.480469 C 3.265625 0.480469 2.398438 1.34375 2.398438 2.398438 L 2.398438 21.601562 C 2.398438 22.65625 3.265625 23.519531 4.320312 23.519531 L 19.679688 23.519531 C 20.734375 23.519531 21.601562 22.65625 21.601562 21.601562 L 21.601562 2.398438 C 21.601562 1.34375 20.734375 0.480469 19.679688 0.480469 Z M 8.160156 19.679688 C 8.160156 20.207031 7.726562 20.640625 7.199219 20.640625 L 5.28125 20.640625 C 4.753906 20.640625 4.320312 20.207031 4.320312 19.679688 L 4.320312 19.199219 C 4.320312 18.671875 4.753906 18.238281 5.28125 18.238281 L 7.199219 18.238281 C 7.726562 18.238281 8.160156 18.671875 8.160156 19.199219 Z M 8.160156 15.839844 C 8.160156 16.367188 7.726562 16.800781 7.199219 16.800781 L 5.28125 16.800781 C 4.753906 16.800781 4.320312 16.367188 4.320312 15.839844 L 4.320312 15.359375 C 4.320312 14.832031 4.753906 14.398438 5.28125 14.398438 L 7.199219 14.398438 C 7.726562 14.398438 8.160156 14.832031 8.160156 15.359375 Z M 8.160156 12 C 8.160156 12.527344 7.726562 12.960938 7.199219 12.960938 L 5.28125 12.960938 C 4.753906 12.960938 4.320312 12.527344 4.320312 12 L 4.320312 11.519531 C 4.320312 10.992188 4.753906 10.558594 5.28125 10.558594 L 7.199219 10.558594 C 7.726562 10.558594 8.160156 10.992188 8.160156 11.519531 Z M 13.921875 19.679688 C 13.921875 20.207031 13.488281 20.640625 12.960938 20.640625 L 11.039062 20.640625 C 10.511719 20.640625 10.078125 20.207031 10.078125 19.679688 L 10.078125 19.199219 C 10.078125 18.671875 10.511719 18.238281 11.039062 18.238281 L 12.960938 18.238281 C 13.488281 18.238281 13.921875 18.671875 13.921875 19.199219 Z M 13.921875 15.839844 C 13.921875 16.367188 13.488281 16.800781 12.960938 16.800781 L 11.039062 16.800781 C 10.511719 16.800781 10.078125 16.367188 10.078125 15.839844 L 10.078125 15.359375 C 10.078125 14.832031 10.511719 14.398438 11.039062 14.398438 L 12.960938 14.398438 C 13.488281 14.398438 13.921875 14.832031 13.921875 15.359375 Z M 13.921875 12 C 13.921875 12.527344 13.488281 12.960938 12.960938 12.960938 L 11.039062 12.960938 C 10.511719 12.960938 10.078125 12.527344 10.078125 12 L 10.078125 11.519531 C 10.078125 10.992188 10.511719 10.558594 11.039062 10.558594 L 12.960938 10.558594 C 13.488281 10.558594 13.921875 10.992188 13.921875 11.519531 Z M 19.679688 19.679688 C 19.679688 20.207031 19.246094 20.640625 18.71875 20.640625 L 16.800781 20.640625 C 16.273438 20.640625 15.839844 20.207031 15.839844 19.679688 L 15.839844 19.199219 C 15.839844 18.671875 16.273438 18.238281 16.800781 18.238281 L 18.71875 18.238281 C 19.246094 18.238281 19.679688 18.671875 19.679688 19.199219 Z M 19.679688 15.839844 C 19.679688 16.367188 19.246094 16.800781 18.71875 16.800781 L 16.800781 16.800781 C 16.273438 16.800781 15.839844 16.367188 15.839844 15.839844 L 15.839844 15.359375 C 15.839844 14.832031 16.273438 14.398438 16.800781 14.398438 L 18.71875 14.398438 C 19.246094 14.398438 19.679688 14.832031 19.679688 15.359375 Z M 19.679688 12 C 19.679688 12.527344 19.246094 12.960938 18.71875 12.960938 L 16.800781 12.960938 C 16.273438 12.960938 15.839844 12.527344 15.839844 12 L 15.839844 11.519531 C 15.839844 10.992188 16.273438 10.558594 16.800781 10.558594 L 18.71875 10.558594 C 19.246094 10.558594 19.679688 10.992188 19.679688 11.519531 Z M 19.679688 7.679688 C 19.679688 8.207031 19.246094 8.640625 18.71875 8.640625 L 5.28125 8.640625 C 4.753906 8.640625 4.320312 8.207031 4.320312 7.679688 L 4.320312 3.839844 C 4.320312 3.3125 4.753906 2.878906 5.28125 2.878906 L 18.71875 2.878906 C 19.246094 2.878906 19.679688 3.3125 19.679688 3.839844 Z M 19.679688 7.679688 "/>
</svg>
