<?xml version="1.0" encoding="UTF-8"?>
<svg xmlns="http://www.w3.org/2000/svg" xmlns:xlink="http://www.w3.org/1999/xlink" width="24" height="24" viewBox="0 0 24 24">
<path fill-rule="nonzero" fill="rgb(0%, 0%, 0%)" fill-opacity="1" d="M 3.199219 1.601562 L 20.800781 1.601562 C 21.679688 1.601562 22.398438 2.320312 22.398438 3.199219 L 22.398438 20.800781 C 22.398438 21.679688 21.679688 22.398438 20.800781 22.398438 L 3.199219 22.398438 C 2.320312 22.398438 1.601562 21.679688 1.601562 20.800781 L 1.601562 15.199219 L 15.390625 15.984375 C 15.648438 16 15.871094 15.886719 16.03125 15.710938 L 19.726562 11.601562 C 20.015625 11.265625 20 10.769531 19.664062 10.464844 C 19.535156 10.351562 19.375 10.289062 19.199219 10.273438 L 1.601562 8.800781 L 1.601562 3.199219 C 1.601562 2.320312 2.320312 1.601562 3.199219 1.601562 Z M 11.199219 14.398438 L 11.199219 12.71875 C 11.199219 12.382812 11.40625 12.097656 11.710938 11.96875 L 13.632812 11.230469 C 13.9375 11.121094 14.273438 11.199219 14.496094 11.425781 L 15.726562 12.671875 C 16.03125 12.992188 16.03125 13.503906 15.710938 13.808594 C 15.695312 13.824219 15.695312 13.824219 15.679688 13.839844 L 14.351562 15.007812 C 14.207031 15.136719 14.015625 15.199219 13.824219 15.199219 L 12 15.199219 C 11.550781 15.199219 11.199219 14.847656 11.199219 14.398438 Z M 6.398438 14.398438 L 6.398438 13.601562 C 6.398438 13.152344 6.753906 12.800781 7.199219 12.800781 L 9.199219 12.800781 C 9.425781 12.800781 9.601562 12.976562 9.601562 13.199219 L 9.601562 14.398438 L 8.351562 14.800781 Z M 6.398438 14.398438 "/>
</svg>
