<?xml version="1.0" encoding="UTF-8"?>
<svg xmlns="http://www.w3.org/2000/svg" xmlns:xlink="http://www.w3.org/1999/xlink" width="24" height="24" viewBox="0 0 24 24">
<path fill-rule="nonzero" fill="rgb(0%, 0%, 0%)" fill-opacity="1" d="M 13.601562 6.992188 L 10.398438 7.390625 L 10.398438 3.199219 C 10.398438 2.320312 11.121094 1.601562 12 1.601562 C 12.878906 1.601562 13.601562 2.320312 13.601562 3.199219 Z M 13.601562 11.007812 L 13.601562 22.398438 L 10.398438 22.398438 L 10.398438 11.40625 Z M 7.199219 7.761719 C 6.320312 7.761719 5.601562 7.039062 5.601562 6.160156 C 5.601562 5.28125 6.320312 4.558594 7.199219 4.558594 C 8.078125 4.558594 8.800781 5.28125 8.800781 6.160156 C 8.800781 7.039062 8.078125 7.761719 7.199219 7.761719 Z M 16.800781 6.480469 C 15.921875 6.480469 15.199219 5.761719 15.199219 4.878906 C 15.199219 4 15.921875 3.28125 16.800781 3.28125 C 17.679688 3.28125 18.398438 4 18.398438 4.878906 C 18.398438 5.761719 17.679688 6.480469 16.800781 6.480469 Z M 7.199219 15.121094 C 6.320312 15.121094 5.601562 14.398438 5.601562 13.519531 C 5.601562 12.640625 6.320312 11.921875 7.199219 11.921875 C 8.078125 11.921875 8.800781 12.640625 8.800781 13.519531 C 8.800781 14.398438 8.078125 15.121094 7.199219 15.121094 Z M 16.800781 13.839844 C 15.921875 13.839844 15.199219 13.121094 15.199219 12.238281 C 15.199219 11.359375 15.921875 10.640625 16.800781 10.640625 C 17.679688 10.640625 18.398438 11.359375 18.398438 12.238281 C 18.398438 13.121094 17.679688 13.839844 16.800781 13.839844 Z M 2.496094 11.199219 C 2.0625 11.246094 1.664062 10.945312 1.601562 10.496094 C 1.550781 10.0625 1.855469 9.664062 2.304688 9.601562 L 21.503906 7.199219 C 21.9375 7.152344 22.335938 7.457031 22.398438 7.902344 C 22.449219 8.335938 22.144531 8.734375 21.695312 8.800781 Z M 2.496094 11.199219 "/>
</svg>
