<?xml version="1.0" encoding="UTF-8"?>
<svg xmlns="http://www.w3.org/2000/svg" xmlns:xlink="http://www.w3.org/1999/xlink" width="24" height="24" viewBox="0 0 24 24">
<path fill-rule="nonzero" fill="rgb(0%, 0%, 0%)" fill-opacity="1" d="M 8 8 L 8 14.398438 L 20 14.398438 C 20.449219 14.398438 20.800781 14.753906 20.800781 15.199219 L 20.800781 22.398438 L 0 22.398438 L 0 15.199219 C 0 14.753906 0.351562 14.398438 0.800781 14.398438 L 3.199219 14.398438 L 3.199219 8 L 2.222656 8 C 1.855469 8 1.535156 7.742188 1.457031 7.390625 L 0.257812 2.59375 C 0.144531 2.160156 0.398438 1.726562 0.832031 1.617188 C 0.894531 1.617188 0.960938 1.601562 1.023438 1.601562 L 4 1.601562 L 3.488281 0.574219 C 3.390625 0.382812 3.472656 0.144531 3.664062 0.046875 C 3.726562 0.015625 3.792969 0 3.839844 0 L 7.359375 0 C 7.566406 0 7.761719 0.175781 7.761719 0.398438 C 7.761719 0.464844 7.742188 0.527344 7.710938 0.574219 L 7.199219 1.601562 L 10.175781 1.601562 C 10.625 1.601562 10.976562 1.953125 10.976562 2.398438 C 10.976562 2.464844 10.960938 2.527344 10.945312 2.59375 L 9.742188 7.390625 C 9.664062 7.742188 9.34375 8 8.976562 8 Z M 6.398438 16 L 1.601562 16 L 1.601562 17.601562 L 6.398438 17.601562 Z M 12.800781 16 L 8 16 L 8 17.601562 L 12.800781 17.601562 Z M 19.199219 16 L 14.398438 16 L 14.398438 17.601562 L 19.199219 17.601562 Z M 6.398438 19.199219 L 1.601562 19.199219 L 1.601562 20.800781 L 6.398438 20.800781 Z M 12.800781 19.199219 L 8 19.199219 L 8 20.800781 L 12.800781 20.800781 Z M 19.199219 19.199219 L 14.398438 19.199219 L 14.398438 20.800781 L 19.199219 20.800781 Z M 2.046875 3.199219 L 2.847656 6.398438 L 8.351562 6.398438 L 9.152344 3.199219 Z M 9.070312 10.046875 L 9.617188 9.679688 C 9.808594 9.566406 10.015625 9.535156 10.222656 9.566406 L 12.113281 9.984375 L 14.480469 8.433594 L 11.953125 6.945312 C 11.777344 6.832031 11.710938 6.59375 11.824219 6.398438 C 11.855469 6.351562 11.886719 6.304688 11.953125 6.273438 L 12.910156 5.648438 C 13.007812 5.585938 13.121094 5.566406 13.214844 5.585938 L 17.488281 6.496094 L 19.246094 5.34375 C 20.367188 4.609375 21.742188 4.414062 23.023438 4.800781 L 23.375 4.894531 C 23.808594 5.023438 24.046875 5.472656 23.921875 5.902344 C 23.855469 6.078125 23.742188 6.238281 23.585938 6.335938 L 13.550781 12.863281 L 9.152344 10.976562 C 8.878906 10.847656 8.769531 10.542969 8.878906 10.273438 C 8.910156 10.175781 8.992188 10.097656 9.070312 10.046875 Z M 9.070312 10.046875 "/>
</svg>
