<?xml version="1.0" encoding="UTF-8"?>
<svg xmlns="http://www.w3.org/2000/svg" xmlns:xlink="http://www.w3.org/1999/xlink" width="24" height="24" viewBox="0 0 24 24">
<path fill-rule="nonzero" fill="rgb(0%, 0%, 0%)" fill-opacity="1" d="M 19.160156 13.484375 C 19.382812 13.59375 19.65625 13.589844 19.761719 13.476562 C 19.871094 13.367188 19.777344 13.191406 19.550781 13.085938 L 15.625 11.265625 C 15.398438 11.160156 15.019531 11.136719 14.785156 11.207031 L 13.382812 11.628906 C 13.140625 11.703125 12.835938 11.761719 12.691406 11.761719 C 12.550781 11.761719 12.433594 11.5625 12.433594 11.320312 L 12.433594 7.035156 C 12.433594 6.792969 12.632812 6.59375 12.882812 6.59375 L 23.0625 6.59375 C 23.3125 6.59375 23.515625 6.398438 23.515625 6.152344 L 23.515625 4.71875 C 23.515625 4.472656 23.320312 4.21875 23.082031 4.148438 L 12.363281 1.019531 C 12.128906 0.949219 11.734375 0.949219 11.5 1.019531 L 0.910156 4.140625 C 0.675781 4.210938 0.480469 4.46875 0.480469 4.714844 L 0.480469 6.148438 C 0.480469 6.394531 0.679688 6.589844 0.929688 6.589844 L 10.976562 6.589844 C 11.226562 6.589844 11.429688 6.792969 11.429688 7.03125 L 11.429688 11.3125 C 11.429688 11.558594 11.226562 11.753906 10.976562 11.753906 L 10.796875 11.753906 C 10.546875 11.753906 10.199219 11.617188 10.019531 11.449219 L 7.59375 9.132812 C 7.414062 8.964844 7.066406 8.828125 6.816406 8.828125 L 5.699219 8.828125 C 5.449219 8.828125 5.152344 8.683594 5.035156 8.5 C 4.921875 8.324219 4.652344 8.179688 4.433594 8.179688 C 4.21875 8.179688 4.15625 8.347656 4.292969 8.554688 L 4.308594 8.585938 C 4.445312 8.792969 4.445312 9.128906 4.316406 9.335938 L 3.105469 11.21875 C 2.976562 11.425781 3.015625 11.726562 3.203125 11.890625 L 3.289062 11.964844 C 3.476562 12.128906 3.800781 12.171875 4.023438 12.058594 L 5.320312 11.378906 C 5.539062 11.265625 5.828125 11.34375 5.960938 11.542969 L 7.386719 13.722656 C 7.523438 13.929688 7.476562 14.226562 7.285156 14.386719 L 6.632812 14.929688 C 6.445312 15.085938 6.335938 15.40625 6.390625 15.648438 L 7.234375 19.320312 C 7.285156 19.558594 7.53125 19.703125 7.769531 19.644531 L 8.355469 19.503906 C 8.597656 19.441406 8.75 19.199219 8.699219 18.960938 L 8.125 16.476562 C 8.074219 16.242188 8.222656 15.992188 8.460938 15.925781 L 9.90625 15.539062 C 10.148438 15.476562 10.546875 15.421875 10.796875 15.421875 L 10.976562 15.421875 C 11.226562 15.421875 11.429688 15.625 11.429688 15.863281 L 11.429688 20.269531 C 11.429688 20.515625 11.226562 20.710938 10.976562 20.710938 L 0.929688 20.710938 C 0.679688 20.710938 0.480469 20.910156 0.480469 21.152344 L 0.480469 22.589844 C 0.480469 22.832031 0.679688 23.035156 0.929688 23.035156 L 22.882812 23.035156 C 23.132812 23.035156 23.332031 22.839844 23.332031 22.59375 L 23.332031 21.160156 C 23.332031 20.914062 23.132812 20.71875 22.882812 20.71875 L 12.886719 20.71875 C 12.636719 20.71875 12.4375 20.519531 12.4375 20.273438 L 12.4375 15.867188 C 12.4375 15.628906 12.636719 15.425781 12.886719 15.425781 L 13.40625 15.425781 C 13.65625 15.425781 14.054688 15.480469 14.292969 15.542969 L 15.738281 15.929688 C 15.980469 15.992188 16.132812 16.242188 16.074219 16.484375 L 15.503906 18.96875 C 15.445312 19.210938 15.601562 19.449219 15.84375 19.511719 L 16.433594 19.65625 C 16.675781 19.71875 16.914062 19.570312 16.972656 19.335938 L 17.816406 15.664062 C 17.875 15.421875 17.769531 15.105469 17.582031 14.953125 C 17.398438 14.796875 17.238281 14.472656 17.222656 14.230469 L 17.152344 12.929688 C 17.136719 12.6875 17.308594 12.582031 17.53125 12.6875 L 19.167969 13.488281 Z M 19.160156 13.484375 "/>
</svg>
