<?xml version="1.0" encoding="UTF-8"?>
<svg xmlns="http://www.w3.org/2000/svg" xmlns:xlink="http://www.w3.org/1999/xlink" width="24" height="24" viewBox="0 0 24 24">
<path fill-rule="nonzero" fill="rgb(0%, 0%, 0%)" fill-opacity="1" d="M 10.800781 21.519531 L 10.800781 18.222656 C 9.183594 17.710938 8 16.191406 8 14.398438 C 8 12.542969 9.265625 10.976562 10.992188 10.527344 C 9.007812 9.199219 4.800781 6.398438 4.800781 6.398438 L 4.800781 0 C 4.800781 0 19.199219 0 19.199219 0 C 19.199219 0 19.199219 6.398438 19.199219 6.398438 C 19.199219 6.398438 14.992188 9.199219 13.007812 10.527344 C 14.734375 10.976562 16 12.542969 16 14.398438 C 16 16.191406 14.816406 17.710938 13.199219 18.222656 L 13.199219 21.519531 C 15.214844 21.199219 16.527344 20.0625 17.28125 17.984375 C 17.503906 17.359375 18.191406 17.039062 18.816406 17.28125 C 19.441406 17.503906 19.761719 18.191406 19.519531 18.816406 C 18.289062 22.222656 15.695312 24 12 24 C 8.304688 24 5.710938 22.222656 4.480469 18.816406 C 4.238281 18.191406 4.558594 17.503906 5.183594 17.28125 C 5.808594 17.039062 6.496094 17.359375 6.71875 17.984375 C 7.472656 20.0625 8.785156 21.199219 10.800781 21.519531 Z M 12 16 C 12.878906 16 13.601562 15.28125 13.601562 14.398438 C 13.601562 13.519531 12.878906 12.800781 12 12.800781 C 11.121094 12.800781 10.398438 13.519531 10.398438 14.398438 C 10.398438 15.28125 11.121094 16 12 16 Z M 12 16 "/>
</svg>
