<?xml version="1.0" encoding="UTF-8"?>
<svg xmlns="http://www.w3.org/2000/svg" xmlns:xlink="http://www.w3.org/1999/xlink" width="24" height="24" viewBox="0 0 24 24">
<path fill-rule="nonzero" fill="rgb(0%, 0%, 0%)" fill-opacity="1" d="M 17.601562 20 L 20.800781 22.398438 L 20.800781 24 L 17.601562 24 C 16.527344 22.929688 15.199219 22.398438 13.601562 22.398438 C 12 22.398438 10.671875 22.929688 9.601562 24 L 6.398438 24 L 6.398438 22.398438 L 9.601562 20 Z M 24 11.199219 L 24 12.800781 C 20.574219 12.800781 17.777344 15.488281 17.601562 18.878906 L 17.601562 19.199219 L 9.601562 19.199219 C 9.601562 18.175781 9.199219 17.199219 8.464844 16.464844 L 8 16 L 8 11.199219 Z M 7.199219 12 L 7.199219 16 C 4.527344 16 2.128906 14.671875 0 12 Z M 18.398438 1.601562 C 18.800781 1.601562 19.121094 1.886719 19.183594 2.257812 L 19.199219 2.398438 L 19.199219 8.800781 C 19.199219 9.199219 18.910156 9.519531 18.542969 9.585938 L 18.398438 9.601562 L 15.199219 9.601562 C 14.800781 9.601562 14.480469 9.3125 14.414062 8.945312 L 14.398438 8.800781 L 14.398438 2.398438 C 14.398438 2 14.6875 1.679688 15.054688 1.617188 L 15.199219 1.601562 Z M 13.601562 4.800781 L 13.601562 6.398438 L 4 6.398438 C 3.550781 6.398438 3.199219 6.046875 3.199219 5.601562 C 3.199219 5.199219 3.488281 4.878906 3.855469 4.816406 L 4 4.800781 Z M 13.601562 4.800781 "/>
</svg>
