<?xml version="1.0" encoding="UTF-8"?>
<svg xmlns="http://www.w3.org/2000/svg" xmlns:xlink="http://www.w3.org/1999/xlink" width="24" height="24" viewBox="0 0 24 24">
<path fill-rule="nonzero" fill="rgb(0%, 0%, 0%)" fill-opacity="1" d="M 17.601562 15.199219 L 20.800781 17.601562 L 20.800781 19.199219 L 17.601562 19.199219 C 16.527344 18.128906 15.199219 17.601562 13.601562 17.601562 C 12 17.601562 10.671875 18.128906 9.601562 19.199219 L 6.398438 19.199219 L 6.398438 17.601562 L 9.601562 15.199219 Z M 24 6.398438 L 24 8 C 20.574219 8 17.777344 10.6875 17.601562 14.078125 L 17.601562 14.398438 L 9.601562 14.398438 C 9.601562 13.375 9.199219 12.398438 8.464844 11.664062 L 8 11.199219 L 8 6.398438 Z M 0 7.199219 L 7.199219 7.199219 L 7.199219 11.199219 C 4.527344 11.199219 2.128906 9.871094 0 7.199219 Z M 0 7.199219 "/>
</svg>
