<?xml version="1.0" encoding="UTF-8"?>
<svg xmlns="http://www.w3.org/2000/svg" xmlns:xlink="http://www.w3.org/1999/xlink" width="24" height="24" viewBox="0 0 24 24">
<path fill-rule="nonzero" fill="rgb(0%, 0%, 0%)" fill-opacity="1" d="M 15.199219 24 L 12 14.398438 L 8.800781 24 L 1.601562 24 L 2.257812 20.703125 C 2.878906 17.585938 3.199219 14.398438 3.199219 11.199219 L 4.398438 10.894531 C 7.695312 10.078125 10.480469 7.839844 12 4.800781 C 13.519531 7.839844 16.304688 10.078125 19.601562 10.894531 L 20.800781 11.199219 C 20.800781 14.398438 21.121094 17.585938 21.742188 20.703125 L 22.398438 24 Z M 4.800781 14.398438 L 4.800781 17.601562 L 7.199219 17.601562 L 8 14.398438 Z M 16 14.398438 L 16.800781 17.601562 L 19.199219 17.601562 L 19.199219 14.398438 Z M 12 0 L 19.199219 0 L 16.800781 2.398438 L 19.199219 4.800781 L 12 4.800781 Z M 12 0 "/>
</svg>
