<?xml version="1.0" encoding="UTF-8"?>
<svg xmlns="http://www.w3.org/2000/svg" xmlns:xlink="http://www.w3.org/1999/xlink" width="24" height="24" viewBox="0 0 24 24">
<path fill-rule="nonzero" fill="rgb(0%, 0%, 0%)" fill-opacity="1" d="M 19.875 10.507812 L 18.695312 5.578125 C 18.488281 4.71875 17.617188 4.175781 16.753906 4.390625 C 15.992188 4.578125 15.625 5.101562 15.46875 5.476562 C 15.292969 5.914062 14.5 7.894531 14.320312 8.304688 C 14.257812 8.449219 14.117188 8.519531 14.089844 8.535156 C 13.929688 8.601562 12.359375 9.269531 12.359375 9.269531 L 12.359375 9.273438 C 12.046875 9.417969 11.835938 9.730469 11.835938 10.089844 C 11.835938 10.589844 12.246094 10.996094 12.753906 10.996094 C 12.863281 10.996094 12.964844 10.972656 13.066406 10.9375 L 13.066406 10.945312 L 15.152344 10.074219 C 15.441406 9.941406 15.582031 9.773438 15.71875 9.527344 C 15.777344 9.421875 15.960938 8.992188 16.109375 8.636719 L 17.367188 13.902344 L 17.367188 22.054688 C 17.367188 22.867188 17.921875 23.523438 18.742188 23.53125 C 19.566406 23.535156 20.15625 22.875 20.160156 22.066406 C 20.160156 22.066406 20.167969 12.894531 20.167969 12.441406 C 20.167969 11.992188 19.988281 10.914062 19.886719 10.515625 Z M 19.875 10.507812 "/>
<path fill-rule="nonzero" fill="rgb(0%, 0%, 0%)" fill-opacity="1" d="M 8.222656 17.808594 L 8.222656 19.863281 C 8.492188 19.8125 8.703125 19.691406 8.871094 19.496094 C 9.039062 19.300781 9.121094 19.074219 9.121094 18.8125 C 9.121094 18.574219 9.054688 18.375 8.914062 18.203125 C 8.773438 18.035156 8.542969 17.902344 8.222656 17.808594 Z M 6.957031 14.617188 C 6.832031 14.785156 6.769531 14.972656 6.769531 15.171875 C 6.769531 15.359375 6.824219 15.53125 6.9375 15.691406 C 7.050781 15.847656 7.222656 15.980469 7.449219 16.078125 L 7.449219 14.257812 C 7.242188 14.328125 7.074219 14.449219 6.949219 14.617188 Z M 11.835938 12.175781 L 8.972656 6.421875 L 8.972656 6.425781 C 8.761719 5.992188 8.3125 5.691406 7.796875 5.691406 L 5.152344 5.691406 C 4.429688 5.691406 3.84375 6.273438 3.84375 6.988281 L 3.84375 23.519531 L 11.992188 23.519531 L 11.992188 12.824219 C 11.992188 12.59375 11.9375 12.375 11.839844 12.175781 Z M 9.84375 20.226562 C 9.457031 20.664062 8.917969 20.929688 8.226562 21.027344 L 8.226562 22.011719 L 7.453125 22.011719 L 7.453125 21.054688 C 6.839844 20.980469 6.34375 20.75 5.960938 20.375 C 5.578125 19.996094 5.335938 19.460938 5.226562 18.769531 L 6.613281 18.621094 C 6.671875 18.902344 6.777344 19.140625 6.9375 19.347656 C 7.089844 19.550781 7.265625 19.699219 7.453125 19.789062 L 7.453125 17.582031 C 6.757812 17.386719 6.25 17.089844 5.929688 16.691406 C 5.601562 16.292969 5.441406 15.804688 5.441406 15.238281 C 5.441406 14.664062 5.625 14.179688 5.996094 13.789062 C 6.359375 13.402344 6.847656 13.171875 7.460938 13.113281 L 7.460938 12.589844 L 8.230469 12.589844 L 8.230469 13.113281 C 8.792969 13.179688 9.246094 13.371094 9.574219 13.683594 C 9.90625 13.996094 10.125 14.417969 10.214844 14.945312 L 8.871094 15.121094 C 8.789062 14.707031 8.578125 14.425781 8.230469 14.273438 L 8.230469 16.335938 C 9.082031 16.566406 9.664062 16.859375 9.96875 17.222656 C 10.277344 17.585938 10.429688 18.054688 10.429688 18.621094 C 10.429688 19.253906 10.238281 19.789062 9.847656 20.226562 Z M 9.84375 20.226562 "/>
<path fill-rule="nonzero" fill="rgb(0%, 0%, 0%)" fill-opacity="1" d="M 13.460938 2.3125 C 13.425781 2.988281 13.769531 3.628906 14.355469 3.980469 C 14.941406 4.328125 15.675781 4.328125 16.261719 3.980469 C 16.851562 3.628906 17.195312 2.988281 17.160156 2.3125 C 17.195312 1.636719 16.851562 0.996094 16.261719 0.648438 C 15.675781 0.300781 14.941406 0.300781 14.355469 0.648438 C 13.769531 0.996094 13.425781 1.636719 13.460938 2.3125 Z M 13.460938 2.3125 "/>
</svg>
