<?xml version="1.0" encoding="UTF-8"?>
<svg xmlns="http://www.w3.org/2000/svg" xmlns:xlink="http://www.w3.org/1999/xlink" width="20" height="20" viewBox="0 0 20 20">
<path fill-rule="nonzero" fill="rgb(45.098039%, 29.019608%, 3.137255%)" fill-opacity="1" d="M 10 1.429688 C 8.105469 1.429688 6.289062 2.179688 4.949219 3.519531 C 3.609375 4.859375 2.855469 6.675781 2.855469 8.570312 C 1.273438 8.570312 0 9.847656 0 11.429688 L 0 14.285156 C 0 15.867188 1.273438 17.144531 2.855469 17.144531 L 4.285156 17.144531 L 4.285156 8.570312 C 4.285156 7.054688 4.886719 5.601562 5.960938 4.53125 C 7.03125 3.460938 8.484375 2.855469 10 2.855469 C 11.515625 2.855469 12.96875 3.460938 14.039062 4.53125 C 15.113281 5.601562 15.714844 7.054688 15.714844 8.570312 L 15.714844 17.144531 L 17.144531 17.144531 C 18.726562 17.144531 20 15.867188 20 14.285156 L 20 11.429688 C 20 9.847656 18.726562 8.570312 17.144531 8.570312 C 17.144531 7.632812 16.957031 6.703125 16.597656 5.839844 C 16.238281 4.972656 15.714844 4.183594 15.050781 3.519531 C 14.386719 2.855469 13.601562 2.332031 12.734375 1.972656 C 11.867188 1.613281 10.9375 1.429688 10 1.429688 Z M 10 7.078125 C 9.570312 7.078125 9.15625 7.25 8.851562 7.554688 C 8.542969 7.859375 8.375 8.273438 8.375 8.707031 C 8.375 9.136719 8.542969 9.550781 8.851562 9.855469 C 9.15625 10.160156 9.570312 10.332031 10 10.332031 C 10.429688 10.332031 10.84375 10.160156 11.148438 9.855469 C 11.457031 9.550781 11.625 9.136719 11.625 8.707031 C 11.625 8.273438 11.457031 7.859375 11.148438 7.554688 C 10.84375 7.25 10.429688 7.078125 10 7.078125 Z M 11.074219 11.402344 L 7.851562 12.476562 L 7.851562 13.550781 L 8.839844 13.550781 L 8.925781 18.925781 L 7.851562 18.925781 L 7.851562 20 L 12.148438 20 L 12.148438 18.925781 L 11.074219 18.925781 Z M 11.074219 11.402344 "/>
</svg>
