<?xml version="1.0" encoding="UTF-8"?>
<svg xmlns="http://www.w3.org/2000/svg" xmlns:xlink="http://www.w3.org/1999/xlink" width="20" height="20" viewBox="0 0 20 20">
<path fill-rule="nonzero" fill="rgb(67.45098%, 22.352941%, 67.45098%)" fill-opacity="1" d="M 8.570312 1.429688 C 7.144531 1.429688 5.714844 2.886719 5.714844 4.285156 L 5.714844 5.714844 L 4.644531 5.714844 L 4.644531 18.570312 L 15.355469 18.570312 L 15.355469 5.714844 L 14.285156 5.714844 L 14.285156 4.285156 C 14.285156 2.855469 12.84375 1.429688 11.429688 1.429688 Z M 9.285156 3.214844 L 10.714844 3.214844 C 11.941406 3.214844 12.5 4.070312 12.5 5 L 12.5 5.714844 L 7.5 5.714844 L 7.5 5 C 7.5 4.101562 7.9375 3.214844 9.285156 3.214844 Z M 2.855469 5.714844 C 0.917969 5.714844 0 6.632812 0 8.570312 L 0 15.714844 C 0 17.652344 1.070312 18.570312 2.855469 18.570312 Z M 17.144531 5.714844 L 17.144531 18.570312 C 18.929688 18.570312 20 17.503906 20 15.714844 L 20 8.570312 C 20 6.695312 19.109375 5.714844 17.144531 5.714844 Z M 17.144531 5.714844 "/>
</svg>
