<?xml version="1.0" encoding="UTF-8"?>
<svg xmlns="http://www.w3.org/2000/svg" xmlns:xlink="http://www.w3.org/1999/xlink" width="20" height="20" viewBox="0 0 20 20">
<path fill-rule="nonzero" fill="rgb(67.45098%, 22.352941%, 67.45098%)" fill-opacity="1" d="M 9.644531 4.285156 L 11.785156 10 L 9.644531 10 L 7.5 4.285156 C 7.5 4.285156 4.992188 4.285156 5 4.285156 L 7.144531 10 L 5 10 L 3.109375 5.109375 C 1.84375 6.089844 0 8.855469 0 11.429688 L 0 14.285156 C 0 15.132812 0.605469 15.714844 1.429688 15.714844 L 18.570312 15.714844 C 19.394531 15.714844 20 15.109375 20 14.285156 L 20 11.429688 C 20 7.90625 17.53125 5.121094 14.285156 4.285156 L 16.429688 10 L 14.285156 10 L 12.144531 4.285156 C 12.144531 4.285156 9.652344 4.285156 9.644531 4.285156 Z M 9.644531 4.285156 "/>
</svg>
