<?xml version="1.0" encoding="UTF-8"?>
<svg xmlns="http://www.w3.org/2000/svg" xmlns:xlink="http://www.w3.org/1999/xlink" width="20" height="20" viewBox="0 0 20 20">
<path fill-rule="nonzero" fill="rgb(18.431373%, 38.039216%, 20%)" fill-opacity="1" d="M 5.886719 19.464844 C 5.578125 19.382812 5.292969 19.257812 4.347656 18.792969 C 3.417969 18.332031 3.101562 18.214844 2.730469 18.179688 C 2.386719 18.148438 1.988281 18.277344 1.089844 18.71875 C 0.703125 18.910156 0.386719 19.058594 0.382812 19.050781 C 0.382812 19.046875 0.386719 18.433594 0.394531 17.691406 L 0.40625 16.34375 L 0.949219 16.078125 C 2.597656 15.277344 2.65625 15.277344 4.433594 16.136719 C 5.695312 16.746094 5.863281 16.808594 6.261719 16.808594 C 6.664062 16.8125 6.753906 16.78125 8.039062 16.175781 C 9.644531 15.417969 9.832031 15.371094 10.492188 15.59375 C 10.714844 15.667969 11.316406 15.929688 11.832031 16.175781 C 13 16.738281 13.332031 16.855469 13.679688 16.824219 C 14.058594 16.792969 14.382812 16.671875 15.5 16.132812 C 16.050781 15.867188 16.644531 15.605469 16.820312 15.550781 C 17.375 15.386719 17.757812 15.472656 18.949219 16.046875 L 19.601562 16.359375 L 19.582031 17.25 C 19.554688 18.375 19.527344 19.023438 19.507812 19.046875 C 19.496094 19.054688 19.171875 18.910156 18.789062 18.71875 C 18.019531 18.34375 17.519531 18.164062 17.234375 18.164062 C 16.925781 18.164062 16.511719 18.316406 15.457031 18.824219 C 14.902344 19.089844 14.289062 19.359375 14.085938 19.425781 C 13.5 19.609375 13.324219 19.570312 12.054688 18.964844 C 10.273438 18.117188 10.03125 18.058594 9.34375 18.289062 C 9.125 18.363281 8.507812 18.632812 7.976562 18.886719 C 6.644531 19.527344 6.386719 19.601562 5.886719 19.464844 Z M 5.886719 19.464844 "/>
<path fill-rule="nonzero" fill="rgb(18.431373%, 38.039216%, 20%)" fill-opacity="1" d="M 8.59375 8.605469 C 8.476562 8.484375 5.195312 9.980469 3.851562 10.773438 C 3.332031 11.078125 2.804688 11.328125 2.675781 11.328125 C 2.144531 11.328125 1.871094 10.660156 1.871094 9.371094 C 1.871094 7.597656 2.546875 5.792969 3.765625 4.292969 C 4.222656 3.734375 5.5 2.714844 6.011719 2.503906 C 6.296875 2.386719 6.324219 2.335938 6.324219 1.949219 C 6.324219 1.128906 7.039062 0.847656 7.550781 1.46875 C 7.816406 1.789062 7.839844 1.796875 8.261719 1.714844 C 9.070312 1.558594 10.59375 1.609375 11.417969 1.820312 C 13.449219 2.335938 15.226562 3.628906 16.226562 5.316406 C 16.640625 6.015625 16.660156 6.152344 16.394531 6.488281 C 16.230469 6.699219 16.058594 6.753906 15.113281 6.894531 C 13.3125 7.167969 10.167969 7.921875 10.050781 8.109375 C 11.144531 11.5 11.878906 13.648438 13.105469 16.980469 L 11.222656 16.214844 C 10.175781 13.046875 9.703125 11.636719 8.59375 8.605469 Z M 8.59375 8.605469 "/>
</svg>
