<?xml version="1.0" encoding="UTF-8"?>
<svg xmlns="http://www.w3.org/2000/svg" xmlns:xlink="http://www.w3.org/1999/xlink" width="20" height="20" viewBox="0 0 20 20">
<path fill-rule="nonzero" fill="rgb(67.45098%, 22.352941%, 67.45098%)" fill-opacity="1" d="M 7.144531 0 C 5.714844 0 4.285156 0.667969 2.855469 2.097656 C 1.429688 3.527344 0 4.957031 0 6.382812 C 0.953125 6.382812 1.90625 6.917969 2.855469 6.917969 C 5.035156 6.917969 5.621094 5.050781 7.144531 3.527344 C 7.914062 3.023438 8.558594 2.515625 10.667969 2.769531 C 12.898438 3.246094 17.144531 4.941406 20 6.964844 C 17.703125 4.609375 15.015625 2.015625 11.429688 0.667969 C 10 -0.0390625 8.570312 0 7.144531 0 Z M 17.632812 7.367188 L 11.875 9.867188 C 7.105469 10.648438 1.621094 8.816406 1.785156 9.019531 C 1.847656 9.097656 1.902344 9.164062 1.964844 9.242188 L 1.964844 9.285156 L 0 14.285156 L 3.707031 11.429688 L 4.285156 17.144531 L 7.097656 12.589844 C 7.359375 12.632812 7.609375 12.691406 7.902344 12.722656 L 10 17.144531 L 11.5625 12.722656 C 12.042969 12.640625 12.472656 12.476562 12.902344 12.320312 L 15.714844 15.714844 L 15.757812 10.492188 C 15.839844 10.40625 15.90625 10.308594 15.980469 10.222656 L 20 12.855469 L 17.320312 8.167969 C 17.4375 7.910156 17.550781 7.632812 17.632812 7.367188 Z M 17.632812 7.367188 "/>
</svg>
