<?xml version="1.0" encoding="UTF-8"?>
<svg xmlns="http://www.w3.org/2000/svg" xmlns:xlink="http://www.w3.org/1999/xlink" width="24" height="24" viewBox="0 0 24 24">
<path fill-rule="nonzero" fill="rgb(0%, 0%, 0%)" fill-opacity="1" d="M 14.910156 10.800781 C 15.265625 10.800781 15.566406 11.054688 15.632812 11.390625 L 15.632812 14.128906 L 16.703125 15.199219 C 18.542969 15.375 20 16.910156 20 18.800781 C 20 20.800781 18.367188 22.433594 16.367188 22.433594 C 14.367188 22.433594 12.71875 20.800781 12.71875 18.800781 C 12.71875 17.40625 13.519531 16.191406 14.671875 15.585938 L 14.910156 15.472656 L 14.335938 14.878906 L 10.734375 16.929688 C 11.070312 17.472656 11.28125 18.113281 11.28125 18.800781 C 11.28125 20.800781 9.632812 22.433594 7.632812 22.433594 C 5.632812 22.433594 4 20.800781 4 18.800781 C 4 16.800781 5.632812 15.167969 7.632812 15.167969 C 7.839844 15.167969 8.03125 15.183594 8.222656 15.214844 L 8.496094 15.28125 L 7.871094 13.710938 L 7.535156 13.710938 C 6.609375 13.726562 6.542969 12.414062 7.359375 12.273438 L 7.535156 12.257812 L 10.480469 12.257812 C 11.40625 12.238281 11.457031 13.550781 10.640625 13.695312 L 10.480469 13.710938 L 9.441406 13.710938 L 10.191406 15.566406 L 14.175781 13.296875 L 14.175781 12.257812 L 13.457031 12.257812 C 12.527344 12.273438 12.480469 10.960938 13.296875 10.816406 L 13.457031 10.800781 Z M 12 0 L 24 6.398438 L 24 22.398438 L 20.800781 22.398438 L 20.800781 8 L 3.199219 8 L 3.199219 22.398438 L 0 22.398438 L 0 6.398438 Z M 7.632812 16.625 C 6.414062 16.625 5.457031 17.585938 5.457031 18.800781 C 5.457031 20.015625 6.414062 20.976562 7.632812 20.976562 C 8.847656 20.976562 9.824219 20.015625 9.824219 18.800781 C 9.824219 17.585938 8.847656 16.625 7.632812 16.625 Z M 16.367188 16.625 C 15.152344 16.625 14.175781 17.585938 14.175781 18.800781 C 14.175781 20.015625 15.152344 20.976562 16.367188 20.976562 C 17.585938 20.976562 18.542969 20.015625 18.542969 18.800781 C 18.542969 17.585938 17.585938 16.625 16.367188 16.625 Z M 16.367188 16.625 "/>
</svg>
