<?xml version="1.0" encoding="UTF-8"?>
<svg xmlns="http://www.w3.org/2000/svg" xmlns:xlink="http://www.w3.org/1999/xlink" width="24" height="24" viewBox="0 0 24 24">
<path fill-rule="nonzero" fill="rgb(0%, 0%, 0%)" fill-opacity="1" d="M 13.601562 3.601562 L 15.199219 3.601562 C 15.648438 3.601562 16 3.953125 16 4.398438 L 16 7.265625 L 17.167969 8.433594 C 19.199219 8.625 20.800781 10.320312 20.800781 12.398438 C 20.800781 14.59375 18.992188 16.398438 16.800781 16.398438 C 14.609375 16.398438 12.800781 14.59375 12.800781 12.398438 C 12.800781 10.769531 13.792969 9.359375 15.199219 8.734375 L 14.558594 8.078125 L 10.609375 10.335938 C 10.976562 10.945312 11.199219 11.648438 11.199219 12.398438 C 11.199219 14.59375 9.390625 16.398438 7.199219 16.398438 C 5.007812 16.398438 3.199219 14.59375 3.199219 12.398438 C 3.199219 10.207031 5.007812 8.398438 7.199219 8.398438 C 7.519531 8.398438 7.839844 8.449219 8.144531 8.527344 L 7.457031 6.800781 L 7.089844 6.800781 C 6 6.816406 6 5.183594 7.089844 5.199219 L 10.320312 5.199219 C 11.40625 5.183594 11.40625 6.816406 10.320312 6.800781 L 9.183594 6.800781 L 10 8.847656 L 14.398438 6.335938 L 14.398438 5.199219 L 13.601562 5.199219 C 12.511719 5.214844 12.511719 3.585938 13.601562 3.601562 Z M 7.199219 10 C 5.871094 10 4.800781 11.070312 4.800781 12.398438 C 4.800781 13.726562 5.871094 14.800781 7.199219 14.800781 C 8.527344 14.800781 9.601562 13.726562 9.601562 12.398438 C 9.601562 11.070312 8.527344 10 7.199219 10 Z M 16.800781 10 C 15.472656 10 14.398438 11.070312 14.398438 12.398438 C 14.398438 13.726562 15.472656 14.800781 16.800781 14.800781 C 18.128906 14.800781 19.199219 13.726562 19.199219 12.398438 C 19.199219 11.070312 18.128906 10 16.800781 10 Z M 18.398438 18.800781 L 17.601562 17.199219 L 20.800781 17.199219 L 22.398438 20.398438 L 1.601562 20.398438 L 3.199219 17.199219 L 6.398438 17.199219 L 5.601562 18.800781 Z M 18.398438 18.800781 "/>
</svg>
