<?xml version="1.0" encoding="UTF-8"?>
<svg xmlns="http://www.w3.org/2000/svg" xmlns:xlink="http://www.w3.org/1999/xlink" width="24" height="24" viewBox="0 0 24 24">
<path fill-rule="nonzero" fill="rgb(0%, 0%, 0%)" fill-opacity="1" d="M 0.800781 3.199219 L 23.199219 3.199219 C 23.648438 3.199219 24 3.550781 24 4 L 24 20 C 24 20.449219 23.648438 20.800781 23.199219 20.800781 L 0.800781 20.800781 C 0.351562 20.800781 0 20.449219 0 20 L 0 4 C 0 3.550781 0.351562 3.199219 0.800781 3.199219 Z M 1.601562 4.800781 L 1.601562 19.199219 L 19.199219 19.199219 L 19.199219 4.800781 Z M 21.601562 6.398438 C 21.152344 6.398438 20.800781 6.753906 20.800781 7.199219 L 20.800781 10.398438 C 20.800781 10.847656 21.152344 11.199219 21.601562 11.199219 C 22.046875 11.199219 22.398438 10.847656 22.398438 10.398438 L 22.398438 7.199219 C 22.398438 6.753906 22.046875 6.398438 21.601562 6.398438 Z M 11.855469 6 L 13.3125 6 C 13.710938 6 14.03125 6.320312 14.03125 6.71875 L 14.03125 9.328125 L 15.105469 10.398438 C 16.945312 10.574219 18.398438 12.113281 18.398438 14 C 18.398438 16 16.769531 17.632812 14.769531 17.632812 C 12.769531 17.632812 11.121094 16 11.121094 14 C 11.121094 12.511719 12.03125 11.230469 13.3125 10.671875 L 12.734375 10.078125 L 9.136719 12.128906 C 9.472656 12.671875 9.679688 13.3125 9.679688 14 C 9.679688 16 8.03125 17.632812 6.03125 17.632812 C 4.03125 17.632812 2.398438 16 2.398438 14 C 2.398438 12 4.03125 10.367188 6.03125 10.367188 C 6.335938 10.367188 6.625 10.414062 6.894531 10.480469 L 6.273438 8.910156 L 5.9375 8.910156 C 4.945312 8.929688 4.945312 7.441406 5.9375 7.457031 L 8.878906 7.457031 C 9.855469 7.441406 9.855469 8.929688 8.878906 8.910156 L 7.839844 8.910156 L 8.59375 10.769531 L 12.574219 8.496094 L 12.574219 7.457031 L 11.855469 7.457031 C 10.863281 7.472656 10.863281 5.984375 11.855469 6 Z M 6.03125 11.824219 C 4.816406 11.824219 3.855469 12.785156 3.855469 14 C 3.855469 15.214844 4.816406 16.175781 6.03125 16.175781 C 7.246094 16.175781 8.222656 15.214844 8.222656 14 C 8.222656 12.785156 7.246094 11.824219 6.03125 11.824219 Z M 14.769531 11.824219 C 13.550781 11.824219 12.574219 12.785156 12.574219 14 C 12.574219 15.214844 13.550781 16.175781 14.769531 16.175781 C 15.984375 16.175781 16.945312 15.214844 16.945312 14 C 16.945312 12.785156 15.984375 11.824219 14.769531 11.824219 Z M 14.769531 11.824219 "/>
</svg>
