<?xml version="1.0" encoding="UTF-8"?>
<svg xmlns="http://www.w3.org/2000/svg" xmlns:xlink="http://www.w3.org/1999/xlink" width="20" height="20" viewBox="0 0 20 20">
<path fill-rule="nonzero" fill="rgb(0%, 57.254902%, 85.490196%)" fill-opacity="1" d="M 3.921875 0 C 2.90625 0 1.964844 0.589844 1.429688 1.429688 L 4.8125 1.429688 L 5.703125 2.855469 L 4.8125 4.285156 L 1.429688 4.285156 C 1.964844 5.125 2.90625 5.710938 3.921875 5.714844 C 5.003906 5.714844 5.9375 5.136719 6.445312 4.285156 L 13.109375 4.285156 C 13.617188 5.136719 14.554688 5.714844 15.640625 5.714844 C 17.257812 5.714844 18.570312 4.433594 18.570312 2.855469 C 18.570312 1.277344 17.257812 0 15.640625 0 C 14.554688 0 13.617188 0.578125 13.109375 1.429688 L 6.445312 1.429688 C 5.9375 0.578125 5.003906 0 3.921875 0 Z M 14.746094 1.429688 L 16.53125 1.429688 L 17.421875 2.855469 L 16.53125 4.285156 L 14.746094 4.285156 L 13.855469 2.855469 Z M 11.402344 7.789062 L 11.449219 9.214844 L 12.828125 10.015625 L 12.828125 11.441406 L 7.128906 11.441406 L 7.128906 10.015625 L 7.839844 10.015625 C 9.265625 10.015625 9.265625 8.589844 7.839844 8.589844 L 4.992188 8.589844 C 3.566406 8.589844 3.566406 10.015625 4.992188 10.015625 L 5.703125 10.015625 L 5.703125 11.441406 L 4.902344 13.402344 C 4.84375 13.402344 4.785156 13.402344 4.722656 13.402344 C 2.914062 13.402344 1.429688 14.890625 1.429688 16.703125 C 1.429688 18.515625 2.914062 20 4.722656 20 C 6.535156 20 8.019531 18.515625 8.019531 16.703125 C 8.019531 16.359375 7.941406 16.03125 7.839844 15.71875 L 9.976562 15.71875 L 13.050781 12.867188 L 13.453125 13.894531 C 12.539062 14.488281 11.9375 15.546875 11.9375 16.703125 C 11.9375 18.515625 13.421875 20 15.230469 20 C 17.042969 20 18.570312 18.515625 18.570312 16.703125 C 18.570312 14.890625 17.042969 13.402344 15.230469 13.402344 C 15.171875 13.402344 15.113281 13.402344 15.054688 13.402344 L 14.253906 11.441406 L 14.253906 9.480469 Z M 6.90625 12.867188 L 11.339844 12.867188 L 9.476562 14.652344 L 7.261719 14.652344 C 7.042969 14.382812 6.792969 14.085938 6.503906 13.894531 Z M 4.722656 15.007812 C 5.667969 15.007812 6.414062 15.757812 6.414062 16.703125 C 6.414062 17.648438 5.667969 18.394531 4.722656 18.394531 C 3.78125 18.394531 3.03125 17.648438 3.03125 16.703125 C 3.03125 15.757812 3.78125 15.007812 4.722656 15.007812 Z M 15.230469 15.007812 C 16.175781 15.007812 16.925781 15.757812 16.925781 16.703125 C 16.925781 17.648438 16.175781 18.394531 15.230469 18.394531 C 14.289062 18.394531 13.585938 17.648438 13.585938 16.703125 C 13.585938 15.757812 14.289062 15.007812 15.230469 15.007812 Z M 15.230469 15.007812 "/>
</svg>
