<?xml version="1.0" encoding="UTF-8"?>
<svg xmlns="http://www.w3.org/2000/svg" xmlns:xlink="http://www.w3.org/1999/xlink" width="20" height="20" viewBox="0 0 20 20">
<path fill-rule="nonzero" fill="rgb(67.45098%, 22.352941%, 67.45098%)" fill-opacity="1" d="M 11.429688 0.910156 L 11.429688 2.5 L 13.214844 3.921875 L 13.214844 5.910156 L 7.144531 5.910156 L 7.144531 4.546875 L 7.855469 4.546875 C 9.285156 4.546875 9.285156 2.726562 7.855469 2.726562 L 5 2.726562 C 3.570312 2.726562 3.570312 4.546875 5 4.546875 L 5.714844 4.546875 L 5.714844 5.910156 L 4.375 9.089844 C 4.34375 9.089844 4.316406 9.089844 4.285156 9.089844 C 1.984375 9.089844 0 11.613281 0 14.546875 C 0 17.476562 1.984375 20 4.285156 20 C 6.589844 20 8.570312 17.476562 8.570312 14.546875 C 8.570312 13.917969 8.46875 13.296875 8.304688 12.726562 L 8.929688 12.726562 C 10 12.726562 10.246094 11.902344 10.625 11.421875 L 13.167969 7.726562 L 13.929688 9.601562 C 12.46875 10.484375 11.429688 12.410156 11.429688 14.546875 C 11.429688 17.476562 13.410156 20 15.714844 20 C 18.015625 20 20 17.476562 20 14.546875 C 20 11.613281 18.015625 9.089844 15.714844 9.089844 C 15.667969 9.089844 15.625 9.089844 15.582031 9.089844 L 14.285156 5.910156 L 14.285156 3.011719 Z M 6.832031 7.726562 L 11.292969 7.726562 L 9.0625 10.910156 L 7.457031 10.910156 C 7.429688 10.910156 7.394531 10.914062 7.367188 10.910156 C 6.988281 10.394531 6.570312 9.964844 6.070312 9.660156 C 6.054688 9.625 6.042969 9.578125 6.027344 9.546875 Z M 4.285156 10.910156 C 5.722656 10.910156 7.144531 12.71875 7.144531 14.546875 C 7.144531 16.375 5.722656 18.183594 4.285156 18.183594 C 2.847656 18.183594 1.429688 16.375 1.429688 14.546875 C 1.429688 12.71875 2.847656 10.910156 4.285156 10.910156 Z M 15.714844 10.910156 C 17.152344 10.910156 18.570312 12.71875 18.570312 14.546875 C 18.570312 16.375 17.152344 18.183594 15.714844 18.183594 C 14.277344 18.183594 12.855469 16.375 12.855469 14.546875 C 12.855469 12.71875 14.277344 10.910156 15.714844 10.910156 Z M 15.714844 10.910156 "/>
</svg>
