<?xml version="1.0" encoding="UTF-8"?>
<svg xmlns="http://www.w3.org/2000/svg" xmlns:xlink="http://www.w3.org/1999/xlink" width="24" height="24" viewBox="0 0 24 24">
<path fill-rule="nonzero" fill="rgb(0%, 0%, 0%)" fill-opacity="1" d="M 1.601562 3.199219 L 22.398438 3.199219 L 22.398438 20.800781 L 1.601562 20.800781 Z M 3.199219 4.800781 L 3.199219 19.199219 L 20.800781 19.199219 L 20.800781 4.800781 Z M 3.199219 4.800781 "/>
<path fill-rule="nonzero" fill="rgb(0%, 0%, 0%)" fill-opacity="1" d="M 13.457031 6 C 12.464844 5.984375 12.464844 7.472656 13.457031 7.457031 L 14.175781 7.457031 L 14.175781 8.496094 L 10.191406 10.769531 L 9.441406 8.910156 L 10.480469 8.910156 C 11.457031 8.929688 11.457031 7.441406 10.480469 7.457031 L 7.535156 7.457031 C 6.542969 7.441406 6.542969 8.929688 7.535156 8.910156 L 7.871094 8.910156 L 8.496094 10.480469 C 8.222656 10.414062 7.9375 10.367188 7.632812 10.367188 C 5.632812 10.367188 4 12 4 14 C 4 16 5.632812 17.632812 7.632812 17.632812 C 9.632812 17.632812 11.28125 16 11.28125 14 C 11.28125 13.3125 11.070312 12.671875 10.734375 12.128906 L 14.335938 10.078125 L 14.910156 10.671875 C 13.632812 11.230469 12.71875 12.511719 12.71875 14 C 12.71875 16 14.367188 17.632812 16.367188 17.632812 C 18.367188 17.632812 20 16 20 14 C 20 12.113281 18.542969 10.574219 16.703125 10.398438 L 15.632812 9.328125 L 15.632812 6.71875 C 15.632812 6.320312 15.3125 6 14.910156 6 Z M 7.632812 11.824219 C 8.847656 11.824219 9.824219 12.785156 9.824219 14 C 9.824219 15.214844 8.847656 16.175781 7.632812 16.175781 C 6.414062 16.175781 5.457031 15.214844 5.457031 14 C 5.457031 12.785156 6.414062 11.824219 7.632812 11.824219 Z M 16.367188 11.824219 C 17.585938 11.824219 18.542969 12.785156 18.542969 14 C 18.542969 15.214844 17.585938 16.175781 16.367188 16.175781 C 15.152344 16.175781 14.175781 15.214844 14.175781 14 C 14.175781 12.785156 15.152344 11.824219 16.367188 11.824219 Z M 16.367188 11.824219 "/>
</svg>
