<?xml version="1.0" encoding="UTF-8"?>
<svg xmlns="http://www.w3.org/2000/svg" xmlns:xlink="http://www.w3.org/1999/xlink" width="20" height="20" viewBox="0 0 20 20">
<path fill-rule="nonzero" fill="rgb(0%, 57.254902%, 85.490196%)" fill-opacity="1" d="M 0 0 L 0 14.285156 L 2.855469 14.285156 L 2.855469 9.285156 L 6.429688 9.285156 C 9.25 9.285156 11.429688 7.855469 11.429688 4.644531 C 11.429688 1.429688 9.265625 0 7.097656 0 Z M 2.855469 2.855469 L 6.429688 2.855469 C 7.804688 2.855469 8.570312 3.609375 8.570312 4.644531 C 8.570312 5.679688 7.667969 6.429688 6.429688 6.429688 L 2.855469 6.429688 Z M 12.855469 10 L 12.855469 10.847656 L 13.570312 11.429688 L 13.570312 12.5 L 9.285156 12.5 L 9.285156 12.144531 L 10 12.144531 C 10.683594 12.144531 10.652344 11.429688 10 11.429688 L 7.859375 11.429688 C 7.144531 11.429688 7.144531 12.074219 7.859375 12.144531 L 8.570312 12.144531 L 8.570312 12.5 L 7.769531 14.332031 C 7.566406 14.289062 7.355469 14.285156 7.144531 14.285156 C 5.683594 14.285156 4.285156 15.417969 4.285156 17.144531 C 4.285156 18.867188 5.683594 20 7.144531 20 C 8.601562 20 9.910156 18.777344 9.910156 17.054688 C 9.910156 16.839844 9.90625 16.621094 9.867188 16.429688 L 11.070312 16.429688 L 13.675781 13.570312 L 14.195312 14.6875 C 13.40625 15.164062 12.859375 16.042969 12.859375 17.144531 C 12.859375 18.867188 14.253906 20 15.714844 20 C 17.175781 20 18.484375 18.777344 18.484375 17.054688 C 18.484375 15.332031 17.175781 14.285156 15.714844 14.285156 C 15.5 14.285156 15.296875 14.328125 15.089844 14.375 L 14.285156 12.5 L 14.285156 11.144531 Z M 9.152344 13.570312 L 12.285156 13.570312 L 10.582031 15.355469 L 9.375 15.355469 C 9.175781 15.089844 8.941406 14.859375 8.660156 14.6875 Z M 7.144531 15.714844 C 8.050781 15.714844 8.570312 16.5 8.570312 17.144531 C 8.570312 17.785156 8.050781 18.570312 7.144531 18.570312 C 6.234375 18.570312 5.714844 17.785156 5.714844 17.144531 C 5.714844 16.5 6.234375 15.714844 7.144531 15.714844 Z M 15.714844 15.714844 C 16.621094 15.714844 17.144531 16.5 17.144531 17.144531 C 17.144531 17.785156 16.621094 18.570312 15.714844 18.570312 C 14.808594 18.570312 14.285156 17.785156 14.285156 17.144531 C 14.285156 16.5 14.808594 15.714844 15.714844 15.714844 Z M 15.714844 15.714844 "/>
</svg>
