<?xml version="1.0" encoding="UTF-8"?>
<svg xmlns="http://www.w3.org/2000/svg" xmlns:xlink="http://www.w3.org/1999/xlink" width="24" height="24" viewBox="0 0 24 24">
<path fill-rule="nonzero" fill="rgb(0%, 0%, 0%)" fill-opacity="1" d="M 1.601562 3.199219 L 22.398438 3.199219 L 22.398438 16.800781 L 1.601562 16.800781 Z M 4 4.800781 C 3.550781 4.800781 3.199219 5.152344 3.199219 5.601562 C 3.199219 6.046875 3.550781 6.398438 4 6.398438 L 8.800781 6.398438 C 9.246094 6.398438 9.601562 6.046875 9.601562 5.601562 C 9.601562 5.152344 9.246094 4.800781 8.800781 4.800781 Z M 4 8 C 3.550781 8 3.199219 8.351562 3.199219 8.800781 C 3.199219 9.246094 3.550781 9.601562 4 9.601562 L 5.601562 9.601562 C 6.046875 9.601562 6.398438 9.246094 6.398438 8.800781 C 6.398438 8.351562 6.046875 8 5.601562 8 Z M 8.800781 8 C 8.351562 8 8 8.351562 8 8.800781 C 8 9.246094 8.351562 9.601562 8.800781 9.601562 L 15.199219 9.601562 C 15.648438 9.601562 16 9.246094 16 8.800781 C 16 8.351562 15.648438 8 15.199219 8 Z M 4 11.199219 C 3.550781 11.199219 3.199219 11.550781 3.199219 12 C 3.199219 12.449219 3.550781 12.800781 4 12.800781 L 12 12.800781 C 12.449219 12.800781 12.800781 12.449219 12.800781 12 C 12.800781 11.550781 12.449219 11.199219 12 11.199219 Z M 9.601562 17.601562 L 14.398438 17.601562 L 14.398438 22.398438 L 9.601562 22.398438 Z M 16 17.601562 L 20.800781 17.601562 L 20.800781 19.199219 L 16 19.199219 Z M 3.199219 17.601562 L 8 17.601562 L 8 19.199219 L 3.199219 19.199219 Z M 3.199219 17.601562 "/>
</svg>
