<?xml version="1.0" encoding="UTF-8"?>
<svg xmlns="http://www.w3.org/2000/svg" xmlns:xlink="http://www.w3.org/1999/xlink" width="24" height="24" viewBox="0 0 24 24">
<path fill-rule="nonzero" fill="rgb(0%, 0%, 0%)" fill-opacity="1" d="M 24 0.800781 C 24 0.800781 24 24 24 24 L 1.601562 24 C 1.199219 24 1.199219 22.398438 1.601562 22.398438 L 4.800781 22.398438 C 4.800781 22.398438 4.800781 15.199219 4.800781 15.199219 C 4.800781 14.800781 6.398438 14.800781 6.398438 15.199219 C 6.398438 15.199219 6.398438 21.632812 6.398438 21.632812 L 12 18.960938 C 12 18.960938 12 12 12 12 C 12 11.601562 13.601562 11.601562 13.601562 12 C 13.601562 12 13.601562 18.207031 13.601562 18.207031 L 19.199219 15.519531 C 19.199219 15.519531 19.199219 8.800781 19.199219 8.800781 C 19.199219 8.398438 20.800781 8.398438 20.800781 8.800781 C 20.800781 8.800781 20.800781 14.769531 20.800781 14.769531 L 22.398438 14 C 22.398438 14 22.398438 0.800781 22.398438 0.800781 C 22.398438 0.398438 24 0.398438 24 0.800781 Z M 22.398438 15.601562 L 20.800781 16.320312 L 20.800781 22.398438 L 22.398438 22.398438 Z M 19.199219 17.121094 L 13.601562 19.761719 L 13.601562 22.398438 L 19.199219 22.398438 Z M 12 20.558594 L 8.160156 22.398438 L 12 22.398438 Z M 4 19.199219 L 0.398438 19.199219 C 0 19.199219 0 20.800781 0.398438 20.800781 L 4 20.800781 C 4.398438 20.800781 4.398438 19.199219 4 19.199219 Z M 11.199219 16 L 7.601562 16 C 7.199219 16 7.199219 17.601562 7.601562 17.601562 L 11.199219 17.601562 C 11.601562 17.601562 11.601562 16 11.199219 16 Z M 18.398438 12.800781 L 14.800781 12.800781 C 14.398438 12.800781 14.398438 14.398438 14.800781 14.398438 L 18.398438 14.398438 C 18.800781 14.398438 18.800781 12.800781 18.398438 12.800781 Z M 7.199219 12.800781 L 3.199219 12.800781 C 2.800781 12.800781 2.800781 14.398438 3.199219 14.398438 C 3.199219 14.398438 7.199219 14.398438 7.199219 14.398438 C 7.601562 14.398438 7.601562 12.800781 7.199219 12.800781 Z M 14.398438 9.601562 L 10.398438 9.601562 C 10 9.601562 10 11.199219 10.398438 11.199219 L 14.398438 11.199219 C 14.800781 11.199219 14.800781 9.601562 14.398438 9.601562 Z M 21.601562 6.398438 L 17.601562 6.398438 C 17.199219 6.398438 17.199219 8 17.601562 8 L 21.601562 8 C 22 8 22 6.398438 21.601562 6.398438 Z M 21.601562 6.398438 "/>
</svg>
