<?xml version="1.0" encoding="UTF-8"?>
<svg xmlns="http://www.w3.org/2000/svg" xmlns:xlink="http://www.w3.org/1999/xlink" width="24" height="24" viewBox="0 0 24 24">
<path fill-rule="nonzero" fill="rgb(0%, 0%, 0%)" fill-opacity="1" d="M 10.621094 2.042969 C 10.632812 1.054688 9.820312 0.238281 8.832031 0.25 C 7.820312 0.238281 7.003906 1.054688 7.007812 2.042969 C 7.003906 3.058594 7.820312 3.863281 8.832031 3.867188 C 9.820312 3.867188 10.632812 3.058594 10.621094 2.042969 Z M 15.824219 11.945312 L 10.035156 4.925781 C 9.734375 4.476562 8.058594 4.292969 7.347656 4.863281 L 4.53125 9.988281 L 5.222656 14.324219 C 5.929688 15.457031 7.324219 14.308594 6.929688 13.691406 L 6.460938 10.621094 L 7.679688 8.164062 L 7.679688 13.925781 L 4.800781 21.605469 C 4.300781 23.28125 6.707031 24.183594 7.199219 22.566406 L 10.558594 13.925781 L 10.558594 9.605469 L 9.148438 7.65625 C 9.078125 7.574219 9.089844 7.445312 9.175781 7.371094 C 9.265625 7.300781 9.390625 7.316406 9.457031 7.398438 L 14.269531 13.09375 C 15.046875 14.15625 16.597656 13.027344 15.824219 11.957031 Z M 13.613281 21.691406 L 10.769531 14.617188 L 9.605469 17.761719 L 11.273438 22.640625 C 11.945312 24.214844 14.308594 23.292969 13.617188 21.691406 Z M 21.152344 23.3125 L 21.164062 23.328125 C 21.277344 23.460938 21.476562 23.476562 21.609375 23.367188 C 21.730469 23.265625 21.75 23.082031 21.667969 22.953125 L 16.304688 13.644531 L 16.292969 13.628906 C 16.1875 13.496094 15.984375 13.476562 15.847656 13.59375 C 15.730469 13.695312 15.71875 13.867188 15.796875 14.007812 L 21.148438 23.3125 Z M 21.152344 23.3125 "/>
</svg>
