<?xml version="1.0" encoding="UTF-8" standalone="no"?>
<!-- Created with Inkscape (http://www.inkscape.org/) -->

<svg
   width="6.6898112mm"
   height="6.7953739mm"
   viewBox="0 0 6.6898112 6.7953739"
   version="1.1"
   id="svg1"
   xml:space="preserve"
   inkscape:version="1.3.2 (091e20e, 2023-11-25, custom)"
   sodipodi:docname="blue_blue_circle_v_blue.svg"
   xmlns:inkscape="http://www.inkscape.org/namespaces/inkscape"
   xmlns:sodipodi="http://sodipodi.sourceforge.net/DTD/sodipodi-0.dtd"
   xmlns="http://www.w3.org/2000/svg"
   xmlns:svg="http://www.w3.org/2000/svg"><sodipodi:namedview
     id="namedview1"
     pagecolor="#ffffff"
     bordercolor="#666666"
     borderopacity="1.0"
     inkscape:showpageshadow="2"
     inkscape:pageopacity="0.0"
     inkscape:pagecheckerboard="0"
     inkscape:deskcolor="#d1d1d1"
     inkscape:document-units="mm"
     inkscape:zoom="5.8511223"
     inkscape:cx="28.370625"
     inkscape:cy="38.539615"
     inkscape:window-width="1920"
     inkscape:window-height="1017"
     inkscape:window-x="-8"
     inkscape:window-y="-8"
     inkscape:window-maximized="1"
     inkscape:current-layer="layer1" /><defs
     id="defs1" /><g
     inkscape:label="Layer 1"
     inkscape:groupmode="layer"
     id="layer1"
     transform="translate(-68.853071,-138.74479)"><circle
       style="fill:#f9f9f9;fill-opacity:1;stroke:none;stroke-width:0.2;stroke-linecap:round;paint-order:stroke fill markers"
       id="path2"
       cx="72.221901"
       cy="142.06841"
       r="3.052299" /><path
       style="fill:#04afcb;fill-opacity:1;stroke-width:0.387341"
       d="m 71.485083,145.46257 c -3.100839,-0.72321 -3.601633,-4.96416 -0.751798,-6.36655 2.587857,-1.27348 5.420868,1.11573 4.693809,3.95849 -0.428071,1.67375 -2.268936,2.79828 -3.942011,2.40806 z m 1.498601,-0.70181 c 2.490214,-0.84049 2.546903,-4.35411 0.08387,-5.19842 -2.198501,-0.75362 -4.249477,1.4718 -3.363305,3.64938 0.507958,1.2482 2.034463,1.96925 3.279433,1.54904 z m -1.072962,-0.37295 c -0.140186,-0.0884 -0.159722,-0.11822 -0.337622,-0.51595 -0.08803,-0.1968 -0.19013,-0.42404 -0.226896,-0.505 -0.03677,-0.081 -0.125467,-0.27964 -0.197113,-0.44153 -0.07164,-0.1619 -0.189491,-0.42682 -0.261878,-0.58873 -0.697383,-1.55975 -0.710982,-1.61293 -0.467805,-1.82967 0.239849,-0.21377 0.532875,-0.033 0.707482,0.43647 0.02407,0.0647 0.09006,0.22804 0.146662,0.36295 0.05659,0.13492 0.22558,0.54702 0.375517,0.91578 0.149938,0.36877 0.31793,0.78088 0.373317,0.91579 0.05539,0.13491 0.100755,0.25 0.100816,0.25575 6.2e-5,0.006 0.03151,0.006 0.06988,0 0.05324,-0.008 0.09503,-0.0725 0.176322,-0.2721 0.05861,-0.14391 0.179731,-0.43827 0.269172,-0.65414 0.08944,-0.21586 0.20408,-0.4955 0.254755,-0.62141 0.301386,-0.74893 0.510843,-1.2214 0.578986,-1.30603 0.119165,-0.14801 0.371323,-0.14125 0.531751,0.0142 0.177088,0.17165 0.162228,0.26426 -0.160048,0.99742 -1.363495,3.10194 -1.232737,2.86803 -1.613857,2.887 -0.174124,0.009 -0.24225,-0.002 -0.319444,-0.0508 z"
       id="path1" /></g></svg>
