<?xml version="1.0" encoding="UTF-8"?>
<svg xmlns="http://www.w3.org/2000/svg" xmlns:xlink="http://www.w3.org/1999/xlink" width="24" height="24" viewBox="0 0 24 24">
<path fill-rule="nonzero" fill="rgb(0%, 0%, 0%)" fill-opacity="1" d="M 24 4.800781 L 24 17.601562 C 24 19.359375 22.558594 20.800781 20.800781 20.800781 L 9.601562 20.800781 C 7.839844 20.800781 6.398438 19.359375 6.398438 17.601562 L 6.398438 4.800781 C 6.398438 3.039062 7.839844 1.601562 9.601562 1.601562 L 20.800781 1.601562 C 22.558594 1.601562 24 3.039062 24 4.800781 Z M 17.601562 16.800781 C 17.601562 17.679688 18.320312 18.398438 19.199219 18.398438 C 20.078125 18.398438 20.800781 17.679688 20.800781 16.800781 C 20.800781 15.921875 20.078125 15.199219 19.199219 15.199219 C 18.320312 15.199219 17.601562 15.921875 17.601562 16.800781 Z M 12.800781 16.800781 C 12.800781 15.921875 12.078125 15.199219 11.199219 15.199219 C 10.320312 15.199219 9.601562 15.921875 9.601562 16.800781 C 9.601562 17.679688 10.320312 18.398438 11.199219 18.398438 C 12.078125 18.398438 12.800781 17.679688 12.800781 16.800781 Z M 8 7.199219 L 8.015625 12 C 8.015625 12.449219 8.382812 12.800781 8.816406 12.800781 L 13.617188 12.800781 C 14.046875 12.800781 14.414062 12.449219 14.414062 12 L 14.382812 7.199219 C 14.382812 6.753906 14.03125 6.398438 13.585938 6.398438 L 8.800781 6.398438 C 8.351562 6.398438 8 6.753906 8 7.199219 Z M 16 7.199219 L 16.015625 12 C 16.015625 12.449219 16.382812 12.800781 16.816406 12.800781 L 21.617188 12.800781 C 22.046875 12.800781 22.414062 12.449219 22.414062 12 L 22.382812 7.199219 C 22.382812 6.753906 22.03125 6.398438 21.585938 6.398438 L 16.800781 6.398438 C 16.351562 6.398438 16 6.753906 16 7.199219 Z M 9.601562 4 C 9.601562 4.449219 9.953125 4.800781 10.398438 4.800781 L 20 4.800781 C 20.449219 4.800781 20.800781 4.449219 20.800781 4 C 20.800781 3.550781 20.449219 3.199219 20 3.199219 L 10.398438 3.199219 C 9.953125 3.199219 9.601562 3.550781 9.601562 4 Z M 2.398438 17.390625 L 2.398438 19.199219 L 2.351562 19.457031 L 1.550781 21.855469 C 1.425781 22.273438 0.960938 22.496094 0.542969 22.351562 C 0.128906 22.222656 -0.0976562 21.761719 0.046875 21.34375 L 0.800781 19.070312 L 0.800781 17.390625 C 0.320312 17.105469 0 16.59375 0 16 L 0 13.199219 C 0 12.320312 0.71875 11.601562 1.601562 11.601562 C 1.9375 11.601562 2.238281 11.695312 2.511719 11.886719 L 3.855469 12.609375 L 5.039062 11.441406 C 5.34375 11.121094 5.855469 11.121094 6.160156 11.441406 C 6.480469 11.742188 6.480469 12.257812 6.160156 12.558594 L 4.558594 14.160156 C 4.320312 14.414062 3.9375 14.480469 3.617188 14.304688 L 3.199219 14.078125 L 3.199219 15.902344 L 5.152344 16.878906 C 5.425781 17.023438 5.601562 17.296875 5.601562 17.601562 L 5.601562 20 C 5.601562 20.449219 5.246094 20.800781 4.800781 20.800781 C 4.351562 20.800781 4 20.449219 4 20 L 4 18.097656 L 2.480469 17.328125 C 2.449219 17.359375 2.433594 17.375 2.398438 17.390625 Z M 1.601562 11.199219 C 0.71875 11.199219 0 10.480469 0 9.601562 C 0 8.71875 0.71875 8 1.601562 8 C 2.480469 8 3.199219 8.71875 3.199219 9.601562 C 3.199219 10.480469 2.480469 11.199219 1.601562 11.199219 Z M 1.601562 11.199219 "/>
</svg>
