<?xml version="1.0" encoding="UTF-8"?>
<svg xmlns="http://www.w3.org/2000/svg" xmlns:xlink="http://www.w3.org/1999/xlink" width="24" height="24" viewBox="0 0 24 24">
<path fill-rule="nonzero" fill="rgb(0%, 0%, 0%)" fill-opacity="1" d="M 16 1.601562 L 16 3.199219 L 19.199219 3.199219 L 21.457031 5.457031 C 22.0625 6.0625 22.398438 6.878906 22.398438 7.726562 L 22.398438 17.601562 C 22.398438 19.359375 20.960938 20.800781 19.199219 20.800781 L 11.199219 20.800781 C 9.441406 20.800781 8 19.359375 8 17.601562 L 8 7.726562 C 8 6.878906 8.335938 6.0625 8.945312 5.457031 L 11.199219 3.199219 L 14.398438 3.199219 L 14.398438 1.601562 L 11.199219 1.601562 C 10.753906 1.601562 10.398438 1.246094 10.398438 0.800781 C 10.398438 0.351562 10.753906 0 11.199219 0 L 19.199219 0 C 19.648438 0 20 0.351562 20 0.800781 C 20 1.246094 19.648438 1.601562 19.199219 1.601562 Z M 12.398438 21.601562 L 11.199219 24 L 8.800781 24 L 10 21.601562 Z M 20.398438 21.601562 L 21.601562 24 L 19.199219 24 L 18 21.601562 Z M 9.601562 8.800781 L 9.617188 12 C 9.617188 12.449219 9.96875 12.800781 10.414062 12.800781 L 13.601562 12.800781 C 14.046875 12.800781 14.398438 12.449219 14.398438 12 L 14.398438 8.800781 C 14.382812 8.351562 14.03125 8 13.601562 8 L 10.398438 8 C 9.953125 8 9.601562 8.351562 9.601562 8.800781 Z M 16 8.800781 L 16.015625 12 C 16.015625 12.449219 16.367188 12.800781 16.816406 12.800781 L 20 12.800781 C 20.449219 12.800781 20.800781 12.449219 20.800781 12 L 20.800781 8.800781 C 20.785156 8.351562 20.433594 8 20 8 L 16.800781 8 C 16.351562 8 16 8.351562 16 8.800781 Z M 11.199219 5.601562 L 11.199219 5.617188 C 11.214844 6.046875 11.566406 6.398438 12 6.398438 L 18.414062 6.398438 C 18.847656 6.398438 19.199219 6.046875 19.199219 5.617188 C 19.199219 5.617188 19.199219 5.601562 19.199219 5.601562 L 19.199219 5.585938 C 19.183594 5.152344 18.832031 4.800781 18.398438 4.800781 L 11.984375 4.800781 C 11.550781 4.800781 11.199219 5.152344 11.199219 5.585938 C 11.199219 5.585938 11.199219 5.601562 11.199219 5.601562 Z M 11.199219 18.398438 C 12.078125 18.398438 12.800781 17.679688 12.800781 16.800781 C 12.800781 15.921875 12.078125 15.199219 11.199219 15.199219 C 10.320312 15.199219 9.601562 15.921875 9.601562 16.800781 C 9.601562 17.679688 10.320312 18.398438 11.199219 18.398438 Z M 19.199219 18.398438 C 20.078125 18.398438 20.800781 17.679688 20.800781 16.800781 C 20.800781 15.921875 20.078125 15.199219 19.199219 15.199219 C 18.320312 15.199219 17.601562 15.921875 17.601562 16.800781 C 17.601562 17.679688 18.320312 18.398438 19.199219 18.398438 Z M 4 17.390625 L 4 19.199219 L 3.953125 19.457031 L 3.152344 21.855469 C 3.023438 22.273438 2.558594 22.496094 2.144531 22.351562 C 1.726562 22.222656 1.503906 21.761719 1.648438 21.34375 L 2.398438 19.070312 L 2.398438 17.390625 C 1.921875 17.105469 1.601562 16.59375 1.601562 16 L 1.601562 13.199219 C 1.601562 12.320312 2.320312 11.601562 3.199219 11.601562 C 3.535156 11.601562 3.839844 11.695312 4.113281 11.886719 L 5.457031 12.609375 L 6.640625 11.441406 C 6.945312 11.121094 7.457031 11.121094 7.761719 11.441406 C 8.078125 11.742188 8.078125 12.257812 7.761719 12.558594 L 6.160156 14.160156 C 5.921875 14.414062 5.535156 14.480469 5.214844 14.304688 L 4.800781 14.078125 L 4.800781 15.902344 L 6.753906 16.878906 C 7.023438 17.023438 7.199219 17.296875 7.199219 17.601562 L 7.199219 20 C 7.199219 20.449219 6.847656 20.800781 6.398438 20.800781 C 5.953125 20.800781 5.601562 20.449219 5.601562 20 L 5.601562 18.097656 L 4.078125 17.328125 C 4.046875 17.359375 4.03125 17.375 4 17.390625 Z M 3.199219 11.199219 C 2.320312 11.199219 1.601562 10.480469 1.601562 9.601562 C 1.601562 8.71875 2.320312 8 3.199219 8 C 4.078125 8 4.800781 8.71875 4.800781 9.601562 C 4.800781 10.480469 4.078125 11.199219 3.199219 11.199219 Z M 3.199219 11.199219 "/>
</svg>
