<?xml version="1.0" encoding="UTF-8"?>
<svg xmlns="http://www.w3.org/2000/svg" xmlns:xlink="http://www.w3.org/1999/xlink" width="24" height="24" viewBox="0 0 24 24">
<path fill-rule="nonzero" fill="rgb(0%, 0%, 0%)" fill-opacity="1" d="M 17.601562 1.601562 L 17.601562 3.199219 C 18.480469 3.199219 19.199219 3.921875 19.199219 4.800781 L 19.199219 6.207031 C 20.65625 7.375 21.601562 9.183594 21.601562 11.199219 C 21.601562 12.304688 21.328125 13.34375 20.832031 14.257812 L 21.503906 15.535156 C 21.921875 16.304688 21.632812 17.28125 20.847656 17.695312 C 20.769531 17.726562 20.6875 17.777344 20.609375 17.792969 L 15.199219 19.601562 L 9.792969 17.792969 C 8.960938 17.519531 8.511719 16.609375 8.785156 15.777344 C 8.816406 15.695312 8.847656 15.601562 8.894531 15.535156 L 9.566406 14.257812 C 9.070312 13.34375 8.800781 12.304688 8.800781 11.199219 C 8.800781 9.183594 9.742188 7.375 11.199219 6.207031 L 11.199219 4.800781 C 11.199219 3.921875 11.921875 3.199219 12.800781 3.199219 L 12.800781 1.601562 L 12 1.601562 C 11.550781 1.601562 11.199219 1.246094 11.199219 0.800781 C 11.199219 0.351562 11.550781 0 12 0 L 18.398438 0 C 18.847656 0 19.199219 0.351562 19.199219 0.800781 C 19.199219 1.246094 18.847656 1.601562 18.398438 1.601562 Z M 12.464844 19.886719 L 12 20.800781 L 18.398438 20.800781 L 17.9375 19.886719 L 20 19.199219 L 22.398438 24 L 20 24 L 19.199219 22.398438 L 11.199219 22.398438 L 10.398438 24 L 8 24 L 10.398438 19.199219 Z M 15.199219 16 C 17.855469 16 20 13.855469 20 11.199219 C 20 8.542969 17.855469 6.398438 15.199219 6.398438 C 12.542969 6.398438 10.398438 8.542969 10.398438 11.199219 C 10.398438 13.855469 12.542969 16 15.199219 16 Z M 13.601562 11.199219 C 13.152344 11.199219 12.800781 10.847656 12.800781 10.398438 L 12.800781 8.800781 C 12.800781 8.351562 13.152344 8 13.601562 8 C 14.046875 8 14.398438 8.351562 14.398438 8.800781 L 14.398438 10.398438 C 14.398438 10.847656 14.046875 11.199219 13.601562 11.199219 Z M 16.800781 11.199219 C 16.351562 11.199219 16 10.847656 16 10.398438 L 16 8.800781 C 16 8.351562 16.351562 8 16.800781 8 C 17.246094 8 17.601562 8.351562 17.601562 8.800781 L 17.601562 10.398438 C 17.601562 10.847656 17.246094 11.199219 16.800781 11.199219 Z M 15.199219 15.199219 C 14.191406 15.199219 13.40625 14.59375 12.832031 13.375 C 12.816406 13.3125 12.800781 13.265625 12.800781 13.199219 C 12.800781 12.976562 12.976562 12.800781 13.199219 12.800781 L 17.199219 12.800781 C 17.246094 12.800781 17.3125 12.816406 17.359375 12.832031 C 17.566406 12.929688 17.648438 13.167969 17.550781 13.375 C 16.992188 14.59375 16.207031 15.199219 15.199219 15.199219 Z M 4.800781 14.191406 L 4.800781 16 L 4.753906 16.257812 L 3.953125 18.65625 C 3.824219 19.070312 3.359375 19.296875 2.945312 19.152344 C 2.527344 19.023438 2.304688 18.558594 2.449219 18.144531 L 3.199219 15.871094 L 3.199219 14.191406 C 2.71875 13.902344 2.398438 13.390625 2.398438 12.800781 L 2.398438 10 C 2.398438 9.121094 3.121094 8.398438 4 8.398438 C 4.335938 8.398438 4.640625 8.496094 4.910156 8.6875 L 6.257812 9.40625 L 7.441406 8.238281 C 7.742188 7.921875 8.257812 7.921875 8.558594 8.238281 C 8.878906 8.542969 8.878906 9.054688 8.558594 9.359375 L 6.960938 10.960938 C 6.71875 11.214844 6.335938 11.28125 6.015625 11.105469 L 5.601562 10.878906 L 5.601562 12.703125 L 7.550781 13.679688 C 7.824219 13.824219 8 14.097656 8 14.398438 L 8 16.800781 C 8 17.246094 7.648438 17.601562 7.199219 17.601562 C 6.753906 17.601562 6.398438 17.246094 6.398438 16.800781 L 6.398438 14.894531 L 4.878906 14.128906 C 4.847656 14.160156 4.832031 14.175781 4.800781 14.191406 Z M 4 8 C 3.121094 8 2.398438 7.28125 2.398438 6.398438 C 2.398438 5.519531 3.121094 4.800781 4 4.800781 C 4.878906 4.800781 5.601562 5.519531 5.601562 6.398438 C 5.601562 7.28125 4.878906 8 4 8 Z M 4 8 "/>
</svg>
