<?xml version="1.0" encoding="UTF-8"?>
<svg xmlns="http://www.w3.org/2000/svg" xmlns:xlink="http://www.w3.org/1999/xlink" width="24" height="24" viewBox="0 0 24 24">
<path fill-rule="nonzero" fill="rgb(0%, 0%, 0%)" fill-opacity="1" d="M 12.464844 19.886719 L 12 20.800781 L 18.398438 20.800781 L 17.9375 19.886719 L 20 19.199219 L 22.398438 24 L 20 24 L 19.199219 22.398438 L 11.199219 22.398438 L 10.398438 24 L 8 24 L 10.398438 19.199219 Z M 22.398438 2.878906 L 22.398438 8 L 23.535156 9.136719 C 23.824219 9.425781 24 9.839844 24 10.257812 L 24 14.527344 C 24 15.167969 23.601562 15.761719 23.007812 16 L 15.199219 19.199219 L 7.390625 16 C 6.800781 15.761719 6.398438 15.167969 6.398438 14.527344 L 6.398438 10.257812 C 6.398438 9.839844 6.574219 9.425781 6.863281 9.136719 L 8 8 L 8 2.878906 C 8 2.128906 8.527344 1.488281 9.246094 1.328125 L 14.847656 0.078125 C 15.089844 0.03125 15.3125 0.03125 15.550781 0.078125 L 21.152344 1.328125 C 21.871094 1.488281 22.398438 2.128906 22.398438 2.878906 Z M 9.601562 3.871094 L 9.601562 5.601562 C 9.601562 6.046875 9.953125 6.398438 10.398438 6.398438 L 13.601562 6.398438 C 14.046875 6.398438 14.398438 6.046875 14.398438 5.601562 L 14.398438 3.34375 C 14.398438 2.894531 14.046875 2.542969 13.601562 2.542969 C 13.550781 2.542969 13.503906 2.542969 13.472656 2.558594 L 10.273438 3.089844 C 9.886719 3.152344 9.601562 3.488281 9.601562 3.871094 Z M 16 3.34375 L 16 5.601562 C 16 6.046875 16.351562 6.398438 16.800781 6.398438 L 20 6.398438 C 20.449219 6.398438 20.800781 6.046875 20.800781 5.601562 L 20.800781 3.871094 C 20.800781 3.488281 20.511719 3.152344 20.128906 3.089844 L 16.929688 2.558594 C 16.496094 2.480469 16.078125 2.785156 16.015625 3.214844 C 16 3.265625 16 3.296875 16 3.34375 Z M 15.199219 12.800781 C 16.078125 12.800781 16.800781 12.078125 16.800781 11.199219 C 16.800781 10.320312 16.078125 9.601562 15.199219 9.601562 C 14.320312 9.601562 13.601562 10.320312 13.601562 11.199219 C 13.601562 12.078125 14.320312 12.800781 15.199219 12.800781 Z M 2.398438 12.59375 L 2.398438 14.398438 L 2.351562 14.65625 L 1.550781 17.054688 C 1.425781 17.472656 0.960938 17.695312 0.542969 17.550781 C 0.128906 17.425781 -0.0976562 16.960938 0.046875 16.542969 L 0.800781 14.273438 L 0.800781 12.59375 C 0.320312 12.304688 0 11.792969 0 11.199219 L 0 8.398438 C 0 7.519531 0.71875 6.800781 1.601562 6.800781 C 1.9375 6.800781 2.238281 6.894531 2.511719 7.089844 L 3.855469 7.808594 L 5.039062 6.640625 C 5.34375 6.320312 5.855469 6.320312 6.160156 6.640625 C 6.480469 6.945312 6.480469 7.457031 6.160156 7.761719 L 4.558594 9.359375 C 4.320312 9.617188 3.9375 9.679688 3.617188 9.503906 L 3.199219 9.28125 L 3.199219 11.105469 L 5.152344 12.078125 C 5.425781 12.222656 5.601562 12.496094 5.601562 12.800781 L 5.601562 15.199219 C 5.601562 15.648438 5.246094 16 4.800781 16 C 4.351562 16 4 15.648438 4 15.199219 L 4 13.296875 L 2.480469 12.527344 C 2.449219 12.558594 2.433594 12.574219 2.398438 12.59375 Z M 1.601562 6.398438 C 0.71875 6.398438 0 5.679688 0 4.800781 C 0 3.921875 0.71875 3.199219 1.601562 3.199219 C 2.480469 3.199219 3.199219 3.921875 3.199219 4.800781 C 3.199219 5.679688 2.480469 6.398438 1.601562 6.398438 Z M 1.601562 6.398438 "/>
</svg>
