<?xml version="1.0" encoding="UTF-8"?>
<svg xmlns="http://www.w3.org/2000/svg" xmlns:xlink="http://www.w3.org/1999/xlink" width="24" height="24" viewBox="0 0 24 24">
<path fill-rule="nonzero" fill="rgb(0%, 0%, 0%)" fill-opacity="1" d="M 6.398438 7.214844 C 6.398438 7.425781 6.320312 7.617188 6.160156 7.761719 L 4.558594 9.359375 C 4.320312 9.617188 3.9375 9.679688 3.617188 9.503906 L 3.199219 9.28125 L 3.199219 11.105469 L 5.152344 12.078125 C 5.425781 12.222656 5.601562 12.496094 5.601562 12.800781 L 5.601562 15.199219 C 5.601562 15.648438 5.246094 16 4.800781 16 C 4.351562 16 4 15.648438 4 15.199219 L 4 13.296875 L 2.480469 12.527344 C 2.449219 12.558594 2.433594 12.574219 2.398438 12.59375 L 2.398438 14.398438 L 2.351562 14.65625 L 1.550781 17.054688 C 1.425781 17.472656 0.960938 17.695312 0.542969 17.550781 C 0.128906 17.425781 -0.0976562 16.960938 0.046875 16.542969 L 0.800781 14.273438 L 0.800781 12.59375 C 0.320312 12.304688 0 11.792969 0 11.199219 L 0 8.398438 C 0 7.519531 0.71875 6.800781 1.601562 6.800781 C 1.9375 6.800781 2.238281 6.894531 2.511719 7.089844 L 3.855469 7.808594 L 5.039062 6.640625 C 5.34375 6.320312 5.855469 6.320312 6.160156 6.640625 C 6.320312 6.785156 6.398438 6.976562 6.398438 7.183594 L 6.398438 3.199219 C 6.398438 1.441406 7.839844 0 9.601562 0 L 20.800781 0 C 22.558594 0 24 1.441406 24 3.199219 L 24 14.015625 C 24 14.273438 23.9375 14.511719 23.824219 14.734375 L 21.246094 19.921875 C 20.976562 20.464844 20.414062 20.800781 19.808594 20.800781 L 19.199219 20.800781 C 18.753906 20.800781 18.398438 20.449219 18.398438 20 L 18.398438 17.199219 C 18.398438 16.542969 17.855469 16 17.199219 16 L 13.199219 16 C 12.542969 16 12 16.542969 12 17.199219 L 12 20 C 12 20.449219 11.648438 20.800781 11.199219 20.800781 L 10.59375 20.800781 C 9.984375 20.800781 9.425781 20.464844 9.152344 19.921875 L 6.574219 14.734375 C 6.464844 14.511719 6.398438 14.273438 6.398438 14.015625 Z M 13.601562 16.800781 L 16.800781 16.800781 C 17.246094 16.800781 17.601562 17.152344 17.601562 17.601562 L 17.601562 20 C 17.601562 20.449219 17.246094 20.800781 16.800781 20.800781 L 16 20.800781 L 16 24 L 14.398438 24 L 14.398438 20.800781 L 13.601562 20.800781 C 13.152344 20.800781 12.800781 20.449219 12.800781 20 L 12.800781 17.601562 C 12.800781 17.152344 13.152344 16.800781 13.601562 16.800781 Z M 8 5.601562 L 8 8.800781 C 8 9.246094 8.351562 9.601562 8.800781 9.601562 L 21.601562 9.601562 C 22.046875 9.601562 22.398438 9.246094 22.398438 8.800781 L 22.398438 5.601562 C 22.398438 5.152344 22.046875 4.800781 21.601562 4.800781 L 8.800781 4.800781 C 8.351562 4.800781 8 5.152344 8 5.601562 Z M 9.601562 2.398438 C 9.601562 2.847656 9.953125 3.199219 10.398438 3.199219 L 20 3.199219 C 20.449219 3.199219 20.800781 2.847656 20.800781 2.398438 C 20.800781 1.953125 20.449219 1.601562 20 1.601562 L 10.398438 1.601562 C 9.953125 1.601562 9.601562 1.953125 9.601562 2.398438 Z M 17.601562 13.601562 C 17.601562 14.046875 17.953125 14.398438 18.398438 14.398438 L 20.703125 14.398438 C 20.992188 14.398438 21.246094 14.238281 21.390625 13.984375 L 22.289062 12.382812 C 22.351562 12.273438 22.382812 12.144531 22.382812 12 C 22.382812 11.550781 22.03125 11.199219 21.585938 11.199219 L 18.398438 11.199219 C 17.953125 11.199219 17.601562 11.550781 17.601562 12 Z M 12.800781 13.601562 L 12.800781 12 C 12.800781 11.550781 12.449219 11.199219 12 11.199219 L 8.816406 11.199219 C 8.367188 11.199219 8.015625 11.550781 8.015625 12 C 8.015625 12.144531 8.046875 12.273438 8.113281 12.382812 L 9.007812 13.984375 C 9.152344 14.238281 9.40625 14.398438 9.695312 14.398438 L 12 14.398438 C 12.449219 14.398438 12.800781 14.046875 12.800781 13.601562 Z M 1.601562 6.398438 C 0.71875 6.398438 0 5.679688 0 4.800781 C 0 3.921875 0.71875 3.199219 1.601562 3.199219 C 2.480469 3.199219 3.199219 3.921875 3.199219 4.800781 C 3.199219 5.679688 2.480469 6.398438 1.601562 6.398438 Z M 1.601562 6.398438 "/>
</svg>
