<?xml version="1.0" encoding="UTF-8"?>
<svg xmlns="http://www.w3.org/2000/svg" xmlns:xlink="http://www.w3.org/1999/xlink" width="24" height="24" viewBox="0 0 24 24">
<path fill-rule="nonzero" fill="rgb(0%, 0%, 0%)" fill-opacity="1" d="M 8.800781 12.015625 C 8.800781 12.222656 8.71875 12.414062 8.558594 12.558594 L 6.960938 14.160156 C 6.71875 14.414062 6.335938 14.480469 6.015625 14.304688 L 5.601562 14.078125 L 5.601562 15.902344 L 7.550781 16.878906 C 7.824219 17.023438 8 17.296875 8 17.601562 L 8 20 C 8 20.449219 7.648438 20.800781 7.199219 20.800781 C 6.753906 20.800781 6.398438 20.449219 6.398438 20 L 6.398438 18.097656 L 4.878906 17.328125 C 4.847656 17.359375 4.832031 17.375 4.800781 17.390625 L 4.800781 19.199219 L 4.753906 19.457031 L 3.953125 21.855469 C 3.824219 22.273438 3.359375 22.496094 2.945312 22.351562 C 2.527344 22.222656 2.304688 21.761719 2.449219 21.34375 L 3.199219 19.070312 L 3.199219 17.390625 C 2.71875 17.105469 2.398438 16.59375 2.398438 16 L 2.398438 13.199219 C 2.398438 12.320312 3.121094 11.601562 4 11.601562 C 4.335938 11.601562 4.640625 11.695312 4.910156 11.886719 L 6.257812 12.609375 L 7.441406 11.441406 C 7.742188 11.121094 8.257812 11.121094 8.558594 11.441406 C 8.71875 11.585938 8.800781 11.777344 8.800781 11.984375 L 8.800781 7.726562 C 8.800781 6.878906 9.136719 6.0625 9.742188 5.457031 L 12 3.199219 L 14.398438 3.199219 L 14.398438 1.601562 L 12 1.601562 C 11.550781 1.601562 11.199219 1.246094 11.199219 0.800781 C 11.199219 0.351562 11.550781 0 12 0 L 18.398438 0 C 18.847656 0 19.199219 0.351562 19.199219 0.800781 C 19.199219 1.246094 18.847656 1.601562 18.398438 1.601562 L 16 1.601562 L 16 3.199219 L 18.398438 3.199219 L 20.65625 5.457031 C 21.265625 6.0625 21.601562 6.878906 21.601562 7.726562 L 21.601562 17.601562 C 21.601562 19.359375 20.160156 20.800781 18.398438 20.800781 L 12 20.800781 C 10.238281 20.800781 8.800781 19.359375 8.800781 17.601562 Z M 13.199219 21.601562 L 12 24 L 9.601562 24 L 10.800781 21.601562 Z M 19.601562 21.601562 L 20.800781 24 L 18.398438 24 L 17.199219 21.601562 Z M 16.800781 19.199219 L 18.398438 19.199219 C 19.28125 19.199219 20 18.480469 20 17.601562 L 20 16 C 18.238281 16 16.800781 17.441406 16.800781 19.199219 Z M 13.601562 19.199219 C 13.601562 17.441406 12.160156 16 10.398438 16 L 10.398438 17.601562 C 10.398438 18.480469 11.121094 19.199219 12 19.199219 Z M 10.398438 8.800781 L 10.398438 13.601562 C 10.398438 14.046875 10.753906 14.398438 11.199219 14.398438 L 19.199219 14.398438 C 19.648438 14.398438 20 14.046875 20 13.601562 L 20 8.800781 C 20 8.351562 19.648438 8 19.199219 8 L 11.199219 8 C 10.753906 8 10.398438 8.351562 10.398438 8.800781 Z M 12 5.601562 C 12 6.046875 12.351562 6.398438 12.800781 6.398438 L 17.601562 6.398438 C 18.046875 6.398438 18.398438 6.046875 18.398438 5.601562 C 18.398438 5.152344 18.046875 4.800781 17.601562 4.800781 L 12.800781 4.800781 C 12.351562 4.800781 12 5.152344 12 5.601562 Z M 4 11.199219 C 3.121094 11.199219 2.398438 10.480469 2.398438 9.601562 C 2.398438 8.71875 3.121094 8 4 8 C 4.878906 8 5.601562 8.71875 5.601562 9.601562 C 5.601562 10.480469 4.878906 11.199219 4 11.199219 Z M 4 11.199219 "/>
</svg>
