<?xml version="1.0" encoding="UTF-8"?>
<svg xmlns="http://www.w3.org/2000/svg" xmlns:xlink="http://www.w3.org/1999/xlink" width="24" height="24" viewBox="0 0 24 24">
<path fill-rule="nonzero" fill="rgb(0%, 0%, 0%)" fill-opacity="1" d="M 6.398438 13.617188 C 6.398438 13.824219 6.320312 14.015625 6.160156 14.160156 L 4.558594 15.761719 C 4.320312 16.015625 3.9375 16.078125 3.617188 15.902344 L 3.199219 15.679688 L 3.199219 17.503906 L 5.152344 18.480469 C 5.425781 18.625 5.601562 18.894531 5.601562 19.199219 L 5.601562 21.601562 C 5.601562 22.046875 5.246094 22.398438 4.800781 22.398438 C 4.351562 22.398438 4 22.046875 4 21.601562 L 4 19.695312 L 2.480469 18.929688 C 2.449219 18.960938 2.433594 18.976562 2.398438 18.992188 L 2.398438 20.800781 L 2.351562 21.054688 L 1.550781 23.457031 C 1.425781 23.871094 0.960938 24.097656 0.542969 23.953125 C 0.128906 23.824219 -0.0976562 23.359375 0.046875 22.945312 L 0.800781 20.671875 L 0.800781 18.992188 C 0.320312 18.703125 0 18.191406 0 17.601562 L 0 14.800781 C 0 13.921875 0.71875 13.199219 1.601562 13.199219 C 1.9375 13.199219 2.238281 13.296875 2.511719 13.488281 L 3.855469 14.207031 L 5.039062 13.039062 C 5.34375 12.71875 5.855469 12.71875 6.160156 13.039062 C 6.320312 13.183594 6.398438 13.375 6.398438 13.585938 L 6.398438 6.65625 C 6.398438 6.480469 6.433594 6.320312 6.480469 6.160156 L 7.632812 2.6875 C 7.855469 2.046875 8.464844 1.601562 9.152344 1.601562 L 12 1.601562 L 12 3.199219 L 9.617188 3.199219 L 9.617188 6.398438 L 21.601562 6.398438 L 20.785156 3.199219 L 18.398438 3.199219 L 18.398438 1.601562 L 21.246094 1.601562 C 21.9375 1.601562 22.542969 2.046875 22.769531 2.6875 L 23.921875 6.160156 C 23.96875 6.320312 24 6.480469 24 6.65625 L 24 20.800781 C 24 22.558594 22.558594 24 20.800781 24 L 9.601562 24 C 7.839844 24 6.398438 22.558594 6.398438 20.800781 Z M 8 12 L 8.015625 16.800781 C 8.015625 17.246094 8.382812 17.601562 8.816406 17.601562 L 13.617188 17.601562 C 14.046875 17.601562 14.414062 17.246094 14.414062 16.800781 L 14.382812 12 C 14.382812 11.550781 14.03125 11.199219 13.585938 11.199219 L 8.800781 11.199219 C 8.351562 11.199219 8 11.550781 8 12 Z M 17.601562 20.800781 C 17.601562 21.679688 18.320312 22.398438 19.199219 22.398438 C 20.078125 22.398438 20.800781 21.679688 20.800781 20.800781 C 20.800781 19.921875 20.078125 19.199219 19.199219 19.199219 C 18.320312 19.199219 17.601562 19.921875 17.601562 20.800781 Z M 12.800781 20.800781 C 12.800781 19.921875 12.078125 19.199219 11.199219 19.199219 C 10.320312 19.199219 9.601562 19.921875 9.601562 20.800781 C 9.601562 21.679688 10.320312 22.398438 11.199219 22.398438 C 12.078125 22.398438 12.800781 21.679688 12.800781 20.800781 Z M 11.199219 8.800781 L 11.199219 8.816406 C 11.214844 9.246094 11.566406 9.601562 12 9.601562 L 18.414062 9.601562 C 18.847656 9.601562 19.199219 9.246094 19.199219 8.816406 C 19.199219 8.816406 19.199219 8.800781 19.199219 8.800781 L 19.199219 8.785156 C 19.183594 8.351562 18.832031 8 18.398438 8 L 11.984375 8 C 11.550781 8 11.199219 8.351562 11.199219 8.785156 C 11.199219 8.785156 11.199219 8.800781 11.199219 8.800781 Z M 16 12 L 16.015625 16.800781 C 16.015625 17.246094 16.382812 17.601562 16.816406 17.601562 L 21.617188 17.601562 C 22.046875 17.601562 22.414062 17.246094 22.414062 16.800781 L 22.382812 12 C 22.382812 11.550781 22.03125 11.199219 21.585938 11.199219 L 16.800781 11.199219 C 16.351562 11.199219 16 11.550781 16 12 Z M 12.800781 0.800781 C 12.800781 0.351562 13.152344 0 13.601562 0 L 16.800781 0 C 17.230469 0 17.585938 0.351562 17.601562 0.800781 L 17.601562 4 C 17.601562 4.449219 17.246094 4.800781 16.800781 4.800781 L 13.617188 4.800781 C 13.167969 4.800781 12.816406 4.449219 12.816406 4 Z M 1.601562 12.800781 C 0.71875 12.800781 0 12.078125 0 11.199219 C 0 10.320312 0.71875 9.601562 1.601562 9.601562 C 2.480469 9.601562 3.199219 10.320312 3.199219 11.199219 C 3.199219 12.078125 2.480469 12.800781 1.601562 12.800781 Z M 1.601562 12.800781 "/>
</svg>
