<?xml version="1.0" encoding="UTF-8"?>
<svg xmlns="http://www.w3.org/2000/svg" xmlns:xlink="http://www.w3.org/1999/xlink" width="24" height="24" viewBox="0 0 24 24">
<path fill-rule="nonzero" fill="rgb(0%, 0%, 0%)" fill-opacity="1" d="M 16 8 L 19.472656 8 C 20.238281 8 20.894531 8.558594 21.039062 9.3125 L 22.335938 16.480469 C 22.382812 16.6875 22.382812 16.910156 22.335938 17.121094 L 21.070312 22.753906 C 20.910156 23.472656 20.273438 24 19.519531 24 L 10.878906 24 C 10.128906 24 9.488281 23.472656 9.328125 22.753906 L 8.0625 17.121094 C 8.015625 16.910156 8.015625 16.6875 8.0625 16.480469 L 9.359375 9.3125 C 9.503906 8.558594 10.160156 8 10.929688 8 L 14.398438 8 L 14.398438 4.59375 C 13.921875 4.304688 13.601562 3.792969 13.601562 3.199219 L 13.601562 3.007812 L 2.496094 4.398438 C 2.0625 4.449219 1.664062 4.144531 1.601562 3.695312 C 1.550781 3.265625 1.855469 2.863281 2.304688 2.800781 L 13.617188 1.390625 C 13.710938 0.609375 14.382812 0 15.199219 0 C 15.871094 0 16.449219 0.414062 16.6875 1.007812 L 21.503906 0.398438 C 21.9375 0.351562 22.335938 0.65625 22.398438 1.105469 C 22.449219 1.535156 22.144531 1.9375 21.695312 2 L 16.800781 2.609375 L 16.800781 3.199219 C 16.800781 3.792969 16.480469 4.304688 16 4.59375 Z M 16 10 L 16 15.601562 C 16 15.824219 16.175781 16 16.398438 16 L 20.320312 16 C 20.527344 16 20.71875 15.824219 20.71875 15.601562 C 20.71875 15.566406 20.71875 15.550781 20.703125 15.519531 L 19.617188 9.921875 C 19.585938 9.726562 19.425781 9.601562 19.230469 9.601562 L 16.398438 9.601562 C 16.175781 9.601562 16 9.777344 16 10 Z M 14.398438 15.601562 L 14.398438 10 C 14.398438 9.777344 14.222656 9.601562 14 9.601562 L 11.167969 9.601562 C 10.976562 9.601562 10.816406 9.726562 10.785156 9.921875 L 9.695312 15.519531 C 9.679688 15.550781 9.679688 15.566406 9.679688 15.601562 C 9.679688 15.824219 9.871094 16 10.078125 16 L 14 16 C 14.222656 16 14.398438 15.824219 14.398438 15.601562 Z M 4 18.992188 L 4 20.800781 L 3.953125 21.054688 L 3.152344 23.457031 C 3.023438 23.871094 2.558594 24.097656 2.144531 23.953125 C 1.726562 23.824219 1.503906 23.359375 1.648438 22.945312 L 2.398438 20.671875 L 2.398438 18.992188 C 1.921875 18.703125 1.601562 18.191406 1.601562 17.601562 L 1.601562 14.800781 C 1.601562 13.921875 2.320312 13.199219 3.199219 13.199219 C 3.535156 13.199219 3.839844 13.296875 4.113281 13.488281 L 5.457031 14.207031 L 6.640625 13.039062 C 6.945312 12.71875 7.457031 12.71875 7.761719 13.039062 C 8.078125 13.34375 8.078125 13.855469 7.761719 14.160156 L 6.160156 15.761719 C 5.921875 16.015625 5.535156 16.078125 5.214844 15.902344 L 4.800781 15.679688 L 4.800781 17.503906 L 6.753906 18.480469 C 7.023438 18.625 7.199219 18.894531 7.199219 19.199219 L 7.199219 21.601562 C 7.199219 22.046875 6.847656 22.398438 6.398438 22.398438 C 5.953125 22.398438 5.601562 22.046875 5.601562 21.601562 L 5.601562 19.695312 L 4.078125 18.929688 C 4.046875 18.960938 4.03125 18.976562 4 18.992188 Z M 3.199219 12.800781 C 2.320312 12.800781 1.601562 12.078125 1.601562 11.199219 C 1.601562 10.320312 2.320312 9.601562 3.199219 9.601562 C 4.078125 9.601562 4.800781 10.320312 4.800781 11.199219 C 4.800781 12.078125 4.078125 12.800781 3.199219 12.800781 Z M 3.199219 12.800781 "/>
</svg>
