<?xml version="1.0" encoding="UTF-8"?>
<svg xmlns="http://www.w3.org/2000/svg" xmlns:xlink="http://www.w3.org/1999/xlink" width="24" height="24" viewBox="0 0 24 24">
<path fill-rule="nonzero" fill="rgb(0%, 0%, 0%)" fill-opacity="1" d="M 23.039062 19.679688 C 22.558594 19.679688 22.152344 19.570312 21.730469 19.386719 C 21.289062 19.191406 20.839844 19.074219 20.328125 19.074219 C 19.8125 19.074219 19.34375 19.191406 18.910156 19.386719 C 18.484375 19.574219 18.019531 19.683594 17.519531 19.683594 C 17.027344 19.683594 16.550781 19.574219 16.125 19.390625 C 15.6875 19.195312 15.203125 19.078125 14.6875 19.078125 C 14.175781 19.078125 13.683594 19.195312 13.242188 19.390625 C 12.820312 19.578125 12.339844 19.691406 11.847656 19.691406 C 11.351562 19.691406 10.871094 19.578125 10.449219 19.398438 C 10.011719 19.199219 9.519531 19.085938 9.007812 19.085938 C 8.496094 19.085938 8 19.199219 7.570312 19.398438 C 7.140625 19.585938 6.667969 19.695312 6.171875 19.695312 C 5.671875 19.695312 5.199219 19.585938 4.769531 19.402344 C 4.339844 19.203125 3.84375 19.089844 3.332031 19.089844 C 2.816406 19.089844 2.324219 19.203125 1.886719 19.402344 C 1.460938 19.589844 0.964844 19.699219 0.484375 19.699219 L 0.484375 17.648438 C 0.964844 17.648438 1.460938 17.539062 1.886719 17.351562 C 2.324219 17.15625 2.816406 17.039062 3.332031 17.039062 C 3.84375 17.039062 4.339844 17.15625 4.769531 17.351562 C 5.199219 17.539062 5.679688 17.648438 6.171875 17.648438 C 6.667969 17.648438 7.148438 17.539062 7.570312 17.351562 C 8 17.15625 8.496094 17.039062 9.007812 17.039062 C 9.523438 17.039062 10.011719 17.15625 10.449219 17.351562 C 10.871094 17.539062 11.351562 17.648438 11.847656 17.648438 C 12.339844 17.648438 12.820312 17.539062 13.242188 17.351562 C 13.683594 17.15625 14.175781 17.039062 14.6875 17.039062 C 15.203125 17.039062 15.691406 17.15625 16.128906 17.351562 C 16.554688 17.539062 17.035156 17.648438 17.53125 17.648438 C 18.027344 17.648438 18.503906 17.539062 18.929688 17.351562 C 19.363281 17.15625 19.859375 17.039062 20.371094 17.039062 C 20.886719 17.039062 21.292969 17.15625 21.734375 17.351562 C 22.15625 17.539062 22.566406 17.648438 23.042969 17.648438 L 23.042969 19.699219 Z M 0.496094 11.039062 L 0.484375 15.796875 C 0.980469 15.796875 1.460938 15.648438 1.882812 15.460938 C 2.320312 15.265625 2.8125 15.125 3.320312 15.125 C 3.835938 15.125 4.324219 15.230469 4.761719 15.425781 C 5.1875 15.613281 5.667969 15.714844 6.164062 15.714844 C 6.65625 15.714844 7.136719 15.605469 7.558594 15.417969 C 7.992188 15.222656 8.488281 15.101562 9 15.101562 C 9.511719 15.101562 10.003906 15.214844 10.441406 15.414062 C 10.863281 15.601562 11.34375 15.707031 11.835938 15.707031 C 12.332031 15.707031 12.8125 15.601562 13.234375 15.414062 C 13.675781 15.214844 14.164062 15.101562 14.679688 15.101562 C 15.191406 15.101562 15.679688 15.214844 16.117188 15.414062 C 16.546875 15.601562 17.027344 15.707031 17.519531 15.707031 C 17.660156 15.707031 17.792969 15.675781 17.933594 15.664062 C 18.183594 15.609375 18.4375 15.585938 18.679688 15.488281 L 18.695312 15.480469 C 20.5 14.765625 22.054688 13.074219 23.03125 11.75 L 23.515625 11.03125 L 0.488281 11.03125 Z M 13.347656 5.761719 L 16.726562 5.761719 C 16.765625 5.761719 17.640625 5.625 17.933594 6.265625 L 19.203125 9.121094 L 14.875 9.121094 Z M 4.324219 8.824219 C 4.324219 9.046875 4.140625 9.121094 3.917969 9.121094 L 2.058594 9.121094 C 1.832031 9.121094 1.449219 9.046875 1.449219 8.824219 L 1.449219 6.070312 C 1.449219 5.851562 1.832031 5.761719 2.058594 5.761719 L 3.917969 5.761719 C 4.140625 5.761719 4.328125 5.851562 4.328125 6.070312 L 4.328125 8.824219 Z M 12.003906 8.824219 C 12.003906 9.046875 11.804688 9.121094 11.578125 9.121094 L 9.71875 9.121094 C 9.488281 9.121094 9.125 9.046875 9.125 8.824219 L 9.125 6.070312 C 9.125 5.851562 9.488281 5.761719 9.71875 5.761719 L 11.578125 5.761719 C 11.808594 5.761719 12.007812 5.851562 12.007812 6.070312 L 12.007812 8.824219 Z M 8.164062 8.824219 C 8.164062 9.046875 7.964844 9.121094 7.738281 9.121094 L 5.894531 9.121094 C 5.664062 9.121094 5.289062 9.046875 5.289062 8.824219 L 5.289062 6.070312 C 5.289062 5.851562 5.667969 5.761719 5.894531 5.761719 L 7.738281 5.761719 C 7.96875 5.761719 8.164062 5.851562 8.164062 6.070312 Z M 18.507812 5.425781 C 17.957031 4.222656 16.460938 4.316406 16.460938 4.316406 L 0.488281 4.316406 L 0.488281 10.074219 L 20.515625 10.074219 L 18.511719 5.425781 Z M 18.507812 5.425781 "/>
</svg>
