<?xml version="1.0" encoding="UTF-8"?>
<svg xmlns="http://www.w3.org/2000/svg" xmlns:xlink="http://www.w3.org/1999/xlink" width="24" height="24" viewBox="0 0 24 24">
<path fill-rule="nonzero" fill="rgb(0%, 0%, 0%)" fill-opacity="1" d="M 24 19.199219 C 23.519531 19.199219 23.035156 19.085938 22.617188 18.894531 C 22.191406 18.691406 21.707031 18.570312 21.207031 18.570312 C 20.699219 18.570312 20.21875 18.691406 19.785156 18.894531 C 19.363281 19.085938 18.898438 19.199219 18.40625 19.199219 C 17.921875 19.199219 17.453125 19.085938 17.035156 18.894531 C 16.609375 18.691406 16.125 18.570312 15.613281 18.570312 C 15.113281 18.570312 14.628906 18.691406 14.203125 18.894531 C 13.78125 19.085938 13.308594 19.199219 12.820312 19.199219 C 12.332031 19.199219 11.867188 19.085938 11.449219 18.894531 C 11.019531 18.691406 10.535156 18.570312 10.03125 18.570312 C 9.523438 18.570312 9.046875 18.691406 8.617188 18.894531 C 8.195312 19.085938 7.726562 19.199219 7.238281 19.199219 C 6.75 19.199219 6.28125 19.085938 5.867188 18.894531 C 5.433594 18.691406 4.953125 18.570312 4.445312 18.570312 C 3.9375 18.570312 3.59375 18.691406 3.164062 18.894531 C 2.746094 19.085938 2.40625 19.199219 1.925781 19.199219 L 1.925781 17.097656 C 2.40625 17.097656 2.746094 16.980469 3.164062 16.789062 C 3.59375 16.59375 4.007812 16.472656 4.515625 16.472656 C 5.027344 16.472656 5.46875 16.59375 5.902344 16.789062 C 6.320312 16.980469 6.769531 17.097656 7.257812 17.097656 C 7.746094 17.097656 8.207031 16.980469 8.628906 16.789062 C 9.058594 16.59375 9.53125 16.472656 10.042969 16.472656 C 10.546875 16.472656 11.03125 16.59375 11.457031 16.789062 C 11.875 16.980469 12.339844 17.097656 12.832031 17.097656 C 13.320312 17.097656 13.785156 16.980469 14.210938 16.789062 C 14.640625 16.59375 15.125 16.472656 15.625 16.472656 C 16.128906 16.472656 16.613281 16.59375 17.042969 16.789062 C 17.460938 16.980469 17.9375 17.097656 18.417969 17.097656 C 18.90625 17.097656 19.378906 16.980469 19.800781 16.789062 C 20.230469 16.59375 20.710938 16.472656 21.222656 16.472656 C 21.71875 16.472656 22.203125 16.59375 22.632812 16.789062 C 23.050781 16.980469 23.535156 17.097656 24.015625 17.097656 L 24.015625 19.199219 Z M 18.378906 10.421875 L 22.445312 10.742188 L 22.136719 8.628906 L 19.15625 8.414062 C 18.351562 8.375 18.464844 9.195312 18.464844 9.195312 L 18.382812 10.421875 Z M 10.84375 9.941406 C 11.59375 9.941406 12.191406 9.332031 12.191406 8.574219 C 12.191406 7.8125 11.59375 7.203125 10.84375 7.203125 C 10.097656 7.203125 9.5 7.8125 9.5 8.578125 C 9.5 9.339844 10.097656 9.949219 10.84375 9.949219 Z M 2.53125 15.226562 C 2.703125 15.171875 2.871094 15.105469 3.023438 15.035156 C 3.460938 14.832031 3.9375 14.710938 4.445312 14.710938 C 4.953125 14.710938 5.429688 14.832031 5.867188 15.035156 C 6.28125 15.226562 6.75 15.339844 7.238281 15.339844 C 7.726562 15.339844 8.195312 15.230469 8.621094 15.035156 C 9.046875 14.832031 9.527344 14.710938 10.035156 14.710938 C 10.539062 14.710938 11.027344 14.832031 11.453125 15.035156 C 11.871094 15.226562 12.335938 15.339844 12.824219 15.339844 C 13.316406 15.339844 13.78125 15.230469 14.207031 15.035156 C 14.636719 14.832031 15.121094 14.710938 15.625 14.710938 C 16.128906 14.710938 16.613281 14.832031 17.042969 15.035156 C 17.460938 15.226562 17.9375 15.339844 18.417969 15.339844 C 18.90625 15.339844 19.378906 15.230469 19.800781 15.035156 C 20.230469 14.832031 20.710938 14.710938 21.222656 14.710938 C 21.71875 14.710938 22.203125 14.832031 22.632812 15.035156 C 23.050781 15.226562 23.515625 15.339844 24.007812 15.339844 L 23.554688 11.59375 L 6.664062 10.152344 L 9.210938 7.535156 L 8.09375 7.433594 L 5.546875 10.054688 L 0.0195312 9.589844 C -0.015625 11.511719 2.089844 14.703125 2.542969 15.226562 Z M 2.53125 15.226562 "/>
</svg>
