<?xml version="1.0" encoding="UTF-8"?>
<svg xmlns="http://www.w3.org/2000/svg" xmlns:xlink="http://www.w3.org/1999/xlink" width="24" height="24" viewBox="0 0 24 24">
<path fill-rule="nonzero" fill="rgb(0%, 0%, 0%)" fill-opacity="1" d="M 18.398438 3.199219 L 16 3.199219 C 14.816406 3.199219 13.792969 3.839844 13.246094 4.800781 L 5.601562 4.800781 L 4 6.398438 L 5.601562 8 L 7.199219 6.398438 L 8.800781 8 L 10.398438 6.398438 L 12 8 L 13.246094 8 C 13.792969 8.960938 14.816406 9.601562 16 9.601562 L 18.398438 9.601562 C 18.847656 9.601562 19.199219 9.246094 19.199219 8.800781 L 19.199219 4 C 19.199219 3.550781 18.847656 3.199219 18.398438 3.199219 Z M 17.601562 7.199219 C 17.601562 7.648438 17.246094 8 16.800781 8 C 16.351562 8 16 7.648438 16 7.199219 L 16 5.601562 C 16 5.152344 16.351562 4.800781 16.800781 4.800781 C 17.246094 4.800781 17.601562 5.152344 17.601562 5.601562 Z M 17.601562 7.199219 "/>
<path fill-rule="nonzero" fill="rgb(0%, 0%, 0%)" fill-opacity="1" d="M 20.800781 16 C 20.6875 18.929688 19.089844 20.433594 16 20.511719 L 4.800781 20.511719 L 3.199219 16 L 16.03125 16 L 12.800781 13.601562 L 14.398438 12.800781 L 19.199219 16 Z M 8 15.199219 L 3.199219 15.199219 L 3.199219 12.800781 L 6.398438 12.800781 C 7.28125 12.800781 8 13.519531 8 14.398438 Z M 8 15.199219 "/>
</svg>
