<?xml version="1.0" encoding="UTF-8"?>
<svg xmlns="http://www.w3.org/2000/svg" xmlns:xlink="http://www.w3.org/1999/xlink" width="24" height="24" viewBox="0 0 24 24">
<path fill-rule="nonzero" fill="rgb(0%, 0%, 0%)" fill-opacity="1" d="M 18.398438 0 C 20 0 20.800781 0 20.800781 1.601562 C 20.800781 1.601562 20.800781 22.398438 20.800781 22.398438 C 20.800781 24 20 24 18.398438 24 C 18.398438 24 5.601562 24 5.601562 24 C 4 24 3.199219 24 3.199219 22.398438 L 3.199219 1.601562 C 3.199219 0 4 0 5.601562 0 Z M 20 20 L 4.800781 20 C 4.800781 20 4.800781 21.601562 4.800781 21.601562 C 4.800781 22.398438 5.601562 22.398438 5.601562 22.398438 L 20 22.398438 Z M 16.800781 8 C 16.800781 8 7.199219 8 7.199219 8 C 6.398438 8 6.398438 9.601562 7.199219 9.601562 C 7.199219 9.601562 16.800781 9.601562 16.800781 9.601562 C 17.601562 9.601562 17.601562 8 16.800781 8 Z M 16.800781 4.800781 C 16.800781 4.800781 7.199219 4.800781 7.199219 4.800781 C 6.398438 4.800781 6.398438 6.398438 7.199219 6.398438 C 7.199219 6.398438 16.800781 6.398438 16.800781 6.398438 C 17.601562 6.398438 17.601562 4.800781 16.800781 4.800781 Z M 16.800781 4.800781 "/>
</svg>
