<?xml version="1.0" encoding="UTF-8"?>
<svg xmlns="http://www.w3.org/2000/svg" xmlns:xlink="http://www.w3.org/1999/xlink" width="20" height="20" viewBox="0 0 20 20">
<path fill-rule="nonzero" fill="rgb(67.45098%, 22.352941%, 67.45098%)" fill-opacity="1" d="M 0 0 L 0 4.285156 L 0.0273438 4.285156 C 0.84375 4.285156 1.429688 4.925781 1.429688 5.714844 C 1.429688 6.503906 0.816406 7.144531 0 7.144531 L 0 11.429688 L 2.855469 11.429688 L 2.855469 10 L 1.429688 10 L 1.429688 8.167969 C 2.277344 7.667969 2.855469 6.761719 2.855469 5.714844 C 2.855469 4.664062 2.277344 3.757812 1.429688 3.261719 L 1.429688 1.429688 L 18.570312 1.429688 L 18.570312 3.261719 C 17.722656 3.757812 17.144531 4.664062 17.144531 5.714844 C 17.144531 6.777344 17.71875 7.695312 18.570312 8.1875 L 18.570312 10 L 17.144531 10 L 17.144531 11.429688 L 20 11.429688 L 20 7.144531 L 19.957031 7.144531 C 19.140625 7.144531 18.570312 6.503906 18.570312 5.714844 C 18.570312 4.925781 19.113281 4.285156 19.929688 4.285156 C 19.941406 4.285156 19.957031 4.289062 19.957031 4.289062 L 19.957031 4.285156 L 20 4.285156 L 20 0 Z M 0 0 "/>
<path fill-rule="nonzero" fill="rgb(67.45098%, 22.352941%, 67.45098%)" fill-opacity="1" d="M 10 4.285156 C 8.316406 4.285156 6.953125 5.964844 6.953125 8.035156 C 6.953125 9.507812 7.644531 10.78125 8.648438 11.394531 C 8.953125 11.578125 8.621094 12.054688 8.398438 11.746094 C 7.839844 10.96875 7.027344 10.480469 6.117188 10.480469 C 4.4375 10.480469 3.070312 12.160156 3.070312 14.230469 C 3.070312 16.296875 4.4375 17.976562 6.117188 17.976562 C 7.789062 17.976562 9.148438 16.324219 9.167969 14.277344 C 9.171875 13.914062 9.625 13.875 9.625 14.367188 C 9.625 15.132812 9.023438 19.222656 8.699219 20 C 9.050781 19.890625 9.636719 19.800781 10 19.800781 C 10.363281 19.800781 10.949219 19.890625 11.300781 20 C 10.976562 19.222656 10.375 15.132812 10.375 14.367188 C 10.375 13.875 10.828125 13.914062 10.832031 14.277344 C 10.851562 16.324219 12.210938 17.976562 13.882812 17.976562 C 15.5625 17.976562 16.929688 16.296875 16.929688 14.230469 C 16.929688 12.160156 15.5625 10.480469 13.882812 10.480469 C 12.972656 10.480469 12.160156 10.96875 11.601562 11.746094 C 11.378906 12.054688 11.046875 11.578125 11.351562 11.394531 C 12.355469 10.78125 13.046875 9.507812 13.046875 8.035156 C 13.046875 5.964844 11.683594 4.285156 10 4.285156 Z M 10 4.285156 "/>
</svg>
