<?xml version="1.0" encoding="UTF-8"?>
<svg xmlns="http://www.w3.org/2000/svg" xmlns:xlink="http://www.w3.org/1999/xlink" width="20" height="20" viewBox="0 0 20 20">
<path fill-rule="nonzero" fill="rgb(67.45098%, 22.352941%, 67.45098%)" fill-opacity="1" d="M 3.703125 1.253906 C 3.417969 1.265625 3.136719 1.320312 2.855469 1.429688 L 2.855469 12.855469 C 2.855469 12.855469 7.410156 12.679688 8.570312 17.144531 L 8.570312 5.140625 C 7.6875 3.277344 5.6875 1.171875 3.703125 1.253906 Z M 8.570312 17.144531 C 5.625 14.867188 1.429688 14.285156 1.429688 14.285156 L 1.429688 3.429688 L 0 2.855469 L 0 15.714844 L 8.570312 18.570312 L 11.429688 18.570312 L 20 15.714844 L 20 2.855469 L 18.570312 3.429688 L 18.570312 14.859375 L 11.429688 17.144531 C 10.476562 16.777344 9.367188 16.84375 8.570312 17.144531 Z M 17.144531 1.429688 C 14.296875 1.277344 11.011719 2.984375 9.285156 4.457031 L 9.285156 16.546875 C 10.878906 15.226562 13.734375 13.488281 17.144531 13.140625 Z M 17.144531 1.429688 "/>
</svg>
