<?xml version="1.0" encoding="UTF-8"?>
<svg xmlns="http://www.w3.org/2000/svg" xmlns:xlink="http://www.w3.org/1999/xlink" width="24" height="24" viewBox="0 0 24 24">
<path fill-rule="nonzero" fill="rgb(0%, 0%, 0%)" fill-opacity="1" d="M 1.601562 1.601562 L 9.601562 3.199219 L 6.0625 4.367188 L 8 6.304688 C 11.808594 3.152344 16.863281 2.769531 22.945312 5.054688 C 23.777344 5.359375 24.191406 6.289062 23.886719 7.105469 C 23.601562 7.886719 22.769531 8.304688 21.96875 8.097656 L 15.886719 14.191406 L 17.839844 16.144531 L 19.199219 16 L 23.902344 20.0625 L 20.703125 20.703125 L 20.0625 23.902344 L 16 19.199219 L 16.144531 17.839844 L 14.191406 15.886719 L 8.097656 21.96875 L 8.097656 22 C 8.289062 22.785156 7.871094 23.601562 7.105469 23.886719 C 6.289062 24.191406 5.359375 23.777344 5.054688 22.945312 C 2.769531 16.863281 3.152344 11.808594 6.304688 8 L 4.382812 6.078125 L 3.199219 9.601562 Z M 7.519531 20.289062 L 13.054688 14.753906 L 8.574219 10.273438 C 6.640625 12.800781 6.257812 16.078125 7.519531 20.289062 Z M 10.273438 8.574219 L 14.753906 13.054688 L 20.289062 7.519531 C 16.078125 6.257812 12.800781 6.640625 10.273438 8.574219 Z M 10.273438 8.574219 "/>
</svg>
