<?xml version="1.0" encoding="UTF-8"?>
<svg xmlns="http://www.w3.org/2000/svg" xmlns:xlink="http://www.w3.org/1999/xlink" width="20" height="20" viewBox="0 0 20 20">
<path fill-rule="nonzero" fill="rgb(18.431373%, 38.039216%, 20%)" fill-opacity="1" d="M 15.714844 0 C 14.136719 0 12.855469 1.277344 12.855469 2.855469 C 12.859375 3.359375 13.320312 3.851562 13.570312 4.285156 L 17.855469 4.285156 C 18.109375 3.851562 18.570312 3.359375 18.570312 2.855469 C 18.570312 1.277344 17.292969 0 15.714844 0 Z M 13.570312 5.714844 L 13.570312 7.144531 L 17.855469 7.144531 L 17.855469 5.714844 Z M 13.570312 8.570312 C 13.164062 9.394531 12.640625 10.367188 12.210938 11.429688 C 12.636719 12.316406 12.855469 13.292969 12.855469 14.285156 C 12.855469 15.457031 12.542969 16.601562 11.960938 17.597656 C 12.253906 18.449219 12.605469 19.261719 12.855469 20 L 18.570312 20 C 19.074219 18.511719 20 16.738281 20 14.921875 C 20 12.53125 18.679688 10.242188 17.855469 8.570312 Z M 5.714844 8.648438 C 4.964844 8.648438 4.222656 8.796875 3.527344 9.085938 C 2.835938 9.371094 2.203125 9.792969 1.671875 10.324219 C 1.144531 10.855469 0.722656 11.484375 0.433594 12.175781 C 0.148438 12.871094 0 13.613281 0 14.363281 C 0 15.878906 0.601562 17.332031 1.671875 18.40625 C 2.746094 19.476562 4.199219 20.078125 5.714844 20.078125 C 7.230469 20.078125 8.683594 19.476562 9.753906 18.40625 C 10.828125 17.332031 11.429688 15.878906 11.429688 14.363281 C 11.429688 13.613281 11.28125 12.871094 10.992188 12.175781 C 10.707031 11.484375 10.285156 10.855469 9.753906 10.324219 C 9.222656 9.792969 8.59375 9.371094 7.902344 9.085938 C 7.207031 8.796875 6.464844 8.648438 5.714844 8.648438 Z M 5.714844 10 C 6.09375 10 6.457031 10.152344 6.722656 10.417969 C 6.992188 10.6875 7.144531 11.050781 7.144531 11.429688 C 7.144531 11.808594 6.992188 12.171875 6.722656 12.4375 C 6.457031 12.707031 6.09375 12.855469 5.714844 12.855469 C 5.335938 12.855469 4.972656 12.707031 4.703125 12.4375 C 4.4375 12.171875 4.285156 11.808594 4.285156 11.429688 C 4.285156 11.050781 4.4375 10.6875 4.703125 10.417969 C 4.972656 10.152344 5.335938 10 5.714844 10 Z M 8.570312 12.855469 C 8.949219 12.855469 9.3125 13.007812 9.582031 13.277344 C 9.847656 13.542969 10 13.90625 10 14.285156 C 10 14.664062 9.847656 15.027344 9.582031 15.296875 C 9.3125 15.5625 8.949219 15.714844 8.570312 15.714844 C 8.191406 15.714844 7.828125 15.5625 7.5625 15.296875 C 7.292969 15.027344 7.144531 14.664062 7.144531 14.285156 C 7.144531 13.90625 7.292969 13.542969 7.5625 13.277344 C 7.828125 13.007812 8.191406 12.855469 8.570312 12.855469 Z M 5 13.570312 C 5.378906 13.570312 5.742188 13.722656 6.011719 13.988281 C 6.277344 14.257812 6.429688 14.621094 6.429688 15 C 6.429688 15.378906 6.277344 15.742188 6.011719 16.011719 C 5.742188 16.277344 5.378906 16.429688 5 16.429688 C 4.621094 16.429688 4.257812 16.277344 3.988281 16.011719 C 3.722656 15.742188 3.570312 15.378906 3.570312 15 C 3.570312 14.621094 3.722656 14.257812 3.988281 13.988281 C 4.257812 13.722656 4.621094 13.570312 5 13.570312 Z M 5 13.570312 "/>
</svg>
