<?xml version="1.0" encoding="UTF-8"?>
<svg xmlns="http://www.w3.org/2000/svg" xmlns:xlink="http://www.w3.org/1999/xlink" width="24" height="24" viewBox="0 0 24 24">
<path fill-rule="nonzero" fill="rgb(0%, 0%, 0%)" fill-opacity="1" d="M 15.152344 14.476562 C 15.152344 14.476562 14.25 12.226562 13.378906 10.074219 C 13.378906 10.074219 13.085938 8.785156 13.316406 7.066406 C 13.316406 7.066406 13.9375 4.445312 13.589844 3.203125 C 13.589844 3.203125 13.054688 2.140625 11.953125 2.0625 C 11.953125 2.0625 10.429688 2.167969 10.140625 3.652344 C 10.140625 3.652344 10.070312 4.507812 10.304688 5.492188 C 10.304688 5.492188 11.160156 8.753906 10.222656 10.882812 C 10.222656 10.882812 8.917969 13.609375 8.816406 14.230469 C 8.816406 14.230469 8.328125 16.90625 8.808594 18.867188 C 8.808594 18.867188 9.816406 22.234375 10.554688 23.351562 C 10.554688 23.351562 12.054688 23.734375 13.339844 23.320312 C 13.339844 23.320312 14.878906 20.824219 15.191406 18.566406 C 15.191406 18.566406 15.574219 16.179688 15.148438 14.472656 Z M 19.957031 12.894531 C 19.957031 12.894531 19.054688 10.640625 18.183594 8.492188 C 18.183594 8.492188 17.890625 7.199219 18.121094 5.488281 C 18.121094 5.488281 18.742188 2.867188 18.394531 1.621094 C 18.394531 1.621094 17.867188 0.5625 16.761719 0.484375 C 16.761719 0.484375 15.238281 0.589844 14.953125 2.074219 C 14.953125 2.074219 14.875 2.929688 15.113281 3.917969 C 15.113281 3.917969 15.96875 7.179688 15.027344 9.308594 C 15.027344 9.308594 14.828125 9.734375 14.574219 10.28125 C 15.394531 12.296875 16.179688 14.261719 16.179688 14.261719 L 16.195312 14.292969 L 16.203125 14.328125 C 16.65625 16.117188 16.273438 18.527344 16.257812 18.613281 C 16.113281 19.683594 15.707031 20.785156 15.308594 21.675781 L 15.363281 21.773438 C 15.363281 21.773438 16.863281 22.15625 18.148438 21.734375 C 18.148438 21.734375 19.691406 19.242188 19.996094 16.980469 C 19.996094 16.980469 20.386719 14.597656 19.953125 12.886719 Z M 9.230469 10.683594 C 9.28125 10.574219 9.320312 10.449219 9.363281 10.328125 C 9.128906 9.75 8.875 9.125 8.625 8.5 C 8.625 8.5 8.328125 7.203125 8.5625 5.492188 C 8.5625 5.492188 9.1875 2.871094 8.839844 1.628906 C 8.839844 1.628906 8.308594 0.566406 7.203125 0.488281 C 7.203125 0.488281 5.679688 0.601562 5.394531 2.074219 C 5.394531 2.074219 5.324219 2.933594 5.558594 3.917969 C 5.558594 3.917969 6.414062 7.179688 5.472656 9.3125 C 5.472656 9.3125 4.167969 12.039062 4.0625 12.664062 C 4.0625 12.664062 3.570312 15.335938 4.050781 17.300781 C 4.050781 17.300781 5.058594 20.664062 5.796875 21.777344 C 5.796875 21.777344 7.300781 22.160156 8.582031 21.742188 L 8.664062 21.609375 C 8.195312 20.371094 7.808594 19.097656 7.78125 18.992188 C 7.28125 16.945312 7.761719 14.257812 7.78125 14.152344 C 7.890625 13.488281 9.007812 11.125 9.226562 10.675781 Z M 9.230469 10.683594 "/>
</svg>
