<?xml version="1.0" encoding="UTF-8"?>
<svg xmlns="http://www.w3.org/2000/svg" xmlns:xlink="http://www.w3.org/1999/xlink" width="24" height="24" viewBox="0 0 24 24">
<path fill-rule="nonzero" fill="rgb(0%, 0%, 0%)" fill-opacity="1" d="M 4.800781 18.398438 C 4.800781 18.398438 6.398438 16 6.398438 16 C 6.398438 16 14.398438 14.398438 7.199219 14.398438 C 7.199219 14.398438 8.800781 12 8.800781 12 C 8.800781 12 16.800781 10.398438 9.601562 10.398438 C 9.601562 10.398438 11.199219 8 11.199219 8 C 11.199219 8 19.199219 6.398438 12 6.398438 C 12 6.398438 14.398438 3.199219 14.398438 3.199219 C 18.398438 -1.601562 23.199219 0.800781 18.398438 8.800781 C 18.398438 8.800781 11.199219 20 11.199219 20 C 7.199219 26.398438 1.601562 24 4.800781 18.398438 Z M 4.800781 18.398438 "/>
</svg>
