<?xml version="1.0" encoding="UTF-8"?>
<svg xmlns="http://www.w3.org/2000/svg" xmlns:xlink="http://www.w3.org/1999/xlink" width="24" height="24" viewBox="0 0 24 24">
<path fill-rule="nonzero" fill="rgb(0%, 0%, 0%)" fill-opacity="1" d="M 8 6.398438 L 16 6.398438 L 16 4.800781 L 8 4.800781 Z M 6.398438 6.398438 L 6.398438 4.800781 C 6.398438 3.921875 7.121094 3.199219 8 3.199219 L 16 3.199219 C 16.878906 3.199219 17.601562 3.921875 17.601562 4.800781 L 17.601562 6.398438 L 20.800781 6.398438 C 21.679688 6.398438 22.398438 7.121094 22.398438 8 L 22.398438 19.199219 C 22.398438 20.078125 21.679688 20.800781 20.800781 20.800781 L 3.199219 20.800781 C 2.320312 20.800781 1.601562 20.078125 1.601562 19.199219 L 1.601562 8 C 1.601562 7.121094 2.320312 6.398438 3.199219 6.398438 Z M 13.601562 12 L 13.601562 8.800781 C 13.601562 8.351562 13.246094 8 12.800781 8 L 11.199219 8 C 10.753906 8 10.398438 8.351562 10.398438 8.800781 L 10.398438 12 L 7.199219 12 C 6.753906 12 6.398438 12.351562 6.398438 12.800781 L 6.398438 14.398438 C 6.398438 14.847656 6.753906 15.199219 7.199219 15.199219 L 10.398438 15.199219 L 10.398438 18.398438 C 10.398438 18.847656 10.753906 19.199219 11.199219 19.199219 L 12.800781 19.199219 C 13.246094 19.199219 13.601562 18.847656 13.601562 18.398438 L 13.601562 15.199219 L 16.800781 15.199219 C 17.246094 15.199219 17.601562 14.847656 17.601562 14.398438 L 17.601562 12.800781 C 17.601562 12.351562 17.246094 12 16.800781 12 Z M 13.601562 12 "/>
</svg>
