<?xml version="1.0" encoding="UTF-8"?>
<svg xmlns="http://www.w3.org/2000/svg" xmlns:xlink="http://www.w3.org/1999/xlink" width="24" height="24" viewBox="0 0 24 24">
<path fill-rule="nonzero" fill="rgb(0%, 0%, 0%)" fill-opacity="1" d="M 12.0625 6.398438 L 14.0625 0.414062 L 16.335938 1.183594 L 14.59375 6.398438 L 19.199219 6.398438 L 16 24 L 8 24 L 4.800781 6.398438 Z M 12 17.601562 C 11.34375 17.601562 10.800781 18.144531 10.800781 18.800781 C 10.800781 19.457031 11.34375 20 12 20 C 12.65625 20 13.199219 19.457031 13.199219 18.800781 C 13.199219 18.144531 12.65625 17.601562 12 17.601562 Z M 10 20.398438 C 9.34375 20.398438 8.800781 20.945312 8.800781 21.601562 C 8.800781 22.257812 9.34375 22.800781 10 22.800781 C 10.65625 22.800781 11.199219 22.257812 11.199219 21.601562 C 11.199219 20.945312 10.65625 20.398438 10 20.398438 Z M 14 20.398438 C 13.34375 20.398438 12.800781 20.945312 12.800781 21.601562 C 12.800781 22.257812 13.34375 22.800781 14 22.800781 C 14.65625 22.800781 15.199219 22.257812 15.199219 21.601562 C 15.199219 20.945312 14.65625 20.398438 14 20.398438 Z M 12 14 C 11.34375 14 10.800781 14.542969 10.800781 15.199219 C 10.800781 15.855469 11.34375 16.398438 12 16.398438 C 12.671875 16.398438 13.199219 15.855469 13.199219 15.199219 C 13.199219 14.542969 12.671875 14 12 14 Z M 15.199219 16 C 14.542969 16 14 16.542969 14 17.199219 C 14 17.855469 14.542969 18.398438 15.199219 18.398438 C 15.855469 18.398438 16.398438 17.855469 16.398438 17.199219 C 16.398438 16.542969 15.855469 16 15.199219 16 Z M 8.800781 16 C 8.144531 16 7.601562 16.542969 7.601562 17.199219 C 7.601562 17.855469 8.144531 18.398438 8.800781 18.398438 C 9.457031 18.398438 10 17.855469 10 17.199219 C 10 16.542969 9.457031 16 8.800781 16 Z M 15.601562 12.398438 C 14.945312 12.398438 14.398438 12.945312 14.398438 13.601562 C 14.398438 14.257812 14.945312 14.800781 15.601562 14.800781 C 16.257812 14.800781 16.800781 14.257812 16.800781 13.601562 C 16.800781 12.945312 16.257812 12.398438 15.601562 12.398438 Z M 15.601562 12.398438 "/>
</svg>
