<?xml version="1.0" encoding="UTF-8"?>
<svg xmlns="http://www.w3.org/2000/svg" xmlns:xlink="http://www.w3.org/1999/xlink" width="20" height="20" viewBox="0 0 20 20">
<path fill-rule="nonzero" fill="rgb(0%, 0%, 0%)" fill-opacity="1" d="M 10 0.03125 C 9.648438 0.03125 9.308594 0.496094 9.285156 1.417969 C 5.148438 1.78125 1.796875 5.132812 1.429688 9.273438 C -0.386719 9.273438 -0.410156 10.660156 1.429688 10.703125 C 1.753906 14.871094 5.121094 18.160156 9.285156 18.515625 C 9.285156 20.523438 10.714844 20.453125 10.714844 18.515625 C 14.90625 18.199219 18.210938 14.898438 18.527344 10.703125 C 20.519531 10.703125 20.464844 9.273438 18.527344 9.273438 C 18.171875 5.105469 14.882812 1.742188 10.714844 1.417969 C 10.714844 0.507812 10.351562 0.0351562 10 0.03125 Z M 9.285156 3.292969 L 9.285156 8.292969 L 5.757812 4.765625 C 6.742188 3.964844 7.953125 3.4375 9.285156 3.292969 Z M 10.714844 3.292969 C 12.046875 3.433594 13.25 3.972656 14.242188 4.765625 L 10.714844 8.292969 Z M 15.269531 5.746094 C 16.066406 6.730469 16.59375 7.941406 16.742188 9.273438 L 11.742188 9.273438 Z M 4.777344 5.792969 L 8.257812 9.273438 L 3.304688 9.273438 C 3.457031 7.96875 3.992188 6.765625 4.777344 5.792969 Z M 10 8.917969 C 10.59375 8.917969 11.070312 9.398438 11.070312 9.988281 C 11.070312 10.582031 10.59375 11.058594 10 11.058594 C 9.410156 11.058594 8.929688 10.582031 8.929688 9.988281 C 8.929688 9.398438 9.410156 8.917969 10 8.917969 Z M 3.304688 10.703125 L 8.347656 10.703125 L 4.777344 14.273438 C 3.972656 13.277344 3.441406 12.046875 3.304688 10.703125 Z M 11.652344 10.703125 L 16.742188 10.703125 C 16.597656 12.0625 16.035156 13.277344 15.222656 14.273438 Z M 9.285156 11.730469 L 9.285156 16.730469 C 7.953125 16.582031 6.742188 16.054688 5.757812 15.257812 Z M 10.714844 11.730469 L 14.242188 15.300781 C 13.257812 16.078125 12.042969 16.59375 10.714844 16.730469 Z M 10.714844 11.730469 "/>
</svg>
