<?xml version="1.0" encoding="UTF-8"?>
<svg xmlns="http://www.w3.org/2000/svg" xmlns:xlink="http://www.w3.org/1999/xlink" width="24" height="24" viewBox="0 0 24 24">
<path fill-rule="nonzero" fill="rgb(0%, 0%, 0%)" fill-opacity="1" d="M 3.199219 3.199219 C 4.078125 3.199219 4.800781 3.921875 4.800781 4.800781 L 4.800781 5.695312 L 19.808594 19.199219 L 20.800781 19.199219 C 21.679688 19.199219 22.398438 19.921875 22.398438 20.800781 C 22.398438 21.679688 21.679688 22.398438 20.800781 22.398438 L 3.199219 22.398438 C 2.320312 22.398438 1.601562 21.679688 1.601562 20.800781 C 1.601562 19.921875 2.320312 19.199219 3.199219 19.199219 L 4 19.199219 L 7.792969 12.800781 L 4.800781 9.9375 C 4.734375 10.769531 3.886719 11.054688 3.199219 11.199219 C 2.320312 11.199219 1.601562 10.480469 1.601562 9.601562 L 1.601562 4.800781 C 1.601562 3.921875 2.320312 3.199219 3.199219 3.199219 Z M 10.222656 14.878906 L 7.601562 19.199219 L 15.023438 19.199219 Z M 10.222656 14.878906 "/>
</svg>
