<?xml version="1.0" encoding="UTF-8"?>
<svg xmlns="http://www.w3.org/2000/svg" xmlns:xlink="http://www.w3.org/1999/xlink" width="24" height="24" viewBox="0 0 24 24">
<path fill-rule="nonzero" fill="rgb(0%, 0%, 0%)" fill-opacity="1" d="M 16.800781 14.398438 C 19.199219 14.398438 20 16 20 17.601562 C 20 19.199219 19.199219 20.800781 16.800781 20.800781 L 3.199219 20.800781 C 0.800781 20.800781 0 19.199219 0 17.601562 C 0 16 0.800781 14.398438 3.199219 14.398438 Z M 17.199219 16 C 16.320312 16 15.601562 16.71875 15.601562 17.601562 C 15.601562 18.480469 16.320312 19.199219 17.199219 19.199219 C 18.078125 19.199219 18.800781 18.480469 18.800781 17.601562 C 18.800781 16.71875 18.078125 16 17.199219 16 Z M 2.800781 16 C 1.921875 16 1.199219 16.71875 1.199219 17.601562 C 1.199219 18.480469 1.921875 19.199219 2.800781 19.199219 C 3.679688 19.199219 4.398438 18.480469 4.398438 17.601562 C 4.398438 16.71875 3.679688 16 2.800781 16 Z M 12.398438 16 C 11.519531 16 10.800781 16.71875 10.800781 17.601562 C 10.800781 18.480469 11.519531 19.199219 12.398438 19.199219 C 13.28125 19.199219 14 18.480469 14 17.601562 C 14 16.71875 13.28125 16 12.398438 16 Z M 7.601562 16 C 6.71875 16 6 16.71875 6 17.601562 C 6 18.480469 6.71875 19.199219 7.601562 19.199219 C 8.480469 19.199219 9.199219 18.480469 9.199219 17.601562 C 9.199219 16.71875 8.480469 16 7.601562 16 Z M 22.398438 14.398438 C 22.398438 8 24.800781 8 23.199219 8 C 21.601562 8 20 8.800781 20 14.398438 C 20 20 21.601562 20.800781 23.199219 20.800781 C 24.800781 20.800781 22.398438 20.800781 22.398438 14.398438 Z M 10.238281 4.800781 C 11.039062 4.800781 11.199219 5.601562 11.199219 5.601562 C 11.199219 5.601562 12 9.601562 12 9.601562 L 4.800781 9.601562 L 4.800781 4.800781 C 4.800781 4.800781 10.238281 4.800781 10.238281 4.800781 Z M 11.199219 3.199219 L 4 3.199219 C 4 3.199219 3.199219 3.199219 3.199219 4 C 3.199219 4 3.199219 9.601562 3.199219 9.601562 C 3.199219 9.601562 2.398438 9.601562 2.398438 9.601562 C 2.398438 9.601562 1.601562 9.601562 1.601562 10.320312 C 1.601562 10.398438 1.601562 12.800781 1.601562 12.800781 C 1.601562 13.601562 2.398438 13.601562 2.398438 13.601562 C 2.398438 13.601562 19.199219 13.601562 19.199219 13.601562 C 19.199219 13.601562 19.199219 9.601562 17.601562 9.601562 C 17.601562 9.601562 14 9.601562 14 9.601562 C 14 9.601562 12.558594 4.238281 12.558594 4.238281 C 12.558594 4.238281 12.398438 3.199219 11.199219 3.199219 Z M 11.199219 3.199219 "/>
</svg>
