<?xml version="1.0" encoding="UTF-8"?>
<svg xmlns="http://www.w3.org/2000/svg" xmlns:xlink="http://www.w3.org/1999/xlink" width="24" height="24" viewBox="0 0 24 24">
<path fill-rule="nonzero" fill="rgb(0%, 0%, 0%)" fill-opacity="1" d="M 15.488281 20.800781 C 15.359375 20.800781 15.230469 20.800781 15.105469 20.816406 C 14.878906 20.863281 14.671875 20.976562 14.496094 21.152344 C 14.273438 21.34375 14.0625 21.535156 13.824219 21.726562 C 12.65625 22.640625 10.976562 22.609375 9.855469 21.617188 L 9.230469 21.070312 C 8.769531 20.6875 8.097656 20.6875 7.632812 21.070312 C 7.328125 21.3125 7.054688 21.566406 6.753906 21.808594 C 5.632812 22.625 4.078125 22.59375 2.992188 21.710938 L 2.496094 21.296875 C 2.273438 21.023438 1.953125 20.863281 1.601562 20.800781 L 1.601562 19.246094 C 2.015625 19.183594 2.433594 19.265625 2.800781 19.457031 C 3.246094 19.726562 3.664062 20.03125 4.0625 20.367188 C 4.398438 20.71875 4.878906 20.863281 5.359375 20.753906 C 5.535156 20.703125 5.710938 20.625 5.855469 20.511719 C 6.113281 20.320312 6.320312 20.097656 6.574219 19.902344 C 6.960938 19.585938 7.40625 19.375 7.855469 19.28125 C 8.097656 19.167969 8.367188 19.152344 8.625 19.199219 C 9.296875 19.230469 9.953125 19.457031 10.496094 19.902344 C 10.753906 20.097656 10.992188 20.335938 11.246094 20.542969 C 11.535156 20.785156 11.9375 20.878906 12.289062 20.816406 L 12.144531 20.769531 C 12.320312 20.753906 12.480469 20.71875 12.65625 20.671875 C 12.71875 20.640625 12.785156 20.59375 12.847656 20.542969 C 13.105469 20.335938 13.34375 20.097656 13.601562 19.902344 C 13.96875 19.601562 14.367188 19.40625 14.800781 19.296875 C 15.007812 19.214844 15.214844 19.183594 15.441406 19.199219 C 16.175781 19.167969 16.929688 19.40625 17.535156 19.902344 C 17.777344 20.097656 18 20.320312 18.238281 20.511719 C 18.703125 20.894531 19.375 20.894531 19.839844 20.511719 L 20.59375 19.871094 C 21.105469 19.457031 21.742188 19.230469 22.398438 19.246094 L 22.398438 20.800781 C 21.984375 20.832031 21.585938 21.023438 21.3125 21.34375 C 20.878906 21.792969 20.320312 22.113281 19.710938 22.273438 C 18.734375 22.558594 17.664062 22.351562 16.878906 21.695312 L 16.257812 21.152344 C 16.046875 20.945312 15.777344 20.832031 15.488281 20.800781 Z M 18.832031 19.199219 C 18.59375 19.167969 18.351562 19.070312 18.160156 18.910156 C 17.921875 18.71875 17.695312 18.496094 17.457031 18.304688 C 16.320312 17.359375 14.65625 17.359375 13.519531 18.304688 C 13.265625 18.496094 13.023438 18.734375 12.769531 18.945312 C 12.304688 19.328125 11.632812 19.328125 11.167969 18.945312 C 10.910156 18.734375 10.671875 18.496094 10.414062 18.304688 C 9.28125 17.375 7.632812 17.375 6.496094 18.304688 C 6.289062 18.464844 6.128906 18.625 5.9375 18.785156 C 5.023438 18.015625 4.574219 16.753906 4.910156 15.519531 C 5.359375 13.808594 7.121094 12.800781 8.832031 13.246094 L 12.449219 5.9375 L 11.679688 5.726562 C 11.246094 5.617188 10.992188 5.183594 11.105469 4.753906 C 11.214844 4.335938 11.664062 4.078125 12.078125 4.191406 L 12.863281 4.398438 L 13.070312 3.632812 C 13.40625 2.335938 14.71875 1.585938 16 1.921875 C 17.28125 2.273438 18.046875 3.585938 17.695312 4.863281 L 17.488281 5.632812 L 18.273438 5.839844 C 18.6875 5.96875 18.945312 6.398438 18.832031 6.832031 C 18.71875 7.246094 18.289062 7.503906 17.855469 7.390625 L 17.089844 7.183594 L 16.558594 15.328125 C 18.238281 15.777344 19.265625 17.503906 18.832031 19.199219 Z M 14.769531 6.558594 L 13.984375 6.351562 L 10.367188 13.664062 L 12.6875 14.289062 Z M 14.769531 6.558594 "/>
</svg>
