<?xml version="1.0" encoding="UTF-8"?>
<svg xmlns="http://www.w3.org/2000/svg" xmlns:xlink="http://www.w3.org/1999/xlink" width="20" height="20" viewBox="0 0 20 20">
<path fill-rule="nonzero" fill="rgb(45.098039%, 29.019608%, 3.137255%)" fill-opacity="1" d="M 1.511719 14.28125 C 1.460938 14.519531 1.433594 14.765625 1.433594 15.007812 C 1.4375 16.921875 2.945312 18.496094 4.859375 18.574219 L 4.859375 20 L 8.570312 17.855469 L 4.859375 15.714844 L 4.859375 17.144531 C 3.738281 17.066406 2.863281 16.132812 2.863281 15.007812 C 2.863281 14.761719 2.90625 14.515625 2.992188 14.28125 Z M 1.511719 14.28125 "/>
<path fill-rule="nonzero" fill="rgb(45.098039%, 29.019608%, 3.137255%)" fill-opacity="1" d="M 17.242188 7.144531 C 16.101562 7.144531 15.0625 7.390625 14.113281 7.886719 C 12.582031 8.691406 11.855469 9.664062 11.269531 11.429688 L 10.246094 11.429688 L 10 12.855469 L 11.15625 12.855469 C 11.15625 13.339844 11.132812 13.800781 11.171875 14.285156 L 10.246094 14.285156 L 10 15.714844 L 11.347656 15.714844 C 11.480469 16.324219 11.492188 16.421875 11.683594 16.851562 C 12.617188 18.976562 14.558594 20 17.214844 20 C 18.101562 20 18.914062 19.835938 19.648438 19.507812 L 19.648438 17.761719 C 19.03125 18.316406 18.171875 18.589844 17.074219 18.589844 C 16.289062 18.589844 15.554688 18.398438 14.878906 18.007812 C 13.941406 17.464844 13.347656 17.007812 13.101562 15.714844 L 18.34375 15.714844 L 18.589844 14.285156 L 12.914062 14.285156 C 12.910156 13.808594 12.898438 13.332031 12.914062 12.855469 L 18.828125 12.855469 L 19.066406 11.429688 L 13.058594 11.429688 C 13.117188 10.964844 13.199219 10.859375 13.527344 10.34375 C 13.851562 9.84375 14.324219 9.507812 14.722656 9.238281 C 15.394531 8.78125 16.21875 8.550781 17.207031 8.550781 C 18.117188 8.550781 18.929688 8.835938 19.648438 9.410156 L 20 7.828125 C 19.253906 7.371094 18.335938 7.144531 17.242188 7.144531 Z M 17.242188 7.144531 "/>
<path fill-rule="nonzero" fill="rgb(45.098039%, 29.019608%, 3.137255%)" fill-opacity="1" d="M 15.140625 0 L 11.429688 2.144531 L 15.140625 4.285156 L 15.140625 2.855469 C 16.261719 2.929688 17.136719 3.863281 17.136719 4.988281 C 17.136719 5.234375 17.09375 5.480469 17.007812 5.714844 L 18.488281 5.714844 C 18.539062 5.476562 18.566406 5.234375 18.566406 4.988281 C 18.566406 3.074219 17.054688 1.5 15.140625 1.421875 Z M 15.140625 0 "/>
<path fill-rule="nonzero" fill="rgb(45.098039%, 29.019608%, 3.137255%)" fill-opacity="1" d="M 4.285156 0 L 4.285156 1.46875 C 3.683594 1.511719 3.113281 1.59375 2.597656 1.757812 C 1.90625 1.976562 1.378906 2.300781 1.019531 2.730469 C 0.660156 3.152344 0.480469 3.605469 0.480469 4.09375 C 0.480469 4.539062 0.625 4.941406 0.917969 5.300781 C 1.214844 5.65625 1.664062 5.957031 2.261719 6.195312 C 2.664062 6.359375 3.371094 6.535156 4.285156 6.71875 L 4.285156 10.210938 C 3.957031 10.164062 3.644531 10.09375 3.351562 9.996094 C 2.78125 9.804688 2.355469 9.550781 2.082031 9.242188 C 1.8125 8.933594 1.640625 8.535156 1.566406 8.050781 L 0 8.15625 C 0.0234375 8.800781 0.253906 9.386719 0.6875 9.898438 C 1.125 10.410156 1.730469 10.792969 2.496094 11.046875 C 3.003906 11.214844 3.617188 11.308594 4.285156 11.363281 L 4.285156 12.855469 L 5.714844 12.855469 L 5.714844 11.402344 C 6.460938 11.371094 7.160156 11.265625 7.773438 11.050781 C 8.492188 10.796875 9.042969 10.445312 9.425781 9.992188 C 9.808594 9.535156 10 9.046875 10 8.53125 C 10 8.011719 9.828125 7.554688 9.476562 7.160156 C 9.128906 6.757812 8.589844 6.429688 7.855469 6.171875 C 7.449219 6.027344 6.683594 5.863281 5.714844 5.679688 L 5.714844 2.625 C 6.296875 2.691406 6.804688 2.804688 7.152344 3.023438 C 7.652344 3.335938 7.945312 3.800781 8.03125 4.410156 L 9.625 4.316406 C 9.59375 3.75 9.390625 3.242188 9.007812 2.792969 C 8.625 2.34375 8.074219 2.007812 7.359375 1.777344 C 6.871094 1.617188 6.308594 1.53125 5.714844 1.480469 L 5.714844 0 Z M 4.285156 2.613281 L 4.285156 5.386719 C 3.449219 5.210938 2.8125 5.035156 2.570312 4.867188 C 2.246094 4.640625 2.082031 4.355469 2.082031 4.007812 C 2.082031 3.605469 2.3125 3.265625 2.769531 2.984375 C 3.109375 2.773438 3.648438 2.667969 4.285156 2.613281 Z M 5.714844 7.019531 C 6.136719 7.105469 6.742188 7.21875 6.921875 7.273438 C 7.449219 7.429688 7.828125 7.617188 8.054688 7.847656 C 8.285156 8.070312 8.398438 8.335938 8.398438 8.636719 C 8.398438 8.9375 8.277344 9.214844 8.039062 9.46875 C 7.804688 9.71875 7.445312 9.917969 6.957031 10.0625 C 6.589844 10.175781 6.167969 10.226562 5.714844 10.253906 Z M 5.714844 7.019531 "/>
</svg>
