<?xml version="1.0" encoding="UTF-8"?>
<svg xmlns="http://www.w3.org/2000/svg" xmlns:xlink="http://www.w3.org/1999/xlink" width="20" height="20" viewBox="0 0 20 20">
<path fill-rule="nonzero" fill="rgb(0%, 57.254902%, 85.490196%)" fill-opacity="1" d="M 5 1.667969 L 3.332031 3.332031 L 3.332031 16.667969 L 4.425781 16.667969 C 4.425781 16.667969 4.59375 18.332031 5.78125 18.332031 C 6.929688 18.332031 7.082031 16.667969 7.082031 16.667969 L 12.917969 16.667969 C 12.917969 16.667969 13.105469 18.332031 14.21875 18.332031 C 15.578125 18.332031 15.574219 16.667969 15.574219 16.667969 L 16.667969 16.667969 L 16.667969 3.332031 L 15 1.667969 Z M 6.667969 3.332031 L 13.332031 3.332031 L 13.332031 5 L 6.667969 5 Z M 5 6.667969 L 15 6.667969 L 15 11.667969 L 5 11.667969 Z M 5 13.332031 L 6.667969 13.332031 L 6.667969 15 L 5 15 Z M 13.332031 13.332031 L 15 13.332031 L 15 15 L 13.332031 15 Z M 13.332031 13.332031 "/>
</svg>
