<?xml version="1.0" encoding="UTF-8"?>
<svg xmlns="http://www.w3.org/2000/svg" xmlns:xlink="http://www.w3.org/1999/xlink" width="20" height="20" viewBox="0 0 20 20">
<path fill-rule="nonzero" fill="rgb(100%, 100%, 100%)" fill-opacity="1" d="M 10 0.660156 C 8.277344 0.671875 5.941406 1.160156 4.96875 1.566406 C 3.980469 1.976562 3.324219 2.386719 3.121094 3.417969 L 2.378906 9.121094 L 2.378906 16.984375 L 3.65625 16.984375 L 3.65625 18.210938 C 3.65625 19.714844 5.851562 19.714844 5.851562 18.210938 L 5.851562 16.984375 L 14.144531 16.984375 L 14.144531 18.210938 C 14.144531 19.714844 16.34375 19.714844 16.34375 18.210938 L 16.34375 16.984375 L 17.621094 16.984375 L 17.621094 9.121094 L 16.878906 3.417969 C 16.675781 2.386719 16.019531 1.976562 15.03125 1.566406 C 14.058594 1.160156 11.722656 0.671875 10 0.660156 Z M 6.863281 2.101562 L 13.136719 2.101562 C 13.753906 2.101562 13.753906 3.027344 13.136719 3.027344 L 6.863281 3.027344 C 6.246094 3.027344 6.246094 2.101562 6.863281 2.101562 Z M 5.199219 3.960938 L 14.800781 3.960938 C 15.453125 3.960938 15.625 4.296875 15.703125 4.796875 L 16.277344 8.933594 C 16.332031 9.332031 16.21875 9.722656 15.667969 9.722656 L 4.332031 9.722656 C 3.78125 9.722656 3.667969 9.332031 3.722656 8.933594 L 4.296875 4.796875 C 4.375 4.296875 4.546875 3.960938 5.199219 3.960938 Z M 4.753906 12.410156 C 5.335938 12.410156 5.808594 12.882812 5.808594 13.464844 C 5.808594 14.046875 5.335938 14.515625 4.753906 14.515625 C 4.171875 14.515625 3.699219 14.046875 3.699219 13.464844 C 3.699219 12.882812 4.171875 12.410156 4.753906 12.410156 Z M 15.246094 12.410156 C 15.828125 12.410156 16.300781 12.882812 16.300781 13.464844 C 16.300781 14.046875 15.828125 14.515625 15.246094 14.515625 C 14.664062 14.515625 14.191406 14.046875 14.191406 13.464844 C 14.191406 12.882812 14.664062 12.410156 15.246094 12.410156 Z M 15.246094 12.410156 "/>
<path fill-rule="nonzero" fill="rgb(0%, 57.254902%, 85.490196%)" fill-opacity="1" d="M 2.238281 0.00390625 C 0.804688 0.00390625 0 0.742188 0 2.253906 L 0 17.84375 C 0 19.257812 0.726562 20 2.160156 20 L 17.839844 20 C 19.273438 20 20 19.296875 20 17.84375 L 20 2.253906 C 20 0.777344 19.273438 0.00390625 17.796875 0.00390625 C 17.796875 0.00390625 2.234375 -0.00390625 2.238281 0.00390625 Z M 10 0.660156 C 11.722656 0.671875 14.054688 1.160156 15.03125 1.566406 C 16.015625 1.976562 16.675781 2.386719 16.882812 3.414062 L 17.621094 9.121094 L 17.621094 16.980469 L 16.347656 16.980469 L 16.347656 18.210938 C 16.347656 19.714844 14.144531 19.714844 14.144531 18.210938 L 14.144531 16.980469 L 5.851562 16.980469 L 5.851562 18.210938 C 5.851562 19.714844 3.652344 19.714844 3.652344 18.210938 L 3.652344 16.980469 L 2.378906 16.980469 L 2.378906 9.121094 L 3.117188 3.414062 C 3.324219 2.386719 3.984375 1.976562 4.96875 1.566406 C 5.945312 1.160156 8.277344 0.671875 10 0.660156 Z M 6.863281 2.097656 C 6.246094 2.097656 6.246094 3.023438 6.863281 3.023438 L 13.136719 3.023438 C 13.753906 3.023438 13.753906 2.097656 13.136719 2.097656 Z M 5.199219 3.960938 C 4.546875 3.960938 4.375 4.292969 4.296875 4.796875 L 3.722656 8.933594 C 3.667969 9.328125 3.78125 9.722656 4.332031 9.722656 L 15.667969 9.722656 C 16.21875 9.722656 16.332031 9.328125 16.277344 8.933594 L 15.703125 4.796875 C 15.625 4.292969 15.453125 3.960938 14.800781 3.960938 Z M 4.753906 12.40625 C 4.171875 12.40625 3.699219 12.878906 3.699219 13.464844 C 3.699219 14.046875 4.171875 14.515625 4.753906 14.515625 C 5.335938 14.515625 5.808594 14.046875 5.808594 13.464844 C 5.808594 12.878906 5.335938 12.40625 4.753906 12.40625 Z M 15.246094 12.40625 C 14.664062 12.40625 14.191406 12.878906 14.191406 13.464844 C 14.191406 14.046875 14.664062 14.515625 15.246094 14.515625 C 15.828125 14.515625 16.300781 14.046875 16.300781 13.464844 C 16.300781 12.878906 15.828125 12.40625 15.246094 12.40625 Z M 15.246094 12.40625 "/>
</svg>
