<?xml version="1.0" encoding="UTF-8"?>
<svg xmlns="http://www.w3.org/2000/svg" xmlns:xlink="http://www.w3.org/1999/xlink" width="24" height="24" viewBox="0 0 24 24">
<path fill-rule="nonzero" fill="rgb(0%, 0%, 0%)" fill-opacity="1" d="M 16.800781 16.398438 C 17.601562 19.199219 17.199219 23.199219 17.199219 23.199219 C 16.398438 24 7.601562 24 6.800781 23.199219 C 6.800781 23.199219 6.398438 19.199219 7.199219 16.398438 C 8.800781 18 15.199219 18 16.800781 16.398438 Z M 16.800781 16.398438 "/>
<path fill-rule="nonzero" fill="rgb(0%, 0%, 0%)" fill-opacity="1" d="M 17.601562 0.800781 C 17.601562 0 20 0 20 0.800781 C 20 4.800781 15.199219 8.398438 12 15.601562 C 11.601562 15.601562 10.398438 14 10.398438 14 C 13.601562 7.199219 17.601562 4 17.601562 0.800781 Z M 16.398438 9.199219 C 15.601562 10.398438 15.199219 10.800781 14.800781 11.601562 C 14.800781 12.800781 14.398438 13.601562 12.800781 16 C 12.398438 16.800781 14.800781 16.800781 15.199219 16 C 16.800781 14 17.199219 12.800781 16.398438 9.199219 Z M 15.199219 0.800781 C 15.199219 0 12.800781 0 12.800781 0.769531 C 12.398438 3.199219 12.800781 5.199219 13.601562 7.199219 C 14 6.800781 14.800781 5.601562 15.199219 4.800781 C 14.800781 3.199219 14.800781 2.398438 15.199219 0.800781 Z M 6.398438 0.800781 C 6.398438 4.800781 8.800781 7.199219 12 9.601562 C 11.601562 10.398438 11.199219 11.199219 10.640625 12 C 7.199219 9.199219 4 5.601562 4 0.800781 C 4 0 6.398438 0 6.398438 0.800781 Z M 8 10.398438 C 7.601562 12.800781 7.199219 14.398438 8.800781 16 C 9.199219 16.398438 10.800781 16.800781 12 16.398438 C 9.601562 14.398438 9.601562 13.601562 10 12.398438 C 9.601562 12 8.800781 11.199219 8 10.398438 Z M 11.199219 0.800781 C 11.199219 0 8.800781 0 8.800781 0.800781 C 9.199219 2.800781 10 4.398438 9.601562 6.398438 C 10 7.199219 10.800781 8 11.601562 8.398438 C 12.398438 5.601562 11.601562 3.199219 11.199219 0.800781 Z M 11.199219 0.800781 "/>
</svg>
