<?xml version="1.0" encoding="UTF-8"?>
<svg xmlns="http://www.w3.org/2000/svg" xmlns:xlink="http://www.w3.org/1999/xlink" width="24" height="24" viewBox="0 0 24 24">
<path fill-rule="nonzero" fill="rgb(0%, 0%, 0%)" fill-opacity="1" d="M 9.601562 0.800781 C 9.601562 0.800781 9.601562 3.199219 9.601562 3.199219 C 9.601562 3.199219 13.601562 3.199219 13.601562 3.199219 C 14.398438 3.199219 14.398438 4 14.398438 4 L 14.398438 20 C 14.398438 20 14.398438 20.800781 13.601562 20.800781 C 13.601562 20.800781 9.601562 20.800781 9.601562 20.800781 L 9.601562 23.199219 C 9.601562 24 4.800781 24 4.800781 23.199219 L 4.800781 20.800781 C 4.800781 20.800781 0.800781 20.800781 0.800781 20.800781 C 0 20.800781 0 20 0 20 L 0 4 C 0 4 0 3.199219 0.800781 3.199219 C 0.800781 3.199219 4.800781 3.199219 4.800781 3.199219 C 4.800781 3.199219 4.800781 0.800781 4.800781 0.800781 C 4.800781 0 9.601562 0 9.601562 0.800781 Z M 7.199219 6.398438 C 4 6.398438 1.601562 8.800781 1.601562 12 C 1.601562 15.199219 4 17.601562 7.199219 17.601562 C 10.398438 17.601562 12.800781 15.199219 12.800781 12 C 12.800781 8.800781 10.398438 6.398438 7.199219 6.398438 Z M 7.199219 6.398438 "/>
<path fill-rule="nonzero" fill="rgb(0%, 0%, 0%)" fill-opacity="1" d="M 4.800781 14.398438 C 4.800781 14.398438 9.601562 14.398438 9.601562 14.398438 C 10.398438 14.398438 10.398438 16 9.601562 16 C 9.601562 16 4.800781 16 4.800781 16 C 4 16 4 14.398438 4.800781 14.398438 Z M 4 8.800781 C 3.601562 9.199219 5.761719 11.359375 5.761719 11.359375 C 5.761719 11.359375 5.601562 11.679688 5.601562 12 C 5.601562 12.800781 6.207031 13.601562 7.199219 13.601562 C 8.207031 13.601562 8.800781 12.800781 8.800781 12 C 8.800781 11.199219 8.207031 10.398438 7.199219 10.398438 C 6.71875 10.398438 6.558594 10.558594 6.558594 10.558594 C 6.558594 10.558594 4.398438 8.398438 4 8.800781 Z M 4 8.800781 "/>
<path fill-rule="nonzero" fill="rgb(0%, 0%, 0%)" fill-opacity="1" d="M 22.398438 14.960938 C 22.800781 16.800781 22.800781 19.199219 22.800781 19.199219 C 22.398438 19.601562 16.800781 19.601562 16.398438 19.199219 C 16.398438 19.199219 16.398438 16.800781 16.800781 14.960938 C 18 16 21.601562 16 22.398438 14.960938 Z M 22.398438 14.960938 "/>
<path fill-rule="nonzero" fill="rgb(0%, 0%, 0%)" fill-opacity="1" d="M 22.398438 5.601562 C 22.398438 5.199219 24 5.199219 24 5.601562 C 24 8 21.601562 10.398438 19.679688 14.398438 C 19.199219 14 18.800781 13.441406 18.800781 13.441406 C 20.398438 9.601562 22.398438 7.601562 22.398438 5.601562 Z M 22.398438 10.398438 C 22 11.199219 21.601562 11.601562 21.375 12 C 21.375 12.800781 21.136719 13.214844 20.160156 14.640625 C 20 15.199219 21.199219 15.199219 21.601562 14.800781 C 22.398438 13.601562 22.800781 12.800781 22.398438 10.398438 Z M 21.601562 5.601562 C 21.601562 5.199219 20 5.199219 20 5.601562 C 20 7.199219 20 8 20.480469 9.28125 C 20.71875 9.039062 21.199219 8 21.441406 7.601562 C 21.40625 6.945312 21.40625 6.398438 21.601562 5.601562 Z M 16.800781 5.601562 C 16.800781 8 17.601562 9.359375 19.601562 10.800781 C 19.359375 11.199219 19.199219 11.601562 18.878906 12.238281 C 16.800781 10.574219 15.199219 8.398438 15.199219 5.601562 C 15.199219 5.199219 16.800781 5.199219 16.800781 5.601562 Z M 17.199219 11.199219 C 16.800781 12.800781 17.199219 13.601562 17.761719 14.640625 C 18 14.878906 18.800781 15.199219 19.679688 14.910156 C 18.238281 13.601562 18.160156 13.121094 18.398438 12.398438 C 18 12 17.601562 11.601562 17.199219 11.199219 Z M 19.199219 5.601562 C 19.199219 5.199219 17.601562 5.199219 17.601562 5.601562 C 18 6.800781 18.398438 7.601562 18.238281 8.894531 C 18.398438 9.359375 18.960938 9.855469 19.441406 10.097656 C 20 8.398438 19.550781 7.023438 19.199219 5.601562 Z M 19.199219 5.601562 "/>
</svg>
