<?xml version="1.0" encoding="UTF-8"?>
<svg xmlns="http://www.w3.org/2000/svg" xmlns:xlink="http://www.w3.org/1999/xlink" width="24" height="24" viewBox="0 0 24 24">
<path fill-rule="nonzero" fill="rgb(0%, 0%, 0%)" fill-opacity="1" d="M 12 0 C 18.609375 0 24 5.40625 24 12 C 24 18.609375 18.625 24 12 24 C 5.375 24 0 18.609375 0 12 C 0 5.40625 5.40625 0 12 0 Z M 12 0.800781 C 5.808594 0.800781 0.800781 5.808594 0.800781 12 C 0.800781 18.207031 5.808594 23.199219 12 23.199219 C 18.207031 23.199219 23.199219 18.207031 23.199219 12 C 23.199219 5.808594 18.207031 0.800781 12 0.800781 Z M 17.601562 4.800781 C 18.398438 4.800781 18.398438 6.398438 17.601562 6.398438 L 15.199219 6.398438 C 14.800781 6.398438 12.398438 5.199219 13.199219 4.800781 Z M 10.800781 4.800781 C 11.601562 5.199219 9.199219 6.398438 8.800781 6.398438 L 6.398438 6.398438 C 5.601562 6.398438 5.601562 4.800781 6.398438 4.800781 Z M 6.398438 8 C 7.199219 8 6 9.601562 5.601562 9.601562 C 5.601562 9.601562 4 9.601562 4 9.601562 C 3.199219 9.601562 3.199219 8 4 8 C 4 8 6.398438 8 6.398438 8 Z M 20 8 C 20.800781 8 20.800781 9.601562 20 9.601562 L 18.398438 9.601562 C 18 9.601562 16.800781 8 17.601562 8 Z M 20.800781 11.199219 C 21.601562 11.199219 21.601562 12.800781 20.800781 12.800781 L 19.199219 12.800781 C 18.398438 12.800781 18.398438 11.199219 19.199219 11.199219 Z M 4.800781 11.199219 C 5.601562 11.199219 5.601562 12.800781 4.800781 12.800781 L 3.199219 12.800781 C 2.398438 12.800781 2.398438 11.199219 3.199219 11.199219 Z M 5.601562 14.398438 C 6 14.398438 7.199219 16 6.398438 16 C 6.398438 16 4 16 4 16 C 3.199219 16 3.199219 14.398438 4 14.398438 C 4 14.398438 5.601562 14.398438 5.601562 14.398438 Z M 20 14.398438 C 20.800781 14.398438 20.800781 16 20 16 L 17.601562 16 C 16.800781 16 18 14.398438 18.398438 14.398438 Z M 12 6.398438 C 14.992188 6.398438 17.601562 9.007812 17.601562 12 C 17.601562 14.992188 14.992188 17.601562 12 17.601562 C 9.007812 17.601562 6.398438 14.992188 6.398438 12 C 6.398438 9.007812 9.007812 6.398438 12 6.398438 Z M 17.601562 17.601562 C 18.398438 17.601562 18.398438 19.199219 17.601562 19.199219 L 13.199219 19.199219 C 12.398438 18.800781 14.800781 17.601562 15.199219 17.601562 Z M 8.800781 17.601562 C 9.199219 17.601562 11.601562 18.800781 10.800781 19.199219 L 6.398438 19.199219 C 5.601562 19.199219 5.601562 17.601562 6.398438 17.601562 Z M 14 1.808594 C 14 1.808594 13.601562 3.199219 12 3.199219 C 10.398438 3.199219 10 1.808594 10 1.808594 C 5.007812 2.800781 1.601562 7.199219 1.601562 12 C 1.601562 16.800781 5.007812 21.199219 10 22.207031 C 10 22.207031 10.398438 20.800781 12 20.800781 C 13.519531 20.800781 14 22.207031 14 22.207031 C 19.007812 21.199219 22.398438 16.800781 22.398438 12 C 22.398438 7.199219 19.007812 2.800781 14 1.808594 Z M 14 1.808594 "/>
<path fill-rule="nonzero" fill="rgb(0%, 0%, 0%)" fill-opacity="1" d="M 14 14 C 14.304688 15.039062 14 16.800781 14 16.800781 C 13.695312 17.105469 10.304688 17.105469 10 16.800781 C 10 16.800781 9.695312 15.039062 10 14 C 10.59375 14.59375 13.40625 14.59375 14 14 Z M 14 14 "/>
<path fill-rule="nonzero" fill="rgb(0%, 0%, 0%)" fill-opacity="1" d="M 14.128906 8.207031 C 14.128906 7.902344 15.199219 7.902344 15.199219 8.207031 C 15.199219 9.695312 13.296875 11.054688 12.015625 13.742188 C 11.855469 13.742188 11.375 13.152344 11.375 13.152344 C 12.65625 10.609375 14.128906 9.390625 14.128906 8.207031 Z M 13.777344 11.359375 C 13.457031 11.808594 13.296875 11.953125 13.136719 12.257812 C 13.136719 12.703125 12.976562 12.992188 12.335938 13.886719 C 12.175781 14.191406 13.136719 14.191406 13.296875 13.886719 C 13.9375 13.152344 14.078125 12.703125 13.777344 11.359375 Z M 13.40625 8.207031 C 13.40625 7.902344 12.398438 7.921875 12.398438 8.207031 C 12.238281 9.105469 12.335938 9.871094 12.65625 10.609375 C 12.816406 10.464844 13.136719 10.015625 13.296875 9.710938 C 13.136719 9.121094 13.246094 8.800781 13.40625 8.207031 Z M 9.871094 8.207031 C 9.871094 9.695312 10.753906 10.609375 12.015625 11.503906 C 11.855469 11.808594 11.695312 12.097656 11.472656 12.398438 C 10.113281 11.359375 8.800781 9.984375 8.800781 8.207031 C 8.800781 7.902344 9.871094 7.902344 9.871094 8.207031 Z M 10.433594 11.808594 C 10.273438 12.703125 10.113281 13.296875 10.753906 13.886719 C 10.910156 14.046875 11.535156 14.191406 12.015625 14.046875 C 11.070312 13.296875 11.070312 12.992188 11.214844 12.542969 C 11.070312 12.398438 10.753906 12.097656 10.433594 11.808594 Z M 11.601562 8.207031 C 11.601562 7.902344 10.609375 7.902344 10.609375 8.207031 C 10.753906 8.945312 11.214844 9.566406 11.070312 10.320312 C 11.214844 10.609375 11.535156 10.910156 11.855469 11.054688 C 12.175781 10.015625 11.761719 9.089844 11.601562 8.207031 Z M 11.601562 8.207031 "/>
</svg>
