<?xml version="1.0" encoding="UTF-8"?>
<svg xmlns="http://www.w3.org/2000/svg" xmlns:xlink="http://www.w3.org/1999/xlink" width="24" height="24" viewBox="0 0 24 24">
<path fill-rule="nonzero" fill="rgb(0%, 0%, 0%)" fill-opacity="1" d="M 14.398438 0.800781 C 14.398438 0.800781 14.398438 1.601562 14.398438 1.601562 C 14.398438 1.601562 20 1.601562 20 1.601562 C 20.800781 1.601562 20.800781 2.398438 20.800781 2.398438 L 20.800781 21.601562 C 20.800781 21.601562 20.800781 22.398438 20 22.398438 C 20 22.398438 14.398438 22.398438 14.398438 22.398438 L 14.398438 23.199219 C 14.398438 24 9.601562 24 9.601562 23.199219 L 9.601562 22.398438 C 9.601562 22.398438 4 22.398438 4 22.398438 C 3.199219 22.398438 3.199219 21.601562 3.199219 21.601562 L 3.199219 2.398438 C 3.199219 2.398438 3.199219 1.601562 4 1.601562 C 4 1.601562 9.601562 1.601562 9.601562 1.601562 C 9.601562 1.601562 9.601562 0.800781 9.601562 0.800781 C 9.601562 0 14.398438 0 14.398438 0.800781 Z M 12 4.800781 C 8 4.800781 4.800781 8 4.800781 12 C 4.800781 16 8 19.199219 12 19.199219 C 16 19.199219 19.199219 16 19.199219 12 C 19.199219 8 16 4.800781 12 4.800781 Z M 12 4.800781 "/>
<path fill-rule="nonzero" fill="rgb(0%, 0%, 0%)" fill-opacity="1" d="M 14.398438 15.199219 C 14.800781 16.800781 14.398438 18 14.398438 18 C 14 18.398438 10 18.398438 9.601562 18 C 9.601562 18 9.199219 16.800781 9.601562 15.199219 C 10.398438 16 13.601562 16 14.398438 15.199219 Z M 14.398438 15.199219 "/>
<path fill-rule="nonzero" fill="rgb(0%, 0%, 0%)" fill-opacity="1" d="M 14.800781 7.199219 C 14.800781 6.800781 16 6.800781 16 7.199219 C 16 9.167969 14 10.800781 12 14.398438 C 11.808594 14.398438 11.199219 13.601562 11.199219 13.601562 C 12.800781 10.800781 14.800781 8.769531 14.800781 7.199219 Z M 14.398438 11.199219 C 14 11.792969 13.792969 12 13.601562 12.398438 C 13.601562 13.199219 13.199219 14 12.398438 14.800781 C 12.207031 15.199219 13.40625 15.199219 13.601562 14.800781 C 14.398438 14 14.800781 12.800781 14.398438 11.199219 Z M 13.601562 7.199219 C 13.601562 6.800781 12.398438 6.816406 12.398438 7.199219 C 12.398438 8.398438 12.398438 9.425781 12.800781 10.398438 C 12.992188 10.207031 13.40625 9.601562 13.601562 9.199219 C 13.40625 8.398438 13.441406 8 13.601562 7.199219 Z M 9.199219 7.199219 C 9.199219 9.199219 10.398438 10.398438 12 11.601562 C 11.808594 12 11.472656 12.398438 11.199219 12.800781 C 9.601562 11.199219 8 9.601562 8 7.199219 C 8 6.800781 9.199219 6.800781 9.199219 7.199219 Z M 10 12 C 9.601562 13.199219 9.601562 14 10.398438 14.800781 C 10.59375 15.054688 11.40625 15.390625 12 15.199219 C 10.816406 14.222656 10.609375 13.390625 10.800781 12.800781 C 10.609375 12.609375 10.398438 12.398438 10 12 Z M 11.601562 7.199219 C 11.601562 6.800781 10.398438 6.800781 10.398438 7.199219 C 10.800781 8.398438 11.199219 9.199219 10.800781 10 C 10.992188 10.398438 11.601562 10.847656 12 11.039062 C 12.320312 9.761719 12 8.398438 11.601562 7.199219 Z M 11.601562 7.199219 "/>
</svg>
