<?xml version="1.0" encoding="UTF-8"?>
<svg xmlns="http://www.w3.org/2000/svg" xmlns:xlink="http://www.w3.org/1999/xlink" width="24" height="24" viewBox="0 0 24 24">
<path fill-rule="nonzero" fill="rgb(0%, 0%, 0%)" fill-opacity="1" d="M 10.046875 22.398438 C 8.894531 22.398438 1.601562 22.222656 1.601562 20.65625 C 1.601562 18.335938 3.457031 17.710938 5.121094 17.296875 C 6.976562 16.816406 21.089844 15.632812 22.015625 16.113281 C 23.136719 16.6875 21.632812 19.984375 19.902344 20.433594 C 18.046875 20.910156 16.335938 22.398438 13.566406 22.398438 C 11.28125 22.398438 15.503906 22.398438 10.046875 22.398438 Z M 11.070312 7.199219 C 10.671875 7.199219 8 7.089844 8 6.207031 C 8 4.910156 9.199219 4.015625 9.535156 3.761719 C 10.175781 3.246094 10.113281 2.59375 10.464844 2.03125 C 10.945312 1.265625 12.175781 0.800781 12.609375 0.800781 C 12.960938 0.800781 14 1.441406 14.769531 2.273438 C 15.121094 2.65625 16 4.433594 16 4.992188 C 16 6.753906 14.976562 7.199219 14.160156 7.199219 C 13.328125 7.199219 13.039062 7.199219 11.070312 7.199219 Z M 5.886719 13.152344 C 4.800781 12.367188 5.871094 10.976562 7.3125 9.9375 C 8.609375 9.007812 9.472656 9.535156 10.863281 9.121094 C 13.328125 8.382812 14.433594 9.152344 14.433594 9.152344 L 17.441406 10.910156 C 19.246094 12.207031 17.585938 12.273438 16.609375 13.695312 C 15.664062 15.070312 13.089844 14.574219 11.871094 14.929688 C 10.847656 15.246094 9.199219 15.535156 7.390625 14.238281 Z M 5.886719 13.152344 "/>
</svg>
