<?xml version="1.0" encoding="UTF-8"?>
<svg xmlns="http://www.w3.org/2000/svg" xmlns:xlink="http://www.w3.org/1999/xlink" width="24" height="24" viewBox="0 0 24 24">
<path fill-rule="nonzero" fill="rgb(0%, 0%, 0%)" fill-opacity="1" d="M 19.199219 22.128906 L 19.199219 19.023438 L 4.800781 14.527344 L 4.800781 17.632812 Z M 8.128906 14.527344 C 7.632812 14.015625 4.335938 10.449219 7.648438 7.375 C 10.433594 4.800781 10.832031 2.640625 9.886719 1.601562 C 9.886719 1.601562 16.945312 4.304688 12.800781 10.59375 C 12.078125 11.648438 10.320312 12.910156 11.246094 15.503906 Z M 12.449219 15.375 C 12.304688 14.863281 11.617188 13.710938 13.679688 11.425781 C 14.785156 10.207031 15.199219 8.398438 15.296875 7.726562 C 15.296875 7.726562 18.945312 9.679688 15.3125 14.480469 Z M 13.214844 16.113281 L 19.199219 14.257812 L 19.199219 17.359375 L 18.191406 17.664062 Z M 10.785156 20.542969 L 4.800781 22.398438 L 4.800781 19.296875 L 5.824219 18.992188 Z M 10.785156 20.542969 "/>
</svg>
