<?xml version="1.0" encoding="UTF-8"?>
<svg xmlns="http://www.w3.org/2000/svg" xmlns:xlink="http://www.w3.org/1999/xlink" width="24" height="24" viewBox="0 0 24 24">
<path fill-rule="nonzero" fill="rgb(0%, 0%, 0%)" fill-opacity="1" d="M 4.800781 4 C 5.601562 6.398438 18.398438 6.398438 19.199219 4 C 19.199219 4 19.199219 21.601562 19.199219 21.601562 C 19.199219 24.800781 4.800781 24.800781 4.800781 21.601562 C 4.800781 21.601562 4.800781 4 4.800781 4 Z M 15.199219 2 C 16 2 16.800781 2.398438 16.800781 2.800781 C 16.800781 3.199219 16 3.601562 15.199219 3.601562 C 14.398438 3.601562 13.601562 3.199219 13.601562 2.800781 C 13.601562 2.398438 14.398438 2 15.199219 2 Z M 19.199219 2.398438 C 19.199219 0 4.800781 0 4.800781 2.398438 C 4.800781 5.601562 19.199219 5.601562 19.199219 2.398438 Z M 19.199219 2.398438 "/>
</svg>
