<?xml version="1.0" encoding="UTF-8"?>
<svg xmlns="http://www.w3.org/2000/svg" xmlns:xlink="http://www.w3.org/1999/xlink" width="24" height="24" viewBox="0 0 24 24">
<path fill-rule="nonzero" fill="rgb(0%, 0%, 0%)" fill-opacity="1" d="M 8.371094 6.1875 C 9.550781 6.1875 10.507812 5.230469 10.507812 4.050781 C 10.507812 2.875 9.550781 1.921875 8.371094 1.921875 C 7.191406 1.921875 6.234375 2.875 6.234375 4.050781 C 6.234375 5.226562 7.191406 6.1875 8.371094 6.1875 Z M 0.480469 17.839844 C 0.960938 17.839844 1.464844 17.726562 1.894531 17.535156 C 2.335938 17.328125 2.839844 17.207031 3.359375 17.207031 C 3.878906 17.207031 4.382812 17.328125 4.820312 17.535156 C 5.25 17.726562 5.734375 17.839844 6.246094 17.839844 C 6.75 17.839844 7.234375 17.730469 7.660156 17.535156 C 8.101562 17.328125 8.601562 17.207031 9.125 17.207031 C 9.644531 17.207031 10.140625 17.328125 10.585938 17.535156 C 11.011719 17.726562 11.5 17.839844 12 17.839844 C 12.503906 17.839844 12.988281 17.730469 13.414062 17.535156 C 13.863281 17.328125 14.363281 17.207031 14.878906 17.207031 C 15.398438 17.207031 15.898438 17.328125 16.339844 17.535156 C 16.769531 17.726562 17.257812 17.839844 17.761719 17.839844 C 18.265625 17.839844 18.75 17.730469 19.179688 17.535156 C 19.621094 17.328125 20.121094 17.207031 20.640625 17.207031 C 21.085938 17.207031 21.519531 17.292969 21.90625 17.441406 C 22.539062 16.753906 22.933594 15.832031 22.933594 14.824219 C 22.933594 12.675781 21.191406 10.933594 19.042969 10.933594 L 18.605469 10.980469 C 18.125 12.921875 16.1875 13.003906 16.1875 13.003906 L 7.296875 13.003906 L 6.550781 12.566406 L 8.34375 9.566406 L 10.304688 10.699219 C 11.480469 11.457031 12.089844 10.390625 12.089844 10.390625 L 14.058594 7.191406 C 14.914062 5.796875 13.097656 4.683594 12.25 6.082031 L 10.871094 8.324219 L 7.597656 6.519531 C 5.332031 5.257812 4.367188 7.347656 4.367188 7.347656 L 1.800781 11.742188 C 1.363281 12.652344 1.753906 13.046875 1.753906 13.046875 L 0.480469 13.046875 L 0.480469 17.847656 Z M 23.519531 22.078125 C 23.015625 22.078125 22.53125 21.96875 22.105469 21.773438 C 21.65625 21.566406 21.164062 21.453125 20.640625 21.453125 C 20.121094 21.453125 19.621094 21.570312 19.179688 21.777344 C 18.75 21.96875 18.265625 22.085938 17.761719 22.085938 C 17.257812 22.085938 16.769531 21.972656 16.339844 21.777344 C 15.898438 21.570312 15.398438 21.457031 14.878906 21.457031 C 14.355469 21.457031 13.863281 21.574219 13.414062 21.78125 C 12.988281 21.972656 12.5 22.089844 12 22.089844 C 11.496094 22.089844 11.011719 21.980469 10.585938 21.78125 C 10.136719 21.574219 9.644531 21.460938 9.125 21.460938 C 8.601562 21.460938 8.101562 21.582031 7.664062 21.789062 C 7.234375 21.980469 6.75 22.09375 6.25 22.09375 C 5.746094 22.09375 5.261719 21.984375 4.828125 21.789062 C 4.386719 21.582031 3.886719 21.464844 3.371094 21.464844 C 2.851562 21.464844 2.351562 21.585938 1.910156 21.792969 C 1.476562 21.984375 0.992188 22.097656 0.496094 22.097656 L 0.496094 19.976562 C 1 19.976562 1.484375 19.863281 1.910156 19.671875 C 2.351562 19.46875 2.851562 19.347656 3.371094 19.347656 C 3.886719 19.347656 4.386719 19.46875 4.828125 19.675781 C 5.261719 19.867188 5.746094 19.980469 6.253906 19.980469 C 6.757812 19.980469 7.242188 19.867188 7.671875 19.675781 C 8.113281 19.472656 8.609375 19.355469 9.132812 19.355469 C 9.652344 19.355469 10.152344 19.472656 10.59375 19.679688 C 11.019531 19.871094 11.511719 19.988281 12.007812 19.988281 C 12.511719 19.988281 13 19.871094 13.425781 19.679688 C 13.871094 19.476562 14.371094 19.359375 14.890625 19.359375 C 15.40625 19.359375 15.90625 19.476562 16.347656 19.683594 C 16.78125 19.875 17.265625 19.992188 17.769531 19.992188 C 18.273438 19.992188 18.757812 19.875 19.191406 19.683594 C 19.632812 19.484375 20.132812 19.363281 20.648438 19.363281 C 21.171875 19.363281 21.667969 19.484375 22.113281 19.691406 C 22.539062 19.882812 23.027344 19.996094 23.53125 19.996094 L 23.53125 22.117188 Z M 23.519531 22.078125 "/>
</svg>
