<?xml version="1.0" encoding="UTF-8"?>
<svg xmlns="http://www.w3.org/2000/svg" xmlns:xlink="http://www.w3.org/1999/xlink" width="24" height="24" viewBox="0 0 24 24">
<path fill-rule="nonzero" fill="rgb(0%, 0%, 0%)" fill-opacity="1" d="M 20.800781 1.601562 C 22.640625 2.128906 23.921875 3.726562 24 6.398438 C 24.046875 7.824219 23.761719 9.601562 23.390625 11.40625 L 23.105469 12.769531 L 22.527344 15.390625 C 22.480469 15.601562 22.449219 15.792969 22.398438 16 C 21.375 20.113281 19.34375 22.257812 16.320312 22.398438 L 16 22.398438 L 6.753906 23.550781 C 4.609375 23.824219 2.414062 23.503906 0.449219 22.609375 L 0 22.398438 L 0 1.601562 L 0.929688 2.238281 C 4.03125 4.480469 5.871094 6.398438 6.398438 8 L 6.929688 9.566406 L 7.265625 10.511719 L 7.472656 11.039062 C 8.015625 12.351562 8.496094 12.910156 9.503906 13.503906 L 9.921875 13.742188 L 10.382812 13.984375 L 11.199219 14.398438 C 14.398438 16 16 16 17.601562 12.800781 L 19.792969 8.414062 C 20.398438 7.214844 20.160156 5.761719 19.199219 4.800781 L 18.734375 4.335938 C 18.480469 4.078125 18.046875 4.078125 17.792969 4.335938 C 17.664062 4.449219 17.601562 4.625 17.601562 4.800781 L 17.601562 5.265625 C 17.601562 6 17.3125 6.6875 16.800781 7.199219 C 16.433594 7.566406 15.855469 7.566406 15.488281 7.199219 C 15.441406 7.152344 15.40625 7.105469 15.375 7.054688 L 14.398438 5.601562 C 13.726562 4.609375 14 3.246094 15.007812 2.574219 C 15.183594 2.464844 15.390625 2.367188 15.601562 2.304688 C 18.144531 1.566406 19.871094 1.34375 20.800781 1.601562 Z M 15.855469 8.800781 C 15.953125 8.878906 16 9.007812 16 9.136719 L 16 10.398438 C 16 10.847656 15.648438 11.199219 15.199219 11.199219 C 14.753906 11.199219 14.398438 10.847656 14.398438 10.398438 L 14.398438 9.9375 C 14.398438 9.710938 14.480469 9.519531 14.640625 9.359375 L 15.199219 8.800781 C 15.375 8.625 15.679688 8.625 15.855469 8.800781 Z M 12 5.9375 C 12.207031 5.9375 12.414062 6.015625 12.558594 6.160156 L 13.839844 7.441406 C 14.144531 7.742188 14.144531 8.257812 13.839844 8.558594 L 13.039062 9.359375 C 12.878906 9.519531 12.6875 9.601562 12.464844 9.601562 L 12 9.601562 C 11.550781 9.601562 11.199219 9.246094 11.199219 8.800781 L 11.199219 6.734375 C 11.199219 6.289062 11.550781 5.9375 12 5.9375 Z M 12 5.9375 "/>
</svg>
