<?xml version="1.0" encoding="UTF-8"?>
<svg xmlns="http://www.w3.org/2000/svg" xmlns:xlink="http://www.w3.org/1999/xlink" width="24" height="24" viewBox="0 0 24 24">
<path fill-rule="nonzero" fill="rgb(0%, 0%, 0%)" fill-opacity="1" d="M 22.933594 5.703125 C 22.601562 5.441406 21.71875 5.230469 21.058594 5.078125 L 20.160156 4.957031 L 20.160156 2.789062 L 20.621094 2.785156 C 21.054688 3.003906 21.671875 3.359375 21.707031 3.839844 L 23.433594 3.839844 C 23.398438 2.878906 22.671875 2.273438 22.023438 1.796875 C 21.589844 1.476562 21.121094 1.304688 20.160156 1.199219 L 20.160156 0 L 19.199219 0 L 19.199219 1.160156 C 18.238281 1.253906 17.929688 1.492188 17.496094 1.882812 C 16.929688 2.390625 16.675781 3.035156 16.675781 3.800781 C 16.675781 4.644531 16.914062 5.265625 17.496094 5.664062 C 17.824219 5.890625 18.234375 6.101562 19.195312 6.292969 L 19.195312 8.640625 C 18.714844 8.554688 18.714844 8.578125 18.546875 8.375 C 18.382812 8.179688 18.339844 7.675781 18.28125 7.675781 L 16.566406 7.675781 C 16.566406 8.636719 16.824219 9.097656 17.476562 9.609375 C 17.945312 9.980469 18.238281 10.046875 19.199219 10.140625 L 19.199219 11.039062 L 20.160156 11.039062 L 20.160156 10.15625 C 21.121094 10.066406 21.9375 9.820312 22.40625 9.417969 C 23.015625 8.898438 23.515625 8.246094 23.515625 7.460938 C 23.515625 6.691406 23.453125 6.105469 22.9375 5.703125 Z M 18.730469 4.363281 C 18.453125 4.210938 18.339844 3.980469 18.339844 3.671875 C 18.339844 3.335938 18.433594 3.078125 18.714844 2.890625 C 18.863281 2.792969 18.71875 2.722656 19.195312 2.671875 L 19.195312 4.566406 C 18.714844 4.492188 18.832031 4.425781 18.726562 4.367188 Z M 20.8125 8.597656 C 20.730469 8.625 20.160156 8.644531 20.160156 8.664062 L 20.160156 6.664062 C 21.121094 6.742188 21.046875 6.835938 21.207031 6.929688 C 21.457031 7.085938 21.582031 7.308594 21.582031 7.59375 C 21.582031 8.082031 21.328125 8.414062 20.8125 8.597656 Z M 18.488281 14.394531 L 18.226562 14.394531 L 15.277344 9.058594 C 15.152344 8.828125 14.832031 8.640625 14.566406 8.640625 L 5.621094 8.640625 C 5.355469 8.640625 5.035156 8.828125 4.910156 9.0625 L 1.964844 14.40625 L 1.699219 14.40625 C 1.171875 14.40625 0.488281 14.835938 0.488281 15.363281 L 0.488281 20.164062 C 0.488281 20.691406 1.171875 21.125 1.699219 21.125 L 2.410156 21.125 L 2.410156 22.566406 C 2.410156 23.355469 3.308594 24.003906 4.097656 24.003906 L 4.578125 24.003906 C 5.371094 24.003906 5.769531 23.355469 5.769531 22.566406 L 5.769531 21.125 L 13.929688 21.125 L 13.929688 22.566406 C 13.929688 23.355469 14.828125 24.003906 15.621094 24.003906 L 16.097656 24.003906 C 16.890625 24.003906 17.289062 23.355469 17.289062 22.566406 L 17.289062 21.125 L 18.5 21.125 C 19.027344 21.125 19.210938 20.691406 19.210938 20.164062 L 19.210938 15.363281 C 19.210938 14.835938 19.027344 14.40625 18.5 14.40625 Z M 3.371094 18.234375 C 2.707031 18.234375 2.167969 17.699219 2.167969 17.035156 C 2.167969 16.371094 2.707031 15.835938 3.371094 15.835938 C 4.03125 15.835938 4.570312 16.371094 4.570312 17.035156 C 4.570312 17.699219 4.03125 18.234375 3.371094 18.234375 Z M 4.328125 14.394531 L 6.273438 10.507812 C 6.394531 10.273438 6.707031 10.078125 6.96875 10.078125 L 13.210938 10.078125 C 13.472656 10.078125 13.785156 10.273438 13.90625 10.511719 L 15.847656 14.40625 L 4.328125 14.40625 Z M 16.808594 18.234375 C 16.148438 18.234375 15.609375 17.699219 15.609375 17.035156 C 15.609375 16.371094 16.148438 15.835938 16.808594 15.835938 C 17.472656 15.835938 18.007812 16.371094 18.007812 17.035156 C 18.007812 17.699219 17.472656 18.234375 16.808594 18.234375 Z M 16.808594 18.234375 "/>
</svg>
