<?xml version="1.0" encoding="UTF-8"?>
<svg xmlns="http://www.w3.org/2000/svg" xmlns:xlink="http://www.w3.org/1999/xlink" width="24" height="24" viewBox="0 0 24 24">
<path fill-rule="nonzero" fill="rgb(0%, 0%, 0%)" fill-opacity="1" d="M 20.640625 2.878906 L 20.640625 0.960938 L 3.359375 0.960938 L 3.359375 2.878906 L 0 2.878906 L 0 23.519531 L 1.921875 23.519531 L 1.921875 4.800781 L 3.359375 4.800781 L 3.359375 6.71875 L 20.640625 6.71875 L 20.640625 4.800781 L 22.078125 4.800781 L 22.078125 23.519531 L 24 23.519531 L 24 2.878906 Z M 20.183594 13.921875 L 17.054688 8.582031 C 16.929688 8.351562 16.617188 8.164062 16.359375 8.164062 L 7.640625 8.164062 C 7.382812 8.164062 7.070312 8.351562 6.949219 8.585938 L 3.820312 13.929688 C 3.308594 13.929688 2.886719 14.363281 2.886719 14.890625 L 2.886719 19.691406 C 2.886719 20.21875 3.308594 20.648438 3.820312 20.648438 L 4.804688 20.648438 L 4.804688 22.089844 C 4.804688 22.882812 5.386719 23.53125 6.160156 23.53125 L 6.628906 23.53125 C 7.402344 23.53125 8.167969 22.882812 8.167969 22.089844 L 8.167969 20.648438 L 15.847656 20.648438 L 15.847656 22.089844 C 15.847656 22.882812 16.617188 23.53125 17.390625 23.53125 L 17.859375 23.53125 C 18.632812 23.53125 19.214844 22.882812 19.214844 22.089844 L 19.214844 20.648438 L 20.199219 20.648438 C 20.710938 20.648438 21.132812 20.21875 21.132812 19.691406 L 21.132812 14.890625 C 21.132812 14.363281 20.710938 13.929688 20.199219 13.929688 Z M 5.453125 17.761719 C 4.808594 17.761719 4.28125 17.222656 4.28125 16.558594 C 4.28125 15.898438 4.804688 15.359375 5.453125 15.359375 C 6.101562 15.359375 6.625 15.898438 6.625 16.558594 C 6.625 17.222656 6.101562 17.761719 5.453125 17.761719 Z M 6.152344 13.921875 L 8.285156 10.027344 C 8.398438 9.792969 8.707031 9.601562 8.960938 9.601562 L 15.042969 9.601562 C 15.300781 9.601562 15.605469 9.792969 15.71875 10.027344 L 17.851562 13.921875 Z M 18.546875 17.761719 C 17.902344 17.761719 17.375 17.222656 17.375 16.558594 C 17.375 15.898438 17.898438 15.359375 18.546875 15.359375 C 19.195312 15.359375 19.71875 15.898438 19.71875 16.558594 C 19.71875 17.222656 19.195312 17.761719 18.546875 17.761719 Z M 18.546875 17.761719 "/>
</svg>
