<?xml version="1.0" encoding="UTF-8"?>
<svg xmlns="http://www.w3.org/2000/svg" xmlns:xlink="http://www.w3.org/1999/xlink" width="24" height="24" viewBox="0 0 24 24">
<path fill-rule="nonzero" fill="rgb(0%, 0%, 0%)" fill-opacity="1" d="M 17.601562 12.800781 C 18.480469 12.800781 19.199219 13.519531 19.199219 14.398438 L 19.199219 19.199219 L 17.601562 19.199219 L 17.601562 20.800781 C 17.601562 21.679688 16.878906 22.398438 16 22.398438 C 15.121094 22.398438 14.398438 21.679688 14.398438 20.800781 L 14.398438 19.199219 L 9.601562 19.199219 L 9.601562 20.800781 C 9.601562 21.679688 8.878906 22.398438 8 22.398438 C 7.121094 22.398438 6.398438 21.679688 6.398438 20.800781 L 6.398438 19.199219 L 4.800781 19.199219 L 4.800781 14.398438 C 4.800781 13.519531 5.519531 12.800781 6.398438 12.800781 L 7.824219 8.542969 C 7.9375 8.222656 8.238281 8 8.574219 8 L 15.425781 8 C 15.761719 8 16.0625 8.222656 16.175781 8.542969 Z M 8 17.601562 C 8.878906 17.601562 9.601562 16.878906 9.601562 16 C 9.601562 15.121094 8.878906 14.398438 8 14.398438 C 7.121094 14.398438 6.398438 15.121094 6.398438 16 C 6.398438 16.878906 7.121094 17.601562 8 17.601562 Z M 8 12.800781 L 16 12.800781 L 15.007812 9.601562 L 8.992188 9.601562 Z M 16 17.601562 C 16.878906 17.601562 17.601562 16.878906 17.601562 16 C 17.601562 15.121094 16.878906 14.398438 16 14.398438 C 15.121094 14.398438 14.398438 15.121094 14.398438 16 C 14.398438 16.878906 15.121094 17.601562 16 17.601562 Z M 3.199219 8.65625 L 3.199219 22.398438 L 0 22.398438 L 0 6.542969 L 12 1.457031 L 24 6.542969 L 24 22.398438 L 20.800781 22.398438 L 20.800781 8.65625 L 12 4.945312 Z M 3.199219 8.65625 "/>
</svg>
