<?xml version="1.0" encoding="UTF-8"?>
<svg xmlns="http://www.w3.org/2000/svg" xmlns:xlink="http://www.w3.org/1999/xlink" width="24" height="24" viewBox="0 0 24 24">
<path fill-rule="nonzero" fill="rgb(0%, 0%, 0%)" fill-opacity="1" d="M 10.464844 3.3125 L 9.777344 1.9375 C 9.664062 1.710938 9.601562 1.472656 9.601562 1.214844 L 9.601562 0.800781 C 9.601562 0.351562 9.953125 0 10.398438 0 L 13.601562 0 C 14.046875 0 14.398438 0.351562 14.398438 0.800781 L 14.398438 1.214844 C 14.398438 1.472656 14.335938 1.710938 14.222656 1.9375 L 13.535156 3.3125 C 18.03125 3.984375 21.585938 7.519531 22.273438 12 L 1.726562 12 C 2.414062 7.519531 5.96875 3.984375 10.464844 3.3125 Z M 1.199219 12.800781 L 22.800781 12.800781 C 23.457031 12.800781 24 13.34375 24 14 C 24 14.65625 23.457031 15.199219 22.800781 15.199219 L 1.199219 15.199219 C 0.542969 15.199219 0 14.65625 0 14 C 0 13.34375 0.542969 12.800781 1.199219 12.800781 Z M 15.472656 21.601562 L 9.152344 21.601562 C 8.464844 21.601562 7.855469 22.03125 7.632812 22.6875 L 7.199219 24 L 1.601562 24 L 5.007812 18.335938 C 5.871094 16.878906 7.425781 16 9.121094 16 L 14.800781 16 C 15.457031 16 16 16.542969 16 17.199219 C 16 17.855469 15.457031 18.398438 14.800781 18.398438 L 10 18.398438 C 9.777344 18.398438 9.601562 18.574219 9.601562 18.800781 C 9.601562 19.023438 9.777344 19.199219 10 19.199219 L 16 19.199219 L 18.398438 16.800781 C 18.847656 16.351562 19.550781 16.351562 20 16.800781 C 20.449219 17.246094 20.449219 17.953125 20 18.398438 L 17.742188 20.65625 C 17.136719 21.265625 16.320312 21.601562 15.472656 21.601562 Z M 15.472656 21.601562 "/>
</svg>
