<?xml version="1.0" encoding="UTF-8"?>
<svg xmlns="http://www.w3.org/2000/svg" xmlns:xlink="http://www.w3.org/1999/xlink" width="24" height="24" viewBox="0 0 24 24">
<path fill-rule="nonzero" fill="rgb(0%, 0%, 0%)" fill-opacity="1" d="M 20.449219 17.839844 C 21.332031 17.554688 21.804688 16.613281 21.511719 15.738281 L 20.875 15.945312 C 21.046875 16.46875 20.761719 17.035156 20.238281 17.207031 L 3.421875 22.890625 L 3.636719 23.519531 Z M 4.964844 8.019531 C 5.886719 7.753906 6.414062 6.789062 6.144531 5.871094 C 5.875 4.953125 4.90625 4.429688 3.980469 4.695312 C 3.054688 4.964844 2.519531 5.929688 2.792969 6.84375 C 3.0625 7.761719 4.03125 8.289062 4.957031 8.019531 Z M 4.246094 10.421875 C 3.328125 8.679688 5.964844 7.273438 6.941406 8.957031 L 8.835938 12.53125 L 12.445312 11.515625 C 13.042969 11.347656 13.867188 11.996094 13.867188 12.753906 L 13.886719 17.851562 C 13.890625 19.113281 12 19.117188 12 17.839844 C 11.996094 16.65625 11.960938 14.132812 11.960938 14.132812 L 8.195312 15.253906 C 7.367188 15.488281 6.6875 15.082031 6.363281 14.476562 L 4.242188 10.421875 Z M 10.074219 11.226562 L 10.074219 0.480469 L 9.113281 0.480469 L 9.113281 11.433594 Z M 2.511719 12.742188 C 1.992188 11.730469 3.332031 11.058594 3.847656 12.070312 L 5.480469 15.238281 C 5.835938 15.898438 6.527344 16.34375 7.324219 16.34375 C 7.574219 16.34375 7.804688 16.28125 8.035156 16.234375 L 10.089844 15.636719 C 11.179688 15.3125 11.601562 16.738281 10.503906 17.058594 L 8.34375 17.683594 C 8.019531 17.785156 7.671875 17.835938 7.308594 17.835938 C 5.917969 17.835938 4.71875 17.054688 4.128906 15.910156 L 2.515625 12.75 Z M 2.511719 12.742188 "/>
</svg>
