<?xml version="1.0" encoding="UTF-8"?>
<svg xmlns="http://www.w3.org/2000/svg" xmlns:xlink="http://www.w3.org/1999/xlink" width="24" height="24" viewBox="0 0 24 24">
<path fill-rule="nonzero" fill="rgb(0%, 0%, 0%)" fill-opacity="1" d="M 22.398438 11.199219 L 22.398438 21.601562 C 22.398438 22.046875 22.03125 22.398438 21.601562 22.398438 L 12.800781 22.367188 Z M 11.199219 21.601562 L 11.199219 14.398438 L 3.199219 14.398438 C 2.320312 14.398438 1.601562 13.679688 1.601562 12.800781 C 1.601562 11.921875 2.320312 11.199219 3.199219 11.199219 L 20 11.199219 Z M 20.800781 5.601562 C 20.800781 7.808594 19.007812 9.601562 16.800781 9.601562 C 14.59375 9.601562 12.800781 7.808594 12.800781 5.601562 C 12.800781 3.390625 14.59375 1.601562 16.800781 1.601562 C 19.007812 1.601562 20.800781 3.390625 20.800781 5.601562 Z M 20.800781 5.601562 "/>
</svg>
