<?xml version="1.0" encoding="UTF-8"?>
<svg xmlns="http://www.w3.org/2000/svg" xmlns:xlink="http://www.w3.org/1999/xlink" width="20" height="20" viewBox="0 0 20 20">
<path fill-rule="evenodd" fill="rgb(67.45098%, 22.352941%, 67.45098%)" fill-opacity="1" d="M 19.308594 18.570312 C 19.308594 1.429688 19.34375 4.21875 19.34375 1.429688 C 19.34375 0 19.273438 0 17.144531 0 L 17.144531 18.625 C 17.210938 20.003906 17.144531 20 18.167969 20 C 19.261719 20 19.308594 20 19.308594 18.570312 Z M 3.582031 16.605469 C 6.425781 17.511719 8.050781 17.511719 10.859375 16.507812 L 10 5.714844 C 7.144531 6.117188 7.144531 6.148438 4.285156 5.714844 Z M 6.171875 0 L 8.167969 0 L 8.960938 4.285156 C 7.53125 4.722656 6.742188 4.722656 5.3125 4.285156 Z M 2.890625 20 L 3.226562 18.570312 L 11.082031 18.570312 L 11.449219 20 Z M 13.546875 0 L 16.347656 0 L 16.347656 0.871094 L 13.546875 0.871094 Z M 13.546875 1.429688 L 16.347656 1.429688 L 16.347656 2.300781 L 13.546875 2.300781 Z M 13.546875 2.855469 L 16.347656 2.855469 L 16.347656 3.726562 L 13.546875 3.726562 Z M 13.546875 4.285156 L 16.347656 4.285156 L 16.347656 5.15625 L 13.546875 5.15625 Z M 13.546875 5.714844 L 16.347656 5.714844 L 16.347656 6.585938 L 13.546875 6.585938 Z M 13.546875 5.714844 "/>
</svg>
