<?xml version="1.0" encoding="UTF-8"?>
<svg xmlns="http://www.w3.org/2000/svg" xmlns:xlink="http://www.w3.org/1999/xlink" width="24" height="24" viewBox="0 0 24 24">
<path fill-rule="nonzero" fill="rgb(0%, 0%, 0%)" fill-opacity="1" d="M 16.800781 0 C 20 0 22.398438 1.601562 22.398438 3.199219 C 22.398438 4.800781 20 6.398438 16.800781 6.398438 C 15.199219 6.398438 14.398438 6 14.398438 6 C 14.398438 8.800781 9.601562 8 9.601562 8 C 9.601562 8.800781 8.800781 9.601562 7.199219 9.601562 C 5.601562 9.601562 4.800781 8.800781 4.800781 8 C 4.800781 7.199219 5.601562 6.398438 7.199219 6.398438 C 7.199219 5.601562 7.199219 3.199219 11.199219 3.199219 C 11.199219 1.601562 13.601562 0 16.800781 0 Z M 3.199219 11.199219 C 3.199219 11.199219 3.199219 23.199219 3.199219 23.199219 C 3.199219 24 8 24 8 23.199219 C 8 23.199219 8 11.199219 8 11.199219 C 8 10.398438 3.199219 10.398438 3.199219 11.199219 Z M 3.199219 11.199219 "/>
</svg>
