<?xml version="1.0" encoding="UTF-8"?>
<svg xmlns="http://www.w3.org/2000/svg" xmlns:xlink="http://www.w3.org/1999/xlink" width="20" height="20" viewBox="0 0 20 20">
<path fill-rule="nonzero" fill="rgb(45.098039%, 29.019608%, 3.137255%)" fill-opacity="1" d="M 1.429688 1.429688 C 0.636719 1.429688 0 2.066406 0 2.855469 L 0 18.570312 C 0 19.363281 0.636719 20 1.429688 20 L 18.570312 20 C 19.363281 20 20 19.363281 20 18.570312 L 20 2.855469 C 20 2.066406 19.363281 1.429688 18.570312 1.429688 Z M 1.785156 2.855469 L 2.5 2.855469 C 2.699219 2.855469 2.855469 3.015625 2.855469 3.214844 L 2.855469 3.929688 C 2.855469 4.125 2.699219 4.285156 2.5 4.285156 L 1.785156 4.285156 C 1.585938 4.285156 1.429688 4.125 1.429688 3.929688 L 1.429688 3.214844 C 1.429688 3.015625 1.585938 2.855469 1.785156 2.855469 Z M 5.714844 2.855469 L 14.285156 2.855469 L 14.285156 10 L 5.714844 10 Z M 17.5 2.855469 L 18.214844 2.855469 C 18.414062 2.855469 18.570312 3.015625 18.570312 3.214844 L 18.570312 3.929688 C 18.570312 4.125 18.414062 4.285156 18.214844 4.285156 L 17.5 4.285156 C 17.300781 4.285156 17.144531 4.125 17.144531 3.929688 L 17.144531 3.214844 C 17.144531 3.015625 17.300781 2.855469 17.5 2.855469 Z M 1.785156 5.714844 L 2.5 5.714844 C 2.699219 5.714844 2.855469 5.875 2.855469 6.070312 L 2.855469 6.785156 C 2.855469 6.984375 2.699219 7.144531 2.5 7.144531 L 1.785156 7.144531 C 1.585938 7.144531 1.429688 6.984375 1.429688 6.785156 L 1.429688 6.070312 C 1.429688 5.875 1.585938 5.714844 1.785156 5.714844 Z M 17.5 5.714844 L 18.214844 5.714844 C 18.414062 5.714844 18.570312 5.875 18.570312 6.070312 L 18.570312 6.785156 C 18.570312 6.984375 18.414062 7.144531 18.214844 7.144531 L 17.5 7.144531 C 17.300781 7.144531 17.144531 6.984375 17.144531 6.785156 L 17.144531 6.070312 C 17.144531 5.875 17.300781 5.714844 17.5 5.714844 Z M 1.785156 8.570312 L 2.5 8.570312 C 2.699219 8.570312 2.855469 8.730469 2.855469 8.929688 L 2.855469 9.644531 C 2.855469 9.839844 2.699219 10 2.5 10 L 1.785156 10 C 1.585938 10 1.429688 9.839844 1.429688 9.644531 L 1.429688 8.929688 C 1.429688 8.730469 1.585938 8.570312 1.785156 8.570312 Z M 17.5 8.570312 L 18.214844 8.570312 C 18.414062 8.570312 18.570312 8.730469 18.570312 8.929688 L 18.570312 9.644531 C 18.570312 9.839844 18.414062 10 18.214844 10 L 17.5 10 C 17.300781 10 17.144531 9.839844 17.144531 9.644531 L 17.144531 8.929688 C 17.144531 8.730469 17.300781 8.570312 17.5 8.570312 Z M 1.785156 11.429688 L 2.5 11.429688 C 2.699219 11.429688 2.855469 11.585938 2.855469 11.785156 L 2.855469 12.5 C 2.855469 12.699219 2.699219 12.855469 2.5 12.855469 L 1.785156 12.855469 C 1.585938 12.855469 1.429688 12.699219 1.429688 12.5 L 1.429688 11.785156 C 1.429688 11.585938 1.585938 11.429688 1.785156 11.429688 Z M 5.714844 11.429688 L 14.285156 11.429688 L 14.285156 18.570312 L 5.714844 18.570312 Z M 17.5 11.429688 L 18.214844 11.429688 C 18.414062 11.429688 18.570312 11.585938 18.570312 11.785156 L 18.570312 12.5 C 18.570312 12.699219 18.414062 12.855469 18.214844 12.855469 L 17.5 12.855469 C 17.300781 12.855469 17.144531 12.699219 17.144531 12.5 L 17.144531 11.785156 C 17.144531 11.585938 17.300781 11.429688 17.5 11.429688 Z M 1.785156 14.285156 L 2.5 14.285156 C 2.699219 14.285156 2.855469 14.445312 2.855469 14.644531 L 2.855469 15.355469 C 2.855469 15.554688 2.699219 15.714844 2.5 15.714844 L 1.785156 15.714844 C 1.585938 15.714844 1.429688 15.554688 1.429688 15.355469 L 1.429688 14.644531 C 1.429688 14.445312 1.585938 14.285156 1.785156 14.285156 Z M 17.5 14.285156 L 18.214844 14.285156 C 18.414062 14.285156 18.570312 14.445312 18.570312 14.644531 L 18.570312 15.355469 C 18.570312 15.554688 18.414062 15.714844 18.214844 15.714844 L 17.5 15.714844 C 17.300781 15.714844 17.144531 15.554688 17.144531 15.355469 L 17.144531 14.644531 C 17.144531 14.445312 17.300781 14.285156 17.5 14.285156 Z M 1.785156 17.144531 L 2.5 17.144531 C 2.699219 17.144531 2.855469 17.300781 2.855469 17.5 L 2.855469 18.214844 C 2.855469 18.414062 2.699219 18.570312 2.5 18.570312 L 1.785156 18.570312 C 1.585938 18.570312 1.429688 18.414062 1.429688 18.214844 L 1.429688 17.5 C 1.429688 17.300781 1.585938 17.144531 1.785156 17.144531 Z M 17.5 17.144531 L 18.214844 17.144531 C 18.414062 17.144531 18.570312 17.300781 18.570312 17.5 L 18.570312 18.214844 C 18.570312 18.414062 18.414062 18.570312 18.214844 18.570312 L 17.5 18.570312 C 17.300781 18.570312 17.144531 18.414062 17.144531 18.214844 L 17.144531 17.5 C 17.144531 17.300781 17.300781 17.144531 17.5 17.144531 Z M 17.5 17.144531 "/>
</svg>
