<?xml version="1.0" encoding="UTF-8"?>
<svg xmlns="http://www.w3.org/2000/svg" xmlns:xlink="http://www.w3.org/1999/xlink" width="24" height="24" viewBox="0 0 24 24">
<path fill-rule="nonzero" fill="rgb(0%, 0%, 0%)" fill-opacity="1" d="M 4.097656 6.71875 L 2.753906 7.585938 C 3.328125 9.742188 4.0625 11.503906 4.929688 12.847656 C 6.015625 14.527344 7.777344 16.238281 10.191406 18.015625 L 8.847656 18.878906 C 6.433594 17.121094 4.6875 15.390625 3.601562 13.710938 C 2.496094 12.03125 1.648438 9.742188 1.007812 6.816406 L 9.070312 1.585938 L 9.9375 1.007812 C 10.671875 0.527344 11.664062 0.734375 12.160156 1.488281 C 12.238281 1.617188 12.304688 1.742188 12.351562 1.902344 C 12.832031 3.550781 13.359375 4.929688 13.921875 6.046875 C 14.703125 7.617188 16.160156 9.855469 18.289062 12.769531 L 11.535156 17.136719 C 9.121094 15.375 7.359375 13.648438 6.273438 11.96875 C 5.40625 10.625 4.671875 8.863281 4.097656 6.71875 Z M 8.929688 3.566406 C 8.191406 4.046875 7.984375 5.039062 8.464844 5.792969 C 8.945312 6.527344 9.9375 6.734375 10.671875 6.257812 C 11.40625 5.777344 11.632812 4.785156 11.136719 4.046875 C 10.65625 3.296875 9.664062 3.089844 8.929688 3.566406 Z M 18.671875 13.457031 L 22.59375 19.503906 C 23.328125 20.609375 23.007812 22.097656 21.886719 22.816406 C 20.785156 23.535156 19.3125 23.214844 18.59375 22.113281 L 18.160156 21.425781 C 18.703125 20.496094 18.671875 19.3125 18.078125 18.398438 L 16 15.199219 Z M 18.671875 13.457031 "/>
</svg>
