<?xml version="1.0" encoding="UTF-8"?>
<svg xmlns="http://www.w3.org/2000/svg" xmlns:xlink="http://www.w3.org/1999/xlink" width="24" height="24" viewBox="0 0 24 24">
<path fill-rule="nonzero" fill="rgb(0%, 0%, 0%)" fill-opacity="1" d="M 10.800781 11.425781 L 10.800781 8.800781 C 10.800781 8.144531 11.34375 7.601562 12 7.601562 C 13.105469 7.601562 14 6.703125 14 5.601562 C 14 4.496094 13.105469 3.601562 12 3.601562 C 10.894531 3.601562 10 4.496094 10 5.601562 C 10 6.257812 9.457031 6.800781 8.800781 6.800781 C 8.144531 6.800781 7.601562 6.257812 7.601562 5.601562 C 7.601562 3.167969 9.566406 1.199219 12 1.199219 C 14.433594 1.199219 16.398438 3.167969 16.398438 5.601562 C 16.398438 7.617188 15.039062 9.3125 13.199219 9.839844 L 13.199219 11.425781 L 22.878906 19.246094 C 23.34375 19.617188 23.617188 20.191406 23.617188 20.800781 C 23.617188 21.902344 22.71875 22.800781 21.617188 22.800781 L 2.382812 22.800781 C 1.777344 22.800781 1.199219 22.527344 0.816406 22.0625 C 0.128906 21.199219 0.257812 19.9375 1.121094 19.246094 Z M 20.496094 20.398438 L 12 13.535156 L 3.503906 20.398438 Z M 20.496094 20.398438 "/>
</svg>
