<?xml version="1.0" encoding="UTF-8"?>
<svg xmlns="http://www.w3.org/2000/svg" xmlns:xlink="http://www.w3.org/1999/xlink" width="24" height="24" viewBox="0 0 24 24">
<path fill-rule="nonzero" fill="rgb(0%, 0%, 0%)" fill-opacity="1" d="M 21.601562 1.601562 C 22.398438 0.800781 10.398438 0 4.800781 5.601562 C 1.601562 8.800781 0 13.601562 0 16 C 0 19.199219 1.601562 24 4.800781 24 C 16 24 20 15.199219 21.601562 12 C 23.199219 8.800781 24 2.398438 22.398438 2.398438 C 21.601562 2.398438 17.601562 4.800781 16 6.398438 C 14.398438 8 14.398438 11.199219 12.800781 12.800781 C 11.199219 14.398438 8.800781 14.398438 7.199219 16 C 5.601562 17.601562 3.199219 20 3.199219 20 C 3.199219 20 4 16 5.601562 14.398438 C 7.199219 12.800781 8.800781 12.800781 10.398438 11.199219 C 12 9.601562 12.800781 6.398438 14.398438 4.800781 C 16 3.199219 20.800781 2.398438 21.601562 1.601562 Z M 21.601562 1.601562 "/>
</svg>
