<?xml version="1.0" encoding="UTF-8"?>
<svg xmlns="http://www.w3.org/2000/svg" xmlns:xlink="http://www.w3.org/1999/xlink" width="20" height="20" viewBox="0 0 20 20">
<path fill-rule="nonzero" fill="rgb(40%, 40%, 40%)" fill-opacity="1" d="M 8.570312 0 L 8.570312 4.671875 C 8.136719 4.925781 7.777344 5.285156 7.527344 5.71875 C 7.277344 6.152344 7.144531 6.640625 7.144531 7.144531 C 7.144531 7.644531 7.277344 8.136719 7.527344 8.570312 C 7.777344 9.003906 8.136719 9.363281 8.570312 9.613281 L 8.570312 20 L 11.429688 20 L 11.429688 9.613281 C 11.863281 9.363281 12.222656 9 12.472656 8.570312 C 12.722656 8.136719 12.855469 7.644531 12.855469 7.144531 C 12.855469 6.640625 12.722656 6.148438 12.472656 5.714844 C 12.222656 5.28125 11.863281 4.921875 11.429688 4.671875 L 11.429688 0 Z M 15.722656 0 L 15.722656 1.832031 C 17.433594 2.84375 18.503906 4.5625 18.503906 6.75 C 18.503906 8.9375 17.433594 10.679688 15.722656 11.695312 L 15.722656 13.550781 C 18.25 12.40625 20.003906 9.757812 20.003906 6.75 C 20.003906 3.742188 18.25 1.144531 15.722656 0 Z M 4.285156 0.00390625 C 1.757812 1.152344 0.00390625 3.765625 0.00390625 6.773438 C 0.00390625 9.785156 1.757812 12.433594 4.285156 13.578125 L 4.285156 11.828125 C 2.578125 10.8125 1.480469 8.859375 1.480469 6.671875 C 1.480469 4.484375 2.578125 2.777344 4.285156 1.761719 Z M 5.714844 2.65625 C 4.058594 3.269531 2.855469 4.871094 2.855469 6.773438 C 2.855469 8.679688 4.058594 10.296875 5.714844 10.910156 L 5.714844 9.273438 C 4.859375 8.769531 4.390625 7.816406 4.390625 6.722656 C 4.390625 5.632812 4.859375 4.808594 5.714844 4.300781 Z M 14.292969 2.671875 L 14.292969 4.25 C 15.148438 4.757812 15.746094 5.683594 15.746094 6.773438 C 15.746094 7.867188 15.148438 8.636719 14.292969 9.144531 L 14.292969 10.75 C 15.949219 10.136719 17.101562 8.679688 17.101562 6.773438 C 17.101562 4.871094 15.949219 3.28125 14.292969 2.671875 Z M 14.292969 2.671875 "/>
<path fill-rule="evenodd" fill="rgb(40%, 40%, 40%)" fill-opacity="1" d="M 5.714844 20 L 10 15.714844 L 14.285156 20 Z M 5.714844 20 "/>
</svg>
