<?xml version="1.0" encoding="UTF-8"?>
<svg xmlns="http://www.w3.org/2000/svg" xmlns:xlink="http://www.w3.org/1999/xlink" width="20" height="20" viewBox="0 0 20 20">
<path fill-rule="nonzero" fill="rgb(67.45098%, 22.352941%, 67.45098%)" fill-opacity="1" d="M 4.285156 1.429688 C 3.59375 1.429688 2.855469 2.167969 2.855469 2.855469 L 2.855469 11.429688 C 2.855469 12.117188 3.59375 12.855469 4.285156 12.855469 L 15.714844 12.855469 C 16.40625 12.855469 17.144531 12.117188 17.144531 11.429688 L 17.144531 2.855469 C 17.144531 2.167969 16.40625 1.429688 15.714844 1.429688 Z M 4.285156 2.855469 L 15.714844 2.855469 L 15.714844 11.429688 L 4.285156 11.429688 Z M 2.855469 14.285156 C 2.5 14.285156 2.398438 14.496094 2.21875 14.855469 L 0.664062 19.328125 C 0.398438 19.683594 1.070312 20 1.429688 20 L 18.570312 20 C 18.929688 20 19.457031 19.640625 19.335938 19.328125 L 17.738281 14.808594 C 17.558594 14.496094 17.5 14.285156 17.144531 14.285156 Z M 2.855469 14.285156 "/>
</svg>
