<?xml version="1.0" encoding="UTF-8"?>
<svg xmlns="http://www.w3.org/2000/svg" xmlns:xlink="http://www.w3.org/1999/xlink" width="24" height="24" viewBox="0 0 24 24">
<path fill-rule="nonzero" fill="rgb(0%, 0%, 0%)" fill-opacity="1" d="M 12 23.519531 C 5.648438 23.519531 0.480469 18.351562 0.480469 12 C 0.480469 5.648438 5.648438 0.480469 12 0.480469 C 18.351562 0.480469 23.519531 5.648438 23.519531 12 C 23.519531 18.351562 18.351562 23.519531 12 23.519531 Z M 12 2.398438 C 6.707031 2.398438 2.398438 6.707031 2.398438 12 C 2.398438 17.292969 6.707031 21.601562 12 21.601562 C 17.292969 21.601562 21.601562 17.292969 21.601562 12 C 21.601562 6.707031 17.292969 2.398438 12 2.398438 Z M 12.023438 3.960938 C 12.023438 3.960938 8.644531 9.753906 8.644531 11.519531 L 8.644531 12.480469 C 8.644531 14.246094 12.039062 20.160156 12.039062 20.160156 C 12.039062 20.160156 15.363281 14.367188 15.363281 12.605469 L 15.363281 11.519531 C 15.363281 9.753906 12.027344 3.964844 12.027344 3.964844 Z M 12.003906 13.921875 C 10.945312 13.921875 10.085938 13.0625 10.085938 12 C 10.085938 10.9375 10.945312 10.078125 12.003906 10.078125 C 13.066406 10.078125 13.925781 10.9375 13.925781 12 C 13.925781 13.0625 13.066406 13.921875 12.003906 13.921875 Z M 12.003906 13.921875 "/>
</svg>
