<?xml version="1.0" encoding="UTF-8"?>
<svg xmlns="http://www.w3.org/2000/svg" xmlns:xlink="http://www.w3.org/1999/xlink" width="20" height="20" viewBox="0 0 20 20">
<path fill-rule="nonzero" fill="rgb(67.45098%, 22.352941%, 67.45098%)" fill-opacity="1" d="M 17.144531 10 L 1.429688 10 L 1.429688 10.714844 L 17.144531 10.714844 Z M 17.144531 10 "/>
<path fill-rule="nonzero" fill="rgb(67.45098%, 22.352941%, 67.45098%)" fill-opacity="1" d="M 16.429688 12.855469 L 2.855469 12.855469 L 2.855469 13.570312 L 16.429688 13.570312 Z M 16.429688 12.855469 "/>
<path fill-rule="nonzero" fill="rgb(67.45098%, 22.352941%, 67.45098%)" fill-opacity="1" d="M 5 7.855469 L 4.285156 7.855469 L 4.285156 15.714844 L 5 15.714844 Z M 5 7.855469 "/>
<path fill-rule="nonzero" fill="rgb(67.45098%, 22.352941%, 67.45098%)" fill-opacity="1" d="M 7.855469 7.855469 L 7.144531 7.855469 L 7.144531 15.714844 L 7.855469 15.714844 Z M 7.855469 7.855469 "/>
<path fill-rule="nonzero" fill="rgb(67.45098%, 22.352941%, 67.45098%)" fill-opacity="1" d="M 11.429688 7.855469 L 10.714844 7.855469 L 10.714844 15.714844 L 11.429688 15.714844 Z M 11.429688 7.855469 "/>
<path fill-rule="nonzero" fill="rgb(67.45098%, 22.352941%, 67.45098%)" fill-opacity="1" d="M 14.285156 7.855469 L 13.570312 7.855469 L 13.570312 15.714844 L 14.285156 15.714844 Z M 14.285156 7.855469 "/>
<path fill-rule="nonzero" fill="rgb(67.45098%, 22.352941%, 67.45098%)" fill-opacity="1" d="M 8.429688 7.144531 L 11.285156 2.855469 C 11.363281 2.679688 11.503906 2.542969 11.683594 2.472656 C 11.859375 2.398438 12.058594 2.402344 12.234375 2.480469 C 12.410156 2.554688 12.550781 2.695312 12.621094 2.875 C 12.691406 3.054688 12.691406 3.253906 12.613281 3.429688 L 10.144531 7.144531 Z M 8.429688 7.144531 "/>
<path fill-rule="evenodd" fill="rgb(67.45098%, 22.352941%, 67.45098%)" fill-opacity="1" d="M 0 7.144531 L 18.570312 7.144531 L 15.714844 17.144531 L 2.855469 17.144531 Z M 1.785156 8.570312 L 16.785156 8.570312 L 14.644531 15.714844 L 3.929688 15.714844 Z M 1.785156 8.570312 "/>
</svg>
