<?xml version="1.0" encoding="UTF-8"?>
<svg xmlns="http://www.w3.org/2000/svg" xmlns:xlink="http://www.w3.org/1999/xlink" width="24" height="24" viewBox="0 0 24 24">
<path fill-rule="nonzero" fill="rgb(0%, 0%, 0%)" fill-opacity="1" d="M 8.832031 4.128906 C 8.320312 3.695312 8.257812 2.945312 8.671875 2.433594 C 9.105469 1.921875 9.855469 1.855469 10.367188 2.273438 L 15.167969 6.273438 C 15.742188 6.753906 15.742188 7.648438 15.167969 8.128906 L 10.367188 12.128906 C 9.855469 12.542969 9.105469 12.480469 8.671875 11.96875 C 8.257812 11.457031 8.320312 10.703125 8.832031 10.273438 L 12.527344 7.199219 Z M 6.128906 7.199219 L 2.433594 4.128906 C 1.921875 3.695312 1.855469 2.945312 2.273438 2.433594 C 2.703125 1.921875 3.457031 1.855469 3.96875 2.273438 L 8.769531 6.273438 C 9.34375 6.753906 9.34375 7.648438 8.769531 8.128906 L 3.96875 12.128906 C 3.457031 12.542969 2.703125 12.480469 2.273438 11.96875 C 1.855469 11.457031 1.921875 10.703125 2.433594 10.273438 Z M 18.929688 7.199219 L 15.230469 4.128906 C 14.71875 3.695312 14.65625 2.945312 15.070312 2.433594 C 15.503906 1.921875 16.257812 1.855469 16.769531 2.273438 L 21.566406 6.273438 C 22.144531 6.753906 22.144531 7.648438 21.566406 8.128906 L 16.769531 12.128906 C 16.257812 12.542969 15.503906 12.480469 15.070312 11.96875 C 14.65625 11.457031 14.71875 10.703125 15.230469 10.273438 Z M 4.800781 17.601562 C 5.679688 17.601562 6.398438 18.320312 6.398438 19.199219 C 6.398438 20.078125 5.679688 20.800781 4.800781 20.800781 C 3.921875 20.800781 3.199219 20.078125 3.199219 19.199219 C 3.199219 18.320312 3.921875 17.601562 4.800781 17.601562 Z M 9.601562 17.601562 C 10.480469 17.601562 11.199219 18.320312 11.199219 19.199219 C 11.199219 20.078125 10.480469 20.800781 9.601562 20.800781 C 8.71875 20.800781 8 20.078125 8 19.199219 C 8 18.320312 8.71875 17.601562 9.601562 17.601562 Z M 14.398438 17.601562 C 15.28125 17.601562 16 18.320312 16 19.199219 C 16 20.078125 15.28125 20.800781 14.398438 20.800781 C 13.519531 20.800781 12.800781 20.078125 12.800781 19.199219 C 12.800781 18.320312 13.519531 17.601562 14.398438 17.601562 Z M 19.199219 17.601562 C 20.078125 17.601562 20.800781 18.320312 20.800781 19.199219 C 20.800781 20.078125 20.078125 20.800781 19.199219 20.800781 C 18.320312 20.800781 17.601562 20.078125 17.601562 19.199219 C 17.601562 18.320312 18.320312 17.601562 19.199219 17.601562 Z M 4.800781 16 C 3.039062 16 1.601562 17.441406 1.601562 19.199219 C 1.601562 20.960938 3.039062 22.398438 4.800781 22.398438 L 19.199219 22.398438 C 20.960938 22.398438 22.398438 20.960938 22.398438 19.199219 C 22.398438 17.441406 20.960938 16 19.199219 16 Z M 4.800781 14.398438 L 19.199219 14.398438 C 21.855469 14.398438 24 16.542969 24 19.199219 C 24 21.855469 21.855469 24 19.199219 24 L 4.800781 24 C 2.144531 24 0 21.855469 0 19.199219 C 0 16.542969 2.144531 14.398438 4.800781 14.398438 Z M 4.800781 14.398438 "/>
</svg>
