<?xml version="1.0" encoding="UTF-8"?>
<svg xmlns="http://www.w3.org/2000/svg" xmlns:xlink="http://www.w3.org/1999/xlink" width="24" height="24" viewBox="0 0 24 24">
<path fill-rule="nonzero" fill="rgb(0%, 0%, 0%)" fill-opacity="1" d="M 19.199219 1.601562 C 16 9.601562 22.398438 19.199219 22.398438 22.398438 C 20.800781 24 3.199219 24 1.601562 22.398438 C 1.601562 19.199219 8 9.601562 4.800781 1.601562 C 4.800781 0 19.199219 0 19.199219 1.601562 Z M 13.121094 16.289062 C 12.367188 16.863281 11.632812 16.863281 10.878906 16.289062 L 8.640625 20.207031 C 10.878906 20.992188 13.121094 20.992188 15.359375 20.207031 Z M 12 13.535156 C 11.441406 13.535156 10.878906 14.113281 10.878906 14.703125 C 10.878906 15.296875 11.441406 15.886719 12 15.886719 C 12.558594 15.886719 13.121094 15.296875 13.121094 14.703125 C 13.121094 14.113281 12.558594 13.535156 12 13.535156 Z M 9.390625 9.601562 C 7.152344 10.785156 6.398438 12.351562 6.398438 14.703125 L 10.128906 14.703125 C 10.128906 14.113281 10.511719 13.328125 11.246094 12.945312 Z M 14.609375 9.601562 L 12.753906 12.945312 C 13.488281 13.328125 13.871094 14.113281 13.871094 14.703125 L 17.601562 14.703125 C 17.601562 12.351562 16.847656 10.785156 14.609375 9.601562 Z M 14.609375 9.601562 "/>
</svg>
