<?xml version="1.0" encoding="UTF-8"?>
<svg xmlns="http://www.w3.org/2000/svg" xmlns:xlink="http://www.w3.org/1999/xlink" width="24" height="24" viewBox="0 0 24 24">
<path fill-rule="nonzero" fill="rgb(0%, 0%, 0%)" fill-opacity="1" d="M 1.183594 14.398438 L 4.609375 9.601562 L 2.257812 9.601562 L 0 12.753906 L 0 8 L 8.800781 8 L 8.800781 9.601562 L 7.054688 9.601562 L 3.617188 14.398438 L 5.984375 14.398438 L 8.800781 10.449219 L 8.800781 16 L 0 16 L 0 14.398438 Z M 22.816406 9.601562 L 19.390625 14.398438 L 21.742188 14.398438 L 24 11.246094 L 24 16 L 15.199219 16 L 15.199219 14.398438 L 16.945312 14.398438 L 20.382812 9.601562 L 18.015625 9.601562 L 15.199219 13.550781 L 15.199219 8 L 24 8 L 24 9.601562 Z M 12.800781 0 L 14.398438 0 L 14.398438 24 L 12.800781 24 Z M 9.601562 0 L 11.199219 0 L 11.199219 24 L 9.601562 24 Z M 9.601562 0 "/>
</svg>
