<?xml version="1.0" encoding="UTF-8"?>
<svg xmlns="http://www.w3.org/2000/svg" xmlns:xlink="http://www.w3.org/1999/xlink" width="24" height="24" viewBox="0 0 24 24">
<path fill-rule="nonzero" fill="rgb(0%, 0%, 0%)" fill-opacity="1" d="M 6.363281 20.257812 L 0.480469 14.335938 L 0.484375 15.371094 L 5.960938 20.886719 C 6.589844 21.570312 7.671875 20.777344 7.671875 20.777344 L 7.152344 20.222656 C 7.152344 20.222656 6.644531 20.558594 6.378906 20.269531 Z M 0.480469 9.121094 L 6.71875 9.121094 L 6.71875 9.601562 L 0.480469 9.601562 Z M 22.832031 7.433594 L 23.519531 7.761719 L 16.683594 21.601562 L 15.925781 21.601562 Z M 11.488281 6.300781 L 8.734375 9.488281 C 8.574219 9.691406 8.328125 9.816406 8.050781 9.816406 C 7.554688 9.816406 7.160156 9.417969 7.160156 8.921875 C 7.160156 8.65625 7.277344 8.417969 7.464844 8.257812 L 10.429688 4.828125 C 10.59375 4.632812 10.839844 4.507812 11.117188 4.507812 L 15.414062 4.507812 C 15.730469 4.507812 16.011719 4.636719 16.21875 4.832031 L 18.960938 7.578125 L 21.230469 5.308594 C 21.390625 5.175781 21.59375 5.09375 21.820312 5.09375 C 22.328125 5.09375 22.742188 5.503906 22.742188 6.015625 C 22.742188 6.234375 22.664062 6.4375 22.535156 6.601562 L 19.800781 9.363281 C 18.96875 10.199219 18.300781 9.488281 18.300781 9.488281 L 16.621094 7.800781 L 13.996094 10.84375 L 16.402344 13.253906 C 16.402344 13.253906 16.910156 13.722656 16.617188 14.664062 L 15.269531 20.6875 C 15.164062 21.210938 14.699219 21.605469 14.152344 21.605469 C 13.523438 21.605469 13.007812 21.089844 13.007812 20.457031 C 13.007812 20.355469 13.019531 20.261719 13.046875 20.167969 L 14.15625 15.226562 L 11.425781 12.566406 L 9.078125 15.191406 C 9.078125 15.191406 8.699219 15.664062 7.691406 15.628906 L 2.921875 15.636719 C 2.390625 15.648438 1.90625 15.28125 1.785156 14.742188 C 1.644531 14.121094 2.027344 13.515625 2.640625 13.378906 C 2.734375 13.359375 2.832031 13.34375 2.929688 13.355469 L 7.027344 13.363281 L 13.089844 6.316406 L 11.503906 6.308594 Z M 11.488281 6.300781 "/>
<path fill-rule="nonzero" fill="rgb(0%, 0%, 0%)" fill-opacity="1" d="M 22 21.679688 C 22 22.148438 21.613281 22.558594 21.152344 22.558594 L 7.203125 22.558594 L 7.203125 23.039062 L 21.152344 23.039062 C 21.929688 23.042969 22.566406 22.445312 22.566406 21.667969 L 22.003906 21.679688 Z M 22 21.679688 "/>
<path fill-rule="nonzero" fill="rgb(0%, 0%, 0%)" fill-opacity="1" d="M 15.804688 3.214844 C 15.804688 4.199219 16.597656 4.996094 17.574219 4.996094 C 18.550781 4.996094 19.34375 4.199219 19.34375 3.214844 C 19.34375 2.234375 18.550781 1.4375 17.574219 1.4375 C 16.597656 1.4375 15.804688 2.234375 15.804688 3.214844 Z M 15.804688 3.214844 "/>
</svg>
