<?xml version="1.0" encoding="UTF-8"?>
<svg xmlns="http://www.w3.org/2000/svg" xmlns:xlink="http://www.w3.org/1999/xlink" width="24" height="24" viewBox="0 0 24 24">
<path fill-rule="nonzero" fill="rgb(0%, 0%, 0%)" fill-opacity="1" d="M 4.800781 0.800781 L 7.199219 0.800781 L 7.199219 4.800781 L 4.800781 4.800781 Z M 4.800781 0.800781 "/>
<path fill-rule="nonzero" fill="rgb(0%, 0%, 0%)" fill-opacity="1" d="M 4.800781 13.601562 L 7.199219 13.601562 L 7.199219 17.601562 L 4.800781 17.601562 Z M 4.800781 13.601562 "/>
<path fill-rule="nonzero" fill="rgb(0%, 0%, 0%)" fill-opacity="1" d="M 4.800781 20 L 7.199219 20 L 7.199219 24 L 4.800781 24 Z M 4.800781 20 "/>
<path fill-rule="nonzero" fill="rgb(0%, 0%, 0%)" fill-opacity="1" d="M 4.800781 7.199219 L 7.199219 7.199219 L 7.199219 11.199219 L 4.800781 11.199219 Z M 4.800781 7.199219 "/>
<path fill-rule="nonzero" fill="rgb(0%, 0%, 0%)" fill-opacity="1" d="M 16.800781 0.800781 L 19.199219 0.800781 L 19.199219 4.800781 L 16.800781 4.800781 Z M 16.800781 0.800781 "/>
<path fill-rule="nonzero" fill="rgb(0%, 0%, 0%)" fill-opacity="1" d="M 16.800781 13.601562 L 19.199219 13.601562 L 19.199219 17.601562 L 16.800781 17.601562 Z M 16.800781 13.601562 "/>
<path fill-rule="nonzero" fill="rgb(0%, 0%, 0%)" fill-opacity="1" d="M 16.800781 20 L 19.199219 20 L 19.199219 24 L 16.800781 24 Z M 16.800781 20 "/>
<path fill-rule="nonzero" fill="rgb(0%, 0%, 0%)" fill-opacity="1" d="M 16.800781 7.199219 L 19.199219 7.199219 L 19.199219 11.199219 L 16.800781 11.199219 Z M 16.800781 7.199219 "/>
</svg>
