<?xml version="1.0" encoding="UTF-8"?>
<svg xmlns="http://www.w3.org/2000/svg" xmlns:xlink="http://www.w3.org/1999/xlink" width="24" height="24" viewBox="0 0 24 24">
<path fill-rule="nonzero" fill="rgb(0%, 0%, 0%)" fill-opacity="1" d="M 4.800781 0 L 7.199219 0 L 7.199219 24 L 4.800781 24 Z M 4.800781 0 "/>
<path fill-rule="nonzero" fill="rgb(0%, 0%, 0%)" fill-opacity="1" d="M 16.800781 0 L 19.199219 0 L 19.199219 24 L 16.800781 24 Z M 16.800781 0 "/>
<path fill-rule="nonzero" fill="rgb(0%, 0%, 0%)" fill-opacity="1" d="M 4.800781 3.199219 L 19.199219 0 L 19.199219 3.199219 L 4.800781 6.398438 Z M 4.800781 3.199219 "/>
<path fill-rule="nonzero" fill="rgb(0%, 0%, 0%)" fill-opacity="1" d="M 4.800781 8.800781 L 19.199219 5.601562 L 19.199219 8.800781 L 4.800781 12 Z M 4.800781 8.800781 "/>
<path fill-rule="nonzero" fill="rgb(0%, 0%, 0%)" fill-opacity="1" d="M 4.800781 14.398438 L 19.199219 11.199219 L 19.199219 14.398438 L 4.800781 17.601562 Z M 4.800781 14.398438 "/>
<path fill-rule="nonzero" fill="rgb(0%, 0%, 0%)" fill-opacity="1" d="M 4.800781 20 L 19.199219 16.800781 L 19.199219 20 L 4.800781 23.199219 Z M 4.800781 20 "/>
</svg>
