<?xml version="1.0" encoding="UTF-8"?>
<svg xmlns="http://www.w3.org/2000/svg" xmlns:xlink="http://www.w3.org/1999/xlink" width="24" height="24" viewBox="0 0 24 24">
<path fill-rule="nonzero" fill="rgb(0%, 0%, 0%)" fill-opacity="1" d="M 3.152344 12.800781 L 9.601562 12.800781 L 9.601562 9.601562 C 9.601562 9.390625 9.550781 9.183594 9.488281 9.007812 Z M 8.046875 8 C 8.03125 8 8.015625 8 8 8 L 3.199219 8 C 2.320312 8 1.601562 8.71875 1.601562 9.601562 L 1.601562 11.871094 Z M 15.953125 12.800781 L 22.398438 12.800781 L 22.398438 9.601562 C 22.398438 9.390625 22.351562 9.183594 22.289062 9.007812 Z M 20.847656 8 C 20.832031 8 20.816406 8 20.800781 8 L 16 8 C 15.121094 8 14.398438 8.71875 14.398438 9.601562 L 14.398438 11.871094 Z M 9.601562 14.398438 L 1.601562 14.398438 L 1.601562 17.601562 L 0 17.601562 L 0 9.601562 C 0 7.839844 1.441406 6.398438 3.199219 6.398438 L 8 6.398438 C 9.761719 6.398438 11.199219 7.839844 11.199219 9.601562 L 11.199219 17.601562 L 9.601562 17.601562 Z M 22.398438 14.398438 L 14.398438 14.398438 L 14.398438 17.601562 L 12.800781 17.601562 L 12.800781 9.601562 C 12.800781 7.839844 14.238281 6.398438 16 6.398438 L 20.800781 6.398438 C 22.558594 6.398438 24 7.839844 24 9.601562 L 24 17.601562 L 22.398438 17.601562 Z M 22.398438 14.398438 "/>
</svg>
