<?xml version="1.0" encoding="UTF-8"?>
<svg xmlns="http://www.w3.org/2000/svg" xmlns:xlink="http://www.w3.org/1999/xlink" width="24" height="24" viewBox="0 0 24 24">
<path fill-rule="nonzero" fill="rgb(0%, 0%, 0%)" fill-opacity="1" d="M 19.96875 5.664062 L 17.824219 9.246094 L 21.648438 13.054688 C 22.113281 13.535156 22.113281 14.289062 21.648438 14.753906 C 21.183594 15.230469 20.414062 15.230469 19.953125 14.753906 L 16.273438 11.089844 L 13.441406 10.511719 L 12.878906 7.695312 L 9.199219 4.015625 C 8.734375 3.535156 8.734375 2.785156 9.199219 2.320312 C 9.664062 1.839844 10.433594 1.839844 10.894531 2.320312 L 14.71875 6.128906 L 18.289062 3.984375 C 17.921875 3.375 18 2.558594 18.527344 2.03125 L 19.664062 0.894531 C 20.289062 0.273438 21.296875 0.273438 21.9375 0.894531 L 23.054688 2.03125 C 23.679688 2.65625 23.679688 3.664062 23.054688 4.289062 L 21.9375 5.425781 C 21.390625 5.953125 20.59375 6.03125 19.96875 5.664062 Z M 12.097656 10.160156 L 3.265625 20.703125 L 13.808594 11.855469 L 16.273438 12.207031 L 7.214844 20.128906 L 0.433594 23.535156 L 3.824219 16.734375 L 11.742188 7.695312 Z M 12.097656 10.160156 "/>
</svg>
