<?xml version="1.0" encoding="UTF-8"?>
<svg xmlns="http://www.w3.org/2000/svg" xmlns:xlink="http://www.w3.org/1999/xlink" width="20" height="20" viewBox="0 0 20 20">
<path fill-rule="nonzero" fill="rgb(67.45098%, 22.352941%, 67.45098%)" fill-opacity="1" d="M 1.851562 0 C 1.597656 0 1.390625 0.207031 1.390625 0.464844 L 1.390625 3.785156 L 0.046875 6.839844 C 0.0234375 6.90625 0 6.953125 0 7.023438 L 0 19.535156 C 0 19.792969 0.207031 20 0.464844 20 L 20 20 L 20 11.777344 L 10.71875 11.777344 C 10.722656 10.191406 10.722656 8.609375 10.722656 7.023438 C 10.722656 6.953125 10.699219 6.886719 10.679688 6.839844 L 9.332031 3.785156 L 9.332031 0.464844 C 9.332031 0.207031 9.125 0 8.871094 0 Z M 2.316406 0.949219 L 8.40625 0.949219 L 8.40625 3.667969 L 2.316406 3.667969 Z M 2.246094 4.128906 L 8.453125 4.128906 L 8.476562 4.175781 C 8.046875 5.152344 7.597656 6.148438 7.226562 6.976562 L 7.226562 11.777344 L 4.902344 11.777344 L 4.902344 19.058594 L 0.9375 19.058594 C 0.914062 15.117188 0.925781 11.101562 0.925781 7.136719 Z M 8.730469 4.753906 L 9.773438 7.136719 L 9.773438 11.777344 L 7.6875 11.777344 L 7.6875 7.078125 C 7.6875 7.078125 7.6875 7.074219 7.691406 7.070312 Z M 7.582031 12.972656 C 8.335938 12.972656 8.941406 13.582031 8.941406 14.332031 C 8.941406 15.085938 8.335938 15.695312 7.582031 15.695312 C 6.832031 15.695312 6.222656 15.085938 6.222656 14.332031 C 6.222656 13.582031 6.832031 12.972656 7.582031 12.972656 Z M 16.753906 13.554688 C 17.777344 13.554688 18.609375 14.386719 18.609375 15.414062 C 18.609375 16.4375 17.777344 17.269531 16.753906 17.269531 C 15.726562 17.273438 14.890625 16.441406 14.890625 15.414062 C 14.890625 14.386719 15.726562 13.554688 16.753906 13.554688 Z M 11.566406 15.746094 C 12.4375 15.746094 13.140625 16.449219 13.140625 17.320312 C 13.140625 18.1875 12.4375 18.890625 11.566406 18.890625 C 10.699219 18.890625 9.996094 18.1875 9.996094 17.320312 C 9.996094 16.449219 10.699219 15.746094 11.566406 15.746094 Z M 11.566406 15.746094 "/>
</svg>
