<?xml version="1.0" encoding="UTF-8"?>
<svg xmlns="http://www.w3.org/2000/svg" xmlns:xlink="http://www.w3.org/1999/xlink" width="20" height="20" viewBox="0 0 20 20">
<path fill-rule="evenodd" fill="rgb(67.45098%, 22.352941%, 67.45098%)" fill-opacity="1" d="M 8.570312 0 L 11.429688 0 C 14.285156 0 15.714844 0 15.714844 1.429688 L 15.714844 2.855469 L 4.285156 2.855469 L 4.285156 1.429688 C 4.285156 0 5.714844 0 8.570312 0 Z M 5.714844 4.285156 C 5.714844 7.144531 2.824219 5.714844 2.835938 8.570312 L 2.855469 15.714844 C 2.863281 17.144531 4.285156 20 7.144531 20 L 12.855469 20 C 15.714844 20 17.144531 17.144531 17.144531 15.714844 L 17.144531 8.570312 C 17.144531 5.714844 14.285156 7.144531 14.285156 4.285156 Z M 14.285156 10 L 14.285156 14.285156 L 5.714844 14.285156 L 5.714844 10 Z M 14.285156 10 "/>
</svg>
