<?xml version="1.0" encoding="UTF-8"?>
<svg xmlns="http://www.w3.org/2000/svg" xmlns:xlink="http://www.w3.org/1999/xlink" width="20" height="20" viewBox="0 0 20 20">
<path fill-rule="nonzero" fill="rgb(67.45098%, 22.352941%, 67.45098%)" fill-opacity="1" d="M 7.144531 0 C 5.714844 0 5.714844 0 5.714844 1.429688 L 5.726562 5.714844 L 1.429688 5.714844 L 1.429688 18.570312 C 1.429688 20 1.429688 20 2.855469 20 L 17.144531 20 C 18.570312 20 18.570312 20 18.570312 18.570312 L 18.570312 5.714844 L 14.339844 5.714844 L 14.285156 1.429688 C 14.285156 0 14.285156 0 12.855469 0 Z M 7.144531 1.429688 L 12.855469 1.429688 L 12.855469 5.714844 L 7.144531 5.714844 Z M 9.382812 7.855469 C 10.476562 7.855469 11.277344 8.070312 11.789062 8.492188 C 12.300781 8.914062 12.554688 9.421875 12.554688 10.011719 C 12.554688 10.339844 12.480469 10.65625 12.320312 10.960938 C 12.167969 11.261719 11.980469 11.511719 11.757812 11.699219 C 11.535156 11.886719 11.140625 12.171875 10.570312 12.542969 C 11.042969 13.015625 11.535156 13.453125 12.046875 13.859375 C 12.183594 13.585938 12.300781 13.296875 12.398438 12.992188 L 14.507812 13.460938 C 14.394531 13.847656 14.289062 14.160156 14.1875 14.390625 C 14.085938 14.625 13.945312 14.902344 13.757812 15.21875 L 14.769531 15.910156 C 14.894531 15.988281 15.058594 16.085938 15.25 16.195312 L 13.796875 17.855469 C 13.53125 17.714844 13.257812 17.554688 12.96875 17.367188 C 12.6875 17.183594 12.433594 17.023438 12.207031 16.890625 C 11.738281 17.199219 11.269531 17.425781 10.800781 17.566406 C 10.152344 17.761719 9.414062 17.855469 8.589844 17.855469 C 7.292969 17.855469 6.328125 17.585938 5.699219 17.050781 C 5.066406 16.515625 4.75 15.863281 4.75 15.097656 C 4.75 14.546875 4.9375 14.027344 5.308594 13.539062 C 5.679688 13.046875 6.285156 12.632812 7.128906 12.292969 C 6.773438 11.867188 6.535156 11.5 6.402344 11.1875 C 6.269531 10.867188 6.203125 10.546875 6.203125 10.21875 C 6.203125 9.535156 6.464844 8.972656 6.988281 8.527344 C 7.515625 8.082031 8.3125 7.855469 9.382812 7.855469 Z M 9.496094 9.308594 C 9.222656 9.308594 8.996094 9.390625 8.824219 9.546875 C 8.652344 9.707031 8.570312 9.894531 8.570312 10.109375 C 8.570312 10.382812 8.8125 10.777344 9.296875 11.296875 C 9.644531 11.109375 9.914062 10.902344 10.105469 10.683594 C 10.296875 10.460938 10.390625 10.246094 10.390625 10.046875 C 10.390625 9.839844 10.3125 9.667969 10.152344 9.527344 C 9.996094 9.382812 9.773438 9.308594 9.496094 9.308594 Z M 8.335938 13.648438 C 7.964844 13.90625 7.71875 14.128906 7.59375 14.3125 C 7.476562 14.5 7.414062 14.691406 7.414062 14.898438 C 7.414062 15.222656 7.554688 15.507812 7.832031 15.757812 C 8.109375 16.007812 8.472656 16.136719 8.921875 16.136719 C 9.402344 16.136719 9.941406 15.945312 10.542969 15.570312 C 9.96875 15.132812 9.230469 14.492188 8.335938 13.648438 Z M 8.335938 13.648438 "/>
</svg>
