<?xml version="1.0" encoding="UTF-8"?>
<svg xmlns="http://www.w3.org/2000/svg" xmlns:xlink="http://www.w3.org/1999/xlink" width="24" height="24" viewBox="0 0 24 24">
<path fill-rule="nonzero" fill="rgb(0%, 0%, 0%)" fill-opacity="1" d="M 14.398438 4 C 14.800781 4 14.800781 4.800781 14.398438 4.800781 C 14 5.199219 9.199219 5.199219 8.800781 4.800781 C 8.398438 4.800781 8.398438 4 8.800781 4 C 9.199219 4 9.601562 4 9.601562 4 C 9.601562 4 9.601562 2.398438 9.601562 1.601562 C 9.601562 0.800781 13.601562 0.800781 13.601562 1.601562 C 13.601562 2.398438 13.601562 4 13.601562 4 C 13.601562 4 14 4 14.398438 4 Z M 14.398438 4 "/>
<path fill-rule="nonzero" fill="rgb(0%, 0%, 0%)" fill-opacity="1" d="M 14.398438 5.601562 C 13.601562 6 9.601562 6 8.800781 5.601562 C 8.097656 5.601562 6.398438 7.199219 6.398438 8 C 6.398438 8.800781 6.398438 21.601562 6.398438 22.398438 C 6.398438 23.199219 19.199219 23.199219 19.199219 22.398438 C 19.199219 21.601562 19.199219 13.601562 19.199219 13.601562 C 19.199219 9.601562 16.800781 5.601562 14.398438 5.601562 Z M 15.601562 13.601562 C 15.199219 13.199219 14.800781 11.601562 14.800781 10 C 14.800781 8 15.601562 7.601562 16 8.398438 C 16.800781 9.601562 17.601562 11.601562 17.601562 13.601562 C 17.601562 14.800781 16 14.398438 15.601562 13.601562 Z M 15.601562 13.601562 "/>
</svg>
