<?xml version="1.0" encoding="UTF-8"?>
<svg xmlns="http://www.w3.org/2000/svg" xmlns:xlink="http://www.w3.org/1999/xlink" width="24" height="24" viewBox="0 0 24 24">
<path fill-rule="nonzero" fill="rgb(0%, 0%, 0%)" fill-opacity="1" d="M 22.558594 23.039062 C 22.097656 23.039062 21.65625 22.933594 21.257812 22.757812 C 20.855469 22.570312 20.394531 22.460938 19.921875 22.460938 C 19.445312 22.460938 18.988281 22.570312 18.582031 22.757812 C 18.1875 22.933594 17.746094 23.039062 17.28125 23.039062 C 16.820312 23.039062 16.378906 22.933594 15.980469 22.757812 C 15.570312 22.570312 15.121094 22.460938 14.640625 22.460938 C 14.160156 22.460938 13.703125 22.570312 13.300781 22.757812 C 12.90625 22.933594 12.464844 23.039062 12.003906 23.039062 C 11.539062 23.039062 11.097656 22.933594 10.699219 22.757812 C 10.296875 22.570312 9.839844 22.460938 9.363281 22.460938 C 8.886719 22.460938 8.429688 22.570312 8.027344 22.757812 C 7.632812 22.933594 7.191406 23.039062 6.730469 23.039062 C 6.269531 23.039062 5.828125 22.933594 5.425781 22.757812 C 5.019531 22.570312 4.558594 22.460938 4.089844 22.460938 C 3.609375 22.460938 3.152344 22.570312 2.75 22.757812 C 2.355469 22.933594 1.910156 23.039062 1.445312 23.039062 L 1.445312 21.097656 C 1.90625 21.097656 2.355469 20.992188 2.75 20.8125 C 3.152344 20.628906 3.613281 20.519531 4.089844 20.519531 C 4.566406 20.519531 5.019531 20.628906 5.425781 20.8125 C 5.824219 20.992188 6.265625 21.097656 6.730469 21.097656 C 7.191406 21.097656 7.632812 20.992188 8.027344 20.8125 C 8.429688 20.628906 8.890625 20.519531 9.363281 20.519531 C 9.839844 20.519531 10.296875 20.628906 10.699219 20.8125 C 11.097656 20.992188 11.539062 21.097656 12.003906 21.097656 C 12.464844 21.097656 12.90625 20.992188 13.300781 20.8125 C 13.707031 20.628906 14.164062 20.519531 14.640625 20.519531 C 15.121094 20.519531 15.570312 20.628906 15.980469 20.8125 C 16.371094 20.992188 16.8125 21.097656 17.28125 21.097656 C 17.746094 21.097656 18.1875 20.992188 18.582031 20.8125 C 18.988281 20.628906 19.445312 20.519531 19.921875 20.519531 C 20.394531 20.519531 20.855469 20.628906 21.257812 20.8125 C 21.652344 20.992188 22.09375 21.097656 22.558594 21.097656 Z M 7.414062 13.507812 C 8.398438 13.507812 9.195312 12.710938 9.195312 11.730469 C 9.195312 10.753906 8.398438 9.960938 7.414062 9.960938 C 6.4375 9.960938 5.636719 10.753906 5.636719 11.730469 C 5.636719 12.710938 6.433594 13.507812 7.414062 13.507812 Z M 7.671875 19.652344 C 7.390625 20.125 6.777344 20.289062 6.300781 20.007812 C 5.824219 19.726562 5.660156 19.113281 5.9375 18.636719 L 10.070312 11.546875 C 10.21875 11.28125 10.445312 11.058594 10.703125 10.914062 L 16.019531 7.707031 L 19.628906 1.589844 C 19.96875 0.988281 20.730469 0.789062 21.332031 1.128906 C 21.925781 1.472656 22.128906 2.230469 21.789062 2.828125 L 17.46875 10.15625 C 17.320312 10.425781 17.097656 10.644531 16.832031 10.789062 L 10.566406 14.671875 L 7.679688 19.652344 Z M 7.671875 19.652344 "/>
</svg>
