<?xml version="1.0" encoding="UTF-8"?>
<svg xmlns="http://www.w3.org/2000/svg" xmlns:xlink="http://www.w3.org/1999/xlink" width="20" height="20" viewBox="0 0 20 20">
<path fill-rule="nonzero" fill="rgb(67.45098%, 22.352941%, 67.45098%)" fill-opacity="1" d="M 12.855469 0 C 11.785156 0.703125 11.070312 1.925781 11.070312 3.304688 C 11.070312 4.824219 11.949219 6.132812 13.214844 6.785156 L 13.214844 17.855469 C 13.214844 19.109375 13.957031 20 15 20 C 16.042969 20 16.785156 19.136719 16.785156 17.855469 L 16.785156 6.785156 C 18.050781 6.132812 18.929688 4.824219 18.929688 3.304688 C 18.929688 1.925781 18.214844 0.703125 17.144531 0 L 17.144531 2.144531 L 15 4.285156 L 12.855469 2.144531 C 12.855469 2.144531 12.855469 -0.00390625 12.855469 0 Z M 5.714844 0 C 4.925781 0 4.285156 0.542969 4.285156 1.070312 L 2.144531 1.070312 L 0.355469 3.570312 L 2.144531 6.070312 L 4.285156 6.070312 L 4.285156 18.214844 C 4.285156 19.191406 4.824219 20 5.714844 20 C 6.605469 20 7.144531 19.246094 7.144531 18.214844 L 7.144531 6.070312 L 10 6.070312 L 10 1.070312 L 7.144531 1.070312 C 7.144531 0.53125 6.605469 0 5.714844 0 Z M 15 17.144531 C 15.394531 17.144531 15.714844 17.460938 15.714844 17.855469 C 15.714844 18.25 15.394531 18.570312 15 18.570312 C 14.605469 18.570312 14.285156 18.25 14.285156 17.855469 C 14.285156 17.460938 14.605469 17.144531 15 17.144531 Z M 15 17.144531 "/>
</svg>
