<?xml version="1.0" encoding="UTF-8"?>
<svg xmlns="http://www.w3.org/2000/svg" xmlns:xlink="http://www.w3.org/1999/xlink" width="20" height="20" viewBox="0 0 20 20">
<path fill-rule="nonzero" fill="rgb(74.901961%, 0%, 0%)" fill-opacity="1" d="M 10 1.429688 C 8.34375 1.429688 6.667969 2.148438 5.535156 3.570312 C 4.554688 4.804688 4.285156 5.714844 4.152344 7.144531 C 0.015625 7.175781 0 8.6875 0 18.570312 L 20 18.570312 C 20 8.6875 19.984375 7.175781 15.847656 7.144531 C 15.714844 5.714844 15.421875 4.78125 14.464844 3.570312 C 13.335938 2.148438 11.65625 1.429688 10 1.429688 Z M 10 4.285156 C 11.832031 4.277344 12.855469 5.714844 12.945312 7.144531 L 7.054688 7.144531 C 7.144531 5.714844 8.167969 4.292969 10 4.285156 Z M 8.570312 8.570312 L 11.429688 8.570312 L 11.429688 11.429688 L 14.285156 11.429688 L 14.285156 14.285156 L 11.429688 14.285156 L 11.429688 17.144531 L 8.570312 17.144531 L 8.570312 14.285156 L 5.714844 14.285156 L 5.714844 11.429688 L 8.570312 11.429688 Z M 8.570312 8.570312 "/>
</svg>
