<?xml version="1.0" encoding="UTF-8"?>
<svg xmlns="http://www.w3.org/2000/svg" xmlns:xlink="http://www.w3.org/1999/xlink" width="24" height="24" viewBox="0 0 24 24">
<path fill-rule="nonzero" fill="rgb(0%, 0%, 0%)" fill-opacity="1" d="M 6.398438 11.199219 L 6.398438 22.398438 L 3.199219 22.398438 L 3.199219 12.449219 L 1.601562 13.054688 L 1.601562 9.601562 L 22.398438 1.601562 L 22.398438 5.023438 Z M 16.160156 18.222656 L 12.480469 18.222656 L 14.128906 20.929688 C 14.398438 21.390625 14.238281 21.96875 13.792969 22.238281 C 13.328125 22.511719 12.734375 22.367188 12.449219 21.902344 L 10.6875 18.992188 L 10.6875 21.441406 C 10.6875 21.96875 10.257812 22.398438 9.710938 22.398438 C 9.457031 22.398438 9.199219 22.304688 9.023438 22.128906 C 8.832031 21.9375 8.734375 21.695312 8.734375 21.441406 L 8.734375 15.183594 L 7.40625 14.433594 C 7.28125 14.367188 7.183594 14.238281 7.136719 14.113281 C 7.105469 13.96875 7.121094 13.808594 7.199219 13.679688 C 7.34375 13.425781 7.695312 13.328125 7.96875 13.472656 L 8.800781 13.953125 L 15.359375 13.953125 L 18.449219 15.425781 L 18.449219 17.824219 C 18.449219 18.03125 18.414062 18.222656 18.113281 18.222656 L 18.113281 21.441406 C 18.113281 21.96875 17.679688 22.398438 17.152344 22.398438 C 16.609375 22.398438 16.160156 21.96875 16.160156 21.441406 Z M 15.664062 13.296875 L 15.664062 9.601562 L 21.519531 12.335938 L 20.6875 14.078125 L 18.433594 14.078125 L 18.433594 14.59375 Z M 15.664062 13.296875 "/>
</svg>
