<?xml version="1.0" encoding="UTF-8"?>
<svg xmlns="http://www.w3.org/2000/svg" xmlns:xlink="http://www.w3.org/1999/xlink" width="24" height="24" viewBox="0 0 24 24">
<path fill-rule="nonzero" fill="rgb(0%, 0%, 0%)" fill-opacity="1" d="M 12 0 C 13.039062 1.535156 13.839844 2.609375 14.398438 3.199219 C 16.0625 4.976562 17.601562 6.128906 17.601562 7.199219 C 17.601562 8.800781 17.070312 9.871094 16 10.398438 L 8 10.398438 C 6.929688 9.871094 6.398438 8.800781 6.398438 7.199219 C 6.398438 6.03125 7.601562 5.230469 9.601562 3.199219 C 10.097656 2.703125 10.894531 1.632812 12 0 Z M 8 11.199219 L 16 11.199219 L 16 24 L 8 24 Z M 12 12.800781 C 11.550781 12.800781 11.199219 13.152344 11.199219 13.601562 L 11.199219 16 L 12.800781 16 L 12.800781 13.601562 C 12.800781 13.152344 12.449219 12.800781 12 12.800781 Z M 12 12.800781 "/>
</svg>
