<?xml version="1.0" encoding="UTF-8"?>
<svg xmlns="http://www.w3.org/2000/svg" xmlns:xlink="http://www.w3.org/1999/xlink" width="24" height="24" viewBox="0 0 24 24">
<path fill-rule="nonzero" fill="rgb(0%, 0%, 0%)" fill-opacity="1" d="M 12 0 C 18.625 0 24 5.375 24 12 C 24 18.625 18.625 24 12 24 C 5.375 24 0 18.625 0 12 C 0 5.375 5.375 0 12 0 Z M 11.535156 17.792969 C 11.390625 17.40625 10.160156 17.855469 10.273438 18.207031 C 10.367188 18.574219 10.929688 20.449219 11.089844 20.863281 C 11.230469 21.28125 12.527344 20.863281 12.398438 20.449219 C 12.273438 20.046875 11.679688 18.160156 11.535156 17.792969 Z M 5.617188 18.097656 C 5.183594 17.953125 4.800781 19.296875 5.167969 19.457031 C 5.550781 19.632812 7.472656 20.238281 7.808594 20.320312 C 8.144531 20.398438 8.625 19.167969 8.238281 19.007812 C 7.984375 18.878906 6.03125 18.238281 5.617188 18.097656 Z M 15.519531 17.566406 C 15.152344 17.425781 14.59375 18.65625 15.023438 18.863281 C 15.503906 19.070312 17.199219 19.726562 17.601562 19.855469 C 18 19.96875 18.574219 18.769531 18.097656 18.558594 C 17.632812 18.351562 15.886719 17.710938 15.519531 17.566406 Z M 18.113281 14.769531 C 17.679688 14.703125 17.457031 16.0625 17.921875 16.144531 C 18.367188 16.222656 20.273438 16.511719 20.65625 16.527344 C 21.054688 16.542969 21.265625 15.214844 20.847656 15.152344 C 20.449219 15.105469 18.542969 14.847656 18.113281 14.769531 Z M 12 8.304688 C 9.96875 8.304688 8.304688 9.96875 8.304688 12 C 8.304688 14.046875 9.96875 15.695312 12 15.695312 C 14.046875 15.695312 15.695312 14.046875 15.695312 12 C 15.695312 9.96875 14.046875 8.304688 12 8.304688 Z M 4.222656 13.839844 C 3.871094 13.824219 3.695312 15.183594 4.078125 15.230469 C 4.480469 15.28125 6.382812 15.488281 6.832031 15.519531 C 7.296875 15.550781 7.34375 14.175781 6.992188 14.144531 C 6.625 14.097656 4.574219 13.871094 4.222656 13.839844 Z M 20.382812 10.191406 C 20.238281 10.625 19.519531 12.574219 19.390625 12.910156 C 19.28125 13.246094 20.574219 13.664062 20.71875 13.296875 C 20.878906 12.929688 21.472656 11.105469 21.601562 10.671875 C 21.726562 10.257812 20.527344 9.777344 20.382812 10.191406 Z M 4.382812 8.910156 C 4.0625 9.167969 2.558594 10.574219 2.273438 10.832031 C 2 11.089844 2.878906 12.128906 3.152344 11.902344 C 3.425781 11.679688 4.847656 10.335938 5.183594 10.015625 C 5.503906 9.695312 4.6875 8.65625 4.382812 8.910156 Z M 18.734375 5.648438 C 18.542969 5.359375 17.375 5.902344 17.585938 6.304688 C 17.808594 6.703125 18.734375 8.398438 18.929688 8.71875 C 19.121094 9.054688 20.335938 8.382812 20.144531 8.046875 C 19.953125 7.726562 18.945312 5.953125 18.734375 5.648438 Z M 12.734375 5.550781 C 12.433594 5.457031 11.9375 6.71875 12.304688 6.863281 C 12.671875 7.023438 14.527344 7.601562 14.945312 7.726562 C 15.34375 7.855469 15.742188 6.542969 15.375 6.414062 C 15.007812 6.273438 13.039062 5.664062 12.734375 5.550781 Z M 4.257812 5.648438 C 3.648438 5.632812 3.695312 7.023438 4.113281 7.054688 C 4.527344 7.070312 6.511719 7.230469 6.878906 7.246094 C 7.296875 7.246094 7.503906 5.824219 7.054688 5.808594 C 6.734375 5.777344 4.847656 5.679688 4.257812 5.648438 Z M 8.144531 2.367188 C 7.902344 2.207031 6.945312 3.183594 7.28125 3.457031 C 7.632812 3.726562 9.136719 4.945312 9.472656 5.152344 C 9.808594 5.375 10.640625 4.351562 10.320312 4.0625 C 10 3.777344 8.398438 2.542969 8.144531 2.367188 Z M 15.105469 1.855469 C 14.703125 1.902344 12.753906 2.222656 12.367188 2.289062 C 11.96875 2.351562 12.175781 3.695312 12.574219 3.648438 C 12.976562 3.601562 14.945312 3.3125 15.3125 3.214844 C 15.679688 3.121094 15.488281 1.808594 15.105469 1.855469 Z M 15.105469 1.855469 "/>
</svg>
