<?xml version="1.0" encoding="UTF-8"?>
<svg xmlns="http://www.w3.org/2000/svg" xmlns:xlink="http://www.w3.org/1999/xlink" width="24" height="24" viewBox="0 0 24 24">
<path fill-rule="nonzero" fill="rgb(0%, 0%, 0%)" fill-opacity="1" d="M 10.414062 2.191406 C 10.511719 1.40625 11.183594 0.800781 12 0.800781 C 12.671875 0.800781 13.246094 1.214844 13.488281 1.808594 L 21.503906 0.800781 C 21.9375 0.753906 22.335938 1.054688 22.398438 1.503906 C 22.449219 1.9375 22.144531 2.335938 21.695312 2.398438 L 13.601562 3.40625 L 13.601562 7.199219 C 13.601562 7.792969 13.28125 8.304688 12.800781 8.59375 L 12.800781 22.398438 C 12.800781 22.847656 12.449219 23.199219 12 23.199219 C 11.550781 23.199219 11.199219 22.847656 11.199219 22.398438 L 11.199219 8.59375 C 10.71875 8.304688 10.398438 7.792969 10.398438 7.199219 L 10.398438 3.808594 L 2.496094 4.800781 C 2.0625 4.847656 1.664062 4.542969 1.601562 4.097656 C 1.550781 3.664062 1.855469 3.265625 2.304688 3.199219 Z M 10.414062 2.191406 "/>
</svg>
