<?xml version="1.0" encoding="UTF-8"?>
<svg xmlns="http://www.w3.org/2000/svg" xmlns:xlink="http://www.w3.org/1999/xlink" width="24" height="24" viewBox="0 0 24 24">
<path fill-rule="nonzero" fill="rgb(0%, 0%, 0%)" fill-opacity="1" d="M 16 11.855469 C 14.703125 12.480469 13.359375 12.800781 12 12.800781 C 10.640625 12.800781 9.296875 12.480469 8 11.855469 C 7.953125 8.734375 6.398438 6.382812 6.398438 4.800781 C 6.398438 3.726562 6.929688 2.671875 8 1.601562 L 9.601562 1.601562 C 10.398438 3.199219 11.199219 4 12 4 C 12.800781 4 13.601562 3.199219 14.398438 1.601562 L 16 1.601562 C 17.070312 2.671875 17.601562 3.726562 17.601562 4.800781 C 17.601562 6.816406 16.046875 8.734375 16 11.855469 Z M 16.351562 13.457031 C 17.121094 14.992188 19.136719 16.367188 22.398438 17.601562 C 22.398438 18.671875 21.871094 19.726562 20.800781 20.800781 C 19.199219 22.398438 17.601562 20.800781 16 20.800781 C 14.398438 20.800781 14.398438 22.398438 12 22.398438 C 9.601562 22.398438 9.601562 20.800781 8 20.800781 C 6.398438 20.800781 4.800781 22.398438 3.199219 20.800781 C 2.128906 19.726562 1.601562 18.671875 1.601562 17.601562 C 4.863281 16.367188 6.878906 14.992188 7.648438 13.457031 C 9.054688 14.078125 10.496094 14.398438 12 14.398438 C 13.503906 14.398438 14.945312 14.078125 16.351562 13.457031 Z M 16.351562 13.457031 "/>
</svg>
