<?xml version="1.0" encoding="UTF-8"?>
<svg xmlns="http://www.w3.org/2000/svg" xmlns:xlink="http://www.w3.org/1999/xlink" width="24" height="24" viewBox="0 0 24 24">
<path fill-rule="nonzero" fill="rgb(0%, 0%, 0%)" fill-opacity="1" d="M 11.199219 0 C 17.601562 0 20.800781 3.199219 20.800781 8 C 20.800781 12 17.601562 13.601562 16.800781 17.601562 C 16 20 14.398438 24 11.199219 24 C 8 24 7.199219 21.601562 5.601562 19.199219 C 4 16.800781 5.601562 16 6.398438 16.800781 C 7.199219 17.601562 8.800781 22.398438 11.199219 22.398438 C 12.800781 22.398438 14.398438 19.199219 15.199219 16.800781 C 16 12.800781 19.199219 11.199219 19.199219 8 C 19.199219 4 16.800781 1.601562 11.199219 1.601562 C 7.199219 1.601562 5.601562 4 5.601562 6.398438 C 5.601562 8 4 8 4 6.398438 C 4 2.398438 6.398438 0 11.199219 0 Z M 12 4 C 8.800781 4 7.199219 5.601562 7.199219 8 C 7.199219 9.601562 7.199219 11.199219 8 12 C 8.800781 12.800781 9.601562 13.601562 8.800781 14.398438 C 8 15.199219 9.601562 16.800781 11.199219 14.398438 C 12 12.800781 11.199219 12 10.398438 11.199219 C 9.601562 10.398438 8.800781 9.601562 8.800781 8 C 8.800781 7.199219 9.601562 4.800781 12 4.800781 C 13.601562 4.800781 16 5.601562 16 8 C 16 10.398438 14.398438 12 15.199219 12 C 16 12 16.800781 9.601562 16.800781 8 C 16.800781 4.800781 13.601562 4 12 4 Z M 12 4 "/>
</svg>
