<?xml version="1.0" encoding="UTF-8"?>
<svg xmlns="http://www.w3.org/2000/svg" xmlns:xlink="http://www.w3.org/1999/xlink" width="24" height="24" viewBox="0 0 24 24">
<path fill-rule="nonzero" fill="rgb(0%, 0%, 0%)" fill-opacity="1" d="M 17.601562 6.398438 C 17.601562 6.398438 17.601562 1.601562 17.601562 1.601562 C 17.601562 0 16 0 16 1.601562 C 16 1.601562 16 6.398438 16 6.398438 L 8 6.398438 C 8 6.398438 8 1.601562 8 1.601562 C 8 0 6.398438 0 6.398438 1.601562 C 6.398438 1.601562 6.398438 6.398438 6.398438 6.398438 C 6.398438 6.398438 4 6.398438 4 6.398438 C 2.398438 6.398438 2.398438 8.800781 3.199219 10.398438 C 4 12 5.601562 15.199219 5.601562 19.199219 C 5.601562 19.199219 5.601562 22.398438 7.199219 22.398438 C 7.199219 22.398438 9.601562 22.398438 9.601562 22.398438 L 9.601562 24 L 14.398438 24 L 14.398438 22.398438 C 14.398438 22.398438 16.800781 22.398438 16.800781 22.398438 C 18.398438 22.398438 18.398438 19.199219 18.398438 19.199219 C 18.398438 15.199219 20 12 20.800781 10.398438 C 21.601562 8.800781 21.601562 6.398438 20 6.398438 M 11.601562 15.199219 C 11.601562 15.199219 8.800781 15.199219 8.800781 15.199219 C 8.800781 15.199219 13.601562 8.800781 13.601562 8.800781 C 13.601562 8.800781 12.800781 13.601562 12.800781 13.601562 C 12.800781 13.601562 16 13.601562 16 13.601562 C 16 13.601562 11.199219 20 11.199219 20 "/>
</svg>
