<?xml version="1.0" encoding="UTF-8"?>
<svg xmlns="http://www.w3.org/2000/svg" xmlns:xlink="http://www.w3.org/1999/xlink" width="20" height="20" viewBox="0 0 20 20">
<path fill-rule="nonzero" fill="rgb(45.098039%, 29.019608%, 3.137255%)" fill-opacity="1" d="M 2.855469 1.429688 C 1.429688 1.429688 0 2.855469 0 4.285156 L 0 5.714844 L 5.714844 5.714844 L 7.144531 4.285156 L 12.855469 4.285156 L 14.285156 5.714844 L 20 5.714844 L 20 4.285156 C 20 2.855469 18.570312 1.429688 17.144531 1.429688 Z M 0 6.785156 L 0 7.5 C 0 7.5 0.527344 8.570312 1.429688 8.570312 L 4.285156 8.570312 C 5.09375 8.542969 5.714844 7.5 5.714844 7.5 L 5.714844 6.785156 Z M 14.285156 6.785156 L 14.285156 7.5 C 14.285156 7.5 14.90625 8.570312 15.714844 8.570312 L 18.570312 8.570312 C 19.382812 8.570312 20 7.5 20 7.5 L 20 6.785156 Z M 2.144531 11.429688 C 1.011719 11.429688 0 12.246094 0 13.570312 C 0 14.96875 1.03125 15.714844 2.144531 15.714844 L 3.570312 15.714844 C 3.570312 15.714844 4.285156 15.714844 4.285156 16.429688 C 4.285156 17.144531 3.570312 17.144531 3.570312 17.144531 L 0.714844 17.144531 L 0.714844 18.570312 L 3.570312 18.570312 C 4.683594 18.570312 5.714844 17.710938 5.714844 16.382812 C 5.714844 15.132812 4.660156 14.285156 3.570312 14.285156 L 2.144531 14.285156 C 2.144531 14.285156 1.429688 14.285156 1.429688 13.570312 C 1.429688 12.855469 2.144531 12.855469 2.144531 12.855469 L 5 12.855469 L 5 11.429688 Z M 9.285156 11.429688 C 7.144531 11.429688 7.144531 13.570312 7.144531 13.570312 L 7.144531 16.429688 C 7.144531 16.429688 7.144531 18.570312 9.285156 18.570312 L 10.714844 18.570312 C 12.855469 18.570312 12.855469 16.429688 12.855469 16.429688 L 12.855469 13.570312 C 12.855469 13.570312 12.855469 11.429688 10.714844 11.429688 Z M 16.429688 11.429688 C 15.296875 11.429688 14.285156 12.246094 14.285156 13.570312 C 14.285156 14.96875 15.316406 15.714844 16.429688 15.714844 L 17.855469 15.714844 C 17.855469 15.714844 18.570312 15.714844 18.570312 16.429688 C 18.570312 17.144531 17.855469 17.144531 17.855469 17.144531 L 15 17.144531 L 15 18.570312 L 17.855469 18.570312 C 18.96875 18.570312 20 17.710938 20 16.382812 C 20 15.132812 18.945312 14.285156 17.855469 14.285156 L 16.429688 14.285156 C 16.429688 14.285156 15.714844 14.285156 15.714844 13.570312 C 15.714844 12.855469 16.429688 12.855469 16.429688 12.855469 L 19.285156 12.855469 L 19.285156 11.429688 Z M 8.570312 13.929688 C 8.570312 13.929688 8.570312 12.855469 9.644531 12.855469 L 10.355469 12.855469 C 11.429688 12.855469 11.429688 13.929688 11.429688 13.929688 L 11.429688 16.070312 C 11.429688 16.070312 11.429688 17.144531 10.355469 17.144531 L 9.644531 17.144531 C 8.570312 17.144531 8.570312 16.070312 8.570312 16.070312 Z M 8.570312 13.929688 "/>
</svg>
