<?xml version="1.0" encoding="UTF-8"?>
<svg xmlns="http://www.w3.org/2000/svg" xmlns:xlink="http://www.w3.org/1999/xlink" width="20" height="20" viewBox="0 0 20 20">
<path fill-rule="nonzero" fill="rgb(45.098039%, 29.019608%, 3.137255%)" fill-opacity="1" d="M 0 0 C 0 1.429688 0 2.855469 0 4.285156 L 1.429688 4.285156 L 1.429688 1.429688 L 18.570312 1.429688 L 18.570312 4.285156 L 20 4.285156 L 20 0 C 13.332031 0 6.667969 0 0 0 Z M 2.855469 2.855469 L 2.855469 17.144531 L 1.429688 20 C 7.144531 20 12.855469 20 18.570312 20 L 17.144531 17.144531 L 17.144531 2.855469 C 12.382812 2.855469 7.617188 2.855469 2.855469 2.855469 Z M 4.285156 4.285156 L 15.714844 4.285156 L 15.714844 5.714844 L 4.285156 5.714844 Z M 4.285156 7.144531 L 15.714844 7.144531 C 15.714844 10.714844 15.714844 14.285156 15.714844 17.855469 C 15.714844 18.253906 15.394531 18.570312 15 18.570312 L 5 18.570312 C 4.605469 18.570312 4.285156 18.253906 4.285156 17.855469 C 4.285156 14.285156 4.285156 10.714844 4.285156 7.144531 Z M 10 8.570312 C 10 10 9.632812 10.804688 8.570312 11.429688 C 7.78125 11.429688 7.144531 12.066406 7.144531 12.855469 C 7.144531 13.648438 7.78125 14.285156 8.570312 14.285156 L 7.144531 14.285156 C 6.351562 14.285156 5.714844 14.921875 5.714844 15.714844 C 5.714844 16.503906 6.351562 17.144531 7.144531 17.144531 L 12.855469 17.144531 C 13.648438 17.144531 14.285156 16.503906 14.285156 15.714844 C 14.285156 14.921875 13.648438 14.285156 12.855469 14.285156 L 11.429688 14.285156 C 12.21875 14.285156 12.855469 13.648438 12.855469 12.855469 C 12.855469 12.066406 12.21875 11.429688 11.429688 11.429688 C 11.429688 10 11.023438 9.253906 10 8.570312 Z M 10 8.570312 "/>
</svg>
