<?xml version="1.0" encoding="UTF-8"?>
<svg xmlns="http://www.w3.org/2000/svg" xmlns:xlink="http://www.w3.org/1999/xlink" width="20" height="20" viewBox="0 0 20 20">
<path fill-rule="nonzero" fill="rgb(67.45098%, 22.352941%, 67.45098%)" fill-opacity="1" d="M 2.855469 0 L 2.855469 1.429688 L 4.285156 1.429688 L 4.285156 0 Z M 7.144531 0 C 7.144531 1.90625 7.144531 3.808594 7.144531 5.714844 L 8.570312 5.714844 C 8.570312 3.808594 8.570312 1.90625 8.570312 0 Z M 11.429688 0 L 11.429688 1.429688 L 12.855469 1.429688 L 12.855469 0 Z M 15.714844 0 C 15.714844 1.90625 15.714844 3.808594 15.714844 5.714844 L 17.144531 5.714844 C 17.144531 3.808594 17.144531 1.90625 17.144531 0 Z M 0 2.855469 L 0 4.285156 C 1.90625 4.285156 3.808594 4.285156 5.714844 4.285156 L 5.714844 2.855469 C 3.808594 2.855469 1.90625 2.855469 0 2.855469 Z M 10 2.855469 L 10 4.285156 C 11.429688 4.285156 12.855469 4.285156 14.285156 4.285156 L 14.285156 2.855469 C 12.855469 2.855469 11.429688 2.855469 10 2.855469 Z M 18.570312 2.855469 L 18.570312 4.285156 L 20 4.285156 L 20 2.855469 Z M 2.855469 5.714844 C 2.855469 7.617188 2.855469 9.523438 2.855469 11.429688 L 4.285156 11.429688 C 4.285156 9.523438 4.285156 7.617188 4.285156 5.714844 Z M 11.429688 5.714844 C 11.429688 7.617188 11.429688 9.523438 11.429688 11.429688 L 12.855469 11.429688 C 12.855469 9.523438 12.855469 7.617188 12.855469 5.714844 Z M 0 7.144531 L 0 8.570312 L 1.429688 8.570312 L 1.429688 7.144531 Z M 5.714844 7.144531 L 5.714844 8.570312 C 7.144531 8.570312 8.570312 8.570312 10 8.570312 L 10 7.144531 C 8.570312 7.144531 7.144531 7.144531 5.714844 7.144531 Z M 14.285156 7.144531 L 14.285156 8.570312 C 16.191406 8.570312 18.09375 8.570312 20 8.570312 L 20 7.144531 C 18.09375 7.144531 16.191406 7.144531 14.285156 7.144531 Z M 7.144531 10 L 7.144531 11.429688 L 8.570312 11.429688 L 8.570312 10 Z M 15.714844 10 L 15.714844 11.429688 L 17.144531 11.429688 L 17.144531 10 Z M 2.144531 12.855469 C 0.957031 12.855469 0 13.8125 0 15 L 0 17.855469 C 0 19.042969 0.957031 20 2.144531 20 C 7.855469 20 13.570312 20 19.285156 20 C 19.679688 20 20 19.679688 20 19.285156 C 20 18.890625 19.679688 18.570312 19.285156 18.570312 C 13.570312 18.570312 7.855469 18.570312 2.144531 18.570312 C 1.746094 18.570312 1.429688 18.253906 1.429688 17.855469 L 1.429688 15 C 1.429688 14.605469 1.746094 14.285156 2.144531 14.285156 L 15 14.285156 C 15.394531 14.285156 15.714844 14.605469 15.714844 15 C 15.714844 15.394531 15.394531 15.714844 15 15.714844 L 2.855469 15.714844 L 2.855469 17.144531 C 6.90625 17.144531 10.953125 17.144531 15 17.144531 C 16.1875 17.144531 17.144531 16.1875 17.144531 15 C 17.144531 13.8125 16.1875 12.855469 15 12.855469 Z M 2.144531 12.855469 "/>
</svg>
