<?xml version="1.0" encoding="UTF-8"?>
<svg xmlns="http://www.w3.org/2000/svg" xmlns:xlink="http://www.w3.org/1999/xlink" width="24" height="24" viewBox="0 0 24 24">
<path fill-rule="nonzero" fill="rgb(0%, 0%, 0%)" fill-opacity="1" d="M 20.800781 18.398438 C 20.800781 21.601562 20 24 18.398438 24 C 18.398438 24 5.601562 24 5.601562 24 C 4 24 3.199219 21.601562 3.199219 18.398438 C 10.398438 22.398438 13.601562 22.398438 20.800781 18.398438 Z M 12 17.601562 C 12.398438 17.601562 12.800781 18 12.800781 18.398438 C 12.800781 18.800781 12.398438 19.199219 12 19.199219 C 11.601562 19.199219 11.199219 18.800781 11.199219 18.398438 C 11.199219 18 11.601562 17.601562 12 17.601562 Z M 19.199219 16 L 4.800781 16 C 4 16 3.199219 16.800781 3.199219 17.601562 C 10.398438 21.601562 13.601562 21.601562 20.800781 17.601562 C 20.800781 16.800781 20 16 19.199219 16 Z M 19.199219 16 "/>
<path fill-rule="nonzero" fill="rgb(0%, 0%, 0%)" fill-opacity="1" d="M 6.351562 13.601562 C 4.527344 13.601562 3.167969 13.601562 2.71875 11.792969 C 2.71875 11.792969 1.808594 8.160156 1.808594 6.800781 C 1.808594 4.527344 2.71875 3.632812 4.992188 3.632812 C 5.886719 3.632812 7.710938 3.632812 7.710938 3.632812 C 9.96875 3.632812 10.878906 4.527344 10.878906 6.800781 C 10.878906 8.160156 9.96875 11.792969 9.96875 11.792969 C 9.519531 13.601562 8.160156 13.601562 6.351562 13.601562 Z M 7.246094 0 L 5.441406 0 C 4.527344 0 4.527344 0.910156 4.527344 1.136719 C 5.214844 1.136719 5.214844 2.03125 4.527344 2.03125 C 4.527344 2.273438 4.527344 3.167969 5.441406 3.167969 C 6.351562 3.167969 6.351562 3.167969 7.246094 3.167969 C 8.160156 3.167969 8.382812 2.273438 8.382812 1.808594 L 9.519531 1.808594 C 9.519531 2.273438 9.96875 2.71875 10.878906 2.71875 C 11.792969 2.71875 12.6875 2.273438 12.6875 1.585938 C 12.6875 0.910156 11.792969 0.449219 10.878906 0.449219 C 9.96875 0.449219 9.519531 0.910156 9.519531 1.359375 L 8.382812 1.359375 C 8.382812 0.910156 8.160156 0 7.246094 0 Z M 3.34375 1.824219 C 3.457031 1.792969 3.566406 1.886719 3.601562 2 C 3.617188 2.128906 3.519531 2.238281 3.40625 2.273438 L 2.945312 2.335938 C 2.832031 2.351562 2.71875 2.257812 2.6875 2.144531 C 2.671875 2.015625 2.769531 1.902344 2.878906 1.886719 Z M 1.984375 2 C 2.113281 1.984375 2.222656 2.078125 2.238281 2.207031 C 2.273438 2.320312 2.175781 2.433594 2.046875 2.464844 L 1.601562 2.527344 C 1.488281 2.542969 1.359375 2.449219 1.34375 2.335938 C 1.328125 2.207031 1.425781 2.097656 1.535156 2.078125 Z M 0.640625 2.207031 C 0.769531 2.175781 0.878906 2.273438 0.894531 2.398438 C 0.910156 2.511719 0.832031 2.625 0.703125 2.65625 L 0.257812 2.71875 C 0.128906 2.734375 0.015625 2.640625 0 2.527344 C -0.015625 2.398438 0.0625 2.289062 0.191406 2.273438 Z M 0.257812 0.449219 L 0.703125 0.527344 C 0.832031 0.542969 0.910156 0.65625 0.894531 0.785156 C 0.878906 0.894531 0.769531 0.992188 0.640625 0.976562 L 0.191406 0.894531 C 0.0625 0.878906 -0.015625 0.769531 0 0.65625 C 0.015625 0.527344 0.128906 0.433594 0.257812 0.449219 Z M 1.601562 0.65625 L 2.046875 0.71875 C 2.175781 0.734375 2.273438 0.847656 2.238281 0.976562 C 2.222656 1.089844 2.113281 1.183594 1.984375 1.167969 L 1.535156 1.105469 C 1.425781 1.070312 1.328125 0.960938 1.34375 0.847656 C 1.359375 0.71875 1.488281 0.625 1.601562 0.65625 Z M 2.945312 0.847656 C 2.832031 0.816406 2.71875 0.910156 2.6875 1.039062 C 2.671875 1.152344 2.769531 1.265625 2.878906 1.296875 L 3.34375 1.359375 C 3.457031 1.375 3.566406 1.28125 3.601562 1.167969 C 3.617188 1.039062 3.519531 0.929688 3.40625 0.894531 Z M 2.945312 0.847656 "/>
<path fill-rule="nonzero" fill="rgb(0%, 0%, 0%)" fill-opacity="1" d="M 24 6.398438 C 24 6.398438 21.007812 3.199219 21.007812 3.199219 C 21.007812 3.199219 15.007812 3.199219 15.007812 3.199219 C 15.007812 3.199219 12 6.398438 12 6.398438 C 12 6.398438 18 13.601562 18 13.601562 C 18 13.601562 24 6.398438 24 6.398438 Z M 20.480469 6.398438 L 21.007812 4 L 23.246094 6.398438 Z M 20.257812 7.199219 L 22.496094 7.199219 L 18.753906 12 Z M 19.871094 6.398438 L 18.527344 4 L 20.480469 4 Z M 16.496094 7.199219 L 19.503906 7.199219 L 18 12.398438 Z M 16.71875 6.398438 L 18 4 L 19.28125 6.398438 Z M 16.128906 6.398438 L 15.519531 4 L 17.472656 4 Z M 17.246094 12 L 13.503906 7.199219 L 15.742188 7.199219 Z M 15.007812 4 L 15.519531 6.398438 L 12.753906 6.398438 Z M 15.007812 4 "/>
</svg>
