<?xml version="1.0" encoding="UTF-8"?>
<svg xmlns="http://www.w3.org/2000/svg" xmlns:xlink="http://www.w3.org/1999/xlink" width="20" height="20" viewBox="0 0 20 20">
<path fill-rule="nonzero" fill="rgb(78.039216%, 45.490196%, 0%)" fill-opacity="1" d="M 7.144531 4.285156 C 2.855469 4.285156 1.371094 7.144531 1.429688 8.570312 L 1.429688 10 L 18.570312 10 L 18.570312 8.570312 C 18.570312 7.144531 17.144531 4.285156 12.855469 4.285156 Z M 1.429688 11.429688 C 0 11.429688 0 12.855469 1.429688 12.855469 L 18.570312 12.855469 C 20 12.855469 20 11.429688 18.570312 11.429688 Z M 1.429688 14.332031 L 1.429688 15.222656 C 1.429688 16.199219 2.59375 17.144531 3.570312 17.144531 L 16.429688 17.144531 C 17.40625 17.144531 18.570312 16.199219 18.570312 15.222656 L 18.570312 14.332031 Z M 1.429688 14.332031 "/>
</svg>
