<?xml version="1.0" encoding="UTF-8"?>
<svg xmlns="http://www.w3.org/2000/svg" xmlns:xlink="http://www.w3.org/1999/xlink" width="24" height="24" viewBox="0 0 24 24">
<path fill-rule="nonzero" fill="rgb(0%, 0%, 0%)" fill-opacity="1" d="M 15.601562 12.800781 C 15.601562 10.816406 17.214844 9.199219 19.199219 9.199219 L 22.800781 9.199219 L 22.800781 11.601562 L 19.199219 11.601562 C 18.542969 11.601562 18 12.144531 18 12.800781 L 18 15.601562 L 12.800781 15.601562 C 12.144531 15.601562 11.601562 16.144531 11.601562 16.800781 L 11.601562 19.601562 L 6.398438 19.601562 C 5.742188 19.601562 5.199219 20.144531 5.199219 20.800781 L 5.199219 22.800781 L 2.800781 22.800781 L 2.800781 20.800781 C 2.800781 18.816406 4.414062 17.199219 6.398438 17.199219 L 9.199219 17.199219 L 9.199219 16.800781 C 9.199219 14.816406 10.816406 13.199219 12.800781 13.199219 L 15.601562 13.199219 Z M 12.800781 4.800781 L 17.601562 4.800781 C 17.601562 4.800781 17.601562 8 9.632812 9.601562 C 8.832031 9.761719 6.398438 11.199219 6.398438 12.6875 C 7.472656 13.824219 8 14.929688 8 16 C 8 17.070312 6.929688 16.527344 4.800781 14.398438 C 2.671875 16.527344 1.601562 17.070312 1.601562 16 C 1.601562 14.929688 2.128906 13.871094 3.199219 12.800781 C 3.199219 9.679688 3.199219 8 5.601562 4.800781 C 8 1.601562 14.398438 1.601562 16 1.601562 C 17.070312 1.601562 16 2.671875 12.800781 4.800781 Z M 12.800781 4.800781 "/>
</svg>
