<?xml version="1.0" encoding="UTF-8"?>
<svg xmlns="http://www.w3.org/2000/svg" xmlns:xlink="http://www.w3.org/1999/xlink" width="20" height="20" viewBox="0 0 20 20">
<path fill-rule="evenodd" fill="rgb(0%, 54.901961%, 5.098039%)" fill-opacity="1" d="M 12.140625 1.8125 C 12.140625 2.050781 12.1875 2.28125 12.277344 2.5 C 12.371094 2.71875 12.503906 2.914062 12.667969 3.082031 C 12.835938 3.246094 13.035156 3.378906 13.253906 3.46875 C 13.472656 3.558594 13.707031 3.605469 13.945312 3.605469 C 14.179688 3.605469 14.414062 3.558594 14.636719 3.46875 C 14.851562 3.378906 15.050781 3.246094 15.21875 3.082031 C 15.386719 2.914062 15.519531 2.71875 15.609375 2.5 C 15.703125 2.28125 15.746094 2.050781 15.746094 1.8125 C 15.746094 1.578125 15.703125 1.347656 15.609375 1.128906 C 15.519531 0.910156 15.386719 0.714844 15.21875 0.546875 C 15.050781 0.382812 14.851562 0.25 14.636719 0.160156 C 14.414062 0.0703125 14.179688 0.0234375 13.945312 0.0234375 C 13.464844 0.0234375 13.007812 0.210938 12.667969 0.546875 C 12.332031 0.882812 12.140625 1.339844 12.140625 1.8125 Z M 2.398438 13.988281 L 6.210938 14.96875 C 6.367188 15.007812 6.710938 14.972656 6.839844 14.941406 C 7.175781 14.875 7.273438 14.71875 7.402344 14.558594 L 9.207031 11.582031 L 11.476562 14.019531 L 10.5625 18.574219 C 10.53125 18.671875 10.515625 18.753906 10.515625 18.816406 C 10.515625 19.109375 10.613281 19.359375 10.800781 19.570312 C 10.988281 19.78125 11.214844 19.890625 11.476562 19.890625 C 11.972656 19.890625 12.277344 19.605469 12.394531 19.035156 L 13.507812 13.507812 C 13.636719 12.921875 13.582031 12.492188 13.332031 12.214844 L 11.347656 10 L 13.507812 7.199219 L 14.902344 8.757812 C 15.050781 8.917969 15.21875 9 15.40625 9 C 15.652344 9 15.894531 8.878906 16.125 8.632812 L 18.394531 6.101562 C 18.511719 5.9375 18.570312 5.761719 18.570312 5.566406 C 18.570312 5.320312 18.492188 5.117188 18.339844 4.957031 C 18.1875 4.792969 18.007812 4.710938 17.804688 4.710938 C 17.601562 4.710938 17.441406 4.777344 17.324219 4.90625 L 15.449219 7.003906 L 13.179688 4.46875 C 13.003906 4.273438 12.78125 4.121094 12.523438 4.175781 L 7.585938 5.277344 C 7.371094 5.324219 7.214844 5.523438 7.054688 5.71875 L 5.957031 7.613281 C 5.78125 7.773438 5.695312 7.976562 5.695312 8.21875 C 5.695312 8.449219 5.769531 8.644531 5.914062 8.804688 C 6.058594 8.96875 6.234375 9.046875 6.4375 9.046875 C 6.65625 9.046875 6.84375 8.953125 7.003906 8.757812 L 8.277344 6.621094 L 10.347656 6.269531 L 6.054688 12.9375 L 2.554688 11.933594 C 2.277344 11.933594 2.027344 11.988281 1.835938 12.183594 C 1.648438 12.378906 1.457031 12.550781 1.457031 12.859375 C 1.457031 13.152344 1.578125 13.40625 1.765625 13.609375 C 1.953125 13.8125 2.140625 13.921875 2.398438 13.988281 Z M 2.398438 13.988281 "/>
</svg>
