<?xml version="1.0" encoding="UTF-8"?>
<svg xmlns="http://www.w3.org/2000/svg" xmlns:xlink="http://www.w3.org/1999/xlink" width="24" height="24" viewBox="0 0 24 24">
<path fill-rule="nonzero" fill="rgb(0%, 0%, 0%)" fill-opacity="1" d="M 23.46875 7.273438 L 21.582031 22.078125 L 15.203125 22.078125 L 13.320312 7.199219 L 21.109375 7.199219 L 22.652344 1.882812 L 23.523438 2.144531 L 22.046875 7.261719 L 23.472656 7.273438 Z M 12.417969 15.839844 C 12.417969 15.839844 12.65625 13.921875 9.351562 13.921875 L 4.078125 13.921875 C 0.777344 13.921875 1.011719 15.839844 1.011719 15.839844 L 12.421875 15.839844 Z M 1.007812 20.160156 C 1.007812 20.160156 0.773438 22.078125 4.078125 22.078125 L 9.351562 22.078125 C 12.65625 22.078125 12.421875 20.160156 12.421875 20.160156 Z M 11.921875 19.199219 C 12.464844 19.199219 12.902344 18.667969 12.902344 18 C 12.902344 17.332031 12.464844 16.800781 11.921875 16.800781 L 1.460938 16.800781 C 0.921875 16.800781 0.480469 17.332031 0.480469 18 C 0.480469 18.667969 0.921875 19.199219 1.460938 19.199219 Z M 11.921875 19.199219 "/>
</svg>
