<?xml version="1.0" encoding="UTF-8"?>
<svg xmlns="http://www.w3.org/2000/svg" xmlns:xlink="http://www.w3.org/1999/xlink" width="24" height="24" viewBox="0 0 24 24">
<path fill-rule="nonzero" fill="rgb(0%, 0%, 0%)" fill-opacity="1" d="M 9.601562 0.800781 C 8 0.800781 6.398438 1.601562 6.398438 2.398438 L 17.601562 2.398438 C 17.601562 1.601562 16 0.800781 14.398438 0.800781 Z M 11.199219 4 C 11.199219 3.199219 12.800781 3.199219 12.800781 4 L 12.800781 4.800781 C 12.800781 5.601562 11.199219 5.601562 11.199219 4.800781 M 11.199219 7.808594 C 11.199219 8.609375 12.800781 8.609375 12.800781 7.808594 L 12.800781 7.007812 C 12.800781 6.207031 11.199219 6.207031 11.199219 7.007812 M 15.953125 4.382812 C 16.160156 5.152344 14.625 5.566406 14.398438 4.800781 L 14.191406 4.03125 C 13.984375 3.246094 15.535156 2.832031 15.742188 3.601562 M 16.71875 7.183594 C 16.929688 7.953125 15.390625 8.367188 15.183594 7.601562 L 14.976562 6.816406 C 14.769531 6.046875 16.304688 5.632812 16.511719 6.398438 M 8.097656 4.382812 C 7.886719 5.152344 9.441406 5.566406 9.648438 4.800781 L 9.855469 4.03125 C 10.0625 3.265625 8.527344 2.832031 8.320312 3.617188 M 7.328125 7.183594 C 7.121094 7.953125 8.671875 8.367188 8.878906 7.601562 L 9.089844 6.832031 C 9.296875 6.0625 7.742188 5.632812 7.535156 6.398438 M 15.359375 15.359375 C 14.769531 15 14.207031 14.59375 13.679688 14.144531 L 10.894531 10.527344 C 10.71875 10.300781 10.417969 10.203125 10.140625 10.277344 C 9.859375 10.355469 9.652344 10.59375 9.617188 10.878906 L 9.601562 10.878906 L 9.601562 12.800781 L 7.3125 12.800781 C 7.136719 12.800781 6.96875 12.734375 6.847656 12.609375 C 6.847656 12.609375 6.398438 11.519531 5.761719 11.519531 L 5.121094 11.519531 C 4.765625 11.519531 4.480469 11.804688 4.480469 12.160156 L 4.480469 17.921875 L 11.519531 17.921875 C 13.441406 17.921875 14.078125 19.199219 16 19.199219 L 21.121094 19.199219 L 21.121094 18.558594 C 21.121094 16.640625 16.703125 16.128906 15.359375 15.359375 Z M 15.359375 20.480469 C 14.671875 20.460938 14 20.261719 13.40625 19.902344 C 12.636719 19.460938 11.769531 19.21875 10.878906 19.199219 L 4.480469 19.199219 L 4.480469 21.121094 C 4.480469 21.472656 4.765625 21.761719 5.121094 21.761719 L 10.238281 21.761719 C 10.59375 21.761719 10.878906 21.472656 10.878906 21.121094 L 10.878906 20.480469 C 11.570312 20.5 12.242188 20.699219 12.832031 21.054688 C 13.601562 21.5 14.472656 21.742188 15.359375 21.761719 L 20.480469 21.761719 C 20.832031 21.761719 21.121094 21.472656 21.121094 21.121094 L 21.121094 20.480469 Z M 15.359375 20.480469 "/>
</svg>
