<?xml version="1.0" encoding="UTF-8"?>
<svg xmlns="http://www.w3.org/2000/svg" xmlns:xlink="http://www.w3.org/1999/xlink" width="20" height="20" viewBox="0 0 20 20">
<path fill-rule="nonzero" fill="rgb(45.098039%, 29.019608%, 3.137255%)" fill-opacity="1" d="M 8.570312 18.570312 L 11.429688 18.570312 C 11.429688 17.140625 11.429688 14.285156 10 14.285156 C 8.570312 14.285156 8.570312 17.140625 8.570312 18.570312 Z M 0 1.429688 L 0 4.285156 L 7.144531 4.285156 L 7.144531 1.429688 L 5.714844 1.429688 L 5.714844 2.855469 L 4.285156 2.855469 L 4.285156 1.429688 L 2.855469 1.429688 L 2.855469 2.855469 L 1.429688 2.855469 L 1.429688 1.429688 Z M 12.855469 1.429688 L 12.855469 4.285156 L 20 4.285156 L 20 1.429688 L 18.570312 1.429688 L 18.570312 2.855469 L 17.144531 2.855469 L 17.144531 1.429688 L 15.714844 1.429688 L 15.714844 2.855469 L 14.285156 2.855469 L 14.285156 1.429688 Z M 0 5.714844 L 0 18.570312 L 7.144531 18.570312 C 7.144531 17.140625 7.144531 12.855469 10 12.855469 C 12.855469 12.855469 12.855469 17.140625 12.855469 18.570312 L 20 18.570312 L 20 5.714844 L 12.855469 5.714844 L 12.855469 8.570312 L 7.144531 8.570312 L 7.144531 5.714844 Z M 2.855469 8.570312 L 4.285156 8.570312 L 4.285156 10 L 3.570312 11.429688 L 2.855469 10 Z M 15.714844 8.570312 L 17.144531 8.570312 L 17.144531 10 L 16.429688 11.429688 L 15.714844 10 Z M 15.714844 8.570312 "/>
</svg>
