<?xml version="1.0" encoding="UTF-8"?>
<svg xmlns="http://www.w3.org/2000/svg" xmlns:xlink="http://www.w3.org/1999/xlink" width="20" height="20" viewBox="0 0 20 20">
<path fill-rule="nonzero" fill="rgb(45.098039%, 29.019608%, 3.137255%)" fill-opacity="1" d="M 1.429688 1.429688 L 1.429688 4.285156 L 8.570312 4.285156 L 8.570312 1.429688 L 7.144531 1.429688 L 7.144531 2.855469 L 5.714844 2.855469 L 5.714844 1.429688 L 4.285156 1.429688 L 4.285156 2.855469 L 2.855469 2.855469 L 2.855469 1.429688 Z M 11.429688 1.429688 L 11.429688 4.285156 L 18.570312 4.285156 L 18.570312 1.429688 L 17.144531 1.429688 L 17.144531 2.855469 L 15.714844 2.855469 L 15.714844 1.429688 L 14.285156 1.429688 L 14.285156 2.855469 L 12.855469 2.855469 L 12.855469 1.429688 Z M 1.429688 5.714844 L 1.429688 14.285156 L 18.570312 14.285156 L 18.570312 5.714844 L 11.429688 5.714844 L 11.429688 8.570312 L 8.570312 8.570312 L 8.570312 5.714844 Z M 4.285156 8.570312 L 5.714844 8.570312 L 5.714844 10 L 5 11.429688 L 4.285156 10 Z M 14.285156 8.570312 L 15.714844 8.570312 L 15.714844 10 L 15 11.429688 L 14.285156 10 Z M 1.429688 15.714844 L 0 20 L 20 20 L 18.570312 15.714844 Z M 1.429688 15.714844 "/>
</svg>
