<?xml version="1.0" encoding="UTF-8"?>
<svg xmlns="http://www.w3.org/2000/svg" xmlns:xlink="http://www.w3.org/1999/xlink" width="24" height="24" viewBox="0 0 24 24">
<path fill-rule="nonzero" fill="rgb(0%, 0%, 0%)" fill-opacity="1" d="M 9.601562 16.800781 C 9.601562 18.128906 8.527344 19.199219 7.199219 19.199219 C 6.160156 19.199219 5.265625 18.527344 4.945312 17.601562 L 4.65625 17.601562 C 4.335938 18.527344 3.441406 19.199219 2.398438 19.199219 C 1.070312 19.199219 0 18.128906 0 16.800781 L 0 4 L 1.601562 4 L 1.601562 4.800781 L 22.398438 4.800781 L 22.398438 4 L 24 4 L 24 16.800781 C 24 18.128906 22.929688 19.199219 21.601562 19.199219 C 20.558594 19.199219 19.664062 18.527344 19.34375 17.601562 L 19.054688 17.601562 C 18.734375 18.527344 17.839844 19.199219 16.800781 19.199219 C 15.472656 19.199219 14.398438 18.128906 14.398438 16.800781 Z M 22.398438 14.398438 L 22.398438 6.398438 L 1.601562 6.398438 L 1.601562 14.398438 Z M 4 7.199219 C 4.449219 7.199219 4.800781 7.550781 4.800781 8 L 4.800781 12.800781 C 4.800781 13.246094 4.449219 13.601562 4 13.601562 C 3.550781 13.601562 3.199219 13.246094 3.199219 12.800781 L 3.199219 8 C 3.199219 7.550781 3.550781 7.199219 4 7.199219 Z M 7.199219 7.199219 C 7.648438 7.199219 8 7.550781 8 8 L 8 12.800781 C 8 13.246094 7.648438 13.601562 7.199219 13.601562 C 6.753906 13.601562 6.398438 13.246094 6.398438 12.800781 L 6.398438 8 C 6.398438 7.550781 6.753906 7.199219 7.199219 7.199219 Z M 10.398438 7.199219 C 10.847656 7.199219 11.199219 7.550781 11.199219 8 L 11.199219 12.800781 C 11.199219 13.246094 10.847656 13.601562 10.398438 13.601562 C 9.953125 13.601562 9.601562 13.246094 9.601562 12.800781 L 9.601562 8 C 9.601562 7.550781 9.953125 7.199219 10.398438 7.199219 Z M 13.601562 7.199219 C 14.046875 7.199219 14.398438 7.550781 14.398438 8 L 14.398438 12.800781 C 14.398438 13.246094 14.046875 13.601562 13.601562 13.601562 C 13.152344 13.601562 12.800781 13.246094 12.800781 12.800781 L 12.800781 8 C 12.800781 7.550781 13.152344 7.199219 13.601562 7.199219 Z M 16.800781 7.199219 C 17.246094 7.199219 17.601562 7.550781 17.601562 8 L 17.601562 12.800781 C 17.601562 13.246094 17.246094 13.601562 16.800781 13.601562 C 16.351562 13.601562 16 13.246094 16 12.800781 L 16 8 C 16 7.550781 16.351562 7.199219 16.800781 7.199219 Z M 20 7.199219 C 20.449219 7.199219 20.800781 7.550781 20.800781 8 L 20.800781 12.800781 C 20.800781 13.246094 20.449219 13.601562 20 13.601562 C 19.550781 13.601562 19.199219 13.246094 19.199219 12.800781 L 19.199219 8 C 19.199219 7.550781 19.550781 7.199219 20 7.199219 Z M 2.398438 15.601562 C 1.742188 15.601562 1.199219 16.144531 1.199219 16.800781 C 1.199219 17.457031 1.742188 18 2.398438 18 C 3.054688 18 3.601562 17.457031 3.601562 16.800781 C 3.601562 16.144531 3.054688 15.601562 2.398438 15.601562 Z M 7.199219 15.601562 C 6.542969 15.601562 6 16.144531 6 16.800781 C 6 17.457031 6.542969 18 7.199219 18 C 7.855469 18 8.398438 17.457031 8.398438 16.800781 C 8.398438 16.144531 7.855469 15.601562 7.199219 15.601562 Z M 16.800781 15.601562 C 16.144531 15.601562 15.601562 16.144531 15.601562 16.800781 C 15.601562 17.457031 16.144531 18 16.800781 18 C 17.457031 18 18 17.457031 18 16.800781 C 18 16.144531 17.457031 15.601562 16.800781 15.601562 Z M 21.601562 15.601562 C 20.945312 15.601562 20.398438 16.144531 20.398438 16.800781 C 20.398438 17.457031 20.945312 18 21.601562 18 C 22.257812 18 22.800781 17.457031 22.800781 16.800781 C 22.800781 16.144531 22.257812 15.601562 21.601562 15.601562 Z M 21.601562 15.601562 "/>
</svg>
