<?xml version="1.0" encoding="UTF-8"?>
<svg xmlns="http://www.w3.org/2000/svg" xmlns:xlink="http://www.w3.org/1999/xlink" width="20" height="20" viewBox="0 0 20 20">
<path fill-rule="nonzero" fill="rgb(0%, 57.254902%, 85.490196%)" fill-opacity="1" d="M 15.402344 0 L 14.507812 1.027344 L 16.207031 2.589844 C 16.257812 2.640625 16.328125 2.710938 16.382812 2.769531 L 16.027344 3.167969 C 15.453125 3.742188 15.867188 4.480469 16.070312 4.6875 L 17.144531 5.757812 L 17.144531 14.285156 C 17.144531 15.714844 16.582031 15.714844 16.429688 15.714844 C 16.273438 15.714844 15.714844 15.714844 15.714844 14.285156 L 15.714844 8.570312 C 15.714844 6.742188 14.285156 5.714844 12.855469 5.714844 L 12.855469 2.855469 C 12.855469 2.070312 12.25 1.429688 11.429688 1.429688 L 2.855469 1.429688 C 2 1.429688 1.429688 2.035156 1.429688 2.855469 L 1.429688 20 L 12.855469 20 L 12.855469 7.144531 C 12.855469 7.144531 14.285156 7.144531 14.285156 8.570312 L 14.285156 14.285156 C 14.285156 17.144531 16.058594 17.144531 16.429688 17.144531 C 16.824219 17.144531 18.570312 17.144531 18.570312 14.285156 L 18.570312 4.285156 C 18.570312 2.855469 18.164062 2.558594 17.679688 2.097656 Z M 2.855469 4.285156 L 11.429688 4.285156 L 11.429688 8.570312 L 2.855469 8.570312 Z M 2.855469 4.285156 "/>
</svg>
