<?xml version="1.0" encoding="UTF-8"?>
<svg xmlns="http://www.w3.org/2000/svg" xmlns:xlink="http://www.w3.org/1999/xlink" width="20" height="20" viewBox="0 0 20 20">
<path fill-rule="evenodd" fill="rgb(24.705882%, 24.705882%, 24.705882%)" fill-opacity="1" d="M 8.570312 1.429688 L 8.570312 2.855469 L 4.285156 2.855469 L 4.285156 4.285156 L 8.570312 4.285156 L 8.570312 7.144531 L 4.285156 7.144531 L 4.285156 8.570312 L 8.570312 8.570312 L 8.570312 11.429688 L 4.285156 11.429688 L 4.285156 12.855469 L 8.570312 12.855469 L 8.570312 15.714844 L 4.285156 15.714844 L 4.285156 17.144531 L 8.570312 17.144531 L 8.570312 18.570312 L 11.429688 18.570312 L 11.429688 17.144531 L 15.714844 17.144531 L 15.714844 15.714844 L 11.429688 15.714844 L 11.429688 12.855469 L 15.714844 12.855469 L 15.714844 11.429688 L 11.429688 11.429688 L 11.429688 8.570312 L 15.714844 8.570312 L 15.714844 7.144531 L 11.429688 7.144531 L 11.429688 4.285156 L 15.714844 4.285156 L 15.714844 2.855469 L 11.429688 2.855469 L 11.429688 1.429688 Z M 8.570312 1.429688 "/>
</svg>
