<?xml version="1.0" encoding="UTF-8"?>
<svg xmlns="http://www.w3.org/2000/svg" xmlns:xlink="http://www.w3.org/1999/xlink" width="20" height="20" viewBox="0 0 20 20">
<path fill-rule="evenodd" fill="rgb(67.45098%, 22.352941%, 67.45098%)" fill-opacity="1" d="M 14.285156 1.429688 C 11.429688 1.332031 7.875 3.414062 8.570312 8.570312 L 9.644531 12.855469 L 5.054688 10 L 4.992188 7.144531 L 3.851562 5.714844 C 2.855469 5.714844 0 9.078125 0 10.355469 L 1.867188 11.429688 L 4.285156 11.003906 L 11.429688 20 C 13.695312 20 15.480469 20 17.746094 20 L 20 8.570312 C 20 1.429688 15.265625 1.460938 14.285156 1.429688 Z M 14.285156 3.425781 C 17.144531 3.453125 18.570312 5.714844 17.902344 8.570312 L 10.738281 8.570312 C 10 5.714844 10.65625 3.425781 14.285156 3.425781 Z M 14.285156 3.425781 "/>
</svg>
