<?xml version="1.0" encoding="UTF-8"?>
<svg xmlns="http://www.w3.org/2000/svg" xmlns:xlink="http://www.w3.org/1999/xlink" width="24" height="24" viewBox="0 0 24 24">
<path fill-rule="nonzero" fill="rgb(0%, 0%, 0%)" fill-opacity="1" d="M 19.199219 19.199219 L 19.199219 16.800781 C 19.199219 16.351562 19.550781 16 20 16 L 21.601562 16 C 22.046875 16 22.398438 16.351562 22.398438 16.800781 L 22.398438 21.601562 C 22.398438 22.046875 22.046875 22.398438 21.601562 22.398438 L 2.398438 22.398438 C 1.953125 22.398438 1.601562 22.046875 1.601562 21.601562 L 1.601562 16.800781 C 1.601562 16.351562 1.953125 16 2.398438 16 L 4 16 C 4.449219 16 4.800781 16.351562 4.800781 16.800781 L 4.800781 19.199219 Z M 11.199219 8.800781 L 9.054688 7.726562 C 7.425781 6.910156 6.398438 5.246094 6.398438 3.441406 L 6.398438 1.601562 C 8.960938 2.449219 10.992188 4.367188 12 6.816406 C 13.007812 4.367188 15.039062 2.449219 17.601562 1.601562 L 17.601562 3.441406 C 17.601562 5.246094 16.574219 6.910156 14.945312 7.726562 L 12.800781 8.800781 L 12.800781 12.734375 C 14.304688 10.480469 16.558594 8.800781 19.199219 8 C 19.199219 11.871094 16.449219 15.105469 12.800781 15.839844 L 12.800781 18.398438 L 11.199219 18.398438 L 11.199219 15.839844 C 7.550781 15.105469 4.800781 11.871094 4.800781 8 C 7.441406 8.800781 9.695312 10.480469 11.199219 12.734375 Z M 11.199219 8.800781 "/>
</svg>
