<?xml version="1.0" encoding="UTF-8"?>
<svg xmlns="http://www.w3.org/2000/svg" xmlns:xlink="http://www.w3.org/1999/xlink" width="24" height="24" viewBox="0 0 24 24">
<path fill-rule="nonzero" fill="rgb(0%, 0%, 0%)" fill-opacity="1" d="M 14.398438 0.800781 C 14.398438 0.800781 14.398438 1.601562 14.398438 1.601562 C 14.398438 1.601562 20 1.601562 20 1.601562 C 20.800781 1.601562 20.800781 2.398438 20.800781 2.398438 L 20.800781 21.601562 C 20.800781 21.601562 20.800781 22.398438 20 22.398438 C 20 22.398438 14.398438 22.398438 14.398438 22.398438 L 14.398438 23.199219 C 14.398438 24 9.601562 24 9.601562 23.199219 L 9.601562 22.398438 C 9.601562 22.398438 4 22.398438 4 22.398438 C 3.199219 22.398438 3.199219 21.601562 3.199219 21.601562 L 3.199219 2.398438 C 3.199219 2.398438 3.199219 1.601562 4 1.601562 C 4 1.601562 9.601562 1.601562 9.601562 1.601562 C 9.601562 1.601562 9.601562 0.800781 9.601562 0.800781 C 9.601562 0 14.398438 0 14.398438 0.800781 Z M 12 4.800781 C 8 4.800781 4.800781 8 4.800781 12 C 4.800781 16 8 19.199219 12 19.199219 C 16 19.199219 19.199219 16 19.199219 12 C 19.199219 8 16 4.800781 12 4.800781 Z M 12 4.800781 "/>
<path fill-rule="nonzero" fill="rgb(0%, 0%, 0%)" fill-opacity="1" d="M 16 14.398438 C 16 16.398438 14.398438 17.601562 12.398438 17.601562 C 15.601562 14.398438 12.398438 14.800781 11.601562 12.800781 C 11.199219 14.398438 9.601562 16 11.601562 17.601562 C 10 17.601562 8 16.800781 8 14.398438 C 8 12.800781 9.601562 11.199219 9.601562 8 C 10 9.199219 10.800781 10 10.800781 10 C 10.800781 7.199219 13.601562 5.601562 13.601562 5.601562 C 13.199219 8.800781 15.199219 9.199219 14.800781 10.800781 C 14.398438 12.800781 16 13.199219 16 14.398438 Z M 16 14.398438 "/>
</svg>
