<?xml version="1.0" encoding="UTF-8"?>
<svg xmlns="http://www.w3.org/2000/svg" xmlns:xlink="http://www.w3.org/1999/xlink" width="24" height="24" viewBox="0 0 24 24">
<path fill-rule="nonzero" fill="rgb(0%, 0%, 0%)" fill-opacity="1" d="M 9.601562 0.800781 C 9.601562 0.800781 9.601562 3.199219 9.601562 3.199219 C 9.601562 3.199219 13.601562 3.199219 13.601562 3.199219 C 14.398438 3.199219 14.398438 4 14.398438 4 L 14.398438 20 C 14.398438 20 14.398438 20.800781 13.601562 20.800781 C 13.601562 20.800781 9.601562 20.800781 9.601562 20.800781 L 9.601562 23.199219 C 9.601562 24 4.800781 24 4.800781 23.199219 L 4.800781 20.800781 C 4.800781 20.800781 0.800781 20.800781 0.800781 20.800781 C 0 20.800781 0 20 0 20 L 0 4 C 0 4 0 3.199219 0.800781 3.199219 C 0.800781 3.199219 4.800781 3.199219 4.800781 3.199219 C 4.800781 3.199219 4.800781 0.800781 4.800781 0.800781 C 4.800781 0 9.601562 0 9.601562 0.800781 Z M 7.199219 6.398438 C 4 6.398438 1.601562 8.800781 1.601562 12 C 1.601562 15.199219 4 17.601562 7.199219 17.601562 C 10.398438 17.601562 12.800781 15.199219 12.800781 12 C 12.800781 8.800781 10.398438 6.398438 7.199219 6.398438 Z M 7.199219 6.398438 "/>
<path fill-rule="nonzero" fill="rgb(0%, 0%, 0%)" fill-opacity="1" d="M 4.800781 14.398438 C 4.800781 14.398438 9.601562 14.398438 9.601562 14.398438 C 10.398438 14.398438 10.398438 16 9.601562 16 C 9.601562 16 4.800781 16 4.800781 16 C 4 16 4 14.398438 4.800781 14.398438 Z M 4 8.800781 C 3.601562 9.199219 5.761719 11.359375 5.761719 11.359375 C 5.761719 11.359375 5.601562 11.679688 5.601562 12 C 5.601562 12.800781 6.207031 13.601562 7.199219 13.601562 C 8.207031 13.601562 8.800781 12.800781 8.800781 12 C 8.800781 11.199219 8.207031 10.398438 7.199219 10.398438 C 6.71875 10.398438 6.558594 10.558594 6.558594 10.558594 C 6.558594 10.558594 4.398438 8.398438 4 8.800781 Z M 4 8.800781 "/>
<path fill-rule="nonzero" fill="rgb(0%, 0%, 0%)" fill-opacity="1" d="M 24 14.398438 C 24 17.199219 21.601562 18 20 18 C 23.199219 14.800781 20 14.800781 19.199219 12.800781 C 18.800781 14.398438 17.601562 16.398438 19.199219 18 C 17.601562 18 16 17.199219 16 14.800781 C 16 13.199219 17.199219 10.398438 17.199219 7.199219 C 17.601562 8.398438 18.800781 9.601562 18.800781 9.601562 C 18.800781 6.800781 21.199219 4 21.199219 4 C 20.800781 7.199219 22.398438 8.398438 22 10 C 21.601562 12 24 13.199219 24 14.398438 Z M 24 14.398438 "/>
</svg>
