<?xml version="1.0" encoding="UTF-8"?>
<svg xmlns="http://www.w3.org/2000/svg" xmlns:xlink="http://www.w3.org/1999/xlink" width="24" height="24" viewBox="0 0 24 24">
<path fill-rule="nonzero" fill="rgb(0%, 0%, 0%)" fill-opacity="1" d="M 9.601562 0.800781 C 9.601562 0.800781 9.601562 3.199219 9.601562 3.199219 C 9.601562 3.199219 13.601562 3.199219 13.601562 3.199219 C 14.398438 3.199219 14.398438 4 14.398438 4 L 14.398438 20 C 14.398438 20 14.398438 20.800781 13.601562 20.800781 C 13.601562 20.800781 9.601562 20.800781 9.601562 20.800781 L 9.601562 23.199219 C 9.601562 24 4.800781 24 4.800781 23.199219 L 4.800781 20.800781 C 4.800781 20.800781 0.800781 20.800781 0.800781 20.800781 C 0 20.800781 0 20 0 20 L 0 4 C 0 4 0 3.199219 0.800781 3.199219 C 0.800781 3.199219 4.800781 3.199219 4.800781 3.199219 C 4.800781 3.199219 4.800781 0.800781 4.800781 0.800781 C 4.800781 0 9.601562 0 9.601562 0.800781 Z M 7.199219 6 C 3.601562 6 1.199219 8.398438 1.199219 12 C 1.199219 15.601562 3.601562 18 7.199219 18 C 10.800781 18 13.199219 15.601562 13.199219 12 C 13.199219 8.398438 10.800781 6 7.199219 6 Z M 7.199219 6 "/>
<path fill-rule="nonzero" fill="rgb(0%, 0%, 0%)" fill-opacity="1" d="M 24 14.398438 C 24 17.199219 21.601562 18 20 18 C 23.199219 14.800781 20 14.800781 19.199219 12.800781 C 18.800781 14.398438 17.601562 16.398438 19.199219 18 C 17.601562 18 16 17.199219 16 14.800781 C 16 13.199219 17.199219 10.398438 17.199219 7.199219 C 17.601562 8.398438 18.800781 9.601562 18.800781 9.601562 C 18.800781 6.800781 21.199219 4 21.199219 4 C 20.800781 7.199219 22.398438 8.398438 22 10 C 21.601562 12 24 13.199219 24 14.398438 Z M 24 14.398438 "/>
<path fill-rule="nonzero" fill="rgb(0%, 0%, 0%)" fill-opacity="1" d="M 7.199219 7.199219 C 9.921875 7.199219 12 9.441406 12 12 C 12 14.558594 9.921875 16.800781 7.199219 16.800781 C 4.480469 16.800781 2.398438 14.71875 2.398438 12 C 2.398438 9.28125 4.480469 7.199219 7.199219 7.199219 Z M 6.238281 13.121094 C 6.238281 13.121094 4.398438 14.398438 4.398438 14.398438 C 4.398438 14.398438 5.28125 15.679688 7.199219 15.679688 C 9.121094 15.679688 10 14.398438 10 14.398438 C 10 14.398438 8.160156 13.121094 8.160156 13.121094 C 7.550781 13.519531 6.847656 13.519531 6.238281 13.121094 Z M 6.558594 8.320312 C 4.960938 8.640625 3.519531 10.238281 3.519531 12 C 3.519531 13.007812 3.808594 13.40625 3.808594 13.40625 C 3.808594 13.40625 5.761719 12.160156 5.761719 12.160156 C 5.761719 12.160156 5.601562 11.199219 6.558594 10.71875 C 6.558594 10.71875 6.558594 8.320312 6.558594 8.320312 Z M 7.839844 8.320312 C 7.839844 8.320312 7.839844 10.71875 7.839844 10.71875 C 8.800781 11.199219 8.640625 12.160156 8.640625 12.160156 C 8.640625 12.160156 10.609375 13.40625 10.609375 13.40625 C 10.609375 13.40625 10.878906 12.960938 10.878906 12 C 10.878906 10.238281 9.441406 8.640625 7.839844 8.320312 Z M 7.839844 8.320312 "/>
</svg>
