<?xml version="1.0" encoding="UTF-8"?>
<svg xmlns="http://www.w3.org/2000/svg" xmlns:xlink="http://www.w3.org/1999/xlink" width="20" height="20" viewBox="0 0 20 20">
<path fill-rule="nonzero" fill="rgb(67.45098%, 22.352941%, 67.45098%)" fill-opacity="1" d="M 6.25 0.714844 C 5 0.714844 3.75 1.589844 3.75 3.214844 C 3.75 4.839844 4.492188 5.714844 6.117188 5.714844 L 13.792969 5.714844 C 15.417969 5.714844 16.25 4.882812 16.25 3.257812 C 16.25 1.632812 15 0.714844 13.75 0.714844 C 11.855469 0.714844 10.476562 1.863281 10 3.527344 C 9.523438 1.863281 8.1875 0.714844 6.25 0.714844 Z M 6.25 1.964844 C 8.273438 1.964844 8.617188 3.566406 8.75 4.464844 L 6.25 4.464844 C 4.9375 4.464844 5 3.269531 5 3.214844 C 5 3.160156 4.9375 1.964844 6.25 1.964844 Z M 13.75 1.964844 C 15 1.964844 15 3.160156 15 3.214844 C 15 3.269531 15.0625 4.464844 13.75 4.464844 L 11.25 4.464844 C 11.382812 3.566406 11.722656 1.964844 13.75 1.964844 Z M 5.714844 7.144531 C 4.285156 7.144531 2.855469 8.570312 2.855469 10 L 2.855469 12.5 L 8.929688 12.5 L 8.929688 7.144531 Z M 11.070312 7.144531 L 11.070312 12.5 L 17.144531 12.5 L 17.144531 10 C 17.144531 8.570312 15.714844 7.144531 14.285156 7.144531 Z M 2.855469 14.644531 L 2.855469 17.144531 C 2.855469 18.570312 4.285156 20 5.714844 20 L 8.929688 20 L 8.929688 14.644531 Z M 11.070312 14.644531 L 11.070312 20 L 14.285156 20 C 15.714844 20 17.144531 18.570312 17.144531 17.144531 L 17.144531 14.644531 Z M 11.070312 14.644531 "/>
</svg>
