<?xml version="1.0" encoding="UTF-8"?>
<svg xmlns="http://www.w3.org/2000/svg" xmlns:xlink="http://www.w3.org/1999/xlink" width="24" height="24" viewBox="0 0 24 24">
<path fill-rule="nonzero" fill="rgb(0%, 0%, 0%)" fill-opacity="1" d="M 7.199219 16.257812 L 7.199219 18.335938 C 6.160156 18.464844 5.199219 18.734375 5.199219 19.199219 C 5.199219 19.921875 7.40625 20.160156 8.800781 20.160156 C 10.191406 20.160156 12.398438 19.921875 12.398438 19.199219 C 12.398438 18.734375 11.441406 18.464844 10.398438 18.335938 L 10.398438 16.03125 C 10.910156 16.015625 11.457031 16 12 16 C 19.199219 16 24 17.601562 24 19.199219 C 24 20.800781 19.199219 22.398438 12 22.398438 C 4.800781 22.398438 0 20.800781 0 19.199219 C 0 17.984375 2.753906 16.785156 7.199219 16.257812 Z M 8.800781 0 C 9.246094 0 9.601562 0.351562 9.601562 0.800781 L 9.601562 19.199219 L 8 19.199219 L 8 0.800781 C 8 0.351562 8.351562 0 8.800781 0 Z M 10.398438 0.800781 C 11.246094 1.617188 12.273438 2.238281 13.457031 2.6875 C 14.640625 3.121094 17.359375 3.441406 21.601562 3.632812 C 19.167969 6.160156 17.136719 7.742188 15.488281 8.351562 C 13.855469 8.945312 12.160156 8.945312 10.398438 8.351562 Z M 10.398438 0.800781 "/>
</svg>
