<?xml version="1.0" encoding="UTF-8"?>
<svg xmlns="http://www.w3.org/2000/svg" xmlns:xlink="http://www.w3.org/1999/xlink" width="24" height="24" viewBox="0 0 24 24">
<path fill-rule="nonzero" fill="rgb(0%, 0%, 0%)" fill-opacity="1" d="M 4.207031 21.601562 C 2.734375 21.601562 1.566406 20.414062 1.566406 18.960938 C 1.566406 17.503906 2.734375 16.320312 4.207031 16.320312 C 5.664062 16.320312 6.847656 17.503906 6.847656 18.960938 C 6.847656 20.414062 5.664062 21.601562 4.207031 21.601562 Z M 4.207031 21.601562 "/>
<path fill-rule="nonzero" fill="rgb(0%, 0%, 0%)" fill-opacity="1" d="M 17.40625 21.601562 C 15.9375 21.601562 14.769531 20.414062 14.769531 18.960938 C 14.769531 17.503906 15.9375 16.320312 17.40625 16.320312 C 18.863281 16.320312 20.046875 17.503906 20.046875 18.960938 C 20.046875 20.414062 18.863281 21.601562 17.40625 21.601562 Z M 17.40625 21.601562 "/>
<path fill-rule="nonzero" fill="rgb(0%, 0%, 0%)" fill-opacity="1" d="M 20.046875 3.199219 L 20.046875 10.398438 L 21.726562 10.398438 C 22.609375 10.398438 23.199219 16.71875 23.199219 17.601562 C 23.199219 18.480469 22.480469 18.398438 21.601562 18.398438 C 20.71875 18.398438 20.046875 15.441406 17.40625 15.441406 C 14.769531 15.441406 14.046875 19.199219 12.800781 19.199219 C 11.921875 19.199219 9.679688 19.199219 8.800781 19.199219 C 7.921875 19.199219 6.847656 15.441406 4.207031 15.441406 C 2.449219 15.441406 2.449219 16.320312 1.566406 16.320312 C 0.6875 16.320312 0.800781 15.28125 0.800781 14.398438 C 0.800781 13.519531 1.519531 12 2.398438 12 L 4 12 L 6.398438 4.800781 L 4.800781 4.800781 C 4.351562 4.800781 4 4.449219 4 4 C 4 3.550781 4.351562 3.199219 4.800781 3.199219 Z M 18.398438 4.800781 L 8 4.800781 L 5.601562 12 L 7.199219 12 L 8.703125 10.847656 L 8.207031 10.257812 C 8.0625 10.078125 8.0625 9.871094 8.273438 9.695312 C 8.464844 9.503906 8.734375 9.617188 8.832031 9.742188 C 8.929688 9.871094 10.335938 11.617188 10.335938 11.617188 C 10.480469 11.792969 10.449219 12.03125 10.289062 12.175781 C 10.113281 12.320312 9.855469 12.289062 9.726562 12.113281 L 9.152344 11.40625 L 7.871094 12.320312 C 8.785156 12.734375 9.230469 14.703125 9.601562 16 C 9.601562 16 12.800781 16 12.800781 16 C 12.800781 16 14.398438 14.398438 14.398438 14.398438 C 14.398438 14.398438 15.3125 10.398438 16.929688 10.398438 C 18.0625 10.398438 17.632812 10.398438 18.398438 10.398438 Z M 18.398438 4.800781 "/>
</svg>
