<?xml version="1.0" encoding="UTF-8"?>
<svg xmlns="http://www.w3.org/2000/svg" xmlns:xlink="http://www.w3.org/1999/xlink" width="20" height="20" viewBox="0 0 20 20">
<path fill-rule="nonzero" fill="rgb(18.431373%, 38.039216%, 20%)" fill-opacity="1" d="M 8.890625 0.871094 L 8.890625 9.367188 C 7.777344 9.40625 6.800781 9.5 6.152344 9.628906 C 5.5 9.761719 5.214844 9.921875 5.351562 10.078125 C 5.488281 10.238281 6.035156 10.382812 6.894531 10.488281 C 7.75 10.59375 8.855469 10.652344 10 10.652344 C 11.144531 10.652344 12.25 10.59375 13.105469 10.488281 C 13.964844 10.382812 14.511719 10.238281 14.648438 10.078125 C 14.785156 9.921875 14.5 9.761719 13.847656 9.628906 C 13.199219 9.5 12.222656 9.40625 11.109375 9.367188 L 11.109375 3.476562 L 20 2.175781 L 11.109375 0.871094 Z M 8.890625 0.871094 "/>
</svg>
