<?xml version="1.0" encoding="UTF-8"?>
<svg xmlns="http://www.w3.org/2000/svg" xmlns:xlink="http://www.w3.org/1999/xlink" width="24" height="24" viewBox="0 0 24 24">
<path fill-rule="nonzero" fill="rgb(0%, 0%, 0%)" fill-opacity="1" d="M 4.800781 20.398438 C 4.800781 21.199219 4.800781 22 5.601562 22.800781 C 5.601562 23.601562 4.800781 24 3.601562 24 C 2.398438 24 1.601562 23.199219 1.601562 22 C 1.601562 20.800781 2.398438 20 3.601562 20 C 4.398438 20 4.800781 20.398438 4.800781 20.398438 Z M 7.199219 10 C 7.601562 9.199219 8 8.800781 8.800781 8.398438 C 8.800781 6.800781 8 6 6.800781 6 C 5.601562 6 4.800781 6.800781 4.800781 8 C 4.800781 8.398438 4.800781 9.199219 5.601562 9.601562 C 6.398438 9.601562 6.800781 9.601562 7.199219 10 Z M 7.199219 18.800781 C 6.398438 18.800781 5.601562 19.601562 5.601562 20.800781 C 5.601562 22 6.398438 22.800781 7.601562 22.800781 C 8.800781 22.800781 9.601562 22 9.601562 21.601562 C 8.800781 20.800781 8.800781 20 8.800781 19.199219 C 8 19.199219 7.601562 19.199219 7.199219 18.800781 Z M 5.601562 16 C 5.601562 16 5.199219 15.199219 4.398438 15.199219 C 3.199219 15.199219 2.398438 16 2.398438 17.199219 C 2.398438 18.398438 3.199219 19.199219 4.398438 19.199219 C 5.601562 19.199219 6 18.398438 6 18 C 5.601562 17.601562 5.199219 17.199219 5.601562 16 Z M 8.398438 18.398438 C 9.199219 18.398438 9.199219 17.601562 10 17.199219 C 10 17.199219 9.199219 16.398438 9.601562 15.199219 C 9.601562 15.199219 9.601562 14.398438 8.398438 14.398438 C 7.199219 14.398438 6.398438 15.199219 6.398438 16.398438 C 6.398438 17.601562 7.199219 18.398438 8.398438 18.398438 Z M 11.601562 8.800781 C 12.800781 8.800781 13.601562 8 13.601562 6.800781 C 13.601562 5.601562 12.800781 4.800781 11.601562 4.800781 C 10.398438 4.800781 9.601562 5.601562 9.601562 6.800781 C 9.601562 7.601562 10 8 10.398438 8.398438 C 10.800781 8.398438 11.601562 8.800781 11.601562 8.800781 Z M 16.398438 18.398438 C 17.601562 18.398438 18.398438 17.601562 18.398438 16.398438 C 18.398438 16 18.398438 15.601562 18 15.199219 C 17.199219 15.199219 16.800781 14.800781 16.398438 14.398438 C 15.601562 14.398438 15.199219 14.800781 15.199219 14.800781 C 15.601562 15.601562 15.199219 16.398438 14.800781 17.199219 C 14.800781 17.601562 15.199219 18.398438 16.398438 18.398438 Z M 17.199219 9.601562 C 18.304688 9.601562 19.199219 8.800781 19.199219 7.601562 C 19.199219 6.398438 18.398438 5.601562 17.199219 5.601562 C 16 5.601562 15.199219 6.398438 15.199219 7.601562 C 15.199219 8.398438 15.601562 8.800781 15.601562 8.800781 C 16 8.960938 16.398438 9.199219 16.703125 9.535156 C 16.800781 9.601562 17.039062 9.601562 17.199219 9.601562 Z M 18.800781 14.398438 C 20 14.398438 20.800781 13.601562 20.800781 12.398438 C 20.800781 11.199219 20 10.398438 18.800781 10.398438 C 18 10.398438 17.601562 10.800781 17.601562 10.800781 C 17.601562 10.800781 18 12.398438 17.199219 13.199219 C 17.199219 14 18 14.398438 18.800781 14.398438 Z M 11.601562 21.601562 C 12.800781 21.601562 13.601562 20.800781 13.601562 19.601562 C 13.601562 19.199219 13.601562 18.800781 13.199219 18.398438 C 12 18.800781 11.601562 18.398438 10.800781 18 C 10.398438 18 9.601562 18.398438 9.601562 19.601562 C 9.601562 20.800781 10.398438 21.601562 11.601562 21.601562 Z M 14.800781 13.601562 C 16 13.601562 16.800781 12.800781 16.800781 11.601562 C 16.800781 10.398438 16 9.601562 14.800781 9.601562 C 13.601562 9.601562 12.800781 10.398438 12.800781 11.601562 C 12.800781 12.398438 13.199219 12.800781 13.199219 12.800781 C 14 12.800781 14.398438 13.199219 14.800781 13.601562 Z M 5.199219 14.398438 C 6.398438 14.398438 7.199219 13.601562 7.199219 12.398438 C 7.199219 11.199219 6.398438 10.398438 5.199219 10.398438 C 4 10.398438 3.199219 11.199219 3.199219 12.398438 C 3.199219 13.601562 4 14.398438 5.199219 14.398438 Z M 10 13.199219 C 11.199219 13.199219 12 12.398438 12 11.199219 C 12 10 11.199219 9.199219 10 9.199219 C 8.800781 9.199219 8 10 8 11.199219 C 8 12.398438 8.800781 13.199219 10 13.199219 Z M 12.398438 17.601562 C 13.601562 17.601562 14.398438 16.800781 14.398438 15.601562 C 14.398438 14.398438 13.601562 13.601562 12.398438 13.601562 C 11.199219 13.601562 10.398438 14.398438 10.398438 15.601562 C 10.398438 16.800781 11.199219 17.601562 12.398438 17.601562 Z M 21.199219 0.398438 C 19.601562 0.398438 16.800781 2.398438 14.800781 4.398438 C 14 5.199219 14.800781 6 15.601562 5.199219 C 18 2.800781 19.199219 2 21.601562 1.199219 C 22.398438 0.800781 22.398438 0.398438 21.199219 0.398438 Z M 21.199219 0.398438 "/>
</svg>
