<?xml version="1.0" encoding="UTF-8"?>
<svg xmlns="http://www.w3.org/2000/svg" xmlns:xlink="http://www.w3.org/1999/xlink" width="24" height="24" viewBox="0 0 24 24">
<path fill-rule="nonzero" fill="rgb(0%, 0%, 0%)" fill-opacity="1" d="M 8.703125 10.367188 C 10.175781 5.601562 11.902344 3.199219 13.855469 3.214844 C 14.878906 3.152344 16.847656 3.503906 17.632812 4.207031 C 15.9375 4.273438 14.398438 5.921875 13.855469 7.617188 C 13.664062 8.238281 13.375 9.902344 13.023438 12.609375 C 12.433594 13.792969 11.855469 15.152344 11.296875 16.6875 C 10.496094 14.0625 9.632812 11.953125 8.703125 10.367188 Z M 12.433594 20.800781 L 12.367188 20.511719 C 12.207031 19.886719 12.046875 19.28125 11.886719 18.703125 C 14.222656 11.566406 16.800781 8 19.601562 8.015625 C 20.625 7.96875 21.648438 8.222656 22.433594 8.71875 C 20.734375 8.785156 19.246094 9.632812 18.703125 10.847656 C 18.351562 11.679688 17.726562 14.992188 16.847656 20.800781 Z M 1.601562 8.71875 C 2.273438 8.222656 3.152344 7.96875 4.015625 8.015625 C 6.65625 8.015625 9.054688 12.273438 11.199219 20.816406 L 6.398438 20.816406 C 5.648438 14.992188 5.105469 11.679688 4.785156 10.863281 C 4.320312 9.632812 3.054688 8.785156 1.601562 8.71875 Z M 1.601562 8.71875 "/>
</svg>
