<?xml version="1.0" encoding="UTF-8"?>
<svg xmlns="http://www.w3.org/2000/svg" xmlns:xlink="http://www.w3.org/1999/xlink" width="20" height="20" viewBox="0 0 20 20">
<path fill-rule="nonzero" fill="rgb(67.45098%, 22.352941%, 67.45098%)" fill-opacity="1" d="M 10.972656 0.550781 C 10.152344 1.367188 9.492188 2.542969 9.285156 3.570312 C 9.171875 4.132812 9.121094 5.464844 9.105469 6.117188 C 9.40625 6.289062 9.703125 6.429688 10 6.652344 C 10.316406 6.414062 10.621094 6.253906 10.9375 6.070312 C 10.960938 5.507812 10.992188 4.324219 11.070312 3.929688 C 11.222656 3.171875 11.613281 2.410156 12.222656 1.800781 Z M 0.714844 1.429688 C 1.480469 4.285156 4.792969 5.714844 7.855469 4.285156 C 6.566406 1.429688 4.285156 0.515625 0.714844 1.429688 Z M 2.855469 7.5 C 1.980469 8.421875 1.429688 10 1.429688 11.429688 C 1.429688 14.285156 4.285156 19.285156 7.144531 19.285156 C 7.949219 19.285156 8.570312 18.929688 10 18.214844 C 11.429688 18.929688 12.050781 19.285156 12.855469 19.285156 C 15.714844 19.285156 18.570312 14.285156 18.570312 11.429688 C 18.570312 10 18.105469 8.421875 17.144531 7.5 C 15.683594 6.105469 12.855469 6.070312 10 8.214844 C 7.144531 6.195312 4.285156 5.921875 2.855469 7.5 Z M 2.855469 7.5 "/>
</svg>
