<?xml version="1.0" encoding="UTF-8"?>
<svg xmlns="http://www.w3.org/2000/svg" xmlns:xlink="http://www.w3.org/1999/xlink" width="20" height="20" viewBox="0 0 20 20">
<path fill-rule="nonzero" fill="rgb(67.45098%, 22.352941%, 67.45098%)" fill-opacity="1" d="M 5.714844 0 L 5.714844 13.617188 C 5.113281 13.160156 4.378906 12.855469 3.570312 12.855469 C 1.609375 12.855469 0 14.464844 0 16.429688 C 0 18.390625 1.609375 20 3.570312 20 C 5.289062 20 6.71875 18.765625 7.054688 17.144531 L 7.230469 17.144531 C 7.566406 18.765625 8.996094 20 10.714844 20 C 12.679688 20 14.285156 18.390625 14.285156 16.429688 C 14.285156 14.464844 12.679688 12.855469 10.714844 12.855469 C 9.90625 12.855469 9.171875 13.160156 8.570312 13.617188 L 8.570312 0 Z M 11.429688 0 L 11.429688 2.855469 L 17.144531 2.855469 L 17.144531 4.285156 L 11.429688 4.285156 L 11.429688 5.714844 L 17.144531 5.714844 L 17.144531 7.144531 L 11.429688 7.144531 L 11.429688 8.570312 L 17.144531 8.570312 L 17.144531 10 L 11.429688 10 L 11.429688 11.429688 L 17.144531 11.429688 L 17.144531 20 L 20 20 L 20 2.855469 C 20 1.429688 18.570312 0 17.144531 0 Z M 3.570312 14.285156 C 4.761719 14.285156 5.714844 15.238281 5.714844 16.429688 C 5.714844 17.621094 4.761719 18.570312 3.570312 18.570312 C 2.378906 18.570312 1.429688 17.621094 1.429688 16.429688 C 1.429688 15.238281 2.378906 14.285156 3.570312 14.285156 Z M 10.714844 14.285156 C 11.90625 14.285156 12.855469 15.238281 12.855469 16.429688 C 12.855469 17.621094 11.90625 18.570312 10.714844 18.570312 C 9.523438 18.570312 8.570312 17.621094 8.570312 16.429688 C 8.570312 15.238281 9.523438 14.285156 10.714844 14.285156 Z M 10.714844 14.285156 "/>
</svg>
