<?xml version="1.0" encoding="UTF-8"?>
<svg xmlns="http://www.w3.org/2000/svg" xmlns:xlink="http://www.w3.org/1999/xlink" width="24" height="24" viewBox="0 0 24 24">
<path fill-rule="nonzero" fill="rgb(0%, 0%, 0%)" fill-opacity="1" d="M 23.199219 10.398438 C 23.199219 14.398438 22.398438 17.601562 20 17.601562 C 20 17.601562 4 17.601562 4 17.601562 C 1.601562 17.601562 0.800781 14.398438 0.800781 10.398438 C 10.398438 15.199219 13.601562 15.199219 23.199219 10.398438 Z M 12 8.800781 C 12.609375 8.800781 13.199219 9.40625 13.199219 10 C 13.199219 10.609375 12.609375 11.199219 12 11.199219 C 11.40625 11.199219 10.800781 10.609375 10.800781 10 C 10.800781 9.40625 11.40625 8.800781 12 8.800781 Z M 20.800781 7.199219 L 3.199219 7.199219 C 1.601562 7.199219 0.800781 8 0.800781 9.601562 C 10.398438 14.398438 13.601562 14.398438 23.199219 9.601562 C 23.199219 8 22.398438 7.199219 20.800781 7.199219 Z M 20.800781 7.199219 "/>
</svg>
