<?xml version="1.0" encoding="UTF-8"?>
<svg xmlns="http://www.w3.org/2000/svg" xmlns:xlink="http://www.w3.org/1999/xlink" width="24" height="24" viewBox="0 0 24 24">
<path fill-rule="nonzero" fill="rgb(0%, 0%, 0%)" fill-opacity="1" d="M 8 24 C 6.398438 24 5.601562 23.199219 4.800781 19.199219 C 3.839844 14.398438 2.398438 4 4 4 C 4.800781 4 5.199219 6.398438 5.601562 8 C 6.078125 9.921875 6.398438 11.199219 6.398438 11.199219 C 6.398438 3.199219 6.398438 1.601562 7.199219 1.601562 C 8.800781 1.601562 8.800781 8 9.601562 10.398438 C 10.398438 6.398438 9.601562 0 11.199219 0 C 12.800781 0 12.800781 5.601562 12.800781 7.199219 C 12.800781 8.960938 12.800781 10.398438 12.800781 10.398438 C 13.070312 9.28125 13.441406 7.679688 13.601562 6.398438 C 13.953125 3.839844 14.078125 1.601562 15.199219 1.601562 C 16.800781 1.601562 16 6.398438 16 12 C 16 13.28125 16.800781 16 16.800781 16 C 16.800781 16 21.28125 10.398438 22.398438 12.800781 C 23.199219 14.398438 20.800781 16.480469 19.199219 18.398438 C 18.238281 19.519531 17.601562 20.800781 17.601562 20.800781 C 17.601562 20.800781 16 24 13.601562 24 C 11.199219 24 9.601562 24 8 24 Z M 8 24 "/>
</svg>
