<?xml version="1.0" encoding="UTF-8"?>
<svg xmlns="http://www.w3.org/2000/svg" xmlns:xlink="http://www.w3.org/1999/xlink" width="24" height="24" viewBox="0 0 24 24">
<path fill-rule="nonzero" fill="rgb(0%, 0%, 0%)" fill-opacity="1" d="M 9.199219 20 L 8.800781 20.800781 L 15.199219 20.800781 L 14.800781 20 L 17.199219 20 L 19.199219 24 L 16.800781 24 L 16 22.398438 L 8 22.398438 L 7.199219 24 L 4.800781 24 L 6.800781 20 Z M 20.800781 3.199219 L 20.800781 16 C 20.800781 17.761719 19.359375 19.199219 17.601562 19.199219 L 6.398438 19.199219 C 4.640625 19.199219 3.199219 17.761719 3.199219 16 L 3.199219 3.199219 C 3.199219 1.441406 4.640625 0 6.398438 0 L 17.601562 0 C 19.359375 0 20.800781 1.441406 20.800781 3.199219 Z M 14.398438 15.199219 C 14.398438 16.078125 15.121094 16.800781 16 16.800781 C 16.878906 16.800781 17.601562 16.078125 17.601562 15.199219 C 17.601562 14.320312 16.878906 13.601562 16 13.601562 C 15.121094 13.601562 14.398438 14.320312 14.398438 15.199219 Z M 9.601562 15.199219 C 9.601562 14.320312 8.878906 13.601562 8 13.601562 C 7.121094 13.601562 6.398438 14.320312 6.398438 15.199219 C 6.398438 16.078125 7.121094 16.800781 8 16.800781 C 8.878906 16.800781 9.601562 16.078125 9.601562 15.199219 Z M 4.800781 5.601562 L 4.816406 10.398438 C 4.816406 10.847656 5.183594 11.199219 5.617188 11.199219 L 10.414062 11.199219 C 10.847656 11.199219 11.214844 10.847656 11.214844 10.398438 L 11.183594 5.601562 C 11.183594 5.152344 10.832031 4.800781 10.382812 4.800781 L 5.601562 4.800781 C 5.152344 4.800781 4.800781 5.152344 4.800781 5.601562 Z M 12.800781 5.601562 L 12.816406 10.398438 C 12.816406 10.847656 13.183594 11.199219 13.617188 11.199219 L 18.414062 11.199219 C 18.847656 11.199219 19.214844 10.847656 19.214844 10.398438 L 19.183594 5.601562 C 19.183594 5.152344 18.832031 4.800781 18.382812 4.800781 L 13.601562 4.800781 C 13.152344 4.800781 12.800781 5.152344 12.800781 5.601562 Z M 6.398438 2.398438 C 6.398438 2.847656 6.753906 3.199219 7.199219 3.199219 L 16.800781 3.199219 C 17.246094 3.199219 17.601562 2.847656 17.601562 2.398438 C 17.601562 1.953125 17.246094 1.601562 16.800781 1.601562 L 7.199219 1.601562 C 6.753906 1.601562 6.398438 1.953125 6.398438 2.398438 Z M 6.398438 2.398438 "/>
</svg>
