<?xml version="1.0" encoding="UTF-8"?>
<svg xmlns="http://www.w3.org/2000/svg" xmlns:xlink="http://www.w3.org/1999/xlink" width="24" height="24" viewBox="0 0 24 24">
<path fill-rule="nonzero" fill="rgb(0%, 0%, 0%)" fill-opacity="1" d="M 16 18.511719 L 12 15.089844 L 8 18.511719 L 8 20.800781 L 6.398438 20.800781 L 6.398438 18.511719 L 1.632812 14.433594 L 1.199219 14.433594 C 0.542969 14.433594 0 13.886719 0 13.230469 L 0 4.273438 C 0 3.664062 0.464844 3.152344 1.070312 3.089844 L 3.601562 2.800781 C 6 2.527344 8.414062 2.398438 10.816406 2.398438 L 13.183594 2.398438 C 15.585938 2.398438 18 2.527344 20.398438 2.800781 L 22.929688 3.089844 C 23.535156 3.152344 24 3.664062 24 4.273438 L 24 13.230469 C 24 13.886719 23.457031 14.433594 22.800781 14.433594 L 22.367188 14.433594 L 17.601562 18.511719 L 17.601562 20.800781 L 16 20.800781 Z M 17.601562 16.496094 L 20 14.398438 L 13.601562 14.398438 L 16 16.496094 L 16 14.398438 L 17.601562 14.398438 Z M 8 16.496094 L 10.398438 14.398438 L 4 14.398438 L 6.398438 16.496094 L 6.398438 14.398438 L 8 14.398438 Z M 8 16.496094 "/>
</svg>
