<?xml version="1.0" encoding="UTF-8"?>
<svg xmlns="http://www.w3.org/2000/svg" xmlns:xlink="http://www.w3.org/1999/xlink" width="24" height="24" viewBox="0 0 24 24">
<path fill-rule="nonzero" fill="rgb(0%, 0%, 0%)" fill-opacity="1" d="M 3.40625 5.007812 L 3.40625 22.609375 L 1.40625 22.609375 L 1.40625 2.398438 C 1.40625 1.839844 1.839844 1.40625 2.398438 1.40625 C 2.960938 1.40625 3.40625 1.839844 3.40625 2.398438 L 3.40625 3.007812 L 20.609375 3.007812 L 20.609375 2.398438 C 20.609375 1.839844 21.039062 1.40625 21.601562 1.40625 C 22.160156 1.40625 22.609375 1.839844 22.609375 2.398438 L 22.609375 22.609375 L 20.609375 22.609375 L 20.609375 5.007812 L 17.601562 5.007812 L 17.601562 6.398438 L 17.039062 6.398438 L 13.839844 9.601562 L 10.960938 9.601562 L 14.160156 6.398438 L 16 6.398438 L 16 5.007812 L 8 5.007812 L 8 6.398438 L 9.039062 6.398438 L 5.839844 9.601562 L 5.601562 9.601562 C 5.152344 9.601562 4.800781 9.246094 4.800781 8.800781 L 4.800781 7.199219 C 4.800781 6.753906 5.152344 6.398438 5.601562 6.398438 L 6.398438 6.398438 L 6.398438 5.007812 Z M 13.039062 6.398438 L 9.839844 9.601562 L 6.960938 9.601562 L 10.160156 6.398438 Z M 18.160156 6.398438 L 18.398438 6.398438 C 18.847656 6.398438 19.199219 6.753906 19.199219 7.199219 L 19.199219 8.800781 C 19.199219 9.246094 18.847656 9.601562 18.398438 9.601562 L 14.960938 9.601562 Z M 18.160156 6.398438 "/>
</svg>
