<?xml version="1.0" encoding="UTF-8"?>
<svg xmlns="http://www.w3.org/2000/svg" xmlns:xlink="http://www.w3.org/1999/xlink" width="24" height="24" viewBox="0 0 24 24">
<path fill-rule="nonzero" fill="rgb(0%, 0%, 0%)" fill-opacity="1" d="M 10.273438 3.328125 C 10.273438 3.328125 13.007812 8.222656 17.121094 4.207031 C 17.695312 5.070312 18.832031 6.800781 18.832031 6.800781 C 18.832031 6.800781 12.945312 10.878906 10.273438 3.328125 Z M 1.710938 6.800781 C 2.207031 7.855469 2.847656 9.152344 3.425781 10.273438 C 4.289062 8.527344 6.847656 8.527344 6.847656 8.527344 C 8.558594 8.527344 9.824219 9.214844 9.824219 10.320312 C 9.824219 11.40625 8.558594 12 6.847656 12 C 6.847656 12 6.847656 13.726562 6.847656 14.609375 C 9.089844 14.175781 10.273438 15.96875 9.726562 17.214844 C 8.6875 19.566406 2.574219 19.839844 0 15.472656 C 0 22.382812 5.886719 22.398438 6.847656 22.398438 C 10.273438 22.398438 11.984375 18.929688 11.984375 15.472656 C 12.878906 16.414062 14.304688 16.414062 15.40625 15.472656 C 16.960938 14.144531 17.566406 11.984375 19.695312 12 C 22.289062 12.015625 22.257812 17.199219 20.542969 18.929688 C 18.832031 20.671875 14.734375 20.046875 13.695312 17.199219 C 13.695312 18.929688 13.695312 22.398438 18.832031 22.398438 C 23.96875 22.398438 25.007812 16.527344 23.121094 12 C 21.953125 9.199219 19.742188 8.449219 17.375 9.183594 C 15.550781 9.761719 15.632812 10.59375 14.558594 12 C 13.984375 12.6875 13.695312 13.726562 11.984375 13.726562 C 11.390625 13.726562 10.671875 13.265625 10.273438 12.863281 C 12.398438 11.328125 12.078125 8.382812 10.273438 6.800781 C 7.902344 4.71875 3.695312 5.152344 1.710938 6.800781 Z M 11.984375 3.328125 L 13.695312 1.601562 L 15.40625 3.328125 L 13.695312 5.070312 Z M 11.984375 3.328125 "/>
</svg>
