<?xml version="1.0" encoding="UTF-8"?>
<svg xmlns="http://www.w3.org/2000/svg" xmlns:xlink="http://www.w3.org/1999/xlink" width="24" height="24" viewBox="0 0 24 24">
<path fill-rule="nonzero" fill="rgb(0%, 0%, 0%)" fill-opacity="1" d="M 19.199219 9.601562 L 20.625 11.023438 C 20.734375 11.136719 20.832031 11.28125 20.910156 11.441406 L 22.398438 14.398438 L 22.398438 14.703125 C 22.398438 14.832031 22.367188 14.960938 22.320312 15.054688 C 22.113281 15.457031 21.632812 15.617188 21.246094 15.425781 L 19.199219 14.398438 C 19.136719 14.449219 17.710938 14.113281 17.601562 13.601562 C 17.601562 16.175781 17.601562 17.519531 17.601562 17.601562 L 18.398438 19.199219 L 18.398438 22.398438 L 16 22.398438 L 16 19.199219 C 15.472656 18.128906 14.671875 17.601562 13.601562 17.601562 C 12 17.601562 11.183594 19.023438 11.199219 19.199219 L 11.199219 22.398438 L 8.800781 22.398438 L 8.800781 19.199219 L 9.601562 17.617188 L 9.601562 14.433594 L 6.398438 19.199219 C 6.398438 19.328125 6.398438 17.726562 6.398438 14.433594 C 6.398438 13.535156 7.121094 12.816406 8 12.816406 L 8.367188 12.816406 C 8.894531 12.800781 9.375 13.121094 9.601562 13.601562 C 9.886719 13.167969 10.6875 12.816406 11.199219 12.800781 L 14.398438 12.800781 L 19.199219 8 Z M 4.800781 11.199219 L 4.800781 22.398438 L 1.601562 22.398438 L 1.601562 12.449219 L 0 13.054688 L 0 9.601562 L 22.398438 1.601562 L 22.398438 5.023438 Z M 4.800781 11.199219 "/>
</svg>
