<?xml version="1.0" encoding="UTF-8"?>
<svg xmlns="http://www.w3.org/2000/svg" xmlns:xlink="http://www.w3.org/1999/xlink" width="20" height="20" viewBox="0 0 20 20">
<defs>
<clipPath id="clip-0">
<path clip-rule="nonzero" d="M 1.6875 1.933594 L 18.164062 1.933594 L 18.164062 18.410156 L 1.6875 18.410156 Z M 1.6875 1.933594 "/>
</clipPath>
</defs>
<path fill="none" stroke-width="2" stroke-linecap="round" stroke-linejoin="miter" stroke="rgb(97.647059%, 97.647059%, 97.647059%)" stroke-opacity="1" stroke-miterlimit="4" d="M 12.81875 7.016406 C 12.81875 10.278516 10.174609 12.922656 6.9125 12.922656 C 3.650391 12.922656 1.00625 10.278516 1.00625 7.016406 C 1.00625 3.757031 3.650391 1.112891 6.9125 1.112891 C 10.174609 1.112891 12.81875 3.757031 12.81875 7.016406 Z M 12.81875 7.016406 " transform="matrix(1.428571, 0, 0, 1.428571, 0, 0)"/>
<path fill-rule="nonzero" fill="rgb(97.647059%, 97.647059%, 97.647059%)" fill-opacity="1" d="M 18.3125 10.023438 C 18.3125 14.683594 14.535156 18.460938 9.875 18.460938 C 5.214844 18.460938 1.4375 14.683594 1.4375 10.023438 C 1.4375 5.367188 5.214844 1.589844 9.875 1.589844 C 14.535156 1.589844 18.3125 5.367188 18.3125 10.023438 Z M 18.3125 10.023438 "/>
<g clip-path="url(#clip-0)">
<path fill="none" stroke-width="1" stroke-linecap="round" stroke-linejoin="miter" stroke="rgb(100%, 100%, 100%)" stroke-opacity="1" stroke-miterlimit="4" d="M 7.000189 -0.00160591 C 5.144792 -0.00160591 3.362416 0.738561 2.051358 2.04962 C 0.73698 3.363998 0.000131853 5.143055 0.000131853 6.998452 C 0.000131853 8.857168 0.73698 10.636224 2.051358 11.950602 C 3.362416 13.261661 5.144792 13.998509 7.000189 13.998509 C 8.855586 13.998509 10.637962 13.261661 11.949021 11.950602 C 13.263399 10.636224 14.000247 8.857168 14.000247 6.998452 C 14.000247 5.143055 13.263399 3.363998 11.949021 2.04962 C 10.637962 0.738561 8.855586 -0.00160591 7.000189 -0.00160591 Z M 6.001129 2.998893 L 7.999249 2.998893 L 7.999249 5.999392 L 10.999748 5.999392 L 10.999748 8.000831 L 7.999249 8.000831 L 7.999249 11.001329 L 6.001129 11.001329 L 6.001129 8.000831 L 3.000631 8.000831 L 3.000631 5.999392 L 6.001129 5.999392 Z M 6.001129 2.998893 " transform="matrix(1.176888, 0, 0, 1.176888, 1.687345, 1.935484)"/>
<path fill-rule="nonzero" fill="rgb(74.901961%, 0%, 0%)" fill-opacity="1" d="M 9.925781 1.933594 C 7.742188 1.933594 5.644531 2.804688 4.101562 4.347656 C 2.554688 5.894531 1.6875 7.988281 1.6875 10.171875 C 1.6875 12.359375 2.554688 14.453125 4.101562 16 C 5.644531 17.542969 7.742188 18.410156 9.925781 18.410156 C 12.109375 18.410156 14.207031 17.542969 15.75 16 C 17.296875 14.453125 18.164062 12.359375 18.164062 10.171875 C 18.164062 7.988281 17.296875 5.894531 15.75 4.347656 C 14.207031 2.804688 12.109375 1.933594 9.925781 1.933594 Z M 8.75 5.464844 L 11.101562 5.464844 L 11.101562 8.996094 L 14.632812 8.996094 L 14.632812 11.351562 L 11.101562 11.351562 L 11.101562 14.882812 L 8.75 14.882812 L 8.75 11.351562 L 5.21875 11.351562 L 5.21875 8.996094 L 8.75 8.996094 Z M 8.75 5.464844 "/>
</g>
</svg>
