<?xml version="1.0" encoding="UTF-8"?>
<svg xmlns="http://www.w3.org/2000/svg" xmlns:xlink="http://www.w3.org/1999/xlink" width="20" height="20" viewBox="0 0 20 20">
<path fill-rule="nonzero" fill="rgb(0%, 57.254902%, 85.490196%)" fill-opacity="1" d="M 5 1.429688 C 3.816406 1.429688 2.855469 2.386719 2.855469 3.570312 C 2.855469 4.753906 3.816406 5.714844 5 5.714844 C 6.183594 5.714844 7.144531 4.753906 7.144531 3.570312 C 7.144531 2.386719 6.183594 1.429688 5 1.429688 Z M 8.570312 2.855469 L 8.570312 5.714844 L 17.144531 5.714844 C 17.144531 4.285156 15.664062 2.855469 14.285156 2.855469 Z M 5 10 C 3.816406 10 2.855469 10.960938 2.855469 12.144531 C 2.855469 13.328125 3.816406 14.285156 5 14.285156 C 6.183594 14.285156 7.144531 13.328125 7.144531 12.144531 C 7.144531 10.960938 6.183594 10 5 10 Z M 8.570312 11.429688 L 8.570312 14.285156 L 17.144531 14.304688 C 17.144531 12.855469 15.664062 11.429688 14.285156 11.429688 Z M 8.570312 11.429688 "/>
<path fill-rule="nonzero" fill="rgb(0%, 57.254902%, 85.490196%)" fill-opacity="1" d="M 1.429688 1.429688 L 0 1.429688 L 0 20 L 1.429688 20 Z M 1.429688 1.429688 "/>
<path fill-rule="nonzero" fill="rgb(0%, 57.254902%, 85.490196%)" fill-opacity="1" d="M 1.429688 0.714844 C 1.429688 0.320312 1.109375 0 0.714844 0 C 0.320312 0 0 0.320312 0 0.714844 L 0 17.855469 C 0 18.25 0.320312 18.570312 0.714844 18.570312 C 1.109375 18.570312 1.429688 18.25 1.429688 17.855469 Z M 1.429688 0.714844 "/>
<path fill-rule="nonzero" fill="rgb(0%, 57.254902%, 85.490196%)" fill-opacity="1" d="M 20 5.714844 L 18.570312 5.714844 L 18.570312 20 L 20 20 Z M 20 5.714844 "/>
<path fill-rule="nonzero" fill="rgb(0%, 57.254902%, 85.490196%)" fill-opacity="1" d="M 20 3.570312 C 20 3.175781 19.679688 2.855469 19.285156 2.855469 C 18.890625 2.855469 18.570312 3.175781 18.570312 3.570312 L 18.570312 19.285156 C 18.570312 19.679688 18.890625 20 19.285156 20 C 19.679688 20 20 19.679688 20 19.285156 Z M 20 3.570312 "/>
<path fill-rule="nonzero" fill="rgb(0%, 57.254902%, 85.490196%)" fill-opacity="1" d="M 18.570312 8.570312 L 18.570312 7.144531 L 0 7.144531 L 0 8.570312 Z M 18.570312 8.570312 "/>
<path fill-rule="nonzero" fill="rgb(0%, 57.254902%, 85.490196%)" fill-opacity="1" d="M 18.570312 17.144531 L 18.570312 15.714844 L 0 15.714844 L 0 17.144531 Z M 18.570312 17.144531 "/>
</svg>
