<?xml version="1.0" encoding="UTF-8"?>
<svg xmlns="http://www.w3.org/2000/svg" xmlns:xlink="http://www.w3.org/1999/xlink" width="24" height="24" viewBox="0 0 24 24">
<path fill-rule="nonzero" fill="rgb(0%, 0%, 0%)" fill-opacity="1" d="M 4.800781 3.199219 L 6.398438 0 L 17.601562 0 L 19.199219 3.199219 L 20 3.199219 C 20.449219 3.199219 20.800781 3.550781 20.800781 4 L 20.800781 5.601562 C 20.800781 6.046875 20.449219 6.398438 20 6.398438 L 19.199219 6.398438 L 17.601562 24 L 6.398438 24 L 4.800781 6.398438 L 4 6.398438 C 3.550781 6.398438 3.199219 6.046875 3.199219 5.601562 L 3.199219 4 C 3.199219 3.550781 3.550781 3.199219 4 3.199219 Z M 17.3125 9.601562 L 17.601562 6.398438 L 6.398438 6.398438 L 6.703125 9.601562 Z M 16.433594 19.199219 L 7.566406 19.199219 L 7.855469 22.398438 L 16.144531 22.398438 Z M 16.433594 19.199219 "/>
</svg>
