<?xml version="1.0" encoding="UTF-8"?>
<svg xmlns="http://www.w3.org/2000/svg" xmlns:xlink="http://www.w3.org/1999/xlink" width="24" height="24" viewBox="0 0 24 24">
<path fill-rule="nonzero" fill="rgb(0%, 0%, 0%)" fill-opacity="1" d="M 20.941406 4.703125 C 22.105469 4.703125 23.039062 3.757812 23.039062 2.59375 C 23.039062 1.425781 22.105469 0.480469 20.941406 0.480469 C 19.789062 0.480469 18.855469 1.425781 18.855469 2.59375 C 18.855469 3.757812 19.789062 4.703125 20.941406 4.703125 Z M 14.878906 23.039062 L 20.640625 23.039062 C 20.640625 23.039062 21.121094 22.992188 21.121094 22.558594 L 21.121094 22.078125 L 21.601562 22.078125 C 21.601562 22.078125 21.796875 23.378906 20.707031 23.519531 L 14.878906 23.519531 Z M 1.441406 18.71875 L 5.28125 22.558594 C 5.28125 22.558594 5.597656 22.679688 5.898438 22.378906 L 6.203125 22.070312 L 6.71875 22.558594 C 6.71875 22.558594 5.859375 23.816406 4.992188 23.140625 L 0.960938 19.070312 Z M 16.277344 17.160156 L 16.28125 20.984375 C 16.28125 21.707031 16.789062 22.285156 17.5 22.285156 C 18.152344 22.285156 18.71875 21.527344 18.71875 20.984375 L 18.71875 15.664062 C 18.71875 15.292969 18.636719 14.957031 18.390625 14.71875 L 15.328125 11.601562 L 19.449219 7.460938 C 20.222656 6.488281 19.824219 5.324219 19.824219 5.324219 C 19.402344 4.03125 17.953125 3.988281 17.953125 3.988281 L 7.378906 3.984375 C 6.816406 3.984375 6.355469 4.445312 6.355469 5.015625 C 6.355469 5.59375 6.816406 6.046875 7.378906 6.046875 L 14.679688 6.058594 L 11.605469 9.148438 C 11.164062 9.605469 10.945312 10.113281 10.945312 10.78125 C 10.945312 11.425781 11.199219 11.996094 11.621094 12.417969 Z M 10.96875 13 C 10.867188 12.902344 10.78125 12.800781 10.699219 12.691406 L 4.597656 18.863281 C 4.136719 19.238281 3.988281 19.894531 4.261719 20.449219 C 4.578125 21.078125 5.347656 21.328125 5.972656 21.003906 C 6.058594 20.960938 6.132812 20.910156 6.207031 20.847656 L 12.46875 14.515625 L 10.96875 13.003906 Z M 10.96875 13 "/>
</svg>
