<?xml version="1.0" encoding="UTF-8"?>
<svg xmlns="http://www.w3.org/2000/svg" xmlns:xlink="http://www.w3.org/1999/xlink" width="24" height="24" viewBox="0 0 24 24">
<path fill-rule="nonzero" fill="rgb(0%, 0%, 0%)" fill-opacity="1" d="M 23.519531 22.753906 C 18.238281 22.828125 12.527344 21.796875 8.164062 18.3125 L 8.199219 18.210938 C 8.199219 18.132812 8.304688 18.066406 8.386719 18.066406 L 12.695312 18.070312 C 12.90625 18.070312 13.085938 17.902344 13.085938 17.691406 C 13.085938 17.539062 13.019531 17.433594 12.855469 17.347656 L 8.972656 15.503906 C 8.894531 15.460938 8.851562 15.382812 8.851562 15.289062 C 8.851562 15.214844 8.730469 15.152344 8.773438 15.109375 C 8.773438 15.109375 13.433594 10.949219 23.515625 11.042969 L 23.515625 22.753906 Z M 14.707031 16.160156 C 15.214844 16.160156 15.628906 15.75 15.628906 15.246094 C 15.628906 14.742188 15.214844 14.332031 14.707031 14.332031 C 14.203125 14.332031 13.789062 14.742188 13.789062 15.246094 C 13.789062 15.75 14.203125 16.160156 14.707031 16.160156 Z M 0.480469 0.964844 L 4.800781 0.964844 L 4.800781 4.324219 L 0.480469 4.324219 Z M 9.121094 0.964844 L 23.519531 0.964844 L 23.519531 4.324219 L 9.121094 4.324219 Z M 6.71875 6.003906 C 6.238281 6.121094 6.097656 6.464844 6.097656 6.863281 C 6.097656 7.261719 6.238281 7.609375 6.71875 7.738281 L 6.71875 13.378906 C 6.71875 14.105469 6.027344 14.6875 5.292969 14.6875 C 4.570312 14.6875 3.925781 14.101562 3.925781 13.378906 C 3.925781 13.199219 3.929688 13.027344 4 12.875 L 4.042969 12.917969 L 4.496094 13.339844 L 4.203125 10.765625 L 3.445312 12.5 C 3.214844 13.03125 3.273438 13.378906 3.273438 13.378906 C 3.273438 14.429688 4.175781 15.28125 5.230469 15.28125 C 6.292969 15.28125 7.195312 14.429688 7.195312 13.378906 L 7.195312 7.726562 C 7.675781 7.597656 7.808594 7.261719 7.808594 6.867188 C 7.808594 6.46875 7.675781 6.125 7.195312 5.996094 L 7.195312 0.964844 L 6.714844 0.964844 L 6.714844 6.003906 Z M 6.71875 6.003906 "/>
</svg>
