<?xml version="1.0" encoding="UTF-8"?>
<svg xmlns="http://www.w3.org/2000/svg" xmlns:xlink="http://www.w3.org/1999/xlink" width="24" height="24" viewBox="0 0 24 24">
<path fill-rule="nonzero" fill="rgb(0%, 0%, 0%)" fill-opacity="1" d="M 12.800781 11.855469 L 12.800781 9.601562 L 12.222656 9.601562 C 11.777344 9.601562 11.425781 9.246094 11.425781 8.800781 C 11.425781 8.734375 11.441406 8.671875 11.457031 8.609375 L 12.832031 3.105469 C 12.929688 2.671875 13.375 2.414062 13.792969 2.527344 C 14.078125 2.59375 14.304688 2.816406 14.382812 3.105469 L 15.742188 8.609375 C 15.855469 9.039062 15.601562 9.472656 15.167969 9.585938 C 15.105469 9.601562 15.039062 9.601562 14.976562 9.601562 L 14.398438 9.601562 L 14.398438 11.953125 C 14.433594 11.96875 14.480469 11.984375 14.511719 12 L 15.871094 12.640625 C 16.113281 12.753906 16.351562 12.847656 16.574219 12.929688 L 17.601562 13.3125 L 17.601562 11.199219 L 17.023438 11.199219 C 16.574219 11.199219 16.222656 10.847656 16.222656 10.398438 C 16.222656 10.335938 16.238281 10.273438 16.257812 10.207031 L 17.632812 4.703125 C 17.726562 4.273438 18.175781 4.015625 18.59375 4.128906 C 18.878906 4.191406 19.105469 4.414062 19.183594 4.703125 L 20.542969 10.207031 C 20.65625 10.640625 20.398438 11.070312 19.96875 11.183594 C 19.902344 11.199219 19.839844 11.199219 19.777344 11.199219 L 19.199219 11.199219 L 19.199219 13.902344 L 19.984375 14.207031 C 20.335938 14.335938 20.65625 14.527344 20.929688 14.753906 L 21.457031 15.199219 C 22.046875 15.710938 22.398438 16.449219 22.398438 17.230469 L 22.398438 17.648438 C 21.742188 17.632812 21.105469 17.855469 20.59375 18.273438 L 19.839844 18.910156 C 19.375 19.296875 18.703125 19.296875 18.238281 18.910156 C 18 18.71875 17.777344 18.496094 17.535156 18.304688 C 16.398438 17.359375 14.734375 17.359375 13.601562 18.304688 C 13.34375 18.496094 13.105469 18.734375 12.847656 18.945312 C 12.382812 19.328125 11.710938 19.328125 11.246094 18.945312 C 10.992188 18.734375 10.753906 18.496094 10.496094 18.304688 C 9.359375 17.375 7.710938 17.375 6.574219 18.304688 C 6.320312 18.496094 6.113281 18.71875 5.855469 18.910156 C 5.710938 19.023438 5.535156 19.105469 5.359375 19.152344 C 4.878906 19.265625 4.398438 19.121094 4.0625 18.769531 C 3.664062 18.433594 3.246094 18.128906 2.800781 17.855469 C 2.671875 17.792969 2.542969 17.742188 2.414062 17.710938 C 2.976562 16.71875 3.808594 15.886719 4.800781 15.328125 L 4.800781 12 L 9.601562 12 L 9.601562 14.289062 C 10.113281 14.0625 10.785156 13.503906 11.632812 12.574219 C 11.953125 12.222656 12.351562 11.984375 12.800781 11.855469 Z M 22.398438 19.246094 L 22.398438 20.800781 C 21.984375 20.832031 21.585938 21.023438 21.3125 21.34375 C 20.878906 21.792969 20.320312 22.113281 19.710938 22.273438 C 18.734375 22.558594 17.664062 22.351562 16.878906 21.695312 L 16.257812 21.152344 C 16.046875 20.945312 15.777344 20.832031 15.488281 20.800781 L 15.265625 20.800781 C 14.976562 20.832031 14.703125 20.945312 14.496094 21.152344 C 14.273438 21.34375 14.0625 21.535156 13.824219 21.726562 C 12.65625 22.640625 10.976562 22.609375 9.855469 21.617188 L 9.230469 21.070312 C 9.070312 20.929688 8.863281 20.832031 8.65625 20.800781 L 8.207031 20.800781 C 8 20.832031 7.792969 20.929688 7.632812 21.070312 C 7.328125 21.3125 7.054688 21.566406 6.753906 21.808594 C 5.632812 22.625 4.078125 22.59375 2.992188 21.710938 L 2.496094 21.296875 C 2.273438 21.023438 1.953125 20.863281 1.601562 20.800781 L 1.601562 19.246094 C 2.015625 19.183594 2.433594 19.265625 2.800781 19.457031 C 3.246094 19.726562 3.664062 20.03125 4.0625 20.367188 C 4.320312 20.640625 4.671875 20.785156 5.039062 20.800781 C 5.105469 20.785156 5.183594 20.785156 5.265625 20.785156 C 5.296875 20.769531 5.328125 20.769531 5.359375 20.753906 C 5.535156 20.703125 5.710938 20.625 5.855469 20.511719 C 6.113281 20.320312 6.320312 20.097656 6.574219 19.902344 C 7.007812 19.550781 7.503906 19.328125 8.015625 19.246094 C 8.238281 19.167969 8.480469 19.152344 8.71875 19.214844 C 9.359375 19.246094 9.984375 19.472656 10.496094 19.902344 C 10.753906 20.097656 10.992188 20.335938 11.246094 20.542969 C 11.375 20.65625 11.535156 20.734375 11.679688 20.785156 C 11.984375 20.800781 12.289062 20.785156 12.574219 20.71875 C 12.671875 20.671875 12.769531 20.609375 12.847656 20.542969 C 13.105469 20.335938 13.34375 20.097656 13.601562 19.902344 C 14.015625 19.550781 14.496094 19.34375 14.992188 19.246094 C 15.167969 19.199219 15.328125 19.183594 15.503906 19.199219 C 16.222656 19.183594 16.945312 19.425781 17.535156 19.902344 C 17.777344 20.097656 18 20.320312 18.238281 20.511719 C 18.449219 20.6875 18.6875 20.785156 18.945312 20.800781 C 19.089844 20.800781 19.230469 20.785156 19.390625 20.753906 C 19.550781 20.703125 19.710938 20.625 19.839844 20.511719 L 20.59375 19.871094 C 21.023438 19.519531 21.550781 19.3125 22.097656 19.246094 C 22.207031 19.230469 22.304688 19.214844 22.398438 19.199219 Z M 11.761719 20.800781 L 12.335938 20.800781 C 12.144531 20.847656 11.953125 20.847656 11.761719 20.800781 Z M 7.199219 6.398438 L 11.199219 11.199219 L 3.199219 11.199219 Z M 7.199219 6.398438 "/>
</svg>
