<?xml version="1.0" encoding="UTF-8"?>
<svg xmlns="http://www.w3.org/2000/svg" xmlns:xlink="http://www.w3.org/1999/xlink" width="24" height="24" viewBox="0 0 24 24">
<path fill-rule="nonzero" fill="rgb(0%, 0%, 0%)" fill-opacity="1" d="M 12.71875 19.199219 C 13.761719 18.175781 14.398438 16.769531 14.398438 15.199219 L 14.398438 8.191406 C 13.921875 7.902344 13.601562 7.390625 13.601562 6.800781 L 13.601562 3.40625 L 2.496094 4.800781 C 2.0625 4.847656 1.664062 4.542969 1.601562 4.097656 C 1.550781 3.664062 1.855469 3.265625 2.304688 3.199219 L 13.617188 1.792969 C 13.710938 1.007812 14.382812 0.398438 15.199219 0.398438 C 15.871094 0.398438 16.449219 0.816406 16.6875 1.40625 L 21.503906 0.800781 C 21.9375 0.753906 22.335938 1.054688 22.398438 1.503906 C 22.449219 1.9375 22.144531 2.335938 21.695312 2.398438 L 16.800781 3.007812 L 16.800781 6.800781 C 16.800781 7.390625 16.480469 7.902344 16 8.191406 L 16 15.199219 C 16 19.183594 12.785156 22.398438 8.800781 22.398438 L 5.601562 22.398438 C 4.71875 22.398438 4 21.679688 4 20.800781 C 4 19.921875 4.71875 19.199219 5.601562 19.199219 Z M 12.71875 19.199219 "/>
</svg>
