<?xml version="1.0" encoding="UTF-8"?>
<svg xmlns="http://www.w3.org/2000/svg" xmlns:xlink="http://www.w3.org/1999/xlink" width="24" height="24" viewBox="0 0 24 24">
<path fill-rule="nonzero" fill="rgb(0%, 0%, 0%)" fill-opacity="1" d="M 24 8.800781 C 24 8.800781 18.398438 2.398438 18.398438 2.398438 C 18.398438 2.398438 5.601562 2.398438 5.601562 2.398438 C 5.601562 2.398438 0 8.800781 0 8.800781 C 0 8.800781 12 22.398438 12 22.398438 C 12 22.398438 24 8.800781 24 8.800781 Z M 17.199219 8.800781 L 18.398438 4 L 22.398438 8.800781 Z M 16.800781 10 L 21.199219 10 L 13.601562 19.199219 Z M 16 8.800781 L 12.800781 3.601562 L 17.199219 3.601562 Z M 8.800781 10 L 15.199219 10 L 12 20 Z M 9.199219 8.800781 L 12 4 L 14.800781 8.800781 Z M 8 8.800781 L 6.800781 3.601562 L 11.199219 3.601562 Z M 10.398438 19.199219 L 2.398438 10 L 7.199219 10 Z M 5.601562 4 L 6.800781 8.800781 L 1.601562 8.800781 Z M 5.601562 4 "/>
</svg>
