<?xml version="1.0" encoding="UTF-8"?>
<svg xmlns="http://www.w3.org/2000/svg" xmlns:xlink="http://www.w3.org/1999/xlink" width="20" height="20" viewBox="0 0 20 20">
<path fill-rule="nonzero" fill="rgb(0%, 0%, 0%)" fill-opacity="1" d="M 10 0 L 7.140625 5 L 1.429688 5 L 4.285156 10 L 1.429688 15 L 7.140625 15 L 10 20 L 12.859375 15 L 18.570312 15 L 15.714844 10 L 18.570312 5 L 12.859375 5 Z M 10 2.503906 L 11.429688 5 L 8.570312 5 Z M 3.574219 6.25 L 6.429688 6.25 L 5 8.746094 Z M 7.859375 6.25 L 12.140625 6.25 L 14.285156 10 L 12.140625 13.75 L 7.859375 13.75 L 5.714844 10 Z M 13.570312 6.25 L 16.425781 6.25 L 15 8.746094 Z M 5 11.253906 L 6.429688 13.75 L 3.574219 13.75 Z M 15 11.253906 L 16.425781 13.75 L 13.570312 13.75 Z M 8.570312 15 L 11.429688 15 L 10 17.496094 Z M 8.570312 15 "/>
</svg>
