<?xml version="1.0" encoding="UTF-8"?>
<svg xmlns="http://www.w3.org/2000/svg" xmlns:xlink="http://www.w3.org/1999/xlink" width="24" height="24" viewBox="0 0 24 24">
<path fill-rule="nonzero" fill="rgb(0%, 0%, 0%)" fill-opacity="1" d="M 16.910156 7.007812 L 11.34375 8.398438 C 11.023438 8.480469 10.6875 8.289062 10.609375 7.96875 C 10.527344 7.648438 10.734375 7.3125 11.054688 7.230469 L 13.550781 6.609375 L 8.113281 4.847656 L 6.015625 8.640625 L 12 10.0625 L 19.535156 10.0625 L 18.6875 6.769531 Z M 22.382812 12.832031 L 21.824219 18.398438 L 20.257812 18.238281 C 20.175781 19.121094 19.40625 19.742188 18.542969 19.664062 C 17.679688 19.566406 17.054688 18.785156 17.152344 17.902344 L 14.289062 15.183594 L 6.273438 16.734375 L 6.097656 18.320312 C 6.015625 19.199219 5.246094 19.839844 4.382812 19.742188 C 3.519531 19.648438 2.894531 18.863281 2.992188 17.984375 L 3.152344 16.398438 L 1.601562 16.222656 L 2.175781 10.65625 C 2.289062 9.550781 3.121094 8.671875 4.191406 8.527344 L 6.929688 3.566406 C 7.089844 3.328125 7.359375 3.183594 7.648438 3.199219 L 15.265625 5.632812 C 15.585938 5.664062 19.121094 4.640625 19.199219 4.945312 L 20.832031 10.335938 C 21.855469 10.703125 22.496094 11.726562 22.382812 12.832031 Z M 5.28125 14.847656 C 5.984375 14.910156 6.6875 14.351562 7.390625 13.136719 L 5.679688 12.929688 L 5.679688 11.023438 C 4.351562 11.457031 3.648438 12.03125 3.566406 12.734375 C 3.472656 13.792969 4.222656 14.734375 5.28125 14.847656 Z M 18.960938 15.265625 C 19.839844 15.359375 20.449219 15.070312 20.800781 14.398438 C 20.558594 14 20 13.761719 19.121094 13.679688 C 17.792969 13.535156 16.6875 13.777344 16.640625 14.222656 C 16.59375 14.65625 17.632812 15.121094 18.960938 15.265625 Z M 10.558594 19.214844 C 10.320312 18.929688 10.03125 18.640625 9.601562 18.398438 C 8 17.519531 12 17.601562 12.800781 17.601562 C 13.601562 17.601562 16 17.519531 16 18.398438 C 16 19.28125 14.382812 20.800781 12.609375 20.800781 C 12.449219 20.800781 12.304688 20.785156 12.175781 20.769531 C 11.871094 20.785156 11.535156 20.800781 11.199219 20.800781 C 9.441406 20.800781 8 20.449219 8 20 C 8 19.617188 9.089844 19.296875 10.558594 19.214844 Z M 10.558594 19.214844 "/>
</svg>
