<?xml version="1.0" encoding="UTF-8"?>
<svg xmlns="http://www.w3.org/2000/svg" xmlns:xlink="http://www.w3.org/1999/xlink" width="24" height="24" viewBox="0 0 24 24">
<path fill-rule="nonzero" fill="rgb(0%, 0%, 0%)" fill-opacity="1" d="M 0 1.601562 L 12.800781 1.601562 L 12.800781 22.398438 L 0 22.398438 Z M 0 1.601562 "/>
<path fill-rule="nonzero" fill="rgb(0%, 0%, 0%)" fill-opacity="1" d="M 14.398438 17.601562 L 24 17.601562 L 24 22.398438 L 14.398438 22.398438 Z M 14.398438 17.601562 "/>
<path fill-rule="nonzero" fill="rgb(0%, 0%, 0%)" fill-opacity="1" d="M 17.871094 9.664062 C 17.871094 9.078125 17.980469 8.582031 18.191406 8.175781 C 18.414062 7.78125 18.816406 7.359375 19.390625 6.910156 C 19.777344 6.625 20.078125 6.375 20.304688 6.160156 C 20.527344 5.945312 20.691406 5.738281 20.800781 5.535156 C 20.90625 5.324219 20.960938 5.070312 20.960938 4.785156 C 20.960938 4.347656 20.804688 4.015625 20.496094 3.792969 C 20.1875 3.558594 19.753906 3.441406 19.199219 3.441406 C 18.699219 3.441406 18.21875 3.515625 17.761719 3.664062 C 17.300781 3.8125 16.847656 4 16.398438 4.222656 L 15.632812 2.625 C 16.15625 2.347656 16.71875 2.117188 17.328125 1.9375 C 17.945312 1.753906 18.628906 1.664062 19.375 1.664062 C 20.515625 1.664062 21.398438 1.941406 22.015625 2.496094 C 22.65625 3.050781 22.976562 3.769531 22.976562 4.65625 C 22.976562 5.148438 22.894531 5.566406 22.734375 5.921875 C 22.585938 6.261719 22.363281 6.582031 22.0625 6.878906 C 21.765625 7.179688 21.402344 7.492188 20.976562 7.824219 C 20.625 8.101562 20.351562 8.335938 20.160156 8.527344 C 19.980469 8.71875 19.855469 8.910156 19.792969 9.105469 C 19.738281 9.296875 19.710938 9.523438 19.710938 9.792969 L 19.710938 10.222656 L 17.871094 10.222656 Z M 17.550781 12.929688 C 17.550781 12.449219 17.675781 12.113281 17.921875 11.921875 C 18.1875 11.71875 18.5 11.617188 18.863281 11.617188 C 19.214844 11.617188 19.519531 11.71875 19.777344 11.921875 C 20.042969 12.113281 20.175781 12.449219 20.175781 12.929688 C 20.175781 13.398438 20.042969 13.734375 19.777344 13.9375 C 19.53125 14.136719 19.226562 14.238281 18.863281 14.238281 C 18.5 14.238281 18.1875 14.136719 17.921875 13.9375 C 17.675781 13.734375 17.550781 13.398438 17.550781 12.929688 Z M 17.550781 12.929688 "/>
</svg>
