<?xml version="1.0" encoding="UTF-8"?>
<svg xmlns="http://www.w3.org/2000/svg" xmlns:xlink="http://www.w3.org/1999/xlink" width="24" height="24" viewBox="0 0 24 24">
<path fill-rule="nonzero" fill="rgb(0%, 0%, 0%)" fill-opacity="1" d="M 20 12 C 21.601562 12 24.800781 24 23.199219 24 C 23.199219 24 0.800781 24 0.800781 24 C -0.800781 24 2.398438 12 4 12 C 4 12 20 12 20 12 Z M 18 14 C 18 14 6 14 6 14 C 5.199219 14 2.800781 22.398438 4 22.398438 C 4 22.398438 20 22.398438 20 22.398438 C 21.199219 22.398438 18.800781 14 18 14 Z M 12 16 C 12.800781 16 13.601562 16.800781 13.601562 17.601562 C 13.601562 18.398438 12.800781 19.199219 12 19.199219 C 11.199219 19.199219 10.398438 18.398438 10.398438 17.601562 C 10.398438 16.800781 11.199219 16 12 16 Z M 17.199219 14.800781 L 6.800781 14.800781 C 6 14.800781 4 21.601562 5.199219 21.601562 C 5.199219 21.601562 18.800781 21.601562 18.800781 21.601562 C 20 21.601562 18 14.800781 17.199219 14.800781 Z M 8 8 C 8.398438 8 8.398438 9.199219 8 9.199219 C 8 9.199219 8 11.199219 8 11.199219 C 8 12 6.398438 12 6.398438 11.199219 C 6.398438 11.199219 6.398438 9.199219 6.398438 9.199219 L 4.800781 9.199219 C 4.398438 9.199219 4.398438 8 4.800781 8 C 4.800781 8 8 8 8 8 Z M 19.199219 8 C 19.601562 8 19.601562 9.199219 19.199219 9.199219 C 19.199219 9.199219 17.601562 9.199219 17.601562 9.199219 C 17.601562 9.199219 17.601562 11.199219 17.601562 11.199219 C 17.601562 12 16 12 16 11.199219 C 16 11.199219 16 9.199219 16 9.199219 C 15.601562 9.199219 15.601562 8 16 8 C 16 8 19.199219 8 19.199219 8 Z M 14.398438 1.601562 C 12 1.601562 11.199219 2.398438 11.199219 4.800781 C 11.199219 4.800781 11.199219 11.199219 11.199219 11.199219 C 11.199219 12 12.800781 12 12.800781 11.199219 C 12.800781 11.199219 12.800781 5.601562 12.800781 5.601562 C 12.800781 4 12.800781 3.199219 14.398438 3.199219 C 15.199219 3.199219 16 3.601562 16 4.398438 C 16 4.800781 17.601562 4.800781 17.601562 4.398438 C 17.601562 2.398438 16 1.601562 14.398438 1.601562 Z M 14.398438 1.601562 "/>
</svg>
