<?xml version="1.0" encoding="UTF-8"?>
<svg xmlns="http://www.w3.org/2000/svg" xmlns:xlink="http://www.w3.org/1999/xlink" width="24" height="24" viewBox="0 0 24 24">
<path fill-rule="nonzero" fill="rgb(0%, 0%, 0%)" fill-opacity="1" d="M 2.878906 5.28125 L 2.878906 21.476562 C 2.878906 22.179688 3.476562 23.039062 4.203125 23.039062 L 20.152344 23.039062 C 20.878906 23.039062 21.601562 22.179688 21.601562 21.476562 L 21.601562 5.28125 Z M 12.222656 18.132812 C 9.40625 18.132812 7.128906 15.929688 7.128906 13.210938 C 7.128906 10.488281 9.40625 8.285156 12.222656 8.285156 C 15.035156 8.285156 17.3125 10.488281 17.3125 13.210938 C 17.3125 15.929688 15.035156 18.132812 12.222656 18.132812 Z M 20.152344 0.480469 L 4.203125 0.480469 C 3.476562 0.480469 2.878906 0.972656 2.878906 1.683594 L 2.878906 4.324219 L 21.601562 4.324219 L 21.601562 1.691406 C 21.601562 0.984375 20.878906 0.488281 20.152344 0.488281 Z M 9.121094 3.359375 L 3.839844 3.359375 L 3.839844 1.441406 L 9.121094 1.441406 Z M 18.3125 3.226562 C 17.710938 3.226562 17.226562 2.753906 17.226562 2.175781 C 17.226562 1.59375 17.710938 1.125 18.3125 1.125 C 18.910156 1.125 19.398438 1.59375 19.398438 2.175781 C 19.398438 2.753906 18.910156 3.226562 18.3125 3.226562 Z M 18.3125 3.226562 "/>
</svg>
