<?xml version="1.0" encoding="UTF-8"?>
<svg xmlns="http://www.w3.org/2000/svg" xmlns:xlink="http://www.w3.org/1999/xlink" width="24" height="24" viewBox="0 0 24 24">
<path fill-rule="nonzero" fill="rgb(0%, 0%, 0%)" fill-opacity="1" d="M 12 4.800781 C 9.871094 8.398438 9.871094 13.199219 12 19.199219 C 11.632812 19.199219 10.03125 19.199219 7.199219 19.199219 C 7.199219 10.480469 8.800781 5.679688 12 4.800781 Z M 7.199219 4.800781 C 5.070312 8.398438 5.070312 13.199219 7.199219 19.199219 C 6.832031 19.199219 5.230469 19.199219 2.398438 19.199219 C 2.398438 10.480469 4 5.679688 7.199219 4.800781 Z M 16.800781 4.800781 C 14.671875 8.398438 14.671875 13.199219 16.800781 19.199219 C 16.433594 19.199219 14.832031 19.199219 12 19.199219 C 12 10.480469 13.601562 5.679688 16.800781 4.800781 Z M 21.601562 4.800781 C 19.472656 8.398438 19.472656 13.199219 21.601562 19.199219 C 21.230469 19.199219 19.632812 19.199219 16.800781 19.199219 C 16.800781 10.480469 18.398438 5.679688 21.601562 4.800781 Z M 21.601562 4.800781 "/>
</svg>
