<?xml version="1.0" encoding="UTF-8"?>
<svg xmlns="http://www.w3.org/2000/svg" xmlns:xlink="http://www.w3.org/1999/xlink" width="24" height="24" viewBox="0 0 24 24">
<path fill-rule="nonzero" fill="rgb(0%, 0%, 0%)" fill-opacity="1" d="M 14.398438 17.601562 L 14.398438 22.398438 L 11.199219 22.398438 L 11.199219 17.601562 L 1.601562 17.601562 L 1.601562 11.199219 C 1.601562 8.542969 3.742188 6.398438 6.398438 6.398438 L 11.199219 6.398438 L 11.199219 1.601562 L 16 1.601562 L 16 4.800781 L 12.800781 4.800781 L 12.800781 6.398438 L 17.601562 6.398438 C 20.257812 6.398438 22.398438 8.542969 22.398438 11.199219 L 22.398438 17.601562 Z M 6.398438 8 C 4.640625 8 3.199219 9.441406 3.199219 11.199219 L 3.199219 16 L 9.601562 16 L 9.601562 11.199219 C 9.601562 9.441406 8.160156 8 6.398438 8 Z M 5.601562 9.601562 L 7.199219 9.601562 C 7.648438 9.601562 8 9.953125 8 10.398438 C 8 10.847656 7.648438 11.199219 7.199219 11.199219 L 5.601562 11.199219 C 5.152344 11.199219 4.800781 10.847656 4.800781 10.398438 C 4.800781 9.953125 5.152344 9.601562 5.601562 9.601562 Z M 5.601562 9.601562 "/>
</svg>
