<?xml version="1.0" encoding="UTF-8"?>
<svg xmlns="http://www.w3.org/2000/svg" xmlns:xlink="http://www.w3.org/1999/xlink" width="24" height="24" viewBox="0 0 24 24">
<path fill-rule="nonzero" fill="rgb(0%, 0%, 0%)" fill-opacity="1" d="M 6.945312 9.839844 L 19.824219 2.398438 L 22.222656 6.558594 L 9.601562 13.839844 L 9.601562 22.398438 L 1.601562 22.398438 L 1.601562 13.601562 C 1.601562 11.390625 3.390625 9.601562 5.601562 9.601562 C 6.078125 9.601562 6.527344 9.679688 6.945312 9.839844 Z M 8.464844 10.816406 C 8.832031 11.183594 9.136719 11.648438 9.328125 12.160156 L 11.726562 10.769531 L 10.929688 9.390625 Z M 13.121094 9.96875 L 15.886719 8.367188 L 15.089844 6.992188 L 12.320312 8.59375 Z M 17.265625 7.566406 L 20.046875 5.96875 L 19.246094 4.59375 L 16.464844 6.191406 Z M 5.601562 15.199219 C 6.480469 15.199219 7.199219 14.480469 7.199219 13.601562 C 7.199219 12.71875 6.480469 12 5.601562 12 C 4.71875 12 4 12.71875 4 13.601562 C 4 14.480469 4.71875 15.199219 5.601562 15.199219 Z M 5.601562 15.199219 "/>
</svg>
