<?xml version="1.0" encoding="UTF-8"?>
<svg xmlns="http://www.w3.org/2000/svg" xmlns:xlink="http://www.w3.org/1999/xlink" width="24" height="24" viewBox="0 0 24 24">
<path fill-rule="nonzero" fill="rgb(0%, 0%, 0%)" fill-opacity="1" d="M 12.800781 1.601562 L 12.800781 3.199219 L 16 3.199219 L 18.257812 5.457031 C 18.863281 6.0625 19.199219 6.878906 19.199219 7.726562 L 19.199219 17.601562 C 19.199219 19.359375 17.761719 20.800781 16 20.800781 L 8 20.800781 C 6.238281 20.800781 4.800781 19.359375 4.800781 17.601562 L 4.800781 7.726562 C 4.800781 6.878906 5.136719 6.0625 5.742188 5.457031 L 8 3.199219 L 11.199219 3.199219 L 11.199219 1.601562 L 8 1.601562 C 7.550781 1.601562 7.199219 1.246094 7.199219 0.800781 C 7.199219 0.351562 7.550781 0 8 0 L 16 0 C 16.449219 0 16.800781 0.351562 16.800781 0.800781 C 16.800781 1.246094 16.449219 1.601562 16 1.601562 Z M 9.199219 21.601562 L 8 24 L 5.601562 24 L 6.800781 21.601562 Z M 17.199219 21.601562 L 18.398438 24 L 16 24 L 14.800781 21.601562 Z M 6.398438 8.800781 L 6.414062 12 C 6.414062 12.449219 6.769531 12.800781 7.214844 12.800781 L 10.398438 12.800781 C 10.847656 12.800781 11.199219 12.449219 11.199219 12 L 11.199219 8.800781 C 11.183594 8.351562 10.832031 8 10.398438 8 L 7.199219 8 C 6.753906 8 6.398438 8.351562 6.398438 8.800781 Z M 12.800781 8.800781 L 12.816406 12 C 12.816406 12.449219 13.167969 12.800781 13.617188 12.800781 L 16.800781 12.800781 C 17.246094 12.800781 17.601562 12.449219 17.601562 12 L 17.601562 8.800781 C 17.585938 8.351562 17.230469 8 16.800781 8 L 13.601562 8 C 13.152344 8 12.800781 8.351562 12.800781 8.800781 Z M 8 5.601562 L 8 5.617188 C 8.015625 6.046875 8.367188 6.398438 8.800781 6.398438 L 15.214844 6.398438 C 15.648438 6.398438 16 6.046875 16 5.617188 C 16 5.617188 16 5.601562 16 5.601562 L 16 5.585938 C 15.984375 5.152344 15.632812 4.800781 15.199219 4.800781 L 8.785156 4.800781 C 8.351562 4.800781 8 5.152344 8 5.585938 C 8 5.585938 8 5.601562 8 5.601562 Z M 8 18.398438 C 8.878906 18.398438 9.601562 17.679688 9.601562 16.800781 C 9.601562 15.921875 8.878906 15.199219 8 15.199219 C 7.121094 15.199219 6.398438 15.921875 6.398438 16.800781 C 6.398438 17.679688 7.121094 18.398438 8 18.398438 Z M 16 18.398438 C 16.878906 18.398438 17.601562 17.679688 17.601562 16.800781 C 17.601562 15.921875 16.878906 15.199219 16 15.199219 C 15.121094 15.199219 14.398438 15.921875 14.398438 16.800781 C 14.398438 17.679688 15.121094 18.398438 16 18.398438 Z M 16 18.398438 "/>
</svg>
