<?xml version="1.0" encoding="UTF-8"?>
<svg xmlns="http://www.w3.org/2000/svg" xmlns:xlink="http://www.w3.org/1999/xlink" width="20" height="20" viewBox="0 0 20 20">
<path fill-rule="nonzero" fill="rgb(40%, 40%, 40%)" fill-opacity="1" d="M 10 0 L 5.714844 2.144531 C 5.050781 4.285156 5.050781 5.714844 5.714844 8.570312 L 7.144531 8.570312 L 5.714844 20 L 14.285156 20 L 12.859375 8.570312 L 14.285156 8.570312 C 15.042969 5.714844 15.042969 4.285156 14.285156 2.144531 Z M 1.027344 2.097656 C 0.789062 2.21875 0.699219 2.636719 1.027344 2.769531 L 3.707031 3.839844 C 4.144531 4.015625 4.410156 3.347656 3.972656 3.167969 L 1.296875 2.097656 C 1.1875 2.054688 1.105469 2.058594 1.027344 2.097656 Z M 18.707031 2.097656 L 16.027344 3.167969 C 15.589844 3.347656 15.855469 4.015625 16.296875 3.839844 L 18.972656 2.769531 C 19.410156 2.589844 19.144531 1.921875 18.707031 2.097656 Z M 6.429688 2.855469 L 13.570312 2.855469 C 13.941406 4.285156 13.941406 5.714844 13.570312 7.144531 L 6.429688 7.144531 C 6.058594 5.714844 6.058594 4.285156 6.429688 2.855469 Z M 1.070312 4.644531 C 0.601562 4.644531 0.601562 5.355469 1.070312 5.355469 L 3.929688 5.355469 C 4.402344 5.355469 4.398438 4.644531 3.929688 4.644531 Z M 16.070312 4.644531 C 15.601562 4.644531 15.601562 5.355469 16.070312 5.355469 L 18.929688 5.355469 C 19.398438 5.355469 19.398438 4.644531 18.929688 4.644531 Z M 3.707031 6.25 L 1.027344 7.320312 C 0.589844 7.496094 0.855469 8.167969 1.296875 7.992188 L 3.972656 6.917969 C 4.410156 6.742188 4.144531 6.074219 3.707031 6.25 Z M 16.027344 6.25 C 15.789062 6.371094 15.699219 6.789062 16.027344 6.917969 L 18.707031 7.992188 C 19.144531 8.167969 19.410156 7.496094 18.972656 7.320312 L 16.296875 6.25 C 16.1875 6.207031 16.105469 6.210938 16.027344 6.25 Z M 16.027344 6.25 "/>
</svg>
