<?xml version="1.0" encoding="UTF-8"?>
<svg xmlns="http://www.w3.org/2000/svg" xmlns:xlink="http://www.w3.org/1999/xlink" width="24" height="24" viewBox="0 0 24 24">
<path fill-rule="nonzero" fill="rgb(0%, 0%, 0%)" fill-opacity="1" d="M 17.601562 12.800781 C 19.199219 13.601562 22.398438 13.601562 24 12.800781 C 24 12.800781 24 22.398438 24 22.398438 C 24 24 17.601562 24 17.601562 22.398438 C 17.601562 22.398438 17.601562 12.800781 17.601562 12.800781 Z M 18.398438 7.199219 C 18.398438 7.199219 18.398438 12 18.398438 12 C 18.398438 12.800781 23.199219 12.800781 23.199219 12 C 23.199219 12 23.199219 7.199219 23.199219 7.199219 C 22.398438 8 19.199219 8 18.398438 7.199219 Z M 19.199219 3.199219 C 19.199219 3.199219 19.199219 6.398438 19.199219 6.398438 C 19.199219 7.199219 22.398438 7.199219 22.398438 6.398438 C 22.398438 6.398438 22.398438 0.800781 22.398438 0.800781 C 22.398438 0.800781 19.199219 2.398438 19.199219 3.199219 Z M 19.199219 3.199219 "/>
<path fill-rule="nonzero" fill="rgb(0%, 0%, 0%)" fill-opacity="1" d="M 11.199219 8 C 13.601562 8 13.601562 11.199219 16 11.199219 C 16 11.199219 12.800781 16 8 16 C 3.199219 16 0 11.199219 0 11.199219 C 2.398438 11.199219 2.398438 8 4.800781 8 C 6.398438 8 8 9.601562 8 9.601562 C 8 9.601562 9.601562 8 11.199219 8 Z M 12.800781 11.199219 C 10.398438 12 5.601562 12 3.199219 11.199219 C 7.199219 13.601562 8.800781 13.601562 12.800781 11.199219 Z M 12.800781 11.199219 "/>
</svg>
