<?xml version="1.0" encoding="UTF-8"?>
<svg xmlns="http://www.w3.org/2000/svg" xmlns:xlink="http://www.w3.org/1999/xlink" width="24" height="24" viewBox="0 0 24 24">
<path fill-rule="nonzero" fill="rgb(0%, 0%, 0%)" fill-opacity="1" d="M 23.535156 8.464844 C 24.113281 9.039062 24.160156 9.953125 23.664062 10.574219 L 23.535156 10.734375 L 17.601562 16.65625 L 17.601562 22.398438 L 14.398438 22.398438 L 14.398438 17.601562 L 3.199219 17.601562 L 3.199219 22.398438 L 0 22.398438 L 0 16 C 0 15.183594 0.625 14.496094 1.40625 14.414062 L 1.601562 14.398438 L 15.328125 14.398438 L 21.265625 8.464844 C 21.886719 7.839844 22.910156 7.839844 23.535156 8.464844 Z M 19.296875 5.902344 C 20.175781 6.785156 20.222656 8.175781 19.457031 9.121094 L 19.296875 9.296875 L 15.296875 13.296875 C 14.542969 14.046875 13.390625 14.207031 12.464844 13.710938 L 12.273438 13.601562 L 8.703125 11.214844 L 4.382812 13.679688 C 3.3125 14.304688 1.953125 13.984375 1.246094 12.992188 L 1.121094 12.785156 C 0.496094 11.710938 0.816406 10.351562 1.808594 9.648438 L 2.015625 9.519531 L 7.617188 6.320312 C 8.320312 5.902344 9.199219 5.902344 9.921875 6.273438 L 10.128906 6.398438 L 13.296875 8.511719 L 15.902344 5.902344 C 16.847656 4.960938 18.351562 4.960938 19.296875 5.902344 Z M 20.800781 1.199219 C 22.128906 1.199219 23.199219 2.273438 23.199219 3.601562 C 23.199219 4.929688 22.128906 6 20.800781 6 C 19.472656 6 18.398438 4.929688 18.398438 3.601562 C 18.398438 2.273438 19.472656 1.199219 20.800781 1.199219 Z M 20.800781 1.199219 "/>
</svg>
