<?xml version="1.0" encoding="UTF-8"?>
<svg xmlns="http://www.w3.org/2000/svg" xmlns:xlink="http://www.w3.org/1999/xlink" width="20" height="20" viewBox="0 0 20 20">
<path fill-rule="nonzero" fill="rgb(45.098039%, 29.019608%, 3.137255%)" fill-opacity="1" d="M 12.855469 10 L 14.285156 10 L 14.285156 11.429688 L 12.855469 11.429688 Z M 5.714844 10 L 7.144531 10 L 7.144531 11.429688 L 5.714844 11.429688 Z M 10 9.898438 L 8.570312 11.320312 L 8.570312 18.570312 L 11.429688 18.570312 L 11.429688 11.429688 Z M 12.855469 11.429688 L 12.855469 18.570312 L 20 18.570312 L 20 11.429688 Z M 15.714844 12.855469 L 18.570312 12.855469 L 18.570312 15.714844 L 15.714844 15.714844 Z M 0 11.429688 L 0 18.570312 L 7.144531 18.570312 L 7.144531 11.429688 Z M 1.429688 12.855469 L 4.285156 12.855469 L 4.285156 15.714844 L 1.429688 15.714844 Z M 10 1.429688 L 1.429688 5.714844 L 0 10 L 7.144531 10 L 10 7.144531 L 12.855469 10 L 20 10 L 18.570312 5.714844 Z M 10 1.429688 "/>
</svg>
