<?xml version="1.0" encoding="UTF-8"?>
<svg xmlns="http://www.w3.org/2000/svg" xmlns:xlink="http://www.w3.org/1999/xlink" width="20" height="20" viewBox="0 0 20 20">
<path fill-rule="nonzero" fill="rgb(40%, 40%, 40%)" fill-opacity="1" d="M 6.382812 1.429688 C 6.335938 1.433594 6.285156 1.453125 6.234375 1.46875 C 6.203125 1.476562 6.167969 1.480469 6.136719 1.492188 C 6.125 1.496094 6.117188 1.496094 6.109375 1.5 L 0.386719 4.359375 L 0.386719 4.375 C 0.160156 4.496094 0 4.726562 0 5 L 0 17.855469 C 0 17.867188 0.00390625 17.875 0.00390625 17.886719 C 0.0078125 17.925781 0.0234375 17.964844 0.03125 18.007812 C 0.0429688 18.058594 0.046875 18.109375 0.0703125 18.15625 C 0.0742188 18.164062 0.0703125 18.171875 0.0742188 18.179688 C 0.0820312 18.191406 0.0976562 18.195312 0.105469 18.207031 C 0.160156 18.304688 0.234375 18.382812 0.324219 18.441406 C 0.347656 18.460938 0.371094 18.476562 0.394531 18.492188 C 0.492188 18.539062 0.597656 18.570312 0.714844 18.570312 C 0.722656 18.570312 0.730469 18.566406 0.738281 18.566406 C 0.746094 18.566406 0.75 18.570312 0.757812 18.570312 C 0.804688 18.570312 0.855469 18.546875 0.902344 18.535156 C 0.9375 18.527344 0.972656 18.523438 1.007812 18.507812 C 1.015625 18.503906 1.027344 18.503906 1.035156 18.5 L 6.402344 15.816406 L 13.277344 18.511719 C 13.367188 18.550781 13.464844 18.574219 13.570312 18.574219 C 13.578125 18.574219 13.582031 18.570312 13.589844 18.570312 C 13.59375 18.570312 13.597656 18.566406 13.605469 18.566406 L 13.609375 18.566406 C 13.609375 18.566406 13.613281 18.570312 13.617188 18.570312 C 13.632812 18.566406 13.652344 18.558594 13.667969 18.554688 C 13.742188 18.542969 13.8125 18.53125 13.878906 18.5 C 13.882812 18.496094 13.886719 18.5 13.890625 18.496094 L 19.613281 15.636719 L 19.613281 15.628906 C 19.839844 15.507812 20 15.277344 20 15.003906 L 20 2.144531 C 20 2.136719 19.996094 2.128906 19.996094 2.117188 C 19.992188 2.074219 19.976562 2.027344 19.964844 1.984375 C 19.957031 1.9375 19.949219 1.890625 19.929688 1.847656 C 19.925781 1.839844 19.929688 1.828125 19.925781 1.820312 C 19.914062 1.804688 19.894531 1.796875 19.886719 1.78125 C 19.835938 1.695312 19.769531 1.628906 19.6875 1.570312 C 19.65625 1.546875 19.628906 1.527344 19.59375 1.507812 C 19.5 1.464844 19.398438 1.429688 19.285156 1.429688 C 19.28125 1.429688 19.273438 1.433594 19.269531 1.433594 C 19.257812 1.433594 19.25 1.429688 19.242188 1.429688 C 19.179688 1.433594 19.117188 1.457031 19.054688 1.480469 C 19.035156 1.484375 19.015625 1.484375 19 1.492188 C 18.988281 1.496094 18.976562 1.496094 18.964844 1.5 L 13.59375 4.183594 L 6.78125 1.519531 C 6.777344 1.515625 6.773438 1.515625 6.773438 1.515625 L 6.726562 1.5 C 6.636719 1.457031 6.535156 1.429688 6.429688 1.429688 C 6.421875 1.429688 6.414062 1.429688 6.40625 1.429688 C 6.40625 1.429688 6.40625 1.433594 6.402344 1.433594 C 6.398438 1.433594 6.390625 1.429688 6.382812 1.429688 Z M 7.144531 3.195312 L 12.855469 5.433594 L 12.855469 16.8125 L 7.144531 14.574219 Z M 5.714844 3.296875 L 5.714844 14.566406 L 1.429688 16.703125 L 1.429688 5.433594 Z M 18.570312 3.296875 L 18.570312 14.5625 L 14.285156 16.703125 L 14.285156 5.433594 Z M 18.570312 3.296875 "/>
</svg>
