<?xml version="1.0" encoding="UTF-8"?>
<svg xmlns="http://www.w3.org/2000/svg" xmlns:xlink="http://www.w3.org/1999/xlink" width="20" height="20" viewBox="0 0 20 20">
<path fill-rule="nonzero" fill="rgb(67.45098%, 22.352941%, 67.45098%)" fill-opacity="1" d="M 0 0 L 0 2.855469 C 0 3.613281 0.300781 4.339844 0.835938 4.878906 C 1.371094 5.414062 2.097656 5.714844 2.855469 5.714844 C 3.613281 5.714844 4.339844 5.414062 4.878906 4.878906 C 5.414062 4.339844 5.714844 3.613281 5.714844 2.855469 L 7.144531 2.855469 C 7.144531 3.613281 7.445312 4.339844 7.980469 4.878906 C 8.515625 5.414062 9.242188 5.714844 10 5.714844 C 10.757812 5.714844 11.484375 5.414062 12.019531 4.878906 C 12.554688 4.339844 12.855469 3.613281 12.855469 2.855469 L 14.285156 2.855469 C 14.285156 3.613281 14.585938 4.339844 15.121094 4.878906 C 15.660156 5.414062 16.386719 5.714844 17.144531 5.714844 C 17.902344 5.714844 18.628906 5.414062 19.164062 4.878906 C 19.699219 4.339844 20 3.613281 20 2.855469 L 20 0 Z M 0 0 "/>
<path fill-rule="nonzero" fill="rgb(67.45098%, 22.352941%, 67.45098%)" fill-opacity="1" d="M 0 7.144531 L 0 20 L 2.855469 20 L 2.855469 15.714844 L 17.144531 15.714844 L 17.144531 20 L 20 20 L 20 7.144531 L 17.144531 7.144531 L 17.144531 12.855469 L 2.855469 12.855469 L 2.855469 7.144531 Z M 0 7.144531 "/>
</svg>
