<?xml version="1.0" encoding="UTF-8"?>
<svg xmlns="http://www.w3.org/2000/svg" xmlns:xlink="http://www.w3.org/1999/xlink" width="24" height="24" viewBox="0 0 24 24">
<path fill-rule="nonzero" fill="rgb(0%, 0%, 0%)" fill-opacity="1" d="M 9.601562 0.800781 C 9.601562 0.800781 9.601562 3.199219 9.601562 3.199219 C 9.601562 3.199219 11.199219 3.199219 11.199219 3.199219 C 11.199219 3.199219 11.199219 1.601562 11.199219 1.601562 C 11.199219 0.800781 12.800781 0.800781 12.800781 1.601562 C 12.800781 1.601562 12.800781 3.199219 12.800781 3.199219 C 12.800781 3.199219 14.398438 3.199219 14.398438 3.199219 C 14.398438 0.800781 14.398438 0.800781 14.398438 0.800781 C 14.398438 0 16 0 16 0.800781 C 16 0.800781 16 3.441406 16 3.441406 L 17.601562 4 C 17.601562 4 17.601562 2.398438 17.601562 2.398438 C 17.601562 1.601562 19.199219 1.601562 19.199219 2.398438 C 19.199219 2.398438 19.199219 8.800781 19.199219 8.800781 C 19.199219 9.601562 17.601562 9.601562 17.601562 8.800781 L 17.601562 5.601562 L 16 5.039062 L 16 7.199219 C 16 8 14.398438 8 14.398438 7.199219 C 14.398438 7.199219 14.398438 4.800781 14.398438 4.800781 C 14.398438 4.800781 12.878906 4.800781 12.878906 4.800781 C 12.878906 4.800781 12.960938 8 12.960938 8 C 12.960938 8 23.601562 23.199219 23.601562 23.199219 C 24 24 22.398438 24 21.601562 23.199219 C 21.601562 23.199219 13.121094 11.199219 13.121094 11.199219 C 13.121094 11.199219 13.601562 23.199219 13.601562 23.199219 C 13.601562 24 10.398438 24 10.398438 23.199219 C 10.398438 23.199219 10.878906 11.199219 10.878906 11.199219 C 10.878906 11.199219 2.398438 23.199219 2.398438 23.199219 C 1.601562 24 0 24 0.398438 23.199219 C 0.398438 23.199219 11.039062 8 11.039062 8 C 11.039062 8 11.121094 4.800781 11.121094 4.800781 C 11.121094 4.800781 9.601562 4.800781 9.601562 4.800781 C 9.601562 4.800781 9.601562 7.199219 9.601562 7.199219 C 9.601562 8 8 8 8 7.199219 L 8 5.039062 L 6.398438 5.601562 L 6.398438 8.800781 C 6.398438 9.601562 4.800781 9.601562 4.800781 8.800781 C 4.800781 8.800781 4.800781 2.398438 4.800781 2.398438 C 4.800781 1.601562 6.398438 1.601562 6.398438 2.398438 C 6.398438 2.398438 6.398438 4 6.398438 4 L 8 3.441406 C 8 3.441406 8 0.800781 8 0.800781 C 8 0 9.601562 0 9.601562 0.800781 Z M 9.601562 0.800781 "/>
</svg>
