<?xml version="1.0" encoding="UTF-8"?>
<svg xmlns="http://www.w3.org/2000/svg" xmlns:xlink="http://www.w3.org/1999/xlink" width="24" height="24" viewBox="0 0 24 24">
<path fill-rule="nonzero" fill="rgb(0%, 0%, 0%)" fill-opacity="1" d="M 12 1.007812 C 11.601562 1.007812 11.199219 1.199219 11.199219 1.601562 L 11.183594 2.03125 C 9.199219 2.03125 7.214844 2.03125 5.246094 2.03125 C 5.054688 2.015625 4.878906 2.175781 4.863281 2.367188 C 5.070312 5.375 5.246094 8.464844 5.40625 11.152344 C 5.40625 11.359375 5.585938 11.519531 5.792969 11.519531 C 7.550781 11.519531 9.328125 11.519531 10.832031 11.519531 L 10.398438 23.199219 C 10.398438 24 13.601562 24 13.601562 23.199219 C 13.3125 16 13.230469 13.953125 13.152344 11.519531 C 14.816406 11.519531 16.496094 11.519531 18.175781 11.519531 C 18.351562 11.519531 18.511719 11.390625 18.542969 11.214844 C 18.703125 8.222656 18.894531 5.121094 19.054688 2.414062 C 19.054688 2.207031 18.878906 2.046875 18.671875 2.046875 L 18.65625 2.046875 L 12.816406 2.03125 C 12.816406 2.0625 12.800781 1.601562 12.800781 1.601562 C 12.800781 1.199219 12.398438 1.007812 12 1.007812 Z M 7.777344 3.183594 C 8.574219 3.183594 9.230469 3.839844 9.230469 4.640625 C 9.230469 5.441406 8.574219 6.097656 7.777344 6.097656 C 6.976562 6.097656 6.320312 5.441406 6.320312 4.640625 C 6.320312 3.839844 6.976562 3.183594 7.777344 3.183594 Z M 12 3.183594 C 12.191406 3.183594 12.382812 3.230469 12.542969 3.296875 C 12.558594 3.296875 12.558594 3.3125 12.574219 3.3125 C 13.089844 3.535156 13.457031 4.046875 13.457031 4.640625 C 13.457031 5.214844 13.105469 5.726562 12.59375 5.953125 C 12.574219 5.953125 12.558594 5.96875 12.527344 5.984375 C 12.367188 6.046875 12.191406 6.078125 12 6.078125 C 11.808594 6.078125 11.617188 6.046875 11.457031 5.96875 C 11.441406 5.96875 11.425781 5.96875 11.425781 5.953125 C 10.910156 5.726562 10.542969 5.230469 10.542969 4.640625 C 10.542969 4.046875 10.894531 3.535156 11.40625 3.3125 C 11.425781 3.296875 11.457031 3.296875 11.472656 3.28125 C 11.632812 3.230469 11.808594 3.183594 12 3.183594 Z M 16.238281 3.183594 C 17.039062 3.183594 17.695312 3.839844 17.695312 4.640625 C 17.695312 5.441406 17.039062 6.097656 16.238281 6.097656 C 15.441406 6.078125 14.800781 5.441406 14.800781 4.640625 C 14.800781 3.839844 15.441406 3.183594 16.238281 3.183594 Z M 7.855469 7.503906 C 8.65625 7.503906 9.3125 8.144531 9.3125 8.945312 C 9.3125 9.742188 8.65625 10.398438 7.855469 10.398438 C 7.054688 10.398438 6.398438 9.742188 6.398438 8.945312 C 6.398438 8.144531 7.054688 7.503906 7.855469 7.503906 Z M 12 7.503906 C 12.191406 7.503906 12.382812 7.550781 12.542969 7.617188 C 12.558594 7.617188 12.558594 7.632812 12.574219 7.632812 C 13.089844 7.855469 13.457031 8.351562 13.457031 8.945312 C 13.457031 9.34375 13.296875 9.695312 13.039062 9.953125 C 13.023438 9.96875 13.007812 9.96875 13.007812 9.984375 C 12.878906 10.113281 12.734375 10.207031 12.574219 10.273438 C 12.558594 10.273438 12.558594 10.289062 12.542969 10.289062 C 12.382812 10.351562 12.191406 10.398438 12 10.398438 C 11.808594 10.398438 11.617188 10.351562 11.457031 10.289062 C 11.441406 10.289062 11.441406 10.289062 11.441406 10.289062 C 11.441406 10.289062 11.425781 10.273438 11.425781 10.273438 C 11.265625 10.207031 11.121094 10.113281 10.992188 9.984375 C 10.992188 9.984375 10.976562 9.96875 10.960938 9.953125 C 10.703125 9.695312 10.542969 9.34375 10.542969 8.945312 C 10.542969 8.558594 10.703125 8.191406 10.960938 7.9375 C 10.960938 7.9375 10.976562 7.921875 10.976562 7.921875 C 11.105469 7.792969 11.246094 7.695312 11.40625 7.632812 C 11.40625 7.632812 11.425781 7.632812 11.425781 7.617188 C 11.617188 7.535156 11.808594 7.503906 12 7.503906 Z M 16.144531 7.503906 C 16.945312 7.503906 17.601562 8.160156 17.601562 8.960938 C 17.601562 9.761719 16.945312 10.398438 16.144531 10.398438 C 15.34375 10.398438 14.6875 9.742188 14.6875 8.945312 C 14.6875 8.144531 15.34375 7.503906 16.144531 7.503906 Z M 16.144531 7.503906 "/>
<path fill-rule="nonzero" fill="rgb(0%, 0%, 0%)" fill-opacity="1" d="M 5.503906 12.449219 C 5.398438 12.457031 5.300781 12.507812 5.230469 12.59375 L 2.894531 15.121094 C 2.773438 15.21875 2.71875 15.378906 2.757812 15.527344 C 2.796875 15.679688 2.917969 15.796875 3.070312 15.824219 C 3.226562 15.855469 3.382812 15.792969 3.472656 15.664062 L 5.808594 13.136719 C 5.929688 13.019531 5.964844 12.839844 5.898438 12.683594 C 5.828125 12.53125 5.671875 12.4375 5.503906 12.449219 Z M 5.503906 12.449219 "/>
<path fill-rule="nonzero" fill="rgb(0%, 0%, 0%)" fill-opacity="1" d="M 7.921875 13.105469 C 7.792969 13.117188 7.679688 13.1875 7.617188 13.296875 L 5.121094 17.550781 C 5.03125 17.675781 5.019531 17.839844 5.089844 17.972656 C 5.160156 18.109375 5.304688 18.191406 5.457031 18.1875 C 5.609375 18.183594 5.746094 18.089844 5.808594 17.953125 L 8.304688 13.695312 C 8.375 13.566406 8.371094 13.410156 8.289062 13.285156 C 8.210938 13.160156 8.066406 13.089844 7.921875 13.105469 Z M 7.921875 13.105469 "/>
<path fill-rule="nonzero" fill="rgb(0%, 0%, 0%)" fill-opacity="1" d="M 18.449219 12.449219 C 18.292969 12.457031 18.15625 12.554688 18.097656 12.699219 C 18.039062 12.839844 18.070312 13.007812 18.175781 13.121094 L 20.511719 15.648438 C 20.597656 15.777344 20.753906 15.84375 20.90625 15.816406 C 21.058594 15.792969 21.183594 15.679688 21.226562 15.53125 C 21.269531 15.382812 21.222656 15.222656 21.105469 15.121094 L 18.769531 12.59375 C 18.6875 12.496094 18.570312 12.445312 18.449219 12.449219 Z M 18.449219 12.449219 "/>
<path fill-rule="nonzero" fill="rgb(0%, 0%, 0%)" fill-opacity="1" d="M 16.015625 13.105469 C 15.878906 13.113281 15.757812 13.191406 15.695312 13.3125 C 15.628906 13.433594 15.628906 13.578125 15.695312 13.695312 L 18.191406 17.953125 C 18.253906 18.089844 18.390625 18.183594 18.542969 18.1875 C 18.695312 18.191406 18.839844 18.109375 18.910156 17.972656 C 18.980469 17.839844 18.96875 17.675781 18.878906 17.550781 L 16.382812 13.296875 C 16.308594 13.167969 16.164062 13.09375 16.015625 13.105469 Z M 16.015625 13.105469 "/>
</svg>
