<?xml version="1.0" encoding="UTF-8"?>
<svg xmlns="http://www.w3.org/2000/svg" xmlns:xlink="http://www.w3.org/1999/xlink" width="24" height="24" viewBox="0 0 24 24">
<path fill-rule="nonzero" fill="rgb(0%, 0%, 0%)" fill-opacity="1" d="M 8 14.398438 L 8 4.800781 L 12.800781 4.800781 L 12.800781 6.398438 L 9.601562 6.398438 L 9.601562 14.398438 L 12.800781 14.398438 L 12.800781 16 L 3.199219 16 L 3.199219 20.800781 L 8 20.800781 L 8 19.199219 L 4.800781 19.199219 L 4.800781 17.601562 L 12.800781 17.601562 L 12.800781 19.199219 L 9.601562 19.199219 L 9.601562 20.800781 L 19.199219 20.800781 L 19.199219 22.398438 L 1.601562 22.398438 L 1.601562 1.601562 L 3.199219 1.601562 L 3.199219 9.601562 L 6.398438 9.601562 L 6.398438 12.800781 L 4.800781 12.800781 L 4.800781 11.199219 L 3.199219 11.199219 L 3.199219 14.398438 Z M 22.398438 1.601562 L 22.398438 22.398438 L 20.800781 22.398438 L 20.800781 19.199219 L 14.398438 19.199219 L 14.398438 14.398438 L 19.199219 14.398438 L 19.199219 16 L 16 16 L 16 17.601562 L 20.800781 17.601562 L 20.800781 12.800781 L 14.398438 12.800781 L 14.398438 9.601562 L 12.800781 9.601562 L 12.800781 12.800781 L 11.199219 12.800781 L 11.199219 8 L 17.601562 8 L 17.601562 6.398438 L 14.398438 6.398438 L 14.398438 4.800781 L 19.199219 4.800781 L 19.199219 9.601562 L 16 9.601562 L 16 11.199219 L 20.800781 11.199219 L 20.800781 3.199219 L 6.398438 3.199219 L 6.398438 8 L 4.800781 8 L 4.800781 1.601562 Z M 22.398438 1.601562 "/>
</svg>
