<?xml version="1.0" encoding="UTF-8"?>
<svg xmlns="http://www.w3.org/2000/svg" xmlns:xlink="http://www.w3.org/1999/xlink" width="24" height="24" viewBox="0 0 24 24">
<path fill-rule="nonzero" fill="rgb(0%, 0%, 0%)" fill-opacity="1" d="M 22.558594 1.984375 L 23.199219 2.910156 C 24.222656 4.414062 24.273438 6.273438 23.296875 7.808594 C 21.792969 10.191406 20.878906 12.128906 20.59375 13.601562 C 20.367188 14.785156 20.207031 16.015625 20.113281 17.328125 C 19.984375 19.007812 18.863281 20.542969 17.121094 21.390625 L 13.488281 23.152344 C 9.886719 24.894531 5.28125 23.855469 3.199219 20.832031 L 1.472656 18.320312 C -1.566406 13.886719 0.238281 8.238281 5.488281 5.695312 L 16.128906 0.527344 C 18.367188 -0.558594 21.246094 0.078125 22.558594 1.984375 Z M 20.910156 3.121094 C 20.175781 2.0625 18.382812 1.648438 16.992188 2.335938 L 6.367188 7.488281 C 2.175781 9.519531 0.816406 13.808594 3.121094 17.183594 L 4.847656 19.695312 C 6.351562 21.886719 9.871094 22.6875 12.609375 21.34375 L 16.238281 19.585938 C 17.375 19.039062 18.046875 18.128906 18.113281 17.183594 C 18.207031 15.792969 18.382812 14.464844 18.640625 13.214844 C 18.976562 11.457031 19.984375 9.3125 21.601562 6.734375 C 22.144531 5.871094 22.128906 4.894531 21.550781 4.046875 Z M 19.265625 4.238281 L 19.902344 5.183594 C 20.03125 5.375 20.03125 5.488281 19.921875 5.664062 C 18.160156 8.433594 17.070312 10.769531 16.671875 12.832031 C 16.398438 14.160156 16.222656 15.566406 16.113281 17.039062 C 16.097656 17.246094 15.871094 17.535156 15.375 17.792969 L 11.742188 19.550781 C 9.871094 20.464844 7.425781 19.921875 6.496094 18.574219 L 4.769531 16.046875 C 3.183594 13.726562 4.113281 10.816406 7.246094 9.296875 L 17.871094 4.128906 C 18.398438 3.871094 19.121094 4.03125 19.265625 4.238281 Z M 9.199219 12.574219 C 9.105469 12.625 9.023438 12.671875 8.929688 12.734375 C 8.207031 13.246094 8.046875 14.257812 8.558594 14.976562 C 8.558594 14.976562 8.558594 14.992188 8.574219 15.007812 C 9.199219 15.855469 10.398438 16.03125 11.246094 15.40625 L 12.207031 14.6875 C 12.976562 14.128906 13.390625 13.214844 13.328125 12.273438 C 13.3125 12.144531 13.28125 12.03125 13.230469 11.921875 C 12.976562 11.375 12.351562 11.136719 11.808594 11.390625 Z M 9.199219 12.574219 "/>
</svg>
