<?xml version="1.0" encoding="UTF-8" standalone="no"?>
<svg
   width="24"
   height="24"
   viewBox="0 0 24 24"
   fill="none"
   version="1.1"
   id="svg1"
   sodipodi:docname="military_red_hatch.svg"
   inkscape:version="1.3.2 (091e20e, 2023-11-25, custom)"
   xmlns:inkscape="http://www.inkscape.org/namespaces/inkscape"
   xmlns:sodipodi="http://sodipodi.sourceforge.net/DTD/sodipodi-0.dtd"
   xmlns="http://www.w3.org/2000/svg"
   xmlns:svg="http://www.w3.org/2000/svg">
  <defs
     id="defs1" />
  <sodipodi:namedview
     id="namedview1"
     pagecolor="#ffffff"
     bordercolor="#666666"
     borderopacity="1.0"
     inkscape:showpageshadow="2"
     inkscape:pageopacity="0.0"
     inkscape:pagecheckerboard="0"
     inkscape:deskcolor="#d1d1d1"
     inkscape:zoom="33.583333"
     inkscape:cx="12"
     inkscape:cy="9.6029777"
     inkscape:window-width="1920"
     inkscape:window-height="1017"
     inkscape:window-x="-8"
     inkscape:window-y="-8"
     inkscape:window-maximized="1"
     inkscape:current-layer="svg1" />
  <path
     opacity="0.12"
     d="M0 2.625V3.375L3.375 0H2.625L0 2.625ZM0 8.625V9.375L9.375 0H8.625L0 8.625ZM0 14.625V15.375L15.375 0H14.625L0 14.625ZM0 20.625V21.375L21.375 0H20.625L0 20.625ZM2.625 24H3.375L24 3.375V2.625L2.625 24ZM8.625 24H9.375L24 9.375V8.625L8.625 24ZM14.625 24H15.375L24 15.375V14.625L14.625 24ZM20.625 24H21.375L24 21.375V20.625L20.625 24Z"
     fill="#FF5555"
     id="path1"
     style="fill:#ff1818;fill-opacity:1;opacity:0.20206659" />
</svg>
