<?xml version="1.0" encoding="UTF-8"?>
<svg xmlns="http://www.w3.org/2000/svg" xmlns:xlink="http://www.w3.org/1999/xlink" width="24" height="24" viewBox="0 0 24 24">
<path fill-rule="nonzero" fill="rgb(0%, 0%, 0%)" fill-opacity="1" d="M 11.199219 11.199219 L 15.792969 11.199219 C 15.921875 11.199219 16.0625 11.167969 16.191406 11.089844 L 17.40625 10.398438 C 17.601562 10.289062 17.679688 10.015625 17.550781 9.808594 C 17.488281 9.679688 17.34375 9.601562 17.183594 9.601562 L 11.199219 9.601562 L 11.199219 1.601562 L 20.800781 1.601562 C 21.679688 1.601562 22.398438 2.320312 22.398438 3.199219 L 22.398438 20.800781 C 22.398438 21.679688 21.679688 22.398438 20.800781 22.398438 L 3.199219 22.398438 C 2.320312 22.398438 1.601562 21.679688 1.601562 20.800781 L 1.601562 3.199219 C 1.601562 2.320312 2.320312 1.601562 3.199219 1.601562 L 6.398438 1.601562 L 6.398438 18.398438 C 6.398438 18.847656 6.753906 19.199219 7.199219 19.199219 L 10.398438 19.199219 C 10.847656 19.199219 11.199219 18.847656 11.199219 18.398438 L 11.199219 16 L 18.992188 16 C 19.121094 16 19.265625 15.96875 19.390625 15.886719 L 20.609375 15.199219 C 20.800781 15.089844 20.878906 14.816406 20.753906 14.609375 C 20.6875 14.480469 20.542969 14.398438 20.382812 14.398438 L 11.199219 14.398438 Z M 11.199219 11.199219 "/>
</svg>
