<?xml version="1.0" encoding="UTF-8"?>
<svg xmlns="http://www.w3.org/2000/svg" xmlns:xlink="http://www.w3.org/1999/xlink" width="24" height="24" viewBox="0 0 24 24">
<path fill-rule="nonzero" fill="rgb(0%, 0%, 0%)" fill-opacity="1" d="M 14.65625 11.199219 L 12 11.199219 C 11.550781 11.199219 11.199219 10.847656 11.199219 10.398438 C 11.199219 9.953125 11.550781 9.601562 12 9.601562 L 15.183594 9.601562 C 15.230469 9.601562 15.28125 9.601562 15.328125 9.617188 C 15.457031 9.632812 15.585938 9.679688 15.679688 9.761719 C 15.761719 9.824219 15.824219 9.886719 15.886719 9.984375 C 15.902344 10.03125 15.9375 10.078125 15.953125 10.128906 L 17.664062 14.398438 L 18.398438 14.398438 C 20.609375 14.398438 22.398438 16.191406 22.398438 18.398438 C 22.398438 20.609375 20.609375 22.398438 18.398438 22.398438 C 16.191406 22.398438 14.398438 20.609375 14.398438 18.398438 C 14.398438 18.128906 14.433594 17.855469 14.480469 17.601562 L 12.800781 17.601562 C 12.800781 18.480469 12.078125 19.199219 11.199219 19.199219 L 9.519531 19.199219 C 9.152344 21.023438 7.535156 22.398438 5.601562 22.398438 C 3.390625 22.398438 1.601562 20.609375 1.601562 18.398438 C 1.601562 16.464844 2.976562 14.847656 4.800781 14.480469 L 4.800781 14.398438 L 9.601562 14.398438 L 15.359375 12.960938 Z M 7.855469 19.199219 L 6.398438 19.199219 C 5.519531 19.199219 4.800781 18.480469 4.800781 17.601562 L 4.800781 16.144531 C 3.871094 16.464844 3.199219 17.359375 3.199219 18.398438 C 3.199219 19.726562 4.273438 20.800781 5.601562 20.800781 C 6.640625 20.800781 7.535156 20.128906 7.855469 19.199219 Z M 16.816406 16.59375 C 16.320312 17.039062 16 17.679688 16 18.398438 C 16 19.726562 17.070312 20.800781 18.398438 20.800781 C 19.726562 20.800781 20.800781 19.726562 20.800781 18.398438 C 20.800781 17.070312 19.726562 16 18.398438 16 C 18.367188 16 18.335938 16 18.304688 16 L 19.136719 18.097656 C 19.3125 18.511719 19.105469 18.976562 18.703125 19.136719 C 18.289062 19.3125 17.824219 19.105469 17.664062 18.703125 Z M 19.199219 3.199219 C 20.078125 3.199219 20.800781 3.921875 20.800781 4.800781 C 20.800781 5.679688 20.078125 6.398438 19.199219 6.398438 L 9.265625 6.398438 C 8.640625 7.808594 7.230469 8.800781 5.601562 8.800781 C 3.96875 8.800781 2.558594 7.808594 1.9375 6.398438 L 5.601562 6.398438 L 6.398438 4.800781 L 5.601562 3.199219 L 1.9375 3.199219 C 2.558594 1.792969 3.96875 0.800781 5.601562 0.800781 C 7.230469 0.800781 8.640625 1.792969 9.265625 3.199219 Z M 8 13.601562 L 3.199219 13.601562 L 3.199219 11.199219 L 6.398438 11.199219 C 7.28125 11.199219 8 11.921875 8 12.800781 Z M 8 13.601562 "/>
</svg>
