<?xml version="1.0" encoding="UTF-8"?>
<svg xmlns="http://www.w3.org/2000/svg" xmlns:xlink="http://www.w3.org/1999/xlink" width="20" height="20" viewBox="0 0 20 20">
<path fill-rule="evenodd" fill="rgb(0%, 57.254902%, 85.490196%)" fill-opacity="1" d="M 17.292969 12.277344 C 17.621094 12.480469 17.8125 12.707031 17.90625 12.992188 C 17.9375 13.085938 17.941406 13.105469 17.941406 13.300781 C 17.941406 13.476562 17.9375 13.523438 17.914062 13.625 C 17.867188 13.816406 17.78125 14.035156 17.679688 14.222656 L 17.636719 14.308594 L 17.484375 14.316406 C 16.925781 14.347656 16.476562 14.449219 16.085938 14.632812 C 15.246094 15.03125 14.722656 15.78125 14.460938 16.941406 L 14.4375 17.03125 L 14.332031 17.132812 C 14.269531 17.1875 14.1875 17.253906 14.148438 17.277344 C 13.789062 17.507812 13.269531 17.644531 12.535156 17.707031 C 12.203125 17.738281 11.980469 17.742188 10.914062 17.753906 C 10.289062 17.757812 9.773438 17.765625 9.769531 17.769531 C 9.769531 17.773438 9.742188 17.773438 9.71875 17.773438 C 9.664062 17.773438 9.667969 17.796875 9.699219 17.539062 C 9.746094 17.144531 9.742188 16.6875 9.683594 16.355469 C 9.519531 15.402344 8.929688 14.773438 7.925781 14.488281 C 7.488281 14.363281 7.101562 14.316406 6.441406 14.308594 L 6.019531 14.296875 L 5.992188 14.269531 C 5.847656 14.117188 5.777344 13.882812 5.816406 13.703125 C 5.835938 13.621094 5.902344 13.496094 5.957031 13.445312 L 7.144531 12.238281 C 9.714844 12.230469 10.402344 12.242188 12.855469 12.265625 C 12.992188 12.296875 13.613281 13.542969 13.679688 13.644531 C 13.714844 13.703125 13.765625 13.824219 13.773438 13.886719 C 13.78125 13.910156 13.785156 13.929688 13.785156 13.929688 C 13.800781 13.929688 14.03125 13.839844 14.148438 13.785156 C 14.460938 13.640625 14.855469 13.074219 15.054688 12.84375 C 15.242188 10.617188 12.144531 4.710938 17.292969 12.277344 Z M 17.171875 14.570312 C 17.921875 14.519531 18.660156 14.789062 19.183594 15.304688 C 19.910156 16.019531 20.082031 17.089844 19.609375 17.96875 C 19.214844 18.703125 18.441406 19.199219 17.574219 19.269531 C 17.246094 19.296875 16.855469 19.253906 16.546875 19.160156 C 15.789062 18.917969 15.195312 18.363281 14.949219 17.65625 C 14.722656 17.007812 14.808594 16.28125 15.183594 15.707031 C 15.617188 15.042969 16.34375 14.628906 17.171875 14.570312 Z M 6.988281 14.578125 C 7.292969 14.578125 7.378906 14.585938 7.601562 14.640625 C 8.597656 14.875 9.34375 15.652344 9.488281 16.601562 C 9.511719 16.777344 9.511719 17.085938 9.488281 17.253906 C 9.359375 18.046875 8.839844 18.703125 8.070312 19.050781 C 7.824219 19.160156 7.519531 19.242188 7.242188 19.269531 C 7.082031 19.285156 6.738281 19.273438 6.570312 19.25 C 5.496094 19.078125 4.683594 18.316406 4.492188 17.308594 C 4.457031 17.117188 4.453125 16.769531 4.484375 16.578125 C 4.570312 16.066406 4.8125 15.621094 5.203125 15.257812 C 5.582031 14.90625 6.027344 14.691406 6.570312 14.597656 C 6.667969 14.582031 6.75 14.578125 6.988281 14.578125 Z M 17.269531 15.382812 C 16.773438 15.40625 16.324219 15.628906 16.023438 16 C 15.929688 16.117188 15.804688 16.351562 15.761719 16.488281 C 15.589844 17.046875 15.757812 17.625 16.199219 18.027344 C 16.3125 18.128906 16.480469 18.242188 16.597656 18.300781 C 16.691406 18.34375 16.886719 18.40625 17 18.429688 C 17.140625 18.460938 17.464844 18.46875 17.605469 18.449219 C 18.28125 18.34375 18.804688 17.878906 18.960938 17.253906 C 18.996094 17.109375 19.003906 16.828125 18.980469 16.679688 C 18.835938 15.894531 18.113281 15.347656 17.269531 15.382812 Z M 6.992188 15.390625 C 6.695312 15.390625 6.480469 15.4375 6.230469 15.558594 C 6.058594 15.640625 5.929688 15.726562 5.796875 15.859375 C 5.570312 16.074219 5.4375 16.3125 5.367188 16.613281 C 5.335938 16.734375 5.332031 17.027344 5.355469 17.167969 C 5.414062 17.53125 5.636719 17.886719 5.9375 18.117188 C 6.167969 18.289062 6.433594 18.402344 6.714844 18.445312 C 6.851562 18.464844 7.140625 18.464844 7.261719 18.445312 C 8.242188 18.277344 8.839844 17.382812 8.570312 16.488281 C 8.429688 16.027344 8.027344 15.636719 7.535156 15.472656 C 7.347656 15.410156 7.207031 15.390625 6.992188 15.390625 Z M 1.429688 0 L 1.429688 14.285156 L 4.285156 14.285156 L 4.285156 9.285156 L 7.855469 9.285156 C 10.679688 9.285156 12.855469 7.859375 12.855469 4.644531 C 12.855469 1.429688 10.695312 0 8.527344 0 Z M 4.285156 2.859375 L 7.855469 2.859375 C 9.234375 2.859375 10 3.609375 10 4.644531 C 10 5.679688 9.097656 6.429688 7.855469 6.429688 L 4.285156 6.429688 Z M 4.285156 2.859375 "/>
</svg>
