<?xml version="1.0" encoding="UTF-8"?>
<svg xmlns="http://www.w3.org/2000/svg" xmlns:xlink="http://www.w3.org/1999/xlink" width="24" height="24" viewBox="0 0 24 24">
<path fill-rule="nonzero" fill="rgb(0%, 0%, 0%)" fill-opacity="1" d="M 9.488281 7.742188 L 10.71875 4.847656 C 10.945312 4.335938 11.441406 4 12 4 C 12.558594 4 13.054688 4.335938 13.28125 4.847656 L 16 10.398438 L 17.121094 8.046875 C 17.34375 7.535156 17.839844 7.199219 18.398438 7.199219 C 18.960938 7.199219 19.457031 7.535156 19.679688 8.046875 L 23.777344 18.640625 C 23.921875 19.007812 24 19.40625 24 19.792969 L 24 20.800781 C 24 21.679688 23.28125 22.398438 22.398438 22.398438 L 2.398438 22.398438 C 1.070312 22.398438 0 21.328125 0 20 C 0 18.128906 0 16.273438 0 14.398438 C 0 11.601562 1.359375 8.59375 2.464844 6.015625 L 4.320312 1.648438 C 4.542969 1.136719 5.039062 0.800781 5.601562 0.800781 C 6.160156 0.800781 6.65625 1.136719 6.878906 1.648438 Z M 18.398438 9.199219 L 15.199219 16.800781 L 18.398438 15.199219 L 20 18.398438 L 21.601562 16.800781 Z M 5.601562 2.800781 L 2.398438 10.398438 L 5.601562 8.800781 L 7.199219 12 L 8.800781 10.398438 Z M 12 6 L 8.800781 13.601562 L 12 12 L 13.601562 15.199219 L 15.199219 13.601562 Z M 12 6 "/>
</svg>
