<?xml version="1.0" encoding="UTF-8"?>
<svg xmlns="http://www.w3.org/2000/svg" xmlns:xlink="http://www.w3.org/1999/xlink" width="24" height="24" viewBox="0 0 24 24">
<path fill-rule="nonzero" fill="rgb(0%, 0%, 0%)" fill-opacity="1" d="M 8 1.601562 L 11.199219 6.398438 L 16.800781 4 L 23.953125 20.800781 L 0 20.800781 Z M 12.800781 8 L 11.199219 8 C 10.800781 8 10.480469 8.289062 10.414062 8.65625 L 10.398438 8.800781 L 10.398438 12 L 7.199219 12 C 6.800781 12 6.480469 12.289062 6.414062 12.65625 L 6.398438 12.800781 L 6.398438 14.398438 C 6.398438 14.800781 6.6875 15.121094 7.054688 15.183594 L 7.199219 15.199219 L 10.398438 15.199219 L 10.398438 18.398438 C 10.398438 18.800781 10.6875 19.121094 11.054688 19.183594 L 11.199219 19.199219 L 12.800781 19.199219 C 13.199219 19.199219 13.519531 18.910156 13.585938 18.542969 L 13.601562 18.398438 L 13.601562 15.199219 L 16.800781 15.199219 C 17.199219 15.199219 17.519531 14.910156 17.585938 14.542969 L 17.601562 14.398438 L 17.601562 12.800781 C 17.601562 12.398438 17.3125 12.078125 16.945312 12.015625 L 16.800781 12 L 13.601562 12 L 13.601562 8.800781 C 13.601562 8.398438 13.3125 8.078125 12.945312 8.015625 Z M 12.800781 8 "/>
</svg>
