<?xml version="1.0" encoding="UTF-8"?>
<svg xmlns="http://www.w3.org/2000/svg" xmlns:xlink="http://www.w3.org/1999/xlink" width="24" height="24" viewBox="0 0 24 24">
<path fill-rule="nonzero" fill="rgb(0%, 0%, 0%)" fill-opacity="1" d="M 12.246094 10.832031 C 11.519531 10.832031 10.929688 11.425781 10.929688 12.148438 C 10.929688 12.875 11.519531 13.464844 12.246094 13.464844 C 12.96875 13.464844 13.558594 12.875 13.558594 12.148438 C 13.558594 11.425781 12.96875 10.832031 12.246094 10.832031 Z M 20.078125 1.953125 C 20.078125 1.40625 19.632812 0.960938 19.085938 0.960938 L 4.839844 0.960938 C 4.292969 0.960938 3.84375 1.40625 3.84375 1.953125 L 3.84375 22.046875 C 3.84375 22.59375 4.292969 23.039062 4.839844 23.039062 L 19.085938 23.039062 C 19.636719 23.039062 20.078125 22.59375 20.078125 22.046875 Z M 12.246094 18.4375 C 8.777344 18.4375 5.957031 15.613281 5.957031 12.148438 C 5.957031 8.683594 8.777344 5.859375 12.246094 5.859375 C 15.710938 5.859375 18.53125 8.683594 18.53125 12.148438 C 18.53125 15.621094 15.710938 18.4375 12.246094 18.4375 Z M 12.246094 18.4375 "/>
</svg>
