<?xml version="1.0" encoding="UTF-8"?>
<svg xmlns="http://www.w3.org/2000/svg" xmlns:xlink="http://www.w3.org/1999/xlink" width="20" height="20" viewBox="0 0 20 20">
<path fill-rule="evenodd" fill="rgb(67.45098%, 22.352941%, 67.45098%)" fill-opacity="1" d="M 15.714844 8.570312 C 17.144531 8.570312 18.570312 10 18.570312 11.429688 L 18.570312 14.285156 C 18.578125 15.636719 17.144531 17.144531 15.714844 17.144531 L 8.570312 17.144531 C 7.144531 17.144531 5.714844 15.714844 5.714844 14.285156 L 5.714844 11.429688 C 5.714844 10 7.144531 8.570312 8.570312 8.570312 L 10 8.570312 C 7.144531 10 7.144531 10 7.144531 12.855469 C 7.144531 13.65625 7.878906 14.230469 8.570312 14.285156 L 15.714844 14.285156 C 16.578125 14.285156 17.144531 13.65625 17.144531 12.855469 C 17.144531 10 17.144531 10 14.285156 8.566406 Z M 10 4.285156 L 10 7.125 L 7.144531 7.144531 L 7.144531 8.570312 L 10 8.570312 L 10 11.429688 L 11.429688 11.429688 L 11.429688 8.570312 L 12.855469 8.570312 L 12.855469 11.429688 L 14.285156 11.429688 L 14.285156 8.570312 L 18.570312 8.570312 C 18.570312 10 20 10 20 10 L 20 5.714844 C 20 5.714844 18.570312 5.714844 18.570312 7.074219 L 14.285156 7.101562 L 14.285156 4.285156 L 12.855469 4.285156 L 12.855469 7.109375 L 11.429688 7.117188 L 11.429688 4.285156 Z M 0 14.285156 L 0 1.429688 C 4.285156 1.429688 4.285156 7.144531 7.144531 7.144531 L 7.144531 8.570312 C 4.285156 8.570312 4.285156 14.285156 0 14.285156 Z M 0 14.285156 "/>
</svg>
