<?xml version="1.0" encoding="UTF-8"?>
<svg xmlns="http://www.w3.org/2000/svg" xmlns:xlink="http://www.w3.org/1999/xlink" width="24" height="24" viewBox="0 0 24 24">
<path fill-rule="nonzero" fill="rgb(0%, 0%, 0%)" fill-opacity="1" d="M 3.679688 12.800781 C 3.199219 12.480469 3.199219 10.71875 3.519531 10.078125 C 3.039062 9.441406 3.199219 7.359375 4.800781 4.800781 L 6.078125 3.199219 L 6.078125 2.398438 C 7.679688 1.761719 14.398438 1.921875 15.039062 2.878906 C 15.359375 3.359375 15.199219 4.480469 15.039062 4.480469 C 16.160156 5.601562 16.320312 5.601562 16.800781 7.519531 C 20 8.320312 19.519531 11.679688 22.398438 16 C 22.71875 16.480469 23.199219 17.28125 23.199219 18.398438 C 23.199219 20 22.558594 20.800781 21.601562 20.800781 L 14.398438 20.800781 C 13.761719 20.800781 13.441406 20.320312 13.28125 20 C 12.800781 18.71875 13.601562 14.238281 14.398438 12.800781 C 13.761719 12.160156 13.601562 11.519531 13.601562 10.398438 C 13.121094 9.121094 12 7.679688 10.71875 7.199219 C 9.601562 6.878906 8.800781 6.878906 8 8 C 7.679688 8.960938 7.839844 9.28125 6.878906 10.398438 C 6.878906 10.878906 6.398438 12 5.601562 12.800781 L 6.398438 14.398438 C 6.878906 15.359375 7.519531 17.121094 7.199219 18.398438 C 7.199219 18.398438 6.878906 19.199219 6.398438 19.199219 L 2.398438 19.199219 C 1.601562 19.199219 1.121094 18.078125 2.398438 16.800781 C 2.238281 15.199219 3.199219 12.800781 3.679688 12.800781 Z M 3.679688 12.800781 "/>
</svg>
