<?xml version="1.0" encoding="UTF-8"?>
<svg xmlns="http://www.w3.org/2000/svg" xmlns:xlink="http://www.w3.org/1999/xlink" width="24" height="24" viewBox="0 0 24 24">
<path fill-rule="nonzero" fill="rgb(0%, 0%, 0%)" fill-opacity="1" d="M 14.609375 3.167969 C 15.34375 3.152344 15.921875 3.152344 16.511719 3.152344 C 18.816406 3.199219 20.144531 3.457031 20.640625 4.335938 C 21.390625 5.648438 19.953125 6.929688 16.351562 8.71875 C 15.199219 9.296875 14.382812 9.742188 13.839844 10.113281 C 13.761719 10.160156 13.679688 10.207031 13.617188 10.257812 C 13.761719 10.289062 13.921875 10.335938 14.113281 10.367188 C 14.289062 10.398438 14.910156 10.511719 15.007812 10.527344 C 15.390625 10.609375 15.695312 10.671875 16 10.734375 C 18.542969 11.34375 20 12.367188 20 14.398438 L 20 20.800781 L 12 20.800781 L 12 14.398438 L 18.398438 14.398438 C 18.398438 13.359375 17.519531 12.753906 15.632812 12.304688 C 15.359375 12.238281 15.070312 12.175781 14.703125 12.113281 C 14.609375 12.097656 13.984375 11.96875 13.808594 11.9375 C 13.152344 11.808594 12.769531 11.710938 12.449219 11.550781 C 11.824219 11.265625 11.457031 10.734375 11.695312 10.046875 C 11.96875 9.296875 13.105469 8.558594 15.648438 7.28125 C 17.199219 6.496094 18.257812 5.855469 18.832031 5.359375 C 19.105469 5.121094 19.167969 5.039062 19.214844 5.070312 L 19.230469 5.105469 C 19.023438 4.976562 17.953125 4.785156 16.480469 4.753906 C 15.855469 4.734375 15.230469 4.753906 14.367188 4.769531 C 14.0625 4.785156 13.855469 4.785156 13.710938 4.800781 C 12.175781 7.039062 7.601562 13.390625 0 23.871094 C 6.273438 9.808594 9.632812 2.382812 10.113281 1.566406 C 10.816406 0.335938 12.207031 -0.480469 13.601562 0.320312 C 14.703125 0.960938 14.910156 2.113281 14.609375 3.167969 Z M 9.601562 21.601562 L 9.601562 13.601562 C 9.601562 13.152344 9.953125 12.800781 10.398438 12.800781 C 10.847656 12.800781 11.199219 13.152344 11.199219 13.601562 L 11.199219 21.601562 C 11.199219 22.046875 10.847656 22.398438 10.398438 22.398438 C 9.953125 22.398438 9.601562 22.046875 9.601562 21.601562 Z M 20.800781 21.601562 L 20.800781 13.601562 C 20.800781 13.152344 21.152344 12.800781 21.601562 12.800781 C 22.046875 12.800781 22.398438 13.152344 22.398438 13.601562 L 22.398438 21.601562 C 22.398438 22.046875 22.046875 22.398438 21.601562 22.398438 C 21.152344 22.398438 20.800781 22.046875 20.800781 21.601562 Z M 11.488281 5.566406 L 13.089844 2.800781 C 13.3125 2.414062 13.183594 1.921875 12.800781 1.695312 C 12.414062 1.488281 11.9375 1.617188 11.710938 2 L 10.113281 4.769531 C 9.886719 5.152344 10.015625 5.632812 10.398438 5.855469 C 10.785156 6.078125 11.265625 5.953125 11.488281 5.566406 Z M 11.488281 5.566406 "/>
</svg>
