<?xml version="1.0" encoding="UTF-8"?>
<svg xmlns="http://www.w3.org/2000/svg" xmlns:xlink="http://www.w3.org/1999/xlink" width="20" height="20" viewBox="0 0 20 20">
<path fill-rule="nonzero" fill="rgb(45.098039%, 29.019608%, 3.137255%)" fill-opacity="1" d="M 18.582031 0.00390625 L 4.296875 2.863281 L 4.296875 15.09375 C 3.746094 14.996094 3.171875 14.984375 2.597656 15.136719 C 0.949219 15.578125 -0.277344 17.121094 0.0546875 18.351562 C 0.386719 19.585938 2.199219 20.3125 3.847656 19.871094 C 5.5 19.429688 6.4375 17.960938 6.4375 16.65625 L 6.4375 6.699219 L 16.4375 4.738281 L 16.4375 12.773438 C 15.886719 12.683594 15.3125 12.710938 14.742188 12.863281 C 13.09375 13.300781 11.867188 14.800781 12.195312 16.03125 C 12.527344 17.261719 14.34375 17.988281 15.992188 17.550781 C 17.640625 17.109375 18.582031 15.71875 18.582031 14.289062 Z M 18.582031 0.00390625 "/>
</svg>
