<?xml version="1.0" encoding="UTF-8"?>
<svg xmlns="http://www.w3.org/2000/svg" xmlns:xlink="http://www.w3.org/1999/xlink" width="24" height="24" viewBox="0 0 24 24">
<path fill-rule="nonzero" fill="rgb(0%, 0%, 0%)" fill-opacity="1" d="M 14.398438 13.121094 C 14.398438 13.121094 16 22.398438 16 22.398438 C 16 22.398438 18.398438 22.398438 18.398438 22.398438 C 19.199219 22.398438 19.199219 24 18.398438 24 C 18.398438 24 5.601562 24 5.601562 24 C 4.800781 24 4.800781 22.398438 5.601562 22.398438 C 5.601562 22.398438 8 22.398438 8 22.398438 C 8 22.398438 9.601562 13.121094 9.601562 13.121094 C 11.199219 14.207031 12.800781 14.207031 14.398438 13.121094 Z M 13.441406 19.199219 L 10.558594 19.199219 L 10.078125 22.398438 L 13.921875 22.398438 Z M 12.800781 14.800781 C 12.800781 14.800781 11.199219 14.800781 11.199219 14.800781 L 10.800781 17.601562 L 13.199219 17.601562 C 13.199219 17.601562 12.800781 14.800781 12.800781 14.800781 Z M 15.601562 10.609375 C 15.566406 11.199219 15.296875 12.144531 14.800781 12.640625 C 14.800781 12.640625 20.800781 15.007812 20.800781 15.007812 L 20.800781 23.40625 C 20.800781 24.207031 22.398438 24.207031 22.398438 23.40625 L 22.398438 15.601562 C 23.601562 16 24.398438 13.921875 23.199219 13.519531 C 23.199219 13.519531 15.601562 10.609375 15.601562 10.609375 Z M 5.601562 1.601562 C 0 1.601562 -1.601562 15.199219 2 15.199219 C 3.199219 15.199219 5.183594 8.960938 5.183594 8.960938 C 5.183594 8.960938 8.398438 10.160156 8.398438 10.160156 C 8.398438 9.503906 8.800781 8.609375 9.230469 8.144531 C 9.230469 8.144531 5.9375 6.894531 5.9375 6.894531 C 5.9375 6.894531 7.199219 2.960938 7.199219 2.398438 C 7.199219 2 6.398438 1.601562 5.601562 1.601562 Z M 12 12.800781 C 13.40625 12.800781 14.398438 11.808594 14.398438 10.398438 C 14.398438 9.007812 13.40625 8 12 8 C 10.609375 8 9.601562 9.023438 9.601562 10.433594 C 9.601562 11.824219 10.609375 12.800781 12 12.800781 Z M 12 12.800781 "/>
</svg>
