<?xml version="1.0" encoding="UTF-8"?>
<svg xmlns="http://www.w3.org/2000/svg" xmlns:xlink="http://www.w3.org/1999/xlink" width="20" height="20" viewBox="0 0 20 20">
<path fill-rule="nonzero" fill="rgb(67.45098%, 22.352941%, 67.45098%)" fill-opacity="1" d="M 7.144531 4.285156 L 0 8.570312 C 0 11.429688 0.355469 15.714844 1.785156 15.714844 L 7.144531 15.714844 C 8.570312 15.714844 8.929688 10.714844 8.929688 10.714844 C 9.667969 10.355469 10.332031 10.355469 11.070312 10.714844 C 11.070312 10.714844 11.429688 15.714844 12.855469 15.714844 L 18.214844 15.714844 C 19.644531 15.714844 20 11.429688 20 8.570312 L 12.855469 4.285156 C 12.171875 3.890625 11.609375 5.351562 12.855469 6.070312 L 17.144531 8.570312 L 2.855469 8.570312 L 7.144531 6.070312 C 8.460938 5.3125 7.664062 3.984375 7.144531 4.285156 Z M 1.785156 10.355469 L 7.144531 10.355469 L 6.429688 13.929688 L 2.5 13.929688 Z M 12.855469 10.355469 L 18.214844 10.355469 L 17.5 13.929688 L 13.570312 13.929688 Z M 12.855469 10.355469 "/>
</svg>
