<?xml version="1.0" encoding="UTF-8" standalone="no"?>
<svg
   fill="none"
   viewBox="0 0 23.847681 23.847323"
   version="1.1"
   id="svg2"
   sodipodi:docname="orange_orange.svg"
   width="23.847681"
   height="23.847322"
   inkscape:version="1.3.2 (091e20e, 2023-11-25, custom)"
   xmlns:inkscape="http://www.inkscape.org/namespaces/inkscape"
   xmlns:sodipodi="http://sodipodi.sourceforge.net/DTD/sodipodi-0.dtd"
   xmlns="http://www.w3.org/2000/svg"
   xmlns:svg="http://www.w3.org/2000/svg">
  <defs
     id="defs2" />
  <sodipodi:namedview
     id="namedview2"
     pagecolor="#ffffff"
     bordercolor="#666666"
     borderopacity="1.0"
     inkscape:showpageshadow="2"
     inkscape:pageopacity="0.0"
     inkscape:pagecheckerboard="0"
     inkscape:deskcolor="#d1d1d1"
     inkscape:zoom="5.7571429"
     inkscape:cx="37.51861"
     inkscape:cy="58.449131"
     inkscape:window-width="1920"
     inkscape:window-height="1017"
     inkscape:window-x="-8"
     inkscape:window-y="-8"
     inkscape:window-maximized="1"
     inkscape:current-layer="svg2" />
  <ellipse
     style="fill:#ffffff;stroke:#f9f9f9;stroke-width:0.653325;stroke-linecap:round;paint-order:stroke markers fill"
     id="path3"
     cx="11.984967"
     cy="11.744988"
     rx="10.45165"
     ry="9.8498278" />
  <path
     clip-rule="evenodd"
     d="m 23.313602,10.49955 c -0.0045,0.223274 -0.009,0.446972 0.0012,0.629152 0.07337,1.00612 0.04861,2.183738 -0.0619,2.932611 -0.208672,1.337683 -0.625983,2.822069 -1.325302,4.097817 -0.172674,0.326009 -0.405257,0.607265 -0.639148,0.890057 -0.06549,0.07922 -0.131057,0.158529 -0.195474,0.238986 -0.04776,0.06043 -0.09525,0.121453 -0.142817,0.182604 -0.270379,0.347471 -0.54373,0.698829 -0.888065,0.97022 -0.130207,0.09476 -0.291938,0.235524 -0.450663,0.373669 -0.170028,0.147946 -0.336626,0.292918 -0.457327,0.375205 -0.317647,0.211775 -0.660218,0.351978 -0.993217,0.488295 -0.284295,0.116357 -0.561566,0.229839 -0.810384,0.382521 -0.736461,0.465919 -1.901698,1.091869 -3.312749,1.152857 -0.06942,0 -0.199983,0.01486 -0.377197,0.03502 -0.44792,0.05093 -1.19382,0.135761 -2.0028,0.100286 -0.02656,0 -0.04926,-0.0036 -0.07036,-0.0069 -0.01826,-0.0029 -0.03531,-0.0055 -0.05256,-0.0055 -1.255165,-0.061 -2.6289436,-0.359932 -3.3101654,-0.508171 -0.1378842,-0.02999 -0.2473814,-0.0538 -0.3217951,-0.06824 C 6.666102,22.487831 5.9946475,21.927115 5.2771989,21.328049 4.9274414,21.035947 4.5667082,20.734732 4.1242439,20.453378 3.1417087,19.840886 2.5943238,18.791548 1.9697617,17.594265 1.9317479,17.521387 1.89345,17.447953 1.8547504,17.374062 1.364074,16.44131 0.98392391,15.299886 0.77526766,14.122268 0.74566453,13.963053 0.71051272,13.801649 0.67517373,13.639396 0.59336309,13.2638 0.51054898,12.883565 0.49324976,12.514959 0.47517226,12.079681 0.53951933,11.586421 0.60386137,11.093226 0.66838078,10.598659 0.7328953,10.104125 0.7142909,9.6680961 0.70190484,7.8769082 1.904292,5.4473567 2.8865919,4.4307833 4.6201175,2.653214 5.0265835,2.416485 6.1291997,1.774306 6.2670839,1.693996 6.4158786,1.6073455 6.5795038,1.5105457 6.6611367,1.4632025 6.7370858,1.4185967 6.8085595,1.3766141 7.4777927,0.98347913 7.7560764,0.82002054 8.6651125,0.78644683 10.432487,0.56540579 12.027416,0.39390836 13.401293,0.55301973 c 1.828362,0.20865531 3.435671,0.80984837 5.312608,1.76642367 0.465657,0.2470678 0.760895,0.6157194 1.095626,1.0336905 0.247447,0.3089605 0.516453,0.6448871 0.891821,0.97854 0.981359,0.9203713 1.594929,1.9264915 1.975099,3.1412509 0.06246,0.1970755 0.127496,0.3791244 0.191391,0.5579394 0.174928,0.4895689 0.341232,0.9549975 0.422179,1.6382119 0.03642,0.1943641 0.03002,0.5119449 0.02359,0.8304739 z m -2.808513,4.112451 c 0.07337,-0.196259 0.121943,-0.330615 0.171498,-0.551668 C 20.9224,12.907509 20.933833,10.92003 20.762336,9.9748974 20.443154,8.3065999 19.69526,6.9565369 18.885399,5.9018421 18.416442,5.3014366 17.567806,4.7983765 16.86754,4.3833193 16.781072,4.3320659 16.696859,4.2821519 16.615912,4.2335446 15.462108,3.546603 14.431226,3.1416788 12.762929,3.006385 12.677179,3.000195 12.594273,2.993998 12.511399,2.987805 12.428489,2.981615 12.345618,2.975421 12.259869,2.969228 11.71382,2.9632329 11.233626,3.0867178 10.737393,3.2143318 10.208462,3.350354 9.6612695,3.4910638 8.9966748,3.4846743 8.3097365,3.5580361 7.6837534,3.7543047 7.1197054,4.07348 L 7.0958914,4.087559 C 6.4982302,4.4408445 5.7389035,4.8896133 5.291376,5.3616078 3.990835,6.7974197 3.2057672,8.4904782 3.1076313,10.576087 c -0.0064,0.117958 -0.01387,0.235687 -0.021351,0.353514 -0.049326,0.777064 -0.098988,1.559421 0.1566445,2.443794 0.1962686,0.540234 0.3306085,0.945165 0.4535152,1.4968 0.065764,0.325682 0.2658444,0.65682 0.4648472,0.986161 0.100808,0.166859 0.2013547,0.333261 0.2840329,0.498258 0.083397,0.16418 0.1606199,0.328296 0.2375489,0.49179 0.2280104,0.484506 0.4534074,0.963524 0.8295265,1.422288 0.5888089,0.699352 1.1776179,1.300541 2.2694869,1.680678 0.9813592,0.343943 2.2580546,0.786048 3.6195506,0.847003 0.608082,0.02247 1.211623,-0.04034 1.775508,-0.09901 0.369128,-0.03842 0.72127,-0.07507 1.046594,-0.08487 0.07954,0 0.162449,-0.0031 0.245323,-0.0062 0.08291,-0.0031 0.165781,-0.0062 0.245323,-0.0062 1.214793,-0.04857 2.244726,-0.809861 3.398531,-1.864556 0.07337,-0.07432 0.785067,-0.687886 0.858436,-0.748873 0.859383,-0.798429 1.153804,-1.742614 1.350063,-2.552442 0.01215,-0.0586 0.0243,-0.118677 0.03652,-0.178848 0.04906,-0.242188 0.09852,-0.486204 0.147357,-0.643394 z"
     fill="#ef7d00"
     fill-rule="evenodd"
     id="path1"
     style="stroke:#ffffff;stroke-width:0.979987;stroke-dasharray:none;stroke-opacity:1;paint-order:stroke fill markers" />
  <path
     d="m 17.560064,6.9317759 c -0.39255,-0.1228904 -0.932752,-0.024761 -1.484419,-0.037141 -0.945132,-0.01238 -0.895578,0 -2.392377,0 -0.650745,0 -2.319042,0.060988 -3.9511128,0.060988 -1.0061201,0 -1.9998598,-0.037174 -2.7115592,-0.1229231 C 6.308864,6.648821 5.8058039,7.6425606 5.8058039,8.0103171 c 0,1.1899985 -0.1714977,1.8531231 0.945165,1.7426132 0.8831971,0.012381 1.8159489,-0.147684 2.7115592,-0.122923 0.2696271,0 0.4049307,0 0.6745579,0 0.50306,0 0.564015,0.2086719 0.551635,0.7364927 -0.03714,1.11663 -0.01238,2.012241 0.01238,3.091729 0.02479,0.748874 0.01241,1.484387 -0.03714,2.22088 -0.04955,0.724112 0,1.742613 0,2.465745 0,0.245814 0,0.429692 0,0.576429 0.01238,0.147684 0.09813,0.257247 0.319182,0.355376 0.245813,0.122923 0.601189,0.07337 1.0185,0.06099 0.404931,-0.01238 0.736493,0.01238 0.932752,-0.03717 0.183878,-0.03714 0.245814,-0.282008 0.196259,-0.748874 -0.02476,-0.282008 0.03717,-0.540201 0.03717,-0.699319 -0.02476,-0.920371 -0.06099,-1.889317 -0.02479,-2.662004 0,-0.122923 -0.01238,-1.275748 -0.03714,-1.619723 0,-1.202379 0.06099,-1.202379 0.06099,-2.404758 0,-0.61357 -0.06099,-0.9689785 0.08575,-1.1652373 0.09813,-0.1353036 0.257246,-0.1838783 0.662144,-0.1838783 0.932785,0 1.557788,0 2.50292,0 0.429692,0 0.772687,0.073368 1.177618,0.060988 0.319182,0 0.453505,-0.6259831 0.442072,-0.8470029 -0.01238,-0.1353036 0,-0.3315623 -0.01238,-0.5402343 C 18.014518,7.7788176 18.173639,7.140454 17.560069,6.931782 Z"
     fill="#ef7d00"
     id="path2"
     style="stroke-width:0.326662" />
</svg>
