<?xml version="1.0" encoding="UTF-8"?>
<svg xmlns="http://www.w3.org/2000/svg" xmlns:xlink="http://www.w3.org/1999/xlink" width="20" height="20" viewBox="0 0 20 20">
<path fill-rule="nonzero" fill="rgb(18.431373%, 38.039216%, 20%)" fill-opacity="1" d="M 10.011719 0 L 0 4.285156 L 0 5.714844 L 9.285156 5.714844 L 9.285156 11.429688 L 2.855469 11.429688 L 2.855469 12.855469 L 9.285156 12.855469 L 9.285156 20 L 10.714844 20 L 10.714844 12.855469 L 17.144531 12.855469 L 17.144531 11.429688 L 10.714844 11.429688 L 10.714844 5.714844 L 20 5.714844 L 20 4.285156 Z M 0 8.570312 C 0 12.382812 0 16.191406 0 20 L 1.429688 20 L 1.429688 17.144531 L 4.285156 17.144531 L 4.285156 20 L 5.714844 20 C 5.714844 18.570312 5.714844 17.144531 5.714844 15.714844 C 4.285156 15.714844 2.855469 15.714844 1.429688 15.714844 L 1.429688 8.570312 Z M 18.570312 8.570312 L 18.570312 15.714844 C 17.144531 15.714844 15.714844 15.714844 14.285156 15.714844 C 14.285156 17.144531 14.285156 18.570312 14.285156 20 L 15.714844 20 L 15.714844 17.144531 L 18.570312 17.144531 L 18.570312 20 L 20 20 C 20 16.191406 20 12.382812 20 8.570312 Z M 18.570312 8.570312 "/>
</svg>
