<?xml version="1.0" encoding="UTF-8"?>
<svg xmlns="http://www.w3.org/2000/svg" xmlns:xlink="http://www.w3.org/1999/xlink" width="20" height="20" viewBox="0 0 20 20">
<path fill-rule="evenodd" fill="rgb(67.45098%, 22.352941%, 67.45098%)" fill-opacity="1" d="M 7.855469 1.449219 C 7.289062 1.449219 6.742188 1.675781 6.34375 2.078125 C 5.941406 2.480469 5.714844 3.027344 5.714844 3.59375 C 5.714844 4.160156 5.941406 4.707031 6.34375 5.109375 C 6.742188 5.511719 7.289062 5.738281 7.855469 5.738281 C 8.425781 5.738281 8.96875 5.511719 9.371094 5.109375 C 9.773438 4.707031 10 4.160156 10 3.59375 C 10 3.027344 9.773438 2.480469 9.371094 2.078125 C 8.96875 1.675781 8.425781 1.449219 7.855469 1.449219 Z M 14.285156 2.855469 L 11.429688 4.285156 L 15.714844 12.855469 L 18.570312 11.429688 Z M 11.429688 5.714844 L 8.570312 7.144531 L 8.992188 9.242188 L 5.714844 11.429688 L 1.429688 10 L 1.429688 11.429688 L 5.714844 14.285156 L 9.496094 11.761719 L 10 14.285156 L 14.285156 12.855469 Z M 1.429688 12.855469 L 1.429688 20 L 2.855469 20 L 2.855469 12.855469 Z M 14.285156 14.285156 L 10 15.714844 L 7.144531 20 L 9.761719 20 L 11.949219 17.144531 L 12.855469 20 L 15.714844 20 Z M 14.285156 14.285156 "/>
</svg>
