<?xml version="1.0" encoding="UTF-8"?>
<svg xmlns="http://www.w3.org/2000/svg" xmlns:xlink="http://www.w3.org/1999/xlink" width="20" height="20" viewBox="0 0 20 20">
<path fill-rule="nonzero" fill="rgb(67.45098%, 22.352941%, 67.45098%)" fill-opacity="1" d="M 1.429688 0 C 0.636719 0 0 0.636719 0 1.429688 L 0 4.285156 C 0 5.078125 0.636719 5.714844 1.429688 5.714844 L 15.714844 5.714844 C 16.503906 5.714844 17.144531 5.078125 17.144531 4.285156 L 17.144531 3.570312 L 18.570312 3.570312 L 18.570312 7.144531 C 15.238281 7.144531 11.90625 7.144531 8.570312 7.144531 L 8.570312 10 L 7.144531 10 L 7.144531 20 L 11.429688 20 L 11.429688 10 L 10 10 L 10 8.570312 C 13.332031 8.570312 16.667969 8.570312 20 8.570312 L 20 2.144531 C 19.046875 2.144531 18.09375 2.144531 17.144531 2.144531 L 17.144531 1.429688 C 17.144531 0.636719 16.503906 0 15.714844 0 Z M 1.429688 0 "/>
</svg>
