<?xml version="1.0" encoding="UTF-8"?>
<svg xmlns="http://www.w3.org/2000/svg" xmlns:xlink="http://www.w3.org/1999/xlink" width="20" height="20" viewBox="0 0 20 20">
<path fill-rule="evenodd" fill="rgb(0%, 57.254902%, 85.490196%)" fill-opacity="1" d="M 4.285156 1.429688 L 4.285156 18.570312 L 6.785156 18.570312 L 6.785156 11.429688 L 12.855469 11.429688 C 13.992188 11.429688 15.082031 10.902344 15.886719 9.964844 C 16.691406 9.027344 17.144531 7.753906 17.144531 6.429688 C 17.144531 5.101562 16.691406 3.832031 15.886719 2.894531 C 15.082031 1.957031 13.992188 1.429688 12.855469 1.429688 Z M 6.785156 3.929688 L 6.785156 8.929688 L 12.144531 8.929688 C 12.742188 8.929688 13.316406 8.664062 13.738281 8.195312 C 14.164062 7.726562 14.398438 7.089844 14.398438 6.429688 C 14.398438 5.765625 14.164062 5.128906 13.738281 4.660156 C 13.316406 4.191406 12.742188 3.929688 12.144531 3.929688 Z M 6.785156 3.929688 "/>
</svg>
