<?xml version="1.0" encoding="UTF-8"?>
<svg xmlns="http://www.w3.org/2000/svg" xmlns:xlink="http://www.w3.org/1999/xlink" width="24" height="24" viewBox="0 0 24 24">
<path fill-rule="nonzero" fill="rgb(0%, 0%, 0%)" fill-opacity="1" d="M 12.878906 5.601562 L 20.71875 5.601562 C 20.769531 5.855469 20.800781 6.128906 20.800781 6.398438 C 20.800781 8.609375 19.007812 10.398438 16.800781 10.398438 C 14.59375 10.398438 12.800781 8.609375 12.800781 6.398438 C 12.800781 6.128906 12.832031 5.855469 12.878906 5.601562 Z M 20.464844 4.800781 L 10 4.800781 C 9.777344 4.800781 9.601562 4.625 9.601562 4.398438 C 9.601562 4.160156 9.742188 3.9375 9.96875 3.839844 L 12.800781 2.527344 L 12.800781 1.070312 C 12.800781 0.625 13.152344 0.273438 13.601562 0.273438 C 13.664062 0.273438 13.742188 0.273438 13.808594 0.289062 C 17.105469 1.167969 19.441406 1.601562 20.800781 1.601562 C 21.105469 1.601562 21.375 1.601562 21.601562 1.601562 C 22.046875 1.601562 22.398438 1.953125 22.398438 2.398438 L 22.398438 4 C 22.398438 4.449219 22.046875 4.800781 21.601562 4.800781 Z M 22.398438 11.199219 L 22.398438 21.601562 C 22.398438 22.046875 22.03125 22.398438 21.601562 22.398438 L 12.800781 22.367188 Z M 11.199219 21.601562 L 11.199219 14.398438 L 3.199219 14.398438 C 2.320312 14.398438 1.601562 13.679688 1.601562 12.800781 C 1.601562 11.921875 2.320312 11.199219 3.199219 11.199219 L 20 11.199219 Z M 2.398438 1.601562 L 7.199219 1.601562 C 7.648438 1.601562 8 1.953125 8 2.398438 L 8 8.800781 C 8 9.246094 7.648438 9.601562 7.199219 9.601562 L 2.398438 9.601562 C 1.953125 9.601562 1.601562 9.246094 1.601562 8.800781 L 1.601562 2.398438 C 1.601562 1.953125 1.953125 1.601562 2.398438 1.601562 Z M 4.800781 3.199219 C 3.921875 3.199219 3.199219 3.921875 3.199219 4.800781 C 3.199219 5.679688 3.921875 6.398438 4.800781 6.398438 C 5.679688 6.398438 6.398438 5.679688 6.398438 4.800781 C 6.398438 3.921875 5.679688 3.199219 4.800781 3.199219 Z M 4.800781 3.199219 "/>
</svg>
