<?xml version="1.0" encoding="UTF-8"?>
<svg xmlns="http://www.w3.org/2000/svg" xmlns:xlink="http://www.w3.org/1999/xlink" width="24" height="24" viewBox="0 0 24 24">
<path fill-rule="nonzero" fill="rgb(0%, 0%, 0%)" fill-opacity="1" d="M 2.398438 1.601562 C 2.847656 1.601562 3.199219 1.953125 3.199219 2.398438 L 3.199219 21.601562 C 3.199219 22.046875 2.847656 22.398438 2.398438 22.398438 C 1.953125 22.398438 1.601562 22.046875 1.601562 21.601562 L 1.601562 2.398438 C 1.601562 1.953125 1.953125 1.601562 2.398438 1.601562 Z M 21.601562 1.601562 C 22.046875 1.601562 22.398438 1.953125 22.398438 2.398438 L 22.398438 21.601562 C 22.398438 22.046875 22.046875 22.398438 21.601562 22.398438 C 21.152344 22.398438 20.800781 22.046875 20.800781 21.601562 L 20.800781 2.398438 C 20.800781 1.953125 21.152344 1.601562 21.601562 1.601562 Z M 14.398438 5.199219 C 14.398438 6.304688 13.503906 7.199219 12.398438 7.199219 C 11.296875 7.199219 10.398438 6.304688 10.398438 5.199219 C 10.398438 4.097656 11.296875 3.199219 12.398438 3.199219 C 13.503906 3.199219 14.398438 4.097656 14.398438 5.199219 Z M 10.398438 7.601562 L 11.601562 7.601562 L 18.398438 12.367188 L 18.398438 13.472656 L 17.601562 13.472656 L 13.601562 10.625 L 13.601562 13.472656 L 15.199219 16.398438 L 16.800781 20.0625 L 16 20.800781 L 15.199219 20.800781 L 13.601562 17.136719 L 10.398438 12.734375 L 10.398438 9.3125 L 8.398438 10.894531 L 6.800781 13.472656 L 5.601562 13.472656 L 5.601562 12.734375 L 6.800781 10.527344 Z M 11.070312 15.230469 L 9.230469 20.800781 L 8.398438 20.800781 L 7.601562 20.0625 L 9.855469 13.871094 Z M 11.070312 15.230469 "/>
</svg>
