<?xml version="1.0" encoding="UTF-8"?>
<svg xmlns="http://www.w3.org/2000/svg" xmlns:xlink="http://www.w3.org/1999/xlink" width="20" height="20" viewBox="0 0 20 20">
<path fill-rule="nonzero" fill="rgb(67.45098%, 22.352941%, 67.45098%)" fill-opacity="1" d="M 13.445312 0.00390625 C 11.671875 0.207031 10.660156 2.15625 10.535156 3.847656 C 10.324219 5.351562 10.980469 7.269531 12.558594 7.617188 C 13.929688 7.738281 15.019531 6.453125 15.464844 5.226562 C 15.992188 3.691406 16.007812 1.640625 14.726562 0.488281 C 14.371094 0.179688 13.914062 -0.0078125 13.445312 0.00390625 Z M 6.199219 0.0820312 C 4.722656 0.191406 3.964844 1.910156 4.066406 3.289062 C 4.078125 5.132812 5.09375 7.207031 6.9375 7.644531 C 8.316406 7.792969 9.234375 6.332031 9.320312 5.054688 C 9.496094 3.101562 8.628906 0.734375 6.667969 0.140625 C 6.515625 0.101562 6.359375 0.078125 6.199219 0.0820312 Z M 18.078125 6.003906 C 16.09375 6.152344 14.839844 8.265625 14.753906 10.175781 C 14.652344 11.417969 15.453125 12.984375 16.808594 12.898438 C 18.832031 12.683594 20.050781 10.425781 20 8.46875 C 19.988281 7.339844 19.273438 6.050781 18.078125 6.003906 Z M 0.015625 8.582031 C -0.167969 10.699219 1.3125 13.09375 3.464844 13.226562 C 4.769531 13.136719 5.382812 11.625 5.234375 10.425781 C 5.113281 8.65625 3.933594 6.847656 2.398438 6.609375 C 0.859375 6.375 -0.0078125 7.460938 0.015625 8.582031 Z M 10.226562 10.390625 C 8.210938 10.394531 6.367188 11.710938 5.378906 13.496094 C 4.554688 14.832031 3.878906 16.339844 3.75 17.933594 C 3.777344 19.160156 4.953125 20.183594 6.125 19.941406 C 7.804688 19.722656 9.300781 18.558594 11.046875 18.777344 C 12.496094 18.890625 13.6875 20.015625 15.152344 20 C 16.574219 20.050781 17.390625 18.425781 16.851562 17.148438 C 16.265625 15.324219 15.136719 13.734375 13.925781 12.304688 C 12.957031 11.253906 11.6875 10.34375 10.226562 10.390625 Z M 10.226562 10.390625 "/>
</svg>
