<?xml version="1.0" encoding="UTF-8"?>
<svg xmlns="http://www.w3.org/2000/svg" xmlns:xlink="http://www.w3.org/1999/xlink" width="24" height="24" viewBox="0 0 24 24">
<path fill-rule="nonzero" fill="rgb(0%, 0%, 0%)" fill-opacity="1" d="M 16.847656 5.015625 C 17.75 5.015625 18.480469 4.265625 18.480469 3.339844 C 18.480469 2.417969 17.75 1.671875 16.847656 1.671875 C 15.957031 1.671875 15.222656 2.417969 15.222656 3.339844 C 15.222656 4.265625 15.949219 5.019531 16.847656 5.019531 Z M 18.0625 5.390625 L 15.6875 5.390625 L 11.636719 1.222656 C 11.320312 0.882812 10.796875 0.863281 10.460938 1.195312 C 10.128906 1.523438 10.109375 2.0625 10.425781 2.40625 L 14.660156 6.761719 L 14.660156 21.210938 C 14.660156 21.734375 15.066406 22.15625 15.570312 22.15625 C 16.078125 22.15625 16.488281 21.738281 16.488281 21.214844 L 16.488281 13.378906 L 17.226562 13.378906 L 17.230469 21.214844 C 17.230469 21.738281 17.644531 22.160156 18.148438 22.160156 C 18.652344 22.160156 19.0625 21.742188 19.0625 21.222656 L 19.054688 6.773438 L 23.289062 2.414062 C 23.605469 2.074219 23.59375 1.53125 23.257812 1.203125 C 22.925781 0.875 22.398438 0.886719 22.078125 1.234375 L 18.058594 5.398438 Z M 9.453125 11.765625 C 9.207031 11.503906 8.867188 11.351562 8.492188 11.351562 L 5.082031 11.351562 C 4.707031 11.351562 4.367188 11.503906 4.128906 11.765625 L 0.710938 15.28125 C 0.394531 15.625 0.402344 16.167969 0.738281 16.492188 C 1.070312 16.820312 1.601562 16.808594 1.914062 16.464844 L 4.566406 13.738281 L 4.566406 17.378906 L 1.59375 17.378906 C 1.046875 17.378906 0.605469 17.832031 0.605469 18.398438 C 0.605469 18.691406 0.710938 18.949219 0.90625 19.136719 L 4.253906 22.578125 C 4.550781 23.027344 5.125 23.167969 5.585938 22.894531 C 6.078125 22.609375 6.234375 21.972656 5.957031 21.480469 L 4.046875 19.523438 L 4.085938 19.527344 L 9.566406 19.527344 L 7.652344 21.484375 C 7.378906 21.980469 7.539062 22.617188 8.019531 22.902344 C 8.480469 23.179688 9.066406 23.035156 9.363281 22.589844 L 12.710938 19.148438 C 12.902344 18.960938 13.011719 18.699219 13.011719 18.40625 C 13.011719 17.847656 12.570312 17.390625 12.023438 17.390625 L 9.058594 17.390625 L 9.058594 13.785156 L 11.660156 16.472656 C 11.976562 16.8125 12.5 16.828125 12.835938 16.503906 C 13.167969 16.175781 13.179688 15.636719 12.863281 15.292969 L 9.453125 11.769531 Z M 6.820312 10.992188 C 7.71875 10.992188 8.441406 10.242188 8.441406 9.320312 C 8.441406 8.394531 7.71875 7.652344 6.824219 7.652344 C 5.929688 7.652344 5.199219 8.394531 5.199219 9.320312 C 5.199219 10.242188 5.929688 10.992188 6.824219 10.992188 Z M 6.820312 10.992188 "/>
</svg>
