<?xml version="1.0" encoding="UTF-8"?>
<svg xmlns="http://www.w3.org/2000/svg" xmlns:xlink="http://www.w3.org/1999/xlink" width="24" height="24" viewBox="0 0 24 24">
<path fill-rule="nonzero" fill="rgb(0%, 0%, 0%)" fill-opacity="1" d="M 10.65625 10.71875 L 13.472656 13.550781 L 9.617188 17.425781 C 8.433594 18.609375 7.441406 19.96875 6.6875 21.472656 L 5.777344 23.296875 C 5.648438 23.566406 5.375 23.726562 5.070312 23.726562 L 3.296875 23.726562 L 1.039062 21.472656 C 0.71875 21.152344 0.71875 20.65625 1.039062 20.335938 Z M 17.441406 5.070312 L 19.136719 6.769531 C 19.457031 7.070312 19.457031 7.585938 19.136719 7.886719 L 18 9.023438 L 15.183594 6.191406 L 16.304688 5.070312 C 16.625 4.753906 17.121094 4.753906 17.441406 5.070312 Z M 22.046875 18.71875 L 16.304688 12.976562 C 15.679688 12.351562 14.671875 12.351562 14.046875 12.976562 L 11.214844 10.160156 C 11.695312 9.679688 11.695312 8.894531 11.214844 8.414062 C 11.136719 8.335938 11.054688 8.273438 10.960938 8.222656 L 6.976562 5.921875 L 4.703125 3.648438 L 8.113281 0.257812 L 17.441406 9.585938 L 23.183594 17.601562 Z M 22.046875 18.71875 "/>
</svg>
