<?xml version="1.0" encoding="UTF-8"?>
<svg xmlns="http://www.w3.org/2000/svg" xmlns:xlink="http://www.w3.org/1999/xlink" width="24" height="24" viewBox="0 0 24 24">
<path fill-rule="nonzero" fill="rgb(0%, 0%, 0%)" fill-opacity="1" d="M 6.398438 11.199219 L 6.398438 22.398438 L 3.199219 22.398438 L 3.199219 12.449219 L 1.601562 13.054688 L 1.601562 9.601562 L 22.398438 1.601562 L 22.398438 5.023438 Z M 10.800781 11.199219 L 19.601562 11.199219 C 20.273438 11.199219 20.800781 11.726562 20.800781 12.398438 C 20.800781 13.070312 20.273438 13.601562 19.601562 13.601562 L 17.601562 13.601562 L 18.335938 16 L 21.199219 16 C 21.871094 16 22.398438 16.527344 22.398438 17.199219 C 22.398438 17.871094 21.871094 18.398438 21.199219 18.398438 L 19.070312 18.398438 L 20.800781 22.398438 L 19.199219 22.398438 L 17.472656 18.398438 L 12.929688 18.398438 L 11.199219 22.398438 L 9.601562 22.398438 L 11.328125 18.398438 L 9.199219 18.398438 C 8.527344 18.398438 8 17.871094 8 17.199219 C 8 16.527344 8.527344 16 9.199219 16 L 12.0625 16 L 12.800781 13.601562 L 10.800781 13.601562 C 10.128906 13.601562 9.601562 13.070312 9.601562 12.398438 C 9.601562 11.726562 10.128906 11.199219 10.800781 11.199219 Z M 14.398438 13.601562 L 13.664062 16 L 16.734375 16 L 16 13.601562 Z M 14.398438 13.601562 "/>
</svg>
