<?xml version="1.0" encoding="UTF-8"?>
<svg xmlns="http://www.w3.org/2000/svg" xmlns:xlink="http://www.w3.org/1999/xlink" width="24" height="24" viewBox="0 0 24 24">
<path fill-rule="nonzero" fill="rgb(0%, 0%, 0%)" fill-opacity="1" d="M 7.390625 7.617188 L 5.808594 10.785156 L 16.945312 8.304688 L 15.695312 5.777344 Z M 8.304688 5.777344 L 14.945312 4.304688 L 14.398438 3.199219 L 9.601562 3.199219 Z M 4.894531 12.625 L 4.800781 12.800781 L 19.199219 12.800781 L 17.695312 9.777344 Z M 19.199219 20.785156 C 19.425781 20.769531 19.648438 20.671875 19.839844 20.511719 L 20.59375 19.871094 C 21.105469 19.457031 21.742188 19.230469 22.398438 19.246094 L 22.398438 20.800781 C 21.984375 20.832031 21.585938 21.023438 21.3125 21.34375 C 20.878906 21.792969 20.320312 22.113281 19.710938 22.273438 C 18.734375 22.558594 17.664062 22.351562 16.878906 21.695312 L 16.257812 21.152344 C 15.777344 20.671875 14.976562 20.671875 14.496094 21.152344 C 14.273438 21.34375 14.0625 21.535156 13.824219 21.726562 C 12.65625 22.640625 10.976562 22.609375 9.855469 21.617188 L 9.230469 21.070312 C 8.769531 20.6875 8.097656 20.6875 7.632812 21.070312 C 7.328125 21.3125 7.054688 21.566406 6.753906 21.808594 C 5.632812 22.625 4.078125 22.59375 2.992188 21.710938 L 2.496094 21.296875 C 2.273438 21.023438 1.953125 20.863281 1.601562 20.800781 L 1.601562 19.246094 C 2.015625 19.183594 2.433594 19.265625 2.800781 19.457031 C 3.246094 19.726562 3.664062 20.03125 4.0625 20.367188 C 4.320312 20.640625 4.671875 20.785156 5.039062 20.800781 C 5.105469 20.785156 5.183594 20.785156 5.265625 20.785156 C 5.296875 20.769531 5.328125 20.769531 5.359375 20.753906 C 5.535156 20.703125 5.710938 20.625 5.855469 20.511719 C 6.113281 20.320312 6.320312 20.097656 6.574219 19.902344 C 7.710938 18.976562 9.359375 18.976562 10.496094 19.902344 C 10.753906 20.097656 10.992188 20.335938 11.246094 20.542969 C 11.710938 20.929688 12.382812 20.929688 12.847656 20.542969 C 13.105469 20.335938 13.34375 20.097656 13.601562 19.902344 C 14.734375 18.960938 16.398438 18.960938 17.535156 19.902344 C 17.777344 20.097656 18 20.320312 18.238281 20.511719 C 18.449219 20.6875 18.6875 20.785156 18.945312 20.800781 C 19.023438 20.800781 19.121094 20.785156 19.199219 20.785156 Z M 1.601562 12.800781 L 8 1.601562 L 16 1.601562 L 22.398438 12.800781 L 22.398438 16 L 19.199219 16 L 19.199219 19.183594 C 18.863281 19.230469 18.511719 19.136719 18.238281 18.910156 C 18 18.71875 17.777344 18.496094 17.535156 18.304688 C 17.089844 17.9375 16.542969 17.710938 16 17.632812 L 16 16 L 8 16 L 8 17.648438 C 7.488281 17.742188 6.992188 17.953125 6.574219 18.304688 C 6.320312 18.496094 6.113281 18.71875 5.855469 18.910156 C 5.710938 19.023438 5.535156 19.105469 5.359375 19.152344 C 5.167969 19.199219 4.976562 19.199219 4.800781 19.167969 L 4.800781 16 L 1.601562 16 Z M 1.601562 12.800781 "/>
</svg>
