<?xml version="1.0" encoding="UTF-8"?>
<svg xmlns="http://www.w3.org/2000/svg" xmlns:xlink="http://www.w3.org/1999/xlink" width="24" height="24" viewBox="0 0 24 24">
<path fill-rule="nonzero" fill="rgb(0%, 0%, 0%)" fill-opacity="1" d="M 6.398438 0 C 7.472656 0 8 1.070312 8 3.199219 L 8 4 L 12.800781 8 L 12.800781 9.601562 L 8 8 L 8 11.199219 L 9.601562 12.800781 L 9.601562 14.398438 L 6.398438 12.800781 L 3.199219 14.398438 L 3.199219 12.800781 L 4.800781 11.199219 L 4.800781 8 L 0 9.601562 L 0 8 L 4.800781 4 L 4.800781 3.199219 C 4.800781 1.070312 5.328125 0 6.398438 0 Z M 17.601562 9.601562 C 18.671875 9.601562 19.199219 10.671875 19.199219 12.800781 L 19.199219 13.601562 L 24 17.601562 L 24 19.199219 L 19.199219 17.601562 L 19.199219 20.800781 L 20.800781 22.398438 L 20.800781 24 L 17.601562 22.398438 L 14.398438 24 L 14.398438 22.398438 L 16 20.800781 L 16 17.601562 L 11.199219 19.199219 L 11.199219 17.601562 L 16 13.601562 L 16 12.800781 C 16 10.671875 16.527344 9.601562 17.601562 9.601562 Z M 17.601562 9.601562 "/>
</svg>
