<?xml version="1.0" encoding="UTF-8"?>
<svg xmlns="http://www.w3.org/2000/svg" xmlns:xlink="http://www.w3.org/1999/xlink" width="20" height="20" viewBox="0 0 20 20">
<path fill-rule="nonzero" fill="rgb(0%, 54.901961%, 5.098039%)" fill-opacity="1" d="M 4.867188 1.429688 C 3.789062 1.496094 2.855469 2.492188 2.855469 3.570312 C 2.859375 4.691406 3.878906 5.714844 5 5.714844 C 6.121094 5.714844 7.140625 4.691406 7.144531 3.570312 C 7.144531 2.402344 6.03125 1.355469 4.867188 1.429688 Z M 16.292969 5.714844 C 15.21875 5.78125 14.285156 6.777344 14.285156 7.855469 C 14.285156 8.980469 15.308594 10 16.429688 10 C 17.550781 10 18.570312 8.980469 18.570312 7.855469 C 18.574219 6.6875 17.460938 5.640625 16.292969 5.714844 Z M 4.285156 6.429688 C 2.183594 6.429688 1.621094 9.105469 1.472656 10.535156 L 0 10 L 0 11.429688 L 8.527344 14.464844 L 7.144531 20 L 12.855469 20 L 11.519531 15.535156 L 20 18.570312 L 20 17.144531 L 18.660156 16.652344 C 18.894531 15.421875 19.644531 10.714844 17.144531 10.714844 C 14.800781 10.714844 14.40625 13.921875 14.332031 15.132812 L 5.847656 12.097656 C 6.121094 10.480469 6.589844 6.429688 4.285156 6.429688 Z M 4.285156 6.429688 "/>
</svg>
