<?xml version="1.0" encoding="UTF-8"?>
<svg xmlns="http://www.w3.org/2000/svg" xmlns:xlink="http://www.w3.org/1999/xlink" width="24" height="24" viewBox="0 0 24 24">
<path fill-rule="nonzero" fill="rgb(0%, 0%, 0%)" fill-opacity="1" d="M 17.601562 10.398438 C 18.398438 14.398438 19.199219 17.601562 19.199219 24 L 17.601562 24 C 17.601562 19.199219 16.800781 15.199219 16.800781 15.199219 C 16.800781 15.199219 16.800781 19.199219 12 19.199219 C 7.199219 19.199219 7.199219 15.199219 7.199219 15.199219 C 7.199219 15.199219 6.398438 19.199219 6.398438 24 C 6.398438 24 4.800781 24 4.800781 24 C 4.800781 17.601562 5.601562 14.398438 6.398438 10.398438 C 6.398438 3.199219 6.398438 0 12 0 C 17.601562 0 17.601562 3.199219 17.601562 10.398438 Z M 12 1.601562 C 8 1.601562 8 4 8 11.199219 C 8.800781 6.398438 8.800781 3.199219 12 1.601562 Z M 12 1.601562 "/>
</svg>
