<?xml version="1.0" encoding="UTF-8"?>
<svg xmlns="http://www.w3.org/2000/svg" xmlns:xlink="http://www.w3.org/1999/xlink" width="20" height="20" viewBox="0 0 20 20">
<path fill-rule="nonzero" fill="rgb(45.098039%, 29.019608%, 3.137255%)" fill-opacity="1" d="M 7.144531 0 L 5.714844 1.429688 L 5.714844 2.855469 L 14.285156 2.855469 L 14.285156 1.429688 L 12.855469 0 Z M 5.714844 4.285156 C 5.667969 4.527344 5.714844 4.769531 5.714844 5.027344 C 5.714844 7.070312 8.027344 8.570312 10 8.570312 C 11.972656 8.570312 14.285156 7.070312 14.285156 5.027344 C 14.285156 4.769531 14.285156 4.285156 14.285156 4.285156 Z M 5.714844 10 C 3.6875 10 2.878906 12.679688 2.855469 14.285156 L 2.855469 20 L 5.042969 20 L 12.855469 10 Z M 15 10 L 7.1875 20 L 17.144531 20 L 17.144531 14.285156 C 17.144531 12.679688 16.753906 10 15 10 Z M 15 10 "/>
</svg>
