<?xml version="1.0" encoding="UTF-8"?>
<svg xmlns="http://www.w3.org/2000/svg" xmlns:xlink="http://www.w3.org/1999/xlink" width="24" height="24" viewBox="0 0 24 24">
<path fill-rule="nonzero" fill="rgb(0%, 0%, 0%)" fill-opacity="1" d="M 5.953125 18.160156 C 6.625 18.449219 7.34375 18.6875 8.128906 18.878906 L 8.894531 19.039062 L 9.296875 19.152344 L 9.808594 19.296875 L 11.089844 19.695312 L 12.753906 20.238281 L 13.886719 20.640625 L 13.953125 20.703125 C 14.785156 21.457031 15.3125 22.496094 15.40625 23.617188 L 15.425781 24 L 4.449219 24 L 4.449219 22.703125 C 4.449219 21.199219 4.894531 19.742188 5.695312 18.511719 Z M 17.617188 5.742188 L 17.617188 8.511719 L 19.808594 12.929688 L 17.617188 12.929688 C 17.617188 15.265625 15.824219 17.183594 13.550781 17.34375 L 13.214844 17.359375 L 13.214844 19.230469 L 11.375 18.625 L 10.351562 18.304688 L 9.792969 18.144531 L 9.328125 18.015625 L 8.238281 17.761719 C 7.664062 17.617188 7.136719 17.457031 6.640625 17.246094 L 6.640625 12.273438 Z M 20.449219 1.535156 L 20.71875 2.015625 C 20.878906 2.273438 20.785156 2.609375 20.527344 2.769531 L 4.367188 12.175781 C 4.113281 12.320312 3.777344 12.238281 3.617188 11.96875 L 3.34375 11.488281 C 3.039062 10.960938 3.230469 10.289062 3.742188 9.984375 L 18.960938 1.121094 C 19.472656 0.816406 20.144531 1.007812 20.449219 1.535156 Z M 15.3125 1.953125 L 6.289062 7.214844 C 5.566406 4.238281 6.335938 2.078125 8.609375 0.753906 C 10.878906 -0.558594 13.105469 -0.160156 15.3125 1.953125 Z M 15.3125 1.953125 "/>
</svg>
