<?xml version="1.0" encoding="UTF-8"?>
<svg xmlns="http://www.w3.org/2000/svg" xmlns:xlink="http://www.w3.org/1999/xlink" width="24" height="24" viewBox="0 0 24 24">
<path fill-rule="nonzero" fill="rgb(0%, 0%, 0%)" fill-opacity="1" d="M 14.398438 1.601562 C 10.398438 1.601562 8 4.800781 8 8 C 8 8 8 23.199219 8 23.199219 C 8 24 11.199219 24 11.199219 23.199219 C 11.199219 23.199219 11.199219 19.199219 11.199219 19.199219 L 17.601562 19.199219 C 17.601562 19.199219 17.601562 23.199219 17.601562 23.199219 C 17.601562 24 20.800781 24 20.800781 23.199219 C 20.800781 23.199219 20.800781 8 20.800781 8 C 20.800781 4.800781 18.398438 1.601562 14.398438 1.601562 Z M 2.398438 1.601562 L 5.601562 8 C 5.601562 4.800781 6.398438 2.398438 9.601562 1.601562 Z M 2.398438 1.601562 "/>
</svg>
