<?xml version="1.0" encoding="UTF-8"?>
<svg xmlns="http://www.w3.org/2000/svg" xmlns:xlink="http://www.w3.org/1999/xlink" width="24" height="24" viewBox="0 0 24 24">
<path fill-rule="nonzero" fill="rgb(0%, 0%, 0%)" fill-opacity="1" d="M 18.398438 3.199219 C 18.398438 3.199219 16 12.800781 16 12.800781 C 16 12.800781 19.199219 12.800781 19.199219 12.800781 C 19.199219 12.800781 17.601562 20.800781 17.601562 20.800781 C 17.601562 20.800781 24 9.601562 24 9.601562 C 24 9.601562 20.800781 9.601562 20.800781 9.601562 C 20.800781 9.601562 23.199219 3.199219 23.199219 3.199219 C 23.199219 3.199219 18.398438 3.199219 18.398438 3.199219 Z M 18.398438 3.199219 "/>
<path fill-rule="nonzero" fill="rgb(0%, 0%, 0%)" fill-opacity="1" d="M 7.199219 0 C 8.398438 0 9.601562 1.199219 9.601562 2.398438 C 9.601562 3.601562 8.398438 4.800781 7.199219 4.800781 C 6 4.800781 4.800781 3.601562 4.800781 2.398438 C 4.800781 1.199219 6 0 7.199219 0 Z M 7.199219 1.601562 C 6.800781 1.601562 6.398438 2 6.398438 2.398438 C 6.398438 2.800781 6.800781 3.199219 7.199219 3.199219 C 7.601562 3.199219 8 2.800781 8 2.398438 C 8 2 7.601562 1.601562 7.199219 1.601562 Z M 7.199219 20.800781 C 7.601562 20.800781 8 21.199219 8 21.601562 C 8 22 7.601562 22.398438 7.199219 22.398438 C 6.800781 22.398438 6.398438 22 6.398438 21.601562 C 6.398438 21.199219 6.800781 20.800781 7.199219 20.800781 Z M 7.199219 19.199219 C 6 19.199219 4.800781 20.398438 4.800781 21.601562 C 4.800781 22.800781 6 24 7.199219 24 C 8.398438 24 9.601562 22.800781 9.601562 21.601562 C 9.601562 20.398438 8.398438 19.199219 7.199219 19.199219 Z M 11.199219 8 L 11.199219 16 L 3.199219 16 L 3.199219 8 Z M 12.800781 7.199219 C 12.800781 7.199219 12.800781 6.398438 12 6.398438 C 12 6.398438 8 6.398438 8 6.398438 C 8 6.398438 8 5.601562 8 5.601562 C 8 4.800781 6.398438 4.800781 6.398438 5.601562 C 6.398438 5.601562 6.398438 6.398438 6.398438 6.398438 C 6.398438 6.398438 2.398438 6.398438 2.398438 6.398438 C 1.601562 6.398438 1.601562 7.199219 1.601562 7.199219 L 1.601562 16.800781 C 1.601562 16.800781 1.601562 17.601562 2.398438 17.601562 C 2.398438 17.601562 6.398438 17.601562 6.398438 17.601562 C 6.398438 17.601562 6.398438 18.398438 6.398438 18.398438 C 6.398438 19.199219 8 19.199219 8 18.398438 C 8 18.398438 8 17.601562 8 17.601562 C 8 17.601562 12 17.601562 12 17.601562 C 12.800781 17.601562 12.800781 16.800781 12.800781 16.800781 Z M 12.800781 7.199219 "/>
</svg>
