<?xml version="1.0" encoding="UTF-8"?>
<svg xmlns="http://www.w3.org/2000/svg" xmlns:xlink="http://www.w3.org/1999/xlink" width="24" height="24" viewBox="0 0 24 24">
<path fill-rule="nonzero" fill="rgb(0%, 0%, 0%)" fill-opacity="1" d="M 18.398438 3.199219 C 18.398438 3.199219 16 12.800781 16 12.800781 C 16 12.800781 19.199219 12.800781 19.199219 12.800781 C 19.199219 12.800781 17.601562 20.800781 17.601562 20.800781 C 17.601562 20.800781 24 9.601562 24 9.601562 C 24 9.601562 20.800781 9.601562 20.800781 9.601562 C 20.800781 9.601562 23.199219 3.199219 23.199219 3.199219 C 23.199219 3.199219 18.398438 3.199219 18.398438 3.199219 Z M 18.398438 3.199219 "/>
<path fill-rule="nonzero" fill="rgb(0%, 0%, 0%)" fill-opacity="1" d="M 1.601562 5.601562 C 1.601562 4.800781 3.199219 4.800781 3.199219 5.601562 C 3.199219 5.601562 3.199219 7.601562 3.199219 7.601562 C 4.800781 7.601562 4.398438 6 4.800781 6 C 5.199219 6 4.800781 7.601562 6.398438 7.601562 C 8 7.601562 7.601562 6 8 6 C 8.398438 6 8 7.601562 9.601562 7.601562 C 11.199219 7.601562 10.800781 6 11.199219 6 C 11.601562 6 11.199219 7.601562 12.800781 7.601562 C 12.800781 7.601562 12.800781 5.601562 12.800781 5.601562 C 12.800781 4.800781 14.398438 4.800781 14.398438 5.601562 C 14.398438 5.601562 14.398438 8 14.398438 8 C 14.398438 8 14.398438 9.601562 12.800781 9.601562 C 11.199219 9.601562 11.199219 8 11.199219 8 C 11.199219 8 11.199219 9.601562 9.601562 9.601562 C 8 9.601562 8 8 8 8 C 8 8 8 9.601562 6.398438 9.601562 C 4.800781 9.601562 4.800781 8 4.800781 8 C 4.800781 8 4.800781 9.601562 3.199219 9.601562 C 1.601562 9.601562 1.601562 8 1.601562 8 C 1.601562 8 1.601562 5.601562 1.601562 5.601562 Z M 1.601562 18.398438 C 1.601562 18.398438 1.601562 16 1.601562 16 C 1.601562 16 1.601562 14.398438 3.199219 14.398438 C 4.800781 14.398438 4.800781 16 4.800781 16 C 4.800781 16 4.800781 14.398438 6.398438 14.398438 C 8 14.398438 8 16 8 16 C 8 16 8 14.398438 9.601562 14.398438 C 11.199219 14.398438 11.199219 16 11.199219 16 C 11.199219 16 11.199219 14.398438 12.800781 14.398438 C 14.398438 14.398438 14.398438 16 14.398438 16 C 14.398438 16 14.398438 18.398438 14.398438 18.398438 C 14.398438 19.199219 12.800781 19.199219 12.800781 18.398438 C 12.800781 18.398438 12.800781 16.398438 12.800781 16.398438 C 11.199219 16.398438 11.601562 18 11.199219 18 C 10.800781 18 11.199219 16.398438 9.601562 16.398438 C 8 16.398438 8.398438 18 8 18 C 7.601562 18 8 16.398438 6.398438 16.398438 C 4.800781 16.398438 5.199219 18 4.800781 18 C 4.398438 18 4.800781 16.398438 3.199219 16.398438 C 3.199219 16.398438 3.199219 18.398438 3.199219 18.398438 C 3.199219 19.199219 1.601562 19.199219 1.601562 18.398438 Z M 1.601562 11.199219 L 1.601562 12.800781 L 14.398438 12.800781 L 14.398438 11.199219 Z M 13.601562 1.601562 C 14 1.601562 14.398438 2 14.398438 2.398438 C 14.398438 2.800781 14 3.199219 13.601562 3.199219 C 13.199219 3.199219 12.800781 2.800781 12.800781 2.398438 C 12.800781 2 13.199219 1.601562 13.601562 1.601562 Z M 13.601562 0 C 12.398438 0 11.199219 1.199219 11.199219 2.398438 C 11.199219 3.601562 12.398438 4.800781 13.601562 4.800781 C 14.800781 4.800781 16 3.601562 16 2.398438 C 16 1.199219 14.800781 0 13.601562 0 Z M 2.398438 1.601562 C 2.800781 1.601562 3.199219 2 3.199219 2.398438 C 3.199219 2.800781 2.800781 3.199219 2.398438 3.199219 C 2 3.199219 1.601562 2.800781 1.601562 2.398438 C 1.601562 2 2 1.601562 2.398438 1.601562 Z M 2.398438 0 C 1.199219 0 0 1.199219 0 2.398438 C 0 3.601562 1.199219 4.800781 2.398438 4.800781 C 3.601562 4.800781 4.800781 3.601562 4.800781 2.398438 C 4.800781 1.199219 3.601562 0 2.398438 0 Z M 13.601562 20.800781 C 14 20.800781 14.398438 21.199219 14.398438 21.601562 C 14.398438 22 14 22.398438 13.601562 22.398438 C 13.199219 22.398438 12.800781 22 12.800781 21.601562 C 12.800781 21.199219 13.199219 20.800781 13.601562 20.800781 Z M 13.601562 19.199219 C 12.398438 19.199219 11.199219 20.398438 11.199219 21.601562 C 11.199219 22.800781 12.398438 24 13.601562 24 C 14.800781 24 16 22.800781 16 21.601562 C 16 20.398438 14.800781 19.199219 13.601562 19.199219 Z M 2.398438 20.800781 C 2.800781 20.800781 3.199219 21.199219 3.199219 21.601562 C 3.199219 22 2.800781 22.398438 2.398438 22.398438 C 2 22.398438 1.601562 22 1.601562 21.601562 C 1.601562 21.199219 2 20.800781 2.398438 20.800781 Z M 2.398438 19.199219 C 1.199219 19.199219 0 20.398438 0 21.601562 C 0 22.800781 1.199219 24 2.398438 24 C 3.601562 24 4.800781 22.800781 4.800781 21.601562 C 4.800781 20.398438 3.601562 19.199219 2.398438 19.199219 Z M 2.398438 19.199219 "/>
</svg>
