<?xml version="1.0" encoding="UTF-8"?>
<svg xmlns="http://www.w3.org/2000/svg" xmlns:xlink="http://www.w3.org/1999/xlink" width="24" height="24" viewBox="0 0 24 24">
<path fill-rule="nonzero" fill="rgb(0%, 0%, 0%)" fill-opacity="1" d="M 14.398438 0.800781 C 14.398438 0.800781 14.398438 1.601562 14.398438 1.601562 C 14.398438 1.601562 20 1.601562 20 1.601562 C 20.800781 1.601562 20.800781 2.398438 20.800781 2.398438 L 20.800781 21.601562 C 20.800781 21.601562 20.800781 22.398438 20 22.398438 C 20 22.398438 14.398438 22.398438 14.398438 22.398438 L 14.398438 23.199219 C 14.398438 24 9.601562 24 9.601562 23.199219 L 9.601562 22.398438 C 9.601562 22.398438 4 22.398438 4 22.398438 C 3.199219 22.398438 3.199219 21.601562 3.199219 21.601562 L 3.199219 2.398438 C 3.199219 2.398438 3.199219 1.601562 4 1.601562 C 4 1.601562 9.601562 1.601562 9.601562 1.601562 C 9.601562 1.601562 9.601562 0.800781 9.601562 0.800781 C 9.601562 0 14.398438 0 14.398438 0.800781 Z M 12 4.800781 C 8 4.800781 4.800781 8 4.800781 12 C 4.800781 16 8 19.199219 12 19.199219 C 16 19.199219 19.199219 16 19.199219 12 C 19.199219 8 16 4.800781 12 4.800781 Z M 12 4.800781 "/>
<path fill-rule="nonzero" fill="rgb(0%, 0%, 0%)" fill-opacity="1" d="M 10.398438 6.398438 C 10.398438 6.398438 8.800781 12.800781 8.800781 12.800781 C 8.800781 12.800781 11.199219 12.800781 11.199219 12.800781 C 11.199219 12.800781 9.601562 18.398438 9.601562 18.398438 C 9.601562 18.398438 16 11.199219 16 11.199219 C 16 11.199219 12.800781 11.199219 12.800781 11.199219 C 12.800781 11.199219 14.398438 6.398438 14.398438 6.398438 C 14.398438 6.398438 10.398438 6.398438 10.398438 6.398438 Z M 10.398438 6.398438 "/>
</svg>
