<?xml version="1.0" encoding="UTF-8"?>
<svg xmlns="http://www.w3.org/2000/svg" xmlns:xlink="http://www.w3.org/1999/xlink" width="24" height="24" viewBox="0 0 24 24">
<path fill-rule="nonzero" fill="rgb(0%, 0%, 0%)" fill-opacity="1" d="M 18.398438 3.199219 L 23.199219 3.199219 L 20.800781 9.601562 L 24 9.601562 L 17.601562 20.800781 L 19.199219 12.800781 L 16 12.800781 Z M 8.800781 5.601562 L 8.800781 3.199219 C 8.800781 2.320312 9.519531 1.601562 10.398438 1.601562 C 11.28125 1.601562 12 2.320312 12 3.199219 L 12 5.601562 L 16 5.601562 L 15.359375 8 L 12 8 L 12 22.398438 L 8.800781 22.398438 L 8.800781 8 L 0 8 L 0 5.601562 Z M 1.601562 3.199219 L 4.800781 3.199219 L 4.800781 4.800781 L 1.601562 4.800781 Z M 1.601562 3.199219 "/>
</svg>
