<?xml version="1.0" encoding="UTF-8"?>
<svg xmlns="http://www.w3.org/2000/svg" xmlns:xlink="http://www.w3.org/1999/xlink" width="20" height="20" viewBox="0 0 20 20">
<path fill-rule="nonzero" fill="rgb(45.098039%, 29.019608%, 3.137255%)" fill-opacity="1" d="M 10 0 L 0 2.855469 L 0 4.285156 L 10 1.429688 L 20 4.285156 L 20 2.855469 Z M 5.054688 5.101562 C 4.832031 5.113281 4.609375 5.15625 4.390625 5.238281 L 4.390625 14.125 C 4.390625 14.125 7.964844 13.988281 8.878906 17.460938 L 8.878906 8.128906 C 8.183594 6.675781 6.613281 5.042969 5.054688 5.101562 Z M 8.878906 17.460938 C 6.5625 15.691406 3.265625 15.238281 3.265625 15.238281 L 3.265625 6.796875 L 2.144531 6.351562 L 2.144531 16.351562 L 8.878906 18.570312 L 11.121094 18.570312 L 17.855469 16.351562 L 17.855469 6.351562 L 16.734375 6.796875 L 16.734375 15.683594 L 11.121094 17.460938 C 10.375 17.179688 9.503906 17.226562 8.878906 17.460938 Z M 15.609375 5.238281 C 13.375 5.121094 10.792969 6.453125 9.4375 7.59375 L 9.4375 16.996094 C 10.691406 15.96875 12.933594 14.621094 15.609375 14.351562 Z M 15.609375 5.238281 "/>
</svg>
