<?xml version="1.0" encoding="UTF-8"?>
<svg xmlns="http://www.w3.org/2000/svg" xmlns:xlink="http://www.w3.org/1999/xlink" width="20" height="20" viewBox="0 0 20 20">
<path fill-rule="nonzero" fill="rgb(45.098039%, 29.019608%, 3.137255%)" fill-opacity="1" d="M 2.363281 15.714844 C 1.753906 15.714844 0.851562 16.230469 0.0234375 16.644531 L 0 19.539062 C 0.871094 19.121094 1.804688 18.570312 2.363281 18.570312 C 3.320312 18.570312 5.140625 20 6.152344 20 C 7.054688 20 8.980469 18.570312 9.941406 18.570312 C 10.898438 18.570312 12.828125 20 13.734375 20 C 14.6875 20 16.625 18.570312 17.523438 18.570312 C 18.085938 18.570312 19.054688 19.132812 19.933594 19.550781 L 20 16.660156 C 19.144531 16.230469 18.144531 15.679688 17.523438 15.714844 C 16.617188 15.714844 14.746094 17.144531 13.734375 17.144531 C 12.890625 17.144531 10.898438 15.714844 9.941406 15.714844 C 8.988281 15.714844 6.996094 17.144531 6.152344 17.144531 C 5.253906 17.144531 3.375 15.714844 2.363281 15.714844 Z M 6.785156 5.714844 C 5.632812 5.714844 4.285156 7.144531 4.285156 9.285156 L 4.285156 14.285156 L 6.070312 14.285156 L 6.070312 8.570312 C 6.070312 7.710938 6.402344 7.570312 6.785156 7.570312 L 6.785156 14.285156 L 13.214844 14.285156 L 13.214844 7.570312 C 13.601562 7.570312 13.875 7.714844 13.929688 8.570312 L 13.929688 14.285156 L 15.714844 14.285156 L 15.714844 9.285156 C 15.714844 7.144531 14.367188 5.714844 13.214844 5.714844 Z M 10 0.355469 C 8.621094 0.355469 7.5 1.476562 7.5 2.855469 C 7.5 4.238281 8.621094 5.355469 10 5.355469 C 11.378906 5.355469 12.5 4.238281 12.5 2.855469 C 12.5 1.476562 11.378906 0.355469 10 0.355469 Z M 10 0.355469 "/>
</svg>
