<?xml version="1.0" encoding="UTF-8"?>
<svg xmlns="http://www.w3.org/2000/svg" xmlns:xlink="http://www.w3.org/1999/xlink" width="24" height="24" viewBox="0 0 24 24">
<path fill-rule="nonzero" fill="rgb(0%, 0%, 0%)" fill-opacity="1" d="M 14.398438 14.398438 L 19.199219 22.398438 C 14.398438 24 9.601562 24 4.800781 22.398438 L 9.601562 14.398438 C 11.199219 15.601562 12.800781 15.601562 14.398438 14.398438 Z M 17.601562 0.800781 L 13.601562 7.601562 C 15.199219 8.398438 16 10 16 11.199219 L 24 11.199219 C 24 6.398438 22.398438 3.199219 17.601562 0.800781 Z M 6.398438 0.800781 C 1.601562 3.199219 0 6.398438 0 11.199219 L 8 11.199219 C 8 10 8.800781 8.398438 10.398438 7.601562 Z M 14.398438 11.199219 C 14.398438 10 13.199219 8.800781 12 8.800781 C 10.800781 8.800781 9.601562 10 9.601562 11.199219 C 9.601562 12.398438 10.800781 13.601562 12 13.601562 C 13.199219 13.601562 14.398438 12.398438 14.398438 11.199219 Z M 14.398438 11.199219 "/>
</svg>
