<?xml version="1.0" encoding="UTF-8"?>
<svg xmlns="http://www.w3.org/2000/svg" xmlns:xlink="http://www.w3.org/1999/xlink" width="24" height="24" viewBox="0 0 24 24">
<path fill-rule="nonzero" fill="rgb(0%, 0%, 0%)" fill-opacity="1" d="M 11.199219 19.199219 L 11.199219 20.800781 L 12.800781 20.800781 L 12.800781 19.199219 Z M 15.054688 8 L 1.601562 3.105469 L 2.144531 1.601562 L 19.726562 8 L 20.800781 8 C 21.679688 8 22.398438 8.71875 22.398438 9.601562 L 22.398438 20.800781 C 22.398438 21.679688 21.679688 22.398438 20.800781 22.398438 L 3.199219 22.398438 C 2.320312 22.398438 1.601562 21.679688 1.601562 20.800781 L 1.601562 9.601562 C 1.601562 8.71875 2.320312 8 3.199219 8 Z M 3.199219 9.601562 L 3.199219 12.800781 L 12.800781 12.800781 L 12.800781 9.601562 Z M 4.800781 11.199219 L 6.398438 11.199219 L 6.398438 12.800781 L 4.800781 12.800781 Z M 3.199219 14.398438 L 3.199219 16 L 4.800781 16 L 4.800781 14.398438 Z M 4.800781 16 L 4.800781 17.601562 L 6.398438 17.601562 L 6.398438 16 Z M 6.398438 14.398438 L 6.398438 16 L 8 16 L 8 14.398438 Z M 8 16 L 8 17.601562 L 9.601562 17.601562 L 9.601562 16 Z M 9.601562 14.398438 L 9.601562 16 L 11.199219 16 L 11.199219 14.398438 Z M 11.199219 16 L 11.199219 17.601562 L 12.800781 17.601562 L 12.800781 16 Z M 9.601562 17.601562 L 9.601562 19.199219 L 11.199219 19.199219 L 11.199219 17.601562 Z M 6.398438 17.601562 L 6.398438 19.199219 L 8 19.199219 L 8 17.601562 Z M 3.199219 17.601562 L 3.199219 19.199219 L 4.800781 19.199219 L 4.800781 17.601562 Z M 4.800781 19.199219 L 4.800781 20.800781 L 6.398438 20.800781 L 6.398438 19.199219 Z M 8 19.199219 L 8 20.800781 L 9.601562 20.800781 L 9.601562 19.199219 Z M 17.601562 9.601562 C 15.839844 9.601562 14.398438 11.039062 14.398438 12.800781 C 14.398438 14.558594 15.839844 16 17.601562 16 C 19.359375 16 20.800781 14.558594 20.800781 12.800781 C 20.800781 11.039062 19.359375 9.601562 17.601562 9.601562 Z M 17.601562 11.199219 C 18.480469 11.199219 19.199219 11.921875 19.199219 12.800781 C 19.199219 13.679688 18.480469 14.398438 17.601562 14.398438 C 16.71875 14.398438 16 13.679688 16 12.800781 C 16 11.921875 16.71875 11.199219 17.601562 11.199219 Z M 17.601562 11.199219 "/>
</svg>
