<?xml version="1.0" encoding="UTF-8"?>
<svg xmlns="http://www.w3.org/2000/svg" xmlns:xlink="http://www.w3.org/1999/xlink" width="24" height="24" viewBox="0 0 24 24">
<path fill-rule="nonzero" fill="rgb(0%, 0%, 0%)" fill-opacity="1" d="M 10.316406 3.839844 L 10.054688 4.304688 C 9.886719 4.652344 9.53125 4.800781 9.132812 4.800781 L 8.523438 4.800781 C 8.875 5.28125 9.4375 5.671875 10.089844 5.671875 C 11.15625 5.671875 12.003906 4.867188 12.003906 3.804688 L 12.003906 3.839844 L 10.410156 3.839844 C 10.371094 3.839844 10.328125 3.800781 10.320312 3.839844 Z M 9.132812 4.320312 C 9.34375 4.320312 9.53125 4.246094 9.613281 4.066406 L 9.867188 3.609375 C 9.964844 3.402344 10.171875 3.359375 10.40625 3.359375 L 12.398438 3.359375 C 12.140625 2.398438 11.203125 1.511719 10.097656 1.511719 C 8.792969 1.511719 7.734375 2.480469 7.734375 3.792969 C 7.734375 4.003906 7.757812 4.320312 7.8125 4.320312 Z M 15.691406 14.878906 C 17.46875 14.878906 22.105469 14.335938 23.378906 13.113281 C 22.804688 11.347656 20.539062 11.207031 18.460938 12.105469 C 18.105469 12.257812 17.628906 12.375 17.082031 12.476562 L 16.660156 10.828125 C 17 10.65625 17.222656 10.296875 17.203125 9.894531 C 17.183594 9.339844 16.71875 8.914062 16.167969 8.933594 L 15.855469 7.726562 C 16.160156 7.496094 16.324219 7.109375 16.234375 6.710938 C 16.109375 6.171875 15.574219 5.828125 15.035156 5.953125 C 15.035156 5.953125 10.636719 5.992188 9.257812 6.359375 C 7.882812 6.730469 7.421875 9.042969 7.421875 9.042969 L 6.210938 12.957031 L 0.484375 12.957031 L 0.484375 14.875 L 15.691406 14.875 Z M 11.742188 8.0625 L 15.152344 7.925781 L 15.425781 8.972656 C 14.503906 9.015625 12.863281 9.101562 11.398438 9.183594 Z M 10.789062 11.183594 L 15.9375 10.953125 L 16.363281 12.589844 C 14.261719 12.894531 11.539062 12.9375 10.246094 12.941406 L 10.785156 11.183594 Z M 20.410156 17.09375 C 20.410156 17.09375 23.523438 17.054688 23.523438 14.011719 C 23.523438 13.890625 23.515625 13.800781 23.5 13.683594 C 21.558594 15.089844 16.359375 15.359375 15.699219 15.359375 L 0.484375 15.359375 L 0.484375 17.710938 C 0.855469 17.710938 1.234375 17.625 1.566406 17.480469 C 2.117188 17.226562 2.726562 17.09375 3.328125 17.09375 C 3.925781 17.09375 4.53125 17.226562 5.070312 17.476562 C 5.425781 17.636719 5.792969 17.710938 6.167969 17.710938 C 6.546875 17.710938 6.917969 17.636719 7.257812 17.480469 C 7.8125 17.226562 8.417969 17.09375 9.019531 17.09375 C 9.625 17.09375 10.21875 17.222656 10.769531 17.476562 C 11.117188 17.636719 11.496094 17.710938 11.871094 17.710938 C 12.246094 17.710938 12.613281 17.636719 12.957031 17.480469 C 13.507812 17.226562 14.117188 17.09375 14.710938 17.09375 C 15.320312 17.09375 15.910156 17.222656 16.464844 17.476562 C 16.8125 17.636719 17.195312 17.710938 17.5625 17.710938 L 17.699219 17.707031 L 18.152344 19.445312 C 17.957031 19.476562 17.765625 19.503906 17.5625 19.503906 C 17.0625 19.503906 16.585938 19.398438 16.15625 19.203125 C 15.71875 19.003906 15.230469 18.882812 14.710938 18.882812 C 14.199219 18.882812 13.703125 19.003906 13.265625 19.203125 C 12.84375 19.398438 12.363281 19.507812 11.871094 19.507812 C 11.375 19.507812 10.890625 19.402344 10.464844 19.210938 C 10.027344 19.007812 9.539062 18.886719 9.019531 18.886719 C 8.5 18.886719 8.011719 19.007812 7.574219 19.210938 C 7.152344 19.402344 6.671875 19.511719 6.175781 19.511719 C 5.683594 19.511719 5.203125 19.40625 4.78125 19.214844 C 4.34375 19.011719 3.855469 18.894531 3.335938 18.894531 C 2.828125 18.894531 2.332031 19.011719 1.894531 19.214844 C 1.464844 19.40625 0.988281 19.511719 0.488281 19.511719 L 0.488281 21.609375 C 0.988281 21.609375 1.464844 21.503906 1.894531 21.3125 C 2.332031 21.109375 2.828125 20.992188 3.335938 20.992188 C 3.847656 20.992188 4.34375 21.109375 4.78125 21.3125 C 5.207031 21.503906 5.6875 21.609375 6.175781 21.609375 C 6.675781 21.609375 7.152344 21.503906 7.574219 21.3125 C 8.011719 21.109375 8.503906 20.992188 9.019531 20.992188 C 9.539062 20.992188 10.027344 21.109375 10.464844 21.3125 C 10.890625 21.503906 11.371094 21.609375 11.871094 21.609375 C 12.371094 21.609375 12.84375 21.503906 13.273438 21.3125 C 13.707031 21.109375 14.203125 20.992188 14.71875 20.992188 C 15.230469 20.992188 15.726562 21.109375 16.160156 21.3125 C 16.589844 21.503906 17.070312 21.609375 17.566406 21.609375 C 18.058594 21.609375 18.542969 21.503906 18.964844 21.3125 C 19.402344 21.109375 19.894531 20.992188 20.410156 20.992188 C 20.921875 20.992188 21.316406 21.109375 21.753906 21.3125 C 22.179688 21.503906 22.578125 21.609375 23.058594 21.609375 L 23.058594 19.515625 C 22.578125 19.515625 22.179688 19.410156 21.753906 19.21875 C 21.316406 19.019531 20.875 18.898438 20.363281 18.898438 C 19.847656 18.898438 19.378906 19.019531 18.941406 19.21875 L 18.847656 19.257812 L 18.421875 17.585938 L 18.65625 17.496094 C 19.210938 17.242188 19.824219 17.105469 20.425781 17.105469 Z M 20.410156 17.09375 "/>
</svg>
