<?xml version="1.0" encoding="UTF-8"?>
<svg xmlns="http://www.w3.org/2000/svg" xmlns:xlink="http://www.w3.org/1999/xlink" width="24" height="24" viewBox="0 0 24 24">
<path fill-rule="nonzero" fill="rgb(0%, 0%, 0%)" fill-opacity="1" d="M 16.800781 17.601562 L 16.800781 22.398438 L 7.199219 22.398438 L 7.199219 17.601562 Z M 20 17.601562 L 21.601562 17.601562 C 22.046875 17.601562 22.398438 17.953125 22.398438 18.398438 L 22.398438 21.601562 C 22.398438 22.046875 22.046875 22.398438 21.601562 22.398438 L 20 22.398438 L 20 20.800781 L 20.800781 20.800781 L 20.800781 19.199219 L 20 19.199219 Z M 16.800781 9.601562 L 16.800781 14.398438 L 7.199219 14.398438 L 7.199219 9.601562 Z M 20 9.601562 L 21.601562 9.601562 C 22.046875 9.601562 22.398438 9.953125 22.398438 10.398438 L 22.398438 13.601562 C 22.398438 14.046875 22.046875 14.398438 21.601562 14.398438 L 20 14.398438 L 20 12.800781 L 20.800781 12.800781 L 20.800781 11.199219 L 20 11.199219 Z M 4 17.601562 L 4 19.199219 L 3.199219 19.199219 L 3.199219 20.800781 L 4 20.800781 L 4 22.398438 L 2.398438 22.398438 C 1.953125 22.398438 1.601562 22.046875 1.601562 21.601562 L 1.601562 18.398438 C 1.601562 17.953125 1.953125 17.601562 2.398438 17.601562 Z M 4 9.601562 L 4 11.199219 L 3.199219 11.199219 L 3.199219 12.800781 L 4 12.800781 L 4 14.398438 L 2.398438 14.398438 C 1.953125 14.398438 1.601562 14.046875 1.601562 13.601562 L 1.601562 10.398438 C 1.601562 9.953125 1.953125 9.601562 2.398438 9.601562 Z M 4.800781 1.601562 L 6.398438 1.601562 L 6.398438 24 L 4.800781 24 Z M 17.601562 1.601562 L 19.199219 1.601562 L 19.199219 24 L 17.601562 24 Z M 17.601562 1.601562 "/>
</svg>
