<?xml version="1.0" encoding="UTF-8"?>
<svg xmlns="http://www.w3.org/2000/svg" xmlns:xlink="http://www.w3.org/1999/xlink" width="24" height="24" viewBox="0 0 24 24">
<path fill-rule="nonzero" fill="rgb(0%, 0%, 0%)" fill-opacity="1" d="M 9.601562 19.199219 L 8.800781 20.800781 L 15.199219 20.800781 L 14.398438 19.199219 L 16.800781 19.199219 L 19.199219 24 L 16.800781 24 L 16 22.398438 L 8 22.398438 L 7.199219 24 L 4.800781 24 L 7.199219 19.199219 Z M 9.457031 0.609375 C 10.015625 0.929688 10.222656 1.664062 9.886719 2.238281 L 2.289062 15.40625 C 1.953125 15.984375 1.214844 16.175781 0.65625 15.839844 C 0.078125 15.503906 -0.128906 14.785156 0.207031 14.207031 L 7.808594 1.039062 C 8.144531 0.464844 8.878906 0.273438 9.457031 0.609375 Z M 5.601562 11.265625 L 10.398438 2.945312 L 15.34375 4.046875 C 15.503906 4.078125 15.648438 4.160156 15.761719 4.289062 L 19.007812 7.839844 C 19.121094 7.953125 19.265625 8.03125 19.425781 8.078125 L 23.296875 8.929688 C 23.726562 9.023438 24 9.457031 23.902344 9.886719 C 23.886719 9.96875 23.855469 10.046875 23.824219 10.113281 L 19.855469 16.976562 C 19.679688 17.28125 19.328125 17.425781 18.992188 17.359375 L 14.625 16.382812 C 14.464844 16.351562 14.320312 16.273438 14.207031 16.144531 L 10.960938 12.59375 C 10.847656 12.480469 10.703125 12.398438 10.542969 12.351562 Z M 5.601562 11.265625 "/>
</svg>
