<?xml version="1.0" encoding="UTF-8"?>
<svg xmlns="http://www.w3.org/2000/svg" xmlns:xlink="http://www.w3.org/1999/xlink" width="24" height="24" viewBox="0 0 24 24">
<path fill-rule="nonzero" fill="rgb(0%, 0%, 0%)" fill-opacity="1" d="M 7.199219 20.800781 L 7.199219 22.398438 L 5.601562 22.398438 C 5.152344 22.398438 4.800781 22.046875 4.800781 21.601562 L 4.800781 18.398438 C 4.800781 17.953125 5.152344 17.601562 5.601562 17.601562 L 7.199219 17.601562 L 7.199219 19.199219 L 6.398438 19.199219 L 6.398438 20.800781 Z M 7.199219 12.800781 L 7.199219 14.398438 L 5.601562 14.398438 C 5.152344 14.398438 4.800781 14.046875 4.800781 13.601562 L 4.800781 10.398438 C 4.800781 9.953125 5.152344 9.601562 5.601562 9.601562 L 7.199219 9.601562 L 7.199219 11.199219 L 6.398438 11.199219 L 6.398438 12.800781 Z M 7.199219 4.800781 L 7.199219 6.398438 L 5.601562 6.398438 C 5.152344 6.398438 4.800781 6.046875 4.800781 5.601562 L 4.800781 2.398438 C 4.800781 1.953125 5.152344 1.601562 5.601562 1.601562 L 7.199219 1.601562 L 7.199219 3.199219 L 6.398438 3.199219 L 6.398438 4.800781 Z M 16.800781 20.800781 L 17.601562 20.800781 L 17.601562 19.199219 L 16.800781 19.199219 L 16.800781 17.601562 L 18.398438 17.601562 C 18.847656 17.601562 19.199219 17.953125 19.199219 18.398438 L 19.199219 21.601562 C 19.199219 22.046875 18.847656 22.398438 18.398438 22.398438 L 16.800781 22.398438 Z M 16.800781 12.800781 L 17.601562 12.800781 L 17.601562 11.199219 L 16.800781 11.199219 L 16.800781 9.601562 L 18.398438 9.601562 C 18.847656 9.601562 19.199219 9.953125 19.199219 10.398438 L 19.199219 13.601562 C 19.199219 14.046875 18.847656 14.398438 18.398438 14.398438 L 16.800781 14.398438 Z M 16.800781 4.800781 L 17.601562 4.800781 L 17.601562 3.199219 L 16.800781 3.199219 L 16.800781 1.601562 L 18.398438 1.601562 C 18.847656 1.601562 19.199219 1.953125 19.199219 2.398438 L 19.199219 5.601562 C 19.199219 6.046875 18.847656 6.398438 18.398438 6.398438 L 16.800781 6.398438 Z M 10.398438 17.601562 L 13.601562 17.601562 L 13.601562 22.398438 L 10.398438 22.398438 Z M 10.398438 9.601562 L 13.601562 9.601562 L 13.601562 14.398438 L 10.398438 14.398438 Z M 10.398438 1.601562 L 13.601562 1.601562 L 13.601562 6.398438 L 10.398438 6.398438 Z M 8 0 L 9.601562 0 L 9.601562 24 L 8 24 Z M 14.398438 0 L 16 0 L 16 24 L 14.398438 24 Z M 14.398438 0 "/>
</svg>
