<?xml version="1.0" encoding="UTF-8"?>
<svg xmlns="http://www.w3.org/2000/svg" xmlns:xlink="http://www.w3.org/1999/xlink" width="24" height="24" viewBox="0 0 24 24">
<path fill-rule="nonzero" fill="rgb(0%, 0%, 0%)" fill-opacity="1" d="M 4 17.601562 L 4 22.398438 L 2.398438 22.398438 C 1.953125 22.398438 1.601562 22.046875 1.601562 21.601562 L 1.601562 18.398438 C 1.601562 17.953125 1.953125 17.601562 2.398438 17.601562 Z M 7.199219 17.601562 L 16.800781 17.601562 L 16.800781 22.398438 L 7.199219 22.398438 Z M 20 17.601562 L 21.601562 17.601562 C 22.046875 17.601562 22.398438 17.953125 22.398438 18.398438 L 22.398438 21.601562 C 22.398438 22.046875 22.046875 22.398438 21.601562 22.398438 L 20 22.398438 Z M 4 7.375 L 4 12.335938 L 2.113281 11.839844 C 1.679688 11.710938 1.425781 11.28125 1.535156 10.847656 L 2.367188 7.761719 C 2.480469 7.34375 2.929688 7.089844 3.34375 7.199219 Z M 7.199219 8.222656 L 16.800781 10.800781 L 16.800781 15.777344 L 7.199219 13.199219 Z M 20 11.664062 L 21.886719 12.160156 C 22.320312 12.289062 22.574219 12.71875 22.464844 13.152344 L 21.632812 16.238281 C 21.519531 16.65625 21.070312 16.910156 20.65625 16.800781 L 20 16.625 Z M 4 1.601562 L 4 6.398438 L 2.398438 6.398438 C 1.953125 6.398438 1.601562 6.046875 1.601562 5.601562 L 1.601562 2.398438 C 1.601562 1.953125 1.953125 1.601562 2.398438 1.601562 Z M 7.199219 1.601562 L 16.800781 1.601562 L 16.800781 6.398438 L 7.199219 6.398438 Z M 20 1.601562 L 21.601562 1.601562 C 22.046875 1.601562 22.398438 1.953125 22.398438 2.398438 L 22.398438 5.601562 C 22.398438 6.046875 22.046875 6.398438 21.601562 6.398438 L 20 6.398438 Z M 4.800781 0 L 6.398438 0 L 6.398438 24 L 4.800781 24 Z M 17.601562 0 L 19.199219 0 L 19.199219 24 L 17.601562 24 Z M 17.601562 0 "/>
</svg>
