<?xml version="1.0" encoding="UTF-8"?>
<svg xmlns="http://www.w3.org/2000/svg" xmlns:xlink="http://www.w3.org/1999/xlink" width="24" height="24" viewBox="0 0 24 24">
<path fill-rule="nonzero" fill="rgb(0%, 0%, 0%)" fill-opacity="1" d="M 18.398438 4.800781 L 19.199219 4.800781 L 19.199219 3.199219 L 18.398438 3.199219 L 18.398438 1.601562 L 20 1.601562 C 20.449219 1.601562 20.800781 1.953125 20.800781 2.398438 L 20.800781 5.601562 C 20.800781 6.046875 20.449219 6.398438 20 6.398438 L 18.398438 6.398438 Z M 5.601562 4.800781 L 5.601562 6.398438 L 4 6.398438 C 3.550781 6.398438 3.199219 6.046875 3.199219 5.601562 L 3.199219 2.398438 C 3.199219 1.953125 3.550781 1.601562 4 1.601562 L 5.601562 1.601562 L 5.601562 3.199219 L 4.800781 3.199219 L 4.800781 4.800781 Z M 5.601562 20.800781 L 5.601562 22.398438 L 4 22.398438 C 3.550781 22.398438 3.199219 22.046875 3.199219 21.601562 L 3.199219 18.398438 C 3.199219 17.953125 3.550781 17.601562 4 17.601562 L 5.601562 17.601562 L 5.601562 19.199219 L 4.800781 19.199219 L 4.800781 20.800781 Z M 18.398438 20.800781 L 19.199219 20.800781 L 19.199219 19.199219 L 18.398438 19.199219 L 18.398438 17.601562 L 20 17.601562 C 20.449219 17.601562 20.800781 17.953125 20.800781 18.398438 L 20.800781 21.601562 C 20.800781 22.046875 20.449219 22.398438 20 22.398438 L 18.398438 22.398438 Z M 18.398438 12.800781 L 19.199219 12.800781 L 19.199219 11.199219 L 18.398438 11.199219 L 18.398438 9.601562 L 20 9.601562 C 20.449219 9.601562 20.800781 9.953125 20.800781 10.398438 L 20.800781 13.601562 C 20.800781 14.046875 20.449219 14.398438 20 14.398438 L 18.398438 14.398438 Z M 5.601562 12.800781 L 5.601562 14.398438 L 4 14.398438 C 3.550781 14.398438 3.199219 14.046875 3.199219 13.601562 L 3.199219 10.398438 C 3.199219 9.953125 3.550781 9.601562 4 9.601562 L 5.601562 9.601562 L 5.601562 11.199219 L 4.800781 11.199219 L 4.800781 12.800781 Z M 8.800781 17.601562 L 15.199219 17.601562 L 15.199219 22.398438 L 8.800781 22.398438 Z M 8.800781 9.601562 L 15.199219 9.601562 L 15.199219 14.398438 L 8.800781 14.398438 Z M 8.800781 1.601562 L 15.199219 1.601562 L 15.199219 6.398438 L 8.800781 6.398438 Z M 6.398438 0 L 8 0 L 8 24 L 6.398438 24 Z M 16 0 L 17.601562 0 L 17.601562 24 L 16 24 Z M 16 0 "/>
</svg>
