<?xml version="1.0" encoding="UTF-8"?>
<svg xmlns="http://www.w3.org/2000/svg" xmlns:xlink="http://www.w3.org/1999/xlink" width="24" height="24" viewBox="0 0 24 24">
<path fill-rule="nonzero" fill="rgb(0%, 0%, 0%)" fill-opacity="1" d="M 17.601562 3.199219 L 17.601562 5.953125 C 17.601562 6.222656 17.457031 6.496094 17.214844 6.640625 L 15.152344 7.871094 C 14.191406 8.449219 13.601562 9.488281 13.601562 10.609375 L 13.601562 15.199219 C 13.601562 17.519531 15.265625 19.503906 17.535156 19.921875 L 21.742188 20.6875 C 22.128906 20.753906 22.398438 21.089844 22.398438 21.472656 L 22.398438 22.398438 L 1.601562 22.398438 L 1.601562 21.472656 C 1.601562 21.089844 1.871094 20.753906 2.257812 20.6875 L 6.464844 19.921875 C 8.734375 19.503906 10.398438 17.519531 10.398438 15.199219 L 10.398438 10.609375 C 10.398438 9.488281 9.808594 8.449219 8.847656 7.871094 L 6.785156 6.640625 C 6.542969 6.496094 6.398438 6.222656 6.398438 5.953125 L 6.398438 3.199219 C 6.398438 2.320312 7.121094 1.601562 8 1.601562 L 16 1.601562 C 16.878906 1.601562 17.601562 2.320312 17.601562 3.199219 Z M 17.601562 3.199219 "/>
</svg>
