<?xml version="1.0" encoding="UTF-8"?>
<svg xmlns="http://www.w3.org/2000/svg" xmlns:xlink="http://www.w3.org/1999/xlink" width="20" height="20" viewBox="0 0 20 20">
<path fill-rule="nonzero" fill="rgb(45.098039%, 29.019608%, 3.137255%)" fill-opacity="1" d="M 7.300781 12.414062 L 5.019531 8.292969 L 0.429688 8.292969 L 2.292969 9.410156 L 1.140625 11.472656 C 1.042969 11.660156 0.992188 11.855469 0.992188 12.058594 C 0.992188 12.261719 1.042969 12.457031 1.140625 12.644531 L 2.957031 15.925781 C 3.039062 15.691406 3.121094 15.484375 3.203125 15.316406 L 5.460938 11.296875 Z M 3.890625 15.722656 C 3.757812 15.945312 3.691406 16.183594 3.691406 16.4375 C 3.691406 16.828125 3.828125 17.15625 4.097656 17.429688 C 4.367188 17.699219 4.691406 17.835938 5.066406 17.835938 L 9.585938 17.835938 L 9.585938 14.042969 L 4.824219 14.042969 C 4.789062 14.113281 4.667969 14.332031 4.453125 14.707031 Z M 10.003906 6.332031 L 14.566406 6.332031 L 16.875 2.207031 L 15.011719 3.328125 L 13.855469 1.265625 C 13.644531 0.875 13.316406 0.683594 12.875 0.683594 L 9.242188 0.683594 C 9.386719 0.851562 9.511719 1.019531 9.609375 1.191406 L 11.84375 5.210938 L 11.476562 5.441406 Z M 7.769531 0.886719 C 7.246094 0.886719 6.851562 1.121094 6.589844 1.597656 L 4.308594 5.671875 C 5.175781 6.195312 6.230469 6.824219 7.472656 7.554688 C 8.210938 6.246094 9.003906 4.820312 9.855469 3.277344 L 8.945312 1.597656 C 8.683594 1.121094 8.292969 0.886719 7.769531 0.886719 Z M 13.636719 13.992188 L 13.636719 11.777344 L 11.351562 15.902344 L 13.636719 20 L 13.636719 17.785156 L 15.917969 17.785156 C 16.359375 17.785156 16.695312 17.589844 16.925781 17.199219 L 18.742188 13.917969 C 18.496094 13.984375 18.289062 14.019531 18.128906 14.019531 Z M 17.023438 7.019531 C 16.941406 7.070312 15.886719 7.699219 13.855469 8.902344 C 14.871094 10.71875 15.671875 12.152344 16.261719 13.203125 L 18.101562 13.203125 C 18.640625 13.203125 19.042969 12.964844 19.304688 12.492188 C 19.550781 12.03125 19.542969 11.566406 19.28125 11.089844 Z M 17.023438 7.019531 "/>
</svg>
