<?xml version="1.0" encoding="UTF-8" standalone="no"?>
<svg
   width="14"
   height="16"
   viewBox="0 0 14 16"
   fill="none"
   version="1.1"
   id="svg1"
   sodipodi:docname="restaurant.svg"
   inkscape:version="1.3.2 (091e20e, 2023-11-25, custom)"
   xmlns:inkscape="http://www.inkscape.org/namespaces/inkscape"
   xmlns:sodipodi="http://sodipodi.sourceforge.net/DTD/sodipodi-0.dtd"
   xmlns="http://www.w3.org/2000/svg"
   xmlns:svg="http://www.w3.org/2000/svg">
  <defs
     id="defs1" />
  <sodipodi:namedview
     id="namedview1"
     pagecolor="#ffffff"
     bordercolor="#666666"
     borderopacity="1.0"
     inkscape:showpageshadow="2"
     inkscape:pageopacity="0.0"
     inkscape:pagecheckerboard="0"
     inkscape:deskcolor="#d1d1d1"
     inkscape:zoom="28.785714"
     inkscape:cx="3.3349876"
     inkscape:cy="10.7866"
     inkscape:window-width="1920"
     inkscape:window-height="1017"
     inkscape:window-x="-8"
     inkscape:window-y="-8"
     inkscape:window-maximized="1"
     inkscape:current-layer="svg1" />
  <path
     d="M 1.5,1 C 1.25,1 1,1.25 1,1.75 V 8 c 0,1 1.75,1 1.75,2 l -0.5,5 h 2.5 L 4.25,10 C 4.25,9 6,9 6,8 V 1.75 c 0,-1 -1,-1 -1,0 V 7 C 5,7.56329 4,7.56329 4,7 V 1.75 c 0,-1 -1,-1 -1,0 V 7 C 3,7.52733 2,7.52733 2,7 V 1.75 C 2,1.25 1.75,1 1.5,1 Z M 10,1 C 9,1 7,3 7,6 c 0,3 2.25,4 2.25,4 l -0.5,5 h 2.5 l -0.5,-5 C 10.75,10 13,9 13,6 13,3 11,1 10,1 Z"
     fill="#c77400"
     id="path1"
     style="stroke:#ffffff;stroke-width:2;stroke-dasharray:none;stroke-opacity:1;paint-order:stroke fill markers" />
</svg>
