<?xml version="1.0" encoding="UTF-8"?>
<svg xmlns="http://www.w3.org/2000/svg" xmlns:xlink="http://www.w3.org/1999/xlink" width="20" height="20" viewBox="0 0 20 20">
<path fill="none" stroke-width="2" stroke-linecap="butt" stroke-linejoin="miter" stroke="rgb(100%, 100%, 100%)" stroke-opacity="1" stroke-miterlimit="4" d="M 1.501172 1 C 1.249609 1 1.000781 1.25 1.000781 1.75 L 1.000781 8 C 1.000781 9 2.750781 9 2.750781 10 L 2.250391 15 L 4.749609 15 L 4.249219 10 C 4.249219 9 5.999219 9 5.999219 8 L 5.999219 1.75 C 5.999219 0.75 5.001172 0.75 5.001172 1.75 L 5.001172 7 C 5.001172 7.5625 4.000391 7.5625 4.000391 7 L 4.000391 1.75 C 4.000391 0.75 2.999609 0.75 2.999609 1.75 L 2.999609 7 C 2.999609 7.528125 1.998828 7.528125 1.998828 7 L 1.998828 1.75 C 1.998828 1.25 1.75 1 1.501172 1 Z M 9.999609 1 C 8.998828 1 7 3 7 6 C 7 9 9.250391 10 9.250391 10 L 8.75 15 L 11.249219 15 L 10.748828 10 C 10.748828 10 12.999219 9 12.999219 6 C 12.999219 3 11.000391 1 9.999609 1 Z M 9.999609 1 " transform="matrix(1.428571, 0, 0, 1.25, 0, 0)"/>
<path fill-rule="nonzero" fill="rgb(78.039216%, 45.490196%, 0%)" fill-opacity="1" d="M 2.144531 1.25 C 1.785156 1.25 1.429688 1.5625 1.429688 2.1875 L 1.429688 10 C 1.429688 11.25 3.929688 11.25 3.929688 12.5 L 3.214844 18.75 L 6.785156 18.75 L 6.070312 12.5 C 6.070312 11.25 8.570312 11.25 8.570312 10 L 8.570312 2.1875 C 8.570312 0.9375 7.144531 0.9375 7.144531 2.1875 L 7.144531 8.75 C 7.144531 9.453125 5.714844 9.453125 5.714844 8.75 L 5.714844 2.1875 C 5.714844 0.9375 4.285156 0.9375 4.285156 2.1875 L 4.285156 8.75 C 4.285156 9.410156 2.855469 9.410156 2.855469 8.75 L 2.855469 2.1875 C 2.855469 1.5625 2.5 1.25 2.144531 1.25 Z M 14.285156 1.25 C 12.855469 1.25 10 3.75 10 7.5 C 10 11.25 13.214844 12.5 13.214844 12.5 L 12.5 18.75 L 16.070312 18.75 L 15.355469 12.5 C 15.355469 12.5 18.570312 11.25 18.570312 7.5 C 18.570312 3.75 15.714844 1.25 14.285156 1.25 Z M 14.285156 1.25 "/>
</svg>
