<?xml version="1.0" encoding="UTF-8"?>
<svg xmlns="http://www.w3.org/2000/svg" xmlns:xlink="http://www.w3.org/1999/xlink" width="24" height="24" viewBox="0 0 24 24">
<path fill-rule="nonzero" fill="rgb(0%, 0%, 0%)" fill-opacity="1" d="M 1.601562 20.800781 C 2 21.601562 2.800781 22.398438 3.199219 22.398438 L 3.199219 24 L 1.601562 24 Z M 9.601562 4.398438 C 9.601562 4.398438 12.800781 5.617188 12.800781 10.398438 C 12.800781 11.199219 12.800781 12.800781 12.800781 13.601562 C 12.800781 17.199219 16 22.398438 22.398438 22.398438 C 23.199219 22.398438 23.199219 24 22.398438 24 C 16 24 11.199219 18.800781 11.199219 13.601562 C 11.199219 12.800781 11.199219 11.199219 11.199219 10.398438 C 11.199219 8 10.398438 7.199219 10.398438 7.199219 C 10.398438 6.398438 10.398438 5.601562 9.601562 4.398438 Z M 1.601562 18.398438 C 1.601562 16.398438 3.601562 14.398438 5.601562 14.398438 C 7.601562 14.398438 9.601562 16.398438 9.601562 18.398438 C 9.601562 20.398438 8 22.398438 5.601562 22.398438 C 3.199219 22.398438 1.601562 20.398438 1.601562 18.398438 Z M 5.601562 16.800781 C 4.800781 16.800781 4 17.601562 4 18.398438 C 4 19.199219 4.800781 20 5.601562 20 C 6.398438 20 7.199219 19.199219 7.199219 18.398438 C 7.199219 17.601562 6.398438 16.800781 5.601562 16.800781 Z M 1.601562 9.601562 C 2 10.398438 2.398438 10.800781 3.199219 11.199219 L 3.199219 14.398438 C 2.398438 14.800781 2 15.199219 1.601562 16 Z M 9.601562 9.601562 L 9.601562 16 C 9.199219 15.199219 8.800781 14.800781 8 14.398438 L 8 11.199219 C 8.800781 10.800781 9.199219 10.398438 9.601562 9.601562 Z M 5.601562 0 C 6.398438 0 9.601562 4.800781 9.601562 7.199219 C 9.601562 9.199219 7.601562 11.199219 5.601562 11.199219 C 3.601562 11.199219 1.601562 9.199219 1.601562 7.199219 C 1.601562 4.800781 4.800781 0 5.601562 0 Z M 5.601562 5.601562 C 4.800781 5.601562 4 6.398438 4 7.199219 C 4 8 4.800781 8.800781 5.601562 8.800781 C 6.398438 8.800781 7.199219 8 7.199219 7.199219 C 7.199219 6.398438 6.398438 5.601562 5.601562 5.601562 Z M 5.601562 5.601562 "/>
</svg>
