<?xml version="1.0" encoding="UTF-8"?>
<svg xmlns="http://www.w3.org/2000/svg" xmlns:xlink="http://www.w3.org/1999/xlink" width="24" height="24" viewBox="0 0 24 24">
<path fill-rule="nonzero" fill="rgb(0%, 0%, 0%)" fill-opacity="1" d="M 16 22.398438 L 8 22.398438 L 8 17.601562 L 4.800781 17.601562 L 4.800781 22.398438 L 1.601562 22.398438 L 1.601562 8.800781 L 22.398438 8.800781 L 22.398438 22.398438 L 19.199219 22.398438 L 19.199219 17.601562 L 16 17.601562 Z M 11.601562 20.800781 L 12.398438 20.800781 L 12.398438 10.398438 L 11.601562 10.398438 Z M 4.800781 11.199219 L 4.800781 14.398438 L 8 14.398438 L 8 11.199219 Z M 19.199219 11.199219 L 16 11.199219 L 16 14.398438 L 19.199219 14.398438 Z M 17.601562 0.800781 L 23.199219 6.398438 L 23.199219 8 L 0.800781 8 L 0.800781 6.398438 L 6.398438 0.800781 L 12 6.398438 Z M 17.601562 0.800781 "/>
</svg>
