<?xml version="1.0" encoding="UTF-8"?>
<svg xmlns="http://www.w3.org/2000/svg" xmlns:xlink="http://www.w3.org/1999/xlink" width="24" height="24" viewBox="0 0 24 24">
<path fill-rule="nonzero" fill="rgb(0%, 0%, 0%)" fill-opacity="1" d="M 1.601562 8.800781 C 1.601562 8 6.398438 8 6.398438 8.800781 C 6.398438 8.800781 6.398438 20.800781 6.398438 20.800781 C 6.398438 21.601562 1.601562 21.601562 1.601562 20.800781 C 1.601562 20.800781 1.601562 8.800781 1.601562 8.800781 Z M 9.601562 8.800781 C 9.601562 8.800781 9.601562 20.800781 9.601562 20.800781 C 9.601562 21.601562 14.398438 21.601562 14.398438 20.800781 C 14.398438 20.800781 14.398438 8.800781 14.398438 8.800781 C 14.398438 8 9.601562 8 9.601562 8.800781 Z M 18.398438 10.398438 C 17.601562 9.601562 14.398438 12.800781 15.199219 13.601562 C 15.199219 13.601562 20.800781 20.800781 20.800781 20.800781 C 21.601562 21.601562 23.199219 21.601562 24 20.800781 C 22.398438 19.199219 22.398438 16.800781 23.199219 16 C 23.199219 16 18.398438 10.398438 18.398438 10.398438 Z M 9.601562 2.398438 L 1.601562 2.398438 C 0.800781 2.398438 0.800781 7.199219 1.601562 7.199219 C 1.601562 7.199219 14.398438 7.199219 14.398438 7.199219 C 15.199219 7.199219 15.199219 4 14.398438 4 C 12 4 9.601562 3.199219 9.601562 2.398438 Z M 9.601562 2.398438 "/>
</svg>
