<?xml version="1.0" encoding="UTF-8"?>
<svg xmlns="http://www.w3.org/2000/svg" xmlns:xlink="http://www.w3.org/1999/xlink" width="24" height="24" viewBox="0 0 24 24">
<path fill-rule="nonzero" fill="rgb(0%, 0%, 0%)" fill-opacity="1" d="M 0 12.800781 L 24 12.800781 L 24 16 L 0 16 Z M 1.601562 10.398438 L 3.199219 10.398438 C 4.078125 10.398438 4.800781 11.121094 4.800781 12 L 4.800781 12.800781 L 0 12.800781 L 0 12 C 0 11.121094 0.71875 10.398438 1.601562 10.398438 Z M 8 10.398438 L 9.601562 10.398438 C 10.480469 10.398438 11.199219 11.121094 11.199219 12 L 11.199219 12.800781 L 6.398438 12.800781 L 6.398438 12 C 6.398438 11.121094 7.121094 10.398438 8 10.398438 Z M 14.398438 10.398438 L 16 10.398438 C 16.878906 10.398438 17.601562 11.121094 17.601562 12 L 17.601562 12.800781 L 12.800781 12.800781 L 12.800781 12 C 12.800781 11.121094 13.519531 10.398438 14.398438 10.398438 Z M 20.800781 10.398438 L 22.398438 10.398438 C 23.28125 10.398438 24 11.121094 24 12 L 24 12.800781 L 19.199219 12.800781 L 19.199219 12 C 19.199219 11.121094 19.921875 10.398438 20.800781 10.398438 Z M 20.800781 10.398438 "/>
</svg>
