<?xml version="1.0" encoding="UTF-8"?>
<svg xmlns="http://www.w3.org/2000/svg" xmlns:xlink="http://www.w3.org/1999/xlink" width="24" height="24" viewBox="0 0 24 24">
<path fill-rule="nonzero" fill="rgb(0%, 0%, 0%)" fill-opacity="1" d="M 0 17.503906 L 0 15.550781 C 0 12.6875 0.542969 9.871094 1.601562 7.214844 L 2.894531 3.9375 C 3.089844 3.488281 3.519531 3.199219 4 3.199219 C 4.480469 3.199219 4.910156 3.488281 5.105469 3.9375 C 7.152344 8.800781 9.457031 11.230469 12 11.230469 C 14.542969 11.230469 16.847656 8.800781 18.894531 3.9375 C 19.089844 3.488281 19.519531 3.199219 20 3.199219 C 20.480469 3.199219 20.910156 3.488281 21.105469 3.9375 L 22.398438 7.214844 C 23.457031 9.871094 24 12.6875 24 15.550781 L 24 17.503906 C 24 19.28125 22.558594 20.703125 20.800781 20.703125 C 20.449219 20.703125 20.097656 20.65625 19.761719 20.542969 C 17.167969 19.648438 14.59375 19.199219 12 19.199219 C 9.40625 19.199219 6.832031 19.648438 4.238281 20.542969 C 2.574219 21.121094 0.753906 20.222656 0.175781 18.558594 C 0.0625 18.222656 0 17.871094 0 17.503906 Z M 4 4.832031 L 1.601562 11.441406 L 3.199219 13.039062 L 4.800781 11.441406 L 6.398438 14.640625 C 7.472656 12.511719 8 11.441406 8 11.441406 C 6.945312 10.382812 6.0625 9.152344 5.425781 7.808594 Z M 20 4.832031 L 18.574219 7.808594 C 17.9375 9.152344 17.054688 10.382812 16 11.441406 C 16 11.441406 16.527344 12.511719 17.601562 14.640625 L 19.199219 11.441406 L 20.800781 13.039062 L 22.398438 11.441406 Z M 20 4.832031 "/>
</svg>
