<?xml version="1.0" encoding="UTF-8"?>
<svg xmlns="http://www.w3.org/2000/svg" xmlns:xlink="http://www.w3.org/1999/xlink" width="24" height="24" viewBox="0 0 24 24">
<path fill-rule="nonzero" fill="rgb(0%, 0%, 0%)" fill-opacity="1" d="M 22.558594 23.519531 C 22.105469 23.519531 21.65625 23.414062 21.265625 23.230469 C 20.859375 23.039062 20.40625 22.929688 19.925781 22.929688 C 19.449219 22.929688 18.992188 23.039062 18.589844 23.230469 C 18.191406 23.414062 17.746094 23.519531 17.285156 23.519531 C 16.828125 23.519531 16.382812 23.414062 15.984375 23.230469 C 15.582031 23.039062 15.125 22.929688 14.644531 22.929688 C 14.167969 22.929688 13.714844 23.039062 13.308594 23.230469 C 12.910156 23.414062 12.46875 23.519531 12.007812 23.519531 C 11.546875 23.519531 11.105469 23.414062 10.707031 23.230469 C 10.304688 23.039062 9.84375 22.929688 9.371094 22.929688 C 8.890625 22.929688 8.433594 23.039062 8.03125 23.230469 C 7.636719 23.414062 7.191406 23.519531 6.730469 23.519531 C 6.269531 23.519531 5.828125 23.414062 5.429688 23.230469 C 5.027344 23.039062 4.566406 22.929688 4.089844 22.929688 C 3.613281 22.929688 3.160156 23.039062 2.75 23.230469 C 2.351562 23.414062 1.910156 23.519531 1.449219 23.519531 L 1.449219 21.550781 C 1.910156 21.550781 2.351562 21.445312 2.75 21.265625 C 3.152344 21.078125 3.613281 20.964844 4.089844 20.964844 C 4.566406 20.964844 5.019531 21.078125 5.429688 21.265625 C 5.828125 21.445312 6.269531 21.550781 6.730469 21.550781 C 7.195312 21.550781 7.636719 21.445312 8.03125 21.265625 C 8.433594 21.078125 8.894531 20.964844 9.371094 20.964844 C 9.84375 20.964844 10.300781 21.078125 10.707031 21.265625 C 11.105469 21.445312 11.546875 21.550781 12.007812 21.550781 C 12.46875 21.550781 12.910156 21.445312 13.308594 21.265625 C 13.71875 21.078125 14.175781 20.964844 14.648438 20.964844 C 15.128906 20.964844 15.585938 21.078125 15.988281 21.265625 C 16.382812 21.445312 16.828125 21.550781 17.289062 21.550781 C 17.75 21.550781 18.191406 21.445312 18.59375 21.265625 C 19 21.078125 19.460938 20.964844 19.929688 20.964844 C 20.410156 20.964844 20.867188 21.078125 21.269531 21.265625 C 21.664062 21.445312 22.109375 21.550781 22.570312 21.550781 L 22.570312 23.519531 Z M 13.921875 0.480469 L 13.921875 15.359375 L 2.058594 15.359375 Z M 15.359375 3.898438 C 15.359375 5.558594 22.96875 10.078125 22.410156 15.359375 L 15.359375 15.359375 Z M 20.894531 16.320312 L 4.800781 16.320312 L 4.800781 19.296875 C 5.28125 19.34375 5.207031 19.398438 5.371094 19.476562 C 5.769531 19.65625 6.234375 19.761719 6.695312 19.761719 C 7.160156 19.761719 7.617188 19.65625 8.011719 19.484375 C 8.414062 19.292969 8.878906 19.179688 9.359375 19.179688 C 9.835938 19.179688 10.296875 19.292969 10.699219 19.484375 C 11.097656 19.660156 11.539062 19.765625 12.003906 19.765625 C 12.464844 19.765625 12.910156 19.660156 13.304688 19.488281 C 13.714844 19.296875 14.167969 19.1875 14.644531 19.1875 C 15.125 19.1875 15.582031 19.296875 15.984375 19.488281 C 16.378906 19.664062 16.824219 19.769531 17.285156 19.769531 C 17.375 19.769531 17.457031 19.753906 17.542969 19.738281 L 17.566406 19.746094 L 17.726562 19.722656 C 17.832031 19.707031 17.9375 19.695312 18.042969 19.671875 C 18.988281 19.472656 19.597656 18.707031 19.597656 18.707031 L 21.441406 16.328125 L 20.902344 16.328125 Z M 20.894531 16.320312 "/>
</svg>
