<?xml version="1.0" encoding="UTF-8"?>
<svg xmlns="http://www.w3.org/2000/svg" xmlns:xlink="http://www.w3.org/1999/xlink" width="24" height="24" viewBox="0 0 24 24">
<path fill-rule="nonzero" fill="rgb(0%, 0%, 0%)" fill-opacity="1" d="M 1.988281 18 L 8.011719 18 C 8.28125 18 8.5 17.78125 8.5 17.511719 L 8.5 8.5 C 8.5 8.28125 8.359375 8.089844 8.152344 8.027344 C 7.941406 7.964844 7.71875 8.046875 7.601562 8.230469 L 1.585938 17.238281 C 1.484375 17.390625 1.476562 17.582031 1.5625 17.742188 C 1.644531 17.898438 1.808594 18 1.988281 18 Z M 1.988281 18 "/>
<path fill-rule="nonzero" fill="rgb(0%, 0%, 0%)" fill-opacity="1" d="M 10 18 L 21.996094 18 C 22.128906 18 22.261719 17.949219 22.355469 17.851562 C 22.449219 17.753906 22.503906 17.625 22.5 17.488281 C 22.289062 8.300781 16.421875 0.378906 10.015625 0 C 9.878906 -0.00390625 9.746094 0.0429688 9.648438 0.140625 C 9.554688 0.234375 9.5 0.363281 9.5 0.5 L 9.5 17.5 C 9.5 17.777344 9.722656 18 10 18 Z M 10 18 "/>
<path fill-rule="nonzero" fill="rgb(0%, 0%, 0%)" fill-opacity="1" d="M 23 19.5 L 1 19.5 C 0.449219 19.5 0 19.949219 0 20.5 C 0 22.433594 1.566406 24 3.5 24 L 20.5 24 C 22.433594 24 24 22.433594 24 20.5 C 24 19.949219 23.550781 19.5 23 19.5 Z M 23 19.5 "/>
</svg>
