<?xml version="1.0" encoding="UTF-8"?>
<svg xmlns="http://www.w3.org/2000/svg" xmlns:xlink="http://www.w3.org/1999/xlink" width="24" height="24" viewBox="0 0 24 24">
<path fill-rule="nonzero" fill="rgb(0%, 0%, 0%)" fill-opacity="1" d="M 13.601562 15.199219 L 16 17.601562 L 18.398438 15.199219 L 22.398438 15.199219 L 22.398438 16 C 22.398438 17.777344 20.976562 19.199219 19.199219 19.199219 L 4.800781 19.199219 C 3.039062 19.199219 1.601562 17.777344 1.601562 16 L 1.601562 15.199219 Z M 13.601562 15.199219 "/>
<path fill-rule="nonzero" fill="rgb(0%, 0%, 0%)" fill-opacity="1" d="M 4 12.800781 C 4.449219 12.800781 4.800781 13.152344 4.800781 13.601562 C 4.800781 14.046875 4.449219 14.398438 4 14.398438 L 2.398438 14.398438 C 1.953125 14.398438 1.601562 14.046875 1.601562 13.601562 C 1.601562 13.152344 1.953125 12.800781 2.398438 12.800781 Z M 10.398438 12.800781 L 7.199219 12.800781 C 6.753906 12.800781 6.398438 13.152344 6.398438 13.601562 C 6.398438 14.046875 6.753906 14.398438 7.199219 14.398438 L 10.398438 14.398438 C 10.847656 14.398438 11.199219 14.046875 11.199219 13.601562 C 11.199219 13.152344 10.847656 12.800781 10.398438 12.800781 Z M 21.601562 12.800781 L 18.398438 12.800781 C 17.953125 12.800781 17.601562 13.152344 17.601562 13.601562 C 17.601562 14.046875 17.953125 14.398438 18.398438 14.398438 L 21.601562 14.398438 C 22.046875 14.398438 22.398438 14.046875 22.398438 13.601562 C 22.398438 13.152344 22.046875 12.800781 21.601562 12.800781 Z M 15.199219 12.800781 L 13.601562 12.800781 C 13.152344 12.800781 12.800781 13.152344 12.800781 13.601562 C 12.800781 14.046875 13.152344 14.398438 13.601562 14.398438 L 15.199219 14.398438 C 15.648438 14.398438 16 14.046875 16 13.601562 C 16 13.152344 15.648438 12.800781 15.199219 12.800781 Z M 15.199219 12.800781 "/>
<path fill-rule="nonzero" fill="rgb(0%, 0%, 0%)" fill-opacity="1" d="M 14.910156 6.398438 L 13.710938 8.382812 C 13.488281 8.769531 13.617188 9.265625 13.984375 9.488281 C 14.367188 9.710938 14.863281 9.585938 15.089844 9.214844 L 16.800781 6.398438 L 19.199219 6.398438 C 20.976562 6.398438 22.398438 7.824219 22.398438 9.601562 L 22.398438 12 L 1.601562 12 L 1.601562 9.601562 C 1.601562 7.824219 3.039062 6.398438 4.800781 6.398438 L 6.910156 6.398438 L 5.710938 8.382812 C 5.488281 8.769531 5.617188 9.265625 5.984375 9.488281 C 6.367188 9.710938 6.863281 9.585938 7.089844 9.214844 L 8.800781 6.398438 L 10.910156 6.398438 L 9.710938 8.382812 C 9.488281 8.769531 9.617188 9.265625 9.984375 9.488281 C 10.367188 9.710938 10.863281 9.585938 11.089844 9.214844 L 12.800781 6.398438 Z M 14.910156 6.398438 "/>
</svg>
