<?xml version="1.0" encoding="UTF-8"?>
<svg xmlns="http://www.w3.org/2000/svg" xmlns:xlink="http://www.w3.org/1999/xlink" width="24" height="24" viewBox="0 0 24 24">
<path fill-rule="nonzero" fill="rgb(0%, 0%, 0%)" fill-opacity="1" d="M 16 0 L 16 24 C 16 24 0 24 0 24 C 0 24 0 0 0 0 Z M 14.398438 1.601562 L 1.601562 1.601562 L 1.601562 22.398438 C 1.601562 22.398438 14.398438 22.398438 14.398438 22.398438 Z M 4 6.398438 C 4 6.398438 12 6.398438 12 6.398438 C 12.800781 6.398438 12.800781 8 12 8 C 12 8 4 8 4 8 C 3.199219 8 3.199219 6.398438 4 6.398438 Z M 4 9.601562 C 4 9.601562 12 9.601562 12 9.601562 C 12.800781 9.601562 12.800781 11.199219 12 11.199219 C 12 11.199219 4 11.199219 4 11.199219 C 3.199219 11.199219 3.199219 9.601562 4 9.601562 Z M 4 12.800781 C 4 12.800781 12 12.800781 12 12.800781 C 12.800781 12.800781 12.800781 14.398438 12 14.398438 C 12 14.398438 4 14.398438 4 14.398438 C 3.199219 14.398438 3.199219 12.800781 4 12.800781 Z M 4 16 C 4 16 12 16 12 16 C 12.800781 16 12.800781 17.601562 12 17.601562 C 12 17.601562 4 17.601562 4 17.601562 C 3.199219 17.601562 3.199219 16 4 16 Z M 4 16 "/>
<path fill-rule="nonzero" fill="rgb(0%, 0%, 0%)" fill-opacity="1" d="M 17.601562 20.800781 C 18.398438 21.601562 21.601562 21.601562 22.398438 20.800781 C 22.398438 20.800781 20.800781 24 20 24 C 19.199219 24 17.601562 20.800781 17.601562 20.800781 Z M 17.601562 4.800781 C 17.601562 5.601562 22.398438 5.601562 22.398438 4.800781 C 22.398438 4.800781 22.398438 19.199219 22.398438 19.199219 C 22.398438 20 17.601562 20 17.601562 19.199219 C 17.601562 19.199219 17.601562 4.800781 17.601562 4.800781 Z M 20 0 C 17.601562 0 17.601562 0.800781 17.601562 1.601562 C 17.601562 1.601562 17.601562 3.199219 17.601562 3.199219 C 17.601562 4 22.398438 4 22.398438 3.199219 C 22.398438 3.199219 22.398438 1.601562 22.398438 1.601562 C 22.398438 0.800781 22.398438 0 20 0 Z M 20 0 "/>
</svg>
