<?xml version="1.0" encoding="UTF-8"?>
<svg xmlns="http://www.w3.org/2000/svg" xmlns:xlink="http://www.w3.org/1999/xlink" width="24" height="24" viewBox="0 0 24 24">
<path fill-rule="nonzero" fill="rgb(0%, 0%, 0%)" fill-opacity="1" d="M 0.480469 2.398438 L 4.136719 6.1875 L 5.542969 4.910156 L 4.273438 2.414062 Z M 16.964844 13.011719 C 17.65625 13.203125 18.398438 12.8125 18.59375 12.097656 C 18.789062 11.394531 18.382812 10.660156 17.683594 10.464844 L 17.140625 10.316406 L 16.441406 12.859375 L 16.964844 13.019531 Z M 16.535156 10.148438 L 12.164062 8.898438 C 11.875 8.824219 11.585938 9 11.503906 9.292969 L 11.097656 10.777344 C 11.015625 11.070312 11.175781 11.367188 11.46875 11.453125 L 15.84375 12.691406 L 16.539062 10.152344 Z M 17.226562 14.363281 C 16.894531 14.039062 16.476562 13.785156 16 13.652344 L 10.695312 12.144531 L 7.433594 6.28125 C 7.261719 5.980469 6.984375 5.742188 6.628906 5.640625 C 5.914062 5.4375 5.167969 5.859375 4.976562 6.585938 C 4.882812 6.929688 4.925781 7.28125 5.082031 7.578125 L 9.160156 14.828125 C 9.160156 14.828125 9.496094 15.371094 10.335938 15.652344 L 17.746094 17.761719 L 21.183594 21.296875 C 21.296875 21.421875 21.445312 21.511719 21.625 21.566406 C 22.140625 21.710938 22.683594 21.398438 22.832031 20.875 C 22.933594 20.511719 22.8125 20.121094 22.554688 19.882812 Z M 21.183594 15.824219 L 21.957031 16.847656 L 23.519531 15.113281 L 22.195312 14.367188 C 22.320312 13.425781 21.742188 12.519531 20.824219 12.253906 C 19.808594 11.964844 18.753906 12.5625 18.476562 13.59375 C 18.1875 14.625 18.78125 15.691406 19.796875 15.972656 C 20.28125 16.113281 20.769531 16.035156 21.183594 15.832031 Z M 21.183594 15.824219 "/>
</svg>
