<?xml version="1.0" encoding="UTF-8"?>
<svg xmlns="http://www.w3.org/2000/svg" xmlns:xlink="http://www.w3.org/1999/xlink" width="20" height="20" viewBox="0 0 20 20">
<path fill-rule="evenodd" fill="rgb(67.45098%, 22.352941%, 67.45098%)" fill-opacity="1" d="M 8.570312 4.285156 C 4.285156 4.285156 0 7.144531 0 10 C 0 12.855469 4.285156 15.714844 8.570312 15.714844 C 11.777344 15.683594 15.714844 12.855469 15.714844 10 C 15.714844 7.144531 11.429688 4.285156 8.570312 4.285156 Z M 15.714844 10 C 15.714844 12.855469 18.050781 14.675781 20 15.714844 C 20 12.855469 19.046875 11.90625 18.570312 10 C 19.046875 8.09375 20 7.144531 20 4.285156 C 18.246094 5.234375 15.714844 7.144531 15.714844 10 Z M 4.261719 7.144531 C 4.636719 7.136719 5.003906 7.277344 5.273438 7.539062 C 5.546875 7.800781 5.707031 8.160156 5.714844 8.539062 L 5.714844 8.570312 C 5.714844 8.949219 5.566406 9.3125 5.300781 9.578125 C 5.03125 9.847656 4.671875 9.996094 4.292969 10 C 3.917969 10.003906 3.554688 9.855469 3.285156 9.589844 C 3.015625 9.324219 2.863281 8.964844 2.855469 8.589844 C 2.851562 8.210938 2.996094 7.847656 3.261719 7.574219 C 3.523438 7.304688 3.882812 7.148438 4.261719 7.144531 Z M 4.261719 7.144531 "/>
</svg>
