<?xml version="1.0" encoding="UTF-8"?>
<svg xmlns="http://www.w3.org/2000/svg" xmlns:xlink="http://www.w3.org/1999/xlink" width="20" height="20" viewBox="0 0 20 20">
<path fill-rule="evenodd" fill="rgb(40%, 40%, 40%)" fill-opacity="1" d="M 5.726562 0 L 4.296875 2.855469 L 4.964844 2.855469 L 6.460938 0 Z M 11.441406 0 L 10.011719 2.855469 L 10.679688 2.855469 L 12.175781 0 Z M 17.152344 0 L 15.726562 2.855469 L 16.394531 2.855469 L 17.890625 0 Z M 1.429688 2.855469 L 0 5.714844 L 0.667969 5.714844 L 2.167969 2.855469 Z M 7.152344 2.855469 L 5.726562 5.714844 L 6.394531 5.714844 L 7.890625 2.855469 Z M 12.867188 2.855469 L 11.441406 5.714844 L 12.109375 5.714844 L 13.605469 2.855469 Z M 18.582031 2.855469 L 17.152344 5.714844 L 17.824219 5.714844 L 19.320312 2.855469 Z M 3.570312 5.714844 L 2.144531 8.570312 L 2.8125 8.570312 L 4.3125 5.714844 Z M 14.976562 5.714844 L 13.546875 8.570312 L 14.214844 8.570312 L 15.714844 5.714844 Z M 10 7.144531 L 0 12.855469 L 2.855469 12.855469 L 4.285156 12.285156 L 4.285156 19.285156 C 4.285156 19.410156 4.316406 19.527344 4.378906 19.636719 C 4.4375 19.742188 4.523438 19.832031 4.628906 19.898438 C 4.738281 19.960938 4.859375 19.996094 4.988281 20 C 5.113281 20 5.238281 19.96875 5.347656 19.90625 C 5.460938 19.847656 5.550781 19.753906 5.617188 19.644531 C 5.679688 19.535156 5.714844 19.414062 5.714844 19.285156 L 5.714844 11.714844 L 10 10 L 14.285156 11.714844 L 14.285156 19.285156 C 14.285156 19.410156 14.316406 19.527344 14.378906 19.636719 C 14.4375 19.742188 14.523438 19.832031 14.628906 19.898438 C 14.738281 19.960938 14.859375 19.996094 14.988281 20 C 15.113281 20 15.238281 19.96875 15.347656 19.90625 C 15.460938 19.847656 15.550781 19.753906 15.617188 19.644531 C 15.679688 19.535156 15.714844 19.414062 15.714844 19.285156 L 15.714844 12.285156 L 17.144531 12.855469 L 20 12.855469 Z M 10 7.144531 "/>
</svg>
