<?xml version="1.0" encoding="UTF-8"?>
<svg xmlns="http://www.w3.org/2000/svg" xmlns:xlink="http://www.w3.org/1999/xlink" width="20" height="20" viewBox="0 0 20 20">
<path fill-rule="nonzero" fill="rgb(0%, 0%, 0%)" fill-opacity="1" d="M 0 0 C 0 1.25 0.816406 2.050781 1.25 2.480469 C 1.683594 2.910156 2.304688 2.746094 2.304688 3.070312 C 2.304688 3.070312 2.5 3.730469 3.125 3.730469 L 4.6875 3.730469 C 4.6875 4.089844 5 4.355469 5 4.355469 C 5 4.355469 4.6875 4.53125 4.6875 4.980469 L 3.125 4.980469 C 2.5 4.980469 2.5 5.292969 2.5 5.605469 C 2.5 6.265625 2.5 6.855469 2.5 6.855469 C 2.5 7.15625 2.789062 7.480469 3.125 7.480469 C 3.460938 7.480469 4.6875 7.480469 4.6875 7.480469 L 4.6875 8.730469 L 3.75 8.730469 C 3.75 9.238281 4.089844 9.644531 4.6875 9.980469 C 4.6875 10.375 4.6875 16.855469 4.6875 16.855469 C 4.6875 17.679688 6.5625 17.75 6.5625 16.855469 L 6.5625 7.480469 L 10.9375 7.480469 L 10.9375 16.855469 C 10.9375 17.71875 12.8125 17.660156 12.8125 16.855469 C 12.8125 16.855469 12.8125 10.375 12.8125 9.980469 C 13.410156 9.589844 13.75 9.238281 13.75 8.730469 L 12.8125 8.730469 L 12.8125 7.480469 C 12.8125 7.480469 14.039062 7.480469 14.375 7.480469 C 14.652344 7.480469 15 7.15625 15 6.855469 C 15 6.855469 15 6.230469 15 5.605469 C 15 4.980469 14.65625 4.980469 14.375 4.980469 L 12.8125 4.980469 C 12.84375 4.652344 12.5 4.355469 12.5 4.355469 C 12.5 4.355469 12.8125 4.089844 12.8125 3.730469 L 14.375 3.730469 C 15 3.730469 15 3.105469 15 3.105469 C 15 2.808594 15.730469 2.933594 16.25 2.480469 C 16.769531 2.027344 17.5 1.25 17.5 0 C 10 1.25 6.25 1.25 0 0 Z M 6.5625 3.730469 C 6.5625 3.730469 7.8125 3.730469 7.8125 3.730469 L 7.8125 4.980469 L 6.5625 4.980469 C 6.5625 4.621094 6.25 4.355469 6.25 4.355469 C 6.25 4.355469 6.5625 4.121094 6.5625 3.730469 Z M 9.6875 3.730469 L 10.9375 3.730469 C 10.9375 4.0625 11.25 4.355469 11.25 4.355469 C 11.25 4.355469 10.9375 4.652344 10.9375 4.980469 L 9.6875 4.980469 Z M 9.6875 3.730469 "/>
</svg>
