<?xml version="1.0" encoding="UTF-8"?>
<svg xmlns="http://www.w3.org/2000/svg" xmlns:xlink="http://www.w3.org/1999/xlink" width="20" height="20" viewBox="0 0 20 20">
<path fill-rule="nonzero" fill="rgb(67.45098%, 22.352941%, 67.45098%)" fill-opacity="1" d="M 1.070312 4.285156 C 1.070312 4.285156 0 7.5 0 11.785156 L 7.855469 11.785156 C 8.570312 11.785156 9.722656 13.214844 9.714844 13.214844 L 20 13.214844 C 20 8.929688 15.714844 8.570312 14.285156 8.570312 L 11.429688 8.570312 C 10 5.714844 7.144531 4.285156 7.144531 4.285156 L 6.785156 4.285156 C 5.714844 6.441406 2.878906 6.441406 1.429688 4.285156 Z M 7.855469 5.714844 C 8.25 5.714844 8.570312 6.035156 8.570312 6.429688 C 8.570312 6.824219 8.25 7.144531 7.855469 7.144531 C 7.460938 7.144531 7.144531 6.824219 7.144531 6.429688 C 7.144531 6.035156 7.460938 5.714844 7.855469 5.714844 Z M 9.285156 7.144531 C 9.679688 7.144531 10 7.460938 10 7.855469 C 10 8.25 9.679688 8.570312 9.285156 8.570312 C 8.890625 8.570312 8.570312 8.25 8.570312 7.855469 C 8.570312 7.460938 8.890625 7.144531 9.285156 7.144531 Z M 0 12.855469 L 0 15.714844 L 7.5 15.714844 L 7.5 12.855469 Z M 10.429688 14.285156 C 10.429688 14.285156 11.429688 15.714844 12.144531 15.714844 L 20 15.714844 L 20 14.285156 Z M 10.429688 14.285156 "/>
</svg>
