<?xml version="1.0" encoding="UTF-8"?>
<svg xmlns="http://www.w3.org/2000/svg" xmlns:xlink="http://www.w3.org/1999/xlink" width="24" height="24" viewBox="0 0 24 24">
<path fill-rule="nonzero" fill="rgb(0%, 0%, 0%)" fill-opacity="1" d="M 10.398438 1.601562 C 12.800781 1.601562 14.398438 2.398438 15.199219 3.199219 C 15.199219 4 8.800781 12 8 12 C 7.199219 12 6.59375 11.375 6.398438 10.398438 C 5.183594 12.992188 3.199219 19.199219 2.398438 22.398438 C 2.398438 23.199219 0 23.199219 0 22.398438 C 0 21.601562 2.351562 8.59375 5.601562 4.800781 C 7.152344 2.992188 8.800781 1.601562 10.398438 1.601562 Z M 10.398438 1.601562 "/>
<path fill-rule="nonzero" fill="rgb(0%, 0%, 0%)" fill-opacity="1" d="M 21.824219 16.222656 C 22.144531 16.527344 22.414062 16.753906 22.6875 17.054688 C 22.976562 17.34375 22.175781 18.160156 21.871094 17.921875 C 21.550781 17.679688 21.425781 17.535156 20.992188 17.089844 C 20.574219 16.65625 21.503906 15.921875 21.824219 16.222656 Z M 19.214844 13.742188 C 18.816406 13.328125 18.046875 14.304688 18.398438 14.609375 C 18.734375 14.910156 18.929688 15.105469 19.265625 15.441406 C 19.601562 15.777344 20.449219 14.894531 20.097656 14.558594 C 19.726562 14.238281 19.632812 14.144531 19.214844 13.742188 Z M 16.625 11.246094 C 16.335938 10.976562 15.535156 11.871094 15.792969 12.128906 C 16.207031 12.527344 16.367188 12.671875 16.65625 12.945312 C 16.945312 13.214844 17.855469 12.433594 17.488281 12.078125 C 17.121094 11.742188 16.894531 11.519531 16.625 11.246094 Z M 14.015625 8.769531 C 13.632812 8.398438 12.753906 9.230469 13.183594 9.632812 C 13.617188 10.046875 13.742188 10.207031 14.046875 10.464844 C 14.351562 10.71875 15.152344 9.855469 14.878906 9.601562 C 14.609375 9.34375 14.351562 9.089844 14.015625 8.769531 Z M 18.449219 20.03125 C 18.0625 19.472656 17.230469 20.433594 17.519531 20.785156 C 17.808594 21.136719 18 21.375 18.273438 21.710938 C 18.542969 22.046875 19.519531 21.34375 19.199219 20.960938 C 18.894531 20.558594 18.878906 20.542969 18.449219 20.03125 Z M 16.191406 17.230469 C 15.902344 16.878906 14.894531 17.503906 15.265625 17.984375 C 15.617188 18.464844 15.648438 18.449219 16.015625 18.910156 C 16.367188 19.375 17.199219 18.480469 16.945312 18.160156 C 16.6875 17.839844 16.449219 17.535156 16.191406 17.230469 Z M 13.9375 14.433594 C 13.535156 13.9375 12.65625 14.753906 12.992188 15.183594 C 13.34375 15.601562 13.472656 15.808594 13.742188 16.113281 C 14.03125 16.414062 15.054688 15.855469 14.6875 15.359375 C 14.414062 14.992188 14.304688 14.878906 13.9375 14.433594 Z M 11.664062 11.617188 C 11.105469 11.121094 10.304688 11.855469 10.734375 12.382812 C 11.167969 12.910156 11.199219 12.976562 11.488281 13.3125 C 11.777344 13.648438 12.753906 12.945312 12.414062 12.558594 C 12.097656 12.160156 11.871094 11.871094 11.664062 11.617188 Z M 22.191406 10.128906 C 21.726562 9.824219 21.230469 10.894531 21.488281 11.105469 C 21.742188 11.3125 22.097656 11.550781 22.464844 11.808594 C 22.816406 12.0625 23.425781 11.054688 23.167969 10.832031 C 22.894531 10.609375 22.753906 10.511719 22.191406 10.128906 Z M 19.265625 8.015625 C 18.894531 7.777344 18.207031 8.769531 18.558594 8.992188 C 18.945312 9.296875 19.167969 9.425781 19.535156 9.695312 C 19.902344 9.96875 20.542969 8.929688 20.238281 8.71875 C 19.953125 8.496094 19.679688 8.289062 19.265625 8.015625 Z M 16.351562 5.921875 C 15.96875 5.632812 15.296875 6.625 15.648438 6.878906 C 16 7.152344 16.304688 7.375 16.625 7.585938 C 16.945312 7.808594 17.679688 6.894531 17.328125 6.625 C 17.023438 6.367188 16.769531 6.222656 16.351562 5.921875 Z M 16.351562 5.921875 "/>
</svg>
