<?xml version="1.0" encoding="UTF-8"?>
<svg xmlns="http://www.w3.org/2000/svg" xmlns:xlink="http://www.w3.org/1999/xlink" width="20" height="20" viewBox="0 0 20 20">
<path fill-rule="nonzero" fill="rgb(45.098039%, 29.019608%, 3.137255%)" fill-opacity="1" d="M 10 0 L 7.144531 4.285156 L 7.144531 17.144531 L 12.855469 17.144531 L 12.855469 4.285156 Z M 10 5.710938 C 10.378906 5.710938 10.742188 5.863281 11.011719 6.128906 C 11.277344 6.398438 11.429688 6.761719 11.429688 7.140625 C 11.429688 7.140625 11.429688 7.140625 11.429688 7.144531 L 11.429688 11.429688 L 8.570312 11.429688 L 8.570312 7.144531 C 8.570312 7.140625 8.570312 7.140625 8.570312 7.140625 C 8.570312 6.761719 8.722656 6.398438 8.988281 6.128906 C 9.257812 5.863281 9.621094 5.710938 10 5.710938 Z M 5.714844 18.570312 L 5.714844 20 L 14.285156 20 L 14.285156 18.570312 Z M 5.714844 18.570312 "/>
</svg>
