<?xml version="1.0" encoding="UTF-8"?>
<svg xmlns="http://www.w3.org/2000/svg" xmlns:xlink="http://www.w3.org/1999/xlink" width="24" height="24" viewBox="0 0 24 24">
<path fill-rule="nonzero" fill="rgb(0%, 0%, 0%)" fill-opacity="1" d="M 18.574219 17.34375 C 17.871094 18.464844 16.625 19.199219 15.199219 19.199219 C 15.039062 19.199219 14.878906 19.183594 14.71875 19.167969 C 14.71875 19.183594 14.734375 19.183594 14.734375 19.199219 C 15.726562 20.414062 16.945312 21.488281 18.398438 22.398438 L 5.601562 22.398438 C 7.023438 21.535156 8.238281 20.464844 9.265625 19.199219 C 9.488281 18.910156 9.710938 18.558594 9.9375 18.128906 C 9.214844 18.785156 8.257812 19.199219 7.199219 19.199219 C 5.246094 19.199219 3.617188 17.792969 3.265625 15.9375 C 1.40625 15.585938 0 13.953125 0 12 C 0 10.398438 0.929688 9.023438 2.289062 8.382812 C 1.855469 7.839844 1.601562 7.152344 1.601562 6.398438 C 1.601562 4.640625 3.039062 3.199219 4.800781 3.199219 C 5.535156 3.199219 6.207031 3.457031 6.753906 3.871094 C 8.0625 2.464844 9.9375 1.601562 12 1.601562 C 13.886719 1.601562 15.601562 2.320312 16.878906 3.503906 C 17.34375 3.3125 17.855469 3.199219 18.398438 3.199219 C 20.609375 3.199219 22.398438 4.992188 22.398438 7.199219 C 22.398438 8.222656 22.015625 9.152344 21.390625 9.855469 C 22.910156 10.414062 24 11.886719 24 13.601562 C 24 15.808594 22.207031 17.601562 20 17.601562 C 19.503906 17.601562 19.023438 17.503906 18.574219 17.34375 Z M 18.574219 17.34375 "/>
</svg>
