<?xml version="1.0" encoding="UTF-8"?>
<svg xmlns="http://www.w3.org/2000/svg" xmlns:xlink="http://www.w3.org/1999/xlink" width="24" height="24" viewBox="0 0 24 24">
<path fill-rule="nonzero" fill="rgb(0%, 0%, 0%)" fill-opacity="1" d="M 18.398438 6.800781 C 18.398438 7.902344 17.503906 8.800781 16.398438 8.800781 C 15.296875 8.800781 14.398438 7.902344 14.398438 6.800781 C 14.398438 5.695312 15.296875 4.800781 16.398438 4.800781 C 17.503906 4.800781 18.398438 5.695312 18.398438 6.800781 Z M 14.398438 9.199219 L 15.601562 9.199219 L 22.398438 13.96875 L 22.398438 15.070312 L 21.601562 15.070312 L 17.601562 12.222656 L 17.601562 15.070312 L 19.199219 18 L 20.800781 21.664062 L 20 22.398438 L 19.199219 22.398438 L 17.601562 18.734375 L 14.398438 14.335938 L 14.398438 10.910156 L 12.398438 12.496094 L 10.800781 15.070312 L 9.601562 15.070312 L 9.601562 14.335938 L 10.800781 12.128906 Z M 15.070312 16.832031 L 13.230469 22.398438 L 12.398438 22.398438 L 11.601562 21.664062 L 13.855469 15.472656 Z M 3.199219 4.800781 L 5.601562 4.800781 C 6.046875 4.800781 6.398438 5.152344 6.398438 5.601562 C 6.398438 6.046875 6.046875 6.398438 5.601562 6.398438 L 3.199219 6.398438 Z M 3.199219 3.199219 L 3.199219 9.601562 L 8 9.601562 L 8 3.199219 Z M 3.199219 1.601562 L 8 1.601562 C 8.878906 1.601562 9.601562 2.320312 9.601562 3.199219 L 9.601562 9.601562 C 9.601562 10.480469 8.878906 11.199219 8 11.199219 L 3.199219 11.199219 C 2.320312 11.199219 1.601562 10.480469 1.601562 9.601562 L 1.601562 3.199219 C 1.601562 2.320312 2.320312 1.601562 3.199219 1.601562 Z M 4.800781 12 L 6.398438 12 L 6.398438 22.398438 L 4.800781 22.398438 Z M 4.800781 12 "/>
</svg>
