<?xml version="1.0" encoding="UTF-8"?>
<svg xmlns="http://www.w3.org/2000/svg" xmlns:xlink="http://www.w3.org/1999/xlink" width="24" height="24" viewBox="0 0 24 24">
<path fill-rule="nonzero" fill="rgb(0%, 0%, 0%)" fill-opacity="1" d="M 14.472656 23.503906 C 14.832031 23.503906 15.121094 23.203125 15.121094 22.828125 C 15.121094 22.460938 14.832031 22.15625 14.472656 22.15625 C 14.113281 22.15625 13.824219 22.460938 13.824219 22.828125 C 13.824219 23.203125 14.117188 23.503906 14.476562 23.503906 Z M 13.347656 4.03125 C 14.304688 4.03125 15.078125 3.234375 15.078125 2.25 C 15.078125 1.273438 14.300781 0.476562 13.347656 0.476562 C 12.394531 0.476562 11.621094 1.265625 11.621094 2.25 C 11.621094 3.234375 12.398438 4.03125 13.347656 4.03125 Z M 3.96875 19.578125 C 3.886719 19.738281 3.839844 19.914062 3.839844 20.105469 C 3.839844 20.730469 4.335938 21.238281 4.949219 21.238281 C 5.390625 21.238281 5.765625 20.976562 5.941406 20.601562 L 9.714844 13.929688 L 8.152344 12.316406 Z M 12.144531 19.28125 C 11.964844 19.660156 11.585938 19.925781 11.152344 19.925781 C 10.546875 19.925781 10.050781 19.414062 10.050781 18.792969 C 10.050781 18.601562 10.097656 18.421875 10.179688 18.265625 L 11.824219 15.292969 L 8.617188 12.015625 C 7.386719 10.742188 8.265625 9.371094 8.265625 9.371094 L 9.988281 6.234375 L 5.414062 6.238281 C 4.910156 6.238281 4.507812 5.792969 4.507812 5.28125 C 4.507812 4.769531 4.910156 4.324219 5.414062 4.324219 L 19.257812 4.324219 C 19.757812 4.324219 20.160156 4.769531 20.160156 5.289062 C 20.160156 5.804688 19.757812 6.25 19.257812 6.25 L 13.976562 6.25 L 11.457031 10.789062 L 14.027344 13.402344 C 14.921875 14.289062 14.34375 15.289062 14.34375 15.289062 L 12.148438 19.300781 Z M 16.320312 21.121094 C 16.320312 21.382812 16.105469 21.601562 15.839844 21.601562 L 7.679688 21.601562 C 7.414062 21.601562 7.199219 21.382812 7.199219 21.121094 C 7.199219 20.855469 7.414062 20.640625 7.679688 20.640625 L 15.839844 20.640625 C 16.105469 20.640625 16.320312 20.855469 16.320312 21.121094 Z M 16.320312 21.121094 "/>
<path fill-rule="nonzero" fill="rgb(0%, 0%, 0%)" fill-opacity="1" d="M 8.558594 22.851562 C 8.539062 23.105469 8.65625 23.347656 8.867188 23.476562 C 9.078125 23.609375 9.339844 23.609375 9.550781 23.476562 C 9.761719 23.347656 9.878906 23.105469 9.859375 22.851562 C 9.878906 22.601562 9.761719 22.359375 9.550781 22.226562 C 9.339844 22.09375 9.078125 22.09375 8.867188 22.226562 C 8.65625 22.359375 8.539062 22.601562 8.558594 22.851562 Z M 8.558594 22.851562 "/>
</svg>
