<?xml version="1.0" encoding="UTF-8"?>
<svg xmlns="http://www.w3.org/2000/svg" xmlns:xlink="http://www.w3.org/1999/xlink" width="24" height="24" viewBox="0 0 24 24">
<path fill-rule="nonzero" fill="rgb(0%, 0%, 0%)" fill-opacity="1" d="M 16.253906 4.117188 C 17.25 4.117188 18.054688 3.308594 18.054688 2.304688 C 18.054688 1.300781 17.25 0.480469 16.253906 0.480469 C 15.257812 0.480469 14.457031 1.296875 14.457031 2.304688 C 14.457031 3.3125 15.257812 4.125 16.253906 4.125 Z M 8.621094 11.496094 L 15.089844 7.265625 C 15.9375 6.726562 16.191406 5.597656 15.652344 4.742188 C 15.125 3.886719 14 3.628906 13.15625 4.171875 L 8.386719 7.285156 C 8.117188 7.464844 7.902344 7.695312 7.765625 7.964844 L 2.804688 17.867188 C 2.511719 18.453125 2.742188 19.160156 3.3125 19.460938 C 3.886719 19.753906 4.59375 19.523438 4.886719 18.941406 L 8.625 11.496094 Z M 21.222656 10.804688 C 22.074219 10.261719 22.34375 9.125 21.804688 8.257812 L 21.175781 8.644531 C 21.503906 9.167969 21.339844 9.847656 20.828125 10.171875 L 0.964844 22.890625 L 1.359375 23.519531 L 21.226562 10.804688 Z M 21.222656 10.804688 "/>
</svg>
