<?xml version="1.0" encoding="UTF-8"?>
<svg xmlns="http://www.w3.org/2000/svg" xmlns:xlink="http://www.w3.org/1999/xlink" width="24" height="24" viewBox="0 0 24 24">
<path fill-rule="nonzero" fill="rgb(0%, 0%, 0%)" fill-opacity="1" d="M 21.203125 8.945312 C 22.21875 8.945312 23.039062 8.117188 23.039062 7.09375 C 23.039062 6.070312 22.21875 5.246094 21.203125 5.246094 C 20.1875 5.246094 19.367188 6.070312 19.367188 7.09375 C 19.367188 8.117188 20.195312 8.945312 21.203125 8.945312 Z M 20.683594 21.636719 L 1.339844 10.1875 L 0.960938 10.839844 L 20.292969 22.296875 C 21.183594 22.828125 22.324219 22.535156 22.851562 21.636719 L 22.210938 21.25 C 21.894531 21.789062 21.207031 21.957031 20.679688 21.636719 Z M 22.546875 13.042969 L 19.257812 11.105469 L 18.878906 6.144531 C 18.820312 5.546875 18.503906 5.015625 18.035156 4.691406 L 13.296875 1.863281 C 12.175781 1.105469 10.671875 1.402344 9.917969 2.535156 C 9.503906 3.152344 9.390625 3.9375 9.589844 4.570312 L 10.875 8.8125 L 7 10.0625 C 6.511719 10.257812 6.140625 10.71875 6.070312 11.28125 C 5.972656 12.105469 6.582031 12.652344 7.402344 12.75 C 7.589844 12.773438 7.714844 12.714844 7.886719 12.671875 L 13.179688 10.90625 C 13.570312 10.761719 13.992188 10.371094 14.035156 10.035156 C 14.0625 9.792969 14.144531 9.582031 14.09375 9.4375 L 13.285156 6.53125 L 16.46875 8.441406 L 16.851562 11.226562 C 16.886719 11.710938 17.105469 12.0625 17.476562 12.273438 L 21.636719 14.726562 C 22.09375 14.980469 22.671875 14.808594 22.921875 14.34375 C 23.175781 13.882812 23 13.296875 22.546875 13.046875 Z M 22.546875 13.042969 "/>
</svg>
