<?xml version="1.0" encoding="UTF-8"?>
<svg xmlns="http://www.w3.org/2000/svg" xmlns:xlink="http://www.w3.org/1999/xlink" width="24" height="24" viewBox="0 0 24 24">
<path fill-rule="nonzero" fill="rgb(0%, 0%, 0%)" fill-opacity="1" d="M 6.398438 11.199219 L 6.398438 22.398438 L 3.199219 22.398438 L 3.199219 12.449219 L 1.601562 13.054688 L 1.601562 9.601562 L 22.398438 1.601562 L 22.398438 5.023438 Z M 10.929688 18.65625 C 9.3125 18.65625 8 17.34375 8 15.726562 C 8 14.113281 9.3125 12.800781 10.929688 12.800781 C 12.527344 12.800781 13.839844 14.113281 13.839844 15.726562 C 13.839844 17.34375 12.527344 18.65625 10.929688 18.65625 Z M 22.398438 22.398438 L 18.398438 22.398438 L 18.398438 13.9375 L 22.398438 13.9375 Z M 14.734375 19.519531 L 14.734375 15.167969 C 14.734375 14.367188 15.375 13.726562 16.175781 13.726562 C 16.960938 13.726562 17.617188 14.367188 17.617188 15.167969 L 17.617188 20.960938 C 17.617188 21.742188 16.960938 22.398438 16.175781 22.398438 L 9.503906 22.398438 C 8.703125 22.398438 8.0625 21.742188 8.0625 20.960938 C 8.0625 20.160156 8.703125 19.519531 9.503906 19.519531 Z M 14.734375 19.519531 "/>
</svg>
