<?xml version="1.0" encoding="UTF-8"?>
<svg xmlns="http://www.w3.org/2000/svg" xmlns:xlink="http://www.w3.org/1999/xlink" width="24" height="24" viewBox="0 0 24 24">
<path fill-rule="nonzero" fill="rgb(0%, 0%, 0%)" fill-opacity="1" d="M 1.601562 17.601562 L 6.398438 17.601562 L 6.398438 14.398438 L 1.601562 14.398438 Z M 1.601562 19.199219 L 1.601562 22.398438 L 0 22.398438 L 0 8.992188 C -0.496094 8.542969 -0.800781 7.902344 -0.800781 7.199219 C -0.800781 6.496094 -0.496094 5.855469 0 5.40625 L 0 2.398438 C 0 1.953125 0.351562 1.601562 0.800781 1.601562 C 1.246094 1.601562 1.601562 1.953125 1.601562 2.398438 L 1.601562 4.800781 L 6.398438 4.800781 L 6.398438 2.398438 C 6.398438 1.953125 6.753906 1.601562 7.199219 1.601562 C 7.648438 1.601562 8 1.953125 8 2.398438 L 8 4.878906 C 8.945312 5.070312 9.808594 5.617188 10.398438 6.398438 L 18.800781 17.601562 L 21.601562 17.601562 C 22.929688 17.601562 24 18.671875 24 20 C 24 21.328125 22.929688 22.398438 21.601562 22.398438 L 18.398438 22.398438 C 17.136719 22.398438 15.953125 21.808594 15.199219 20.800781 L 8 11.199219 L 8 22.398438 L 6.398438 22.398438 L 6.398438 19.199219 Z M 1.601562 12.800781 L 6.398438 12.800781 L 6.398438 9.601562 L 1.601562 9.601562 Z M 1.601562 12.800781 "/>
</svg>
