<?xml version="1.0" encoding="UTF-8"?>
<svg xmlns="http://www.w3.org/2000/svg" xmlns:xlink="http://www.w3.org/1999/xlink" width="24" height="24" viewBox="0 0 24 24">
<path fill-rule="nonzero" fill="rgb(0%, 0%, 0%)" fill-opacity="1" d="M 9.929688 5.945312 C 10.882812 5.945312 11.648438 5.15625 11.648438 4.171875 C 11.648438 3.195312 10.882812 2.398438 9.929688 2.398438 C 8.980469 2.398438 8.207031 3.195312 8.207031 4.171875 C 8.207031 5.15625 8.980469 5.945312 9.929688 5.945312 Z M 11.957031 20.160156 L 20.144531 20.160156 C 20.144531 20.160156 20.671875 20.257812 21.730469 19.386719 L 23.523438 18.039062 L 23.523438 19.632812 L 21.695312 21.042969 C 21.695312 21.042969 21.152344 21.5 20.238281 21.605469 L 11.273438 21.605469 L 11.960938 20.164062 Z M 0.550781 21.601562 L 8.746094 21.601562 L 9.425781 20.160156 L 1.171875 20.160156 L 0.488281 21.601562 Z M 10.800781 8.167969 C 10.800781 7.15625 9.949219 6.332031 9.003906 6.332031 C 8.054688 6.332031 7.203125 7.15625 7.203125 8.167969 L 7.203125 12.664062 C 7.203125 13.234375 7.621094 13.921875 8 13.921875 L 4.152344 13.921875 L 2.074219 18.039062 C 2.03125 18.128906 2.007812 18.328125 2.007812 18.4375 C 2.007812 18.804688 2.539062 19.199219 2.886719 19.199219 L 16.804688 19.199219 C 16.804688 19.199219 17.433594 19.257812 18.351562 18.484375 L 22.035156 15.566406 L 20.644531 12.960938 C 20.644531 12.960938 20.328125 12.328125 19.152344 12.132812 L 16.371094 11.636719 L 14.878906 8.972656 L 14.816406 8.941406 C 14.601562 8.679688 14.40625 8.648438 13.925781 8.875 L 13.925781 8.878906 C 13.925781 9.054688 13.679688 9.335938 13.777344 9.585938 L 14.886719 11.558594 L 14.886719 11.574219 L 13.425781 14.09375 L 10.566406 12.957031 L 10.566406 11.996094 L 13.007812 11.996094 C 13.113281 11.996094 13.230469 11.902344 13.335938 11.855469 C 13.757812 11.6875 13.964844 11.144531 13.800781 10.699219 C 13.679688 10.355469 13.371094 10.128906 13.054688 10.125 L 10.800781 10.109375 L 10.804688 8.164062 "/>
</svg>
