<?xml version="1.0" encoding="UTF-8"?>
<svg xmlns="http://www.w3.org/2000/svg" xmlns:xlink="http://www.w3.org/1999/xlink" width="24" height="24" viewBox="0 0 24 24">
<path fill-rule="nonzero" fill="rgb(0%, 0%, 0%)" fill-opacity="1" d="M 16.617188 4.195312 C 17.628906 4.195312 18.453125 3.363281 18.453125 2.335938 C 18.453125 1.316406 17.628906 0.480469 16.617188 0.480469 C 15.601562 0.480469 14.773438 1.308594 14.773438 2.335938 C 14.773438 3.359375 15.601562 4.195312 16.617188 4.195312 Z M 21.550781 11.273438 C 21.230469 12.019531 20.546875 11.796875 20.546875 11.796875 L 17.667969 10.703125 C 17.378906 10.597656 17.160156 10.359375 17.082031 10.066406 L 16.429688 8.152344 L 15.414062 10.972656 L 18.398438 14.132812 C 18.773438 14.792969 18.714844 15.28125 18.714844 15.28125 L 18.714844 19.640625 C 18.714844 19.640625 20.664062 20.511719 20.664062 21.585938 C 20.664062 22.660156 19.8125 23.53125 18.75 23.53125 C 18.59375 23.53125 18.457031 23.515625 18.308594 23.476562 L 11.992188 22.0625 L 11.992188 21.121094 L 16.789062 20.058594 L 16.789062 16.089844 L 13.566406 12.875 L 13.0625 16.242188 C 12.980469 16.671875 12.667969 17.070312 12.496094 17.265625 L 10.277344 19.859375 C 10.242188 19.828125 10.199219 19.828125 10.15625 19.832031 L 10.277344 19.859375 C 10.851562 20.3125 11.152344 21.070312 10.972656 21.835938 C 10.726562 22.882812 9.6875 23.53125 8.65625 23.28125 C 8.5 23.242188 8.363281 23.195312 8.226562 23.125 L 2.398438 20.265625 L 2.617188 19.347656 L 7.964844 19.425781 L 10.503906 16.464844 L 11.289062 10.636719 L 12.941406 6.230469 L 10.65625 7.554688 L 9.292969 10.246094 C 8.878906 11.101562 8.136719 10.652344 8.136719 10.652344 C 7.464844 10.261719 7.722656 9.605469 7.722656 9.605469 L 9.121094 6.757812 C 9.496094 6.035156 9.792969 5.929688 9.792969 5.929688 L 13.050781 4.128906 C 13.761719 3.632812 14.585938 4.019531 14.585938 4.019531 L 16.464844 4.738281 C 17.40625 5.078125 17.441406 5.605469 17.441406 5.605469 L 18.605469 9.359375 L 21.105469 10.253906 C 21.105469 10.253906 21.777344 10.546875 21.546875 11.292969 Z M 18.621094 22.640625 L 18.769531 22.652344 C 19.355469 22.652344 19.808594 22.171875 19.808594 21.574219 C 19.808594 20.984375 19.203125 20.503906 18.726562 20.503906 L 18.726562 20.730469 C 18.726562 21.296875 18.292969 21.753906 17.730469 21.753906 C 17.238281 21.753906 16.859375 21.394531 16.765625 20.921875 L 13.820312 21.582031 L 18.625 22.640625 Z M 8.71875 22.371094 L 8.851562 22.414062 C 9.425781 22.550781 10 22.195312 10.132812 21.625 C 10.234375 21.1875 10.054688 20.746094 9.714844 20.5 L 9.28125 21.007812 C 8.914062 21.4375 8.273438 21.484375 7.847656 21.113281 C 7.597656 20.894531 7.503906 20.585938 7.515625 20.28125 L 4.28125 20.226562 L 8.71875 22.378906 Z M 8.71875 22.371094 "/>
</svg>
