<?xml version="1.0" encoding="UTF-8"?>
<svg xmlns="http://www.w3.org/2000/svg" xmlns:xlink="http://www.w3.org/1999/xlink" width="24" height="24" viewBox="0 0 24 24">
<path fill-rule="nonzero" fill="rgb(0%, 0%, 0%)" fill-opacity="1" d="M 0 13.601562 C 3.199219 14.398438 7.199219 16 7.199219 16 C 7.199219 16 8.800781 15.199219 9.601562 15.199219 L 12.800781 15.199219 L 17.601562 14.398438 C 17.601562 14.398438 18.398438 15.199219 17.601562 16 C 16.800781 16.800781 13.601562 17.601562 12.800781 17.601562 C 12 17.601562 13.601562 18.398438 13.601562 18.398438 L 16 18.398438 C 16 18.398438 19.199219 18.398438 20.800781 17.601562 C 22.398438 16.800781 24 16 24 16.800781 C 20.800781 20 19.199219 20.800781 19.199219 20.800781 C 19.199219 20.800781 16 21.601562 12.800781 21.601562 C 12 21.601562 9.601562 20 8.800781 20 C 8 20 0 20.800781 0 20 Z M 20 0.800781 C 22.398438 0.800781 22.398438 3.199219 22.398438 4 C 22.398438 7.199219 17.601562 12 16.800781 12 C 16 12 11.199219 7.199219 11.199219 4 C 11.199219 3.199219 11.199219 0.800781 13.601562 0.800781 C 16 0.800781 16.800781 3.199219 16.800781 3.199219 C 16.800781 3.199219 17.601562 0.800781 20 0.800781 Z M 20 0.800781 "/>
</svg>
