<?xml version="1.0" encoding="UTF-8"?>
<svg xmlns="http://www.w3.org/2000/svg" xmlns:xlink="http://www.w3.org/1999/xlink" width="24" height="24" viewBox="0 0 24 24">
<path fill-rule="nonzero" fill="rgb(0%, 0%, 0%)" fill-opacity="1" d="M 0 16 L 24 16 L 24 16.800781 C 24 17.246094 23.648438 17.601562 23.199219 17.601562 L 0.800781 17.601562 C 0.351562 17.601562 0 17.246094 0 16.800781 Z M 4.800781 6.398438 L 4.800781 12.273438 L 3.199219 15.199219 L 0 15.199219 Z M 9.601562 6.398438 L 9.601562 12.273438 L 8 15.199219 L 4.800781 15.199219 Z M 14.398438 6.398438 L 14.398438 12.273438 L 12.800781 15.199219 L 9.601562 15.199219 Z M 19.199219 6.398438 L 19.199219 12.273438 L 17.601562 15.199219 L 14.398438 15.199219 Z M 24 6.398438 L 24 12.273438 L 22.398438 15.199219 L 19.199219 15.199219 Z M 24 6.398438 "/>
</svg>
