<?xml version="1.0" encoding="UTF-8"?>
<svg xmlns="http://www.w3.org/2000/svg" xmlns:xlink="http://www.w3.org/1999/xlink" width="20" height="20" viewBox="0 0 20 20">
<path fill-rule="evenodd" fill="rgb(67.45098%, 22.352941%, 67.45098%)" fill-opacity="1" d="M 7.917969 1.824219 C 7.917969 2.058594 7.871094 2.292969 7.78125 2.511719 C 7.691406 2.730469 7.558594 2.929688 7.386719 3.09375 C 7.21875 3.261719 7.019531 3.394531 6.800781 3.484375 C 6.582031 3.574219 6.347656 3.621094 6.109375 3.621094 C 5.871094 3.621094 5.632812 3.574219 5.414062 3.484375 C 5.195312 3.394531 4.996094 3.261719 4.828125 3.09375 C 4.660156 2.929688 4.527344 2.730469 4.433594 2.511719 C 4.34375 2.292969 4.296875 2.058594 4.296875 1.824219 C 4.296875 1.585938 4.34375 1.351562 4.433594 1.132812 C 4.527344 0.914062 4.660156 0.714844 4.828125 0.550781 C 4.996094 0.382812 5.195312 0.25 5.414062 0.160156 C 5.632812 0.0703125 5.871094 0.0234375 6.109375 0.0234375 C 6.589844 0.0234375 7.050781 0.210938 7.386719 0.550781 C 7.726562 0.886719 7.917969 1.34375 7.917969 1.824219 Z M 17.707031 14.050781 L 13.878906 15.035156 C 13.722656 15.074219 13.375 15.039062 13.242188 15.007812 C 12.90625 14.941406 12.8125 14.785156 12.679688 14.621094 L 10.867188 11.632812 L 8.585938 14.082031 L 9.507812 18.65625 C 9.535156 18.753906 9.550781 18.835938 9.550781 18.902344 C 9.550781 19.195312 9.457031 19.449219 9.265625 19.660156 C 9.074219 19.871094 8.847656 19.976562 8.585938 19.976562 C 8.089844 19.976562 7.78125 19.691406 7.664062 19.121094 L 6.546875 13.566406 C 6.414062 12.980469 6.472656 12.546875 6.722656 12.269531 L 8.71875 10.042969 L 6.546875 7.230469 L 5.144531 8.796875 C 5 8.957031 4.832031 9.039062 4.640625 9.039062 C 4.390625 9.039062 4.152344 8.917969 3.917969 8.671875 L 1.636719 6.128906 C 1.519531 5.964844 1.460938 5.785156 1.460938 5.589844 C 1.460938 5.34375 1.539062 5.140625 1.691406 4.976562 C 1.847656 4.816406 2.023438 4.734375 2.230469 4.734375 C 2.433594 4.734375 2.59375 4.796875 2.710938 4.929688 L 4.597656 7.035156 L 6.875 4.488281 C 7.050781 4.292969 7.277344 4.136719 7.535156 4.195312 L 12.496094 5.300781 C 12.710938 5.347656 12.867188 5.550781 13.027344 5.746094 L 14.132812 7.644531 C 14.304688 7.808594 14.394531 8.011719 14.394531 8.257812 C 14.394531 8.484375 14.320312 8.679688 14.175781 8.84375 C 14.027344 9.007812 13.855469 9.089844 13.648438 9.089844 C 13.429688 9.089844 13.238281 8.992188 13.078125 8.796875 L 11.800781 6.652344 L 9.71875 6.300781 L 14.035156 12.996094 L 17.546875 11.988281 C 17.828125 11.988281 18.078125 12.042969 18.269531 12.238281 C 18.460938 12.433594 18.652344 12.609375 18.652344 12.917969 C 18.652344 13.210938 18.53125 13.46875 18.339844 13.671875 C 18.152344 13.875 17.964844 13.984375 17.707031 14.050781 Z M 17.707031 14.050781 "/>
</svg>
