<?xml version="1.0" encoding="UTF-8"?>
<svg xmlns="http://www.w3.org/2000/svg" xmlns:xlink="http://www.w3.org/1999/xlink" width="24" height="24" viewBox="0 0 24 24">
<path fill-rule="nonzero" fill="rgb(0%, 0%, 0%)" fill-opacity="1" d="M 16 15.199219 C 16 15.488281 15.855469 15.792969 15.550781 15.921875 L 15.390625 15.984375 L 12.097656 16.800781 L 15.390625 17.617188 C 16.144531 17.808594 16.191406 18.832031 15.550781 19.121094 L 15.390625 19.183594 L 12.097656 20 L 15.390625 20.816406 C 16.144531 21.007812 16.191406 22.03125 15.550781 22.320312 L 15.390625 22.382812 L 15.296875 22.398438 L 19.199219 22.398438 C 20.015625 22.398438 20.703125 23.023438 20.785156 23.808594 L 20.800781 24 L 3.199219 24 C 3.199219 23.121094 3.921875 22.398438 4.800781 22.398438 L 8.6875 22.398438 L 11.902344 21.601562 L 8.609375 20.785156 C 7.855469 20.59375 7.808594 19.566406 8.449219 19.28125 L 8.609375 19.214844 L 11.902344 18.398438 L 8.609375 17.585938 C 7.855469 17.390625 7.808594 16.367188 8.449219 16.078125 L 8.609375 16.015625 L 11.902344 15.199219 Z M 19.199219 0 L 19.199219 1.601562 C 20.191406 1.601562 21.136719 2.097656 21.679688 2.929688 L 23.726562 6 C 23.902344 6.257812 24 6.574219 24 6.878906 L 24 8.113281 C 24 8.542969 23.648438 8.910156 23.199219 8.910156 C 23.039062 8.910156 22.878906 8.863281 22.753906 8.769531 L 21.199219 7.726562 C 20.609375 7.34375 19.808594 7.503906 19.40625 8.078125 C 19.28125 8.304688 19.199219 8.542969 19.199219 8.800781 C 19.199219 9.726562 19.070312 10.640625 18.832031 11.519531 L 22.910156 12.878906 C 23.96875 13.230469 24.335938 14.527344 23.664062 15.390625 L 23.535156 15.535156 L 20.335938 18.734375 C 19.710938 19.359375 18.6875 19.359375 18.0625 18.734375 C 17.488281 18.160156 17.441406 17.246094 17.9375 16.625 L 18.0625 16.464844 L 19.441406 15.105469 L 17.34375 14.398438 L 6.304688 14.398438 L 4.800781 15.3125 L 4.800781 17.601562 L 4.785156 17.792969 C 4.703125 18.574219 4.015625 19.199219 3.199219 19.199219 C 2.382812 19.199219 1.695312 18.574219 1.617188 17.792969 L 1.601562 17.601562 L 1.601562 14.398438 L 1.617188 14.191406 C 1.664062 13.777344 1.871094 13.40625 2.207031 13.152344 L 2.382812 13.023438 L 4.800781 11.566406 L 4.800781 11.199219 C 4.800781 10.320312 4.078125 9.601562 3.199219 9.601562 C 2.382812 9.601562 1.695312 10.222656 1.617188 11.007812 L 1.601562 11.199219 C 1.601562 12.015625 0.976562 12.703125 0.191406 12.785156 L 0 12.800781 L 0 7.199219 C 0 6.320312 0.71875 5.601562 1.601562 5.601562 C 2.59375 5.601562 3.535156 6.097656 4.078125 6.929688 L 4.800781 8 C 4.800781 7.121094 5.519531 6.398438 6.398438 6.398438 L 8 6.398438 L 8 7.199219 L 8.015625 7.457031 C 8.144531 9.550781 9.871094 11.199219 12 11.199219 C 14.128906 11.199219 15.855469 9.550781 15.984375 7.457031 L 16 7.199219 L 16 6.398438 C 16 2.128906 17.070312 0 19.199219 0 Z M 14.398438 6.398438 L 14.398438 7.199219 L 14.382812 7.425781 C 14.273438 8.65625 13.246094 9.601562 12 9.601562 C 10.753906 9.601562 9.726562 8.65625 9.617188 7.425781 L 9.601562 7.199219 L 9.601562 6.398438 Z M 14.398438 6.398438 "/>
</svg>
