<?xml version="1.0" encoding="UTF-8"?>
<svg xmlns="http://www.w3.org/2000/svg" xmlns:xlink="http://www.w3.org/1999/xlink" width="24" height="24" viewBox="0 0 24 24">
<path fill-rule="nonzero" fill="rgb(0%, 0%, 0%)" fill-opacity="1" d="M 22.398438 1.601562 C 22.398438 1.601562 22.398438 4 22.398438 4 C 21.199219 4 21.199219 6.398438 22.398438 6.398438 C 22.398438 6.398438 22.398438 8.398438 22.398438 8.398438 C 21.199219 8.398438 21.199219 10.800781 22.398438 10.800781 C 22.398438 10.800781 22.398438 13.199219 22.398438 13.199219 C 21.199219 13.199219 21.199219 15.601562 22.398438 15.601562 C 22.398438 15.601562 22.398438 17.601562 22.398438 17.601562 C 21.199219 17.601562 21.199219 20 22.398438 20 C 22.398438 20 22.398438 22.398438 22.398438 22.398438 C 22.398438 22.398438 20 22.398438 20 22.398438 C 20 21.199219 17.601562 21.199219 17.601562 22.398438 C 17.601562 22.398438 15.601562 22.398438 15.601562 22.398438 C 15.601562 21.199219 13.199219 21.199219 13.199219 22.398438 C 13.199219 22.398438 10.800781 22.398438 10.800781 22.398438 C 10.800781 21.199219 8.398438 21.199219 8.398438 22.398438 C 8.398438 22.398438 6.398438 22.398438 6.398438 22.398438 C 6.398438 21.199219 4 21.199219 4 22.398438 C 4 22.398438 1.601562 22.398438 1.601562 22.398438 C 1.601562 22.398438 1.601562 20 1.601562 20 C 2.800781 20 2.800781 17.601562 1.601562 17.601562 C 1.601562 17.601562 1.601562 15.601562 1.601562 15.601562 C 2.800781 15.601562 2.800781 13.199219 1.601562 13.199219 C 1.601562 13.199219 1.601562 10.800781 1.601562 10.800781 C 2.800781 10.800781 2.800781 8.398438 1.601562 8.398438 C 1.601562 8.398438 1.601562 6.398438 1.601562 6.398438 C 2.800781 6.398438 2.800781 4 1.601562 4 C 1.601562 4 1.601562 1.601562 1.601562 1.601562 C 1.601562 1.601562 4 1.601562 4 1.601562 C 4 2.800781 6.398438 2.800781 6.398438 1.601562 C 6.398438 1.601562 8.398438 1.601562 8.398438 1.601562 C 8.398438 2.800781 10.800781 2.800781 10.800781 1.601562 C 10.800781 1.601562 13.199219 1.601562 13.199219 1.601562 C 13.199219 2.800781 15.601562 2.800781 15.601562 1.601562 C 15.601562 1.601562 17.601562 1.601562 17.601562 1.601562 C 17.601562 2.800781 20 2.800781 20 1.601562 C 20 1.601562 22.398438 1.601562 22.398438 1.601562 Z M 19.199219 4.800781 C 19.199219 4.800781 4.800781 4.800781 4.800781 4.800781 L 4.800781 19.199219 L 19.199219 19.199219 C 19.199219 19.199219 19.199219 4.800781 19.199219 4.800781 Z M 17.601562 6.398438 L 17.601562 17.601562 L 6.398438 17.601562 L 6.398438 6.398438 Z M 17.601562 6.398438 "/>
</svg>
