<?xml version="1.0" encoding="UTF-8"?>
<svg xmlns="http://www.w3.org/2000/svg" xmlns:xlink="http://www.w3.org/1999/xlink" width="24" height="24" viewBox="0 0 24 24">
<path fill-rule="nonzero" fill="rgb(0%, 0%, 0%)" fill-opacity="1" d="M 7.328125 3.808594 L 8.398438 6.398438 C 9.726562 9.566406 10.398438 12.960938 10.398438 16.398438 L 10.398438 21.601562 C 10.398438 22.046875 10.046875 22.398438 9.601562 22.398438 L 2.398438 22.398438 C 1.953125 22.398438 1.601562 22.046875 1.601562 21.601562 L 1.601562 2.398438 C 1.601562 1.953125 1.953125 1.601562 2.398438 1.601562 L 4 1.601562 C 5.457031 1.601562 6.769531 2.480469 7.328125 3.808594 Z M 16.671875 3.808594 L 15.601562 6.398438 C 14.273438 9.566406 13.601562 12.960938 13.601562 16.398438 L 13.601562 21.601562 C 13.601562 22.046875 13.953125 22.398438 14.398438 22.398438 L 21.601562 22.398438 C 22.046875 22.398438 22.398438 22.046875 22.398438 21.601562 L 22.398438 2.398438 C 22.398438 1.953125 22.046875 1.601562 21.601562 1.601562 L 20 1.601562 C 18.542969 1.601562 17.230469 2.480469 16.671875 3.808594 Z M 16.671875 3.808594 "/>
</svg>
