<?xml version="1.0" encoding="UTF-8"?>
<svg xmlns="http://www.w3.org/2000/svg" xmlns:xlink="http://www.w3.org/1999/xlink" width="20" height="20" viewBox="0 0 20 20">
<path fill-rule="evenodd" fill="rgb(45.098039%, 29.019608%, 3.137255%)" fill-opacity="1" d="M 8.570312 2.855469 C 2.25 2.855469 0 5.703125 0 11.339844 C 0 15.714844 4.285156 17.144531 11.054688 17.128906 C 16.757812 17.128906 20.023438 13.679688 20 10.605469 C 20 7.144531 12.855469 2.855469 8.570312 2.855469 Z M 5.714844 5.714844 L 7.144531 5.714844 L 7.144531 7.144531 L 5.714844 7.144531 Z M 8.570312 5.714844 L 12.855469 5.714844 L 12.855469 7.144531 L 8.570312 7.144531 Z M 2.855469 10 L 15.714844 10 L 15.714844 11.429688 L 2.855469 11.429688 Z M 5.714844 12.855469 L 12.855469 12.855469 L 12.855469 14.285156 L 5.714844 14.285156 Z M 5.714844 12.855469 "/>
</svg>
