<?xml version="1.0" encoding="UTF-8"?>
<svg xmlns="http://www.w3.org/2000/svg" xmlns:xlink="http://www.w3.org/1999/xlink" width="24" height="24" viewBox="0 0 24 24">
<path fill-rule="nonzero" fill="rgb(0%, 0%, 0%)" fill-opacity="1" d="M 18.398438 1.601562 L 16 1.601562 C 14.816406 1.601562 13.792969 2.238281 13.246094 3.199219 L 5.601562 3.199219 L 4 4.800781 L 5.601562 6.398438 L 7.199219 4.800781 L 8.800781 6.398438 L 10.398438 4.800781 L 12 6.398438 L 13.246094 6.398438 C 13.792969 7.359375 14.816406 8 16 8 L 18.398438 8 C 18.847656 8 19.199219 7.648438 19.199219 7.199219 L 19.199219 2.398438 C 19.199219 1.953125 18.847656 1.601562 18.398438 1.601562 Z M 17.601562 5.601562 C 17.601562 6.046875 17.246094 6.398438 16.800781 6.398438 C 16.351562 6.398438 16 6.046875 16 5.601562 L 16 4 C 16 3.550781 16.351562 3.199219 16.800781 3.199219 C 17.246094 3.199219 17.601562 3.550781 17.601562 4 Z M 17.601562 5.601562 "/>
<path fill-rule="nonzero" fill="rgb(0%, 0%, 0%)" fill-opacity="1" d="M 19.199219 22.398438 L 19.199219 12.800781 L 4.800781 12.800781 L 4.800781 22.398438 L 2.398438 22.398438 L 2.398438 10.398438 L 21.601562 10.398438 L 21.601562 22.398438 Z M 7.199219 14.398438 L 16.800781 14.398438 C 17.246094 14.398438 17.601562 14.753906 17.601562 15.199219 C 17.601562 15.648438 17.246094 16 16.800781 16 L 7.199219 16 C 6.753906 16 6.398438 15.648438 6.398438 15.199219 C 6.398438 14.753906 6.753906 14.398438 7.199219 14.398438 Z M 7.199219 20.800781 L 16.800781 20.800781 C 17.246094 20.800781 17.601562 21.152344 17.601562 21.601562 C 17.601562 22.046875 17.246094 22.398438 16.800781 22.398438 L 7.199219 22.398438 C 6.753906 22.398438 6.398438 22.046875 6.398438 21.601562 C 6.398438 21.152344 6.753906 20.800781 7.199219 20.800781 Z M 7.199219 17.601562 L 16.800781 17.601562 C 17.246094 17.601562 17.601562 17.953125 17.601562 18.398438 C 17.601562 18.847656 17.246094 19.199219 16.800781 19.199219 L 7.199219 19.199219 C 6.753906 19.199219 6.398438 18.847656 6.398438 18.398438 C 6.398438 17.953125 6.753906 17.601562 7.199219 17.601562 Z M 7.199219 17.601562 "/>
</svg>
