<?xml version="1.0" encoding="UTF-8"?>
<svg xmlns="http://www.w3.org/2000/svg" xmlns:xlink="http://www.w3.org/1999/xlink" width="24" height="24" viewBox="0 0 24 24">
<path fill-rule="nonzero" fill="rgb(0%, 0%, 0%)" fill-opacity="1" d="M 16.800781 14.273438 L 16.800781 10.640625 L 7.199219 16.128906 L 7.199219 19.761719 Z M 16.800781 17.039062 L 8.816406 21.601562 L 16.800781 21.601562 Z M 16.800781 7.871094 L 16.800781 4.238281 L 7.199219 9.726562 L 7.199219 13.359375 Z M 15.183594 2.398438 L 7.199219 2.398438 L 7.199219 6.960938 Z M 5.601562 0 L 18.398438 0 C 18.847656 0 19.199219 0.351562 19.199219 0.800781 L 19.199219 23.199219 C 19.199219 23.648438 18.847656 24 18.398438 24 L 5.601562 24 C 5.152344 24 4.800781 23.648438 4.800781 23.199219 L 4.800781 0.800781 C 4.800781 0.351562 5.152344 0 5.601562 0 Z M 5.601562 0 "/>
</svg>
