<?xml version="1.0" encoding="UTF-8"?>
<svg xmlns="http://www.w3.org/2000/svg" xmlns:xlink="http://www.w3.org/1999/xlink" width="24" height="24" viewBox="0 0 24 24">
<path fill-rule="nonzero" fill="rgb(0%, 0%, 0%)" fill-opacity="1" d="M 17.601562 20.800781 L 6.398438 20.800781 L 6.398438 6.398438 L 8 6.398438 L 8 4.800781 C 8 3.921875 8.71875 3.199219 9.601562 3.199219 L 14.398438 3.199219 C 15.28125 3.199219 16 3.921875 16 4.800781 L 16 6.398438 L 17.601562 6.398438 Z M 19.199219 20.800781 L 19.199219 6.398438 L 20.800781 6.398438 C 21.679688 6.398438 22.398438 7.121094 22.398438 8 L 22.398438 19.199219 C 22.398438 20.078125 21.679688 20.800781 20.800781 20.800781 Z M 4.800781 20.800781 L 3.199219 20.800781 C 2.320312 20.800781 1.601562 20.078125 1.601562 19.199219 L 1.601562 8 C 1.601562 7.121094 2.320312 6.398438 3.199219 6.398438 L 4.800781 6.398438 Z M 9.601562 6.398438 L 14.398438 6.398438 L 14.398438 4.800781 L 9.601562 4.800781 Z M 9.601562 6.398438 "/>
</svg>
