<?xml version="1.0" encoding="UTF-8"?>
<svg xmlns="http://www.w3.org/2000/svg" xmlns:xlink="http://www.w3.org/1999/xlink" width="24" height="24" viewBox="0 0 24 24">
<path fill-rule="nonzero" fill="rgb(0%, 0%, 0%)" fill-opacity="1" d="M 16 11.199219 L 16 22.398438 L 8 22.398438 L 8 11.199219 Z M 17.601562 11.199219 L 19.199219 11.199219 C 20.078125 11.199219 20.800781 11.921875 20.800781 12.800781 L 20.800781 20.800781 C 20.800781 21.679688 20.078125 22.398438 19.199219 22.398438 L 17.601562 22.398438 Z M 6.398438 11.199219 L 6.398438 22.398438 L 4.800781 22.398438 C 3.921875 22.398438 3.199219 21.679688 3.199219 20.800781 L 3.199219 12.800781 C 3.199219 11.921875 3.921875 11.199219 4.800781 11.199219 Z M 14.398438 11.199219 L 14.398438 9.601562 L 9.601562 9.601562 L 9.601562 11.199219 L 8 11.199219 L 8 9.601562 C 8 8.71875 8.71875 8 9.601562 8 L 14.398438 8 C 15.28125 8 16 8.71875 16 9.601562 L 16 11.199219 Z M 18.398438 0 C 18.847656 0 19.199219 0.351562 19.199219 0.800781 L 19.199219 5.601562 C 19.199219 6.046875 18.847656 6.398438 18.398438 6.398438 L 16 6.398438 C 14.816406 6.398438 13.792969 5.761719 13.246094 4.800781 L 12 4.800781 L 10.398438 3.199219 L 8.800781 4.800781 L 7.199219 3.199219 L 5.601562 4.800781 L 4 3.199219 L 5.601562 1.601562 L 13.246094 1.601562 C 13.792969 0.640625 14.816406 0 16 0 Z M 17.601562 4 L 17.601562 2.398438 C 17.601562 1.953125 17.246094 1.601562 16.800781 1.601562 C 16.351562 1.601562 16 1.953125 16 2.398438 L 16 4 C 16 4.449219 16.351562 4.800781 16.800781 4.800781 C 17.246094 4.800781 17.601562 4.449219 17.601562 4 Z M 17.601562 4 "/>
</svg>
