<?xml version="1.0" encoding="UTF-8"?>
<svg xmlns="http://www.w3.org/2000/svg" xmlns:xlink="http://www.w3.org/1999/xlink" width="24" height="24" viewBox="0 0 24 24">
<path fill-rule="nonzero" fill="rgb(0%, 0%, 0%)" fill-opacity="1" d="M 6.398438 1.601562 C 5.074219 1.601562 4 2.675781 4 4 C 4 5.324219 5.074219 6.398438 6.398438 6.398438 C 7.726562 6.398438 8.800781 5.324219 8.800781 4 C 8.800781 2.675781 7.726562 1.601562 6.398438 1.601562 Z M 3.199219 7.199219 L 9.601562 7.199219 L 9.601562 11.199219 L 8 12.800781 L 8.800781 16 L 8 17.601562 C 6.800781 17.859375 5.851562 18.78125 5.5625 19.972656 C 5.273438 21.167969 5.691406 22.421875 6.640625 23.199219 L 4 23.199219 L 4 20.800781 L 4.800781 19.199219 L 4.800781 17.601562 L 4 16 L 4.800781 12.800781 L 3.199219 11.199219 Z M 2.398438 7.601562 L 1.601562 7.601562 C 1.027344 8.589844 1.027344 9.808594 1.601562 10.800781 L 2.398438 10.800781 Z M 10.398438 7.601562 L 13.601562 7.601562 L 13.601562 10.800781 L 10.398438 10.800781 Z M 8.800781 18.398438 C 7.472656 18.398438 6.398438 19.472656 6.398438 20.800781 C 6.398438 22.125 7.472656 23.199219 8.800781 23.199219 C 10.125 23.199219 11.199219 22.125 11.199219 20.800781 C 11.199219 19.472656 10.125 18.398438 8.800781 18.398438 Z M 17.601562 1.601562 C 16.273438 1.601562 15.199219 2.675781 15.199219 4 C 15.199219 5.324219 16.273438 6.398438 17.601562 6.398438 C 18.925781 6.398438 20 5.324219 20 4 C 20 2.675781 18.925781 1.601562 17.601562 1.601562 Z M 14.398438 7.199219 L 20.800781 7.199219 L 20.800781 11.199219 L 19.199219 12.800781 L 20 16 L 19.199219 17.601562 L 19.199219 19.199219 L 20 20.800781 L 20 23.199219 L 15.199219 23.199219 L 15.199219 20.800781 L 16 19.199219 L 16 17.601562 L 15.199219 16 L 16 12.800781 L 14.398438 11.199219 Z M 21.601562 7.601562 L 22.398438 7.601562 C 22.972656 8.589844 22.972656 9.808594 22.398438 10.800781 L 21.601562 10.800781 Z M 21.601562 7.601562 "/>
</svg>
