<?xml version="1.0" encoding="UTF-8"?>
<svg xmlns="http://www.w3.org/2000/svg" xmlns:xlink="http://www.w3.org/1999/xlink" width="24" height="24" viewBox="0 0 24 24">
<path fill-rule="nonzero" fill="rgb(0%, 0%, 0%)" fill-opacity="1" d="M 17.601562 17.601562 C 17.601562 17.601562 3.199219 17.601562 3.199219 17.601562 C 1.601562 17.601562 1.601562 15.199219 3.199219 15.199219 L 9.601562 15.199219 C 11.199219 14.398438 12 14.398438 12.800781 14.398438 C 12.800781 14.398438 16.800781 14.398438 16.800781 14.398438 C 16.800781 16 16.800781 16.800781 17.601562 17.601562 Z M 20 17.601562 C 21.328125 17.601562 22.398438 16.527344 22.398438 15.199219 C 22.398438 13.871094 21.328125 12.800781 20 12.800781 C 18.671875 12.800781 17.601562 13.871094 17.601562 15.199219 C 17.601562 16.527344 18.671875 17.601562 20 17.601562 Z M 20 17.601562 "/>
<path fill-rule="nonzero" fill="rgb(0%, 0%, 0%)" fill-opacity="1" d="M 23.199219 19.199219 C 24 19.199219 24 22.398438 23.199219 22.398438 L 0.800781 22.398438 C 0 22.398438 0 19.199219 0.800781 19.199219 Z M 23.199219 19.199219 "/>
<path fill-rule="nonzero" fill="rgb(0%, 0%, 0%)" fill-opacity="1" d="M 14 0 C 14 0 14 2 14.398438 2.398438 C 14.800781 2.800781 16.800781 2.800781 16.800781 2.800781 C 16.800781 2.800781 15.199219 4.398438 15.199219 4.800781 C 15.199219 5.199219 16.800781 6.800781 16.800781 6.800781 C 16.800781 6.800781 14.800781 6.800781 14.398438 7.199219 C 14 7.601562 14 9.601562 14 9.601562 C 14 9.601562 12.398438 8 12 8 C 11.601562 8 10 9.601562 10 9.601562 C 10 9.601562 10 7.601562 9.601562 7.199219 C 9.199219 6.800781 7.199219 6.800781 7.199219 6.800781 C 7.199219 6.800781 8.800781 5.199219 8.800781 4.800781 C 8.800781 4.398438 7.199219 2.800781 7.199219 2.800781 C 7.199219 2.800781 9.199219 2.800781 9.601562 2.398438 C 10 2 10 0 10 0 C 10 0 11.601562 1.601562 12 1.601562 C 12.398438 1.601562 14 0 14 0 Z M 12 2.800781 C 10.800781 2.800781 10 3.601562 10 4.800781 C 10 6 10.800781 6.800781 12 6.800781 C 13.199219 6.800781 14 6 14 4.800781 C 14 3.601562 13.199219 2.800781 12 2.800781 Z M 12 6.398438 C 12.878906 6.398438 13.601562 5.679688 13.601562 4.800781 C 13.601562 3.921875 12.878906 3.199219 12 3.199219 C 11.121094 3.199219 10.398438 3.921875 10.398438 4.800781 C 10.398438 5.679688 11.121094 6.398438 12 6.398438 Z M 12 6.398438 "/>
<path fill-rule="nonzero" fill="rgb(0%, 0%, 0%)" fill-opacity="1" d="M 8.222656 8.464844 C 8.527344 8.65625 8.464844 8.832031 8.335938 9.023438 L 6.734375 11.425781 C 6.609375 11.601562 6.367188 11.664062 6.175781 11.535156 C 6 11.40625 5.953125 11.167969 6.0625 10.976562 C 6.0625 10.976562 7.503906 8.832031 7.664062 8.574219 C 7.808594 8.382812 8.078125 8.382812 8.222656 8.464844 Z M 16.335938 8.574219 C 16.160156 8.382812 15.96875 8.304688 15.777344 8.464844 C 15.585938 8.640625 15.550781 8.832031 15.664062 9.023438 L 17.265625 11.425781 C 17.390625 11.601562 17.632812 11.664062 17.824219 11.535156 C 18 11.40625 18.0625 11.167969 17.9375 10.976562 C 17.9375 10.976562 16.496094 8.769531 16.335938 8.574219 Z M 12 10 C 11.777344 10 11.601562 10.175781 11.601562 10.398438 L 11.601562 12.800781 C 11.601562 13.023438 11.777344 13.199219 12 13.199219 C 12.222656 13.199219 12.398438 13.023438 12.398438 12.800781 L 12.398438 10.398438 C 12.398438 10.175781 12.222656 10 12 10 Z M 12 10 "/>
</svg>
