<?xml version="1.0" encoding="UTF-8"?>
<svg xmlns="http://www.w3.org/2000/svg" xmlns:xlink="http://www.w3.org/1999/xlink" width="24" height="24" viewBox="0 0 24 24">
<path fill-rule="nonzero" fill="rgb(0%, 0%, 0%)" fill-opacity="1" d="M 13.679688 3.246094 C 15.246094 1.105469 18.238281 0.625 20.382812 2.175781 C 20.753906 2.449219 20.832031 2.945312 20.558594 3.296875 C 20.304688 3.664062 19.808594 3.742188 19.457031 3.472656 C 18.015625 2.433594 16.015625 2.753906 14.976562 4.191406 L 23.390625 10.304688 C 23.742188 10.558594 23.824219 11.054688 23.566406 11.40625 C 23.3125 11.777344 22.816406 11.855469 22.449219 11.601562 L 21.808594 11.121094 L 18.976562 15.007812 L 18.335938 14.527344 L 17.390625 15.824219 L 18.6875 16.769531 C 19.039062 17.023438 19.121094 17.535156 18.863281 17.886719 C 18.609375 18.238281 18.113281 18.320312 17.742188 18.0625 L 9.34375 11.953125 L 8.398438 13.246094 L 9.039062 13.710938 C 9.40625 13.984375 9.472656 14.480469 9.214844 14.832031 L 5.457031 20.015625 C 5.199219 20.367188 4.703125 20.449219 4.335938 20.191406 L 3.695312 19.710938 L 2.753906 21.007812 L 0.222656 23.136719 L 1.457031 20.078125 L 2.398438 18.785156 L 1.742188 18.304688 C 1.390625 18.046875 1.3125 17.550781 1.566406 17.183594 L 5.34375 12.015625 C 5.601562 11.648438 6.097656 11.585938 6.449219 11.839844 L 7.105469 12.304688 L 8.046875 11.007812 L 5.457031 9.136719 L 4.976562 9.777344 C 4.71875 10.128906 4.222656 10.207031 3.871094 9.953125 L 2.574219 9.007812 C 2.207031 8.753906 2.128906 8.257812 2.398438 7.902344 L 4.273438 5.3125 C 4.527344 4.945312 5.039062 4.863281 5.390625 5.136719 L 6.6875 6.0625 C 7.039062 6.335938 7.121094 6.832031 6.863281 7.183594 L 6.398438 7.839844 L 8.976562 9.710938 L 12.753906 4.542969 L 12.097656 4.0625 C 11.742188 3.808594 11.664062 3.3125 11.921875 2.945312 C 12.175781 2.59375 12.671875 2.511719 13.039062 2.769531 Z M 14.03125 5.472656 L 10.273438 10.65625 L 12.222656 12.0625 L 13.152344 10.769531 L 12.511719 10.304688 L 15.328125 6.414062 Z M 19.214844 9.246094 L 17.921875 8.304688 L 15.105469 12.191406 L 14.449219 11.710938 L 13.519531 13.007812 L 16.097656 14.894531 L 17.039062 13.601562 L 16.398438 13.121094 Z M 19.214844 9.246094 "/>
</svg>
