<?xml version="1.0" encoding="UTF-8"?>
<svg xmlns="http://www.w3.org/2000/svg" xmlns:xlink="http://www.w3.org/1999/xlink" width="24" height="24" viewBox="0 0 24 24">
<path fill-rule="nonzero" fill="rgb(0%, 0%, 0%)" fill-opacity="1" d="M 21.9375 11.59375 L 18.148438 5.210938 C 18 4.933594 17.636719 4.804688 17.324219 4.804688 L 13.921875 4.804688 L 13.921875 1.925781 C 13.921875 1.398438 13.488281 0.964844 12.960938 0.964844 L 10.558594 0.964844 C 10.03125 0.964844 9.601562 1.398438 9.601562 1.925781 L 9.601562 4.804688 L 6.738281 4.804688 C 6.425781 4.804688 6.046875 4.933594 5.898438 5.210938 L 2.097656 11.644531 C 1.472656 11.644531 0.960938 12.121094 0.960938 12.757812 L 0.960938 18.585938 C 0.960938 19.230469 1.46875 19.683594 2.097656 19.683594 L 3.363281 19.683594 L 3.363281 21.5 C 3.363281 22.460938 4.003906 23.042969 4.9375 23.042969 L 5.503906 23.042969 C 6.441406 23.042969 7.203125 22.460938 7.203125 21.5 L 7.203125 19.683594 L 16.804688 19.683594 L 16.804688 21.5 C 16.804688 22.460938 17.625 23.042969 18.566406 23.042969 L 19.132812 23.042969 C 20.070312 23.042969 20.644531 22.460938 20.644531 21.5 L 20.644531 19.683594 L 21.96875 19.683594 C 22.59375 19.683594 23.042969 19.230469 23.042969 18.585938 L 23.042969 12.757812 C 23.042969 12.121094 22.566406 11.59375 21.941406 11.59375 Z M 4.085938 16.253906 C 3.300781 16.253906 2.664062 15.601562 2.664062 14.796875 C 2.664062 13.992188 3.296875 13.34375 4.085938 13.34375 C 4.871094 13.34375 5.503906 13.996094 5.503906 14.804688 C 5.503906 15.609375 4.871094 16.257812 4.085938 16.257812 Z M 4.933594 11.523438 L 7.515625 7.023438 C 7.65625 6.734375 8.027344 6.726562 8.335938 6.726562 L 15.71875 6.726562 C 16.03125 6.726562 16.402344 6.738281 16.539062 7.023438 L 19.128906 11.523438 Z M 19.976562 16.257812 C 19.195312 16.257812 18.558594 15.605469 18.558594 14.804688 C 18.558594 13.996094 19.195312 13.347656 19.976562 13.347656 C 20.761719 13.347656 21.398438 14 21.398438 14.808594 C 21.398438 15.613281 20.765625 16.261719 19.976562 16.261719 Z M 19.976562 16.257812 "/>
</svg>
