<?xml version="1.0" encoding="UTF-8"?>
<svg xmlns="http://www.w3.org/2000/svg" xmlns:xlink="http://www.w3.org/1999/xlink" width="20" height="20" viewBox="0 0 20 20">
<path fill-rule="nonzero" fill="rgb(0%, 57.254902%, 85.490196%)" fill-opacity="1" d="M 8.527344 0 C 7.757812 0 7.144531 0.695312 7.144531 1.429688 L 7.097656 2.855469 L 4.285156 2.855469 L 2.5 8.570312 C 1.414062 8.570312 0 9.28125 0 11.429688 L 0 17.144531 L 2.855469 17.144531 L 2.855469 18.570312 C 2.855469 18.570312 2.855469 20 4.285156 20 C 5.714844 20 5.714844 18.570312 5.714844 18.570312 L 5.714844 17.144531 L 14.285156 17.097656 L 14.285156 18.570312 C 14.285156 18.570312 14.285156 20 15.714844 20 C 17.144531 20 17.144531 18.570312 17.144531 18.570312 L 17.144531 17.144531 L 20 17.144531 L 20 11.429688 C 20 9.246094 18.570312 8.570312 17.144531 8.570312 L 15.714844 2.855469 L 12.855469 2.855469 L 12.855469 1.429688 C 12.855469 0.621094 12.238281 0 11.429688 0 Z M 8.570312 1.429688 L 11.429688 1.429688 L 11.429688 2.855469 L 8.570312 2.855469 Z M 5.714844 5 L 14.285156 5 L 15.132812 8.570312 L 4.730469 8.570312 Z M 4.285156 11.429688 C 5.074219 11.429688 5.714844 12.066406 5.714844 12.855469 C 5.714844 13.644531 5.074219 14.285156 4.285156 14.285156 C 3.496094 14.285156 2.855469 13.644531 2.855469 12.855469 C 2.855469 12.066406 3.496094 11.429688 4.285156 11.429688 Z M 15.714844 11.429688 C 16.503906 11.429688 17.144531 12.066406 17.144531 12.855469 C 17.144531 13.644531 16.503906 14.285156 15.714844 14.285156 C 14.925781 14.285156 14.285156 13.644531 14.285156 12.855469 C 14.285156 12.066406 14.925781 11.429688 15.714844 11.429688 Z M 15.714844 11.429688 "/>
</svg>
