<?xml version="1.0" encoding="UTF-8"?>
<svg xmlns="http://www.w3.org/2000/svg" xmlns:xlink="http://www.w3.org/1999/xlink" width="24" height="24" viewBox="0 0 24 24">
<path fill-rule="nonzero" fill="rgb(0%, 0%, 0%)" fill-opacity="1" d="M 8.160156 10.078125 L 9.445312 10.078125 C 9.832031 10.078125 10.078125 9.511719 10.078125 9.128906 L 10.078125 5.078125 C 10.078125 4.695312 9.835938 4.800781 9.445312 4.800781 L 8.160156 4.800781 Z M 8.160156 17.761719 L 9.445312 17.761719 C 9.832031 17.761719 10.078125 18.207031 10.078125 18.589844 L 10.078125 22.640625 C 10.078125 23.019531 9.835938 23.519531 9.445312 23.519531 L 8.160156 23.519531 Z M 6.460938 13.921875 C 6.453125 10.214844 7.148438 10.078125 7.546875 10.078125 L 7.679688 10.078125 L 7.679688 4.800781 L 7.515625 4.800781 C 6.8125 4.800781 3.359375 5.960938 3.359375 14.160156 C 3.359375 22.359375 6.8125 23.519531 7.515625 23.519531 L 7.679688 23.519531 L 7.679688 17.761719 L 7.546875 17.761719 C 7.148438 17.761719 6.476562 17.621094 6.464844 13.921875 Z M 11.136719 5.941406 C 11.371094 6.222656 11.496094 6.574219 11.496094 6.941406 C 11.496094 7.304688 11.371094 7.660156 11.136719 7.9375 L 11.902344 8.566406 C 12.277344 8.113281 12.484375 7.53125 12.484375 6.941406 C 12.484375 6.34375 12.277344 5.769531 11.902344 5.3125 L 11.136719 5.945312 Z M 13.597656 10.386719 C 14.433594 9.46875 14.898438 8.28125 14.898438 7.035156 C 14.898438 5.796875 14.441406 4.613281 13.601562 3.695312 L 12.859375 4.34375 C 13.535156 5.078125 13.910156 6.035156 13.910156 7.03125 C 13.910156 8.035156 13.535156 8.996094 12.847656 9.730469 L 13.601562 10.378906 Z M 15.292969 12.207031 C 16.59375 10.832031 17.3125 9.035156 17.3125 7.140625 C 17.3125 5.257812 16.601562 3.460938 15.3125 2.089844 L 14.578125 2.753906 C 15.695312 3.945312 16.320312 5.5 16.320312 7.140625 C 16.320312 8.785156 15.699219 10.347656 14.566406 11.539062 L 15.296875 12.207031 Z M 16.996094 14.027344 C 18.753906 12.191406 19.722656 9.78125 19.722656 7.242188 C 19.722656 4.714844 18.761719 2.308594 17.015625 0.480469 L 16.300781 1.167969 C 17.871094 2.8125 18.738281 4.972656 18.738281 7.246094 C 18.738281 9.53125 17.871094 11.699219 16.285156 13.34375 L 17.007812 14.035156 Z M 16.996094 14.027344 "/>
</svg>
