<?xml version="1.0" encoding="UTF-8"?>
<svg xmlns="http://www.w3.org/2000/svg" xmlns:xlink="http://www.w3.org/1999/xlink" width="24" height="24" viewBox="0 0 24 24">
<path fill-rule="nonzero" fill="rgb(0%, 0%, 0%)" fill-opacity="1" d="M 13.34375 9.839844 L 19.136719 22.878906 C 19.3125 23.28125 19.136719 23.742188 18.71875 23.9375 C 18.320312 24.113281 17.855469 23.9375 17.664062 23.519531 L 15.742188 19.199219 L 8.257812 19.199219 L 6.335938 23.519531 C 6.144531 23.9375 5.679688 24.113281 5.28125 23.9375 C 4.863281 23.742188 4.6875 23.28125 4.863281 22.878906 L 9.96875 11.40625 L 7.183594 12.703125 L 5.152344 8.367188 L 16.015625 3.296875 L 18.046875 7.632812 Z M 12 10.769531 L 8.960938 17.601562 L 15.039062 17.601562 Z M 16.414062 2.222656 L 20.769531 0.191406 L 23.472656 6 L 19.121094 8.03125 Z M 0.414062 11.457031 L 4.769531 9.425781 L 6.113281 12.320312 L 1.761719 14.351562 Z M 0.414062 11.457031 "/>
</svg>
