<?xml version="1.0" encoding="UTF-8"?>
<svg xmlns="http://www.w3.org/2000/svg" xmlns:xlink="http://www.w3.org/1999/xlink" width="20" height="20" viewBox="0 0 20 20">
<path fill-rule="nonzero" fill="rgb(40%, 40%, 40%)" fill-opacity="1" d="M 5.785156 0 C 2.253906 3.628906 2.253906 9.511719 5.785156 13.140625 C 9.316406 16.765625 15.039062 16.765625 18.570312 13.140625 C 17.632812 12.171875 17.945312 12.496094 17.28125 11.8125 L 17.78125 2.703125 C 18.019531 2.585938 18.21875 2.402344 18.359375 2.179688 C 18.496094 1.953125 18.570312 1.695312 18.570312 1.429688 C 18.570312 1.050781 18.421875 0.6875 18.152344 0.417969 C 17.886719 0.152344 17.523438 0 17.144531 0 C 16.875 0 16.613281 0.0742188 16.386719 0.214844 C 16.164062 0.355469 15.980469 0.558594 15.863281 0.796875 L 7.09375 1.34375 C 6.449219 0.679688 6.699219 0.9375 5.785156 0 Z M 15.394531 2.246094 L 11.632812 6.011719 C 11.160156 5.523438 9.484375 3.796875 8.402344 2.6875 Z M 16.328125 3.335938 L 15.933594 10.425781 C 14.785156 9.242188 13.117188 7.53125 12.632812 7.03125 Z M 4.691406 14.488281 L 1.429688 20 L 14.285156 20 L 14.285156 17.46875 C 11.03125 18.011719 7.226562 17.023438 4.691406 14.488281 Z M 4.691406 14.488281 "/>
</svg>
