<?xml version="1.0" encoding="UTF-8"?>
<svg xmlns="http://www.w3.org/2000/svg" xmlns:xlink="http://www.w3.org/1999/xlink" width="24" height="24" viewBox="0 0 24 24">
<path fill-rule="nonzero" fill="rgb(0%, 0%, 0%)" fill-opacity="1" d="M 2.789062 11.621094 C 2.304688 11.621094 1.90625 12.019531 1.90625 12.503906 C 1.90625 12.988281 2.304688 13.378906 2.789062 13.378906 C 3.273438 13.378906 3.667969 12.988281 3.667969 12.503906 C 3.667969 12.019531 3.273438 11.625 2.789062 11.625 Z M 15.023438 4.296875 C 16.074219 4.296875 16.933594 3.445312 16.933594 2.390625 C 16.933594 1.335938 16.074219 0.480469 15.023438 0.480469 C 13.96875 0.480469 13.109375 1.335938 13.109375 2.390625 C 13.109375 3.445312 13.96875 4.296875 15.023438 4.296875 Z M 23.246094 21.292969 L 20.136719 17.628906 C 20.136719 17.628906 19.167969 11.980469 19.167969 11.964844 L 19.023438 11.328125 C 19.027344 11.332031 18.632812 9.546875 18.328125 8.144531 C 18.8125 8.425781 19.246094 8.671875 19.273438 8.6875 C 19.296875 8.742188 20.917969 11.824219 20.917969 11.824219 C 21.042969 12.054688 21.25 12.222656 21.496094 12.292969 C 21.742188 12.371094 22.007812 12.34375 22.238281 12.222656 C 22.46875 12.105469 22.636719 11.898438 22.707031 11.648438 C 22.789062 11.40625 22.765625 11.140625 22.644531 10.914062 L 20.867188 7.53125 C 20.867188 7.53125 20.792969 7.410156 20.703125 7.316406 C 20.574219 7.1875 20.292969 7.03125 20.292969 7.03125 L 16.839844 5.070312 C 16.402344 4.847656 15.917969 4.769531 15.425781 4.875 C 15.226562 4.921875 15.042969 4.992188 14.832031 5.113281 C 14.808594 5.117188 14.039062 5.457031 13.597656 6.496094 L 11.824219 10.0625 L 9.023438 10.601562 L 8.960938 10.628906 L 6.433594 8.847656 C 5.867188 8.453125 5.792969 7.261719 5.789062 7.214844 C 5.722656 6.398438 5.25 5.628906 4.503906 5.097656 C 3.824219 4.621094 3.003906 4.414062 2.257812 4.535156 C 1.671875 4.636719 1.175781 4.9375 0.859375 5.378906 C 0.613281 5.726562 0.484375 6.140625 0.484375 6.582031 L 0.519531 6.964844 C 0.648438 7.714844 1.109375 8.414062 1.785156 8.898438 C 2.46875 9.382812 3.28125 9.585938 4.03125 9.460938 L 4.210938 9.425781 C 4.230469 9.417969 5.347656 9.070312 5.898438 9.445312 C 5.898438 9.453125 7.789062 10.78125 8.292969 11.136719 C 8.242188 11.21875 8.152344 11.398438 8.15625 11.585938 C 8.15625 11.644531 8.160156 11.703125 8.175781 11.761719 C 8.273438 12.28125 8.789062 12.632812 9.3125 12.527344 L 12.667969 11.875 C 12.667969 11.875 12.957031 11.789062 13.074219 11.703125 C 13.234375 11.59375 13.347656 11.363281 13.347656 11.363281 L 14.230469 9.589844 C 14.230469 9.589844 14.839844 12.453125 14.851562 12.503906 C 14.785156 12.574219 12.101562 15.414062 12.101562 15.414062 L 12 15.46875 C 11.734375 15.710938 11.535156 16.023438 11.535156 16.359375 L 11.535156 22.371094 C 11.535156 23.015625 12.097656 23.535156 12.738281 23.535156 C 13.378906 23.535156 13.933594 23.015625 13.933594 22.371094 L 13.933594 17.351562 C 14.414062 17.097656 16.257812 14.933594 16.808594 14.363281 C 16.867188 14.699219 17.410156 17.75 17.410156 17.75 C 17.457031 18.019531 17.59375 18.265625 17.785156 18.460938 C 17.785156 18.464844 21.480469 22.8125 21.480469 22.8125 C 21.6875 23.042969 21.964844 23.195312 22.277344 23.222656 C 22.589844 23.246094 22.886719 23.144531 23.125 22.949219 C 23.394531 22.722656 23.535156 22.386719 23.535156 22.0625 C 23.535156 21.792969 23.449219 21.53125 23.261719 21.3125 Z M 4.808594 8.183594 C 4.601562 8.472656 4.292969 8.65625 3.898438 8.726562 C 3.351562 8.816406 2.734375 8.664062 2.222656 8.289062 C 1.703125 7.921875 1.355469 7.398438 1.257812 6.847656 L 1.234375 6.574219 C 1.234375 6.292969 1.308594 6.035156 1.46875 5.8125 C 1.976562 5.101562 3.140625 5.054688 4.0625 5.707031 C 4.976562 6.359375 5.320312 7.472656 4.808594 8.183594 Z M 4.808594 8.183594 "/>
</svg>
