<?xml version="1.0" encoding="UTF-8"?>
<svg xmlns="http://www.w3.org/2000/svg" xmlns:xlink="http://www.w3.org/1999/xlink" width="24" height="24" viewBox="0 0 24 24">
<path fill-rule="nonzero" fill="rgb(0%, 0%, 0%)" fill-opacity="1" d="M 22.851562 6.351562 C 22.800781 6.148438 22.699219 5.949219 22.550781 5.851562 L 15.25 0.148438 C 14.949219 -0.0507812 14.550781 -0.0507812 14.25 0.148438 L 6.949219 5.851562 C 6.800781 5.949219 6.699219 6.148438 6.648438 6.351562 L 6.25 9.199219 L 7.800781 8 C 8.648438 7.351562 9.800781 7.351562 10.648438 8 L 13.5 10.199219 L 14.5 10.949219 L 15.851562 12 L 16.5 12.5 L 17.949219 13.648438 C 18.398438 14 18.699219 14.449219 18.800781 15 L 24 15 Z M 22.851562 6.351562 "/>
<path fill-rule="nonzero" fill="rgb(0%, 0%, 0%)" fill-opacity="1" d="M 17.050781 14.851562 L 14.5 12.851562 L 14.050781 12.5 L 13.5 12.101562 L 9.75 9.199219 C 9.601562 9.101562 9.449219 9.050781 9.25 9.050781 C 9.050781 9.050781 8.898438 9.101562 8.75 9.199219 L 6 11.300781 L 1.449219 14.800781 C 1.300781 14.898438 1.199219 15.101562 1.148438 15.300781 L 0 24 L 9 24 L 9 19.148438 C 9 19.050781 9.050781 19 9.148438 19 C 9.199219 19 9.25 19.050781 9.300781 19.050781 L 12 24 L 18.5 24 L 17.351562 15.351562 C 17.300781 15.148438 17.199219 14.949219 17.050781 14.851562 Z M 17.050781 14.851562 "/>
</svg>
