<?xml version="1.0" encoding="UTF-8"?>
<svg xmlns="http://www.w3.org/2000/svg" xmlns:xlink="http://www.w3.org/1999/xlink" width="20" height="20" viewBox="0 0 20 20">
<path fill-rule="evenodd" fill="rgb(67.45098%, 22.352941%, 67.45098%)" fill-opacity="1" d="M 2.855469 15.714844 L 4.285156 15.714844 L 4.285156 20 L 2.855469 20 Z M 1.429688 14.285156 C 2.382812 12.855469 4.285156 11.429688 4.285156 10 C 4.285156 8.570312 0 7.144531 0 4.285156 C 0 1.429688 2.855469 1.429688 5.714844 0 C 5.238281 1.90625 2.855469 2.855469 2.855469 4.285156 C 4.285156 5.714844 7.144531 7.144531 7.144531 10 C 7.144531 12.855469 5.714844 12.855469 1.429688 14.285156 Z M 0 15.714844 L 1.429688 15.714844 L 1.429688 20 L 0 20 Z M 20 20 L 5.714844 20 L 5.714844 15.714844 L 20 15.714844 Z M 20 20 "/>
</svg>
