<?xml version="1.0" encoding="UTF-8"?>
<svg xmlns="http://www.w3.org/2000/svg" xmlns:xlink="http://www.w3.org/1999/xlink" width="20" height="20" viewBox="0 0 20 20">
<path fill-rule="nonzero" fill="rgb(45.098039%, 29.019608%, 3.137255%)" fill-opacity="1" d="M 8.929688 0 L 8.929688 20 L 11.070312 20 L 11.070312 0 Z M 3.570312 1.429688 C 2.386719 1.429688 1.429688 2.386719 1.429688 3.570312 C 1.429688 4.753906 2.386719 5.714844 3.570312 5.714844 C 4.753906 5.714844 5.714844 4.753906 5.714844 3.570312 C 5.714844 2.386719 4.753906 1.429688 3.570312 1.429688 Z M 16.429688 1.429688 C 15.246094 1.429688 14.285156 2.386719 14.285156 3.570312 C 14.285156 4.753906 15.246094 5.714844 16.429688 5.714844 C 17.613281 5.714844 18.570312 4.753906 18.570312 3.570312 C 18.570312 2.386719 17.613281 1.429688 16.429688 1.429688 Z M 2.144531 7.144531 C 1.285156 7.144531 0.714844 7.953125 0.714844 8.570312 C 0.714844 9.324219 2.5 10.710938 2.5 11.429688 C 2.5 12.222656 0 12.855469 0 15.714844 L 2.5 15.714844 L 2.5 20 L 4.644531 20 L 4.644531 15.714844 L 7.144531 15.714844 C 7.144531 12.855469 4.644531 12.183594 4.644531 11.429688 C 4.644531 10.671875 6.429688 9.359375 6.429688 8.570312 C 6.429688 7.988281 5.820312 7.144531 5 7.144531 Z M 14.285156 7.144531 C 13.53125 7.144531 12.855469 7.828125 12.855469 8.570312 C 12.855469 10 15.355469 14.308594 15.355469 15.714844 L 15.355469 20 L 17.5 20 L 17.5 15.714844 C 17.5 14.335938 20 10 20 8.570312 C 20 7.78125 19.359375 7.144531 18.570312 7.144531 Z M 14.285156 7.144531 "/>
</svg>
