<?xml version="1.0" encoding="UTF-8"?>
<svg xmlns="http://www.w3.org/2000/svg" xmlns:xlink="http://www.w3.org/1999/xlink" width="24" height="24" viewBox="0 0 24 24">
<path fill-rule="nonzero" fill="rgb(0%, 0%, 0%)" fill-opacity="1" d="M 22.398438 4.800781 L 20.800781 4.800781 L 20.800781 6.398438 L 21.601562 6.398438 C 22.046875 6.398438 22.398438 6.753906 22.398438 7.199219 L 22.398438 8.800781 C 22.398438 9.246094 22.046875 9.601562 21.601562 9.601562 L 18.398438 9.601562 C 17.953125 9.601562 17.601562 9.246094 17.601562 8.800781 L 17.601562 7.199219 C 17.601562 6.753906 17.953125 6.398438 18.398438 6.398438 L 19.199219 6.398438 L 19.199219 4.800781 L 14.398438 4.800781 L 14.398438 6.398438 L 15.199219 6.398438 C 15.648438 6.398438 16 6.753906 16 7.199219 L 16 8.800781 C 16 9.246094 15.648438 9.601562 15.199219 9.601562 L 12 9.601562 C 11.550781 9.601562 11.199219 9.246094 11.199219 8.800781 L 11.199219 7.199219 C 11.199219 6.753906 11.550781 6.398438 12 6.398438 L 12.800781 6.398438 L 12.800781 4.800781 L 8 4.800781 L 8 6.398438 L 8.800781 6.398438 C 9.246094 6.398438 9.601562 6.753906 9.601562 7.199219 L 9.601562 8.800781 C 9.601562 9.246094 9.246094 9.601562 8.800781 9.601562 L 5.601562 9.601562 C 5.152344 9.601562 4.800781 9.246094 4.800781 8.800781 L 4.800781 7.199219 C 4.800781 6.753906 5.152344 6.398438 5.601562 6.398438 L 6.398438 6.398438 L 6.398438 4.800781 L 4.800781 4.800781 C 3.921875 4.800781 3.199219 5.519531 3.199219 6.398438 L 3.199219 22.398438 L 0 22.398438 L 0 6.398438 C 0 3.742188 2.144531 1.601562 4.800781 1.601562 L 22.398438 1.601562 C 23.28125 1.601562 24 2.320312 24 3.199219 C 24 4.078125 23.28125 4.800781 22.398438 4.800781 Z M 22.398438 4.800781 "/>
</svg>
