<?xml version="1.0" encoding="UTF-8"?>
<svg xmlns="http://www.w3.org/2000/svg" xmlns:xlink="http://www.w3.org/1999/xlink" width="24" height="24" viewBox="0 0 24 24">
<path fill-rule="nonzero" fill="rgb(0%, 0%, 0%)" fill-opacity="1" d="M 8.878906 2.671875 C 9.28125 3.183594 9.585938 3.726562 9.777344 4.320312 C 9.96875 4.910156 10.03125 6.097656 10.03125 6.097656 C 10.03125 6.097656 9.871094 7.28125 9.648438 7.839844 C 9.40625 8.398438 9.054688 8.910156 8.609375 9.359375 C 8.304688 9.664062 7.199219 10.398438 6.398438 10.398438 C 6.398438 10.398438 6.398438 19.199219 6.398438 21.601562 C 6.398438 24 3.199219 24 3.199219 21.601562 C 3.199219 20 3.199219 10.398438 3.199219 10.398438 C 2.398438 10.398438 1.777344 9.601562 1.488281 9.328125 C 1.007812 8.847656 0.640625 8.289062 0.382812 7.664062 C 0.128906 7.023438 0 6.398438 0 5.761719 C 0 5.136719 0.113281 4.511719 0.351562 3.886719 C 0.59375 3.28125 0.945312 2.734375 1.425781 2.257812 C 1.886719 1.792969 2.414062 1.441406 3.023438 1.183594 C 3.632812 0.945312 4.273438 0.800781 4.910156 0.800781 L 2.878906 5.246094 L 4.320312 7.328125 L 6.800781 7.105469 Z M 24 0.800781 L 21.601562 0.800781 C 21.601562 1.601562 20.800781 2.398438 20 2.398438 C 19.199219 2.398438 17.726562 2.398438 16 2.398438 C 13.601562 2.398438 11.199219 5.679688 11.199219 8 C 12.800781 6.480469 13.425781 6.398438 16 6.398438 L 16 21.601562 C 16 24 19.199219 24 19.199219 21.601562 C 19.199219 19.199219 19.199219 6.398438 19.199219 6.398438 L 20 6.398438 C 20.800781 6.398438 21.601562 7.199219 21.601562 8 L 24 8 C 24 8 24 0.800781 24 0.800781 Z M 24 0.800781 "/>
</svg>
