<?xml version="1.0" encoding="UTF-8"?>
<svg xmlns="http://www.w3.org/2000/svg" xmlns:xlink="http://www.w3.org/1999/xlink" width="20" height="20" viewBox="0 0 20 20">
<path fill-rule="nonzero" fill="rgb(40%, 40%, 40%)" fill-opacity="1" d="M 9.246094 0 L 7.429688 14.285156 L 3.714844 20 L 5.714844 20 L 6.664062 18.570312 L 13.335938 18.570312 L 14.285156 20 L 16.285156 20 L 12.652344 14.175781 C 12.855469 14.285156 10.796875 0 10.796875 0 Z M 3.878906 2.207031 C 3.640625 2.328125 3.550781 2.746094 3.878906 2.875 L 6.558594 3.949219 C 6.996094 4.125 7.261719 3.453125 6.824219 3.277344 L 4.144531 2.207031 C 4.035156 2.164062 3.957031 2.167969 3.878906 2.207031 Z M 15.714844 2.28125 L 13.035156 3.351562 C 12.597656 3.527344 12.867188 4.195312 13.304688 4.019531 L 15.980469 2.949219 C 16.417969 2.773438 16.152344 2.101562 15.714844 2.28125 Z M 3.921875 4.75 C 3.453125 4.75 3.453125 5.464844 3.921875 5.464844 L 6.78125 5.464844 C 7.253906 5.464844 7.25 4.75 6.78125 4.75 Z M 13.082031 4.824219 C 12.609375 4.824219 12.609375 5.539062 13.082031 5.539062 L 15.9375 5.539062 C 16.410156 5.539062 16.410156 4.824219 15.9375 4.824219 Z M 10 5.714844 L 11.070312 14.285156 L 8.929688 14.285156 Z M 6.558594 6.359375 L 3.878906 7.429688 C 3.441406 7.605469 3.707031 8.277344 4.144531 8.101562 L 6.824219 7.027344 C 7.261719 6.851562 6.992188 6.183594 6.558594 6.359375 Z M 13.035156 6.429688 C 12.796875 6.550781 12.707031 6.96875 13.035156 7.101562 L 15.714844 8.171875 C 16.152344 8.347656 16.417969 7.679688 15.980469 7.503906 L 13.304688 6.429688 C 13.195312 6.386719 13.117188 6.390625 13.035156 6.429688 Z M 8.570312 15.714844 L 11.429688 15.714844 L 12.378906 17.144531 L 7.621094 17.144531 Z M 8.570312 15.714844 "/>
</svg>
