<?xml version="1.0" encoding="UTF-8"?>
<svg xmlns="http://www.w3.org/2000/svg" xmlns:xlink="http://www.w3.org/1999/xlink" width="20" height="20" viewBox="0 0 20 20">
<path fill-rule="nonzero" fill="rgb(40%, 40%, 40%)" fill-opacity="1" d="M 10 0 L 2.855469 2.855469 L 2.855469 8.570312 L 17.144531 8.570312 L 17.144531 2.855469 Z M 4.285156 4.285156 L 7.144531 4.285156 L 7.144531 7.144531 L 4.285156 7.144531 Z M 8.570312 4.285156 L 11.429688 4.285156 L 11.429688 7.144531 L 8.570312 7.144531 Z M 12.855469 4.285156 L 15.714844 4.285156 L 15.714844 7.144531 L 12.855469 7.144531 Z M 5.582031 9.464844 L 4.285156 20 L 6.429688 20 L 6.695312 17.902344 L 10 15.714844 L 13.304688 17.945312 L 13.570312 20 L 15.714844 20 L 14.417969 9.507812 Z M 7.632812 10.269531 L 12.367188 10.3125 L 12.632812 12.542969 L 10 14.285156 L 7.367188 12.542969 Z M 7.1875 13.839844 L 8.929688 15 L 6.875 16.382812 Z M 12.8125 13.839844 L 13.125 16.382812 L 11.070312 15 Z M 12.8125 13.839844 "/>
</svg>
