<?xml version="1.0" encoding="UTF-8"?>
<svg xmlns="http://www.w3.org/2000/svg" xmlns:xlink="http://www.w3.org/1999/xlink" width="20" height="20" viewBox="0 0 20 20">
<path fill-rule="nonzero" fill="rgb(45.098039%, 29.019608%, 3.137255%)" fill-opacity="1" d="M 10 0 C 9.644531 0.00390625 9.285156 0.234375 9.285156 0.714844 L 9.285156 6.25 L 1.429688 10 L 18.570312 10 L 10.714844 6.25 L 10.714844 0.714844 C 10.714844 0.214844 10.355469 -0.00390625 10 0 Z M 11.429688 0 L 11.429688 4.285156 L 17.144531 4.285156 L 14.285156 2.144531 L 17.144531 0 Z M 1.429688 11.429688 L 1.429688 12.855469 L 2.855469 12.855469 L 2.855469 18.570312 L 1.429688 18.570312 L 1.429688 20 L 18.570312 20 L 18.570312 18.570312 L 17.144531 18.570312 L 17.144531 12.855469 L 18.570312 12.855469 L 18.570312 11.429688 Z M 10 13.570312 C 11.429688 13.570312 12.855469 14.285156 12.855469 15.714844 L 12.855469 18.570312 L 7.144531 18.570312 L 7.144531 15.714844 C 7.144531 14.285156 8.570312 13.570312 10 13.570312 Z M 10 13.570312 "/>
</svg>
