<?xml version="1.0" encoding="UTF-8"?>
<svg xmlns="http://www.w3.org/2000/svg" xmlns:xlink="http://www.w3.org/1999/xlink" width="20" height="20" viewBox="0 0 20 20">
<path fill-rule="nonzero" fill="rgb(67.45098%, 22.352941%, 67.45098%)" fill-opacity="1" d="M 4.285156 0 L 4.285156 2.855469 C 3.289062 3.382812 0.742188 5.34375 0.445312 5.714844 C 0.160156 6.070312 0.132812 8.648438 0.625 8.570312 C 1.484375 8.441406 4.386719 6.089844 5.132812 6.605469 C 5.878906 7.121094 5.664062 9.539062 5.714844 11.429688 C 4.699219 12.738281 4.355469 14.164062 3.394531 15.222656 C 2.917969 14.792969 2.417969 14.382812 1.875 13.839844 C 1.765625 13.710938 1.226562 13.394531 0.726562 13.851562 C 0.410156 14.285156 0.367188 14.816406 0.746094 15.167969 C 3.625 18.046875 6.363281 19.5625 10.402344 19.5625 C 14.300781 19.5625 16.230469 18.019531 19.117188 15.132812 C 19.429688 14.921875 19.542969 14.082031 19.273438 13.816406 C 19.007812 13.550781 18.335938 13.527344 18.125 13.839844 C 17.625 14.339844 17.1875 14.730469 16.742188 15.132812 C 15.402344 13.324219 15.574219 12.867188 14.285156 8.570312 C 17.332031 7.789062 17.992188 11.015625 20 11.917969 L 20 8.570312 C 20 7.144531 16.71875 7.183594 14.285156 7.769531 C 13.816406 7.144531 12.855469 5.714844 9.476562 6.316406 C 9.050781 4.285156 8.347656 3.78125 6.453125 2.855469 Z M 7.144531 11.429688 C 8.570312 12.378906 11.863281 12.300781 12.855469 11.429688 C 14.054688 12.203125 15.070312 14.375 15.757812 15.980469 C 14.070312 17.304688 12.480469 17.945312 10 17.945312 C 7.550781 17.945312 6.019531 17.386719 4.464844 16.207031 C 5.632812 14.390625 5.808594 14.097656 7.144531 11.429688 Z M 7.144531 11.429688 "/>
</svg>
