<?xml version="1.0" encoding="UTF-8"?>
<svg xmlns="http://www.w3.org/2000/svg" xmlns:xlink="http://www.w3.org/1999/xlink" width="20" height="20" viewBox="0 0 20 20">
<path fill-rule="nonzero" fill="rgb(32.941176%, 32.941176%, 32.941176%)" fill-opacity="1" d="M 10 0 C 8.078125 0 6.152344 1.25 6.152344 3.75 L 6.152344 16.25 C 6.152344 21.25 13.847656 21.25 13.847656 16.25 L 13.847656 3.75 C 13.847656 1.25 11.921875 0 10 0 Z M 10.007812 1.539062 C 11.28125 1.539062 12.3125 2.570312 12.3125 3.847656 C 12.3125 5.121094 11.28125 6.152344 10.007812 6.152344 C 8.730469 6.152344 7.699219 5.121094 7.699219 3.847656 C 7.699219 2.570312 8.730469 1.539062 10.007812 1.539062 Z M 10 7.691406 C 11.273438 7.691406 12.308594 8.726562 12.308594 10 C 12.308594 11.273438 11.273438 12.308594 10 12.308594 C 8.726562 12.308594 7.691406 11.273438 7.691406 10 C 7.691406 8.726562 8.726562 7.691406 10 7.691406 Z M 10.148438 13.847656 C 11.421875 13.847656 12.453125 14.878906 12.453125 16.152344 C 12.453125 17.429688 11.421875 18.460938 10.148438 18.460938 C 8.871094 18.460938 7.839844 17.429688 7.839844 16.152344 C 7.839844 14.878906 8.871094 13.847656 10.148438 13.847656 Z M 10.148438 13.847656 "/>
</svg>
