<?xml version="1.0" encoding="UTF-8"?>
<svg xmlns="http://www.w3.org/2000/svg" xmlns:xlink="http://www.w3.org/1999/xlink" width="24" height="24" viewBox="0 0 24 24">
<path fill-rule="nonzero" fill="rgb(0%, 0%, 0%)" fill-opacity="1" d="M 9.265625 19.886719 L 8.800781 20.800781 L 15.199219 20.800781 L 14.734375 19.886719 L 16.800781 19.199219 L 19.199219 24 L 16.800781 24 L 16 22.398438 L 8 22.398438 L 7.199219 24 L 4.800781 24 L 7.199219 19.199219 Z M 19.199219 2.878906 L 19.199219 8 L 20.335938 9.136719 C 20.625 9.425781 20.800781 9.839844 20.800781 10.257812 L 20.800781 14.527344 C 20.800781 15.167969 20.398438 15.761719 19.808594 16 L 12 19.199219 L 4.191406 16 C 3.601562 15.761719 3.199219 15.167969 3.199219 14.527344 L 3.199219 10.257812 C 3.199219 9.839844 3.375 9.425781 3.664062 9.136719 L 4.800781 8 L 4.800781 2.878906 C 4.800781 2.128906 5.328125 1.488281 6.046875 1.328125 L 11.648438 0.078125 C 11.886719 0.03125 12.113281 0.03125 12.351562 0.078125 L 17.953125 1.328125 C 18.671875 1.488281 19.199219 2.128906 19.199219 2.878906 Z M 6.398438 3.871094 L 6.398438 5.601562 C 6.398438 6.046875 6.753906 6.398438 7.199219 6.398438 L 10.398438 6.398438 C 10.847656 6.398438 11.199219 6.046875 11.199219 5.601562 L 11.199219 3.34375 C 11.199219 2.894531 10.847656 2.542969 10.398438 2.542969 C 10.351562 2.542969 10.304688 2.542969 10.273438 2.558594 L 7.070312 3.089844 C 6.6875 3.152344 6.398438 3.488281 6.398438 3.871094 Z M 12.800781 3.34375 L 12.800781 5.601562 C 12.800781 6.046875 13.152344 6.398438 13.601562 6.398438 L 16.800781 6.398438 C 17.246094 6.398438 17.601562 6.046875 17.601562 5.601562 L 17.601562 3.871094 C 17.601562 3.488281 17.3125 3.152344 16.929688 3.089844 L 13.726562 2.558594 C 13.296875 2.480469 12.878906 2.785156 12.816406 3.214844 C 12.800781 3.265625 12.800781 3.296875 12.800781 3.34375 Z M 12 12.800781 C 12.878906 12.800781 13.601562 12.078125 13.601562 11.199219 C 13.601562 10.320312 12.878906 9.601562 12 9.601562 C 11.121094 9.601562 10.398438 10.320312 10.398438 11.199219 C 10.398438 12.078125 11.121094 12.800781 12 12.800781 Z M 12 12.800781 "/>
</svg>
