<?xml version="1.0" encoding="UTF-8"?>
<svg xmlns="http://www.w3.org/2000/svg" xmlns:xlink="http://www.w3.org/1999/xlink" width="24" height="24" viewBox="0 0 24 24">
<path fill-rule="nonzero" fill="rgb(0%, 0%, 0%)" fill-opacity="1" d="M 9.199219 20 L 8.800781 20.800781 L 15.199219 20.800781 L 14.800781 20 L 17.199219 20 L 19.199219 24 L 16.800781 24 L 16 22.398438 L 8 22.398438 L 7.199219 24 L 4.800781 24 L 6.800781 20 Z M 19.3125 13.519531 C 16.6875 17.3125 14.238281 19.199219 12 19.199219 C 9.761719 19.199219 7.3125 17.3125 4.6875 13.519531 C 3.792969 12.222656 3.585938 10.542969 4.160156 9.054688 C 4.59375 7.953125 4.800781 7.070312 4.800781 6.398438 C 4.800781 4.800781 6.960938 0 12 0 C 17.808594 0 19.199219 4.800781 19.199219 6.398438 C 19.199219 7.070312 19.40625 7.953125 19.839844 9.054688 C 20.414062 10.542969 20.207031 12.222656 19.3125 13.519531 Z M 8.0625 4.414062 L 9.328125 7.503906 C 9.457031 7.808594 9.742188 8 10.0625 8 L 13.9375 8 C 14.257812 8 14.542969 7.808594 14.671875 7.503906 L 15.9375 4.414062 C 16.046875 4.144531 16 3.839844 15.824219 3.617188 C 14.785156 2.273438 13.503906 1.601562 12 1.601562 C 10.496094 1.601562 9.214844 2.273438 8.175781 3.617188 C 8 3.839844 7.953125 4.144531 8.0625 4.414062 Z M 12 17.601562 C 12.878906 17.601562 13.601562 16.878906 13.601562 16 C 13.601562 15.121094 12.878906 14.398438 12 14.398438 C 11.121094 14.398438 10.398438 15.121094 10.398438 16 C 10.398438 16.878906 11.121094 17.601562 12 17.601562 Z M 12 17.601562 "/>
</svg>
