<?xml version="1.0" encoding="UTF-8"?>
<svg xmlns="http://www.w3.org/2000/svg" xmlns:xlink="http://www.w3.org/1999/xlink" width="24" height="24" viewBox="0 0 24 24">
<path fill-rule="nonzero" fill="rgb(0%, 0%, 0%)" fill-opacity="1" d="M 12.800781 1.601562 L 12.800781 3.199219 L 15.199219 3.199219 L 17.457031 5.457031 C 18.0625 6.0625 18.398438 6.878906 18.398438 7.726562 L 18.398438 17.601562 C 18.398438 19.359375 16.960938 20.800781 15.199219 20.800781 L 8.800781 20.800781 C 7.039062 20.800781 5.601562 19.359375 5.601562 17.601562 L 5.601562 7.726562 C 5.601562 6.878906 5.9375 6.0625 6.542969 5.457031 L 8.800781 3.199219 L 11.199219 3.199219 L 11.199219 1.601562 L 8.800781 1.601562 C 8.351562 1.601562 8 1.246094 8 0.800781 C 8 0.351562 8.351562 0 8.800781 0 L 15.199219 0 C 15.648438 0 16 0.351562 16 0.800781 C 16 1.246094 15.648438 1.601562 15.199219 1.601562 Z M 10 21.601562 L 8.800781 24 L 6.398438 24 L 7.601562 21.601562 Z M 16.398438 21.601562 L 17.601562 24 L 15.199219 24 L 14 21.601562 Z M 13.601562 19.199219 L 15.199219 19.199219 C 16.078125 19.199219 16.800781 18.480469 16.800781 17.601562 L 16.800781 16 C 15.039062 16 13.601562 17.441406 13.601562 19.199219 Z M 10.398438 19.199219 C 10.398438 17.441406 8.960938 16 7.199219 16 L 7.199219 17.601562 C 7.199219 18.480469 7.921875 19.199219 8.800781 19.199219 Z M 7.199219 8.800781 L 7.199219 13.601562 C 7.199219 14.046875 7.550781 14.398438 8 14.398438 L 16 14.398438 C 16.449219 14.398438 16.800781 14.046875 16.800781 13.601562 L 16.800781 8.800781 C 16.800781 8.351562 16.449219 8 16 8 L 8 8 C 7.550781 8 7.199219 8.351562 7.199219 8.800781 Z M 8.800781 5.601562 C 8.800781 6.046875 9.152344 6.398438 9.601562 6.398438 L 14.398438 6.398438 C 14.847656 6.398438 15.199219 6.046875 15.199219 5.601562 C 15.199219 5.152344 14.847656 4.800781 14.398438 4.800781 L 9.601562 4.800781 C 9.152344 4.800781 8.800781 5.152344 8.800781 5.601562 Z M 8.800781 5.601562 "/>
</svg>
