<?xml version="1.0" encoding="UTF-8"?>
<svg xmlns="http://www.w3.org/2000/svg" xmlns:xlink="http://www.w3.org/1999/xlink" width="24" height="24" viewBox="0 0 24 24">
<path fill-rule="nonzero" fill="rgb(0%, 0%, 0%)" fill-opacity="1" d="M 10.398438 23.199219 C 10.398438 22.398438 10.398438 17.601562 10.398438 17.601562 C 10.398438 16 10.398438 15.601562 8.800781 14.800781 C 7.601562 14.238281 2.398438 12.800781 2.398438 12.800781 C 2.398438 12.800781 1.601562 10.398438 1.601562 10.398438 C 1.601562 10.398438 10.558594 12.800781 10.558594 12.800781 C 10.558594 12.800781 10.558594 10.800781 10.558594 10.800781 C 10.558594 9.601562 10.398438 9.601562 9.601562 9.199219 C 8.800781 8.800781 4.800781 6.800781 4.800781 6.800781 C 4.800781 6.800781 4.398438 4.800781 4.398438 4.800781 C 4.398438 4.800781 10.800781 7.199219 10.800781 7.199219 C 10.800781 7.199219 11.039062 2 11.039062 2 C 11.039062 2 12.398438 0.398438 12.398438 0.398438 C 12.398438 0.398438 12.800781 3.199219 12.800781 3.199219 C 12.800781 3.199219 13.199219 7.199219 13.199219 7.199219 C 13.199219 7.199219 19.601562 4.800781 19.601562 4.800781 C 19.601562 4.800781 19.199219 6.800781 19.199219 6.800781 C 19.199219 6.800781 15.199219 8.800781 14.398438 9.199219 C 13.601562 9.601562 13.441406 9.601562 13.441406 10.800781 C 13.441406 10.800781 13.441406 12.800781 13.441406 12.800781 C 13.441406 12.800781 22.398438 10.398438 22.398438 10.398438 C 22.398438 10.398438 21.601562 12.800781 21.601562 12.800781 C 21.601562 12.800781 15.601562 14.238281 14.800781 14.800781 C 13.601562 15.601562 13.601562 16 13.601562 17.601562 C 13.601562 17.601562 13.601562 22.238281 13.601562 23.199219 C 13.601562 24 10.398438 24 10.398438 23.199219 Z M 10.398438 23.199219 "/>
</svg>
