<?xml version="1.0" encoding="UTF-8"?>
<svg xmlns="http://www.w3.org/2000/svg" xmlns:xlink="http://www.w3.org/1999/xlink" width="24" height="24" viewBox="0 0 24 24">
<path fill-rule="nonzero" fill="rgb(0%, 0%, 0%)" fill-opacity="1" d="M 11.199219 10.398438 C 11.199219 10.398438 9.601562 12 8.800781 15.199219 C 6.398438 12.800781 9.199219 8.800781 9.199219 8.800781 C 9.199219 8.800781 7.199219 9.601562 3.199219 13.601562 C 2.398438 9.601562 8 7.199219 8 7.199219 C 8 7.199219 4.800781 7.199219 1.601562 8 C 1.601562 4 8.800781 4.800781 8.800781 4.800781 C 8.800781 4.800781 7.199219 3.199219 3.199219 2.398438 C 8 -0.800781 12 4 12 4 C 12 4 12.800781 0.800781 20 1.601562 C 16.800781 3.199219 15.199219 4.800781 15.199219 4.800781 C 15.199219 4.800781 21.601562 4.800781 22.398438 9.601562 C 19.199219 8 15.199219 7.199219 15.199219 7.199219 C 15.199219 7.199219 20 9.601562 20 14.398438 C 17.601562 12 14.398438 9.601562 14.398438 9.601562 C 14.398438 9.601562 15.199219 12.800781 15.199219 15.199219 C 15.199219 17.601562 14.398438 20 13.601562 22.398438 C 13.601562 23.199219 9.601562 23.199219 9.601562 22.398438 C 10.398438 20 12 18.398438 12 15.199219 C 12 12 11.199219 10.398438 11.199219 10.398438 Z M 11.199219 10.398438 "/>
</svg>
