<?xml version="1.0" encoding="UTF-8"?>
<svg xmlns="http://www.w3.org/2000/svg" xmlns:xlink="http://www.w3.org/1999/xlink" width="24" height="24" viewBox="0 0 24 24">
<path fill-rule="nonzero" fill="rgb(0%, 0%, 0%)" fill-opacity="1" d="M 21.761719 15.566406 C 21.28125 15.199219 20.929688 14.734375 20.703125 14.207031 C 20.238281 13.121094 20.128906 8.785156 20.160156 6.304688 C 20.160156 6.273438 20.160156 6.238281 20.160156 6.191406 C 20.03125 3.839844 14.992188 3.199219 12 3.199219 C 9.007812 3.199219 3.96875 3.839844 3.839844 6.191406 C 3.839844 6.222656 3.839844 6.257812 3.839844 6.304688 C 3.871094 8.785156 3.761719 13.121094 3.296875 14.207031 C 3.070312 14.734375 2.71875 15.199219 2.238281 15.566406 C 1.839844 15.871094 1.617188 16.351562 1.601562 16.878906 C 1.585938 17.40625 1.808594 17.886719 2.175781 18.222656 L 2.367188 18.382812 C 2.625 18.609375 2.960938 18.734375 3.296875 18.734375 C 3.710938 18.734375 4.128906 18.542969 4.398438 18.207031 C 4.785156 17.761719 5.550781 16.992188 6.304688 16.992188 C 6.351562 16.992188 6.398438 16.992188 6.464844 17.007812 C 6.574219 17.023438 6.59375 17.054688 6.609375 17.070312 C 6.6875 17.214844 6.769531 17.710938 6.511719 18.71875 C 6.289062 19.585938 6.753906 20.511719 7.550781 20.753906 C 7.695312 20.785156 7.839844 20.800781 7.984375 20.800781 C 8.6875 20.800781 9.28125 20.289062 9.457031 19.535156 C 9.742188 18.238281 10.785156 17.328125 12.015625 17.328125 C 13.230469 17.328125 14.289062 18.238281 14.574219 19.535156 C 14.734375 20.273438 15.34375 20.800781 16.046875 20.800781 C 16.191406 20.800781 16.335938 20.785156 16.464844 20.734375 C 17.265625 20.480469 17.726562 19.566406 17.503906 18.703125 C 17.246094 17.710938 17.328125 17.199219 17.40625 17.054688 C 17.425781 17.039062 17.441406 17.007812 17.550781 16.992188 C 17.601562 16.992188 17.648438 16.976562 17.710938 16.976562 C 18.480469 16.976562 19.230469 17.742188 19.617188 18.191406 C 19.902344 18.527344 20.304688 18.71875 20.71875 18.71875 C 21.054688 18.71875 21.375 18.59375 21.648438 18.367188 L 21.839844 18.207031 C 22.222656 17.886719 22.433594 17.390625 22.414062 16.878906 C 22.398438 16.351562 22.175781 15.871094 21.777344 15.566406 Z M 12 4.863281 C 16.128906 4.863281 17.28125 5.457031 17.601562 5.921875 C 16.753906 7.28125 14.207031 7.214844 11.96875 7.28125 C 9.617188 7.105469 7.40625 7.28125 6.398438 5.921875 C 6.71875 5.457031 7.871094 4.863281 12 4.863281 Z M 12 4.863281 "/>
</svg>
