<?xml version="1.0" encoding="UTF-8"?>
<svg xmlns="http://www.w3.org/2000/svg" xmlns:xlink="http://www.w3.org/1999/xlink" width="24" height="24" viewBox="0 0 24 24">
<path fill-rule="nonzero" fill="rgb(0%, 0%, 0%)" fill-opacity="1" d="M 5.601562 1.601562 C 6.929688 1.601562 8 2.671875 8 4 L 8 22.398438 L 3.199219 22.398438 L 3.199219 4 C 3.199219 2.671875 4.273438 1.601562 5.601562 1.601562 Z M 5.601562 1.601562 "/>
<path fill-rule="nonzero" fill="rgb(0%, 0%, 0%)" fill-opacity="1" d="M 8 6.640625 C 7.425781 6.640625 6.960938 6.175781 6.960938 5.601562 C 6.960938 5.023438 7.425781 4.558594 8 4.558594 L 20 4.558594 C 20.574219 4.558594 21.039062 5.023438 21.039062 5.601562 C 21.039062 6.175781 20.574219 6.640625 20 6.640625 Z M 8 6.640625 "/>
<path fill-rule="nonzero" fill="rgb(0%, 0%, 0%)" fill-opacity="1" d="M 12.992188 15.695312 C 13.167969 16.238281 12.847656 16.832031 12.304688 16.992188 C 11.761719 17.167969 11.167969 16.847656 11.007812 16.304688 L 7.953125 6.367188 C 7.777344 5.824219 8.078125 5.230469 8.640625 5.070312 C 9.183594 4.894531 9.761719 5.199219 9.9375 5.761719 Z M 12.992188 15.695312 "/>
<path fill-rule="nonzero" fill="rgb(0%, 0%, 0%)" fill-opacity="1" d="M 18.207031 11.152344 C 18.671875 11.503906 18.785156 12.144531 18.449219 12.609375 C 18.097656 13.070312 17.457031 13.183594 16.992188 12.847656 L 8.574219 6.71875 C 8.113281 6.382812 8.015625 5.726562 8.351562 5.265625 C 8.6875 4.800781 9.34375 4.703125 9.808594 5.039062 Z M 18.207031 11.152344 "/>
</svg>
