<?xml version="1.0" encoding="UTF-8"?>
<svg xmlns="http://www.w3.org/2000/svg" xmlns:xlink="http://www.w3.org/1999/xlink" width="24" height="24" viewBox="0 0 24 24">
<path fill-rule="nonzero" fill="rgb(0%, 0%, 0%)" fill-opacity="1" d="M 4.800781 22.398438 L 2.398438 22.398438 C 1.070312 22.398438 0 21.328125 0 20 L 0 10.71875 L 3.519531 2.449219 C 3.742188 1.9375 4.238281 1.601562 4.800781 1.601562 C 5.359375 1.601562 5.855469 1.9375 6.078125 2.449219 L 11.199219 14.398438 L 12 16.800781 C 13.296875 17.824219 13.566406 18.625 12.800781 19.199219 C 12.03125 19.777344 9.375 20.847656 4.800781 22.398438 Z M 14.398438 22.398438 C 14.398438 22.398438 14.929688 21.871094 16 20.800781 C 18.0625 18.734375 16.816406 17.152344 12.238281 16.0625 L 12.800781 14.398438 L 17.921875 2.449219 C 18.144531 1.9375 18.640625 1.601562 19.199219 1.601562 C 19.761719 1.601562 20.257812 1.9375 20.480469 2.449219 L 24 10.71875 L 24 20 C 24 21.328125 22.929688 22.398438 21.601562 22.398438 Z M 4.800781 3.601562 L 1.601562 11.199219 L 4.800781 9.601562 L 6.398438 12.800781 L 8 11.199219 Z M 19.199219 3.601562 L 16 11.199219 L 19.199219 9.601562 L 20.800781 12.800781 L 22.398438 11.199219 Z M 19.199219 3.601562 "/>
</svg>
