<?xml version="1.0" encoding="UTF-8"?>
<svg xmlns="http://www.w3.org/2000/svg" xmlns:xlink="http://www.w3.org/1999/xlink" width="20" height="20" viewBox="0 0 20 20">
<path fill-rule="nonzero" fill="rgb(67.45098%, 22.352941%, 67.45098%)" fill-opacity="1" d="M 7.144531 0 C 5.714844 0 5.714844 0 5.714844 1.429688 L 5.726562 5.714844 L 1.429688 5.714844 L 1.429688 18.570312 C 1.429688 20 1.429688 20 2.855469 20 L 17.144531 20 C 18.570312 20 18.570312 20 18.570312 18.570312 L 18.570312 5.714844 L 14.339844 5.714844 L 14.285156 1.429688 C 14.285156 0 14.285156 0 12.855469 0 Z M 12.855469 1.429688 L 12.855469 5.714844 L 7.144531 5.714844 L 7.144531 1.429688 Z M 7.144531 7.144531 L 11.429688 7.144531 L 11.429688 17.144531 L 7.144531 17.144531 L 7.144531 15.714844 L 10 15.714844 L 10 12.855469 L 7.144531 12.855469 Z M 12.855469 7.144531 L 17.144531 7.144531 L 17.144531 17.144531 L 12.855469 17.144531 L 12.855469 15.714844 L 15.714844 15.714844 L 15.714844 12.855469 L 12.855469 12.855469 Z M 8.570312 8.570312 L 8.570312 11.429688 L 10 11.429688 L 10 8.570312 Z M 14.285156 8.570312 L 14.285156 11.429688 L 15.714844 11.429688 L 15.714844 8.570312 Z M 2.855469 15.714844 L 5.714844 15.714844 L 5.714844 19.269531 L 4.285156 19.269531 L 4.285156 17.144531 L 2.855469 17.144531 Z M 2.855469 15.714844 "/>
</svg>
