<?xml version="1.0" encoding="UTF-8"?>
<svg xmlns="http://www.w3.org/2000/svg" xmlns:xlink="http://www.w3.org/1999/xlink" width="24" height="24" viewBox="0 0 24 24">
<path fill-rule="nonzero" fill="rgb(0%, 0%, 0%)" fill-opacity="1" d="M 19.199219 14.609375 C 18.238281 13.710938 17.664062 13.40625 16.800781 13.40625 C 15.742188 13.40625 15.121094 13.871094 13.695312 15.296875 C 12.71875 16.273438 12.273438 16.609375 12 16.609375 C 11.726562 16.609375 11.28125 16.273438 10.304688 15.296875 C 8.878906 13.871094 8.257812 13.40625 7.199219 13.40625 C 6.335938 13.40625 5.761719 13.710938 4.800781 14.609375 C 4.800781 14.527344 4.800781 14.464844 4.800781 14.398438 C 4.800781 10.128906 9.601562 11.199219 9.601562 8 C 9.601562 5.871094 8.527344 4.800781 6.398438 4.800781 L 6.398438 3.199219 L 17.601562 3.199219 L 17.601562 4.800781 C 15.472656 4.800781 14.398438 5.871094 14.398438 8 C 14.398438 11.199219 19.199219 10.128906 19.199219 14.398438 C 19.199219 14.464844 19.199219 14.527344 19.199219 14.609375 Z M 18.703125 16.910156 C 18.015625 18.542969 16.574219 19.839844 14.398438 20.800781 L 9.601562 20.800781 C 7.425781 19.839844 5.984375 18.542969 5.296875 16.910156 C 5.359375 16.847656 5.425781 16.785156 5.503906 16.703125 C 6.480469 15.726562 6.929688 15.40625 7.199219 15.40625 C 7.472656 15.40625 7.921875 15.726562 8.894531 16.703125 C 10.320312 18.128906 10.945312 18.609375 12 18.609375 C 13.054688 18.609375 13.679688 18.128906 15.105469 16.703125 C 16.078125 15.726562 16.527344 15.40625 16.800781 15.40625 C 17.070312 15.40625 17.519531 15.726562 18.496094 16.703125 C 18.574219 16.785156 18.640625 16.847656 18.703125 16.910156 Z M 18.703125 16.910156 "/>
</svg>
