<?xml version="1.0" encoding="UTF-8"?>
<svg xmlns="http://www.w3.org/2000/svg" xmlns:xlink="http://www.w3.org/1999/xlink" width="24" height="24" viewBox="0 0 24 24">
<path fill-rule="nonzero" fill="rgb(0%, 0%, 0%)" fill-opacity="1" d="M 19.199219 0 C 20.800781 0 20.800781 0 20.800781 1.601562 L 20.800781 22.398438 C 20.800781 24 20.800781 24 19.199219 24 L 4.800781 24 C 3.199219 24 3.199219 24 3.199219 22.398438 L 3.199219 1.601562 C 3.199219 0 3.199219 0 4.800781 0 Z M 16 19.199219 L 6.398438 19.199219 L 6.398438 20.800781 L 16 20.800781 Z M 19.199219 14.398438 L 17.601562 14.398438 L 17.601562 15.601562 L 19.199219 15.601562 Z M 16 3.199219 L 6.398438 3.199219 L 6.398438 16 L 16 16 Z M 19.199219 12 L 17.601562 12 L 17.601562 13.199219 L 19.199219 13.199219 Z M 19.199219 9.601562 L 17.601562 9.601562 L 17.601562 10.800781 L 19.199219 10.800781 Z M 19.199219 7.199219 L 17.601562 7.199219 L 17.601562 8.398438 L 19.199219 8.398438 Z M 19.199219 7.199219 "/>
<path fill-rule="nonzero" fill="rgb(0%, 0%, 0%)" fill-opacity="1" d="M 14 10 C 14 10 14 12 14 12 C 14 12 14.800781 12 14.800781 12 C 14.800781 12 14.800781 10 14.800781 10 C 14.800781 10 14 10 14 10 Z M 13.679688 7.023438 C 13.617188 6.976562 13.566406 6.910156 13.566406 6.816406 L 13.566406 6.097656 C 13.566406 6.046875 13.535156 6 13.488281 6 L 12.910156 6 C 12.863281 6 12.832031 6.046875 12.832031 6.097656 L 12.832031 6.816406 C 12.832031 7.089844 12.945312 7.328125 13.167969 7.472656 C 13.648438 7.792969 13.953125 8.335938 13.953125 8.929688 L 13.953125 9.28125 C 13.953125 9.328125 13.984375 9.375 14.046875 9.375 L 14.609375 9.375 C 14.65625 9.375 14.703125 9.328125 14.703125 9.28125 L 14.703125 8.929688 C 14.703125 8.160156 14.320312 7.457031 13.679688 7.023438 Z M 12 10 C 12 10 7.199219 10 7.199219 10 C 6.800781 10 6.800781 12 7.199219 12 C 7.199219 12 12 12 12 12 C 12.398438 12 12.398438 10 12 10 Z M 11.761719 11.359375 L 9.601562 11.359375 L 9.601562 10.640625 L 11.761719 10.640625 Z M 12.910156 7.664062 C 12.640625 7.472656 12.449219 7.167969 12.449219 6.816406 L 12.449219 6.097656 C 12.449219 6.046875 12.414062 6 12.351562 6 L 11.792969 6 C 11.742188 6 11.695312 6.046875 11.695312 6.097656 L 11.695312 6.878906 C 11.695312 7.390625 11.984375 7.824219 12.398438 8.128906 C 12.671875 8.304688 12.832031 8.609375 12.832031 8.929688 L 12.832031 9.28125 C 12.832031 9.328125 12.863281 9.375 12.910156 9.375 L 13.488281 9.375 C 13.535156 9.375 13.566406 9.328125 13.566406 9.28125 L 13.566406 8.929688 C 13.566406 8.414062 13.328125 7.953125 12.910156 7.664062 Z M 13.601562 10 C 13.601562 10 12.800781 10 12.800781 10 C 12.800781 10 12.800781 12 12.800781 12 C 12.800781 12 13.601562 12 13.601562 12 C 13.601562 12 13.601562 10 13.601562 10 Z M 13.601562 10 "/>
</svg>
