<?xml version="1.0" encoding="UTF-8"?>
<svg xmlns="http://www.w3.org/2000/svg" xmlns:xlink="http://www.w3.org/1999/xlink" width="24" height="24" viewBox="0 0 24 24">
<path fill-rule="nonzero" fill="rgb(0%, 0%, 0%)" fill-opacity="1" d="M 17.601562 0 C 19.199219 0 19.199219 0 19.199219 1.601562 L 19.199219 22.398438 C 19.199219 24 19.199219 24 17.601562 24 C 17.601562 24 6.398438 24 6.398438 24 C 4.800781 24 4.800781 24 4.800781 22.398438 L 4.800781 1.601562 C 4.800781 0 4.800781 0 6.398438 0 Z M 10 12.800781 C 10 12.800781 8.800781 12.800781 8.800781 12.800781 C 8 12.800781 8 13.601562 8 13.601562 C 8 13.601562 8 21.601562 8 21.601562 C 8 22.398438 8.800781 22.398438 8.800781 22.398438 L 15.199219 22.398438 C 15.199219 22.398438 16 22.398438 16 21.601562 C 16 21.601562 16 13.601562 16 13.601562 C 16 12.800781 15.199219 12.800781 15.199219 12.800781 L 14 12.800781 C 14 12.800781 13.601562 14.367188 13.601562 14.367188 C 13.601562 14.769531 10.398438 14.769531 10.398438 14.367188 C 10.398438 14.367188 10 12.800781 10 12.800781 Z M 16.800781 1.601562 L 7.199219 1.601562 C 7.199219 1.601562 6.398438 1.601562 6.398438 2.398438 C 6.398438 2.398438 6.398438 8.800781 6.398438 8.800781 C 6.398438 8.800781 6.398438 9.601562 7.199219 9.601562 C 7.199219 9.601562 16.800781 9.601562 16.800781 9.601562 C 16.800781 9.601562 17.601562 9.601562 17.601562 8.800781 C 17.601562 8.800781 17.601562 2.398438 17.601562 2.398438 C 17.601562 1.601562 16.800781 1.601562 16.800781 1.601562 Z M 16.800781 1.601562 "/>
<path fill-rule="nonzero" fill="rgb(0%, 0%, 0%)" fill-opacity="1" d="M 10.398438 17.601562 C 10.398438 18 13.601562 18 13.601562 17.601562 C 13.601562 17.601562 13.199219 21.601562 13.199219 21.601562 C 13.199219 22.398438 10.800781 22.398438 10.800781 21.601562 C 10.800781 21.601562 10.398438 17.601562 10.398438 17.601562 Z M 12.398438 15.214844 C 12.511719 15.199219 12.609375 15.28125 12.625 15.390625 C 12.625 15.488281 12.625 15.488281 12.625 15.601562 C 12.640625 15.710938 12.558594 15.808594 12.449219 15.808594 C 12.335938 15.824219 12.238281 15.742188 12.238281 15.632812 C 12.222656 15.519531 12.222656 15.519531 12.222656 15.425781 C 12.207031 15.3125 12.289062 15.214844 12.398438 15.214844 Z M 12.464844 16.015625 C 12.574219 16 12.671875 16.078125 12.671875 16.191406 C 12.6875 16.289062 12.6875 16.289062 12.6875 16.398438 C 12.703125 16.511719 12.625 16.609375 12.511719 16.609375 C 12.398438 16.625 12.304688 16.527344 12.289062 16.433594 C 12.289062 16.320312 12.289062 16.320312 12.273438 16.222656 C 12.273438 16.113281 12.351562 16.015625 12.464844 16.015625 Z M 12.527344 16.816406 C 12.414062 16.816406 12.335938 16.910156 12.335938 17.023438 C 12.351562 17.183594 12.351562 17.183594 12.351562 17.214844 C 12.351562 17.328125 12.449219 17.40625 12.558594 17.40625 C 12.671875 17.390625 12.753906 17.296875 12.753906 17.199219 C 12.753906 17.152344 12.753906 17.152344 12.734375 16.992188 C 12.71875 16.878906 12.625 16.800781 12.527344 16.816406 Z M 11.601562 15.214844 C 11.710938 15.214844 11.792969 15.3125 11.792969 15.425781 C 11.777344 15.519531 11.777344 15.519531 11.777344 15.632812 C 11.761719 15.742188 11.664062 15.824219 11.550781 15.808594 C 11.441406 15.808594 11.359375 15.710938 11.375 15.601562 C 11.375 15.488281 11.375 15.488281 11.390625 15.390625 C 11.390625 15.28125 11.488281 15.199219 11.601562 15.214844 Z M 11.535156 16.015625 C 11.648438 16.015625 11.726562 16.113281 11.726562 16.222656 C 11.710938 16.320312 11.710938 16.320312 11.710938 16.433594 C 11.695312 16.527344 11.601562 16.625 11.488281 16.609375 C 11.390625 16.609375 11.296875 16.511719 11.3125 16.398438 C 11.3125 16.289062 11.3125 16.289062 11.328125 16.191406 C 11.328125 16.078125 11.425781 16 11.535156 16.015625 Z M 11.488281 16.816406 C 11.375 16.800781 11.28125 16.878906 11.265625 16.992188 C 11.246094 17.152344 11.246094 17.152344 11.246094 17.199219 C 11.246094 17.296875 11.328125 17.390625 11.441406 17.40625 C 11.550781 17.40625 11.648438 17.328125 11.648438 17.214844 C 11.648438 17.183594 11.648438 17.183594 11.664062 17.023438 C 11.679688 16.910156 11.585938 16.816406 11.488281 16.816406 Z M 11.488281 16.816406 "/>
<path fill-rule="nonzero" fill="rgb(0%, 0%, 0%)" fill-opacity="1" d="M 14 4 C 14 4 13.199219 8.800781 13.199219 8.800781 C 13.199219 8.800781 10.800781 8.800781 10.800781 8.800781 C 10.800781 8.800781 10 4 10 4 L 12.800781 4 C 12.800781 4 13.601562 2 13.601562 2 C 13.679688 1.808594 14.046875 1.855469 14 2 C 14 2 13.199219 4 13.199219 4 C 13.199219 4 14 4 14 4 Z M 14 4 "/>
</svg>
