<?xml version="1.0" encoding="UTF-8"?>
<svg xmlns="http://www.w3.org/2000/svg" xmlns:xlink="http://www.w3.org/1999/xlink" width="24" height="24" viewBox="0 0 24 24">
<path fill-rule="nonzero" fill="rgb(0%, 0%, 0%)" fill-opacity="1" d="M 17.601562 0 C 19.199219 0 19.199219 0 19.199219 1.601562 L 19.199219 22.398438 C 19.199219 24 19.199219 24 17.601562 24 C 17.601562 24 6.398438 24 6.398438 24 C 4.800781 24 4.800781 24 4.800781 22.398438 L 4.800781 1.601562 C 4.800781 0 4.800781 0 6.398438 0 Z M 10 12.800781 C 10 12.800781 8.800781 12.800781 8.800781 12.800781 C 8 12.800781 8 13.601562 8 13.601562 C 8 13.601562 8 21.601562 8 21.601562 C 8 22.398438 8.800781 22.398438 8.800781 22.398438 L 15.199219 22.398438 C 15.199219 22.398438 16 22.398438 16 21.601562 C 16 21.601562 16 13.601562 16 13.601562 C 16 12.800781 15.199219 12.800781 15.199219 12.800781 L 14 12.800781 C 14 12.800781 13.601562 14.367188 13.601562 14.367188 C 13.601562 14.769531 10.398438 14.769531 10.398438 14.367188 C 10.398438 14.367188 10 12.800781 10 12.800781 Z M 16.800781 1.601562 L 7.199219 1.601562 C 7.199219 1.601562 6.398438 1.601562 6.398438 2.398438 C 6.398438 2.398438 6.398438 8.800781 6.398438 8.800781 C 6.398438 8.800781 6.398438 9.601562 7.199219 9.601562 C 7.199219 9.601562 16.800781 9.601562 16.800781 9.601562 C 16.800781 9.601562 17.601562 9.601562 17.601562 8.800781 C 17.601562 8.800781 17.601562 2.398438 17.601562 2.398438 C 17.601562 1.601562 16.800781 1.601562 16.800781 1.601562 Z M 16.800781 1.601562 "/>
<path fill-rule="nonzero" fill="rgb(0%, 0%, 0%)" fill-opacity="1" d="M 14 8 C 14.175781 8 14.398438 8.222656 14.398438 8.398438 C 14.398438 8.574219 14.175781 8.800781 14 8.800781 L 9.199219 8.800781 C 9.023438 8.800781 8.800781 8.574219 8.800781 8.398438 C 8.800781 8.222656 9.023438 8 9.199219 8 Z M 15.199219 4.398438 C 15.601562 4.398438 15.839844 4.609375 15.839844 4.960938 C 15.839844 5.3125 15.601562 5.601562 15.199219 5.601562 L 14.222656 5.601562 C 14.398438 5.199219 14.398438 4.398438 14.398438 4.398438 Z M 14.398438 2.398438 L 8.800781 2.398438 L 8.800781 4.800781 C 8.800781 6.398438 10 7.601562 11.601562 7.601562 C 12.398438 7.601562 13.601562 7.199219 14 6.398438 L 15.199219 6.398438 C 16 6.398438 16.398438 5.664062 16.398438 4.960938 C 16.398438 4.257812 16 3.601562 15.199219 3.601562 L 14.398438 3.601562 Z M 14.398438 2.398438 "/>
<path fill-rule="nonzero" fill="rgb(0%, 0%, 0%)" fill-opacity="1" d="M 10.398438 18.398438 C 10.398438 18.800781 13.601562 18.800781 13.601562 18.398438 C 13.601562 18.398438 13.121094 21.601562 13.121094 21.601562 C 13.121094 22.398438 10.800781 22.398438 10.800781 21.601562 C 10.800781 21.601562 10.398438 18.398438 10.398438 18.398438 Z M 12.304688 18.398438 C 13.183594 18.113281 13.472656 17.824219 13.472656 17.230469 C 13.472656 16.945312 13.183594 16.65625 12.59375 16.367188 C 12.015625 16.078125 11.726562 15.777344 11.726562 15.199219 C 11.425781 15.777344 11.726562 16.65625 12.304688 16.945312 C 13.761719 17.535156 12.304688 18.398438 12.304688 18.398438 Z M 11.105469 18.398438 C 11.566406 18.273438 11.855469 18.273438 11.839844 17.824219 C 11.839844 17.566406 11.679688 17.441406 11.425781 17.230469 C 11.152344 17.039062 10.878906 16.960938 10.816406 16.367188 C 10.527344 16.65625 10.71875 17.230469 11.105469 17.535156 C 11.886719 17.921875 11.105469 18.398438 11.105469 18.398438 Z M 11.105469 18.398438 "/>
</svg>
