<?xml version="1.0" encoding="UTF-8"?>
<svg xmlns="http://www.w3.org/2000/svg" xmlns:xlink="http://www.w3.org/1999/xlink" width="24" height="24" viewBox="0 0 24 24">
<path fill-rule="nonzero" fill="rgb(0%, 0%, 0%)" fill-opacity="1" d="M 15.199219 0 C 15.199219 0 16 0 16 0.800781 L 16 8 C 16 8 18.398438 8 18.398438 8 C 18.398438 8 19.199219 8 19.199219 8.800781 C 19.199219 8.800781 19.199219 23.199219 19.199219 23.199219 C 19.199219 24 18.398438 24 18.398438 24 C 18.398438 24 5.601562 24 5.601562 24 C 5.601562 24 4.800781 24 4.800781 23.199219 C 4.800781 23.199219 4.800781 8.800781 4.800781 8.800781 C 4.800781 8 5.601562 8 5.601562 8 L 8 8 L 8 0.800781 C 8 0 8.800781 0 8.800781 0 Z M 16.800781 9.601562 L 7.199219 9.601562 L 7.199219 16 L 16.800781 16 Z M 13.601562 6.398438 C 13.601562 6.398438 10.398438 6.398438 10.398438 6.398438 C 9.601562 6.398438 9.601562 7.199219 10.398438 7.199219 C 10.398438 7.199219 11.199219 7.199219 11.199219 7.199219 C 11.199219 7.199219 11.199219 9.199219 11.199219 9.199219 C 11.199219 9.199219 12.800781 9.199219 12.800781 9.199219 C 12.800781 9.199219 12.800781 7.199219 12.800781 7.199219 C 12.800781 7.199219 13.601562 7.199219 13.601562 7.199219 C 14.398438 7.199219 14.398438 6.398438 13.601562 6.398438 Z M 13.601562 1.601562 L 10.398438 1.601562 L 10.398438 4 L 13.601562 4 Z M 13.601562 1.601562 "/>
<path fill-rule="nonzero" fill="rgb(0%, 0%, 0%)" fill-opacity="1" d="M 8.800781 12.800781 L 11.601562 12.800781 L 11.601562 13.199219 L 8.800781 13.199219 Z M 8.800781 14.398438 L 8.800781 14.800781 L 11.601562 14.800781 L 11.601562 14.398438 Z M 8.800781 10.398438 L 8.800781 11.199219 L 15.199219 11.199219 L 15.199219 10.398438 Z M 8.800781 13.601562 L 8.800781 14 L 11.601562 14 L 11.601562 13.601562 Z M 8.800781 12 L 8.800781 12.398438 L 11.601562 12.398438 L 11.601562 12 Z M 12.398438 12.800781 L 12.398438 13.199219 L 15.199219 13.199219 L 15.199219 12.800781 Z M 12.398438 14.398438 L 12.398438 14.800781 L 15.199219 14.800781 L 15.199219 14.398438 Z M 12.398438 13.601562 L 12.398438 14 L 15.199219 14 L 15.199219 13.601562 Z M 12.398438 12 L 12.398438 12.398438 L 15.199219 12.398438 L 15.199219 12 Z M 12.398438 12 "/>
</svg>
