<?xml version="1.0" encoding="UTF-8"?>
<svg xmlns="http://www.w3.org/2000/svg" xmlns:xlink="http://www.w3.org/1999/xlink" width="24" height="24" viewBox="0 0 24 24">
<path fill-rule="nonzero" fill="rgb(0%, 0%, 0%)" fill-opacity="1" d="M 19.199219 0 C 20.800781 0 20.800781 0 20.800781 1.601562 L 20.800781 22.398438 C 20.800781 24 20.800781 24 19.199219 24 L 4.800781 24 C 3.199219 24 3.199219 24 3.199219 22.398438 L 3.199219 1.601562 C 3.199219 0 3.199219 0 4.800781 0 Z M 16 19.199219 L 6.398438 19.199219 L 6.398438 20.800781 L 16 20.800781 Z M 19.199219 14.398438 L 17.601562 14.398438 L 17.601562 15.601562 L 19.199219 15.601562 Z M 16 3.199219 L 6.398438 3.199219 L 6.398438 16 L 16 16 Z M 19.199219 12 L 17.601562 12 L 17.601562 13.199219 L 19.199219 13.199219 Z M 19.199219 9.601562 L 17.601562 9.601562 L 17.601562 10.800781 L 19.199219 10.800781 Z M 19.199219 7.199219 L 17.601562 7.199219 L 17.601562 8.398438 L 19.199219 8.398438 Z M 19.199219 7.199219 "/>
<path fill-rule="nonzero" fill="rgb(0%, 0%, 0%)" fill-opacity="1" d="M 15.199219 5.601562 L 15.199219 6 L 7.199219 6 L 7.199219 5.601562 L 7.601562 5.601562 C 7.601562 5.601562 7.601562 4.398438 7.601562 4.398438 C 7.601562 4 8.398438 4 8.398438 4.398438 C 8.398438 4.398438 8.398438 5.601562 8.398438 5.601562 L 9.601562 5.601562 C 9.601562 5.601562 9.601562 4.398438 9.601562 4.398438 C 9.601562 4 10.398438 4 10.398438 4.398438 C 10.398438 4.398438 10.398438 5.601562 10.398438 5.601562 L 11.601562 5.601562 C 11.601562 5.601562 11.601562 4.398438 11.601562 4.398438 C 11.601562 4 12.398438 4 12.398438 4.398438 C 12.398438 4.398438 12.398438 5.601562 12.398438 5.601562 L 13.601562 5.601562 C 13.601562 5.601562 13.601562 4.398438 13.601562 4.398438 C 13.601562 4 14.398438 4 14.398438 4.398438 C 14.398438 4.398438 14.398438 5.601562 14.398438 5.601562 Z M 15.199219 8.800781 L 14.398438 8.800781 C 14.398438 8.800781 14.398438 7.601562 14.398438 7.601562 C 14.398438 7.199219 13.601562 7.199219 13.601562 7.601562 C 13.601562 7.601562 13.601562 8.800781 13.601562 8.800781 L 12.398438 8.800781 C 12.398438 8.800781 12.398438 7.601562 12.398438 7.601562 C 12.398438 7.199219 11.601562 7.199219 11.601562 7.601562 C 11.601562 7.601562 11.601562 8.800781 11.601562 8.800781 L 10.398438 8.800781 C 10.398438 8.800781 10.398438 7.601562 10.398438 7.601562 C 10.398438 7.199219 9.601562 7.199219 9.601562 7.601562 C 9.601562 7.601562 9.601562 8.800781 9.601562 8.800781 L 8.398438 8.800781 C 8.398438 8.800781 8.398438 7.601562 8.398438 7.601562 C 8.398438 7.199219 7.601562 7.199219 7.601562 7.601562 C 7.601562 7.601562 7.601562 8.800781 7.601562 8.800781 L 7.199219 8.800781 L 7.199219 9.199219 L 15.199219 9.199219 Z M 15.199219 12 L 14.398438 12 C 14.398438 12 14.398438 10.800781 14.398438 10.800781 C 14.398438 10.398438 13.601562 10.398438 13.601562 10.800781 C 13.601562 10.800781 13.601562 12 13.601562 12 L 12.398438 12 C 12.398438 12 12.398438 10.800781 12.398438 10.800781 C 12.398438 10.398438 11.601562 10.398438 11.601562 10.800781 C 11.601562 10.800781 11.601562 12 11.601562 12 L 10.398438 12 C 10.398438 12 10.398438 10.800781 10.398438 10.800781 C 10.398438 10.398438 9.601562 10.398438 9.601562 10.800781 C 9.601562 10.800781 9.601562 12 9.601562 12 L 8.398438 12 C 8.398438 12 8.398438 10.800781 8.398438 10.800781 C 8.398438 10.398438 7.601562 10.398438 7.601562 10.800781 C 7.601562 10.800781 7.601562 12 7.601562 12 L 7.199219 12 L 7.199219 12.398438 L 15.199219 12.398438 Z M 15.199219 15.199219 L 14.398438 15.199219 C 14.398438 15.199219 14.398438 14 14.398438 14 C 14.398438 13.601562 13.601562 13.601562 13.601562 14 C 13.601562 14 13.601562 15.199219 13.601562 15.199219 L 12.398438 15.199219 C 12.398438 15.199219 12.398438 14 12.398438 14 C 12.398438 13.601562 11.601562 13.601562 11.601562 14 C 11.601562 14 11.601562 15.199219 11.601562 15.199219 L 10.398438 15.199219 C 10.398438 15.199219 10.398438 14 10.398438 14 C 10.398438 13.601562 9.601562 13.601562 9.601562 14 C 9.601562 14 9.601562 15.199219 9.601562 15.199219 L 8.398438 15.199219 C 8.398438 15.199219 8.398438 14 8.398438 14 C 8.398438 13.601562 7.601562 13.601562 7.601562 14 C 7.601562 14 7.601562 15.199219 7.601562 15.199219 L 7.199219 15.199219 L 7.199219 15.601562 L 15.199219 15.601562 Z M 15.199219 15.199219 "/>
</svg>
