<?xml version="1.0" encoding="UTF-8"?>
<svg xmlns="http://www.w3.org/2000/svg" xmlns:xlink="http://www.w3.org/1999/xlink" width="24" height="24" viewBox="0 0 24 24">
<path fill-rule="nonzero" fill="rgb(0%, 0%, 0%)" fill-opacity="1" d="M 9.601562 0.800781 C 9.601562 0.800781 9.601562 3.199219 9.601562 3.199219 C 9.601562 3.199219 13.601562 3.199219 13.601562 3.199219 C 14.398438 3.199219 14.398438 4 14.398438 4 L 14.398438 20 C 14.398438 20 14.398438 20.800781 13.601562 20.800781 C 13.601562 20.800781 9.601562 20.800781 9.601562 20.800781 L 9.601562 23.199219 C 9.601562 24 4.800781 24 4.800781 23.199219 L 4.800781 20.800781 C 4.800781 20.800781 0.800781 20.800781 0.800781 20.800781 C 0 20.800781 0 20 0 20 L 0 4 C 0 4 0 3.199219 0.800781 3.199219 C 0.800781 3.199219 4.800781 3.199219 4.800781 3.199219 C 4.800781 3.199219 4.800781 0.800781 4.800781 0.800781 C 4.800781 0 9.601562 0 9.601562 0.800781 Z M 7.199219 6.398438 C 4 6.398438 1.601562 8.800781 1.601562 12 C 1.601562 15.199219 4 17.601562 7.199219 17.601562 C 10.398438 17.601562 12.800781 15.199219 12.800781 12 C 12.800781 8.800781 10.398438 6.398438 7.199219 6.398438 Z M 7.199219 6.398438 "/>
<path fill-rule="nonzero" fill="rgb(0%, 0%, 0%)" fill-opacity="1" d="M 4.800781 14.398438 C 4.800781 14.398438 9.601562 14.398438 9.601562 14.398438 C 10.398438 14.398438 10.398438 16 9.601562 16 C 9.601562 16 4.800781 16 4.800781 16 C 4 16 4 14.398438 4.800781 14.398438 Z M 4 8.800781 C 3.601562 9.199219 5.761719 11.359375 5.761719 11.359375 C 5.761719 11.359375 5.601562 11.679688 5.601562 12 C 5.601562 12.800781 6.207031 13.601562 7.199219 13.601562 C 8.207031 13.601562 8.800781 12.800781 8.800781 12 C 8.800781 11.199219 8.207031 10.398438 7.199219 10.398438 C 6.71875 10.398438 6.558594 10.558594 6.558594 10.558594 C 6.558594 10.558594 4.398438 8.398438 4 8.800781 Z M 4 8.800781 "/>
<path fill-rule="nonzero" fill="rgb(0%, 0%, 0%)" fill-opacity="1" d="M 19.199219 7.601562 C 21.601562 7.601562 23.601562 9.601562 23.601562 12 C 23.601562 14.398438 21.601562 16.398438 19.199219 16.398438 C 16.800781 16.398438 14.800781 14.398438 14.800781 12 C 14.800781 9.601562 16.800781 7.601562 19.199219 7.601562 Z M 19.199219 8.207031 C 17.199219 8.207031 15.40625 10 15.40625 12 C 15.40625 14 17.199219 15.808594 19.199219 15.808594 C 21.199219 15.808594 23.007812 14 23.007812 12 C 23.007812 10 21.199219 8.207031 19.199219 8.207031 Z M 16.480469 11.710938 C 16.625 11.726562 17.3125 11.808594 17.488281 11.824219 C 17.664062 11.839844 17.601562 12.351562 17.441406 12.335938 C 17.28125 12.320312 16.59375 12.238281 16.414062 12.222656 C 16.257812 12.207031 16.335938 11.695312 16.480469 11.710938 Z M 20.878906 11.710938 C 21.089844 11.695312 21.664062 11.648438 21.886719 11.617188 C 22.128906 11.601562 22.128906 12.128906 21.921875 12.160156 C 21.710938 12.175781 21.167969 12.222656 20.960938 12.257812 C 20.734375 12.273438 20.6875 11.742188 20.878906 11.710938 Z M 19.105469 11.777344 C 19.167969 11.632812 19.617188 11.761719 19.550781 11.953125 C 19.503906 12.144531 19.3125 12.753906 19.246094 12.910156 C 19.183594 13.070312 18.6875 12.960938 18.753906 12.785156 C 18.832031 12.59375 19.054688 11.921875 19.105469 11.777344 Z M 20.382812 13.214844 C 20.558594 13.28125 21.199219 13.519531 21.34375 13.585938 C 21.472656 13.632812 21.3125 14.128906 21.152344 14.046875 C 20.960938 13.984375 20.382812 13.761719 20.207031 13.695312 C 20.03125 13.617188 20.207031 13.152344 20.382812 13.214844 Z M 17.566406 13.265625 C 17.617188 13.375 17.886719 14.113281 17.9375 14.257812 C 17.984375 14.398438 17.535156 14.59375 17.472656 14.433594 C 17.390625 14.257812 17.199219 13.632812 17.136719 13.472656 C 17.089844 13.3125 17.535156 13.152344 17.566406 13.265625 Z M 18.816406 14.0625 C 18.992188 14.128906 19.617188 14.335938 19.792969 14.382812 C 19.953125 14.433594 19.808594 14.929688 19.632812 14.863281 C 19.457031 14.816406 18.832031 14.609375 18.65625 14.558594 C 18.496094 14.496094 18.65625 14 18.816406 14.0625 Z M 22.398438 10.609375 C 22 11.199219 21.40625 11.199219 20.800781 10.609375 C 20.207031 11.199219 19.808594 11.199219 19.199219 10.609375 C 18.609375 11.199219 18.207031 11.199219 17.601562 10.609375 C 17.007812 11.199219 16.609375 11.199219 16 10.609375 C 15.824219 11.246094 15.808594 12 15.808594 12 C 15.808594 13.808594 17.199219 15.40625 19.199219 15.40625 C 21.199219 15.40625 22.609375 13.808594 22.609375 12 C 22.609375 12 22.609375 11.199219 22.398438 10.609375 Z M 22.398438 10.609375 "/>
</svg>
