<?xml version="1.0" encoding="UTF-8"?>
<svg xmlns="http://www.w3.org/2000/svg" xmlns:xlink="http://www.w3.org/1999/xlink" width="24" height="24" viewBox="0 0 24 24">
<path fill-rule="nonzero" fill="rgb(0%, 0%, 0%)" fill-opacity="1" d="M 14.398438 0.800781 C 14.398438 0.800781 14.398438 1.601562 14.398438 1.601562 C 14.398438 1.601562 20 1.601562 20 1.601562 C 20.800781 1.601562 20.800781 2.398438 20.800781 2.398438 L 20.800781 21.601562 C 20.800781 21.601562 20.800781 22.398438 20 22.398438 C 20 22.398438 14.398438 22.398438 14.398438 22.398438 L 14.398438 23.199219 C 14.398438 24 9.601562 24 9.601562 23.199219 L 9.601562 22.398438 C 9.601562 22.398438 4 22.398438 4 22.398438 C 3.199219 22.398438 3.199219 21.601562 3.199219 21.601562 L 3.199219 2.398438 C 3.199219 2.398438 3.199219 1.601562 4 1.601562 C 4 1.601562 9.601562 1.601562 9.601562 1.601562 C 9.601562 1.601562 9.601562 0.800781 9.601562 0.800781 C 9.601562 0 14.398438 0 14.398438 0.800781 Z M 12 4.800781 C 8 4.800781 4.800781 8 4.800781 12 C 4.800781 16 8 19.199219 12 19.199219 C 16 19.199219 19.199219 16 19.199219 12 C 19.199219 8 16 4.800781 12 4.800781 Z M 12 4.800781 "/>
<path fill-rule="nonzero" fill="rgb(0%, 0%, 0%)" fill-opacity="1" d="M 7.039062 11.34375 C 7.3125 11.375 8.59375 11.503906 8.910156 11.535156 C 9.230469 11.585938 9.105469 12.496094 8.816406 12.464844 C 8.527344 12.449219 7.265625 12.320312 6.945312 12.273438 C 6.640625 12.238281 6.785156 11.3125 7.039062 11.34375 Z M 15.152344 11.34375 C 15.519531 11.296875 16.574219 11.199219 16.992188 11.167969 C 17.40625 11.136719 17.425781 12.113281 17.039062 12.144531 C 16.671875 12.175781 15.664062 12.273438 15.28125 12.320312 C 14.878906 12.351562 14.769531 11.390625 15.152344 11.34375 Z M 11.871094 11.457031 C 11.984375 11.167969 12.800781 11.425781 12.703125 11.761719 C 12.59375 12.113281 12.238281 13.230469 12.144531 13.535156 C 12.03125 13.839844 11.105469 13.617188 11.230469 13.28125 C 11.359375 12.960938 11.792969 11.710938 11.871094 11.457031 Z M 14.222656 14.078125 C 14.542969 14.207031 15.710938 14.640625 15.96875 14.753906 C 16.222656 14.863281 15.921875 15.761719 15.632812 15.632812 C 15.28125 15.519531 14.207031 15.105469 13.886719 14.960938 C 13.566406 14.816406 13.902344 13.96875 14.222656 14.078125 Z M 9.070312 14.175781 C 9.152344 14.367188 9.648438 15.726562 9.726562 16 C 9.808594 16.273438 8.976562 16.609375 8.863281 16.304688 C 8.734375 16 8.382812 14.863281 8.273438 14.558594 C 8.160156 14.257812 8.992188 13.96875 9.070312 14.175781 Z M 11.34375 15.648438 C 11.648438 15.761719 12.816406 16.128906 13.136719 16.238281 C 13.441406 16.335938 13.183594 17.230469 12.847656 17.121094 C 12.511719 17.007812 11.359375 16.65625 11.054688 16.542969 C 10.753906 16.433594 11.039062 15.535156 11.34375 15.648438 Z M 18 9.199219 C 16.800781 10.398438 16.207031 10.398438 15.007812 9.199219 C 13.808594 10.398438 13.199219 10.398438 12 9.199219 C 10.800781 10.398438 10.207031 10.398438 9.007812 9.199219 C 7.808594 10.398438 7.199219 10.398438 6 9.199219 C 5.601562 10.398438 5.601562 11.601562 5.601562 12 C 5.601562 15.199219 8.398438 18.398438 12 18.398438 C 15.601562 18.398438 18.398438 15.199219 18.398438 12 C 18.398438 12 18.398438 10.398438 18 9.199219 Z M 18 9.199219 "/>
</svg>
