<?xml version="1.0" encoding="UTF-8"?>
<svg xmlns="http://www.w3.org/2000/svg" xmlns:xlink="http://www.w3.org/1999/xlink" width="24" height="24" viewBox="0 0 24 24">
<path fill-rule="nonzero" fill="rgb(0%, 0%, 0%)" fill-opacity="1" d="M 12 0 C 18.609375 0 24 5.40625 24 12 C 24 18.609375 18.625 24 12 24 C 5.375 24 0 18.609375 0 12 C 0 5.40625 5.40625 0 12 0 Z M 12 0.800781 C 5.808594 0.800781 0.800781 5.808594 0.800781 12 C 0.800781 18.207031 5.808594 23.199219 12 23.199219 C 18.207031 23.199219 23.199219 18.207031 23.199219 12 C 23.199219 5.808594 18.207031 0.800781 12 0.800781 Z M 17.601562 4.800781 C 18.398438 4.800781 18.398438 6.398438 17.601562 6.398438 L 15.199219 6.398438 C 14.800781 6.398438 12.398438 5.199219 13.199219 4.800781 Z M 10.800781 4.800781 C 11.601562 5.199219 9.199219 6.398438 8.800781 6.398438 L 6.398438 6.398438 C 5.601562 6.398438 5.601562 4.800781 6.398438 4.800781 Z M 6.398438 8 C 7.199219 8 6 9.601562 5.601562 9.601562 C 5.601562 9.601562 4 9.601562 4 9.601562 C 3.199219 9.601562 3.199219 8 4 8 C 4 8 6.398438 8 6.398438 8 Z M 20 8 C 20.800781 8 20.800781 9.601562 20 9.601562 L 18.398438 9.601562 C 18 9.601562 16.800781 8 17.601562 8 Z M 20.800781 11.199219 C 21.601562 11.199219 21.601562 12.800781 20.800781 12.800781 L 19.199219 12.800781 C 18.398438 12.800781 18.398438 11.199219 19.199219 11.199219 Z M 4.800781 11.199219 C 5.601562 11.199219 5.601562 12.800781 4.800781 12.800781 L 3.199219 12.800781 C 2.398438 12.800781 2.398438 11.199219 3.199219 11.199219 Z M 5.601562 14.398438 C 6 14.398438 7.199219 16 6.398438 16 C 6.398438 16 4 16 4 16 C 3.199219 16 3.199219 14.398438 4 14.398438 C 4 14.398438 5.601562 14.398438 5.601562 14.398438 Z M 20 14.398438 C 20.800781 14.398438 20.800781 16 20 16 L 17.601562 16 C 16.800781 16 18 14.398438 18.398438 14.398438 Z M 12 6.398438 C 14.992188 6.398438 17.601562 9.007812 17.601562 12 C 17.601562 14.992188 14.992188 17.601562 12 17.601562 C 9.007812 17.601562 6.398438 14.992188 6.398438 12 C 6.398438 9.007812 9.007812 6.398438 12 6.398438 Z M 17.601562 17.601562 C 18.398438 17.601562 18.398438 19.199219 17.601562 19.199219 L 13.199219 19.199219 C 12.398438 18.800781 14.800781 17.601562 15.199219 17.601562 Z M 8.800781 17.601562 C 9.199219 17.601562 11.601562 18.800781 10.800781 19.199219 L 6.398438 19.199219 C 5.601562 19.199219 5.601562 17.601562 6.398438 17.601562 Z M 14 1.808594 C 14 1.808594 13.601562 3.199219 12 3.199219 C 10.398438 3.199219 10 1.808594 10 1.808594 C 5.007812 2.800781 1.601562 7.199219 1.601562 12 C 1.601562 16.800781 5.007812 21.199219 10 22.207031 C 10 22.207031 10.398438 20.800781 12 20.800781 C 13.519531 20.800781 14 22.207031 14 22.207031 C 19.007812 21.199219 22.398438 16.800781 22.398438 12 C 22.398438 7.199219 19.007812 2.800781 14 1.808594 Z M 14 1.808594 "/>
<path fill-rule="nonzero" fill="rgb(0%, 0%, 0%)" fill-opacity="1" d="M 16.398438 9.601562 C 16.800781 10.449219 16.800781 11.585938 16.800781 12 C 16.800781 14.542969 14.800781 16.800781 12 16.800781 C 9.199219 16.800781 7.199219 14.542969 7.199219 12 C 7.199219 11.585938 7.199219 10.449219 7.601562 9.601562 C 8.398438 10.449219 9.039062 10.449219 9.839844 9.601562 C 10.640625 10.449219 11.199219 10.449219 12 9.601562 C 12.800781 10.449219 13.40625 10.449219 14.207031 9.601562 C 15.007812 10.449219 15.601562 10.449219 16.398438 9.601562 Z M 11.457031 14.65625 C 11.230469 14.558594 11.007812 15.265625 11.230469 15.34375 C 11.457031 15.441406 12.304688 15.710938 12.558594 15.808594 C 12.800781 15.886719 12.992188 15.183594 12.769531 15.105469 C 12.542969 15.023438 11.679688 14.734375 11.457031 14.65625 Z M 9.808594 13.503906 C 9.679688 13.230469 9.054688 13.503906 9.167969 13.792969 C 9.28125 14.03125 9.519531 14.929688 9.617188 15.167969 C 9.695312 15.390625 10.320312 15.136719 10.257812 14.910156 Z M 13.566406 13.425781 C 13.34375 13.328125 13.089844 14 13.328125 14.113281 C 13.566406 14.222656 14.351562 14.542969 14.625 14.640625 C 14.832031 14.734375 15.054688 14.03125 14.863281 13.953125 C 14.671875 13.855469 13.808594 13.519531 13.566406 13.425781 Z M 11.96875 11.34375 C 11.855469 11.632812 11.457031 12.542969 11.359375 12.800781 C 11.265625 13.054688 11.953125 13.230469 12.03125 12.992188 C 12.175781 12.753906 12.433594 12.078125 12.542969 11.648438 C 12.671875 11.34375 12.097656 11.070312 11.96875 11.34375 Z M 8.273438 11.28125 C 8.078125 11.246094 7.96875 11.984375 8.191406 12 C 8.433594 12.03125 9.359375 12.144531 9.566406 12.160156 C 9.792969 12.175781 9.886719 11.457031 9.648438 11.425781 C 9.40625 11.40625 8.464844 11.296875 8.273438 11.28125 Z M 15.617188 11.136719 C 15.3125 11.167969 14.527344 11.230469 14.257812 11.28125 C 13.96875 11.3125 14.0625 12.0625 14.351562 12.03125 C 14.640625 12.015625 15.375 11.9375 15.664062 11.902344 C 15.9375 11.871094 15.921875 11.105469 15.617188 11.136719 Z M 15.617188 11.136719 "/>
</svg>
