<?xml version="1.0" encoding="UTF-8"?>
<svg xmlns="http://www.w3.org/2000/svg" xmlns:xlink="http://www.w3.org/1999/xlink" width="24" height="24" viewBox="0 0 24 24">
<path fill-rule="nonzero" fill="rgb(0%, 0%, 0%)" fill-opacity="1" d="M 1.199219 7.5 L 22.800781 7.5 C 23.460938 7.5 24 7.277344 24 7 C 24 5.34375 20.777344 4 16.800781 4 L 16.800781 2 C 18.125 2 19.199219 1.550781 19.199219 1 C 19.199219 0.449219 18.125 0 16.800781 0 L 7.199219 0 C 5.875 0 4.800781 0.449219 4.800781 1 C 4.800781 1.550781 5.875 2 7.199219 2 L 7.199219 4 C 3.222656 4 0 5.34375 0 7 C 0 7.277344 0.539062 7.5 1.199219 7.5 Z M 1.199219 7.5 "/>
<path fill-rule="nonzero" fill="rgb(0%, 0%, 0%)" fill-opacity="1" d="M 1.199219 9 L 22.800781 9 C 23.460938 9 24 9.222656 24 9.5 L 24 10.5 C 24 10.777344 23.460938 11 22.800781 11 L 1.199219 11 C 0.539062 11 0 10.777344 0 10.5 L 0 9.5 C 0 9.222656 0.539062 9 1.199219 9 Z M 1.199219 9 "/>
<path fill-rule="nonzero" fill="rgb(0%, 0%, 0%)" fill-opacity="1" d="M 1.199219 12.5 L 22.800781 12.5 C 23.460938 12.5 24 12.722656 24 13 L 24 14 C 24 14.277344 23.460938 14.5 22.800781 14.5 L 1.199219 14.5 C 0.539062 14.5 0 14.277344 0 14 L 0 13 C 0 12.722656 0.539062 12.5 1.199219 12.5 Z M 1.199219 12.5 "/>
<path fill-rule="nonzero" fill="rgb(0%, 0%, 0%)" fill-opacity="1" d="M 22.800781 16 L 1.199219 16 C 0.539062 16 0 16.222656 0 16.5 L 0 23 C 0 23.550781 1.074219 24 2.398438 24 L 21.601562 24 C 22.925781 24 24 23.550781 24 23 L 24 16.5 C 24 16.222656 23.460938 16 22.800781 16 Z M 22.800781 16 "/>
</svg>
