<?xml version="1.0" encoding="UTF-8"?>
<svg xmlns="http://www.w3.org/2000/svg" xmlns:xlink="http://www.w3.org/1999/xlink" width="20" height="20" viewBox="0 0 20 20">
<path fill-rule="nonzero" fill="rgb(30.196078%, 50.196078%, 70.196078%)" fill-opacity="1" d="M 1.429688 15.714844 C 2.34375 15.714844 4.042969 17.144531 4.855469 17.144531 C 5.621094 17.144531 7.421875 15.714844 8.285156 15.714844 C 9.148438 15.714844 10.953125 17.144531 11.714844 17.144531 C 12.632812 17.144531 14.320312 15.714844 15.140625 15.714844 C 16.058594 15.671875 17.859375 17.144531 18.570312 17.144531 L 18.570312 20 C 17.707031 20 15.957031 18.570312 15.140625 18.570312 C 14.328125 18.570312 12.578125 20 11.714844 20 C 10.894531 20 9.148438 18.570312 8.285156 18.570312 C 7.414062 18.570312 5.671875 20 4.855469 20 C 3.941406 20 2.292969 18.570312 1.429688 18.570312 Z M 1.429688 4.285156 C 2.992188 4.285156 4.289062 4.714844 4.289062 6.785156 L 4.285156 10.355469 C 4.285156 13.214844 6.429688 14.644531 7.855469 14.644531 C 7.855469 14.644531 7.144531 13.214844 7.144531 10.355469 L 7.144531 6.785156 C 7.144531 5.480469 6.214844 4.917969 5.710938 4.285156 C 7.277344 4.285156 8.570312 4.714844 8.570312 6.785156 L 8.570312 10.355469 C 8.570312 13.214844 10.714844 14.644531 12.144531 14.644531 C 12.144531 14.644531 11.429688 13.214844 11.429688 10.355469 L 11.570312 6.785156 C 11.625 5.480469 10.5 4.917969 10 4.285156 C 11.5625 4.285156 12.855469 4.714844 12.855469 6.785156 L 12.855469 10.355469 C 12.855469 13.214844 15 14.644531 16.429688 14.644531 C 16.429688 14.644531 15.714844 13.214844 15.714844 10.355469 L 15.714844 6.785156 C 15.714844 2.5 11.429688 1.429688 10 1.429688 L 0 1.429688 L 0 4.285156 Z M 1.429688 4.285156 "/>
</svg>
