<?xml version="1.0" encoding="UTF-8"?>
<svg xmlns="http://www.w3.org/2000/svg" xmlns:xlink="http://www.w3.org/1999/xlink" width="24" height="24" viewBox="0 0 24 24">
<path fill-rule="nonzero" fill="rgb(0%, 0%, 0%)" fill-opacity="1" d="M 8 3.199219 L 5.601562 3.199219 C 5.199219 3.199219 4.800781 2.800781 4.800781 2.398438 C 4.800781 2 5.199219 1.601562 5.601562 1.601562 L 12 1.601562 C 12.398438 1.601562 12.800781 2 12.800781 2.398438 C 12.800781 2.800781 12.398438 3.199219 12 3.199219 L 9.601562 3.199219 L 9.601562 4.800781 L 11.199219 4.800781 C 12.960938 4.800781 14.398438 6.238281 14.398438 8 L 14.398438 12.800781 L 21.121094 14.078125 C 21.855469 14.238281 22.398438 14.929688 22.398438 15.679688 L 22.398438 16 L 16.800781 16 C 16.398438 16 16 16.398438 16 16.800781 C 16 17.199219 16.398438 17.601562 16.800781 17.601562 L 22.398438 17.601562 L 22.398438 19.199219 L 16.800781 19.199219 C 16.398438 19.199219 16 19.601562 16 20 C 16 20.398438 16.398438 20.800781 16.800781 20.800781 L 22.398438 20.800781 C 22.398438 21.601562 21.601562 22.398438 20.800781 22.398438 L 11.199219 22.398438 C 9.070312 21.328125 8 19.726562 8 17.601562 C 8 15.472656 9.070312 13.871094 11.199219 12.800781 L 11.199219 8 C 9.070312 8 6.398438 8 6.398438 8 L 6.398438 11.199219 L 7.199219 11.199219 C 7.601562 11.199219 8 11.601562 8 12 L 8 12.800781 L 1.601562 12.800781 L 1.601562 12 C 1.601562 11.601562 2 11.199219 2.398438 11.199219 L 3.199219 11.199219 L 3.199219 8 C 3.199219 6.398438 4.800781 4.800781 6.398438 4.800781 L 8 4.800781 Z M 8 3.199219 "/>
</svg>
