<?xml version="1.0" encoding="UTF-8"?>
<svg xmlns="http://www.w3.org/2000/svg" xmlns:xlink="http://www.w3.org/1999/xlink" width="24" height="24" viewBox="0 0 24 24">
<path fill-rule="nonzero" fill="rgb(0%, 0%, 0%)" fill-opacity="1" d="M 8.054688 4.320312 C 9.121094 4.320312 9.972656 3.457031 9.972656 2.398438 C 9.972656 1.335938 9.121094 0.480469 8.054688 0.480469 C 6.992188 0.480469 6.132812 1.335938 6.132812 2.398438 C 6.132812 3.453125 6.992188 4.320312 8.054688 4.320312 Z M 9.40625 21.921875 C 6.140625 21.921875 3.484375 19.234375 3.484375 15.902344 C 3.484375 14.078125 4.296875 12.457031 5.558594 11.347656 L 5.453125 9.464844 C 3.335938 10.808594 1.910156 13.175781 1.910156 15.902344 C 1.910156 20.101562 5.261719 23.515625 9.402344 23.515625 C 12.453125 23.515625 15.144531 21.371094 16.308594 18.714844 L 15.167969 17.144531 C 14.605469 19.867188 12.246094 21.921875 9.398438 21.921875 Z M 21.113281 18.238281 L 20.15625 18.238281 L 16.316406 12.960938 C 16.109375 12.59375 15.355469 11.519531 14.394531 11.519531 L 10.074219 11.519531 L 10.074219 9.601562 L 13.914062 9.601562 C 14.414062 9.601562 14.945312 9.390625 14.945312 8.875 C 14.945312 8.367188 14.425781 8.160156 13.914062 8.160156 L 10.074219 8.160156 L 10.074219 6.238281 C 10.003906 5.175781 9.113281 4.800781 8.160156 4.824219 C 7.195312 4.847656 6.714844 5.28125 6.714844 6.238281 L 6.714844 12.960938 C 6.804688 14.039062 7.585938 14.398438 8.636719 14.398438 L 14.394531 14.398438 L 17.753906 18.71875 C 17.972656 19.078125 18.714844 20.160156 18.714844 20.160156 L 21.113281 20.160156 C 21.609375 20.160156 22.074219 19.707031 22.074219 19.199219 C 22.074219 18.691406 21.625 18.238281 21.113281 18.238281 Z M 21.113281 18.238281 "/>
</svg>
