<?xml version="1.0" encoding="UTF-8"?>
<svg xmlns="http://www.w3.org/2000/svg" xmlns:xlink="http://www.w3.org/1999/xlink" width="24" height="24" viewBox="0 0 24 24">
<path fill-rule="nonzero" fill="rgb(0%, 0%, 0%)" fill-opacity="1" d="M 12 0 C 18.800781 0 24 5.601562 24 12 C 24 18.398438 18.800781 24 12 24 C 5.199219 24 0 18.800781 0 12 C 0 5.199219 5.199219 0 12 0 Z M 9.601562 14.800781 C 9.601562 14.800781 5.007812 18 5.007812 18 C 5.007812 18 7.199219 21.199219 12 21.199219 C 16.800781 21.199219 19.007812 18 19.007812 18 C 19.007812 18 14.398438 14.800781 14.398438 14.800781 C 12.894531 15.808594 11.105469 15.808594 9.601562 14.800781 Z M 10.398438 2.800781 C 6.398438 3.601562 2.800781 7.601562 2.800781 12 C 2.800781 14.496094 3.503906 15.503906 3.503906 15.503906 C 3.503906 15.503906 8.398438 12.398438 8.398438 12.398438 C 8.398438 12.398438 8 10 10.398438 8.800781 C 10.398438 8.800781 10.398438 2.800781 10.398438 2.800781 Z M 13.601562 2.800781 C 13.601562 2.800781 13.601562 8.800781 13.601562 8.800781 C 16 10 15.601562 12.398438 15.601562 12.398438 C 15.601562 12.398438 20.496094 15.503906 20.496094 15.503906 C 20.496094 15.503906 21.199219 14.398438 21.199219 12 C 21.199219 7.601562 17.601562 3.601562 13.601562 2.800781 Z M 13.601562 2.800781 "/>
</svg>
