<?xml version="1.0" encoding="UTF-8"?>
<svg xmlns="http://www.w3.org/2000/svg" xmlns:xlink="http://www.w3.org/1999/xlink" width="20" height="20" viewBox="0 0 20 20">
<path fill-rule="nonzero" fill="rgb(0%, 57.254902%, 85.490196%)" fill-opacity="1" d="M 11.429688 0 L 11.429688 2.855469 L 10 2.144531 L 0 7.144531 L 0 10 L 2.144531 9.070312 L 2.144531 20 L 4.285156 20 L 4.285156 8.140625 L 10 5.714844 L 11.429688 6.324219 L 11.429688 12.855469 L 6.429688 12.855469 C 6.464844 15.214844 6.378906 17.699219 6.429688 20 L 13.570312 20 C 13.597656 15.78125 13.578125 11.5 13.570312 7.230469 L 15.714844 8.140625 L 15.714844 20 L 17.855469 20 L 17.855469 9.070312 L 20 10 L 20 7.144531 L 13.570312 3.929688 C 13.570312 2.617188 13.570312 1.308594 13.570312 0 Z M 10 15.714844 C 10 15.714844 11.429688 15.714844 11.429688 17.144531 L 11.429688 18.570312 L 8.570312 18.570312 L 8.570312 17.144531 C 8.570312 15.714844 10 15.714844 10 15.714844 Z M 10 15.714844 "/>
</svg>
