<?xml version="1.0" encoding="UTF-8"?>
<svg xmlns="http://www.w3.org/2000/svg" xmlns:xlink="http://www.w3.org/1999/xlink" width="24" height="24" viewBox="0 0 24 24">
<path fill-rule="nonzero" fill="rgb(0%, 0%, 0%)" fill-opacity="1" d="M 20.800781 10.414062 L 20.800781 7.136719 L 17.601562 6.671875 L 17.601562 10.894531 Z M 12.800781 11.601562 L 12.800781 5.953125 L 9.601562 5.488281 L 9.601562 12.0625 Z M 4.910156 3.183594 L 23.3125 5.886719 C 23.710938 5.953125 24 6.289062 24 6.671875 L 24 10.878906 C 24 11.28125 23.710938 11.617188 23.3125 11.664062 L 4.910156 14.367188 C 4.480469 14.433594 4.078125 14.128906 4.015625 13.695312 C 4 13.648438 4 13.617188 4 13.566406 L 4 3.96875 C 4 3.535156 4.351562 3.167969 4.800781 3.167969 C 4.832031 3.167969 4.878906 3.167969 4.910156 3.183594 Z M 1.601562 1.601562 C 2.480469 1.601562 3.199219 2.320312 3.199219 3.199219 L 3.199219 22.398438 L 0 22.398438 L 0 3.199219 C 0 2.320312 0.71875 1.601562 1.601562 1.601562 Z M 1.601562 1.601562 "/>
</svg>
