<?xml version="1.0" encoding="UTF-8"?>
<svg xmlns="http://www.w3.org/2000/svg" xmlns:xlink="http://www.w3.org/1999/xlink" width="24" height="24" viewBox="0 0 24 24">
<path fill-rule="nonzero" fill="rgb(0%, 0%, 0%)" fill-opacity="1" d="M 14.574219 12 L 17.566406 22.992188 C 17.695312 23.40625 17.441406 23.855469 17.007812 23.96875 C 16.625 24.078125 16.238281 23.886719 16.078125 23.550781 L 16.03125 23.40625 L 15.3125 20.800781 L 12.800781 20.800781 L 12.800781 24 L 11.199219 24 L 11.199219 20.800781 L 8.6875 20.800781 L 7.96875 23.40625 C 7.855469 23.839844 7.40625 24.097656 6.992188 23.96875 C 6.609375 23.871094 6.367188 23.503906 6.398438 23.136719 L 6.433594 22.992188 L 9.425781 12 Z M 11.199219 12.800781 L 10.863281 12.800781 L 9.121094 19.199219 L 11.199219 19.199219 Z M 13.136719 12.800781 L 12.800781 12.800781 L 12.800781 19.199219 L 14.878906 19.199219 Z M 13.390625 0 C 13.566406 0 13.710938 0.144531 13.710938 0.320312 C 13.710938 0.367188 13.695312 0.398438 13.679688 0.449219 L 12.238281 3.9375 C 12.527344 3.96875 12.785156 4.078125 13.007812 4.257812 L 14.464844 0.769531 C 14.527344 0.609375 14.71875 0.527344 14.878906 0.59375 C 14.910156 0.609375 14.945312 0.625 14.976562 0.65625 L 16.945312 2.625 C 17.054688 2.734375 17.054688 2.945312 16.945312 3.070312 C 16.910156 3.105469 16.878906 3.121094 16.832031 3.136719 L 13.34375 4.59375 C 13.519531 4.800781 13.632812 5.070312 13.664062 5.359375 L 17.152344 3.921875 C 17.328125 3.855469 17.503906 3.9375 17.566406 4.097656 C 17.585938 4.128906 17.601562 4.175781 17.601562 4.207031 L 17.601562 6.992188 C 17.601562 7.167969 17.457031 7.3125 17.28125 7.3125 C 17.230469 7.3125 17.199219 7.296875 17.152344 7.28125 L 13.664062 5.839844 C 13.632812 6.128906 13.519531 6.398438 13.34375 6.609375 L 16.832031 8.0625 C 16.992188 8.128906 17.070312 8.320312 17.007812 8.480469 C 16.992188 8.511719 16.960938 8.542969 16.945312 8.574219 L 14.976562 10.542969 C 14.847656 10.65625 14.65625 10.65625 14.527344 10.542969 C 14.496094 10.511719 14.480469 10.480469 14.464844 10.433594 L 13.007812 6.945312 C 12.785156 7.121094 12.527344 7.230469 12.238281 7.265625 L 13.679688 10.753906 C 13.742188 10.929688 13.664062 11.105469 13.503906 11.167969 C 13.472656 11.183594 13.425781 11.199219 13.390625 11.199219 L 10.625 11.199219 C 10.433594 11.199219 10.304688 11.054688 10.304688 10.878906 C 10.304688 10.832031 10.304688 10.800781 10.320312 10.753906 L 11.761719 7.265625 C 11.472656 7.230469 11.199219 7.121094 10.992188 6.945312 L 9.535156 10.433594 C 9.472656 10.59375 9.28125 10.671875 9.121094 10.609375 C 9.089844 10.59375 9.054688 10.574219 9.023438 10.542969 L 7.054688 8.574219 C 6.945312 8.449219 6.945312 8.257812 7.054688 8.128906 C 7.089844 8.097656 7.121094 8.078125 7.167969 8.0625 L 10.65625 6.609375 C 10.480469 6.382812 10.367188 6.128906 10.335938 5.839844 L 6.847656 7.28125 C 6.671875 7.34375 6.496094 7.265625 6.433594 7.105469 C 6.414062 7.070312 6.398438 7.023438 6.398438 6.976562 L 6.398438 4.222656 C 6.398438 4.03125 6.542969 3.902344 6.71875 3.902344 C 6.769531 3.902344 6.800781 3.902344 6.847656 3.921875 L 10.335938 5.359375 C 10.367188 5.070312 10.480469 4.800781 10.65625 4.59375 L 7.167969 3.136719 C 7.007812 3.070312 6.929688 2.878906 6.992188 2.71875 C 7.007812 2.6875 7.023438 2.65625 7.054688 2.625 L 9.023438 0.65625 C 9.152344 0.542969 9.34375 0.542969 9.472656 0.65625 C 9.503906 0.6875 9.519531 0.71875 9.535156 0.769531 L 10.992188 4.257812 C 11.199219 4.078125 11.472656 3.96875 11.761719 3.9375 L 10.320312 0.449219 C 10.257812 0.273438 10.335938 0.0976562 10.496094 0.03125 C 10.527344 0.015625 10.574219 0 10.609375 0 Z M 0 3.199219 L 5.601562 4.800781 L 5.601562 6.398438 L 0 8 L 1.601562 5.601562 Z M 0 3.199219 "/>
</svg>
