<?xml version="1.0" encoding="UTF-8"?>
<svg xmlns="http://www.w3.org/2000/svg" xmlns:xlink="http://www.w3.org/1999/xlink" width="24" height="24" viewBox="0 0 24 24">
<path fill-rule="nonzero" fill="rgb(0%, 0%, 0%)" fill-opacity="1" d="M 12.800781 10 L 12.800781 23.199219 C 12.800781 23.761719 12.558594 24 12 24 C 11.457031 24 11.199219 23.761719 11.199219 23.199219 L 11.199219 12.800781 Z M 5.601562 0.800781 C 5.886719 1.230469 10.800781 7.199219 10.800781 7.199219 L 8 14 C 7.742188 14.625 8 15.96875 8.398438 15.601562 C 9.054688 14.992188 12.800781 8 12.800781 8 L 19.199219 6.078125 C 20.03125 5.855469 20.609375 4.800781 20 4.800781 C 19.121094 4.800781 12.558594 5.535156 12.558594 5.535156 L 7.199219 0.800781 C 6.59375 0.238281 5.28125 0.320312 5.601562 0.800781 Z M 5.601562 0.800781 "/>
</svg>
