<?xml version="1.0" encoding="UTF-8"?>
<svg xmlns="http://www.w3.org/2000/svg" xmlns:xlink="http://www.w3.org/1999/xlink" width="24" height="24" viewBox="0 0 24 24">
<path fill-rule="nonzero" fill="rgb(0%, 0%, 0%)" fill-opacity="1" d="M 12 10.175781 L 21.648438 4.992188 C 22.414062 4.574219 23.390625 4.863281 23.808594 5.648438 C 24.222656 6.414062 23.9375 7.390625 23.152344 7.808594 L 15.375 12 L 23.152344 16.191406 C 23.9375 16.609375 24.222656 17.585938 23.808594 18.351562 C 23.390625 19.136719 22.414062 19.425781 21.648438 19.007812 L 12 13.824219 L 2.351562 19.007812 C 1.585938 19.425781 0.609375 19.136719 0.191406 18.351562 C -0.222656 17.585938 0.0625 16.609375 0.847656 16.191406 L 8.625 12 L 0.847656 7.808594 C 0.0625 7.390625 -0.222656 6.414062 0.191406 5.648438 C 0.609375 4.863281 1.585938 4.574219 2.351562 4.992188 Z M 12 10.175781 "/>
</svg>
