<?xml version="1.0" encoding="UTF-8"?>
<svg xmlns="http://www.w3.org/2000/svg" xmlns:xlink="http://www.w3.org/1999/xlink" width="24" height="24" viewBox="0 0 24 24">
<path fill-rule="nonzero" fill="rgb(0%, 0%, 0%)" fill-opacity="1" d="M 22.046875 13.894531 L 21.992188 13.757812 C 21.832031 13.316406 21.628906 12.761719 21.105469 12.453125 C 20.746094 12.234375 20.324219 12.160156 19.949219 12.089844 C 19.757812 12.058594 19.578125 12.023438 19.421875 11.976562 L 19.285156 11.929688 L 19.265625 11.921875 C 17.773438 10.722656 14.753906 10.695312 12.875 9 C 10.175781 6.570312 8.011719 4.132812 5.578125 0.484375 L 2.535156 2.917969 C 2.324219 3.085938 1.921875 3.222656 1.921875 3.832031 C 1.921875 4.132812 2.226562 4.179688 2.59375 4.070312 L 4.304688 3.527344 L 9.113281 10.21875 L 9.113281 13.871094 C 9.113281 14.71875 9.101562 15.484375 9.816406 15.921875 L 8.011719 23.523438 L 9.230469 23.523438 L 10.371094 19.914062 L 11.515625 18.128906 L 11.515625 23.523438 L 12.957031 23.523438 L 12.957031 17.519531 C 12.957031 17.519531 12.9375 16.304688 14.15625 16.304688 L 15.355469 17.523438 L 15.355469 23.53125 L 16.316406 23.53125 L 16.316406 18.730469 L 18.964844 23.53125 L 20.183594 23.53125 C 19.574219 21.609375 18.71875 21.78125 18.71875 19.957031 L 18.71875 18.742188 C 18.71875 17.46875 20.160156 16.308594 20.160156 15.097656 L 20.160156 13.882812 C 20.160156 13.59375 20.121094 13.339844 20.058594 13.105469 C 20.269531 13.148438 20.46875 13.199219 20.617188 13.292969 C 20.847656 13.429688 20.972656 13.769531 21.097656 14.105469 L 21.152344 14.257812 C 21.25 14.503906 21.523438 14.625 21.773438 14.535156 C 22.023438 14.4375 22.148438 14.164062 22.050781 13.914062 Z M 22.046875 13.894531 "/>
</svg>
