<?xml version="1.0" encoding="UTF-8"?>
<svg xmlns="http://www.w3.org/2000/svg" xmlns:xlink="http://www.w3.org/1999/xlink" width="24" height="24" viewBox="0 0 24 24">
<path fill-rule="nonzero" fill="rgb(0%, 0%, 0%)" fill-opacity="1" d="M 18.398438 24 L 18.398438 3.199219 L 5.601562 3.199219 L 5.601562 24 L 2.398438 24 L 2.398438 0 L 21.601562 0 L 21.601562 24 Z M 9.601562 9.601562 L 9.984375 9.136719 C 10.222656 8.847656 10.640625 8.769531 10.976562 8.945312 L 15.152344 11.152344 C 15.183594 11.167969 15.230469 11.199219 15.265625 11.230469 C 15.617188 11.503906 15.664062 12.015625 15.390625 12.351562 L 14.398438 13.601562 L 16.816406 14.207031 C 17.246094 14.320312 17.519531 14.753906 17.40625 15.183594 L 16.273438 19.695312 C 16.238281 19.808594 16.191406 19.921875 16.113281 20 C 15.855469 20.257812 15.457031 20.257812 15.199219 20 C 14.703125 19.503906 14.511719 18.785156 14.671875 18.097656 L 15.199219 16 L 13.390625 16 C 13.519531 16.367188 13.601562 16.785156 13.601562 17.199219 C 13.601562 19.183594 11.984375 20.800781 10 20.800781 C 8.015625 20.800781 6.398438 19.183594 6.398438 17.199219 C 6.398438 15.214844 8.015625 13.601562 10 13.601562 C 10.207031 13.601562 10.414062 13.617188 10.609375 13.648438 L 12 11.601562 L 10.976562 11.089844 L 9.777344 12.574219 C 9.441406 12.992188 8.800781 13.054688 8.382812 12.71875 C 7.953125 12.367188 7.886719 11.742188 8.222656 11.3125 Z M 15.199219 10.398438 C 14.320312 10.398438 13.601562 9.679688 13.601562 8.800781 C 13.601562 7.921875 14.320312 7.199219 15.199219 7.199219 C 16.078125 7.199219 16.800781 7.921875 16.800781 8.800781 C 16.800781 9.679688 16.078125 10.398438 15.199219 10.398438 Z M 10 18.800781 C 10.878906 18.800781 11.601562 18.078125 11.601562 17.199219 C 11.601562 16.320312 10.878906 15.601562 10 15.601562 C 9.121094 15.601562 8.398438 16.320312 8.398438 17.199219 C 8.398438 18.078125 9.121094 18.800781 10 18.800781 Z M 10 18.800781 "/>
</svg>
