<?xml version="1.0" encoding="UTF-8"?>
<svg xmlns="http://www.w3.org/2000/svg" xmlns:xlink="http://www.w3.org/1999/xlink" width="24" height="24" viewBox="0 0 24 24">
<path fill-rule="nonzero" fill="rgb(0%, 0%, 0%)" fill-opacity="1" d="M 12 6.398438 C 12.878906 6.398438 13.601562 7.121094 13.601562 8 L 13.601562 22.398438 C 13.601562 22.398438 13.601562 24 12 24 C 10.398438 24 10.398438 22.398438 10.398438 22.398438 L 10.398438 8 C 10.398438 7.121094 11.121094 6.398438 12 6.398438 Z M 7.535156 4.046875 C 7.167969 4.097656 7.328125 4.03125 7.039062 4.238281 C 5.121094 6.144531 5.121094 9.855469 7.039062 11.761719 C 7.34375 12.078125 7.855469 12.078125 8.160156 11.761719 C 8.480469 11.457031 8.480469 10.945312 8.160156 10.640625 C 6.878906 9.34375 6.878906 6.65625 8.160156 5.359375 C 8.480469 5.054688 8.480469 4.542969 8.160156 4.238281 L 7.902344 4.0625 Z M 15.9375 4.046875 C 15.566406 4.097656 15.726562 4.03125 15.441406 4.238281 C 15.121094 4.542969 15.121094 5.054688 15.441406 5.359375 C 16.71875 6.65625 16.71875 9.34375 15.441406 10.640625 C 15.121094 10.945312 15.121094 11.457031 15.441406 11.761719 C 15.742188 12.078125 16.257812 12.078125 16.558594 11.761719 C 18.480469 9.855469 18.480469 6.144531 16.558594 4.238281 L 16.304688 4.0625 Z M 19.457031 0.847656 C 18.753906 0.878906 19.007812 0.753906 18.609375 1.070312 C 18.304688 1.40625 18.335938 1.902344 18.671875 2.191406 C 21.921875 5.089844 21.921875 10.929688 18.671875 13.808594 C 18.335938 14.097656 18.304688 14.609375 18.609375 14.929688 C 18.894531 15.265625 19.40625 15.296875 19.726562 14.992188 C 23.710938 11.488281 23.710938 4.527344 19.726562 1.007812 Z M 4.542969 0.847656 L 4.273438 1.007812 C 0.289062 4.527344 0.289062 11.488281 4.273438 14.992188 C 4.609375 15.296875 5.105469 15.265625 5.390625 14.929688 C 5.695312 14.609375 5.664062 14.097656 5.328125 13.808594 C 2.078125 10.929688 2.078125 5.089844 5.328125 2.191406 C 5.664062 1.902344 5.695312 1.40625 5.390625 1.070312 C 4.992188 0.753906 5.246094 0.878906 4.542969 0.847656 Z M 4.542969 0.847656 "/>
</svg>
