<?xml version="1.0" encoding="UTF-8"?>
<svg xmlns="http://www.w3.org/2000/svg" xmlns:xlink="http://www.w3.org/1999/xlink" width="24" height="24" viewBox="0 0 24 24">
<path fill-rule="nonzero" fill="rgb(0%, 0%, 0%)" fill-opacity="1" d="M 6.398438 0 L 17.601562 0 C 18.480469 0 19.199219 0.71875 19.199219 1.601562 L 19.199219 24 L 4.800781 24 L 4.800781 1.601562 C 4.800781 0.71875 5.519531 0 6.398438 0 Z M 6.398438 3.199219 L 6.398438 16 C 7.472656 17.070312 9.328125 17.601562 12 17.601562 C 14.671875 17.601562 16.527344 17.070312 17.601562 16 L 17.601562 3.199219 C 16.527344 2.128906 14.671875 1.601562 12 1.601562 C 9.328125 1.601562 7.472656 2.128906 6.398438 3.199219 Z M 8.800781 3.199219 L 10.398438 3.199219 C 10.847656 3.199219 11.199219 3.550781 11.199219 4 L 11.199219 5.601562 C 11.199219 6.046875 10.847656 6.398438 10.398438 6.398438 L 8.800781 6.398438 C 8.351562 6.398438 8 6.046875 8 5.601562 L 8 4 C 8 3.550781 8.351562 3.199219 8.800781 3.199219 Z M 13.601562 3.199219 L 15.199219 3.199219 C 15.648438 3.199219 16 3.550781 16 4 L 16 5.601562 C 16 6.046875 15.648438 6.398438 15.199219 6.398438 L 13.601562 6.398438 C 13.152344 6.398438 12.800781 6.046875 12.800781 5.601562 L 12.800781 4 C 12.800781 3.550781 13.152344 3.199219 13.601562 3.199219 Z M 13.601562 8 L 15.199219 8 C 15.648438 8 16 8.351562 16 8.800781 L 16 10.398438 C 16 10.847656 15.648438 11.199219 15.199219 11.199219 L 13.601562 11.199219 C 13.152344 11.199219 12.800781 10.847656 12.800781 10.398438 L 12.800781 8.800781 C 12.800781 8.351562 13.152344 8 13.601562 8 Z M 8.800781 8 L 10.398438 8 C 10.847656 8 11.199219 8.351562 11.199219 8.800781 L 11.199219 10.398438 C 11.199219 10.847656 10.847656 11.199219 10.398438 11.199219 L 8.800781 11.199219 C 8.351562 11.199219 8 10.847656 8 10.398438 L 8 8.800781 C 8 8.351562 8.351562 8 8.800781 8 Z M 8.800781 12.800781 L 10.398438 12.800781 C 10.847656 12.800781 11.199219 13.152344 11.199219 13.601562 L 11.199219 15.199219 C 11.199219 15.648438 10.847656 16 10.398438 16 L 8.800781 16 C 8.351562 16 8 15.648438 8 15.199219 L 8 13.601562 C 8 13.152344 8.351562 12.800781 8.800781 12.800781 Z M 13.601562 12.800781 L 15.199219 12.800781 C 15.648438 12.800781 16 13.152344 16 13.601562 L 16 15.199219 C 16 15.648438 15.648438 16 15.199219 16 L 13.601562 16 C 13.152344 16 12.800781 15.648438 12.800781 15.199219 L 12.800781 13.601562 C 12.800781 13.152344 13.152344 12.800781 13.601562 12.800781 Z M 13.601562 12.800781 "/>
</svg>
