<?xml version="1.0" encoding="UTF-8"?>
<svg xmlns="http://www.w3.org/2000/svg" xmlns:xlink="http://www.w3.org/1999/xlink" width="24" height="24" viewBox="0 0 24 24">
<path fill-rule="nonzero" fill="rgb(0%, 0%, 0%)" fill-opacity="1" d="M 9.054688 5.089844 C 10.128906 5.089844 10.992188 4.199219 10.992188 3.101562 C 10.992188 2.007812 10.128906 1.113281 9.054688 1.113281 C 7.988281 1.113281 7.113281 2 7.113281 3.101562 C 7.113281 4.195312 7.988281 5.089844 9.054688 5.089844 Z M 9.605469 5.761719 L 3.84375 5.761719 C 2.886719 5.761719 2.886719 7.199219 3.84375 7.199219 L 9.605469 7.199219 C 10.566406 7.199219 10.566406 5.761719 9.605469 5.761719 Z M 18.726562 6.359375 C 18.726562 4.15625 17.957031 2.054688 16.550781 0.398438 C 16.554688 0.394531 16.195312 0 16.195312 0 L 10.734375 5.59375 L 10.640625 5.683594 L 10.695312 5.753906 C 10.78125 5.910156 10.824219 6.078125 10.84375 6.25 C 10.847656 6.320312 10.84375 6.394531 10.832031 6.464844 C 10.824219 6.613281 10.796875 6.757812 10.734375 6.898438 L 10.726562 6.910156 L 10.695312 6.992188 L 10.660156 7.066406 C 10.421875 7.445312 10.007812 7.683594 9.507812 7.683594 L 6.246094 7.683594 L 6.246094 15.363281 L 5.195312 22.675781 C 5.078125 23.273438 5.539062 23.867188 6.125 23.980469 C 6.714844 24.105469 7.558594 23.65625 7.679688 23.042969 L 8.640625 14.886719 L 9.121094 14.886719 L 10.746094 23.105469 C 10.867188 23.71875 11.707031 24.105469 12.300781 23.984375 C 12.886719 23.871094 13.210938 23.285156 13.097656 22.679688 L 11.523438 14.875 L 11.523438 8.34375 L 16.003906 12.730469 C 16.003906 12.730469 16.460938 12.335938 16.460938 12.328125 C 17.855469 10.671875 18.726562 8.566406 18.726562 6.375 Z M 17.734375 7.199219 C 17.578125 8.640625 16.738281 10.382812 15.6875 11.65625 C 14.71875 10.660156 12.484375 8.792969 11.523438 7.570312 L 11.523438 7.199219 Z M 17.734375 5.761719 L 11.476562 5.761719 C 12.628906 4.320312 14.773438 2.386719 15.878906 1.261719 C 16.933594 2.535156 17.582031 3.84375 17.734375 5.765625 Z M 17.734375 5.761719 "/>
</svg>
