<?xml version="1.0" encoding="UTF-8"?>
<svg xmlns="http://www.w3.org/2000/svg" xmlns:xlink="http://www.w3.org/1999/xlink" width="24" height="24" viewBox="0 0 24 24">
<path fill-rule="nonzero" fill="rgb(0%, 0%, 0%)" fill-opacity="1" d="M 19.199219 3.199219 C 19.199219 3.199219 4.800781 3.199219 4.800781 3.199219 L 4.800781 19.199219 C 4.800781 20.078125 5.519531 20.800781 6.398438 20.800781 L 17.601562 20.800781 C 18.480469 20.800781 19.199219 20.078125 19.199219 19.199219 Z M 17.601562 8.800781 C 17.601562 11.007812 15.089844 12.800781 12 12.800781 C 8.910156 12.800781 6.398438 11.007812 6.398438 8.800781 C 6.398438 6.59375 8.910156 4.800781 12 4.800781 C 15.089844 4.800781 17.601562 6.59375 17.601562 8.800781 Z M 17.601562 16.800781 L 17.601562 19.199219 L 15.199219 19.199219 C 14.753906 19.199219 14.398438 18.847656 14.398438 18.398438 C 14.398438 17.953125 14.753906 17.601562 15.199219 17.601562 C 15.648438 17.601562 16 17.953125 16 18.398438 L 16.800781 17.601562 C 16.351562 17.601562 16 17.246094 16 16.800781 C 16 16.351562 16.351562 16 16.800781 16 C 17.246094 16 17.601562 16.351562 17.601562 16.800781 Z M 15.199219 8.800781 C 15.199219 8.289062 15.023438 7.953125 14.800781 7.710938 L 14.800781 9.886719 C 15.023438 9.648438 15.199219 9.3125 15.199219 8.800781 Z M 14.398438 7.390625 C 14.257812 7.3125 14.128906 7.296875 14 7.265625 L 14 10.335938 C 14.128906 10.304688 14.257812 10.289062 14.398438 10.207031 Z M 13.601562 7.199219 L 13.199219 7.199219 L 13.199219 10.398438 L 13.601562 10.398438 Z M 12.800781 7.199219 L 12.398438 7.199219 L 12.398438 10.398438 L 12.800781 10.398438 Z M 12 7.199219 L 11.601562 7.199219 L 11.601562 10.398438 L 12 10.398438 Z M 11.199219 7.199219 L 10.800781 6.800781 L 10.800781 10 L 11.199219 10.398438 Z M 10.398438 6.398438 C 10.398438 6.398438 10.238281 6.464844 10 6.558594 L 10 10.191406 L 10.398438 9.601562 Z M 9.601562 6.785156 C 9.457031 6.863281 9.34375 6.910156 9.199219 7.007812 L 9.199219 10.625 C 9.425781 10.734375 9.601562 10.800781 9.601562 10.800781 Z M 9.601562 18.398438 C 9.601562 18.847656 9.246094 19.199219 8.800781 19.199219 L 6.398438 19.199219 L 6.398438 16.800781 C 6.398438 16.351562 6.753906 16 7.199219 16 C 7.648438 16 8 16.351562 8 16.800781 C 8 17.246094 7.648438 17.601562 7.199219 17.601562 L 8 18.398438 C 8 17.953125 8.351562 17.601562 8.800781 17.601562 C 9.246094 17.601562 9.601562 17.953125 9.601562 18.398438 Z M 8.800781 7.3125 C 8.65625 7.441406 8.511719 7.566406 8.398438 7.726562 L 8.398438 10 C 8.527344 10.160156 8.65625 10.304688 8.800781 10.398438 Z M 8.800781 7.3125 "/>
<path fill-rule="nonzero" fill="rgb(0%, 0%, 0%)" fill-opacity="1" d="M 1.601562 0 L 1.601562 4.800781 L 3.199219 4.800781 L 3.199219 1.601562 L 20.800781 1.601562 L 20.800781 4.800781 L 22.398438 4.800781 L 22.398438 0 Z M 4.800781 21.601562 C 4.800781 23.28125 5.472656 24 6.398438 24 L 17.601562 24 C 18.449219 24 19.199219 23.28125 19.199219 21.601562 C 18.703125 22.03125 18.398438 22.382812 17.601562 22.351562 L 6.398438 22.449219 C 5.632812 22.414062 5.296875 22.097656 4.800781 21.601562 Z M 4.800781 21.601562 "/>
</svg>
