<?xml version="1.0" encoding="UTF-8"?>
<svg xmlns="http://www.w3.org/2000/svg" xmlns:xlink="http://www.w3.org/1999/xlink" width="24" height="24" viewBox="0 0 24 24">
<path fill-rule="nonzero" fill="rgb(0%, 0%, 0%)" fill-opacity="1" d="M 23.199219 17.601562 C 23.648438 17.601562 24 17.953125 24 18.398438 L 24 20 C 24 20.449219 23.648438 20.800781 23.199219 20.800781 L 22.398438 20.800781 L 22.398438 24 L 20.800781 24 L 20.800781 20.800781 L 3.199219 20.800781 L 3.199219 24 L 1.601562 24 L 1.601562 20.800781 L 0.800781 20.800781 C 0.351562 20.800781 0 20.449219 0 20 L 0 18.398438 C 0 17.953125 0.351562 17.601562 0.800781 17.601562 Z M 19.601562 5.601562 C 20.257812 5.601562 20.800781 6.144531 20.800781 6.800781 C 20.800781 7.457031 20.257812 8 19.601562 8 L 14.398438 8 L 14.398438 10.609375 L 15.34375 13.457031 L 17.183594 14.0625 C 17.761719 14.257812 18.097656 14.847656 17.984375 15.425781 L 17.9375 15.585938 C 17.742188 16.160156 17.152344 16.496094 16.574219 16.382812 L 16.414062 16.335938 L 14.015625 15.535156 C 13.710938 15.441406 13.457031 15.214844 13.328125 14.929688 L 13.265625 14.785156 L 12.558594 12.65625 L 10.800781 13.535156 L 10.800781 16 C 10.800781 16.609375 10.351562 17.105469 9.761719 17.183594 L 9.601562 17.199219 C 8.992188 17.199219 8.496094 16.753906 8.414062 16.160156 L 8.398438 16 L 8.398438 12.800781 C 8.398438 12.398438 8.59375 12.03125 8.910156 11.808594 L 9.054688 11.726562 L 11.199219 10.65625 L 11.199219 8 L 6 8 C 5.34375 8 4.800781 7.457031 4.800781 6.800781 C 4.800781 6.144531 5.34375 5.601562 6 5.601562 Z M 12.800781 0 C 14.128906 0 15.199219 1.070312 15.199219 2.398438 C 15.199219 3.726562 14.128906 4.800781 12.800781 4.800781 C 11.472656 4.800781 10.398438 3.726562 10.398438 2.398438 C 10.398438 1.070312 11.472656 0 12.800781 0 Z M 12.800781 0 "/>
</svg>
