<?xml version="1.0" encoding="UTF-8"?>
<svg xmlns="http://www.w3.org/2000/svg" xmlns:xlink="http://www.w3.org/1999/xlink" width="24" height="24" viewBox="0 0 24 24">
<path fill-rule="nonzero" fill="rgb(0%, 0%, 0%)" fill-opacity="1" d="M 12 0 C 16.800781 0 20 4 20 9.601562 C 20 16 12.800781 20.800781 12.800781 20.800781 C 12.800781 20.800781 13.601562 22.398438 13.601562 23.199219 C 13.601562 24 10.398438 24 10.398438 23.199219 C 10.398438 22.398438 11.199219 20.800781 11.199219 20.800781 C 11.199219 20.800781 4 16 4 9.601562 C 4 4 7.199219 0 12 0 Z M 12 1.601562 C 7.199219 1.601562 4.800781 7.199219 5.601562 10.398438 C 6.398438 7.199219 8.800781 3.199219 12 1.601562 Z M 12 1.601562 "/>
</svg>
