<?xml version="1.0" encoding="UTF-8"?>
<svg xmlns="http://www.w3.org/2000/svg" xmlns:xlink="http://www.w3.org/1999/xlink" width="24" height="24" viewBox="0 0 24 24">
<path fill-rule="nonzero" fill="rgb(0%, 0%, 0%)" fill-opacity="1" d="M 24 4.800781 C 24 4.800781 24 20.800781 24 20.800781 L 0.078125 20.800781 C 2.398438 20 5.601562 20 7.199219 18.398438 C 5.601562 18.398438 4.800781 16.800781 4 16.800781 C 3.199219 16.800781 2.398438 18.398438 0.800781 18.398438 C 0.800781 18.398438 0.800781 16 0.800781 16 C 1.601562 16 2.398438 14.398438 4 14.398438 C 5.601562 14.398438 6.398438 16 7.199219 16 C 8 16 8.800781 14.398438 10.398438 14.398438 C 11.199219 14.398438 11.199219 14.398438 11.199219 14.398438 L 12.800781 12.800781 C 12.800781 13.601562 11.199219 12 10.398438 12 C 9.601562 12 8.800781 13.601562 7.199219 13.601562 C 5.601562 13.601562 4.800781 12 4 12 C 3.199219 12 2.398438 13.601562 0.800781 13.601562 C 0.800781 13.601562 0.800781 11.199219 0.816406 11.230469 C 1.601562 11.199219 2.398438 9.601562 4 9.601562 C 5.601562 9.601562 6.398438 11.199219 7.199219 11.199219 C 8 11.199219 8.800781 9.601562 10.398438 9.601562 C 12 9.601562 13.601562 11.199219 14.398438 11.199219 C 16 9.601562 20.800781 4.800781 24 4.800781 Z M 24 4.800781 "/>
</svg>
