<?xml version="1.0" encoding="UTF-8"?>
<svg xmlns="http://www.w3.org/2000/svg" xmlns:xlink="http://www.w3.org/1999/xlink" width="24" height="24" viewBox="0 0 24 24">
<path fill-rule="nonzero" fill="rgb(0%, 0%, 0%)" fill-opacity="1" d="M 18.398438 3.199219 C 18.398438 3.199219 15.199219 3.199219 15.199219 3.199219 C 14.398438 3.199219 14.398438 4.800781 15.199219 4.800781 C 15.199219 4.800781 18.398438 4.800781 18.398438 4.800781 C 19.199219 4.800781 19.199219 6.398438 18.398438 6.398438 C 18.398438 6.398438 15.199219 6.398438 15.199219 6.398438 C 14.398438 6.398438 14.398438 8 15.199219 8 C 15.199219 8 18.398438 8 18.398438 8 C 19.199219 8 19.199219 9.601562 18.398438 9.601562 C 18.398438 9.601562 15.199219 9.601562 15.199219 9.601562 C 14.398438 9.601562 14.398438 11.199219 15.199219 11.199219 C 15.199219 11.199219 18.398438 11.199219 18.398438 11.199219 C 19.199219 11.199219 19.199219 12.800781 18.398438 12.800781 C 18.398438 12.800781 15.199219 12.800781 15.199219 12.800781 C 14.398438 12.800781 14.398438 14.398438 15.199219 14.398438 C 15.199219 14.398438 18.398438 14.398438 18.398438 14.398438 C 19.199219 14.398438 19.199219 16 18.398438 16 C 18.398438 16 15.199219 16 15.199219 16 C 14.398438 16 14.398438 17.601562 15.199219 17.601562 C 15.199219 17.601562 18.398438 17.601562 18.398438 17.601562 C 19.199219 17.601562 19.199219 19.199219 18.398438 19.199219 C 18.398438 19.199219 15.199219 19.199219 15.199219 19.199219 C 14.398438 19.199219 14.398438 20.800781 15.199219 20.800781 C 15.199219 20.800781 18.398438 20.800781 18.398438 20.800781 C 19.199219 20.800781 19.199219 22.398438 18.398438 22.398438 C 18.398438 22.398438 15.199219 22.398438 15.199219 22.398438 C 14.398438 22.398438 14.398438 24 15.199219 24 C 15.199219 24 21.601562 24 21.601562 24 C 22.398438 24 22.398438 22.398438 22.398438 22.398438 L 22.398438 1.601562 C 22.398438 1.601562 22.398438 0 21.601562 0 L 15.199219 0 C 14.398438 0 14.398438 1.601562 15.199219 1.601562 C 15.199219 1.601562 18.398438 1.601562 18.398438 1.601562 C 19.199219 1.601562 19.199219 3.199219 18.398438 3.199219 Z M 18.398438 3.199219 "/>
<path fill-rule="nonzero" fill="rgb(0%, 0%, 0%)" fill-opacity="1" d="M 9.441406 16.273438 C 11.199219 15.199219 12.800781 16.847656 12.800781 18.398438 C 12.800781 19.375 12.398438 20.222656 11.550781 20.609375 C 11.34375 21.664062 11.601562 21.953125 11.855469 22.449219 C 12.113281 22.960938 11.472656 23.601562 10.929688 23.105469 C 10.464844 22.671875 10.222656 21.601562 10.238281 20.847656 C 9.054688 20.785156 8 19.777344 8 18.398438 C 8 18.398438 7.601562 12 7.601562 12 C 7.601562 12 6.800781 12 6.800781 12 C 6.800781 12 6.398438 18.398438 6.398438 18.398438 C 6.398438 19.632812 5.425781 20.800781 4 20.800781 C 2.59375 20.800781 1.601562 19.761719 1.601562 18.398438 C 1.601562 16.878906 3.199219 15.199219 5.070312 16.273438 C 5.199219 16.398438 6.398438 0 7.199219 0 C 8 0 9.441406 16.273438 9.441406 16.273438 Z M 4 17.199219 C 3.199219 17.199219 2.800781 17.601562 2.800781 18.398438 C 2.800781 19.199219 3.199219 19.601562 4 19.601562 C 4.800781 19.601562 5.199219 18.800781 5.199219 18.398438 C 5.199219 17.601562 4.800781 17.199219 4 17.199219 Z M 10.398438 17.199219 C 9.601562 17.199219 9.199219 17.601562 9.199219 18.398438 C 9.199219 18.800781 9.601562 19.601562 10.398438 19.601562 C 11.199219 19.601562 11.601562 19.199219 11.601562 18.398438 C 11.601562 17.601562 11.199219 17.199219 10.398438 17.199219 Z M 10.398438 17.199219 "/>
</svg>
