<?xml version="1.0" encoding="UTF-8"?>
<svg xmlns="http://www.w3.org/2000/svg" xmlns:xlink="http://www.w3.org/1999/xlink" width="24" height="24" viewBox="0 0 24 24">
<path fill-rule="nonzero" fill="rgb(0%, 0%, 0%)" fill-opacity="1" d="M 12 24 C 5.375 24 0 18.625 0 12 C 0 5.375 5.375 0 12 0 C 18.625 0 24 5.375 24 12 C 24 18.625 18.625 24 12 24 Z M 12 22.398438 C 17.742188 22.398438 22.398438 17.742188 22.398438 12 C 22.398438 6.257812 17.742188 1.601562 12 1.601562 C 6.257812 1.601562 1.601562 6.257812 1.601562 12 C 1.601562 17.742188 6.257812 22.398438 12 22.398438 Z M 12 20.800781 C 7.136719 20.800781 3.199219 16.863281 3.199219 12 C 3.199219 7.136719 7.136719 3.199219 12 3.199219 C 16.863281 3.199219 20.800781 7.136719 20.800781 12 C 20.800781 16.863281 16.863281 20.800781 12 20.800781 Z M 8.304688 14.398438 L 12 7.710938 L 15.695312 14.398438 Z M 12 4.398438 L 5.601562 16 L 18.398438 16 Z M 12 10.800781 C 11.34375 10.800781 10.800781 11.34375 10.800781 12 C 10.800781 12.65625 11.34375 13.199219 12 13.199219 C 12.65625 13.199219 13.199219 12.65625 13.199219 12 C 13.199219 11.34375 12.65625 10.800781 12 10.800781 Z M 12 10.800781 "/>
</svg>
