<?xml version="1.0" encoding="UTF-8"?>
<svg xmlns="http://www.w3.org/2000/svg" xmlns:xlink="http://www.w3.org/1999/xlink" width="24" height="24" viewBox="0 0 24 24">
<path fill-rule="nonzero" fill="rgb(0%, 0%, 0%)" fill-opacity="1" d="M 21.601562 4.800781 L 21.601562 9.601562 L 23.199219 9.601562 L 23.199219 14 L 24 14 L 24 16.398438 L 23.199219 16.398438 L 23.199219 20.800781 L 21.601562 20.800781 L 21.601562 16.398438 L 20 16.398438 L 20 18.398438 L 18.398438 18.398438 L 18.398438 16.398438 L 5.601562 16.398438 L 5.601562 18.398438 L 4 18.398438 L 4 16.398438 L 2.398438 16.398438 L 2.398438 20.800781 L 0.800781 20.800781 L 0.800781 16.398438 L 0 16.398438 L 0 14 L 0.800781 14 L 0.800781 9.601562 L 2.398438 9.601562 L 2.398438 4.800781 Z M 21.601562 11.199219 L 21.601562 12.800781 L 20 12.800781 L 20 14 L 21.601562 14 Z M 18.398438 12.800781 L 5.601562 12.800781 L 5.601562 14 L 18.398438 14 Z M 2.398438 11.199219 L 2.398438 14 L 4 14 L 4 12.800781 L 2.398438 12.800781 Z M 2.398438 11.199219 "/>
</svg>
