<?xml version="1.0" encoding="UTF-8"?>
<svg xmlns="http://www.w3.org/2000/svg" xmlns:xlink="http://www.w3.org/1999/xlink" width="24" height="24" viewBox="0 0 24 24">
<path fill-rule="nonzero" fill="rgb(0%, 0%, 0%)" fill-opacity="1" d="M 13.601562 5.601562 L 15.199219 5.601562 C 15.648438 5.601562 16 5.953125 16 6.398438 L 16 9.265625 L 17.167969 10.433594 C 19.199219 10.625 20.800781 12.320312 20.800781 14.398438 C 20.800781 16.59375 18.992188 18.398438 16.800781 18.398438 C 14.609375 18.398438 12.800781 16.59375 12.800781 14.398438 C 12.800781 12.769531 13.792969 11.359375 15.199219 10.734375 L 14.558594 10.078125 L 10.609375 12.335938 C 10.976562 12.945312 11.199219 13.648438 11.199219 14.398438 C 11.199219 16.59375 9.390625 18.398438 7.199219 18.398438 C 5.007812 18.398438 3.199219 16.59375 3.199219 14.398438 C 3.199219 12.207031 5.007812 10.398438 7.199219 10.398438 C 7.519531 10.398438 7.839844 10.449219 8.144531 10.527344 L 7.457031 8.800781 L 7.089844 8.800781 C 6 8.816406 6 7.183594 7.089844 7.199219 L 10.320312 7.199219 C 11.40625 7.183594 11.40625 8.816406 10.320312 8.800781 L 9.183594 8.800781 L 10 10.847656 L 14.398438 8.335938 L 14.398438 7.199219 L 13.601562 7.199219 C 12.511719 7.214844 12.511719 5.585938 13.601562 5.601562 Z M 7.199219 12 C 5.871094 12 4.800781 13.070312 4.800781 14.398438 C 4.800781 15.726562 5.871094 16.800781 7.199219 16.800781 C 8.527344 16.800781 9.601562 15.726562 9.601562 14.398438 C 9.601562 13.070312 8.527344 12 7.199219 12 Z M 16.800781 12 C 15.472656 12 14.398438 13.070312 14.398438 14.398438 C 14.398438 15.726562 15.472656 16.800781 16.800781 16.800781 C 18.128906 16.800781 19.199219 15.726562 19.199219 14.398438 C 19.199219 13.070312 18.128906 12 16.800781 12 Z M 18.398438 20.800781 L 17.601562 19.199219 L 20.800781 19.199219 L 22.398438 22.398438 L 1.601562 22.398438 L 3.199219 19.199219 L 6.398438 19.199219 L 5.601562 20.800781 Z M 18.398438 3.199219 L 5.601562 3.199219 L 6.398438 4.800781 L 3.199219 4.800781 L 1.601562 1.601562 L 22.398438 1.601562 L 20.800781 4.800781 L 17.601562 4.800781 Z M 18.398438 3.199219 "/>
</svg>
