<?xml version="1.0" encoding="UTF-8"?>
<svg xmlns="http://www.w3.org/2000/svg" xmlns:xlink="http://www.w3.org/1999/xlink" width="24" height="24" viewBox="0 0 24 24">
<path fill-rule="nonzero" fill="rgb(0%, 0%, 0%)" fill-opacity="1" d="M 13.601562 9.601562 C 12.511719 9.585938 12.511719 11.214844 13.601562 11.199219 L 14.398438 11.199219 L 14.398438 12.335938 L 10 14.847656 L 9.183594 12.800781 L 10.320312 12.800781 C 11.40625 12.816406 11.40625 11.183594 10.320312 11.199219 L 7.089844 11.199219 C 6 11.183594 6 12.816406 7.089844 12.800781 L 7.457031 12.800781 L 8.144531 14.527344 C 7.839844 14.449219 7.519531 14.398438 7.199219 14.398438 C 5.007812 14.398438 3.199219 16.207031 3.199219 18.398438 C 3.199219 20.59375 5.007812 22.398438 7.199219 22.398438 C 9.390625 22.398438 11.199219 20.59375 11.199219 18.398438 C 11.199219 17.648438 10.976562 16.945312 10.609375 16.335938 L 14.558594 14.078125 L 15.199219 14.734375 C 13.792969 15.359375 12.800781 16.769531 12.800781 18.398438 C 12.800781 20.59375 14.609375 22.398438 16.800781 22.398438 C 18.992188 22.398438 20.800781 20.59375 20.800781 18.398438 C 20.800781 16.320312 19.199219 14.625 17.167969 14.433594 L 16 13.265625 L 16 10.398438 C 16 9.953125 15.648438 9.601562 15.199219 9.601562 Z M 7.199219 16 C 8.527344 16 9.601562 17.070312 9.601562 18.398438 C 9.601562 19.726562 8.527344 20.800781 7.199219 20.800781 C 5.871094 20.800781 4.800781 19.726562 4.800781 18.398438 C 4.800781 17.070312 5.871094 16 7.199219 16 Z M 16.800781 16 C 18.128906 16 19.199219 17.070312 19.199219 18.398438 C 19.199219 19.726562 18.128906 20.800781 16.800781 20.800781 C 15.472656 20.800781 14.398438 19.726562 14.398438 18.398438 C 14.398438 17.070312 15.472656 16 16.800781 16 Z M 16.800781 16 "/>
<path fill-rule="nonzero" fill="rgb(0%, 0%, 0%)" fill-opacity="1" d="M 19.199219 3.199219 L 9.265625 3.199219 C 8.640625 1.792969 7.230469 0.800781 5.601562 0.800781 C 3.96875 0.800781 2.558594 1.792969 1.9375 3.199219 L 5.601562 3.199219 L 6.398438 4.800781 L 5.601562 6.398438 L 1.9375 6.398438 C 2.558594 7.808594 3.96875 8.800781 5.601562 8.800781 C 7.230469 8.800781 8.640625 7.808594 9.265625 6.398438 L 19.199219 6.398438 C 20.078125 6.398438 20.800781 5.679688 20.800781 4.800781 C 20.800781 3.921875 20.078125 3.199219 19.199219 3.199219 Z M 19.199219 3.199219 "/>
</svg>
