<?xml version="1.0" encoding="UTF-8"?>
<svg xmlns="http://www.w3.org/2000/svg" xmlns:xlink="http://www.w3.org/1999/xlink" width="24" height="24" viewBox="0 0 24 24">
<path fill-rule="nonzero" fill="rgb(0%, 0%, 0%)" fill-opacity="1" d="M 9.601562 0.800781 C 8 0.800781 6.398438 1.601562 6.398438 2.398438 C 6.398438 2.398438 17.601562 2.398438 17.601562 2.398438 C 17.601562 1.601562 16 0.800781 14.398438 0.800781 C 14.398438 0.800781 9.601562 0.800781 9.601562 0.800781 Z M 9.601562 0.800781 "/>
<path fill-rule="nonzero" fill="rgb(0%, 0%, 0%)" fill-opacity="1" d="M 11.199219 4 C 11.199219 3.199219 12.800781 3.199219 12.800781 4 C 12.800781 4.800781 12.800781 4 12.800781 4.800781 C 12.800781 5.601562 11.199219 5.601562 11.199219 4.800781 M 11.199219 7.808594 C 11.199219 8.609375 12.800781 8.609375 12.800781 7.808594 C 12.800781 7.007812 12.800781 7.808594 12.800781 7.007812 C 12.800781 6.207031 11.199219 6.207031 11.199219 7.007812 M 15.953125 4.382812 C 16.160156 5.152344 14.625 5.566406 14.398438 4.800781 C 14.191406 4.03125 14.398438 4.800781 14.191406 4.03125 C 13.984375 3.246094 15.535156 2.832031 15.742188 3.601562 M 16.71875 7.183594 C 16.929688 7.953125 15.390625 8.367188 15.183594 7.601562 C 14.976562 6.816406 15.183594 7.601562 14.976562 6.816406 C 14.769531 6.046875 16.304688 5.632812 16.511719 6.398438 M 8.097656 4.382812 C 7.886719 5.152344 9.441406 5.566406 9.648438 4.800781 C 9.855469 4.03125 9.648438 4.800781 9.855469 4.03125 C 10.0625 3.265625 8.527344 2.832031 8.320312 3.617188 M 7.328125 7.183594 C 7.121094 7.953125 8.671875 8.367188 8.878906 7.601562 C 9.089844 6.832031 8.878906 7.601562 9.089844 6.832031 C 9.296875 6.0625 7.742188 5.632812 7.535156 6.398438 "/>
<path fill-rule="nonzero" fill="rgb(0%, 0%, 0%)" fill-opacity="1" d="M 13.601562 9.601562 C 12.511719 9.585938 12.511719 11.214844 13.601562 11.199219 L 14.398438 11.199219 L 14.398438 12.335938 L 10 14.847656 L 9.183594 12.800781 L 10.320312 12.800781 C 11.40625 12.816406 11.40625 11.183594 10.320312 11.199219 L 7.089844 11.199219 C 6 11.183594 6 12.816406 7.089844 12.800781 L 7.457031 12.800781 L 8.144531 14.527344 C 7.839844 14.449219 7.519531 14.398438 7.199219 14.398438 C 5.007812 14.398438 3.199219 16.207031 3.199219 18.398438 C 3.199219 20.59375 5.007812 22.398438 7.199219 22.398438 C 9.390625 22.398438 11.199219 20.59375 11.199219 18.398438 C 11.199219 17.648438 10.976562 16.945312 10.609375 16.335938 L 14.558594 14.078125 L 15.199219 14.734375 C 13.792969 15.359375 12.800781 16.769531 12.800781 18.398438 C 12.800781 20.59375 14.609375 22.398438 16.800781 22.398438 C 18.992188 22.398438 20.800781 20.59375 20.800781 18.398438 C 20.800781 16.320312 19.199219 14.625 17.167969 14.433594 L 16 13.265625 L 16 10.398438 C 16 9.953125 15.648438 9.601562 15.199219 9.601562 Z M 7.199219 16 C 8.527344 16 9.601562 17.070312 9.601562 18.398438 C 9.601562 19.726562 8.527344 20.800781 7.199219 20.800781 C 5.871094 20.800781 4.800781 19.726562 4.800781 18.398438 C 4.800781 17.070312 5.871094 16 7.199219 16 Z M 16.800781 16 C 18.128906 16 19.199219 17.070312 19.199219 18.398438 C 19.199219 19.726562 18.128906 20.800781 16.800781 20.800781 C 15.472656 20.800781 14.398438 19.726562 14.398438 18.398438 C 14.398438 17.070312 15.472656 16 16.800781 16 Z M 16.800781 16 "/>
</svg>
