<?xml version="1.0" encoding="UTF-8"?>
<svg xmlns="http://www.w3.org/2000/svg" xmlns:xlink="http://www.w3.org/1999/xlink" width="24" height="24" viewBox="0 0 24 24">
<path fill-rule="nonzero" fill="rgb(0%, 0%, 0%)" fill-opacity="1" d="M 22.398438 15.199219 L 22.398438 17.601562 L 20.046875 18.785156 C 17.617188 20 15.359375 21.566406 13.390625 23.425781 L 12.800781 24 L 11.199219 24 C 9.089844 21.886719 6.640625 20.113281 3.953125 18.785156 L 1.601562 17.601562 L 1.601562 15.199219 C 5.601562 16.273438 9.070312 16.800781 12 16.800781 C 14.929688 16.800781 18.398438 16.273438 22.398438 15.199219 Z M 11.199219 6.398438 C 9.953125 8.527344 8.097656 9.601562 5.601562 9.601562 C 1.871094 9.601562 0 6.71875 0 4.800781 C 0 3.519531 0.625 1.921875 1.871094 0 C 5.40625 0 8.734375 1.632812 10.910156 4.414062 L 11.199219 4.800781 L 12.800781 4.800781 L 13.089844 4.414062 C 15.265625 1.632812 18.59375 0 22.128906 0 C 23.375 1.921875 24 3.519531 24 4.800781 C 24 6.71875 22.128906 9.601562 18.398438 9.601562 C 16.046875 9.601562 14.238281 8.640625 13.007812 6.71875 L 12.800781 6.398438 Z M 11.199219 6.398438 "/>
</svg>
