<?xml version="1.0" encoding="UTF-8"?>
<svg xmlns="http://www.w3.org/2000/svg" xmlns:xlink="http://www.w3.org/1999/xlink" width="24" height="24" viewBox="0 0 24 24">
<path fill-rule="nonzero" fill="rgb(0%, 0%, 0%)" fill-opacity="1" d="M 17.601562 4 C 19.199219 6.398438 19.199219 6.398438 20 8.542969 C 20.800781 10.398438 20.800781 16.800781 20.800781 16.800781 C 20.800781 17.601562 14.398438 17.601562 14.398438 16.800781 C 14.398438 15.199219 14.398438 15.199219 14.398438 15.199219 C 14.398438 14.398438 13.601562 13.601562 13.601562 12.800781 L 13.601562 12 L 10.398438 12 L 10.398438 12.800781 C 10.398438 13.601562 9.601562 14.398438 9.601562 15.199219 L 9.601562 16.800781 C 9.601562 17.601562 3.199219 17.601562 3.199219 16.800781 C 3.199219 16.800781 3.199219 10.398438 4 8.542969 C 4.800781 6.398438 4.800781 6.398438 6.398438 4 C 6.398438 3.199219 9.601562 3.199219 9.601562 4 L 9.601562 5.601562 L 14.398438 5.601562 C 14.398438 5.601562 14.398438 4.800781 14.398438 4 C 14.398438 3.199219 17.601562 3.199219 17.601562 4 Z M 4 18.398438 C 1.601562 18.398438 1.601562 22.398438 4 22.398438 C 4 22.398438 8.800781 22.398438 8.800781 22.398438 C 11.199219 22.398438 11.199219 18.398438 8.800781 18.398438 C 8.800781 18.398438 4 18.398438 4 18.398438 Z M 15.199219 18.398438 C 12.800781 18.398438 12.800781 22.398438 15.199219 22.398438 C 15.199219 22.398438 20 22.398438 20 22.398438 C 22.398438 22.398438 22.398438 18.398438 20 18.398438 C 20 18.398438 15.199219 18.398438 15.199219 18.398438 Z M 7.199219 1.601562 C 6 1.601562 6 3.199219 7.199219 3.199219 L 8.800781 3.199219 C 10 3.199219 10 1.601562 8.800781 1.601562 C 8.800781 1.601562 7.199219 1.601562 7.199219 1.601562 Z M 15.199219 1.601562 C 14 1.601562 14 3.199219 15.199219 3.199219 C 15.199219 3.199219 16.800781 3.199219 16.800781 3.199219 C 18 3.199219 18 1.601562 16.800781 1.601562 C 16.800781 1.601562 15.199219 1.601562 15.199219 1.601562 Z M 15.199219 1.601562 "/>
</svg>
