<?xml version="1.0" encoding="UTF-8"?>
<svg xmlns="http://www.w3.org/2000/svg" xmlns:xlink="http://www.w3.org/1999/xlink" width="24" height="24" viewBox="0 0 24 24">
<path fill-rule="nonzero" fill="rgb(0%, 0%, 0%)" fill-opacity="1" d="M 16 1.601562 L 16 3.199219 L 20.800781 3.199219 C 22.558594 3.199219 24 4.640625 24 6.398438 L 24 19.199219 C 24 20.800781 22.398438 20.800781 22.398438 20.800781 L 22.398438 22.398438 C 22.398438 22.398438 22.398438 24 20.800781 24 C 19.199219 24 19.199219 22.398438 19.199219 22.398438 L 19.199219 20.800781 L 11.199219 20.800781 L 11.199219 22.398438 C 11.199219 22.398438 11.199219 24 9.601562 24 C 8 24 8 22.398438 8 22.398438 L 8 20.800781 C 6.398438 20.800781 6.398438 19.199219 6.398438 19.199219 L 6.398438 6.398438 C 6.398438 4.640625 7.839844 3.199219 9.601562 3.199219 L 14.398438 3.199219 L 14.398438 1.601562 L 10.398438 1.601562 C 9.953125 1.601562 9.601562 1.246094 9.601562 0.800781 C 9.601562 0.351562 9.953125 0 10.398438 0 L 20 0 C 20.449219 0 20.800781 0.351562 20.800781 0.800781 C 20.800781 1.246094 20.449219 1.601562 20 1.601562 Z M 8.800781 8 C 8.351562 8 8 8.351562 8 8.800781 L 8 13.601562 C 8 14.046875 8.351562 14.398438 8.800781 14.398438 L 21.601562 14.398438 C 22.046875 14.398438 22.398438 14.046875 22.398438 13.601562 L 22.398438 8.800781 C 22.398438 8.351562 22.046875 8 21.601562 8 Z M 9.601562 16 C 8.71875 16 8 16.71875 8 17.601562 C 8 18.480469 8.71875 19.199219 9.601562 19.199219 C 10.480469 19.199219 11.199219 18.480469 11.199219 17.601562 C 11.199219 16.71875 10.480469 16 9.601562 16 Z M 20.800781 16 C 19.921875 16 19.199219 16.71875 19.199219 17.601562 C 19.199219 18.480469 19.921875 19.199219 20.800781 19.199219 C 21.679688 19.199219 22.398438 18.480469 22.398438 17.601562 C 22.398438 16.71875 21.679688 16 20.800781 16 Z M 9.601562 5.601562 C 9.601562 6.046875 9.953125 6.398438 10.398438 6.398438 L 20 6.398438 C 20.449219 6.398438 20.800781 6.046875 20.800781 5.601562 C 20.800781 5.152344 20.449219 4.800781 20 4.800781 L 10.398438 4.800781 C 9.953125 4.800781 9.601562 5.152344 9.601562 5.601562 Z M 2.398438 18.992188 L 2.398438 20.800781 L 2.351562 21.054688 L 1.550781 23.457031 C 1.425781 23.871094 0.960938 24.097656 0.542969 23.953125 C 0.128906 23.824219 -0.0976562 23.359375 0.046875 22.945312 L 0.800781 20.671875 L 0.800781 18.992188 C 0.320312 18.703125 0 18.191406 0 17.601562 L 0 14.800781 C 0 13.921875 0.71875 13.199219 1.601562 13.199219 C 1.9375 13.199219 2.238281 13.296875 2.511719 13.488281 L 3.855469 14.207031 L 5.039062 13.039062 C 5.34375 12.71875 5.855469 12.71875 6.160156 13.039062 C 6.480469 13.34375 6.480469 13.855469 6.160156 14.160156 L 4.558594 15.761719 C 4.320312 16.015625 3.9375 16.078125 3.617188 15.902344 L 3.199219 15.679688 L 3.199219 17.503906 L 5.152344 18.480469 C 5.425781 18.625 5.601562 18.894531 5.601562 19.199219 L 5.601562 21.601562 C 5.601562 22.046875 5.246094 22.398438 4.800781 22.398438 C 4.351562 22.398438 4 22.046875 4 21.601562 L 4 19.695312 L 2.480469 18.929688 C 2.449219 18.960938 2.433594 18.976562 2.398438 18.992188 Z M 1.601562 12.800781 C 0.71875 12.800781 0 12.078125 0 11.199219 C 0 10.320312 0.71875 9.601562 1.601562 9.601562 C 2.480469 9.601562 3.199219 10.320312 3.199219 11.199219 C 3.199219 12.078125 2.480469 12.800781 1.601562 12.800781 Z M 1.601562 12.800781 "/>
</svg>
