<?xml version="1.0" encoding="UTF-8"?>
<svg xmlns="http://www.w3.org/2000/svg" xmlns:xlink="http://www.w3.org/1999/xlink" width="24" height="24" viewBox="0 0 24 24">
<path fill-rule="nonzero" fill="rgb(0%, 0%, 0%)" fill-opacity="1" d="M 12.398438 20 L 12 20.800781 L 18.398438 20.800781 L 18 20 L 20.398438 20 L 22.398438 24 L 20 24 L 19.199219 22.398438 L 11.199219 22.398438 L 10.398438 24 L 8 24 L 10 20 Z M 22.511719 13.519531 C 19.886719 17.3125 17.441406 19.199219 15.199219 19.199219 C 12.960938 19.199219 10.511719 17.3125 7.886719 13.519531 C 6.992188 12.222656 6.785156 10.542969 7.359375 9.054688 C 7.792969 7.953125 8 7.070312 8 6.398438 C 8 4.800781 10.160156 0 15.199219 0 C 21.007812 0 22.398438 4.800781 22.398438 6.398438 C 22.398438 7.070312 22.609375 7.953125 23.039062 9.054688 C 23.617188 10.542969 23.40625 12.222656 22.511719 13.519531 Z M 11.265625 4.414062 L 12.527344 7.503906 C 12.65625 7.808594 12.945312 8 13.265625 8 L 17.136719 8 C 17.457031 8 17.742188 7.808594 17.871094 7.503906 L 19.136719 4.414062 C 19.246094 4.144531 19.199219 3.839844 19.023438 3.617188 C 17.984375 2.273438 16.703125 1.601562 15.199219 1.601562 C 13.695312 1.601562 12.414062 2.273438 11.375 3.617188 C 11.199219 3.839844 11.152344 4.144531 11.265625 4.414062 Z M 15.199219 17.601562 C 16.078125 17.601562 16.800781 16.878906 16.800781 16 C 16.800781 15.121094 16.078125 14.398438 15.199219 14.398438 C 14.320312 14.398438 13.601562 15.121094 13.601562 16 C 13.601562 16.878906 14.320312 17.601562 15.199219 17.601562 Z M 3.199219 12.59375 L 3.199219 14.398438 L 3.152344 14.65625 L 2.351562 17.054688 C 2.222656 17.472656 1.761719 17.695312 1.34375 17.550781 C 0.929688 17.425781 0.703125 16.960938 0.847656 16.542969 L 1.601562 14.273438 L 1.601562 12.59375 C 1.121094 12.304688 0.800781 11.792969 0.800781 11.199219 L 0.800781 8.398438 C 0.800781 7.519531 1.519531 6.800781 2.398438 6.800781 C 2.734375 6.800781 3.039062 6.894531 3.3125 7.089844 L 4.65625 7.808594 L 5.839844 6.640625 C 6.144531 6.320312 6.65625 6.320312 6.960938 6.640625 C 7.28125 6.945312 7.28125 7.457031 6.960938 7.761719 L 5.359375 9.359375 C 5.121094 9.617188 4.734375 9.679688 4.414062 9.503906 L 4 9.28125 L 4 11.105469 L 5.953125 12.078125 C 6.222656 12.222656 6.398438 12.496094 6.398438 12.800781 L 6.398438 15.199219 C 6.398438 15.648438 6.046875 16 5.601562 16 C 5.152344 16 4.800781 15.648438 4.800781 15.199219 L 4.800781 13.296875 L 3.28125 12.527344 C 3.246094 12.558594 3.230469 12.574219 3.199219 12.59375 Z M 2.398438 6.398438 C 1.519531 6.398438 0.800781 5.679688 0.800781 4.800781 C 0.800781 3.921875 1.519531 3.199219 2.398438 3.199219 C 3.28125 3.199219 4 3.921875 4 4.800781 C 4 5.679688 3.28125 6.398438 2.398438 6.398438 Z M 2.398438 6.398438 "/>
</svg>
