<?xml version="1.0" encoding="UTF-8"?>
<svg xmlns="http://www.w3.org/2000/svg" xmlns:xlink="http://www.w3.org/1999/xlink" width="24" height="24" viewBox="0 0 24 24">
<path fill-rule="nonzero" fill="rgb(0%, 0%, 0%)" fill-opacity="1" d="M 7.28125 18.816406 L 6.398438 14.398438 L 8 13.519531 L 8 6.398438 C 8 5.519531 8.71875 4.800781 9.601562 4.800781 L 20.800781 4.800781 C 21.679688 4.800781 22.398438 5.519531 22.398438 6.398438 L 22.398438 13.519531 L 24 14.398438 L 23.105469 18.847656 C 21.855469 18.015625 20.800781 17.601562 19.921875 17.601562 C 18.542969 17.601562 16.960938 18.128906 15.199219 19.199219 C 13.503906 18.128906 11.921875 17.601562 10.480469 17.601562 C 9.585938 17.601562 8.511719 18 7.28125 18.816406 Z M 20.800781 12.65625 L 20.800781 7.199219 C 20.800781 6.753906 20.449219 6.398438 20 6.398438 L 10.398438 6.398438 C 9.953125 6.398438 9.601562 6.753906 9.601562 7.199219 L 9.601562 12.65625 L 15.199219 9.601562 Z M 12 1.601562 L 18.398438 1.601562 C 18.847656 1.601562 19.199219 1.953125 19.199219 2.398438 L 19.199219 4 L 11.199219 4 L 11.199219 2.398438 C 11.199219 1.953125 11.550781 1.601562 12 1.601562 Z M 20 19.199219 C 20.625 19.199219 21.167969 19.375 21.792969 19.710938 C 21.902344 19.761719 22.015625 19.824219 22.160156 19.902344 C 22.335938 20.015625 22.414062 20.0625 22.496094 20.113281 C 23.359375 20.59375 22.785156 22.113281 21.695312 21.488281 C 21.632812 21.457031 21.519531 21.390625 21.359375 21.296875 C 21.230469 21.214844 21.136719 21.167969 21.039062 21.121094 C 20.625 20.894531 20.320312 20.800781 20 20.800781 C 18.558594 20.800781 17.121094 21.28125 15.648438 22.273438 L 15.199219 22.558594 L 14.753906 22.273438 C 13.28125 21.28125 11.839844 20.800781 10.398438 20.800781 C 10.191406 20.800781 9.984375 20.847656 9.710938 20.976562 C 9.488281 21.070312 9.28125 21.199219 8.753906 21.503906 C 7.648438 22.113281 7.089844 20.59375 7.96875 20.097656 C 8.480469 19.808594 8.769531 19.648438 9.039062 19.519531 C 9.503906 19.3125 9.9375 19.199219 10.398438 19.199219 C 12.015625 19.199219 13.617188 19.695312 15.199219 20.65625 C 16.785156 19.695312 18.382812 19.199219 20 19.199219 Z M 2.398438 14.191406 L 2.398438 16 L 2.351562 16.257812 L 1.550781 18.65625 C 1.425781 19.070312 0.960938 19.296875 0.542969 19.152344 C 0.128906 19.023438 -0.0976562 18.558594 0.046875 18.144531 L 0.800781 15.871094 L 0.800781 14.191406 C 0.320312 13.902344 0 13.390625 0 12.800781 L 0 10 C 0 9.121094 0.71875 8.398438 1.601562 8.398438 C 1.9375 8.398438 2.238281 8.496094 2.511719 8.6875 L 3.855469 9.40625 L 5.039062 8.238281 C 5.34375 7.921875 5.855469 7.921875 6.160156 8.238281 C 6.480469 8.542969 6.480469 9.054688 6.160156 9.359375 L 4.558594 10.960938 C 4.320312 11.214844 3.9375 11.28125 3.617188 11.105469 L 3.199219 10.878906 L 3.199219 12.703125 L 5.152344 13.679688 C 5.425781 13.824219 5.601562 14.097656 5.601562 14.398438 L 5.601562 16.800781 C 5.601562 17.246094 5.246094 17.601562 4.800781 17.601562 C 4.351562 17.601562 4 17.246094 4 16.800781 L 4 14.894531 L 2.480469 14.128906 C 2.449219 14.160156 2.433594 14.175781 2.398438 14.191406 Z M 1.601562 8 C 0.71875 8 0 7.28125 0 6.398438 C 0 5.519531 0.71875 4.800781 1.601562 4.800781 C 2.480469 4.800781 3.199219 5.519531 3.199219 6.398438 C 3.199219 7.28125 2.480469 8 1.601562 8 Z M 1.601562 8 "/>
</svg>
