<?xml version="1.0" encoding="UTF-8"?>
<svg xmlns="http://www.w3.org/2000/svg" xmlns:xlink="http://www.w3.org/1999/xlink" width="24" height="24" viewBox="0 0 24 24">
<path fill-rule="nonzero" fill="rgb(0%, 0%, 0%)" fill-opacity="1" d="M 12.398438 20 L 12 20.800781 L 18.398438 20.800781 L 18 20 L 20.398438 20 L 22.398438 24 L 20 24 L 19.199219 22.398438 L 11.199219 22.398438 L 10.398438 24 L 8 24 L 10 20 Z M 24 6.398438 L 24 16 C 24 17.761719 22.558594 19.199219 20.800781 19.199219 L 9.601562 19.199219 C 7.839844 19.199219 6.398438 17.761719 6.398438 16 L 6.398438 6.398438 C 6.398438 4.640625 7.839844 3.199219 9.601562 3.199219 L 20.800781 3.199219 C 22.558594 3.199219 24 4.640625 24 6.398438 Z M 17.601562 16 C 17.601562 16.878906 18.320312 17.601562 19.199219 17.601562 C 20.078125 17.601562 20.800781 16.878906 20.800781 16 C 20.800781 15.121094 20.078125 14.398438 19.199219 14.398438 C 18.320312 14.398438 17.601562 15.121094 17.601562 16 Z M 12.800781 16 C 12.800781 15.121094 12.078125 14.398438 11.199219 14.398438 C 10.320312 14.398438 9.601562 15.121094 9.601562 16 C 9.601562 16.878906 10.320312 17.601562 11.199219 17.601562 C 12.078125 17.601562 12.800781 16.878906 12.800781 16 Z M 8 8.800781 L 8.015625 12 C 8.015625 12.449219 8.367188 12.800781 8.816406 12.800781 L 13.617188 12.800781 C 14.046875 12.800781 14.414062 12.449219 14.414062 12 L 14.382812 8.800781 C 14.382812 8.351562 14.03125 8 13.585938 8 L 8.800781 8 C 8.351562 8 8 8.351562 8 8.800781 Z M 16 8.800781 L 16.015625 12 C 16.015625 12.449219 16.367188 12.800781 16.816406 12.800781 L 21.617188 12.800781 C 22.046875 12.800781 22.414062 12.449219 22.414062 12 L 22.382812 8.800781 C 22.382812 8.351562 22.03125 8 21.585938 8 L 16.800781 8 C 16.351562 8 16 8.351562 16 8.800781 Z M 9.601562 5.601562 C 9.601562 6.046875 9.953125 6.398438 10.398438 6.398438 L 20 6.398438 C 20.449219 6.398438 20.800781 6.046875 20.800781 5.601562 C 20.800781 5.152344 20.449219 4.800781 20 4.800781 L 10.398438 4.800781 C 9.953125 4.800781 9.601562 5.152344 9.601562 5.601562 Z M 0 0 L 24 0 L 24 1.601562 L 0 1.601562 Z M 2.398438 15.792969 L 2.398438 17.601562 L 2.351562 17.855469 L 1.550781 20.257812 C 1.425781 20.671875 0.960938 20.894531 0.542969 20.753906 C 0.128906 20.625 -0.0976562 20.160156 0.046875 19.742188 L 0.800781 17.472656 L 0.800781 15.792969 C 0.320312 15.503906 0 14.992188 0 14.398438 L 0 11.601562 C 0 10.71875 0.71875 10 1.601562 10 C 1.9375 10 2.238281 10.097656 2.511719 10.289062 L 3.855469 11.007812 L 5.039062 9.839844 C 5.34375 9.519531 5.855469 9.519531 6.160156 9.839844 C 6.480469 10.144531 6.480469 10.65625 6.160156 10.960938 L 4.558594 12.558594 C 4.320312 12.816406 3.9375 12.878906 3.617188 12.703125 L 3.199219 12.480469 L 3.199219 14.304688 L 5.152344 15.28125 C 5.425781 15.425781 5.601562 15.695312 5.601562 16 L 5.601562 18.398438 C 5.601562 18.847656 5.246094 19.199219 4.800781 19.199219 C 4.351562 19.199219 4 18.847656 4 18.398438 L 4 16.496094 L 2.480469 15.726562 C 2.449219 15.761719 2.433594 15.777344 2.398438 15.792969 Z M 1.601562 9.601562 C 0.71875 9.601562 0 8.878906 0 8 C 0 7.121094 0.71875 6.398438 1.601562 6.398438 C 2.480469 6.398438 3.199219 7.121094 3.199219 8 C 3.199219 8.878906 2.480469 9.601562 1.601562 9.601562 Z M 1.601562 9.601562 "/>
</svg>
