<?xml version="1.0" encoding="UTF-8"?>
<svg xmlns="http://www.w3.org/2000/svg" xmlns:xlink="http://www.w3.org/1999/xlink" width="24" height="24" viewBox="0 0 24 24">
<path fill-rule="nonzero" fill="rgb(0%, 0%, 0%)" fill-opacity="1" d="M 19.199219 4.800781 L 9.265625 4.800781 C 8.640625 3.390625 7.230469 2.398438 5.601562 2.398438 C 3.96875 2.398438 2.558594 3.390625 1.9375 4.800781 L 5.601562 4.800781 L 6.398438 6.398438 L 5.601562 8 L 1.9375 8 C 2.558594 9.40625 3.96875 10.398438 5.601562 10.398438 C 7.230469 10.398438 8.640625 9.40625 9.265625 8 L 19.199219 8 C 20.078125 8 20.800781 7.28125 20.800781 6.398438 C 20.800781 5.519531 20.078125 4.800781 19.199219 4.800781 Z M 19.199219 4.800781 "/>
<path fill-rule="nonzero" fill="rgb(0%, 0%, 0%)" fill-opacity="1" d="M 20.800781 16 C 20.6875 18.929688 19.089844 20.433594 16 20.511719 L 4.800781 20.511719 L 3.199219 16 L 16.03125 16 L 12.800781 13.601562 L 14.398438 12.800781 L 19.199219 16 Z M 8 15.199219 L 3.199219 15.199219 L 3.199219 12.800781 L 6.398438 12.800781 C 7.28125 12.800781 8 13.519531 8 14.398438 Z M 8 15.199219 "/>
</svg>
