<?xml version="1.0" encoding="UTF-8"?>
<svg xmlns="http://www.w3.org/2000/svg" xmlns:xlink="http://www.w3.org/1999/xlink" width="24" height="24" viewBox="0 0 24 24">
<path fill-rule="nonzero" fill="rgb(0%, 0%, 0%)" fill-opacity="1" d="M 17.855469 15.375 C 17.742188 15.28125 17.648438 15.183594 17.535156 15.105469 C 16.398438 14.160156 14.734375 14.160156 13.601562 15.105469 C 13.34375 15.296875 13.105469 15.535156 12.847656 15.742188 C 12.703125 15.871094 12.511719 15.953125 12.335938 16 L 11.761719 16 C 11.585938 15.953125 11.390625 15.871094 11.246094 15.742188 C 10.992188 15.535156 10.753906 15.296875 10.496094 15.105469 C 9.359375 14.175781 7.710938 14.175781 6.574219 15.105469 C 6.320312 15.296875 6.113281 15.519531 5.855469 15.710938 C 5.710938 15.824219 5.535156 15.902344 5.359375 15.953125 C 4.878906 16.0625 4.398438 15.921875 4.0625 15.566406 C 3.953125 15.472656 3.855469 15.390625 3.742188 15.3125 L 1.601562 9.601562 L 16.800781 9.601562 L 13.601562 6.398438 L 15.199219 5.601562 L 20 9.601562 L 22.398438 9.601562 C 22.398438 11.9375 20.257812 14.289062 17.855469 15.375 Z M 8.65625 16 L 8.207031 16 C 8.351562 15.96875 8.511719 15.96875 8.65625 16 Z M 8 8.800781 L 1.601562 8.800781 L 1.601562 5.601562 L 6.398438 5.601562 C 7.28125 5.601562 8 6.320312 8 7.199219 Z M 22.398438 16.046875 L 22.398438 17.601562 C 21.984375 17.632812 21.585938 17.824219 21.3125 18.144531 C 20.878906 18.59375 20.320312 18.910156 19.710938 19.070312 C 18.734375 19.359375 17.664062 19.152344 16.878906 18.496094 L 16.257812 17.953125 C 15.777344 17.472656 14.976562 17.472656 14.496094 17.953125 C 14.273438 18.144531 14.0625 18.335938 13.824219 18.527344 C 12.65625 19.441406 10.976562 19.40625 9.855469 18.414062 L 9.230469 17.871094 C 8.769531 17.488281 8.097656 17.488281 7.632812 17.871094 C 7.328125 18.113281 7.054688 18.367188 6.753906 18.609375 C 5.632812 19.425781 4.078125 19.390625 2.992188 18.511719 L 2.496094 18.097656 C 2.273438 17.824219 1.953125 17.664062 1.601562 17.601562 L 1.601562 16.046875 C 2.015625 15.984375 2.433594 16.0625 2.800781 16.257812 C 3.246094 16.527344 3.664062 16.832031 4.0625 17.167969 C 4.398438 17.519531 4.878906 17.664062 5.359375 17.550781 C 5.535156 17.503906 5.710938 17.425781 5.855469 17.3125 C 6.113281 17.121094 6.320312 16.894531 6.574219 16.703125 C 7.710938 15.777344 9.359375 15.777344 10.496094 16.703125 C 10.753906 16.894531 10.992188 17.136719 11.246094 17.34375 C 11.710938 17.726562 12.382812 17.726562 12.847656 17.34375 C 13.105469 17.136719 13.34375 16.894531 13.601562 16.703125 C 14.734375 15.761719 16.398438 15.761719 17.535156 16.703125 C 17.777344 16.894531 18 17.121094 18.238281 17.3125 C 18.703125 17.695312 19.375 17.695312 19.839844 17.3125 L 20.59375 16.671875 C 21.105469 16.257812 21.742188 16.03125 22.398438 16.046875 Z M 22.398438 16.046875 "/>
</svg>
