<?xml version="1.0" encoding="UTF-8"?>
<svg xmlns="http://www.w3.org/2000/svg" xmlns:xlink="http://www.w3.org/1999/xlink" width="24" height="24" viewBox="0 0 24 24">
<path fill-rule="nonzero" fill="rgb(0%, 0%, 0%)" fill-opacity="1" d="M 4.078125 3.402344 L 8.671875 4.671875 L 11.222656 2.878906 L 12.109375 3.101562 L 9.585938 4.894531 L 23.5 8.761719 L 22.484375 12.542969 L 8.519531 8.6875 C 3.109375 7.054688 4.09375 3.402344 4.09375 3.402344 "/>
<path fill-rule="nonzero" fill="rgb(0%, 0%, 0%)" fill-opacity="1" d="M 16.300781 13.085938 C 16.28125 12.769531 16.222656 12.46875 16.125 12.183594 L 22.496094 13.957031 L 22.292969 14.746094 Z M 10.507812 11.488281 C 10.679688 11.238281 10.882812 11.011719 11.113281 10.8125 L 0.480469 7.875 L 0.480469 8.722656 Z M 13.140625 14.289062 C 13.714844 14.289062 14.179688 13.824219 14.179688 13.253906 C 14.179688 12.679688 13.714844 12.214844 13.140625 12.214844 C 12.570312 12.214844 12.105469 12.679688 12.105469 13.253906 C 12.105469 13.824219 12.570312 14.289062 13.140625 14.289062 Z M 23.519531 20.644531 C 23.015625 20.644531 22.535156 20.53125 22.109375 20.332031 C 21.664062 20.132812 21.167969 20.011719 20.644531 20.011719 C 20.125 20.011719 19.628906 20.132812 19.191406 20.332031 C 18.757812 20.53125 18.277344 20.644531 17.773438 20.644531 C 17.269531 20.644531 16.789062 20.53125 16.359375 20.332031 C 15.917969 20.132812 15.421875 20.011719 14.902344 20.011719 C 14.378906 20.011719 13.886719 20.132812 13.445312 20.332031 C 13.019531 20.53125 12.53125 20.644531 12.027344 20.644531 C 11.53125 20.644531 11.042969 20.53125 10.613281 20.332031 C 10.167969 20.132812 9.667969 20.011719 9.148438 20.011719 C 8.628906 20.011719 8.132812 20.132812 7.695312 20.332031 C 7.261719 20.53125 6.777344 20.644531 6.273438 20.644531 C 5.773438 20.644531 5.289062 20.53125 4.859375 20.332031 C 4.414062 20.132812 3.917969 20.011719 3.398438 20.011719 C 2.878906 20.011719 2.378906 20.132812 1.9375 20.332031 C 1.507812 20.53125 1.023438 20.644531 0.523438 20.644531 L 0.488281 12.195312 L 12.121094 15.40625 C 11.320312 15.019531 10.761719 14.207031 10.761719 13.257812 C 10.761719 11.9375 11.832031 10.867188 13.152344 10.867188 C 14.46875 10.867188 15.542969 11.9375 15.542969 13.257812 C 15.542969 14.578125 14.472656 15.648438 13.152344 15.648438 L 12.917969 15.625 L 23.515625 18.546875 L 23.535156 20.648438 Z M 23.519531 20.644531 "/>
</svg>
