<?xml version="1.0" encoding="UTF-8"?>
<svg xmlns="http://www.w3.org/2000/svg" xmlns:xlink="http://www.w3.org/1999/xlink" width="24" height="24" viewBox="0 0 24 24">
<path fill-rule="nonzero" fill="rgb(0%, 0%, 0%)" fill-opacity="1" d="M 9.601562 6.398438 C 9.601562 3.199219 14.398438 3.199219 14.398438 6.398438 C 14.398438 7.199219 9.601562 7.199219 9.601562 6.398438 Z M 9.601562 7.199219 C 9.601562 6.398438 9.601562 18.398438 9.601562 19.199219 C 9.601562 20 14.398438 20 14.398438 19.199219 C 14.398438 18.398438 14.398438 6.398438 14.398438 7.199219 C 14.398438 8 9.601562 8 9.601562 7.199219 Z M 9.601562 7.199219 "/>
<path fill-rule="nonzero" fill="rgb(0%, 0%, 0%)" fill-opacity="1" d="M 2.398438 6.398438 C 2.398438 3.199219 7.199219 3.199219 7.199219 6.398438 C 7.199219 7.199219 2.398438 7.199219 2.398438 6.398438 Z M 2.398438 7.199219 C 2.398438 6.398438 2.398438 18.398438 2.398438 19.199219 C 2.398438 20 7.199219 20 7.199219 19.199219 C 7.199219 18.398438 7.199219 6.398438 7.199219 7.199219 C 7.199219 8 2.398438 8 2.398438 7.199219 Z M 2.398438 7.199219 "/>
<path fill-rule="nonzero" fill="rgb(0%, 0%, 0%)" fill-opacity="1" d="M 16.800781 6.398438 C 16.800781 3.199219 21.601562 3.199219 21.601562 6.398438 C 21.601562 7.199219 16.800781 7.199219 16.800781 6.398438 Z M 16.800781 7.199219 C 16.800781 6.398438 16.800781 18.398438 16.800781 19.199219 C 16.800781 20 21.601562 20 21.601562 19.199219 C 21.601562 18.398438 21.601562 6.398438 21.601562 7.199219 C 21.601562 8 16.800781 8 16.800781 7.199219 Z M 16.800781 7.199219 "/>
</svg>
