<?xml version="1.0" encoding="UTF-8"?>
<svg xmlns="http://www.w3.org/2000/svg" xmlns:xlink="http://www.w3.org/1999/xlink" width="24" height="24" viewBox="0 0 24 24">
<path fill-rule="nonzero" fill="rgb(0%, 0%, 0%)" fill-opacity="1" d="M 4.800781 2.398438 C 5.199219 2.800781 4.800781 3.199219 4.800781 4.800781 C 4.800781 7.199219 4.800781 8 5.601562 8.800781 C 6.398438 9.601562 6.398438 10.398438 6.398438 12.800781 C 6.398438 12.800781 6.398438 21.601562 6.398438 21.601562 C 6.398438 23.199219 0 23.199219 0 21.601562 C 0 21.601562 0 12.800781 0 12.800781 C 0 10.398438 0 9.601562 0.800781 8.800781 C 1.601562 8 1.601562 7.199219 1.601562 4.800781 C 1.601562 3.199219 1.199219 2.800781 1.601562 2.398438 C 2 2.800781 4.398438 2.800781 4.800781 2.398438 Z M 1.601562 0.800781 C 1.199219 1.199219 1.601562 1.199219 1.601562 1.601562 C 2 2 4.398438 2 4.800781 1.601562 C 4.800781 1.199219 5.199219 1.199219 4.800781 0.800781 C 4 0.800781 2.398438 0.800781 1.601562 0.800781 Z M 1.601562 0.800781 "/>
<path fill-rule="nonzero" fill="rgb(0%, 0%, 0%)" fill-opacity="1" d="M 13.601562 2.398438 C 14 2.800781 13.601562 3.199219 13.601562 4.800781 C 13.601562 7.199219 13.601562 8 14.398438 8.800781 C 15.199219 9.601562 15.199219 10.398438 15.199219 12.800781 C 15.199219 12.800781 15.199219 21.601562 15.199219 21.601562 C 15.199219 23.199219 8.800781 23.199219 8.800781 21.601562 C 8.800781 21.601562 8.800781 12.800781 8.800781 12.800781 C 8.800781 10.398438 8.800781 9.601562 9.601562 8.800781 C 10.398438 8 10.398438 7.199219 10.398438 4.800781 C 10.398438 3.199219 10 2.800781 10.398438 2.398438 C 10.800781 2.800781 13.199219 2.800781 13.601562 2.398438 Z M 10.398438 0.800781 C 10 1.199219 10.398438 1.199219 10.398438 1.601562 C 10.800781 2 13.199219 2 13.601562 1.601562 C 13.601562 1.199219 14 1.199219 13.601562 0.800781 C 12.800781 0.800781 11.199219 0.800781 10.398438 0.800781 Z M 10.398438 0.800781 "/>
<path fill-rule="nonzero" fill="rgb(0%, 0%, 0%)" fill-opacity="1" d="M 22.398438 2.398438 C 22.800781 2.800781 22.398438 3.199219 22.398438 4.800781 C 22.398438 7.199219 22.398438 8 23.199219 8.800781 C 24 9.601562 24 10.398438 24 12.800781 C 24 12.800781 24 21.601562 24 21.601562 C 24 23.199219 17.601562 23.199219 17.601562 21.601562 C 17.601562 21.601562 17.601562 12.800781 17.601562 12.800781 C 17.601562 10.398438 17.601562 9.601562 18.398438 8.800781 C 19.199219 8 19.199219 7.199219 19.199219 4.800781 C 19.199219 3.199219 18.800781 2.800781 19.199219 2.398438 C 19.601562 2.800781 22 2.800781 22.398438 2.398438 Z M 19.199219 0.800781 C 18.800781 1.199219 19.199219 1.199219 19.199219 1.601562 C 19.601562 2 22 2 22.398438 1.601562 C 22.398438 1.199219 22.800781 1.199219 22.398438 0.800781 C 21.601562 0.800781 20 0.800781 19.199219 0.800781 Z M 19.199219 0.800781 "/>
</svg>
