<?xml version="1.0" encoding="UTF-8"?>
<svg xmlns="http://www.w3.org/2000/svg" xmlns:xlink="http://www.w3.org/1999/xlink" width="24" height="24" viewBox="0 0 24 24">
<path fill-rule="nonzero" fill="rgb(0%, 0%, 0%)" fill-opacity="1" d="M 2.398438 22.398438 C 2.144531 21.039062 1.390625 18.238281 1.601562 15.199219 C 1.855469 11.503906 3.839844 9.28125 4 8.800781 C 4.273438 7.953125 4.273438 7.472656 4 6.398438 C 3.648438 5.023438 2.398438 0.800781 5.199219 0.800781 C 8 0.800781 6.71875 4.945312 6.398438 6.398438 C 6.175781 7.40625 6.175781 8.097656 6.398438 8.800781 C 6.574219 9.328125 8.367188 11.824219 8.800781 15.199219 C 9.199219 18.414062 8.351562 20.847656 8 22.398438 C 7.648438 23.96875 2.703125 23.96875 2.398438 22.398438 Z M 16.800781 12.800781 C 17.246094 12.800781 17.601562 13.152344 17.601562 13.601562 C 17.601562 14.046875 17.246094 14.398438 16.800781 14.398438 C 16.351562 14.398438 16 14.046875 16 13.601562 C 16 13.152344 16.351562 12.800781 16.800781 12.800781 Z M 20 13.601562 C 20.449219 13.601562 20.800781 13.953125 20.800781 14.398438 C 20.800781 14.847656 20.449219 15.199219 20 15.199219 C 19.550781 15.199219 19.199219 14.847656 19.199219 14.398438 C 19.199219 13.953125 19.550781 13.601562 20 13.601562 Z M 17.601562 16 C 18.046875 16 18.398438 16.351562 18.398438 16.800781 C 18.398438 17.246094 18.046875 17.601562 17.601562 17.601562 C 17.152344 17.601562 16.800781 17.246094 16.800781 16.800781 C 16.800781 16.351562 17.152344 16 17.601562 16 Z M 16.800781 10.398438 C 13.265625 10.398438 10.398438 13.265625 10.398438 16.800781 C 10.398438 20.335938 13.265625 23.199219 16.800781 23.199219 C 20.335938 23.199219 23.199219 20.335938 23.199219 16.800781 C 23.199219 13.265625 20.335938 10.398438 16.800781 10.398438 Z M 16.800781 10.398438 "/>
</svg>
