<?xml version="1.0" encoding="UTF-8"?>
<svg xmlns="http://www.w3.org/2000/svg" xmlns:xlink="http://www.w3.org/1999/xlink" width="24" height="24" viewBox="0 0 24 24">
<path fill-rule="nonzero" fill="rgb(0%, 0%, 0%)" fill-opacity="1" d="M 16.144531 15.710938 L 15.121094 14.496094 L 13.28125 16.03125 C 12.929688 16.320312 12.433594 16.273438 12.144531 15.9375 L 11.34375 14.976562 L 5.902344 15.953125 L 0.304688 2.59375 C 0.160156 2.273438 0.257812 1.886719 0.527344 1.664062 L 1.34375 0.992188 C 1.601562 0.769531 1.984375 0.734375 2.289062 0.929688 L 14.480469 8.753906 L 12.558594 13.953125 L 12.863281 14.304688 L 14.703125 12.753906 C 15.039062 12.464844 15.535156 12.511719 15.824219 12.847656 L 17.359375 14.6875 C 17.710938 14.398438 18.207031 14.449219 18.496094 14.785156 L 23.632812 20.910156 C 23.921875 21.265625 23.871094 21.761719 23.535156 22.046875 L 22.304688 23.070312 C 21.96875 23.359375 21.472656 23.3125 21.183594 22.976562 L 16.046875 16.847656 C 15.761719 16.511719 15.808594 16 16.144531 15.710938 Z M 8.351562 13.886719 L 8.128906 9.902344 L 12.015625 10.816406 L 12.527344 9.40625 L 2.078125 2.703125 L 6.878906 14.160156 Z M 8.351562 13.886719 "/>
</svg>
