<?xml version="1.0" encoding="UTF-8"?>
<svg xmlns="http://www.w3.org/2000/svg" xmlns:xlink="http://www.w3.org/1999/xlink" width="24" height="24" viewBox="0 0 24 24">
<path fill-rule="nonzero" fill="rgb(0%, 0%, 0%)" fill-opacity="1" d="M 8 6.398438 L 16 6.398438 L 16 4.800781 L 8 4.800781 Z M 6.398438 6.398438 L 6.398438 4.800781 C 6.398438 3.921875 7.121094 3.199219 8 3.199219 L 16 3.199219 C 16.878906 3.199219 17.601562 3.921875 17.601562 4.800781 L 17.601562 6.398438 L 20.800781 6.398438 C 21.679688 6.398438 22.398438 7.121094 22.398438 8 L 22.398438 19.199219 C 22.398438 20.078125 21.679688 20.800781 20.800781 20.800781 L 3.199219 20.800781 C 2.320312 20.800781 1.601562 20.078125 1.601562 19.199219 L 1.601562 8 C 1.601562 7.121094 2.320312 6.398438 3.199219 6.398438 Z M 6.398438 9.601562 C 6.398438 13.871094 8.273438 17.070312 12 19.199219 C 17.601562 16 17.601562 9.601562 17.601562 9.601562 C 17.601562 9.601562 14.398438 12 12 8 C 10.398438 10.671875 8.527344 11.199219 6.398438 9.601562 Z M 12 17.296875 L 12 10.609375 C 12.015625 10.59375 12.015625 10.574219 12.03125 10.574219 C 12.207031 10.734375 12.398438 10.878906 12.59375 11.007812 C 13.566406 11.710938 14.609375 11.96875 15.632812 11.921875 C 15.390625 12.800781 15.039062 13.664062 14.558594 14.480469 C 13.921875 15.585938 13.070312 16.542969 12 17.296875 Z M 12 17.296875 "/>
</svg>
