<?xml version="1.0" encoding="UTF-8"?>
<svg xmlns="http://www.w3.org/2000/svg" xmlns:xlink="http://www.w3.org/1999/xlink" width="24" height="24" viewBox="0 0 24 24">
<path fill-rule="nonzero" fill="rgb(0%, 0%, 0%)" fill-opacity="1" d="M 13.601562 20.800781 C 14 20.800781 14.398438 21.199219 14.398438 21.601562 C 14.398438 22 14 22.398438 13.601562 22.398438 L 13.199219 22.398438 C 13.199219 22.398438 12.800781 23.199219 12 23.199219 C 11.199219 23.199219 10.800781 22.398438 10.800781 22.398438 L 10.398438 22.398438 C 10 22.398438 9.601562 22 9.601562 21.601562 C 9.601562 21.199219 10 20.800781 10.398438 20.800781 Z M 13.601562 18.800781 L 10.398438 18.800781 C 10 18.800781 9.601562 19.199219 9.601562 19.601562 C 9.601562 20 10 20.398438 10.398438 20.398438 L 13.601562 20.398438 C 14 20.398438 14.398438 20 14.398438 19.601562 C 14.398438 19.199219 14 18.800781 13.601562 18.800781 Z M 12 2.078125 C 16 2.078125 17.921875 4 17.921875 6.398438 C 17.921875 11.199219 14.800781 12.800781 14 14.398438 C 13.199219 16 13.199219 17.28125 12.398438 17.28125 L 11.519531 17.28125 C 10.71875 17.28125 10.800781 16 10 14.398438 C 9.199219 12.800781 6.078125 11.199219 6.078125 6.398438 C 6.078125 4 8 2.078125 12 2.078125 Z M 12 0.800781 C 8.800781 0.800781 4.800781 2.398438 4.800781 6.398438 C 4.800781 9.601562 6.398438 12 8 13.601562 C 9.601562 15.199219 9.601562 18.398438 10.398438 18.398438 C 10.398438 18.398438 13.601562 18.398438 13.601562 18.398438 C 14.398438 18.398438 14.398438 15.199219 16 13.601562 C 17.601562 12 19.199219 9.601562 19.199219 6.398438 C 19.199219 2.398438 15.199219 0.800781 12 0.800781 Z M 12 0.800781 "/>
</svg>
