<?xml version="1.0" encoding="UTF-8"?>
<svg xmlns="http://www.w3.org/2000/svg" xmlns:xlink="http://www.w3.org/1999/xlink" width="24" height="24" viewBox="0 0 24 24">
<path fill-rule="nonzero" fill="rgb(0%, 0%, 0%)" fill-opacity="1" d="M 0.800781 3.199219 L 23.199219 3.199219 C 23.648438 3.199219 24 3.550781 24 4 L 24 20 C 24 20.449219 23.648438 20.800781 23.199219 20.800781 L 0.800781 20.800781 C 0.351562 20.800781 0 20.449219 0 20 L 0 4 C 0 3.550781 0.351562 3.199219 0.800781 3.199219 Z M 5.28125 4.398438 L 2.800781 13.679688 L 9.761719 15.535156 L 12.238281 6.257812 Z M 12 10.257812 L 14.480469 19.535156 L 16.03125 19.121094 L 15.40625 16.800781 L 16.960938 16.382812 L 17.566406 18.703125 L 21.441406 17.679688 L 19.566406 10.703125 L 18.960938 8.398438 Z M 12 10.257812 "/>
</svg>
