<?xml version="1.0" encoding="UTF-8"?>
<svg xmlns="http://www.w3.org/2000/svg" xmlns:xlink="http://www.w3.org/1999/xlink" width="24" height="24" viewBox="0 0 24 24">
<path fill-rule="nonzero" fill="rgb(0%, 0%, 0%)" fill-opacity="1" d="M 3.199219 19.199219 L 9.601562 19.199219 L 9.601562 16 C 9.601562 15.199219 10.398438 14.398438 11.199219 14.398438 L 20.800781 14.398438 L 20.800781 9.601562 L 3.199219 9.601562 Z M 3.199219 20.800781 L 3.199219 22.398438 L 1.601562 22.398438 L 1.601562 2.398438 C 1.601562 1.953125 1.953125 1.601562 2.398438 1.601562 C 2.847656 1.601562 3.199219 1.953125 3.199219 2.398438 L 3.199219 8 L 9.601562 8 L 9.601562 4.800781 C 9.601562 4 10.398438 3.199219 11.199219 3.199219 L 20 3.199219 C 21.601562 3.199219 22.398438 4 22.398438 5.601562 L 22.398438 22.398438 L 20.800781 22.398438 L 20.800781 20.800781 Z M 6.398438 7.199219 C 5.070312 7.199219 4 6.128906 4 4.800781 C 4 3.472656 5.070312 2.398438 6.398438 2.398438 C 7.726562 2.398438 8.800781 3.472656 8.800781 4.800781 C 8.800781 6.128906 7.726562 7.199219 6.398438 7.199219 Z M 6.398438 18.398438 C 5.070312 18.398438 4 17.328125 4 16 C 4 14.671875 5.070312 13.601562 6.398438 13.601562 C 7.726562 13.601562 8.800781 14.671875 8.800781 16 C 8.800781 17.328125 7.726562 18.398438 6.398438 18.398438 Z M 6.398438 18.398438 "/>
</svg>
