<?xml version="1.0" encoding="UTF-8"?>
<svg xmlns="http://www.w3.org/2000/svg" xmlns:xlink="http://www.w3.org/1999/xlink" width="24" height="24" viewBox="0 0 24 24">
<path fill-rule="nonzero" fill="rgb(0%, 0%, 0%)" fill-opacity="1" d="M 3.199219 4.800781 C 3.199219 3.039062 4.640625 1.601562 6.398438 1.601562 L 17.601562 1.601562 C 19.359375 1.601562 20.800781 3.039062 20.800781 4.800781 L 20.800781 17.601562 C 20.800781 18.480469 20.078125 19.199219 19.199219 19.199219 L 19.199219 20.800781 C 19.199219 21.679688 18.480469 22.398438 17.601562 22.398438 C 16.71875 22.398438 16 21.679688 16 20.800781 L 16 19.199219 L 8 19.199219 L 8 20.800781 C 8 21.679688 7.28125 22.398438 6.398438 22.398438 C 5.519531 22.398438 4.800781 21.679688 4.800781 20.800781 L 4.800781 19.199219 C 3.921875 19.199219 3.199219 18.480469 3.199219 17.601562 Z M 5.601562 6.398438 C 5.152344 6.398438 4.800781 6.753906 4.800781 7.199219 L 4.800781 12 C 4.800781 12.449219 5.152344 12.800781 5.601562 12.800781 L 18.398438 12.800781 C 18.847656 12.800781 19.199219 12.449219 19.199219 12 L 19.199219 7.199219 C 19.199219 6.753906 18.847656 6.398438 18.398438 6.398438 Z M 6.398438 14.398438 C 5.519531 14.398438 4.800781 15.121094 4.800781 16 C 4.800781 16.878906 5.519531 17.601562 6.398438 17.601562 C 7.28125 17.601562 8 16.878906 8 16 C 8 15.121094 7.28125 14.398438 6.398438 14.398438 Z M 17.601562 14.398438 C 16.71875 14.398438 16 15.121094 16 16 C 16 16.878906 16.71875 17.601562 17.601562 17.601562 C 18.480469 17.601562 19.199219 16.878906 19.199219 16 C 19.199219 15.121094 18.480469 14.398438 17.601562 14.398438 Z M 6.398438 4 C 6.398438 4.449219 6.753906 4.800781 7.199219 4.800781 L 16.800781 4.800781 C 17.246094 4.800781 17.601562 4.449219 17.601562 4 C 17.601562 3.550781 17.246094 3.199219 16.800781 3.199219 L 7.199219 3.199219 C 6.753906 3.199219 6.398438 3.550781 6.398438 4 Z M 21.503906 22.398438 C 21.40625 22.398438 21.328125 22.382812 21.230469 22.351562 C 20.816406 22.207031 20.609375 21.742188 20.753906 21.328125 L 23.214844 14.449219 C 23.28125 14.289062 23.425781 14.175781 23.601562 14.175781 C 23.824219 14.175781 24 14.351562 24 14.574219 L 24 21.601562 C 24 22.046875 23.648438 22.398438 23.199219 22.398438 Z M 2.496094 22.398438 L 0.800781 22.398438 C 0.351562 22.398438 0 22.046875 0 21.601562 L 0 14.574219 C 0 14.351562 0.175781 14.175781 0.398438 14.175781 C 0.574219 14.175781 0.71875 14.289062 0.785156 14.449219 L 3.246094 21.328125 C 3.390625 21.742188 3.183594 22.207031 2.769531 22.351562 C 2.671875 22.382812 2.59375 22.398438 2.496094 22.398438 Z M 2.496094 22.398438 "/>
</svg>
