<?xml version="1.0" encoding="UTF-8"?>
<svg xmlns="http://www.w3.org/2000/svg" xmlns:xlink="http://www.w3.org/1999/xlink" width="24" height="24" viewBox="0 0 24 24">
<path fill-rule="nonzero" fill="rgb(0%, 0%, 0%)" fill-opacity="1" d="M 20.800781 9.214844 L 21.742188 9.902344 C 22.992188 10.816406 22.351562 12.800781 20.800781 12.800781 L 20.800781 14.398438 C 21.679688 14.398438 22.398438 15.121094 22.398438 16 C 22.398438 16.878906 21.679688 17.601562 20.800781 17.601562 L 20.800781 19.199219 C 21.679688 19.199219 22.398438 19.921875 22.398438 20.800781 C 22.398438 21.679688 21.679688 22.398438 20.800781 22.398438 L 14.398438 22.398438 L 14.398438 16 L 9.601562 16 L 9.601562 22.398438 L 3.199219 22.398438 C 2.320312 22.398438 1.601562 21.679688 1.601562 20.800781 C 1.601562 19.921875 2.320312 19.199219 3.199219 19.199219 L 3.199219 17.601562 C 2.320312 17.601562 1.601562 16.878906 1.601562 16 C 1.601562 15.121094 2.320312 14.398438 3.199219 14.398438 L 3.199219 12.800781 C 1.648438 12.800781 1.007812 10.816406 2.257812 9.902344 L 11.054688 3.503906 C 11.617188 3.105469 12.382812 3.105469 12.945312 3.503906 L 17.601562 6.894531 L 17.601562 1.601562 L 20.800781 1.601562 Z M 4.800781 12.800781 L 4.800781 14.398438 L 19.199219 14.398438 L 19.199219 12.800781 Z M 19.199219 17.601562 L 16 17.601562 L 16 19.199219 L 19.199219 19.199219 Z M 4.800781 17.601562 L 4.800781 19.199219 L 8 19.199219 L 8 17.601562 Z M 12 6.785156 L 8.128906 9.601562 L 15.871094 9.601562 Z M 12 6.785156 "/>
</svg>
