<?xml version="1.0" encoding="UTF-8"?>
<svg xmlns="http://www.w3.org/2000/svg" xmlns:xlink="http://www.w3.org/1999/xlink" width="24" height="24" viewBox="0 0 24 24">
<path fill-rule="nonzero" fill="rgb(0%, 0%, 0%)" fill-opacity="1" d="M 16.800781 17.601562 C 16.800781 15.839844 15.359375 14.398438 13.601562 14.398438 C 11.839844 14.398438 10.398438 15.839844 10.398438 17.601562 L 0.800781 17.601562 C 0.351562 17.601562 0 17.246094 0 16.800781 C 0 16.351562 0.351562 16 0.800781 16 L 4.800781 16 C 3.039062 16 1.601562 14.558594 1.601562 12.800781 L 1.601562 8.464844 C 1.601562 6.816406 2.847656 5.441406 4.480469 5.28125 C 7.566406 4.960938 10.335938 4.800781 12.800781 4.800781 C 15.265625 4.800781 18.03125 4.960938 21.121094 5.28125 C 22.753906 5.441406 24 6.816406 24 8.464844 L 24 14.398438 C 24 16.160156 22.558594 17.601562 20.800781 17.601562 Z M 8.800781 11.199219 C 9.246094 11.199219 9.601562 10.847656 9.601562 10.398438 L 9.601562 8.800781 C 9.601562 8.351562 9.246094 8 8.800781 8 L 5.601562 8 C 5.152344 8 4.800781 8.351562 4.800781 8.800781 L 4.800781 10.398438 C 4.800781 10.847656 5.152344 11.199219 5.601562 11.199219 Z M 20 11.199219 C 20.449219 11.199219 20.800781 10.847656 20.800781 10.398438 L 20.800781 8.800781 C 20.800781 8.351562 20.449219 8 20 8 L 13.601562 8 C 13.152344 8 12.800781 8.351562 12.800781 8.800781 L 12.800781 10.398438 C 12.800781 10.847656 13.152344 11.199219 13.601562 11.199219 Z M 13.601562 20 C 12.273438 20 11.199219 18.929688 11.199219 17.601562 C 11.199219 16.273438 12.273438 15.199219 13.601562 15.199219 C 14.929688 15.199219 16 16.273438 16 17.601562 C 16 18.929688 14.929688 20 13.601562 20 Z M 13.601562 20 "/>
</svg>
