<?xml version="1.0" encoding="UTF-8"?>
<svg xmlns="http://www.w3.org/2000/svg" xmlns:xlink="http://www.w3.org/1999/xlink" width="24" height="24" viewBox="0 0 24 24">
<path fill-rule="nonzero" fill="rgb(0%, 0%, 0%)" fill-opacity="1" d="M 14.398438 12.800781 L 14.398438 16 L 18.398438 16 C 18.847656 16 19.199219 16.351562 19.199219 16.800781 L 19.199219 23.199219 C 19.199219 23.648438 18.847656 24 18.398438 24 L 5.601562 24 C 5.152344 24 4.800781 23.648438 4.800781 23.199219 L 4.800781 16.800781 C 4.800781 16.351562 5.152344 16 5.601562 16 L 9.601562 16 L 9.601562 12.800781 L 0.800781 12.800781 C 0.351562 12.800781 0 12.449219 0 12 C 0 11.550781 0.351562 11.199219 0.800781 11.199219 L 4.800781 11.199219 C 3.039062 11.199219 1.601562 9.761719 1.601562 8 L 1.601562 3.664062 C 1.601562 2.015625 2.847656 0.640625 4.480469 0.480469 C 7.566406 0.160156 10.335938 0 12.800781 0 C 15.265625 0 18.03125 0.160156 21.121094 0.480469 C 22.753906 0.640625 24 2.015625 24 3.664062 L 24 9.601562 C 24 11.359375 22.558594 12.800781 20.800781 12.800781 Z M 8.800781 6.398438 C 9.246094 6.398438 9.601562 6.046875 9.601562 5.601562 L 9.601562 4 C 9.601562 3.550781 9.246094 3.199219 8.800781 3.199219 L 5.601562 3.199219 C 5.152344 3.199219 4.800781 3.550781 4.800781 4 L 4.800781 5.601562 C 4.800781 6.046875 5.152344 6.398438 5.601562 6.398438 Z M 20 6.398438 C 20.449219 6.398438 20.800781 6.046875 20.800781 5.601562 L 20.800781 4 C 20.800781 3.550781 20.449219 3.199219 20 3.199219 L 13.601562 3.199219 C 13.152344 3.199219 12.800781 3.550781 12.800781 4 L 12.800781 5.601562 C 12.800781 6.046875 13.152344 6.398438 13.601562 6.398438 Z M 11.199219 17.601562 L 9.105469 17.601562 C 8.878906 17.601562 8.703125 17.777344 8.703125 18 C 8.703125 18.113281 8.753906 18.222656 8.847656 18.304688 L 11.742188 20.734375 C 11.886719 20.863281 12.113281 20.863281 12.257812 20.734375 L 15.152344 18.304688 C 15.328125 18.160156 15.34375 17.921875 15.199219 17.742188 C 15.136719 17.648438 15.023438 17.601562 14.894531 17.601562 L 12.800781 17.601562 L 12.800781 10.398438 C 12.800781 9.953125 12.449219 9.601562 12 9.601562 C 11.550781 9.601562 11.199219 9.953125 11.199219 10.398438 Z M 11.199219 17.601562 "/>
</svg>
