<?xml version="1.0" encoding="UTF-8"?>
<svg xmlns="http://www.w3.org/2000/svg" xmlns:xlink="http://www.w3.org/1999/xlink" width="24" height="24" viewBox="0 0 24 24">
<path fill-rule="nonzero" fill="rgb(0%, 0%, 0%)" fill-opacity="1" d="M 11.199219 1.601562 L 14.398438 0 L 17.601562 1.601562 L 20.800781 0 L 20.800781 4.800781 L 17.601562 6.398438 L 14.398438 4.800781 L 12.800781 5.601562 L 12.800781 8 L 11.199219 8 Z M 4 14.398438 L 20 14.398438 L 20 24 L 4 24 Z M 6.398438 16 L 6.398438 22.398438 L 8 22.398438 L 8 16 Z M 11.199219 16 L 11.199219 22.398438 L 12.800781 22.398438 L 12.800781 16 Z M 16 16 L 16 22.398438 L 17.601562 22.398438 L 17.601562 16 Z M 4 13.601562 C 4.398438 9.550781 7.824219 6.398438 12 6.398438 C 16.175781 6.398438 19.601562 9.550781 20 13.601562 Z M 4 13.601562 "/>
</svg>
