<?xml version="1.0" encoding="UTF-8"?>
<svg xmlns="http://www.w3.org/2000/svg" xmlns:xlink="http://www.w3.org/1999/xlink" width="24" height="24" viewBox="0 0 24 24">
<path fill-rule="nonzero" fill="rgb(0%, 0%, 0%)" fill-opacity="1" d="M 11.199219 12 L 18.800781 12 L 17.121094 3.199219 L 6.878906 3.199219 L 5.199219 12 Z M 17.601562 11.199219 L 12.800781 11.199219 L 12.800781 9.601562 C 12.800781 8.71875 13.519531 8 14.398438 8 L 16 8 C 16.878906 8 17.601562 8.71875 17.601562 9.601562 Z M 11.199219 11.199219 L 6.398438 11.199219 L 6.398438 9.601562 C 6.398438 8.71875 7.121094 8 8 8 L 9.601562 8 C 10.480469 8 11.199219 8.71875 11.199219 9.601562 Z M 15.199219 7.199219 C 14.320312 7.199219 13.601562 6.480469 13.601562 5.601562 C 13.601562 4.71875 14.320312 4 15.199219 4 C 16.078125 4 16.800781 4.71875 16.800781 5.601562 C 16.800781 6.480469 16.078125 7.199219 15.199219 7.199219 Z M 8.800781 7.199219 C 7.921875 7.199219 7.199219 6.480469 7.199219 5.601562 C 7.199219 4.71875 7.921875 4 8.800781 4 C 9.679688 4 10.398438 4.71875 10.398438 5.601562 C 10.398438 6.480469 9.679688 7.199219 8.800781 7.199219 Z M 22.398438 14.398438 L 22.398438 20 L 20.800781 20 L 20.800781 21.601562 C 20.800781 22.480469 20.078125 23.199219 19.199219 23.199219 C 18.320312 23.199219 17.601562 22.480469 17.601562 21.601562 L 17.601562 20 L 6.398438 20 L 6.398438 21.601562 C 6.398438 22.480469 5.679688 23.199219 4.800781 23.199219 C 3.921875 23.199219 3.199219 22.480469 3.199219 21.601562 L 3.199219 20 L 1.601562 20 L 1.601562 14.398438 C 1.601562 13.296875 2.367188 12.320312 3.441406 12.0625 L 5.695312 2.046875 C 5.824219 1.777344 6.097656 1.601562 6.398438 1.601562 L 17.601562 1.601562 C 17.921875 1.601562 18.207031 1.792969 18.335938 2.097656 L 20.558594 12.078125 C 21.632812 12.335938 22.398438 13.296875 22.398438 14.398438 Z M 4.800781 17.601562 C 5.679688 17.601562 6.398438 16.878906 6.398438 16 C 6.398438 15.121094 5.679688 14.398438 4.800781 14.398438 C 3.921875 14.398438 3.199219 15.121094 3.199219 16 C 3.199219 16.878906 3.921875 17.601562 4.800781 17.601562 Z M 19.199219 17.601562 C 20.078125 17.601562 20.800781 16.878906 20.800781 16 C 20.800781 15.121094 20.078125 14.398438 19.199219 14.398438 C 18.320312 14.398438 17.601562 15.121094 17.601562 16 C 17.601562 16.878906 18.320312 17.601562 19.199219 17.601562 Z M 19.199219 17.601562 "/>
</svg>
