<?xml version="1.0" encoding="UTF-8"?>
<svg xmlns="http://www.w3.org/2000/svg" xmlns:xlink="http://www.w3.org/1999/xlink" width="24" height="24" viewBox="0 0 24 24">
<path fill-rule="nonzero" fill="rgb(0%, 0%, 0%)" fill-opacity="1" d="M 17.601562 9.601562 C 18.480469 9.601562 19.199219 10.320312 19.199219 11.199219 L 19.199219 16 L 17.601562 16 L 17.601562 17.601562 C 17.601562 18.480469 16.878906 19.199219 16 19.199219 C 15.121094 19.199219 14.398438 18.480469 14.398438 17.601562 L 14.398438 16 L 9.601562 16 L 9.601562 17.601562 C 9.601562 18.480469 8.878906 19.199219 8 19.199219 C 7.121094 19.199219 6.398438 18.480469 6.398438 17.601562 L 6.398438 16 L 4.800781 16 L 4.800781 11.199219 C 4.800781 10.320312 5.519531 9.601562 6.398438 9.601562 L 7.824219 5.34375 C 7.9375 5.023438 8.238281 4.800781 8.574219 4.800781 L 15.425781 4.800781 C 15.761719 4.800781 16.0625 5.023438 16.175781 5.34375 Z M 8 14.398438 C 8.878906 14.398438 9.601562 13.679688 9.601562 12.800781 C 9.601562 11.921875 8.878906 11.199219 8 11.199219 C 7.121094 11.199219 6.398438 11.921875 6.398438 12.800781 C 6.398438 13.679688 7.121094 14.398438 8 14.398438 Z M 8 9.601562 L 16 9.601562 L 15.007812 6.398438 L 8.992188 6.398438 Z M 16 14.398438 C 16.878906 14.398438 17.601562 13.679688 17.601562 12.800781 C 17.601562 11.921875 16.878906 11.199219 16 11.199219 C 15.121094 11.199219 14.398438 11.921875 14.398438 12.800781 C 14.398438 13.679688 15.121094 14.398438 16 14.398438 Z M 18.398438 20.800781 L 17.601562 19.199219 L 20.800781 19.199219 L 22.398438 22.398438 L 1.601562 22.398438 L 3.199219 19.199219 L 6.398438 19.199219 L 5.601562 20.800781 Z M 18.398438 3.199219 L 5.601562 3.199219 L 6.398438 4.800781 L 3.199219 4.800781 L 1.601562 1.601562 L 22.398438 1.601562 L 20.800781 4.800781 L 17.601562 4.800781 Z M 18.398438 3.199219 "/>
</svg>
