<?xml version="1.0" encoding="UTF-8"?>
<svg xmlns="http://www.w3.org/2000/svg" xmlns:xlink="http://www.w3.org/1999/xlink" width="24" height="24" viewBox="0 0 24 24">
<path fill-rule="nonzero" fill="rgb(0%, 0%, 0%)" fill-opacity="1" d="M 17.601562 8 C 18.480469 8 19.199219 8.71875 19.199219 9.601562 L 19.199219 14.398438 L 17.601562 14.398438 L 17.601562 16 C 17.601562 16.878906 16.878906 17.601562 16 17.601562 C 15.121094 17.601562 14.398438 16.878906 14.398438 16 L 14.398438 14.398438 L 9.601562 14.398438 L 9.601562 16 C 9.601562 16.878906 8.878906 17.601562 8 17.601562 C 7.121094 17.601562 6.398438 16.878906 6.398438 16 L 6.398438 14.398438 L 4.800781 14.398438 L 4.800781 9.601562 C 4.800781 8.71875 5.519531 8 6.398438 8 L 7.824219 3.742188 C 7.9375 3.425781 8.238281 3.199219 8.574219 3.199219 L 15.425781 3.199219 C 15.761719 3.199219 16.0625 3.425781 16.175781 3.742188 Z M 8 12.800781 C 8.878906 12.800781 9.601562 12.078125 9.601562 11.199219 C 9.601562 10.320312 8.878906 9.601562 8 9.601562 C 7.121094 9.601562 6.398438 10.320312 6.398438 11.199219 C 6.398438 12.078125 7.121094 12.800781 8 12.800781 Z M 8 8 L 16 8 L 15.007812 4.800781 L 8.992188 4.800781 Z M 16 12.800781 C 16.878906 12.800781 17.601562 12.078125 17.601562 11.199219 C 17.601562 10.320312 16.878906 9.601562 16 9.601562 C 15.121094 9.601562 14.398438 10.320312 14.398438 11.199219 C 14.398438 12.078125 15.121094 12.800781 16 12.800781 Z M 18.398438 19.199219 L 17.601562 17.601562 L 20.800781 17.601562 L 22.398438 20.800781 L 1.601562 20.800781 L 3.199219 17.601562 L 6.398438 17.601562 L 5.601562 19.199219 Z M 18.398438 19.199219 "/>
</svg>
