<?xml version="1.0" encoding="UTF-8"?>
<svg xmlns="http://www.w3.org/2000/svg" xmlns:xlink="http://www.w3.org/1999/xlink" width="24" height="24" viewBox="0 0 24 24">
<path fill-rule="nonzero" fill="rgb(0%, 0%, 0%)" fill-opacity="1" d="M 13.710938 0 C 14.398438 0 14.398438 0.800781 14.398438 0.800781 L 14.398438 2.398438 C 14.398438 2.398438 15.199219 2.398438 15.199219 2.398438 C 16 2.398438 16 3.199219 16 3.199219 L 19.199219 3.199219 C 20.800781 3.199219 20.800781 3.199219 20.800781 4.800781 L 20.800781 12 C 20.800781 12 21.601562 12 21.601562 12.800781 C 21.601562 12.800781 22.398438 12.800781 22.398438 12.800781 L 22.398438 7.199219 C 21.808594 7.023438 21.601562 6.609375 21.601562 6 C 21.601562 5.40625 22.207031 4.800781 22.800781 4.800781 C 23.40625 4.800781 24 5.40625 24 6 C 24 6.609375 23.726562 6.976562 23.199219 7.199219 C 23.199219 7.199219 23.199219 14 23.199219 14 C 23.199219 14.398438 22.800781 14.398438 22.800781 14.398438 L 21.601562 14.398438 C 21.601562 15.199219 20.800781 15.199219 20.800781 15.199219 L 20.800781 22.398438 C 20.800781 24 20.800781 24 19.199219 24 C 19.199219 24 4.800781 24 4.800781 24 C 3.199219 24 3.199219 24 3.199219 22.398438 L 3.199219 4.800781 C 3.199219 3.199219 3.199219 3.199219 4.800781 3.199219 L 8 3.199219 C 8 3.199219 8 2.398438 8.800781 2.398438 C 8.800781 2.398438 9.601562 2.398438 9.601562 2.398438 L 9.601562 0.800781 C 9.601562 0.800781 9.601562 0 10.398438 0 Z M 16 20.800781 L 8 20.800781 L 8 22.398438 L 16 22.398438 Z M 16 16 L 14.398438 16 L 14.398438 17.601562 L 16 17.601562 Z M 9.601562 16 L 8 16 L 8 17.601562 L 9.601562 17.601562 Z M 12.800781 16 L 11.199219 16 L 11.199219 17.601562 L 12.800781 17.601562 Z M 19.199219 6.398438 L 14.800781 6.398438 L 14.800781 14.398438 L 19.199219 14.398438 Z M 14.113281 6.398438 L 9.808594 6.398438 L 9.808594 14.398438 L 14.113281 14.398438 Z M 9.199219 6.398438 L 4.800781 6.398438 C 4.800781 6.398438 4.800781 14.398438 4.800781 14.398438 L 9.199219 14.398438 Z M 11.199219 0.527344 C 10.398438 0.527344 10.398438 0.800781 10.398438 1.199219 C 10.398438 1.199219 10.398438 2.398438 10.398438 2.398438 C 10.800781 1.199219 11.601562 0.800781 12.800781 0.527344 C 12.800781 0.527344 11.199219 0.527344 11.199219 0.527344 Z M 11.199219 0.527344 "/>
<path fill-rule="nonzero" fill="rgb(0%, 0%, 0%)" fill-opacity="1" d="M 15.199219 7.601562 C 15.199219 7.601562 16 7.601562 16 7.601562 C 16 8 18.207031 7.601562 18.207031 7.601562 C 18.207031 7.601562 19.007812 7.601562 18.609375 8 C 18.207031 8.398438 17.40625 11.199219 17.808594 12.800781 C 17.808594 12.800781 16 12.800781 16 12.800781 C 16 10.800781 17.007812 9.199219 17.007812 9.199219 C 17.007812 9.199219 16 8.800781 16 9.199219 C 16 9.199219 15.199219 9.199219 15.199219 9.199219 C 15.199219 9.199219 15.199219 7.601562 15.199219 7.601562 Z M 15.199219 7.601562 "/>
<path fill-rule="nonzero" fill="rgb(0%, 0%, 0%)" fill-opacity="1" d="M 10.128906 7.601562 C 10.128906 7.601562 10.929688 7.601562 10.929688 7.601562 C 10.929688 8 13.199219 7.601562 13.199219 7.601562 C 13.199219 7.601562 14 7.601562 13.601562 8 C 13.199219 8.398438 12.398438 11.199219 12.800781 12.800781 C 12.800781 12.800781 10.929688 12.800781 10.929688 12.800781 C 10.929688 10.800781 12 9.199219 12 9.199219 C 12 9.199219 10.929688 8.800781 10.929688 9.199219 C 10.929688 9.199219 10.128906 9.199219 10.128906 9.199219 C 10.128906 9.199219 10.128906 7.601562 10.128906 7.601562 Z M 10.128906 7.601562 "/>
<path fill-rule="nonzero" fill="rgb(0%, 0%, 0%)" fill-opacity="1" d="M 5.199219 7.601562 C 5.199219 7.601562 6 7.601562 6 7.601562 C 6 8 8.207031 7.601562 8.207031 7.601562 C 8.207031 7.601562 9.007812 7.601562 8.609375 8 C 8.207031 8.398438 7.40625 11.199219 7.808594 12.800781 C 7.808594 12.800781 6 12.800781 6 12.800781 C 6 10.800781 7.007812 9.199219 7.007812 9.199219 C 7.007812 9.199219 6 8.800781 6 9.199219 C 6 9.199219 5.199219 9.199219 5.199219 9.199219 C 5.199219 9.199219 5.199219 7.601562 5.199219 7.601562 Z M 5.199219 7.601562 "/>
</svg>
