<?xml version="1.0" encoding="UTF-8"?>
<svg xmlns="http://www.w3.org/2000/svg" xmlns:xlink="http://www.w3.org/1999/xlink" width="24" height="24" viewBox="0 0 24 24">
<path fill-rule="nonzero" fill="rgb(0%, 0%, 0%)" fill-opacity="1" d="M 9.199219 16.800781 L 1.199219 16.800781 C 1.152344 16.800781 1.121094 16.800781 1.070312 16.800781 C 0.832031 16.769531 0.59375 16.671875 0.414062 16.511719 C 0.351562 16.449219 0.289062 16.382812 0.238281 16.320312 C 0.222656 16.304688 0.222656 16.289062 0.207031 16.289062 C 0.078125 16.097656 0 15.855469 0 15.601562 C 0 15.566406 0 15.535156 0 15.503906 C 0 15.503906 0 15.488281 0 15.488281 C 0.015625 15.3125 0.078125 15.136719 0.160156 14.992188 L 4.144531 7.839844 C 4.191406 7.726562 4.273438 7.632812 4.351562 7.550781 C 4.71875 7.183594 5.3125 7.089844 5.777344 7.34375 C 6 7.472656 6.160156 7.632812 6.257812 7.839844 L 9.902344 14.398438 L 22.800781 14.398438 C 23.457031 14.398438 24 14.945312 24 15.601562 C 24 16.257812 23.457031 16.800781 22.800781 16.800781 Z M 7.167969 14.398438 L 5.199219 10.863281 L 3.230469 14.398438 Z M 17.742188 7.839844 C 17.742188 7.824219 17.742188 7.824219 17.742188 7.824219 C 18.078125 7.230469 18.800781 7.023438 19.375 7.34375 C 19.601562 7.472656 19.761719 7.632812 19.855469 7.839844 L 23.855469 15.023438 C 24.175781 15.601562 23.96875 16.320312 23.375 16.65625 C 22.800781 16.976562 22.078125 16.769531 21.742188 16.175781 L 18.800781 10.863281 L 15.855469 16.175781 C 15.519531 16.769531 14.800781 16.976562 14.222656 16.65625 C 13.632812 16.320312 13.425781 15.601562 13.742188 15.023438 Z M 17.742188 7.839844 "/>
</svg>
