<?xml version="1.0" encoding="UTF-8"?>
<svg xmlns="http://www.w3.org/2000/svg" xmlns:xlink="http://www.w3.org/1999/xlink" width="24" height="24" viewBox="0 0 24 24">
<path fill-rule="nonzero" fill="rgb(0%, 0%, 0%)" fill-opacity="1" d="M 3.199219 1.601562 L 6 1.601562 C 6.257812 1.601562 6.496094 1.710938 6.640625 1.921875 L 11.199219 8 L 9.601562 16 L 14.398438 19.199219 L 15.710938 21.824219 C 15.808594 22.015625 15.726562 22.257812 15.535156 22.351562 C 15.472656 22.382812 15.40625 22.398438 15.359375 22.398438 L 3.199219 22.398438 C 2.320312 22.398438 1.601562 21.679688 1.601562 20.800781 L 1.601562 3.199219 C 1.601562 2.320312 2.320312 1.601562 3.199219 1.601562 Z M 15.089844 8.046875 L 18.6875 9.246094 C 18.929688 9.328125 19.121094 9.503906 19.199219 9.742188 L 20.414062 13.40625 C 20.558594 13.824219 20.335938 14.289062 19.902344 14.414062 L 16.175781 15.664062 C 15.984375 15.726562 15.761719 15.710938 15.566406 15.617188 L 13.246094 14.449219 C 12.910156 14.289062 12.734375 13.902344 12.816406 13.550781 L 14.0625 8.609375 C 14.160156 8.175781 14.609375 7.921875 15.023438 8.03125 C 15.054688 8.03125 15.070312 8.03125 15.089844 8.046875 Z M 17.601562 19.726562 L 17.601562 17.824219 C 17.601562 17.519531 17.777344 17.246094 18.046875 17.105469 L 20.207031 16.03125 C 20.542969 15.855469 20.976562 15.953125 21.199219 16.257812 L 22.6875 18.257812 C 22.960938 18.609375 22.878906 19.105469 22.527344 19.375 C 22.527344 19.375 22.511719 19.390625 22.496094 19.390625 L 21.007812 20.398438 C 20.863281 20.480469 20.71875 20.527344 20.558594 20.527344 L 18.398438 20.527344 C 17.953125 20.527344 17.601562 20.175781 17.601562 19.726562 Z M 17.601562 19.726562 "/>
</svg>
