<?xml version="1.0" encoding="UTF-8"?>
<svg xmlns="http://www.w3.org/2000/svg" xmlns:xlink="http://www.w3.org/1999/xlink" width="24" height="24" viewBox="0 0 24 24">
<path fill-rule="nonzero" fill="rgb(0%, 0%, 0%)" fill-opacity="1" d="M 3.085938 10.34375 C 2.980469 10.558594 2.910156 10.796875 2.867188 11.050781 C 2.847656 11.175781 2.835938 11.304688 2.835938 11.429688 L 2.929688 17.25 L 0.910156 21.582031 C 0.84375 21.710938 0.792969 21.859375 0.769531 22.011719 C 0.65625 22.726562 1.152344 23.394531 1.871094 23.503906 C 2.429688 23.59375 2.960938 23.308594 3.214844 22.839844 L 5.4375 18.105469 C 5.488281 17.996094 5.523438 17.878906 5.542969 17.753906 L 5.558594 17.578125 L 5.539062 13.976562 L 8.953125 15.460938 L 9.503906 18.980469 C 9.613281 19.492188 10.035156 19.90625 10.589844 19.992188 C 11.308594 20.097656 11.976562 19.601562 12.085938 18.898438 C 12.105469 18.777344 12.105469 18.652344 12.089844 18.539062 L 11.417969 14.292969 C 11.335938 13.886719 11.0625 13.53125 10.683594 13.355469 L 7.636719 12.003906 L 9.582031 8.640625 L 10.546875 9.859375 C 10.644531 9.96875 10.769531 10.0625 10.914062 10.117188 L 14.585938 11.1875 C 15.078125 11.292969 15.574219 11.039062 15.761719 10.570312 C 15.980469 10.035156 15.726562 9.4375 15.195312 9.226562 L 15.144531 9.207031 L 11.957031 8.269531 L 9.558594 5.398438 C 9.195312 5.019531 8.71875 4.746094 8.160156 4.660156 C 7.1875 4.515625 6.257812 4.976562 5.773438 5.765625 L 3.105469 10.359375 Z M 13.617188 18.6875 L 13.386719 20.429688 L 7.070312 21.960938 L 7.132812 23.039062 L 22.535156 23.039062 C 23.082031 23.039062 23.523438 22.601562 23.523438 22.0625 L 23.503906 1.386719 L 21.394531 0.898438 L 20.179688 6.332031 L 18.152344 7.179688 L 16.359375 12.191406 L 18.066406 16.027344 L 17.585938 17.5 L 13.621094 18.691406 Z M 9.332031 4.390625 C 10.414062 4.390625 11.300781 3.511719 11.300781 2.433594 C 11.300781 1.355469 10.414062 0.476562 9.335938 0.476562 C 8.257812 0.476562 7.367188 1.355469 7.367188 2.433594 C 7.367188 3.511719 8.25 4.390625 9.335938 4.390625 Z M 5.417969 4.699219 C 5.566406 4.433594 5.480469 4.089844 5.210938 3.9375 L 4.261719 3.382812 C 3.988281 3.234375 3.648438 3.320312 3.488281 3.589844 L 0.558594 8.628906 C 0.40625 8.894531 0.496094 9.234375 0.761719 9.394531 L 1.71875 9.941406 C 1.988281 10.09375 2.328125 10.003906 2.480469 9.738281 L 5.414062 4.699219 Z M 5.417969 4.699219 "/>
</svg>
