<?xml version="1.0" encoding="UTF-8"?>
<svg xmlns="http://www.w3.org/2000/svg" xmlns:xlink="http://www.w3.org/1999/xlink" width="24" height="24" viewBox="0 0 24 24">
<path fill-rule="nonzero" fill="rgb(0%, 0%, 0%)" fill-opacity="1" d="M 17.425781 7.214844 C 18.128906 7.34375 17.871094 7.183594 18.257812 7.535156 C 18.511719 7.886719 18.433594 8.398438 18.0625 8.65625 C 17.359375 9.152344 17.359375 9.152344 15.265625 10.65625 C 13.167969 12.144531 13.167969 12.144531 12.464844 12.65625 C 12.207031 12.832031 11.855469 12.847656 11.585938 12.6875 C 11.007812 12.335938 11.375 12.558594 10.464844 12.015625 C 9.503906 11.441406 8.542969 10.863281 7.585938 10.289062 C 7.214844 10.0625 7.089844 9.566406 7.3125 9.183594 C 7.535156 8.816406 8.03125 8.6875 8.414062 8.910156 C 8.992188 9.265625 8.625 9.039062 9.535156 9.585938 C 11.519531 10.769531 10.703125 10.289062 11.96875 11.039062 C 12.753906 10.480469 13.550781 9.921875 14.335938 9.34375 C 16.433594 7.855469 16.433594 7.855469 17.136719 7.34375 Z M 12 2.398438 C 17.296875 2.398438 21.601562 6.703125 21.601562 12 C 21.601562 17.296875 17.296875 21.601562 12 21.601562 C 6.703125 21.601562 2.398438 17.296875 2.398438 12 C 2.398438 6.703125 6.703125 2.398438 12 2.398438 Z M 12 0 C 5.375 0 0 5.375 0 12 C 0 18.625 5.375 24 12 24 C 18.625 24 24 18.625 24 12 C 24 5.375 18.625 0 12 0 Z M 12 0 "/>
</svg>
