<?xml version="1.0" encoding="UTF-8"?>
<svg xmlns="http://www.w3.org/2000/svg" xmlns:xlink="http://www.w3.org/1999/xlink" width="24" height="24" viewBox="0 0 24 24">
<path fill-rule="nonzero" fill="rgb(0%, 0%, 0%)" fill-opacity="1" d="M 22.078125 3.277344 C 14.238281 3.210938 12.542969 1.167969 9.207031 1.167969 C 5.234375 1.167969 2.902344 2.257812 1.902344 2.875 C 1.160156 3.273438 1.335938 2.503906 1.335938 2.238281 C 1.335938 1.96875 1.777344 1.707031 1.777344 1.707031 C 2.695312 1.113281 5.058594 -0.078125 9.207031 -0.078125 C 12.550781 -0.078125 14.246094 1.976562 22.117188 2.03125 C 22.117188 2.03125 22.714844 1.96875 22.714844 2.503906 C 22.714844 3.039062 22.675781 3.277344 22.078125 3.277344 Z M 22.078125 3.277344 "/>
<path fill-rule="nonzero" fill="rgb(0%, 0%, 0%)" fill-opacity="1" d="M 22.714844 23.152344 C 22.714844 22.613281 22.117188 22.675781 22.117188 22.675781 C 14.246094 22.617188 12.550781 20.566406 9.207031 20.566406 C 5.058594 20.566406 2.695312 21.757812 1.777344 22.355469 C 1.777344 22.355469 1.335938 22.613281 1.335938 22.882812 C 1.335938 23.152344 1.160156 23.917969 1.902344 23.519531 C 2.902344 22.90625 5.234375 21.8125 9.207031 21.8125 C 12.542969 21.8125 14.238281 23.859375 22.078125 23.921875 C 22.675781 23.921875 22.714844 23.6875 22.714844 23.152344 Z M 22.714844 23.152344 "/>
<path fill-rule="nonzero" fill="rgb(0%, 0%, 0%)" fill-opacity="1" d="M 22.714844 5.054688 C 22.714844 4.519531 22.117188 4.578125 22.117188 4.578125 C 14.246094 4.523438 12.550781 2.46875 9.207031 2.46875 C 5.058594 2.46875 2.695312 3.664062 1.777344 4.257812 C 1.777344 4.257812 1.335938 4.519531 1.335938 4.789062 L 1.335938 20.304688 C 1.335938 20.570312 1.160156 21.339844 1.902344 20.941406 C 2.902344 20.324219 5.234375 19.234375 9.207031 19.234375 C 12.542969 19.234375 14.238281 21.277344 22.078125 21.34375 C 22.675781 21.34375 22.714844 21.109375 22.714844 20.574219 Z M 22.714844 5.054688 "/>
</svg>
