<?xml version="1.0" encoding="UTF-8"?>
<svg xmlns="http://www.w3.org/2000/svg" xmlns:xlink="http://www.w3.org/1999/xlink" width="24" height="24" viewBox="0 0 24 24">
<path fill-rule="nonzero" fill="rgb(0%, 0%, 0%)" fill-opacity="1" d="M 8 0 C 8.816406 0 9.503906 0.625 9.585938 1.40625 L 9.601562 1.601562 L 9.601562 4.800781 C 10.480469 4.800781 11.199219 5.519531 11.199219 6.398438 C 11.199219 7.214844 10.574219 7.902344 9.792969 7.984375 L 9.601562 8 L 9.601562 16 C 10.414062 16 11.105469 15.375 11.183594 14.59375 L 11.199219 14.398438 L 11.199219 9.601562 C 11.199219 8.71875 11.921875 8 12.800781 8 C 13.617188 8 14.304688 8.625 14.382812 9.40625 L 14.398438 9.601562 L 14.398438 11.199219 C 15.28125 11.199219 16 11.921875 16 12.800781 C 16 13.617188 15.375 14.304688 14.59375 14.382812 L 14.398438 14.398438 C 14.398438 17.054688 12.257812 19.199219 9.601562 19.199219 L 9.601562 20.847656 C 10.351562 20.816406 11.152344 20.800781 12 20.800781 C 14.128906 20.800781 16 20.910156 17.601562 21.121094 L 17.601562 19.199219 L 16.800781 19.199219 C 16.351562 19.199219 16 18.847656 16 18.398438 C 16 18 16.289062 17.679688 16.65625 17.617188 L 16.800781 17.601562 L 17.601562 17.601562 L 17.601562 12.800781 C 17.601562 11.921875 18.320312 11.199219 19.199219 11.199219 C 20.015625 11.199219 20.703125 11.824219 20.785156 12.609375 L 20.800781 12.800781 L 21.601562 12.800781 C 22.046875 12.800781 22.398438 13.152344 22.398438 13.601562 C 22.398438 14 22.113281 14.320312 21.742188 14.382812 L 21.601562 14.398438 L 20.800781 14.398438 L 20.800781 16 L 23.199219 16 C 23.648438 16 24 16.351562 24 16.800781 C 24 17.199219 23.710938 17.519531 23.34375 17.585938 L 23.199219 17.601562 L 20.800781 17.601562 L 20.800781 19.199219 L 21.601562 19.199219 C 22.046875 19.199219 22.398438 19.550781 22.398438 20 C 22.398438 20.398438 22.113281 20.71875 21.742188 20.785156 L 21.601562 20.800781 L 20.800781 20.800781 L 20.800781 21.777344 C 20.992188 21.824219 21.167969 21.886719 21.34375 21.953125 C 21.96875 22.175781 22.398438 22.785156 22.398438 23.457031 L 22.398438 24 L 1.601562 24 L 1.601562 23.457031 C 1.601562 22.785156 2.03125 22.175781 2.65625 21.953125 C 2.847656 21.886719 3.023438 21.824219 3.214844 21.777344 L 3.199219 21.601562 L 3.199219 20.800781 L 2.398438 20.800781 C 1.953125 20.800781 1.601562 20.449219 1.601562 20 C 1.601562 19.601562 1.886719 19.28125 2.257812 19.214844 L 2.398438 19.199219 L 3.199219 19.199219 L 3.199219 18.398438 C 3.199219 17.953125 3.550781 17.601562 4 17.601562 C 4.398438 17.601562 4.71875 17.886719 4.785156 18.257812 L 4.800781 18.398438 L 4.800781 21.375 C 5.296875 21.28125 5.839844 21.183594 6.398438 21.121094 L 6.398438 16 C 3.839844 16 1.761719 14 1.617188 11.488281 L 1.601562 11.199219 L 1.601562 9.601562 C 0.71875 9.601562 0 8.878906 0 8 C 0 7.183594 0.625 6.496094 1.40625 6.414062 L 1.601562 6.398438 L 1.601562 4.800781 C 1.601562 3.921875 2.320312 3.199219 3.199219 3.199219 C 4.015625 3.199219 4.703125 3.824219 4.785156 4.609375 L 4.800781 4.800781 L 4.800781 11.199219 C 4.800781 12.015625 5.425781 12.703125 6.207031 12.785156 L 6.398438 12.800781 L 6.398438 1.601562 C 6.398438 0.71875 7.121094 0 8 0 Z M 13.039062 2.625 C 14.078125 0.542969 16.558594 -0.351562 18.671875 0.542969 L 18.929688 0.65625 L 20.800781 1.601562 L 19.761719 2.640625 C 19.695312 2.703125 19.664062 2.785156 19.664062 2.863281 C 19.664062 3.054688 19.824219 3.199219 20 3.199219 C 20.414062 3.199219 20.832031 3.121094 21.230469 2.976562 L 21.519531 2.847656 L 24 1.601562 L 23.199219 4 L 24 6.398438 L 21.519531 5.152344 C 21.039062 4.929688 20.527344 4.800781 20 4.800781 C 19.921875 4.800781 19.824219 4.832031 19.761719 4.894531 C 19.664062 5.007812 19.648438 5.152344 19.695312 5.28125 L 19.761719 5.359375 L 20.800781 6.398438 L 19.808594 6.894531 C 16.878906 8.367188 13.328125 7.359375 11.566406 4.640625 L 11.390625 4.335938 L 11.199219 4 L 12.800781 3.199219 L 12.910156 2.910156 Z M 13.039062 2.625 "/>
</svg>
