<?xml version="1.0" encoding="UTF-8"?>
<svg xmlns="http://www.w3.org/2000/svg" xmlns:xlink="http://www.w3.org/1999/xlink" width="24" height="24" viewBox="0 0 24 24">
<path fill-rule="nonzero" fill="rgb(0%, 0%, 0%)" fill-opacity="1" d="M 8.6875 11.777344 L 4.273438 9.289062 L 5.808594 6.59375 L 10.230469 9.085938 Z M 17.503906 14.078125 L 10.042969 9.875 L 9.273438 11.222656 L 16.738281 15.425781 Z M 18.414062 14.59375 L 17.644531 15.941406 L 21.496094 18.105469 L 22.261719 16.761719 Z M 17.375 15.941406 C 17.320312 16.046875 17.15625 16.070312 17.015625 15.992188 C 16.875 15.917969 16.8125 15.769531 16.871094 15.65625 L 17.773438 14.082031 C 17.835938 13.976562 18 13.949219 18.132812 14.03125 C 18.273438 14.105469 18.335938 14.261719 18.273438 14.371094 L 17.375 15.945312 Z M 23.054688 16.804688 C 22.902344 16.71875 22.734375 16.679688 22.570312 16.683594 L 21.585938 18.40625 C 21.667969 18.550781 21.78125 18.675781 21.941406 18.761719 C 22.371094 19.007812 22.921875 18.867188 23.160156 18.453125 L 23.414062 18.003906 C 23.65625 17.585938 23.496094 17.050781 23.058594 16.804688 Z M 10.652344 8.574219 C 10.535156 8.785156 10.273438 8.851562 10.0625 8.734375 L 6.191406 6.558594 C 5.980469 6.441406 5.914062 6.175781 6.027344 5.972656 C 6.148438 5.765625 6.414062 5.691406 6.621094 5.8125 L 10.484375 7.992188 C 10.691406 8.113281 10.765625 8.371094 10.644531 8.578125 Z M 11.195312 7.628906 C 11.074219 7.839844 10.808594 7.90625 10.601562 7.789062 L 6.734375 5.609375 C 6.527344 5.496094 6.457031 5.230469 6.570312 5.027344 C 6.6875 4.820312 6.949219 4.742188 7.160156 4.863281 L 11.03125 7.042969 C 11.242188 7.160156 11.308594 7.421875 11.195312 7.628906 Z M 7.925781 13.359375 C 7.804688 13.566406 7.539062 13.636719 7.335938 13.515625 L 3.464844 11.335938 C 3.257812 11.222656 3.1875 10.957031 3.300781 10.753906 C 3.421875 10.550781 3.6875 10.472656 3.894531 10.59375 L 7.761719 12.773438 C 7.96875 12.886719 8.039062 13.152344 7.925781 13.359375 Z M 8.46875 12.40625 C 8.351562 12.621094 8.089844 12.6875 7.875 12.570312 L 4.007812 10.390625 C 3.800781 10.273438 3.730469 10.011719 3.84375 9.804688 C 3.964844 9.601562 4.230469 9.527344 4.433594 9.648438 L 8.304688 11.828125 C 8.511719 11.945312 8.585938 12.207031 8.46875 12.414062 Z M 1.976562 16.285156 L 8.792969 16.285156 L 8.792969 17.070312 L 1.976562 17.070312 Z M 10.285156 17.921875 C 10.242188 17.660156 10.019531 17.460938 9.742188 17.460938 L 1.042969 17.460938 C 0.769531 17.460938 0.539062 17.664062 0.5 17.921875 L 0.488281 17.921875 L 0.488281 19.203125 L 10.304688 19.203125 L 10.304688 17.921875 Z M 10.285156 17.921875 "/>
</svg>
