<?xml version="1.0" encoding="UTF-8"?>
<svg xmlns="http://www.w3.org/2000/svg" xmlns:xlink="http://www.w3.org/1999/xlink" width="24" height="24" viewBox="0 0 24 24">
<path fill-rule="nonzero" fill="rgb(0%, 0%, 0%)" fill-opacity="1" d="M 22.398438 2.398438 C 23.199219 2.398438 23.199219 4.800781 22.398438 4.800781 C 22.398438 4.800781 21.601562 4.800781 21.601562 4.800781 L 21.601562 11.199219 C 21.601562 12 20 12 20 11.199219 L 20 4.800781 L 12 4.800781 L 13.601562 20 C 13.601562 20 16 20 16 20 C 16.800781 20 16.800781 22.398438 16 22.398438 C 16 22.398438 3.199219 22.398438 3.199219 22.398438 C 2.398438 22.398438 2.398438 20 3.199219 20 C 3.199219 20 5.601562 20 5.601562 20 L 7.199219 4.800781 C 7.199219 4.800781 4 4.800781 4 4.800781 C 3.199219 4.800781 3.199219 2.398438 4 2.398438 C 4 2.398438 22.398438 2.398438 22.398438 2.398438 Z M 11.199219 16.398438 L 8 16.398438 L 7.601562 20 L 11.601562 20 Z M 10.800781 10.800781 L 8.398438 10.800781 L 8.160156 14 L 11.039062 14 Z M 10.160156 4.800781 L 8.960938 4.800781 L 8.640625 8.398438 L 10.398438 8.398438 Z M 10.160156 4.800781 "/>
</svg>
