<?xml version="1.0" encoding="UTF-8"?>
<svg xmlns="http://www.w3.org/2000/svg" xmlns:xlink="http://www.w3.org/1999/xlink" width="24" height="24" viewBox="0 0 24 24">
<path fill-rule="nonzero" fill="rgb(0%, 0%, 0%)" fill-opacity="1" d="M 9.601562 9.601562 L 8.398438 9.601562 C 8.175781 9.601562 8 9.425781 8 9.199219 L 8 8.398438 C 8 8.175781 8.175781 8 8.398438 8 L 9.601562 8 L 9.601562 6.398438 L 8.398438 6.398438 C 8.175781 6.398438 8 6.222656 8 6 L 8 5.199219 C 8 4.976562 8.175781 4.800781 8.398438 4.800781 L 9.601562 4.800781 L 9.601562 3.199219 L 8.398438 3.199219 C 8.175781 3.199219 8 3.023438 8 2.800781 L 8 2 C 8 1.777344 8.175781 1.601562 8.398438 1.601562 L 9.601562 1.601562 L 9.601562 0 L 11.199219 0 L 11.199219 1.601562 L 12.800781 1.601562 L 12.800781 0 L 14.398438 0 L 14.398438 1.601562 L 15.601562 1.601562 C 15.824219 1.601562 16 1.777344 16 2 L 16 2.800781 C 16 3.023438 15.824219 3.199219 15.601562 3.199219 L 14.398438 3.199219 L 14.398438 4.800781 L 15.601562 4.800781 C 15.824219 4.800781 16 4.976562 16 5.199219 L 16 6 C 16 6.222656 15.824219 6.398438 15.601562 6.398438 L 14.398438 6.398438 L 14.398438 8 L 15.601562 8 C 15.824219 8 16 8.175781 16 8.398438 L 16 9.199219 C 16 9.425781 15.824219 9.601562 15.601562 9.601562 L 14.398438 9.601562 L 14.398438 11.199219 L 15.601562 11.199219 C 15.824219 11.199219 16 11.375 16 11.601562 L 16 12.398438 C 16 12.625 15.824219 12.800781 15.601562 12.800781 L 14.398438 12.800781 L 14.398438 14.398438 L 15.601562 14.398438 C 15.824219 14.398438 16 14.574219 16 14.800781 L 16 15.601562 C 16 15.824219 15.824219 16 15.601562 16 L 14.398438 16 L 14.398438 17.601562 L 15.601562 17.601562 C 15.824219 17.601562 16 17.777344 16 18 L 16 18.800781 C 16 19.023438 15.824219 19.199219 15.601562 19.199219 L 14.398438 19.199219 L 14.398438 20.800781 L 15.601562 20.800781 C 15.824219 20.800781 16 20.976562 16 21.199219 L 16 22 C 16 22.222656 15.824219 22.398438 15.601562 22.398438 L 14.398438 22.398438 L 14.398438 24 L 12.800781 24 L 12.800781 22.398438 L 11.199219 22.398438 L 11.199219 24 L 9.601562 24 L 9.601562 22.398438 L 8.398438 22.398438 C 8.175781 22.398438 8 22.222656 8 22 L 8 21.199219 C 8 20.976562 8.175781 20.800781 8.398438 20.800781 L 9.601562 20.800781 L 9.601562 19.199219 L 8.398438 19.199219 C 8.175781 19.199219 8 19.023438 8 18.800781 L 8 18 C 8 17.777344 8.175781 17.601562 8.398438 17.601562 L 9.601562 17.601562 L 9.601562 16 L 8.398438 16 C 8.175781 16 8 15.824219 8 15.601562 L 8 14.800781 C 8 14.574219 8.175781 14.398438 8.398438 14.398438 L 9.601562 14.398438 L 9.601562 12.800781 L 8.398438 12.800781 C 8.175781 12.800781 8 12.625 8 12.398438 L 8 11.601562 C 8 11.375 8.175781 11.199219 8.398438 11.199219 L 9.601562 11.199219 Z M 12.800781 9.601562 L 11.199219 9.601562 L 11.199219 11.199219 L 12.800781 11.199219 Z M 12.800781 8 L 12.800781 6.398438 L 11.199219 6.398438 L 11.199219 8 Z M 12.800781 12.800781 L 11.199219 12.800781 L 11.199219 14.398438 L 12.800781 14.398438 Z M 12.800781 16 L 11.199219 16 L 11.199219 17.601562 L 12.800781 17.601562 Z M 12.800781 19.199219 L 11.199219 19.199219 L 11.199219 20.800781 L 12.800781 20.800781 Z M 11.199219 4.800781 L 12.800781 4.800781 L 12.800781 3.199219 L 11.199219 3.199219 Z M 0 12.753906 L 0 8 L 7.199219 8 L 7.199219 9.601562 L 7.054688 9.601562 L 3.617188 14.398438 L 5.984375 14.398438 L 7.199219 12.6875 L 7.199219 16 L 0 16 L 0 14.398438 L 1.183594 14.398438 L 4.609375 9.601562 L 2.257812 9.601562 Z M 24 11.246094 L 24 16 L 16.800781 16 L 16.800781 14.398438 L 16.945312 14.398438 L 20.382812 9.601562 L 18.015625 9.601562 L 16.800781 11.3125 L 16.800781 8 L 24 8 L 24 9.601562 L 22.816406 9.601562 L 19.390625 14.398438 L 21.742188 14.398438 Z M 24 11.246094 "/>
</svg>
