<?xml version="1.0" encoding="UTF-8"?>
<svg xmlns="http://www.w3.org/2000/svg" xmlns:xlink="http://www.w3.org/1999/xlink" width="24" height="24" viewBox="0 0 24 24">
<path fill-rule="nonzero" fill="rgb(0%, 0%, 0%)" fill-opacity="1" d="M 8.800781 2.398438 C 8.800781 5.601562 4 5.601562 4 2.398438 C 4 -0.800781 8.800781 -0.800781 8.800781 2.398438 Z M 8.800781 2.398438 "/>
<path fill-rule="nonzero" fill="rgb(0%, 0%, 0%)" fill-opacity="1" d="M 20 2.398438 C 20 5.601562 15.199219 5.601562 15.199219 2.398438 C 15.199219 -0.800781 20 -0.800781 20 2.398438 Z M 20 2.398438 "/>
<path fill-rule="nonzero" fill="rgb(0%, 0%, 0%)" fill-opacity="1" d="M 8.800781 21.601562 C 8.800781 24.800781 4 24.800781 4 21.601562 C 4 18.398438 8.800781 18.398438 8.800781 21.601562 Z M 8.800781 21.601562 "/>
<path fill-rule="nonzero" fill="rgb(0%, 0%, 0%)" fill-opacity="1" d="M 20 21.601562 C 20 24.800781 15.199219 24.800781 15.199219 21.601562 C 15.199219 18.398438 20 18.398438 20 21.601562 Z M 20 21.601562 "/>
<path fill-rule="nonzero" fill="rgb(0%, 0%, 0%)" fill-opacity="1" d="M 8.800781 8.800781 C 8.800781 12 4 12 4 8.800781 C 4 5.601562 8.800781 5.601562 8.800781 8.800781 Z M 8.800781 8.800781 "/>
<path fill-rule="nonzero" fill="rgb(0%, 0%, 0%)" fill-opacity="1" d="M 20 8.800781 C 20 12 15.199219 12 15.199219 8.800781 C 15.199219 5.601562 20 5.601562 20 8.800781 Z M 20 8.800781 "/>
<path fill-rule="nonzero" fill="rgb(0%, 0%, 0%)" fill-opacity="1" d="M 8.800781 15.199219 C 8.800781 18.398438 4 18.398438 4 15.199219 C 4 12 8.800781 12 8.800781 15.199219 Z M 8.800781 15.199219 "/>
<path fill-rule="nonzero" fill="rgb(0%, 0%, 0%)" fill-opacity="1" d="M 20 15.199219 C 20 18.398438 15.199219 18.398438 15.199219 15.199219 C 15.199219 12 20 12 20 15.199219 Z M 20 15.199219 "/>
</svg>
