<?xml version="1.0" encoding="UTF-8"?>
<svg xmlns="http://www.w3.org/2000/svg" xmlns:xlink="http://www.w3.org/1999/xlink" width="24" height="24" viewBox="0 0 24 24">
<path fill-rule="nonzero" fill="rgb(0%, 0%, 0%)" fill-opacity="1" d="M 8.800781 11.199219 L 8 11.199219 L 8 12.800781 L 8.800781 12.800781 L 8.800781 16 L 0 16 L 0 8 L 8.800781 8 Z M 1.601562 11.199219 L 1.601562 12.800781 L 4.800781 12.800781 L 4.800781 11.199219 Z M 15.199219 12.800781 L 16 12.800781 L 16 11.199219 L 15.199219 11.199219 L 15.199219 8 L 24 8 L 24 16 L 15.199219 16 Z M 19.199219 11.199219 L 19.199219 12.800781 L 22.398438 12.800781 L 22.398438 11.199219 Z M 9.601562 0 L 11.199219 0 L 11.199219 24 L 9.601562 24 Z M 12.800781 0 L 14.398438 0 L 14.398438 24 L 12.800781 24 Z M 12.800781 0 "/>
</svg>
