<?xml version="1.0" encoding="UTF-8"?>
<svg xmlns="http://www.w3.org/2000/svg" xmlns:xlink="http://www.w3.org/1999/xlink" width="24" height="24" viewBox="0 0 24 24">
<path fill-rule="nonzero" fill="rgb(0%, 0%, 0%)" fill-opacity="1" d="M 4.800781 1.601562 C 4.800781 1.199219 5.199219 0.800781 5.601562 0.800781 L 10.398438 0.800781 C 10.800781 0.800781 11.199219 1.199219 11.199219 1.601562 L 11.199219 3.199219 C 11.199219 3.601562 10.800781 4 10.398438 4 L 5.601562 4 C 5.199219 4 4.800781 3.601562 4.800781 3.199219 Z M 4.800781 1.601562 "/>
<path fill-rule="nonzero" fill="rgb(0%, 0%, 0%)" fill-opacity="1" d="M 12.800781 1.601562 C 12.800781 1.199219 13.199219 0.800781 13.601562 0.800781 L 18.398438 0.800781 C 18.800781 0.800781 19.199219 1.199219 19.199219 1.601562 L 19.199219 3.199219 C 19.199219 3.601562 18.800781 4 18.398438 4 L 13.601562 4 C 13.199219 4 12.800781 3.601562 12.800781 3.199219 Z M 12.800781 1.601562 "/>
<path fill-rule="nonzero" fill="rgb(0%, 0%, 0%)" fill-opacity="1" d="M 9.601562 6.398438 C 9.601562 6 10 5.601562 10.398438 5.601562 L 13.601562 5.601562 C 14 5.601562 14.398438 6 14.398438 6.398438 L 14.398438 8 C 14.398438 8.398438 14 8.800781 13.601562 8.800781 L 10.398438 8.800781 C 10 8.800781 9.601562 8.398438 9.601562 8 Z M 9.601562 6.398438 "/>
<path fill-rule="nonzero" fill="rgb(0%, 0%, 0%)" fill-opacity="1" d="M 16 6.398438 C 16 6 16.398438 5.601562 16.800781 5.601562 L 18.398438 5.601562 C 18.800781 5.601562 19.199219 6 19.199219 6.398438 L 19.199219 8 C 19.199219 8.398438 18.800781 8.800781 18.398438 8.800781 L 16.800781 8.800781 C 16.398438 8.800781 16 8.398438 16 8 Z M 16 6.398438 "/>
<path fill-rule="nonzero" fill="rgb(0%, 0%, 0%)" fill-opacity="1" d="M 4.800781 6.398438 C 4.800781 6 5.199219 5.601562 5.601562 5.601562 L 7.199219 5.601562 C 7.601562 5.601562 8 6 8 6.398438 L 8 8 C 8 8.398438 7.601562 8.800781 7.199219 8.800781 L 5.601562 8.800781 C 5.199219 8.800781 4.800781 8.398438 4.800781 8 Z M 4.800781 6.398438 "/>
<path fill-rule="nonzero" fill="rgb(0%, 0%, 0%)" fill-opacity="1" d="M 4.800781 11.199219 C 4.800781 10.800781 5.199219 10.398438 5.601562 10.398438 L 10.398438 10.398438 C 10.800781 10.398438 11.199219 10.800781 11.199219 11.199219 L 11.199219 12.800781 C 11.199219 13.199219 10.800781 13.601562 10.398438 13.601562 L 5.601562 13.601562 C 5.199219 13.601562 4.800781 13.199219 4.800781 12.800781 Z M 4.800781 11.199219 "/>
<path fill-rule="nonzero" fill="rgb(0%, 0%, 0%)" fill-opacity="1" d="M 12.800781 11.199219 C 12.800781 10.800781 13.199219 10.398438 13.601562 10.398438 L 18.398438 10.398438 C 18.800781 10.398438 19.199219 10.800781 19.199219 11.199219 L 19.199219 12.800781 C 19.199219 13.199219 18.800781 13.601562 18.398438 13.601562 L 13.601562 13.601562 C 13.199219 13.601562 12.800781 13.199219 12.800781 12.800781 Z M 12.800781 11.199219 "/>
<path fill-rule="nonzero" fill="rgb(0%, 0%, 0%)" fill-opacity="1" d="M 9.601562 16 C 9.601562 15.601562 10 15.199219 10.398438 15.199219 L 13.601562 15.199219 C 14 15.199219 14.398438 15.601562 14.398438 16 L 14.398438 17.601562 C 14.398438 18 14 18.398438 13.601562 18.398438 L 10.398438 18.398438 C 10 18.398438 9.601562 18 9.601562 17.601562 Z M 9.601562 16 "/>
<path fill-rule="nonzero" fill="rgb(0%, 0%, 0%)" fill-opacity="1" d="M 16 16 C 16 15.601562 16.398438 15.199219 16.800781 15.199219 L 18.398438 15.199219 C 18.800781 15.199219 19.199219 15.601562 19.199219 16 L 19.199219 17.601562 C 19.199219 18 18.800781 18.398438 18.398438 18.398438 L 16.800781 18.398438 C 16.398438 18.398438 16 18 16 17.601562 Z M 16 16 "/>
<path fill-rule="nonzero" fill="rgb(0%, 0%, 0%)" fill-opacity="1" d="M 4.800781 16 C 4.800781 15.601562 5.199219 15.199219 5.601562 15.199219 L 7.199219 15.199219 C 7.601562 15.199219 8 15.601562 8 16 L 8 17.601562 C 8 18 7.601562 18.398438 7.199219 18.398438 L 5.601562 18.398438 C 5.199219 18.398438 4.800781 18 4.800781 17.601562 Z M 4.800781 16 "/>
<path fill-rule="nonzero" fill="rgb(0%, 0%, 0%)" fill-opacity="1" d="M 4.800781 20.800781 C 4.800781 20.398438 5.199219 20 5.601562 20 L 10.398438 20 C 10.800781 20 11.199219 20.398438 11.199219 20.800781 L 11.199219 22.398438 C 11.199219 22.800781 10.800781 23.199219 10.398438 23.199219 L 5.601562 23.199219 C 5.199219 23.199219 4.800781 22.800781 4.800781 22.398438 Z M 4.800781 20.800781 "/>
<path fill-rule="nonzero" fill="rgb(0%, 0%, 0%)" fill-opacity="1" d="M 12.800781 20.800781 C 12.800781 20.398438 13.199219 20 13.601562 20 L 18.398438 20 C 18.800781 20 19.199219 20.398438 19.199219 20.800781 L 19.199219 22.398438 C 19.199219 22.800781 18.800781 23.199219 18.398438 23.199219 L 13.601562 23.199219 C 13.199219 23.199219 12.800781 22.800781 12.800781 22.398438 Z M 12.800781 20.800781 "/>
</svg>
