<?xml version="1.0" encoding="UTF-8"?>
<svg xmlns="http://www.w3.org/2000/svg" xmlns:xlink="http://www.w3.org/1999/xlink" width="24" height="24" viewBox="0 0 24 24">
<path fill-rule="nonzero" fill="rgb(0%, 0%, 0%)" fill-opacity="1" d="M 4.832031 15.183594 C 4.144531 14.878906 3.152344 14.238281 1.902344 13.296875 L 1.601562 13.070312 L 1.601562 2.398438 C 1.601562 1.953125 1.953125 1.601562 2.398438 1.601562 L 11.199219 1.601562 L 11.199219 3.648438 C 11.199219 8.335938 8.800781 12.6875 4.832031 15.183594 Z M 8 22.398438 L 2.398438 22.398438 C 1.953125 22.398438 1.601562 22.046875 1.601562 21.601562 L 1.601562 15.054688 C 2.414062 15.664062 3.425781 16.238281 4.59375 16.800781 L 4.878906 16.960938 C 6.816406 18.097656 8 20.160156 8 22.398438 Z M 19.167969 15.183594 C 15.199219 12.6875 12.800781 8.335938 12.800781 3.648438 L 12.800781 1.601562 L 21.601562 1.601562 C 22.046875 1.601562 22.398438 1.953125 22.398438 2.398438 L 22.398438 13.070312 L 22.097656 13.296875 C 20.847656 14.238281 19.855469 14.878906 19.167969 15.183594 Z M 16 22.398438 C 16 20.160156 17.183594 18.097656 19.121094 16.960938 L 19.40625 16.800781 C 20.574219 16.238281 21.585938 15.664062 22.398438 15.054688 L 22.398438 21.601562 C 22.398438 22.046875 22.046875 22.398438 21.601562 22.398438 Z M 16 22.398438 "/>
</svg>
