<?xml version="1.0" encoding="UTF-8"?>
<svg xmlns="http://www.w3.org/2000/svg" xmlns:xlink="http://www.w3.org/1999/xlink" width="24" height="24" viewBox="0 0 24 24">
<path fill-rule="nonzero" fill="rgb(0%, 0%, 0%)" fill-opacity="1" d="M 10.527344 12.976562 C 10.449219 13.167969 10.398438 13.375 10.398438 13.601562 L 10.398438 15.199219 C 10.398438 15.710938 10.640625 16.160156 11.007812 16.449219 C 10.480469 18.046875 8.976562 19.199219 7.199219 19.199219 C 4.992188 19.199219 3.199219 17.40625 3.199219 15.199219 C 3.199219 12.992188 4.992188 11.199219 7.199219 11.199219 C 8.59375 11.199219 9.808594 11.902344 10.527344 12.976562 Z M 12.992188 16.449219 C 13.359375 16.160156 13.601562 15.710938 13.601562 15.199219 L 13.601562 13.601562 C 13.601562 13.375 13.550781 13.167969 13.472656 12.976562 C 14.191406 11.902344 15.40625 11.199219 16.800781 11.199219 C 19.007812 11.199219 20.800781 12.992188 20.800781 15.199219 C 20.800781 17.40625 19.007812 19.199219 16.800781 19.199219 C 15.023438 19.199219 13.519531 18.046875 12.992188 16.449219 Z M 7.199219 12.800781 C 5.871094 12.800781 4.800781 13.871094 4.800781 15.199219 C 4.800781 16.527344 5.871094 17.601562 7.199219 17.601562 C 8.527344 17.601562 9.601562 16.527344 9.601562 15.199219 C 9.601562 13.871094 8.527344 12.800781 7.199219 12.800781 Z M 16.800781 12.800781 C 15.472656 12.800781 14.398438 13.871094 14.398438 15.199219 C 14.398438 16.527344 15.472656 17.601562 16.800781 17.601562 C 18.128906 17.601562 19.199219 16.527344 19.199219 15.199219 C 19.199219 13.871094 18.128906 12.800781 16.800781 12.800781 Z M 13.601562 3.601562 C 13.601562 2.496094 14.496094 1.601562 15.601562 1.601562 C 16.703125 1.601562 17.601562 2.496094 17.601562 3.601562 C 17.601562 4.703125 16.703125 5.601562 15.601562 5.601562 C 14.496094 5.601562 13.601562 4.703125 13.601562 3.601562 Z M 14.558594 9.28125 L 13.230469 7.519531 L 11.359375 9.441406 L 12.574219 10.640625 C 12.71875 10.785156 12.800781 10.992188 12.800781 11.199219 L 12.800781 15.230469 C 12.800781 15.664062 12.433594 16.015625 11.984375 16.015625 C 11.550781 16 11.199219 15.648438 11.199219 15.199219 L 11.199219 11.535156 L 9.039062 9.359375 C 8.71875 9.054688 8.71875 8.542969 9.039062 8.238281 L 12.238281 5.039062 C 12.382812 4.878906 12.609375 4.800781 12.816406 4.800781 C 13.070312 4.800781 13.296875 4.929688 13.441406 5.121094 L 15.601562 8 L 18.414062 8 C 18.703125 8 18.976562 8.160156 19.105469 8.414062 C 19.246094 8.65625 19.246094 8.960938 19.105469 9.214844 C 18.960938 9.457031 18.6875 9.601562 18.398438 9.601562 L 15.199219 9.601562 C 14.945312 9.601562 14.703125 9.488281 14.558594 9.28125 Z M 3.199219 20 L 8 20 L 6.398438 22.398438 L 1.601562 22.398438 Z M 10.398438 20 L 13.601562 20 L 15.199219 22.398438 L 8.800781 22.398438 Z M 20.800781 20 L 22.398438 22.398438 L 17.601562 22.398438 L 16 20 Z M 20.800781 20 "/>
</svg>
