<?xml version="1.0" encoding="UTF-8"?>
<svg xmlns="http://www.w3.org/2000/svg" xmlns:xlink="http://www.w3.org/1999/xlink" width="24" height="24" viewBox="0 0 24 24">
<path fill-rule="nonzero" fill="rgb(0%, 0%, 0%)" fill-opacity="1" d="M 12.800781 19.199219 C 11.921875 19.199219 11.199219 18.480469 11.199219 17.601562 C 11.199219 16.71875 11.921875 16 12.800781 16 C 13.679688 16 14.398438 16.71875 14.398438 17.601562 C 14.398438 18.480469 13.679688 19.199219 12.800781 19.199219 Z M 9.601562 16 C 10.480469 16 11.199219 15.28125 11.199219 14.398438 C 11.199219 13.519531 10.480469 12.800781 9.601562 12.800781 C 8.71875 12.800781 8 13.519531 8 14.398438 C 8 15.28125 8.71875 16 9.601562 16 Z M 6.398438 12.800781 C 7.28125 12.800781 8 12.078125 8 11.199219 C 8 10.320312 7.28125 9.601562 6.398438 9.601562 C 5.519531 9.601562 4.800781 10.320312 4.800781 11.199219 C 4.800781 12.078125 5.519531 12.800781 6.398438 12.800781 Z M 12.800781 12.800781 C 13.679688 12.800781 14.398438 12.078125 14.398438 11.199219 C 14.398438 10.320312 13.679688 9.601562 12.800781 9.601562 C 11.921875 9.601562 11.199219 10.320312 11.199219 11.199219 C 11.199219 12.078125 11.921875 12.800781 12.800781 12.800781 Z M 6.398438 19.199219 C 7.28125 19.199219 8 18.480469 8 17.601562 C 8 16.71875 7.28125 16 6.398438 16 C 5.519531 16 4.800781 16.71875 4.800781 17.601562 C 4.800781 18.480469 5.519531 19.199219 6.398438 19.199219 Z M 16 8 L 16 20.800781 L 3.199219 20.800781 L 3.199219 8 Z M 16 5.601562 L 3.199219 5.601562 C 1.871094 5.601562 0.800781 6.671875 0.800781 8 L 0.800781 20.800781 C 0.800781 22.128906 1.871094 23.199219 3.199219 23.199219 L 16 23.199219 C 17.328125 23.199219 18.398438 22.128906 18.398438 20.800781 L 18.398438 8 C 18.398438 6.671875 17.328125 5.601562 16 5.601562 Z M 20.800781 2 L 8 2 C 7.34375 2 6.800781 2.542969 6.800781 3.199219 C 6.800781 3.855469 7.34375 4.398438 8 4.398438 L 19.601562 4.398438 L 19.601562 16 C 19.601562 16.65625 20.144531 17.199219 20.800781 17.199219 C 21.457031 17.199219 22 16.65625 22 16 L 22 3.199219 C 22 2.542969 21.457031 2 20.800781 2 Z M 20.800781 2 "/>
</svg>
