<?xml version="1.0" encoding="UTF-8"?>
<svg xmlns="http://www.w3.org/2000/svg" xmlns:xlink="http://www.w3.org/1999/xlink" width="24" height="24" viewBox="0 0 24 24">
<path fill-rule="nonzero" fill="rgb(0%, 0%, 0%)" fill-opacity="1" d="M 11.199219 22.398438 L 2.753906 22.398438 L 0.113281 18.015625 C -0.113281 17.632812 0.015625 17.136719 0.382812 16.910156 C 0.769531 16.6875 1.265625 16.816406 1.488281 17.183594 L 3.648438 20.800781 L 9.214844 20.800781 C 5.359375 17.808594 3.359375 12.976562 3.214844 6.398438 L 3.199219 6.398438 C 2.753906 6.398438 2.398438 6.046875 2.398438 5.601562 C 2.398438 5.152344 2.753906 4.800781 3.199219 4.800781 L 20.800781 4.800781 C 21.246094 4.800781 21.601562 5.152344 21.601562 5.601562 C 21.601562 6.046875 21.246094 6.398438 20.800781 6.398438 L 20.785156 6.398438 C 20.640625 12.976562 18.640625 17.808594 14.785156 20.800781 L 20.351562 20.800781 L 22.511719 17.183594 C 22.734375 16.816406 23.230469 16.6875 23.617188 16.910156 C 23.984375 17.136719 24.113281 17.632812 23.886719 18.015625 L 21.246094 22.398438 L 12.800781 22.398438 L 12.800781 24 L 11.199219 24 Z M 11.199219 18.65625 L 11.199219 6.398438 L 8.800781 6.398438 C 8.878906 11.375 9.679688 15.472656 11.199219 18.65625 Z M 7.199219 6.398438 L 4.816406 6.398438 C 4.945312 12.160156 6.542969 16.351562 9.617188 19.054688 C 8.078125 15.679688 7.28125 11.457031 7.199219 6.398438 Z M 12.800781 18.65625 C 14.320312 15.472656 15.121094 11.375 15.199219 6.398438 L 12.800781 6.398438 Z M 16.800781 6.398438 C 16.71875 11.457031 15.921875 15.679688 14.382812 19.054688 C 17.457031 16.351562 19.054688 12.160156 19.183594 6.398438 Z M 12 0 C 13.328125 0 14.398438 1.070312 14.398438 2.398438 C 14.398438 3.726562 13.328125 4.800781 12 4.800781 C 10.671875 4.800781 9.601562 3.726562 9.601562 2.398438 C 9.601562 1.070312 10.671875 0 12 0 Z M 12 0 "/>
</svg>
