<?xml version="1.0" encoding="UTF-8"?>
<svg xmlns="http://www.w3.org/2000/svg" xmlns:xlink="http://www.w3.org/1999/xlink" width="24" height="24" viewBox="0 0 24 24">
<path fill="none" stroke-width="2" stroke-linecap="butt" stroke-linejoin="miter" stroke="rgb(100%, 100%, 100%)" stroke-opacity="1" stroke-miterlimit="4" d="M 1.204552 7 L 2.70504 15 L 7.705895 15 L 9.20407 7 Z M 2.385984 8 L 8.015703 8 L 7.645783 10 L 2.755904 10 Z M 4.205527 6 C 4.205527 4 5.204311 3 7.204191 3 L 8.205287 3 L 8.205287 2 L 7.204191 2 C 6.205407 2 6.205407 1 7.204191 1 L 10.205166 1 C 11.20395 1 11.20395 2 10.205166 2 L 9.20407 2 L 9.20407 3 L 13.20383 3 L 13.20383 4.5 L 7.204191 4.5 C 6.119863 4.492188 5.706015 4.981771 5.706015 6 Z M 4.205527 6 " transform="matrix(1.689555, 0, 0, 1.5, 0, 0)"/>
<path fill-rule="nonzero" fill="rgb(0%, 54.117647%, 83.137255%)" fill-opacity="1" d="M 2.035156 10.5 L 4.570312 22.5 L 13.019531 22.5 L 15.550781 10.5 Z M 4.03125 12 L 13.542969 12 L 12.917969 15 L 4.65625 15 Z M 7.105469 9 C 7.105469 6 8.792969 4.5 12.171875 4.5 L 13.863281 4.5 L 13.863281 3 L 12.171875 3 C 10.484375 3 10.484375 1.5 12.171875 1.5 L 17.242188 1.5 C 18.929688 1.5 18.929688 3 17.242188 3 L 15.550781 3 L 15.550781 4.5 L 22.308594 4.5 L 22.308594 6.75 L 12.171875 6.75 C 10.339844 6.738281 9.640625 7.472656 9.640625 9 Z M 7.105469 9 "/>
</svg>
