<?xml version="1.0" encoding="UTF-8"?>
<svg xmlns="http://www.w3.org/2000/svg" xmlns:xlink="http://www.w3.org/1999/xlink" width="24" height="24" viewBox="0 0 24 24">
<path fill-rule="nonzero" fill="rgb(0%, 0%, 0%)" fill-opacity="1" d="M 14.398438 22.398438 L 14.398438 17.601562 L 9.601562 17.601562 L 9.601562 22.398438 L 1.601562 22.398438 L 1.601562 10.398438 C 1.601562 9.953125 1.953125 9.601562 2.398438 9.601562 L 6.398438 9.601562 L 6.398438 8.800781 C 6.398438 8.351562 6.753906 8 7.199219 8 L 11.199219 8 L 11.199219 1.601562 L 14.398438 0 L 17.601562 1.601562 L 20.800781 0 L 20.800781 4.800781 L 17.601562 6.398438 L 14.398438 4.800781 L 12.800781 5.601562 L 12.800781 8 L 16.800781 8 C 17.246094 8 17.601562 8.351562 17.601562 8.800781 L 17.601562 9.601562 L 21.601562 9.601562 C 22.046875 9.601562 22.398438 9.953125 22.398438 10.398438 L 22.398438 22.398438 Z M 19.199219 12.800781 L 19.199219 16 L 20.800781 16 L 20.800781 12.800781 Z M 16 12.800781 L 16 16 L 17.601562 16 L 17.601562 12.800781 Z M 16 17.601562 L 16 20.800781 L 17.601562 20.800781 L 17.601562 17.601562 Z M 19.199219 17.601562 L 19.199219 20.800781 L 20.800781 20.800781 L 20.800781 17.601562 Z M 6.398438 17.601562 L 6.398438 20.800781 L 8 20.800781 L 8 17.601562 Z M 3.199219 17.601562 L 3.199219 20.800781 L 4.800781 20.800781 L 4.800781 17.601562 Z M 12.800781 12.800781 L 12.800781 16 L 14.398438 16 L 14.398438 12.800781 Z M 9.601562 12.800781 L 9.601562 16 L 11.199219 16 L 11.199219 12.800781 Z M 6.398438 12.800781 L 6.398438 16 L 8 16 L 8 12.800781 Z M 3.199219 12.800781 L 3.199219 16 L 4.800781 16 L 4.800781 12.800781 Z M 3.199219 12.800781 "/>
</svg>
