<?xml version="1.0" encoding="UTF-8"?>
<svg xmlns="http://www.w3.org/2000/svg" xmlns:xlink="http://www.w3.org/1999/xlink" width="24" height="24" viewBox="0 0 24 24">
<path fill-rule="nonzero" fill="rgb(0%, 0%, 0%)" fill-opacity="1" d="M 4.078125 18.816406 L 3.199219 14.398438 L 4.800781 13.519531 L 4.800781 6.398438 C 4.800781 5.519531 5.519531 4.800781 6.398438 4.800781 L 17.601562 4.800781 C 18.480469 4.800781 19.199219 5.519531 19.199219 6.398438 L 19.199219 13.519531 L 20.800781 14.398438 L 19.902344 18.847656 C 18.65625 18.015625 17.601562 17.601562 16.71875 17.601562 C 15.34375 17.601562 13.761719 18.128906 12 19.199219 C 10.304688 18.128906 8.71875 17.601562 7.28125 17.601562 C 6.382812 17.601562 5.3125 18 4.078125 18.816406 Z M 17.601562 12.65625 L 17.601562 7.199219 C 17.601562 6.753906 17.246094 6.398438 16.800781 6.398438 L 7.199219 6.398438 C 6.753906 6.398438 6.398438 6.753906 6.398438 7.199219 L 6.398438 12.65625 L 12 9.601562 Z M 8.800781 1.601562 L 15.199219 1.601562 C 15.648438 1.601562 16 1.953125 16 2.398438 L 16 4 L 8 4 L 8 2.398438 C 8 1.953125 8.351562 1.601562 8.800781 1.601562 Z M 16.800781 19.199219 C 17.425781 19.199219 17.96875 19.375 18.59375 19.710938 C 18.703125 19.761719 18.816406 19.824219 18.960938 19.902344 C 19.136719 20.015625 19.214844 20.0625 19.296875 20.113281 C 20.160156 20.59375 19.585938 22.113281 18.496094 21.488281 C 18.433594 21.457031 18.320312 21.390625 18.160156 21.296875 C 18.03125 21.214844 17.9375 21.167969 17.839844 21.121094 C 17.425781 20.894531 17.121094 20.800781 16.800781 20.800781 C 15.359375 20.800781 13.921875 21.28125 12.449219 22.273438 L 12 22.558594 L 11.550781 22.273438 C 10.078125 21.28125 8.640625 20.800781 7.199219 20.800781 C 6.992188 20.800781 6.785156 20.847656 6.511719 20.976562 C 6.289062 21.070312 6.078125 21.199219 5.550781 21.503906 C 4.449219 22.113281 3.886719 20.59375 4.769531 20.097656 C 5.28125 19.808594 5.566406 19.648438 5.839844 19.519531 C 6.304688 19.3125 6.734375 19.199219 7.199219 19.199219 C 8.816406 19.199219 10.414062 19.695312 12 20.65625 C 13.585938 19.695312 15.183594 19.199219 16.800781 19.199219 Z M 16.800781 19.199219 "/>
</svg>
