<?xml version="1.0" encoding="UTF-8"?>
<svg xmlns="http://www.w3.org/2000/svg" xmlns:xlink="http://www.w3.org/1999/xlink" width="24" height="24" viewBox="0 0 24 24">
<path fill-rule="nonzero" fill="rgb(0%, 0%, 0%)" fill-opacity="1" d="M 1.761719 15.472656 C 2.304688 14.769531 3.296875 14.625 4 15.167969 C 4.71875 15.695312 4.847656 16.6875 4.320312 17.40625 C 3.792969 18.113281 3.9375 19.105469 4.640625 19.648438 C 5.34375 20.175781 6.351562 20.03125 6.878906 19.328125 L 9.28125 16.128906 L 11.839844 18.0625 L 9.441406 21.246094 C 7.839844 23.375 4.832031 23.792969 2.703125 22.191406 C 0.59375 20.609375 0.175781 17.601562 1.761719 15.472656 Z M 22.59375 1.121094 C 23.3125 1.648438 23.441406 2.65625 22.910156 3.359375 L 12.320312 17.425781 L 9.761719 15.488281 L 20.351562 1.441406 C 20.894531 0.734375 21.886719 0.59375 22.59375 1.121094 Z M 19.199219 22.398438 C 17.441406 22.398438 16 20.960938 16 19.199219 C 16 17.441406 17.441406 16 19.199219 16 C 20.960938 16 22.398438 17.441406 22.398438 19.199219 C 22.398438 20.960938 20.960938 22.398438 19.199219 22.398438 Z M 19.199219 22.398438 "/>
</svg>
