<?xml version="1.0" encoding="UTF-8"?>
<svg xmlns="http://www.w3.org/2000/svg" xmlns:xlink="http://www.w3.org/1999/xlink" width="24" height="24" viewBox="0 0 24 24">
<path fill-rule="nonzero" fill="rgb(0%, 0%, 0%)" fill-opacity="1" d="M 23 13 C 22.449219 13 22 13.449219 22 14 L 22 15.5 L 16 11 L 16 8.738281 C 16 8.265625 15.730469 7.835938 15.304688 7.628906 C 14.882812 7.417969 14.375 7.46875 14 7.753906 L 14 5.316406 C 14 5.125 13.964844 4.9375 13.894531 4.761719 L 12.550781 0.371094 C 12.460938 0.144531 12.242188 0 12.003906 0 C 11.761719 0 11.542969 0.144531 11.453125 0.371094 L 10.105469 4.761719 C 10.035156 4.9375 10 5.125 10 5.316406 L 10 7.753906 C 9.625 7.46875 9.117188 7.417969 8.695312 7.628906 C 8.269531 7.835938 8 8.265625 8 8.738281 L 8 11 L 2 15.5 L 2 14 C 2 13.449219 1.550781 13 1 13 C 0.449219 13 0 13.449219 0 14 L 0 21 C 0 21.550781 0.449219 22 1 22 C 1.550781 22 2 21.550781 2 21 L 2 20 L 10 18 L 10 20.5 L 7.773438 22.40625 C 7.507812 22.671875 7.429688 23.074219 7.574219 23.421875 C 7.71875 23.769531 8.058594 24 8.433594 24 L 11.996094 23.5 L 15.566406 24 C 15.941406 24 16.28125 23.769531 16.425781 23.421875 C 16.570312 23.074219 16.492188 22.671875 16.226562 22.40625 L 14 20.5 L 14 18 L 22 20 L 22 21 C 22 21.550781 22.449219 22 23 22 C 23.550781 22 24 21.550781 24 21 L 24 14 C 24 13.449219 23.550781 13 23 13 Z M 23 13 "/>
</svg>
