<?xml version="1.0" encoding="UTF-8"?>
<svg xmlns="http://www.w3.org/2000/svg" xmlns:xlink="http://www.w3.org/1999/xlink" width="24" height="24" viewBox="0 0 24 24">
<path fill-rule="nonzero" fill="rgb(0%, 0%, 0%)" fill-opacity="1" d="M 9.761719 19.199219 L 5.855469 17.246094 L 6.753906 15.457031 L 12 18.078125 L 17.246094 15.457031 L 18.144531 17.246094 L 14.238281 19.199219 L 18.144531 21.152344 L 17.246094 22.945312 L 12 20.320312 L 6.753906 22.945312 L 5.855469 21.152344 Z M 3.199219 1.601562 L 20.800781 1.601562 C 21.679688 1.601562 22.398438 2.320312 22.398438 3.199219 L 22.398438 22.398438 L 19.199219 22.398438 L 19.214844 12 C 19.214844 8.03125 16 4.800781 12.03125 4.800781 C 8.046875 4.800781 4.816406 8.015625 4.816406 12 L 4.800781 22.398438 L 1.601562 22.398438 L 1.601562 3.199219 C 1.601562 2.320312 2.320312 1.601562 3.199219 1.601562 Z M 11.199219 5.601562 L 12 11.199219 L 14.398438 8 L 15.503906 10.0625 C 16.398438 11.761719 16 13.855469 14.527344 15.070312 L 14.464844 15.121094 C 13.039062 16.304688 10.976562 16.289062 9.566406 15.070312 C 8.128906 13.824219 7.695312 11.761719 8.542969 10.03125 C 9.054688 8.976562 9.40625 8.304688 9.601562 8 C 9.9375 7.472656 10.464844 6.671875 11.199219 5.601562 Z M 11.199219 5.601562 "/>
</svg>
