<?xml version="1.0" encoding="UTF-8"?>
<svg xmlns="http://www.w3.org/2000/svg" xmlns:xlink="http://www.w3.org/1999/xlink" width="24" height="24" viewBox="0 0 24 24">
<path fill-rule="nonzero" fill="rgb(0%, 0%, 0%)" fill-opacity="1" d="M 12 0.800781 C 12.625 0.800781 13.121094 1.3125 13.121094 1.9375 L 13.121094 1.886719 C 15.007812 2.257812 15.792969 3.441406 16.433594 5.136719 L 16.71875 5.136719 C 17.105469 5.136719 17.40625 5.550781 17.40625 6.0625 C 17.40625 6.558594 17.105469 6.976562 16.71875 6.976562 L 15.601562 6.976562 L 15.601562 10.175781 L 18.304688 10.175781 C 18.800781 10.175781 19.199219 10.574219 19.199219 11.089844 L 19.199219 13.824219 C 19.199219 14.335938 18.800781 14.734375 18.304688 14.734375 L 15.601562 14.734375 L 15.601562 20.910156 L 16.496094 20.910156 C 17.121094 20.910156 17.632812 21.425781 17.632812 22.0625 C 17.632812 22.6875 17.121094 23.199219 16.496094 23.199219 L 7.503906 23.199219 C 6.878906 23.199219 6.367188 22.6875 6.367188 22.0625 C 6.367188 21.425781 6.878906 20.910156 7.503906 20.910156 L 8.398438 20.910156 L 8.398438 14.734375 L 5.695312 14.734375 C 5.199219 14.734375 4.800781 14.335938 4.800781 13.824219 L 4.800781 11.089844 C 4.800781 10.574219 5.199219 10.175781 5.695312 10.175781 L 8.398438 10.175781 L 8.398438 6.976562 L 7.28125 6.976562 C 6.894531 6.976562 6.609375 6.558594 6.609375 6.0625 C 6.609375 5.550781 6.894531 5.136719 7.28125 5.136719 L 7.519531 5.136719 C 8.128906 3.070312 9.007812 2.574219 10.878906 1.886719 L 10.878906 1.9375 C 10.878906 1.3125 11.375 0.800781 12 0.800781 Z M 12 0.800781 "/>
</svg>
