<?xml version="1.0" encoding="UTF-8"?>
<svg xmlns="http://www.w3.org/2000/svg" xmlns:xlink="http://www.w3.org/1999/xlink" width="24" height="24" viewBox="0 0 24 24">
<path fill-rule="nonzero" fill="rgb(0%, 0%, 0%)" fill-opacity="1" d="M 17.039062 3.328125 C 17.679688 3.328125 17.679688 4.609375 17.039062 4.609375 L 15.121094 4.609375 C 14.800781 4.609375 12.878906 3.648438 13.519531 3.328125 Z M 10.433594 3.328125 C 11.070312 3.648438 9.152344 4.609375 8.832031 4.609375 L 6.910156 4.609375 C 6.273438 4.609375 6.273438 3.328125 6.910156 3.328125 Z M 5.679688 7.023438 C 6.320312 7.023438 5.359375 8.304688 5.039062 8.304688 L 3.761719 8.304688 C 3.121094 8.304688 3.121094 7.023438 3.761719 7.023438 Z M 20.175781 7.023438 C 20.816406 7.023438 20.816406 8.304688 20.175781 8.304688 L 18.894531 8.304688 C 18.574219 8.304688 17.617188 7.023438 18.257812 7.023438 Z M 21.503906 10.703125 C 22.144531 10.703125 22.144531 11.984375 21.503906 11.984375 L 20.222656 11.984375 C 19.585938 11.984375 19.585938 10.703125 20.222656 10.703125 Z M 3.710938 10.703125 C 4.351562 10.703125 4.351562 11.984375 3.710938 11.984375 L 2.433594 11.984375 C 1.792969 11.984375 1.792969 10.703125 2.433594 10.703125 Z M 4.160156 14.382812 C 4.480469 14.382812 5.441406 15.664062 4.800781 15.664062 L 2.894531 15.664062 C 2.257812 15.664062 2.257812 14.382812 2.894531 14.382812 Z M 21.023438 14.382812 C 21.664062 14.382812 21.664062 15.664062 21.023438 15.664062 L 19.105469 15.664062 C 18.464844 15.664062 19.425781 14.382812 19.742188 14.382812 Z M 18.863281 18.0625 C 19.503906 18.0625 19.503906 19.34375 18.863281 19.34375 L 15.359375 19.34375 C 14.71875 19.023438 16.640625 18.0625 16.960938 18.0625 Z M 7.007812 18.0625 C 7.328125 18.0625 9.246094 19.023438 8.609375 19.34375 L 5.105469 19.34375 C 4.464844 19.34375 4.464844 18.0625 5.105469 18.0625 Z M 11.726562 4.320312 C 15.390625 4.320312 19.519531 8.335938 19.519531 12 C 19.519531 15.664062 15.679688 19.648438 12.015625 19.648438 C 8.351562 19.648438 4.464844 15.664062 4.464844 12 C 4.464844 8.335938 8.078125 4.320312 11.742188 4.320312 Z M 14 1.808594 C 14 1.808594 13.601562 3.199219 12 3.199219 C 10.398438 3.199219 10 1.808594 10 1.808594 C 5.007812 2.800781 1.601562 7.199219 1.601562 12 C 1.601562 16.800781 5.007812 21.199219 10 22.207031 C 10 22.207031 10.398438 20.800781 12 20.800781 C 13.519531 20.800781 14 22.207031 14 22.207031 C 19.007812 21.199219 22.398438 16.800781 22.398438 12 C 22.398438 7.199219 19.007812 2.800781 14 1.808594 Z M 12 0.800781 C 5.808594 0.800781 0.800781 5.808594 0.800781 12 C 0.800781 18.207031 5.808594 23.199219 12 23.199219 C 18.207031 23.199219 23.199219 18.207031 23.199219 12 C 23.199219 5.808594 18.207031 0.800781 12 0.800781 Z M 12 0 C 18.609375 0 24 5.40625 24 12 C 24 18.609375 18.625 24 12 24 C 5.375 24 0 18.609375 0 12 C 0 5.40625 5.40625 0 12 0 Z M 12 0 "/>
<path fill-rule="nonzero" fill="rgb(0%, 0%, 0%)" fill-opacity="1" d="M 12 5.441406 C 12.335938 5.441406 12.59375 5.710938 12.59375 6.03125 L 12.59375 6 C 13.601562 6.191406 14.03125 6.816406 14.367188 7.695312 L 14.527344 7.695312 C 14.734375 7.695312 14.894531 7.921875 14.894531 8.175781 C 14.894531 8.433594 14.734375 8.65625 14.527344 8.65625 L 13.921875 8.65625 L 13.921875 10.320312 L 15.359375 10.320312 C 15.632812 10.320312 15.839844 10.527344 15.839844 10.800781 L 15.839844 12.222656 C 15.839844 12.496094 15.632812 12.703125 15.359375 12.703125 L 13.921875 12.703125 L 13.921875 15.921875 L 14.398438 15.921875 C 14.734375 15.921875 15.007812 16.191406 15.007812 16.511719 C 15.007812 16.832031 14.734375 17.105469 14.398438 17.105469 L 9.601562 17.105469 C 9.265625 17.105469 8.992188 16.832031 8.992188 16.511719 C 8.992188 16.175781 9.265625 15.921875 9.601562 15.921875 L 10.078125 15.921875 L 10.078125 12.703125 L 8.640625 12.703125 C 8.367188 12.703125 8.160156 12.496094 8.160156 12.222656 L 8.160156 10.800781 C 8.160156 10.527344 8.367188 10.320312 8.640625 10.320312 L 10.078125 10.320312 L 10.078125 8.65625 L 9.472656 8.65625 C 9.265625 8.65625 9.121094 8.433594 9.121094 8.175781 C 9.121094 7.902344 9.28125 7.695312 9.472656 7.695312 L 9.601562 7.695312 C 9.9375 6.625 10.398438 6.367188 11.40625 6 L 11.40625 6.03125 C 11.40625 5.710938 11.664062 5.441406 12 5.441406 Z M 12 5.441406 "/>
</svg>
