<?xml version="1.0" encoding="UTF-8"?>
<svg xmlns="http://www.w3.org/2000/svg" xmlns:xlink="http://www.w3.org/1999/xlink" width="24" height="24" viewBox="0 0 24 24">
<path fill-rule="nonzero" fill="rgb(0%, 0%, 0%)" fill-opacity="1" d="M 12.039062 3.628906 C 12.886719 3.628906 13.574219 2.941406 13.574219 2.097656 C 13.574219 1.257812 12.886719 0.566406 12.039062 0.566406 C 11.1875 0.566406 10.503906 1.257812 10.503906 2.097656 C 10.503906 2.945312 11.1875 3.628906 12.039062 3.628906 Z M 21.679688 21.203125 C 21.257812 21.003906 20.777344 20.890625 20.28125 20.890625 C 19.785156 20.890625 19.308594 21.003906 18.878906 21.203125 C 18.464844 21.382812 18.003906 21.496094 17.523438 21.496094 C 17.042969 21.496094 16.574219 21.382812 16.160156 21.207031 C 15.738281 21.007812 15.265625 20.894531 14.761719 20.894531 C 14.257812 20.894531 13.78125 21.007812 13.359375 21.207031 C 12.941406 21.390625 12.480469 21.5 11.996094 21.5 C 11.511719 21.5 11.050781 21.390625 10.632812 21.210938 C 10.210938 21.015625 9.730469 20.898438 9.230469 20.898438 C 8.734375 20.898438 8.261719 21.015625 7.828125 21.210938 C 7.414062 21.394531 6.957031 21.503906 6.476562 21.503906 C 5.992188 21.503906 5.523438 21.394531 5.113281 21.214844 C 4.691406 21.019531 4.210938 20.902344 3.710938 20.902344 C 3.210938 20.902344 2.730469 21.019531 2.308594 21.214844 C 1.890625 21.398438 1.429688 21.507812 0.945312 21.507812 L 0.945312 23.539062 C 1.429688 23.539062 1.890625 23.433594 2.308594 23.25 C 2.730469 23.054688 3.210938 22.9375 3.710938 22.9375 C 4.210938 22.9375 4.691406 23.054688 5.113281 23.25 C 5.523438 23.4375 5.992188 23.542969 6.476562 23.542969 C 6.957031 23.542969 7.414062 23.4375 7.828125 23.257812 C 8.257812 23.058594 8.734375 22.945312 9.230469 22.945312 C 9.730469 22.945312 10.210938 23.058594 10.632812 23.257812 C 11.050781 23.441406 11.511719 23.546875 11.996094 23.546875 C 12.480469 23.546875 12.941406 23.441406 13.359375 23.261719 C 13.78125 23.0625 14.261719 22.949219 14.761719 22.949219 C 15.257812 22.949219 15.738281 23.0625 16.160156 23.261719 C 16.574219 23.449219 17.039062 23.554688 17.523438 23.554688 C 18.007812 23.554688 18.46875 23.449219 18.878906 23.265625 C 19.308594 23.070312 19.785156 22.953125 20.28125 22.953125 C 20.777344 22.953125 21.257812 23.070312 21.679688 23.265625 C 22.097656 23.453125 22.558594 23.558594 23.042969 23.558594 L 23.042969 21.527344 C 22.558594 21.527344 22.097656 21.417969 21.679688 21.234375 Z M 21.804688 0.503906 C 21.695312 0.460938 21.527344 0.484375 21.441406 0.570312 L 15.816406 6.234375 C 15.730469 6.195312 15.609375 6.246094 15.507812 6.246094 L 13.382812 6.246094 C 13.019531 5.765625 11.097656 3.886719 11.097656 3.886719 C 11 3.789062 10.871094 3.699219 10.746094 3.667969 C 10.308594 3.28125 9.644531 3.273438 9.222656 3.691406 L 5.933594 6.988281 C 5.808594 7.113281 5.761719 7.28125 5.761719 7.46875 L 5.761719 9.605469 L 0.960938 9.605469 L 0.960938 10.566406 L 5.761719 10.566406 L 5.761719 16.09375 C 5.761719 16.78125 6.273438 17.332031 6.957031 17.332031 C 7.636719 17.332031 8.160156 16.78125 8.160156 16.09375 L 8.160156 10.566406 L 11.519531 10.566406 L 11.519531 17.765625 L 0.960938 17.765625 L 0.960938 19.203125 L 12.480469 19.203125 L 12.480469 10.566406 L 13.921875 10.566406 L 13.921875 9.605469 L 8.160156 9.605469 L 8.160156 9.210938 L 11.269531 6.125 L 12.539062 7.425781 C 12.671875 7.570312 12.875 7.683594 13.074219 7.683594 L 15.507812 7.683594 C 15.925781 7.683594 16.324219 7.621094 16.324219 7.203125 C 16.324219 7.105469 16.359375 6.8125 16.324219 6.726562 C 17.65625 5.398438 21.125 2.140625 21.605469 1.476562 L 21.605469 19.203125 L 22.085938 19.203125 L 22.085938 0.777344 C 22.085938 0.65625 21.921875 0.550781 21.8125 0.503906 Z M 21.804688 0.503906 "/>
</svg>
