<?xml version="1.0" encoding="UTF-8"?>
<svg xmlns="http://www.w3.org/2000/svg" xmlns:xlink="http://www.w3.org/1999/xlink" width="24" height="24" viewBox="0 0 24 24">
<path fill-rule="nonzero" fill="rgb(0%, 0%, 0%)" fill-opacity="1" d="M 1.160156 16.132812 L 1.140625 16.074219 C 1.140625 16.027344 1.175781 15.988281 1.222656 15.988281 L 3.558594 15.992188 C 3.675781 15.992188 3.769531 15.898438 3.769531 15.777344 C 3.769531 15.6875 3.726562 15.625 3.636719 15.570312 L 1.523438 14.5 C 1.484375 14.472656 1.460938 14.429688 1.460938 14.375 C 1.460938 14.335938 1.472656 14.292969 1.496094 14.269531 C 1.496094 14.269531 7.054688 9.042969 19.359375 14.113281 L 22.738281 12.359375 C 22.769531 12.339844 22.808594 12.332031 22.851562 12.332031 C 22.992188 12.332031 23.113281 12.457031 23.113281 12.605469 C 23.113281 12.664062 23.097656 12.710938 23.074219 12.75 L 21.082031 15.382812 L 23.074219 18.019531 C 23.097656 18.058594 23.113281 18.109375 23.113281 18.164062 C 23.113281 18.316406 22.992188 18.445312 22.851562 18.445312 C 22.808594 18.445312 22.769531 18.4375 22.738281 18.417969 L 19.359375 16.660156 C 19.359375 16.660156 7.597656 21.632812 1.171875 16.136719 Z M 4.914062 15.058594 C 5.363281 15.058594 5.71875 14.679688 5.71875 14.207031 C 5.71875 13.726562 5.363281 13.355469 4.914062 13.355469 C 4.472656 13.355469 4.117188 13.734375 4.117188 14.210938 C 4.117188 14.683594 4.472656 15.0625 4.914062 15.0625 Z M 15.359375 6.238281 L 15.359375 9.121094 L 22.160156 9.121094 C 22.910156 9.121094 23.519531 8.476562 23.519531 7.679688 C 23.519531 6.878906 22.910156 6.238281 22.160156 6.238281 Z M 2.832031 8.3125 L 3.453125 8.039062 L 3.839844 8.746094 L 4.464844 8.265625 L 4.910156 8.933594 L 5.511719 8.417969 L 5.996094 9.046875 L 6.5625 8.496094 L 7.074219 9.097656 L 7.621094 8.519531 L 8.164062 9.101562 L 8.707031 8.523438 L 9.246094 9.105469 L 9.792969 8.53125 L 10.335938 9.109375 L 10.882812 8.535156 L 11.425781 9.113281 L 11.960938 8.539062 L 12.507812 9.121094 L 13.054688 8.542969 L 13.597656 9.125 L 14.238281 8.546875 L 14.886719 9.128906 L 14.886719 6.277344 L 0.484375 6.277344 L 0.484375 6.296875 C 0.964844 7.128906 1.933594 7.832031 2.835938 8.351562 Z M 2.832031 8.3125 "/>
</svg>
