<?xml version="1.0" encoding="UTF-8"?>
<svg xmlns="http://www.w3.org/2000/svg" xmlns:xlink="http://www.w3.org/1999/xlink" width="24" height="24" viewBox="0 0 24 24">
<path fill-rule="nonzero" fill="rgb(0%, 0%, 0%)" fill-opacity="1" d="M 12.265625 17.363281 C 13.992188 25.429688 23.746094 18.824219 14.058594 13.203125 C 24.734375 19.402344 24.757812 4.601562 14.082031 10.796875 C 24.761719 4.601562 12.007812 -2.792969 12.007812 9.589844 C 12.015625 -2.796875 -0.738281 4.597656 9.929688 10.796875 C -0.742188 4.597656 -0.753906 19.398438 9.921875 13.203125 C 0.230469 18.820312 9.960938 25.433594 11.6875 17.351562 L 12.265625 17.367188 Z M 10.722656 12 C 10.722656 11.285156 11.300781 10.707031 12.003906 10.707031 C 12.714844 10.707031 13.285156 11.285156 13.285156 12 C 13.285156 12.710938 12.710938 13.292969 12.003906 13.292969 C 11.300781 13.292969 10.722656 12.714844 10.722656 12 Z M 10.722656 12 "/>
</svg>
