<?xml version="1.0" encoding="UTF-8"?>
<svg xmlns="http://www.w3.org/2000/svg" xmlns:xlink="http://www.w3.org/1999/xlink" width="24" height="24" viewBox="0 0 24 24">
<path fill-rule="nonzero" fill="rgb(0%, 0%, 0%)" fill-opacity="1" d="M 6 2.398438 C 2.398438 2.398438 1.199219 5.601562 1.199219 9.601562 C 1.199219 12.800781 2.800781 12.800781 2.800781 9.601562 C 2.800781 5.601562 4.398438 4 6 4 C 8.800781 4 10.398438 9.199219 10.398438 11.199219 C 10.398438 11.199219 10 10.800781 8.800781 10.800781 C 6.800781 10.800781 5.601562 12.398438 5.601562 15.199219 C 5.601562 17.199219 6.800781 17.199219 6.800781 15.199219 C 6.800781 13.199219 8 12.398438 8.800781 12.398438 C 9.601562 12.398438 10.800781 12.800781 11.199219 16 C 11.648438 19.167969 12.351562 19.167969 12.753906 16 C 13.199219 12.800781 14 12.398438 15.199219 12.398438 C 16 12.398438 16.800781 13.199219 16.800781 14.398438 C 16.800781 16.800781 18 16.800781 18 14.398438 C 18 11.601562 16.398438 10.800781 15.199219 10.800781 C 14 10.800781 13.601562 11.199219 13.601562 11.199219 C 14 8.398438 15.199219 4.800781 17.601562 4.800781 C 20 4.800781 21.199219 8 21.199219 10.800781 C 21.199219 13.601562 22.800781 13.601562 22.800781 10.800781 C 22.800781 5.601562 20.398438 3.199219 17.601562 3.199219 C 14 3.199219 12.398438 7.199219 12 9.601562 C 11.601562 6.398438 10 2.398438 6 2.398438 Z M 22.398438 18.414062 C 22.847656 18.414062 23.199219 18.769531 23.199219 19.214844 C 23.199219 19.648438 22.847656 20.015625 22.398438 20.015625 C 22.03125 20.0625 21.695312 20.257812 21.441406 20.542969 C 21.007812 21.007812 20.449219 21.328125 19.839844 21.503906 C 18.863281 21.792969 17.808594 21.566406 17.023438 20.910156 L 16.398438 20.351562 C 16.398438 20.335938 16.382812 20.335938 16.382812 20.335938 C 15.902344 19.855469 15.121094 19.855469 14.640625 20.351562 C 14.398438 20.542969 14.207031 20.769531 13.96875 20.945312 C 12.800781 21.871094 11.136719 21.824219 10.03125 20.832031 L 9.40625 20.273438 C 8.960938 19.855469 8.273438 19.855469 7.808594 20.273438 C 7.503906 20.511719 7.230469 20.800781 6.929688 21.023438 C 5.808594 21.839844 4.273438 21.808594 3.199219 20.929688 L 2.625 20.511719 C 2.367188 20.207031 2 20.03125 1.601562 20.015625 C 1.152344 20.015625 0.800781 19.648438 0.800781 19.214844 C 0.800781 18.769531 1.152344 18.414062 1.601562 18.414062 L 1.695312 18.414062 C 2.078125 18.382812 2.449219 18.480469 2.785156 18.671875 C 3.230469 18.945312 3.648438 19.246094 4.046875 19.601562 C 4.367188 19.953125 4.863281 20.097656 5.328125 20 C 5.503906 19.9375 5.664062 19.855469 5.808594 19.742188 C 6.046875 19.550781 6.273438 19.328125 6.511719 19.121094 C 7.648438 18.175781 9.28125 18.175781 10.414062 19.121094 C 10.671875 19.328125 10.910156 19.566406 11.167969 19.777344 C 11.632812 20.175781 12.320312 20.175781 12.769531 19.777344 C 13.023438 19.566406 13.265625 19.328125 13.519531 19.121094 C 14.65625 18.160156 16.304688 18.160156 17.441406 19.121094 C 17.679688 19.328125 17.902344 19.550781 18.144531 19.742188 C 18.609375 20.144531 19.296875 20.144531 19.742188 19.742188 L 20.496094 19.089844 C 21.023438 18.640625 21.710938 18.398438 22.398438 18.414062 Z M 22.398438 18.414062 "/>
</svg>
