<?xml version="1.0" encoding="UTF-8"?>
<svg xmlns="http://www.w3.org/2000/svg" xmlns:xlink="http://www.w3.org/1999/xlink" width="24" height="24" viewBox="0 0 24 24">
<path fill-rule="nonzero" fill="rgb(0%, 0%, 0%)" fill-opacity="1" d="M 22.398438 1.601562 C 22.398438 1.601562 1.601562 1.601562 1.601562 1.601562 C 0 1.601562 0 4 1.601562 4 C 1.601562 4 1.601562 8.398438 1.601562 8.398438 L 22.398438 8.398438 C 22.398438 8.398438 22.398438 4 22.398438 4 C 24 4 24 1.601562 22.398438 1.601562 Z M 12 6.398438 C 11.601562 6.398438 11.199219 6 11.199219 5.601562 C 11.199219 5.199219 11.601562 4.800781 12 4.800781 C 12.398438 4.800781 12.800781 5.199219 12.800781 5.601562 C 12.800781 6 12.398438 6.398438 12 6.398438 Z M 1.601562 14.398438 L 22.398438 14.398438 L 22.398438 9.601562 L 1.601562 9.601562 Z M 12 11.199219 C 12.398438 11.199219 12.800781 11.601562 12.800781 12 C 12.800781 12.398438 12.398438 12.800781 12 12.800781 C 11.601562 12.800781 11.199219 12.398438 11.199219 12 C 11.199219 11.601562 11.601562 11.199219 12 11.199219 Z M 1.601562 15.601562 L 1.601562 23.199219 C 1.601562 24 5.601562 24 5.601562 23.199219 L 5.601562 20.800781 L 18.398438 20.800781 L 18.398438 23.199219 C 18.398438 24 22.398438 24 22.398438 23.199219 L 22.398438 15.601562 Z M 12 17.601562 C 12.398438 17.601562 12.800781 18 12.800781 18.398438 C 12.800781 18.800781 12.398438 19.199219 12 19.199219 C 11.601562 19.199219 11.199219 18.800781 11.199219 18.398438 C 11.199219 18 11.601562 17.601562 12 17.601562 Z M 12 17.601562 "/>
</svg>
