<?xml version="1.0" encoding="UTF-8"?>
<svg xmlns="http://www.w3.org/2000/svg" xmlns:xlink="http://www.w3.org/1999/xlink" width="24" height="24" viewBox="0 0 24 24">
<path fill-rule="nonzero" fill="rgb(0%, 0%, 0%)" fill-opacity="1" d="M 20 17.601562 C 20 21.601562 16.800781 24 12.800781 24 C 19.199219 17.601562 12.800781 18.398438 11.199219 14.398438 C 10.398438 17.601562 7.199219 20.800781 11.199219 24 C 8 24 4 22.398438 4 17.601562 C 4 14.398438 7.199219 11.199219 7.199219 4.800781 C 8 7.199219 9.601562 8.800781 9.601562 8.800781 C 9.601562 3.199219 15.199219 0 15.199219 0 C 14.398438 6.398438 18.398438 7.199219 17.601562 10.398438 C 16.800781 14.398438 20 15.199219 20 17.601562 Z M 20 17.601562 "/>
</svg>
