<?xml version="1.0" encoding="UTF-8"?>
<svg xmlns="http://www.w3.org/2000/svg" xmlns:xlink="http://www.w3.org/1999/xlink" width="24" height="24" viewBox="0 0 24 24">
<path fill-rule="nonzero" fill="rgb(0%, 0%, 0%)" fill-opacity="1" d="M 11.199219 4.59375 C 10.71875 4.304688 10.398438 3.792969 10.398438 3.199219 L 10.398438 3.007812 L 2.496094 4 C 2.0625 4.046875 1.664062 3.742188 1.601562 3.296875 C 1.550781 2.863281 1.855469 2.464844 2.304688 2.398438 L 10.414062 1.390625 C 10.511719 0.609375 11.183594 0 12 0 C 12.671875 0 13.246094 0.414062 13.488281 1.007812 L 21.503906 0 C 21.9375 -0.046875 22.335938 0.257812 22.398438 0.703125 C 22.449219 1.136719 22.144531 1.535156 21.695312 1.601562 L 13.601562 2.609375 L 13.601562 3.199219 C 13.601562 3.792969 13.28125 4.304688 12.800781 4.59375 L 12.800781 8 L 16.273438 8 C 17.039062 8 17.695312 8.558594 17.839844 9.3125 L 19.136719 16.480469 C 19.183594 16.6875 19.183594 16.910156 19.136719 17.121094 L 17.871094 22.753906 C 17.710938 23.472656 17.070312 24 16.320312 24 L 7.679688 24 C 6.929688 24 6.289062 23.472656 6.128906 22.753906 L 4.863281 17.121094 C 4.816406 16.910156 4.816406 16.6875 4.863281 16.480469 L 6.160156 9.3125 C 6.304688 8.558594 6.960938 8 7.726562 8 L 11.199219 8 Z M 7.96875 9.601562 C 7.777344 9.601562 7.617188 9.726562 7.585938 9.921875 L 6.496094 15.519531 C 6.480469 15.550781 6.480469 15.566406 6.480469 15.601562 C 6.480469 15.824219 6.671875 16 6.878906 16 L 10.800781 16 C 11.023438 16 11.199219 15.824219 11.199219 15.601562 L 11.199219 10 C 11.199219 9.777344 11.023438 9.601562 10.800781 9.601562 Z M 16.03125 9.601562 L 13.199219 9.601562 C 12.976562 9.601562 12.800781 9.777344 12.800781 10 L 12.800781 15.601562 C 12.800781 15.824219 12.976562 16 13.199219 16 L 17.121094 16 C 17.328125 16 17.519531 15.824219 17.519531 15.601562 C 17.519531 15.566406 17.519531 15.550781 17.503906 15.519531 L 16.414062 9.921875 C 16.382812 9.726562 16.222656 9.601562 16.03125 9.601562 Z M 16.03125 9.601562 "/>
</svg>
