<?xml version="1.0" encoding="UTF-8"?>
<svg xmlns="http://www.w3.org/2000/svg" xmlns:xlink="http://www.w3.org/1999/xlink" width="24" height="24" viewBox="0 0 24 24">
<path fill-rule="nonzero" fill="rgb(0%, 0%, 0%)" fill-opacity="1" d="M 1.710938 17.984375 L 9.777344 3.886719 L 2.496094 4.800781 C 2.0625 4.847656 1.664062 4.542969 1.601562 4.097656 C 1.550781 3.664062 1.855469 3.265625 2.304688 3.199219 L 10.769531 2.144531 L 11.3125 1.199219 C 11.617188 0.671875 12.382812 0.671875 12.6875 1.199219 L 13.070312 1.855469 L 21.503906 0.800781 C 21.9375 0.753906 22.335938 1.054688 22.398438 1.503906 C 22.449219 1.9375 22.144531 2.335938 21.695312 2.398438 L 13.9375 3.359375 L 22.289062 17.984375 C 22.289062 18 22.289062 18 22.289062 18 C 22.367188 18.128906 22.398438 18.273438 22.398438 18.414062 L 22.398438 20.800781 C 22.398438 21.679688 21.679688 22.398438 20.800781 22.398438 L 3.199219 22.398438 C 2.320312 22.398438 1.601562 21.679688 1.601562 20.800781 L 1.601562 18.414062 C 1.601562 18.273438 1.632812 18.128906 1.710938 18 C 1.710938 18 1.710938 18 1.710938 17.984375 Z M 3.199219 18.609375 L 3.199219 19.199219 L 20.800781 19.199219 L 20.800781 18.609375 L 12.207031 3.585938 L 11.761719 3.632812 Z M 6.398438 14.398438 L 11.199219 14.398438 L 11.199219 18.398438 L 6.398438 18.398438 Z M 12.800781 14.398438 L 17.601562 14.398438 L 17.601562 18.398438 L 12.800781 18.398438 Z M 9.601562 9.601562 L 14.398438 9.601562 L 14.398438 13.601562 L 9.601562 13.601562 Z M 9.601562 9.601562 "/>
</svg>
