<?xml version="1.0" encoding="UTF-8"?>
<svg xmlns="http://www.w3.org/2000/svg" xmlns:xlink="http://www.w3.org/1999/xlink" width="24" height="24" viewBox="0 0 24 24">
<path fill-rule="nonzero" fill="rgb(0%, 0%, 0%)" fill-opacity="1" d="M 14.398438 1.601562 C 13.601562 3.199219 12.800781 4 12 4 C 11.199219 4 10.398438 3.199219 9.601562 1.601562 C 8 2.128906 7.199219 3.199219 7.199219 4.800781 C 7.199219 7.199219 9.601562 8 9.601562 12 C 9.601562 14.671875 6.929688 16.527344 1.601562 17.601562 C 1.601562 18.671875 2.128906 19.726562 3.199219 20.800781 C 4.800781 22.398438 6.398438 20.800781 8 20.800781 C 9.601562 20.800781 9.601562 22.398438 12 22.398438 C 14.398438 22.398438 14.398438 20.800781 16 20.800781 C 17.601562 20.800781 19.199219 22.398438 20.800781 20.800781 C 21.871094 19.726562 22.398438 18.671875 22.398438 17.601562 C 17.070312 16.527344 14.398438 14.671875 14.398438 12 C 14.398438 8 16.800781 7.199219 16.800781 4.800781 C 16.800781 3.199219 16 2.128906 14.398438 1.601562 Z M 14.398438 1.601562 "/>
</svg>
