<?xml version="1.0" encoding="UTF-8"?>
<svg xmlns="http://www.w3.org/2000/svg" xmlns:xlink="http://www.w3.org/1999/xlink" width="24" height="24" viewBox="0 0 24 24">
<path fill-rule="nonzero" fill="rgb(0%, 0%, 0%)" fill-opacity="1" d="M 20.800781 6 C 21.601562 6 22 6 22 7.199219 C 23.199219 7.199219 23.199219 8 23.199219 8.800781 C 23.199219 9.601562 23.199219 10.398438 22 10.398438 L 22 12 C 23.199219 12 23.199219 12.800781 23.199219 13.601562 C 23.199219 14.304688 23.199219 15.199219 22 15.199219 L 22 17.601562 C 22 18.398438 21.457031 18.800781 20.800781 18.800781 C 20.144531 18.800781 19.601562 18.398438 19.601562 17.601562 L 19.601562 15.199219 L 4.398438 15.199219 L 4.398438 17.601562 C 4.398438 18.398438 4 18.800781 3.199219 18.800781 C 2.398438 18.800781 2 18.398438 2 17.601562 L 2 15.199219 C 0.800781 15.199219 0.800781 14.273438 0.800781 13.601562 C 0.800781 12.800781 0.800781 12 2 12 L 2 10.398438 C 0.800781 10.398438 0.800781 9.472656 0.800781 8.800781 C 0.800781 8 0.800781 7.199219 2 7.199219 C 2 6 2.398438 6 3.199219 6 C 4 6 4.398438 6 4.398438 7.199219 L 19.601562 7.199219 C 19.601562 6 20 6 20.800781 6 Z M 19.601562 10.398438 L 4.398438 10.398438 L 4.398438 12 L 19.601562 12 Z M 19.601562 10.398438 "/>
</svg>
