<?xml version="1.0" encoding="UTF-8"?>
<svg xmlns="http://www.w3.org/2000/svg" xmlns:xlink="http://www.w3.org/1999/xlink" width="24" height="24" viewBox="0 0 24 24">
<path fill-rule="nonzero" fill="rgb(0%, 0%, 0%)" fill-opacity="1" d="M 8.621094 21.539062 C 8.796875 21.730469 8.789062 22.035156 8.597656 22.21875 L 7.554688 23.195312 C 7.363281 23.375 7.054688 23.363281 6.878906 23.167969 L 0.804688 16.628906 C 0.628906 16.433594 0.636719 16.128906 0.832031 15.945312 L 1.871094 14.972656 C 2.0625 14.789062 2.371094 14.804688 2.546875 14.996094 Z M 16.367188 9.226562 C 16.546875 9.417969 16.535156 9.726562 16.34375 9.90625 L 9.78125 16.035156 C 9.589844 16.21875 9.28125 16.203125 9.105469 16.011719 L 7.539062 14.324219 C 7.363281 14.132812 7.371094 13.824219 7.566406 13.640625 L 14.125 7.511719 C 14.320312 7.335938 14.625 7.34375 14.804688 7.535156 L 16.371094 9.226562 Z M 10.851562 19.449219 C 11.03125 19.640625 11.019531 19.949219 10.828125 20.132812 L 9.789062 21.105469 C 9.59375 21.289062 9.289062 21.273438 9.109375 21.082031 L 3.042969 14.539062 C 2.867188 14.347656 2.875 14.039062 3.066406 13.859375 L 4.109375 12.882812 C 4.300781 12.707031 4.609375 12.714844 4.785156 12.90625 L 10.859375 19.449219 Z M 20.960938 9.460938 C 21.140625 9.652344 21.128906 9.960938 20.9375 10.140625 L 19.894531 11.117188 C 19.703125 11.300781 19.398438 11.285156 19.21875 11.09375 L 13.152344 4.550781 C 12.972656 4.359375 12.984375 4.050781 13.175781 3.867188 L 14.222656 2.894531 C 14.414062 2.71875 14.722656 2.726562 14.898438 2.917969 L 20.964844 9.460938 Z M 23.1875 7.378906 C 23.367188 7.570312 23.355469 7.875 23.164062 8.058594 L 22.125 9.035156 C 21.929688 9.214844 21.625 9.203125 21.445312 9.007812 L 15.378906 2.46875 C 15.203125 2.273438 15.210938 1.96875 15.402344 1.785156 L 16.445312 0.8125 C 16.636719 0.628906 16.9375 0.644531 17.121094 0.835938 L 23.1875 7.382812 Z M 23.1875 7.378906 "/>
</svg>
