<?xml version="1.0" encoding="UTF-8"?>
<svg xmlns="http://www.w3.org/2000/svg" xmlns:xlink="http://www.w3.org/1999/xlink" width="24" height="24" viewBox="0 0 24 24">
<path fill-rule="nonzero" fill="rgb(0%, 0%, 0%)" fill-opacity="1" d="M 20.269531 12.148438 C 20.4375 11.941406 20.777344 11.707031 21.027344 11.625 L 23.089844 10.785156 C 23.324219 10.664062 23.515625 10.355469 23.515625 10.089844 L 23.515625 4.210938 C 23.515625 3.945312 23.3125 3.652344 23.070312 3.5625 C 23.070312 3.5625 18.757812 1.925781 15.867188 1.925781 C 13.179688 1.925781 9.464844 3.339844 9.464844 3.339844 C 9.222656 3.4375 8.804688 3.539062 8.539062 3.570312 L 0.957031 4.386719 C 0.691406 4.421875 0.480469 4.660156 0.480469 4.925781 L 0.480469 8.914062 C 0.480469 9.175781 0.691406 9.433594 0.949219 9.480469 L 8.535156 10.703125 C 8.792969 10.746094 9.210938 10.863281 9.457031 10.957031 L 14.648438 12.289062 C 14.910156 12.328125 15.195312 12.5625 15.28125 12.816406 L 18.335938 21.628906 C 18.421875 21.878906 18.695312 22.011719 18.945312 21.929688 L 22.171875 20.847656 C 22.421875 20.765625 22.554688 20.492188 22.46875 20.242188 L 20.351562 14.132812 C 20.265625 13.882812 20.195312 13.660156 20.1875 13.644531 L 20.183594 13.628906 C 19.929688 12.585938 20.273438 12.160156 20.273438 12.160156 Z M 16.589844 8.976562 C 15.382812 8.976562 14.410156 8.015625 14.410156 6.835938 C 14.410156 5.648438 15.382812 4.695312 16.589844 4.695312 C 17.789062 4.695312 18.769531 5.65625 18.769531 6.839844 C 18.769531 8.027344 17.792969 8.984375 16.59375 8.984375 Z M 16.589844 8.976562 "/>
</svg>
