<?xml version="1.0" encoding="UTF-8"?>
<svg xmlns="http://www.w3.org/2000/svg" xmlns:xlink="http://www.w3.org/1999/xlink" width="24" height="24" viewBox="0 0 24 24">
<path fill-rule="nonzero" fill="rgb(0%, 0%, 0%)" fill-opacity="1" d="M 12.574219 16.273438 L 20.207031 11.871094 L 23.808594 18.097656 C 24 18.433594 23.921875 18.863281 23.632812 19.105469 L 23.457031 19.214844 L 22.816406 19.601562 C 22.351562 19.855469 21.679688 19.550781 21.28125 19.3125 L 21.070312 19.183594 L 20.960938 19.089844 C 20.800781 19.054688 20.640625 19.054688 20.480469 19.105469 L 20.335938 19.167969 L 17.855469 20.609375 L 19.054688 22.6875 C 19.136719 22.910156 19.152344 23.152344 19.054688 23.390625 C 18.894531 23.808594 18.449219 24.03125 18.015625 23.921875 L 17.886719 23.871094 L 12.609375 21.695312 C 11.726562 21.550781 10.785156 21.425781 10.015625 21.441406 C 9.761719 21.441406 9.425781 21.488281 9.054688 21.550781 L 8.480469 21.664062 L 6.832031 22.046875 L 6.144531 22.191406 C 4.414062 22.542969 2.671875 22.703125 1.921875 21.761719 L 1.792969 21.566406 L 1.390625 20.878906 L 6.929688 17.679688 C 7.761719 17.199219 8.496094 17.070312 9.199219 17.007812 L 10.273438 16.945312 C 10.863281 16.878906 11.472656 16.785156 12.144531 16.496094 Z M 18.113281 8.289062 L 18.207031 8.398438 L 19.40625 10.480469 L 12.480469 14.480469 C 11.503906 15.039062 10.640625 15.183594 9.871094 15.246094 L 9.296875 15.296875 C 8.542969 15.328125 7.886719 15.375 7.152344 15.726562 L 6.816406 15.886719 L 0.59375 19.488281 L 0.191406 18.800781 C -0.015625 18.464844 0.078125 18.03125 0.367188 17.792969 L 0.480469 17.710938 L 6.015625 14.511719 C 6.992188 13.953125 7.855469 13.808594 8.625 13.726562 L 9.199219 13.695312 C 9.953125 13.648438 10.609375 13.617188 11.34375 13.265625 L 11.679688 13.089844 L 11.28125 12.398438 C 11.070312 12.0625 11.152344 11.632812 11.441406 11.390625 L 11.566406 11.3125 L 17.105469 8.113281 C 17.40625 7.9375 17.761719 7.984375 18.015625 8.175781 Z M 6.398438 0 L 5.9375 0.464844 C 5.28125 1.121094 4.878906 1.984375 4.816406 2.894531 L 4.800781 3.199219 L 6.398438 3.199219 L 6.398438 6.398438 L 4.800781 9.601562 L 6 9.601562 C 6.222656 9.601562 6.398438 9.777344 6.398438 10 L 6.398438 10.800781 C 6.398438 11.023438 6.222656 11.199219 6 11.199219 L 2 11.199219 C 1.777344 11.199219 1.601562 11.023438 1.601562 10.800781 L 1.601562 10 C 1.601562 9.777344 1.777344 9.601562 2 9.601562 L 3.199219 9.601562 L 1.601562 6.398438 L 1.601562 4.800781 C 1.601562 2.238281 3.601562 0.160156 6.113281 0.015625 Z M 21.601562 3.199219 C 22.480469 3.199219 23.199219 3.921875 23.199219 4.800781 C 23.199219 5.679688 22.480469 6.398438 21.601562 6.398438 L 7.199219 6.398438 L 7.199219 3.199219 Z M 21.601562 3.199219 "/>
</svg>
