<?xml version="1.0" encoding="UTF-8"?>
<svg xmlns="http://www.w3.org/2000/svg" xmlns:xlink="http://www.w3.org/1999/xlink" width="24" height="24" viewBox="0 0 24 24">
<path fill-rule="nonzero" fill="rgb(0%, 0%, 0%)" fill-opacity="1" d="M 13.847656 13.789062 C 14.472656 14 15.148438 13.683594 15.363281 13.074219 C 15.582031 12.46875 15.25 11.808594 14.628906 11.597656 C 14.007812 11.386719 13.328125 11.707031 13.113281 12.316406 C 12.902344 12.921875 13.230469 13.585938 13.851562 13.789062 Z M 23.617188 6.230469 C 23.617188 6.230469 19.585938 5.761719 11.21875 5.761719 C 5.042969 5.761719 0 6.230469 0 6.230469 C 0 6.230469 2.09375 7.128906 1.726562 9.90625 C 1.726562 9.90625 4.726562 9.558594 5.984375 12.0625 L 11.621094 10.398438 L 11.25 14.058594 L 8.867188 14.628906 C 8.65625 14.679688 8.476562 14.777344 8.328125 14.902344 L 3.097656 19.824219 C 2.789062 20.105469 2.785156 20.585938 3.082031 20.886719 C 3.375 21.1875 3.867188 21.195312 4.171875 20.914062 L 8.105469 17.222656 L 12.929688 16.070312 L 12.898438 16.078125 L 13.699219 15.878906 L 14.4375 16.699219 C 14.554688 16.820312 14.710938 16.894531 14.890625 16.894531 L 17.488281 16.90625 C 17.8125 16.90625 18.082031 16.644531 18.082031 16.324219 C 18.082031 16.046875 17.878906 15.832031 17.617188 15.761719 L 15.679688 9.207031 L 23.734375 6.832031 C 24.121094 6.667969 24.085938 6.28125 23.617188 6.234375 Z M 17.035156 15.734375 C 16.445312 15.734375 15.460938 15.730469 15.164062 15.730469 L 13.765625 14.1875 L 13.707031 14.144531 C 13.425781 13.824219 12.980469 13.65625 12.527344 13.761719 L 11.828125 13.929688 L 12.203125 10.230469 L 15.152344 9.359375 L 17.039062 15.734375 Z M 17.035156 15.734375 "/>
</svg>
