<?xml version="1.0" encoding="UTF-8"?>
<svg xmlns="http://www.w3.org/2000/svg" xmlns:xlink="http://www.w3.org/1999/xlink" width="24" height="24" viewBox="0 0 24 24">
<path fill-rule="nonzero" fill="rgb(0%, 0%, 0%)" fill-opacity="1" d="M 6.414062 6.398438 L 17.585938 6.398438 L 17.585938 3.199219 L 15.199219 3.199219 L 15.199219 1.601562 L 18.046875 1.601562 C 18.734375 1.601562 19.34375 2.046875 19.566406 2.6875 L 20.71875 6.160156 C 20.769531 6.320312 20.800781 6.480469 20.800781 6.65625 L 20.800781 20.800781 C 20.800781 22.558594 19.359375 24 17.601562 24 L 6.398438 24 C 4.640625 24 3.199219 22.558594 3.199219 20.800781 L 3.199219 6.65625 C 3.199219 6.480469 3.230469 6.320312 3.28125 6.160156 L 4.433594 2.6875 C 4.65625 2.046875 5.265625 1.601562 5.953125 1.601562 L 8.800781 1.601562 L 8.800781 3.199219 L 6.414062 3.199219 Z M 4.800781 12 L 4.816406 16.800781 C 4.816406 17.246094 5.183594 17.601562 5.617188 17.601562 L 10.414062 17.601562 C 10.847656 17.601562 11.214844 17.246094 11.214844 16.800781 L 11.183594 12 C 11.183594 11.550781 10.832031 11.199219 10.382812 11.199219 L 5.601562 11.199219 C 5.152344 11.199219 4.800781 11.550781 4.800781 12 Z M 14.398438 20.800781 C 14.398438 21.679688 15.121094 22.398438 16 22.398438 C 16.878906 22.398438 17.601562 21.679688 17.601562 20.800781 C 17.601562 19.921875 16.878906 19.199219 16 19.199219 C 15.121094 19.199219 14.398438 19.921875 14.398438 20.800781 Z M 9.601562 20.800781 C 9.601562 19.921875 8.878906 19.199219 8 19.199219 C 7.121094 19.199219 6.398438 19.921875 6.398438 20.800781 C 6.398438 21.679688 7.121094 22.398438 8 22.398438 C 8.878906 22.398438 9.601562 21.679688 9.601562 20.800781 Z M 8 8.800781 L 8 8.816406 C 8.015625 9.246094 8.367188 9.601562 8.800781 9.601562 L 15.214844 9.601562 C 15.648438 9.601562 16 9.246094 16 8.816406 C 16 8.816406 16 8.800781 16 8.800781 L 16 8.785156 C 15.984375 8.351562 15.632812 8 15.199219 8 L 8.785156 8 C 8.351562 8 8 8.351562 8 8.785156 C 8 8.785156 8 8.800781 8 8.800781 Z M 12.800781 12 L 12.816406 16.800781 C 12.816406 17.246094 13.183594 17.601562 13.617188 17.601562 L 18.414062 17.601562 C 18.847656 17.601562 19.214844 17.246094 19.214844 16.800781 L 19.183594 12 C 19.183594 11.550781 18.832031 11.199219 18.382812 11.199219 L 13.601562 11.199219 C 13.152344 11.199219 12.800781 11.550781 12.800781 12 Z M 9.601562 0.800781 C 9.601562 0.351562 9.953125 0 10.398438 0 L 13.601562 0 C 14.03125 0 14.382812 0.351562 14.398438 0.800781 L 14.398438 4 C 14.398438 4.449219 14.046875 4.800781 13.601562 4.800781 L 10.414062 4.800781 C 9.96875 4.800781 9.617188 4.449219 9.617188 4 Z M 9.601562 0.800781 "/>
</svg>
