<?xml version="1.0" encoding="UTF-8"?>
<svg xmlns="http://www.w3.org/2000/svg" xmlns:xlink="http://www.w3.org/1999/xlink" width="24" height="24" viewBox="0 0 24 24">
<path fill-rule="nonzero" fill="rgb(0%, 0%, 0%)" fill-opacity="1" d="M 20.800781 20.800781 L 20.800781 12 C 20.800781 11.550781 20.449219 11.199219 20 11.199219 L 4 11.199219 C 3.550781 11.199219 3.199219 11.550781 3.199219 12 L 3.199219 20.800781 L 0 20.800781 L 0 15.199219 C 0 8.574219 5.375 3.199219 12 3.199219 C 18.625 3.199219 24 8.574219 24 15.199219 L 24 20.800781 Z M 5.601562 8 C 5.152344 8 4.800781 8.351562 4.800781 8.800781 C 4.800781 9.246094 5.152344 9.601562 5.601562 9.601562 L 10.398438 9.601562 C 10.847656 9.601562 11.199219 9.246094 11.199219 8.800781 C 11.199219 8.351562 10.847656 8 10.398438 8 Z M 13.601562 8 C 13.152344 8 12.800781 8.351562 12.800781 8.800781 C 12.800781 9.246094 13.152344 9.601562 13.601562 9.601562 L 18.398438 9.601562 C 18.847656 9.601562 19.199219 9.246094 19.199219 8.800781 C 19.199219 8.351562 18.847656 8 18.398438 8 Z M 4.800781 19.199219 L 11.199219 19.199219 L 11.199219 20.800781 L 4.800781 20.800781 Z M 4.800781 16 L 11.199219 16 L 11.199219 17.601562 L 4.800781 17.601562 Z M 4.800781 12.800781 L 11.199219 12.800781 L 11.199219 14.398438 L 4.800781 14.398438 Z M 12.800781 12.800781 L 19.199219 12.800781 L 19.199219 14.398438 L 12.800781 14.398438 Z M 12.800781 16 L 19.199219 16 L 19.199219 17.601562 L 12.800781 17.601562 Z M 12.800781 19.199219 L 19.199219 19.199219 L 19.199219 20.800781 L 12.800781 20.800781 Z M 12.800781 19.199219 "/>
</svg>
