<?xml version="1.0" encoding="UTF-8"?>
<svg xmlns="http://www.w3.org/2000/svg" xmlns:xlink="http://www.w3.org/1999/xlink" width="24" height="24" viewBox="0 0 24 24">
<path fill-rule="nonzero" fill="rgb(0%, 0%, 0%)" fill-opacity="1" d="M 0 10.398438 C 0 12.800781 1.601562 15.199219 3.199219 15.199219 C 5.601562 15.199219 6.398438 15.199219 6.398438 13.601562 C 6.398438 12 4 12 4 9.601562 C 4 8 4 6.398438 1.601562 6.398438 C 0.800781 6.398438 0 8 0 10.398438 Z M 8.800781 13.601562 C 8.800781 14.398438 8 15.199219 7.199219 15.199219 C 6.398438 15.199219 6.398438 15.199219 6.398438 14.398438 C 6.398438 12.800781 5.601562 12 7.199219 12 C 8 12 8.800781 12.800781 8.800781 13.601562 Z M 8.800781 13.601562 "/>
<path fill-rule="nonzero" fill="rgb(0%, 0%, 0%)" fill-opacity="1" d="M 14.398438 0 C 20.800781 0 24 3.199219 24 8 C 24 12 20.800781 13.601562 20 17.601562 C 19.199219 20 17.601562 24 14.398438 24 C 11.199219 24 10.398438 21.601562 8.800781 19.199219 C 7.199219 16.800781 8.800781 16 9.601562 16.800781 C 10.398438 17.601562 12 22.398438 14.398438 22.398438 C 16 22.398438 17.601562 19.199219 18.398438 16.800781 C 19.199219 12.800781 22.398438 11.199219 22.398438 8 C 22.398438 4 20 1.601562 14.398438 1.601562 C 10.398438 1.601562 8.800781 4 8.800781 6.398438 C 8.800781 8 7.199219 8 7.199219 6.398438 C 7.199219 2.398438 9.601562 0 14.398438 0 Z M 15.199219 4 C 12 4 10.398438 5.601562 10.398438 8 C 10.398438 9.601562 10.398438 11.199219 11.199219 12 C 12 12.800781 12.800781 13.601562 12 14.398438 C 11.199219 15.199219 12.800781 16.800781 14.398438 14.398438 C 15.199219 12.800781 14.398438 12 13.601562 11.199219 C 12.800781 10.398438 12 9.601562 12 8 C 12 7.199219 12.800781 4.800781 15.199219 4.800781 C 16.800781 4.800781 19.199219 5.601562 19.199219 8 C 19.199219 10.398438 17.601562 12 18.398438 12 C 19.199219 12 20 9.601562 20 8 C 20 4.800781 16.800781 4 15.199219 4 Z M 15.199219 4 "/>
</svg>
