<?xml version="1.0" encoding="UTF-8"?>
<svg xmlns="http://www.w3.org/2000/svg" xmlns:xlink="http://www.w3.org/1999/xlink" width="24" height="24" viewBox="0 0 24 24">
<path fill-rule="nonzero" fill="rgb(0%, 0%, 0%)" fill-opacity="1" d="M 22.398438 24 L 20.800781 24 L 20.800781 3.199219 L 18.800781 3.199219 L 18.800781 8 C 18.800781 8.335938 18.65625 8.671875 18.398438 8.894531 L 18.273438 8.992188 L 14.398438 11.585938 L 14.398438 16.945312 L 17.136719 19.664062 C 17.710938 20.238281 17.761719 21.152344 17.265625 21.777344 L 17.136719 21.9375 C 16.558594 22.511719 15.648438 22.558594 15.023438 22.0625 L 14.863281 21.9375 L 11.664062 18.734375 C 11.425781 18.480469 11.265625 18.160156 11.214844 17.808594 L 11.199219 17.601562 L 11.199219 16.671875 L 9.953125 17.921875 L 11.023438 20.078125 L 11.105469 20.257812 C 11.375 21.007812 11.054688 21.871094 10.320312 22.222656 C 9.585938 22.59375 8.703125 22.351562 8.257812 21.679688 L 8.175781 21.519531 L 6.574219 18.320312 L 6.496094 18.128906 C 6.304688 17.617188 6.398438 17.054688 6.734375 16.625 L 6.863281 16.464844 L 9.601562 13.726562 L 9.601562 11.585938 L 5.726562 8.992188 L 5.601562 8.894531 C 5.390625 8.703125 5.246094 8.449219 5.214844 8.175781 L 5.199219 8 L 5.199219 3.199219 L 3.199219 3.199219 L 3.199219 24 L 1.601562 24 L 1.601562 0.800781 C 1.601562 0.351562 1.953125 0 2.398438 0 C 2.847656 0 3.199219 0.351562 3.199219 0.800781 L 3.199219 1.601562 L 5.199219 1.601562 L 5.214844 1.441406 C 5.28125 0.910156 5.710938 0.480469 6.238281 0.414062 L 6.398438 0.398438 L 6.558594 0.414062 C 7.089844 0.480469 7.519531 0.910156 7.585938 1.441406 L 7.601562 1.601562 L 16.398438 1.601562 C 16.398438 0.992188 16.847656 0.496094 17.441406 0.414062 L 17.601562 0.398438 C 18.207031 0.398438 18.703125 0.847656 18.785156 1.441406 L 18.800781 1.601562 L 20.800781 1.601562 L 20.800781 0.800781 C 20.800781 0.351562 21.152344 0 21.601562 0 C 22.046875 0 22.398438 0.351562 22.398438 0.800781 Z M 16.398438 3.199219 L 7.601562 3.199219 L 7.601562 7.359375 L 10.960938 9.601562 L 13.039062 9.601562 L 16.398438 7.359375 Z M 12 4 C 13.328125 4 14.398438 5.070312 14.398438 6.398438 C 14.398438 7.726562 13.328125 8.800781 12 8.800781 C 10.671875 8.800781 9.601562 7.726562 9.601562 6.398438 C 9.601562 5.070312 10.671875 4 12 4 Z M 12 4 "/>
</svg>
