<?xml version="1.0" encoding="UTF-8"?>
<svg xmlns="http://www.w3.org/2000/svg" xmlns:xlink="http://www.w3.org/1999/xlink" width="24" height="24" viewBox="0 0 24 24">
<path fill-rule="nonzero" fill="rgb(0%, 0%, 0%)" fill-opacity="1" d="M 1.488281 5.3125 C 1.632812 5.3125 1.761719 5.328125 1.902344 5.375 C 6.144531 6.59375 9.519531 7.199219 12 7.199219 C 14.480469 7.199219 17.855469 6.59375 22.097656 5.375 C 22.894531 5.136719 23.710938 5.601562 23.9375 6.382812 C 23.984375 6.527344 24 6.65625 24 6.800781 C 24 8.128906 23.246094 9.328125 22.0625 9.921875 C 20.847656 10.511719 19.550781 10.976562 18.160156 11.3125 L 19.023438 15.199219 L 20.449219 15.199219 C 21.136719 15.199219 21.742188 15.648438 21.96875 16.289062 L 22.222656 17.070312 C 22.289062 17.28125 22.175781 17.503906 21.96875 17.585938 C 21.9375 17.601562 21.886719 17.601562 21.839844 17.601562 L 2.160156 17.601562 C 1.9375 17.601562 1.761719 17.425781 1.761719 17.199219 C 1.761719 17.152344 1.761719 17.121094 1.777344 17.070312 L 2.03125 16.289062 C 2.257812 15.648438 2.863281 15.199219 3.550781 15.199219 L 4.976562 15.199219 L 5.839844 11.3125 C 4.449219 10.976562 3.152344 10.511719 1.9375 9.921875 C 0.753906 9.328125 0 8.128906 0 6.800781 C 0 5.984375 0.671875 5.3125 1.488281 5.3125 Z M 14.398438 11.902344 C 13.632812 11.96875 12.832031 12 12 12 C 11.183594 12 10.382812 11.96875 9.601562 11.902344 L 9.601562 15.199219 L 14.398438 15.199219 Z M 8 8 C 7.121094 8 6.398438 8.351562 6.398438 8.800781 C 6.398438 9.246094 7.121094 9.601562 8 9.601562 C 8.878906 9.601562 9.601562 9.246094 9.601562 8.800781 C 9.601562 8.351562 8.878906 8 8 8 Z M 16 8 C 15.121094 8 14.398438 8.351562 14.398438 8.800781 C 14.398438 9.246094 15.121094 9.601562 16 9.601562 C 16.878906 9.601562 17.601562 9.246094 17.601562 8.800781 C 17.601562 8.351562 16.878906 8 16 8 Z M 16 8 "/>
</svg>
