<?xml version="1.0" encoding="UTF-8"?>
<svg xmlns="http://www.w3.org/2000/svg" xmlns:xlink="http://www.w3.org/1999/xlink" width="24" height="24" viewBox="0 0 24 24">
<path fill-rule="nonzero" fill="rgb(0%, 0%, 0%)" fill-opacity="1" d="M 3.199219 1.601562 L 6.71875 1.601562 C 8.480469 1.601562 8.480469 3.328125 8.480469 5.070312 C 8.480469 10.335938 3.3125 18.929688 12 18.929688 C 20.703125 18.929688 15.519531 10.335938 15.519531 5.070312 C 15.519531 3.328125 15.519531 1.601562 17.28125 1.601562 L 20.800781 1.601562 L 20.800781 3.328125 C 20.800781 4.496094 20.273438 4.976562 19.199219 4.800781 C 19.121094 5.566406 19.121094 6.097656 19.199219 6.398438 C 20.015625 9.566406 20.800781 12.433594 20.800781 15.472656 C 20.800781 20.671875 16.449219 22.398438 12 22.398438 C 7.550781 22.398438 3.199219 20.671875 3.199219 15.472656 C 3.199219 12.625 4.078125 9.359375 4.800781 6.398438 C 4.910156 5.96875 4.910156 5.441406 4.800781 4.800781 C 3.726562 4.976562 3.199219 4.496094 3.199219 3.328125 Z M 3.199219 1.601562 "/>
</svg>
