<?xml version="1.0" encoding="UTF-8"?>
<svg xmlns="http://www.w3.org/2000/svg" xmlns:xlink="http://www.w3.org/1999/xlink" width="24" height="24" viewBox="0 0 24 24">
<path fill-rule="nonzero" fill="rgb(0%, 0%, 0%)" fill-opacity="1" d="M 4.558594 11.519531 L 18.960938 11.519531 C 20.015625 11.519531 19.679688 12 19.921875 12 C 20.398438 12 20.160156 11.566406 20.398438 11.519531 L 22.800781 11.039062 C 23.292969 10.933594 23.519531 11.511719 22.992188 11.65625 L 20.597656 12.128906 C 20.382812 12.175781 20.335938 12.328125 20.332031 12.449219 C 20.160156 21.359375 3.359375 21.359375 3.171875 12.449219 C 3.171875 12.324219 3.125 12.171875 2.910156 12.128906 L 0.511719 11.652344 C 0.121094 11.5625 0.265625 10.9375 0.699219 11.039062 L 3.121094 11.519531 C 3.359375 11.566406 3.121094 12 3.601562 12 C 3.839844 12 3.503906 11.519531 4.558594 11.519531 Z M 6.480469 9.121094 C 6.71875 9.601562 7.679688 9.121094 7.441406 8.640625 C 6.480469 6.71875 8.878906 5.761719 7.441406 2.878906 C 7.199219 2.398438 6.238281 2.878906 6.480469 3.359375 C 7.441406 5.28125 5.039062 6.238281 6.480469 9.121094 M 11.28125 9.121094 C 11.519531 9.601562 12.480469 9.121094 12.238281 8.640625 C 11.28125 6.71875 13.679688 5.761719 12.238281 2.878906 C 12 2.398438 11.039062 2.878906 11.28125 3.359375 C 12.238281 5.28125 9.839844 6.238281 11.28125 9.121094 M 16.078125 9.121094 C 16.320312 9.601562 17.28125 9.121094 17.039062 8.640625 C 16.078125 6.71875 18.480469 5.761719 17.039062 2.878906 C 16.800781 2.398438 15.839844 2.878906 16.078125 3.359375 C 17.039062 5.28125 14.640625 6.238281 16.078125 9.121094 "/>
</svg>
