<?xml version="1.0" encoding="UTF-8"?>
<svg xmlns="http://www.w3.org/2000/svg" xmlns:xlink="http://www.w3.org/1999/xlink" width="24" height="24" viewBox="0 0 24 24">
<path fill-rule="nonzero" fill="rgb(0%, 0%, 0%)" fill-opacity="1" d="M 17.601562 0 L 17.601562 12.703125 L 19.984375 23.023438 C 20.078125 23.457031 19.808594 23.886719 19.375 23.984375 C 18.992188 24.0625 18.609375 23.871094 18.464844 23.519531 L 18.414062 23.375 L 18.0625 21.824219 L 12 17.550781 L 5.9375 21.824219 L 5.585938 23.375 C 5.488281 23.808594 5.054688 24.078125 4.625 23.984375 C 4.238281 23.886719 3.984375 23.535156 4 23.167969 L 4.015625 23.023438 L 6.398438 12.703125 L 6.398438 1.601562 Z M 16.367188 14.480469 L 13.390625 16.574219 L 17.519531 19.488281 Z M 7.632812 14.480469 L 6.480469 19.488281 L 10.609375 16.574219 Z M 15.96875 12.800781 L 8.03125 12.800781 L 12 15.601562 Z M 11.199219 4.800781 L 8 4.800781 L 8 6.398438 L 11.199219 6.398438 Z M 16 4.800781 L 12.800781 4.800781 L 12.800781 6.398438 L 16 6.398438 Z M 16 4.800781 "/>
</svg>
