<?xml version="1.0" encoding="UTF-8"?>
<svg xmlns="http://www.w3.org/2000/svg" xmlns:xlink="http://www.w3.org/1999/xlink" width="24" height="24" viewBox="0 0 24 24">
<path fill-rule="nonzero" fill="rgb(0%, 0%, 0%)" fill-opacity="1" d="M 14.640625 14.113281 L 17.808594 15.886719 L 19.519531 14.175781 L 20.800781 14.59375 L 20.800781 24 L 14.398438 24 L 14.398438 17.601562 L 9.601562 17.601562 L 9.601562 24 L 3.199219 24 L 3.199219 14.59375 L 4.480469 14.175781 L 6.191406 15.886719 L 9.359375 14.113281 L 12 16.976562 Z M 14.640625 7.855469 L 17.839844 9.457031 L 18.960938 8.335938 L 24 14.398438 L 19.199219 12.800781 L 17.601562 14.398438 L 14.398438 12.609375 L 12 15.199219 L 9.601562 12.609375 L 6.398438 14.398438 L 4.800781 12.800781 L 0 14.398438 L 5.039062 8.351562 L 6.160156 9.457031 L 9.359375 7.855469 L 12 10.496094 Z M 12 0 L 19.199219 6.398438 L 17.601562 8 L 14.398438 6.398438 L 12 8.800781 L 9.601562 6.398438 L 6.398438 8 L 4.800781 6.398438 Z M 12 0 "/>
</svg>
