<?xml version="1.0" encoding="UTF-8"?>
<svg xmlns="http://www.w3.org/2000/svg" xmlns:xlink="http://www.w3.org/1999/xlink" width="24" height="24" viewBox="0 0 24 24">
<path fill-rule="nonzero" fill="rgb(0%, 0%, 0%)" fill-opacity="1" d="M 20.785156 17.601562 L 20.785156 24 L 19.199219 24 L 19.199219 17.601562 L 4.800781 17.601562 L 4.800781 24 L 3.214844 24 L 3.214844 6.398438 L 0.863281 6.398438 C 0.414062 6.398438 0.0625 6.046875 0.0625 5.601562 C 0.0625 5.40625 0.128906 5.214844 0.273438 5.070312 L 4.800781 0 L 19.199219 0 L 23.726562 5.070312 C 24.03125 5.390625 24 5.902344 23.664062 6.191406 C 23.519531 6.320312 23.328125 6.398438 23.136719 6.398438 L 20.785156 6.398438 Z M 4.800781 6.398438 L 4.800781 16 L 19.199219 16 L 19.199219 6.398438 Z M 7.199219 8 L 8.800781 8 C 9.246094 8 9.601562 8.351562 9.601562 8.800781 L 9.601562 13.601562 C 9.601562 14.046875 9.246094 14.398438 8.800781 14.398438 L 7.199219 14.398438 C 6.769531 14.398438 6.398438 14.046875 6.398438 13.601562 L 6.398438 8.800781 C 6.398438 8.351562 6.769531 8 7.199219 8 Z M 12 8 L 16.800781 8 C 17.230469 8 17.601562 8.351562 17.601562 8.800781 L 17.601562 10.398438 C 17.601562 10.847656 17.230469 11.199219 16.800781 11.199219 L 12 11.199219 C 11.550781 11.199219 11.199219 10.847656 11.199219 10.398438 L 11.199219 8.800781 C 11.199219 8.351562 11.550781 8 12 8 Z M 12 12.800781 L 16.800781 12.800781 C 17.230469 12.800781 17.601562 13.152344 17.601562 13.601562 C 17.601562 14.046875 17.230469 14.398438 16.800781 14.398438 L 12 14.398438 C 11.550781 14.398438 11.199219 14.046875 11.199219 13.601562 C 11.199219 13.152344 11.550781 12.800781 12 12.800781 Z M 12 12.800781 "/>
</svg>
