<?xml version="1.0" encoding="UTF-8"?>
<svg xmlns="http://www.w3.org/2000/svg" xmlns:xlink="http://www.w3.org/1999/xlink" width="24" height="24" viewBox="0 0 24 24">
<path fill-rule="nonzero" fill="rgb(0%, 0%, 0%)" fill-opacity="1" d="M 16.886719 0.480469 C 15.800781 0.480469 14.921875 1.371094 14.921875 2.46875 C 14.921875 3.566406 15.800781 4.453125 16.886719 4.453125 C 17.976562 4.453125 18.859375 3.566406 18.859375 2.46875 C 18.859375 1.371094 17.976562 0.480469 16.886719 0.480469 Z M 2.035156 14.179688 C 1.867188 13.902344 1.507812 13.820312 1.238281 13.992188 C 0.964844 14.164062 0.882812 14.523438 1.050781 14.804688 C 1.222656 15.070312 1.578125 15.160156 1.859375 14.992188 C 2.125 14.816406 2.207031 14.457031 2.039062 14.183594 Z M 2.4375 15.800781 C 2.269531 15.53125 1.910156 15.445312 1.636719 15.621094 C 1.367188 15.789062 1.285156 16.152344 1.453125 16.421875 C 1.628906 16.703125 1.980469 16.78125 2.25 16.613281 C 2.523438 16.441406 2.605469 16.078125 2.4375 15.800781 Z M 2.839844 17.429688 C 2.671875 17.152344 2.308594 17.070312 2.039062 17.242188 C 1.761719 17.414062 1.683594 17.773438 1.851562 18.054688 C 2.019531 18.320312 2.386719 18.40625 2.65625 18.234375 C 2.929688 18.066406 3.007812 17.703125 2.839844 17.433594 Z M 3.238281 19.050781 C 3.070312 18.78125 2.710938 18.695312 2.441406 18.859375 C 2.164062 19.035156 2.089844 19.398438 2.257812 19.671875 C 2.429688 19.949219 2.785156 20.03125 3.0625 19.859375 C 3.332031 19.683594 3.414062 19.324219 3.246094 19.050781 Z M 12.679688 22.355469 C 12.375 22.460938 12.203125 22.785156 12.300781 23.097656 C 12.402344 23.410156 12.730469 23.578125 13.035156 23.480469 C 13.34375 23.378906 13.511719 23.050781 13.414062 22.746094 C 13.316406 22.433594 12.988281 22.265625 12.679688 22.359375 Z M 14.332031 22.367188 C 14.027344 22.464844 13.859375 22.796875 13.957031 23.101562 C 14.058594 23.414062 14.386719 23.585938 14.691406 23.488281 C 14.996094 23.390625 15.167969 23.054688 15.066406 22.746094 C 14.964844 22.441406 14.644531 22.265625 14.335938 22.367188 Z M 16 22.371094 C 15.6875 22.472656 15.519531 22.800781 15.621094 23.113281 C 15.714844 23.417969 16.046875 23.59375 16.355469 23.492188 C 16.65625 23.398438 16.824219 23.0625 16.722656 22.753906 C 16.632812 22.445312 16.300781 22.273438 16 22.371094 Z M 17.648438 22.378906 C 17.347656 22.476562 17.175781 22.808594 17.273438 23.117188 C 17.375 23.425781 17.707031 23.597656 18.007812 23.496094 C 18.316406 23.394531 18.480469 23.070312 18.382812 22.761719 C 18.28125 22.449219 17.957031 22.28125 17.648438 22.378906 Z M 21.601562 8.164062 L 18.164062 8.164062 L 16.464844 5.386719 C 16.171875 4.757812 15.558594 4.324219 14.832031 4.296875 C 14.691406 4.292969 14.5625 4.308594 14.433594 4.339844 L 5.796875 6.390625 C 5.273438 6.511719 4.949219 7.035156 5.074219 7.570312 C 5.1875 8.097656 5.707031 8.425781 6.226562 8.304688 L 11.992188 7.253906 L 7.609375 14.886719 L 2.921875 14.886719 L 3.960938 18.671875 C 3.992188 18.796875 3.992188 18.65625 4.035156 18.726562 C 4.179688 18.964844 4.492188 18.960938 4.726562 18.816406 C 4.859375 18.738281 4.9375 18.566406 4.964844 18.433594 L 5.582031 16.503906 L 5.605469 16.414062 L 8.496094 16.398438 C 9.070312 16.398438 9.5625 16.238281 9.855469 15.75 L 11.183594 13.527344 L 14.140625 16.558594 L 12.886719 21.609375 L 17.226562 21.609375 C 17.503906 21.609375 17.734375 21.316406 17.734375 21.039062 C 17.734375 20.816406 17.601562 20.636719 17.433594 20.539062 L 15.5625 19.472656 L 16.460938 15.886719 C 16.460938 15.886719 16.683594 15.125 15.972656 14.429688 L 13.554688 11.980469 C 13.554688 11.980469 14.847656 9.835938 15.675781 8.457031 L 16.800781 10.09375 L 21.582031 10.09375 C 22.117188 10.09375 22.554688 9.675781 22.558594 9.140625 C 22.566406 8.597656 22.132812 8.175781 21.601562 8.175781 Z M 21.601562 8.164062 "/>
</svg>
