<?xml version="1.0" encoding="UTF-8"?>
<svg xmlns="http://www.w3.org/2000/svg" xmlns:xlink="http://www.w3.org/1999/xlink" width="24" height="24" viewBox="0 0 24 24">
<path fill-rule="nonzero" fill="rgb(0%, 0%, 0%)" fill-opacity="1" d="M 7.910156 5.707031 C 8.933594 5.582031 9.664062 4.636719 9.539062 3.59375 C 9.417969 2.554688 8.488281 1.8125 7.464844 1.933594 C 6.441406 2.0625 5.71875 3.003906 5.835938 4.046875 C 5.960938 5.089844 6.882812 5.832031 7.910156 5.707031 Z M 23.242188 14.664062 C 23.140625 14.617188 15.539062 10.679688 15.539062 10.679688 L 13.609375 8.144531 L 13.488281 8.117188 C 13.222656 7.871094 12.960938 7.890625 12.480469 8.160156 L 12.480469 8.164062 C 12.480469 8.367188 12.375 8.664062 12.507812 8.902344 L 13.988281 10.785156 L 14.015625 10.804688 L 12.839844 13.578125 L 9.695312 12.777344 L 9.5625 11.628906 L 12.152344 11.3125 C 12.269531 11.308594 12.390625 11.273438 12.5 11.210938 C 12.929688 10.980469 13.09375 10.441406 12.867188 10.003906 C 12.691406 9.667969 12.339844 9.488281 11.996094 9.527344 L 9.355469 9.855469 L 9.121094 7.859375 C 8.996094 6.820312 8.0625 6.078125 7.046875 6.195312 C 6.027344 6.328125 5.292969 7.273438 5.414062 8.320312 L 5.964844 12.929688 C 6.035156 13.523438 6.375 14.03125 6.835938 14.328125 L 2.6875 14.832031 L 1.398438 18.097656 L 1.546875 18.046875 C 2.078125 17.792969 2.671875 17.660156 3.257812 17.660156 C 3.84375 17.660156 4.429688 17.792969 4.957031 18.039062 C 5.292969 18.195312 5.664062 18.273438 6.019531 18.273438 C 6.378906 18.273438 6.742188 18.195312 7.070312 18.042969 C 7.601562 17.789062 8.195312 17.65625 8.785156 17.65625 C 9.371094 17.65625 9.957031 17.789062 10.476562 18.035156 C 10.820312 18.191406 11.1875 18.269531 11.542969 18.269531 C 11.910156 18.269531 12.265625 18.191406 12.601562 18.039062 C 13.132812 17.785156 13.726562 17.648438 14.3125 17.648438 C 14.898438 17.648438 15.484375 17.785156 16.007812 18.027344 C 16.132812 18.085938 16.273438 18.125 16.410156 18.164062 C 18.527344 17.597656 22.28125 16.503906 23.292969 15.582031 C 23.59375 15.3125 23.644531 14.859375 23.257812 14.664062 Z M 0.480469 22.078125 C 0.964844 22.078125 1.429688 21.96875 1.84375 21.777344 C 2.265625 21.574219 2.746094 21.460938 3.246094 21.460938 C 3.742188 21.460938 4.21875 21.574219 4.644531 21.78125 C 5.058594 21.972656 5.519531 22.085938 6.003906 22.085938 C 6.484375 22.085938 6.949219 21.972656 7.367188 21.78125 C 7.789062 21.582031 8.269531 21.464844 8.769531 21.464844 C 9.265625 21.464844 9.742188 21.582031 10.171875 21.789062 C 10.585938 21.980469 11.042969 22.089844 11.53125 22.089844 C 12.015625 22.089844 12.476562 21.980469 12.894531 21.789062 C 13.316406 21.585938 13.796875 21.46875 14.292969 21.46875 C 14.789062 21.46875 15.269531 21.585938 15.691406 21.792969 C 16.109375 21.984375 16.570312 22.09375 17.054688 22.09375 C 17.539062 22.09375 18 21.984375 18.414062 21.792969 C 18.84375 21.589844 19.320312 21.476562 19.8125 21.476562 C 20.3125 21.476562 20.777344 21.589844 21.203125 21.796875 C 21.613281 21.988281 22.070312 22.097656 22.550781 22.097656 L 22.550781 20.019531 C 22.070312 20.019531 21.613281 19.910156 21.203125 19.71875 C 20.777344 19.515625 20.308594 19.40625 19.808594 19.40625 C 19.316406 19.40625 18.839844 19.515625 18.414062 19.722656 C 18 19.914062 17.539062 20.027344 17.054688 20.027344 C 16.570312 20.027344 16.109375 19.914062 15.691406 19.722656 C 15.269531 19.523438 14.789062 19.410156 14.292969 19.410156 C 13.796875 19.410156 13.316406 19.523438 12.894531 19.726562 C 12.476562 19.921875 12.015625 20.03125 11.53125 20.03125 C 11.042969 20.03125 10.585938 19.921875 10.171875 19.726562 C 9.742188 19.527344 9.265625 19.414062 8.769531 19.414062 C 8.269531 19.414062 7.789062 19.527344 7.367188 19.734375 C 6.949219 19.925781 6.488281 20.035156 6.003906 20.035156 C 5.519531 20.035156 5.058594 19.925781 4.644531 19.734375 C 4.21875 19.53125 3.742188 19.421875 3.246094 19.421875 C 2.746094 19.421875 2.265625 19.53125 1.84375 19.738281 C 1.429688 19.929688 0.964844 20.039062 0.480469 20.039062 L 0.480469 22.117188 Z M 0.480469 22.078125 "/>
</svg>
