<?xml version="1.0" encoding="UTF-8"?>
<svg xmlns="http://www.w3.org/2000/svg" xmlns:xlink="http://www.w3.org/1999/xlink" width="24" height="24" viewBox="0 0 24 24">
<path fill-rule="nonzero" fill="rgb(0%, 0%, 0%)" fill-opacity="1" d="M 19.792969 15.199219 C 19.921875 15.441406 20 15.710938 20 16 C 20 16.878906 19.28125 17.601562 18.398438 17.601562 C 17.519531 17.601562 16.800781 16.878906 16.800781 16 C 16.800781 15.710938 16.878906 15.441406 17.007812 15.199219 L 15.566406 15.199219 C 14.894531 16.625 13.550781 17.601562 12 17.601562 C 10.449219 17.601562 9.105469 16.625 8.433594 15.199219 L 6.992188 15.199219 C 7.121094 15.441406 7.199219 15.710938 7.199219 16 C 7.199219 16.878906 6.480469 17.601562 5.601562 17.601562 C 4.71875 17.601562 4 16.878906 4 16 C 4 15.710938 4.078125 15.441406 4.207031 15.199219 L 1.328125 15.199219 L 0.0625 12.734375 C -0.0625 12.480469 0.03125 12.175781 0.273438 12.046875 C 0.351562 12.015625 0.433594 12 0.511719 12 L 1.007812 12 C 1.214844 12 1.40625 12.078125 1.566406 12.222656 L 2.976562 13.601562 L 8.03125 12.703125 C 8.335938 10.511719 10.511719 8.800781 12 8.800781 C 13.488281 8.800781 15.664062 10.511719 15.96875 12.703125 L 21.023438 13.601562 L 22.433594 12.222656 C 22.59375 12.078125 22.785156 12 22.992188 12 L 23.488281 12 C 23.777344 12 24 12.222656 24 12.496094 C 24 12.574219 23.96875 12.65625 23.9375 12.734375 L 22.671875 15.199219 Z M 11.199219 8 L 11.199219 5.601562 C 11.199219 5.152344 11.550781 4.800781 12 4.800781 C 12.449219 4.800781 12.800781 5.152344 12.800781 5.601562 L 12.800781 8 Z M 11.199219 10.398438 L 9.601562 12 C 10.496094 12.527344 11.296875 12.800781 12 12.800781 C 12.703125 12.800781 13.503906 12.527344 14.398438 12 L 12.800781 10.398438 Z M 11.199219 10.398438 "/>
</svg>
