<?xml version="1.0" encoding="UTF-8"?>
<svg xmlns="http://www.w3.org/2000/svg" xmlns:xlink="http://www.w3.org/1999/xlink" width="24" height="24" viewBox="0 0 24 24">
<path fill-rule="nonzero" fill="rgb(0%, 0%, 0%)" fill-opacity="1" d="M 19.894531 14.792969 C 19.414062 14.792969 18.960938 14.910156 18.558594 15.105469 C 18.160156 15.289062 17.71875 15.394531 17.25 15.394531 C 16.789062 15.394531 16.347656 15.28125 15.949219 15.105469 C 15.546875 14.910156 15.085938 14.792969 14.609375 14.792969 C 14.136719 14.792969 13.679688 14.910156 13.273438 15.105469 C 12.878906 15.289062 12.4375 15.394531 11.976562 15.394531 C 11.515625 15.394531 11.0625 15.28125 10.671875 15.105469 C 10.265625 14.910156 9.804688 14.792969 9.332031 14.792969 C 8.851562 14.792969 8.394531 14.910156 7.992188 15.105469 C 7.59375 15.289062 7.152344 15.394531 6.691406 15.394531 C 6.230469 15.394531 5.789062 15.28125 5.386719 15.105469 C 4.980469 14.910156 4.53125 14.792969 4.050781 14.792969 C 3.570312 14.792969 3.140625 14.910156 2.730469 15.105469 C 2.332031 15.289062 1.929688 15.394531 1.449219 15.394531 L 1.449219 17.414062 C 1.929688 17.414062 2.332031 17.304688 2.730469 17.125 C 3.132812 16.929688 3.582031 16.8125 4.0625 16.8125 C 4.539062 16.8125 4.988281 16.929688 5.390625 17.125 C 5.726562 17.28125 6.097656 17.367188 6.480469 17.394531 L 4.859375 19.066406 C 4.34375 18.734375 3.65625 18.792969 3.210938 19.257812 L 1.355469 21.183594 C 0.839844 21.714844 0.839844 22.585938 1.355469 23.121094 C 1.871094 23.65625 2.710938 23.65625 3.226562 23.121094 L 5.082031 21.203125 C 5.503906 20.765625 5.578125 20.113281 5.3125 19.59375 L 7.546875 17.285156 C 7.699219 17.238281 7.84375 17.199219 7.988281 17.132812 C 8.390625 16.933594 8.851562 16.820312 9.328125 16.820312 C 9.804688 16.820312 10.261719 16.933594 10.664062 17.132812 C 11.058594 17.308594 11.511719 17.417969 11.972656 17.417969 C 12.433594 17.417969 12.875 17.308594 13.273438 17.132812 C 13.679688 16.933594 14.140625 16.820312 14.609375 16.820312 C 15.089844 16.820312 15.546875 16.933594 15.949219 17.132812 C 16.347656 17.308594 16.789062 17.417969 17.257812 17.417969 C 17.722656 17.417969 18.160156 17.308594 18.5625 17.132812 C 18.964844 16.933594 19.425781 16.820312 19.902344 16.820312 C 20.378906 16.820312 20.839844 16.933594 21.253906 17.132812 C 21.648438 17.3125 22.089844 17.417969 22.570312 17.417969 L 22.570312 15.398438 C 22.089844 15.398438 21.648438 15.289062 21.253906 15.109375 C 20.847656 14.914062 20.378906 14.796875 19.902344 14.796875 Z M 20.792969 4.90625 L 22.652344 2.980469 C 23.167969 2.441406 23.167969 1.574219 22.652344 1.042969 C 22.136719 0.503906 21.292969 0.503906 20.777344 1.042969 L 18.921875 2.964844 C 18.476562 3.433594 18.417969 4.136719 18.742188 4.664062 L 16.433594 7.0625 L 11.851562 5.300781 C 11.730469 5.226562 11.605469 5.167969 11.460938 5.125 C 10.464844 4.8125 9.402344 5.40625 9.105469 6.441406 L 7.699219 11.351562 L 7.671875 11.523438 L 1.445312 11.523438 L 1.445312 14.121094 C 1.925781 14.121094 2.117188 14.039062 2.429688 13.902344 C 2.9375 13.65625 3.496094 13.527344 4.054688 13.527344 C 4.613281 13.527344 5.167969 13.65625 5.667969 13.894531 C 6 14.050781 6.339844 14.125 6.6875 14.125 C 7.035156 14.125 7.378906 14.050781 7.695312 13.90625 C 8.207031 13.660156 8.773438 13.53125 9.328125 13.53125 C 9.886719 13.53125 10.441406 13.65625 10.953125 13.902344 C 11.273438 14.054688 11.625 14.132812 11.976562 14.132812 C 12.320312 14.132812 12.664062 14.054688 12.984375 13.910156 C 13.492188 13.664062 14.0625 13.535156 14.617188 13.535156 C 15.183594 13.535156 15.730469 13.660156 16.238281 13.90625 C 16.566406 14.058594 16.921875 14.136719 17.261719 14.136719 C 17.609375 14.136719 17.957031 14.058594 18.269531 13.914062 C 18.777344 13.671875 19.347656 13.539062 19.90625 13.539062 C 20 13.539062 20.386719 13.570312 20.765625 13.308594 C 21.4375 13.007812 21.691406 12.832031 22.277344 12.457031 C 22.761719 12.148438 23.144531 11.542969 22.09375 11.542969 L 12.972656 11.542969 L 15.792969 8.761719 L 16.152344 8.898438 C 16.601562 9.066406 17.105469 8.828125 17.273438 8.363281 C 17.390625 8.03125 17.304688 7.671875 17.082031 7.429688 L 19.261719 5.164062 C 19.761719 5.4375 20.390625 5.367188 20.8125 4.929688 Z M 12.160156 11.519531 L 11.597656 11.519531 L 12.734375 7.585938 L 15.082031 8.492188 L 12.164062 11.519531 Z M 12.144531 2.835938 L 11.902344 3.328125 C 11.746094 3.65625 11.417969 3.839844 11.042969 3.839844 L 10.476562 3.839844 C 10.804688 4.320312 11.433594 4.621094 12.039062 4.621094 C 13.027344 4.621094 13.925781 3.789062 13.925781 2.761719 L 13.925781 2.875 L 12.234375 2.875 L 12.148438 2.832031 Z M 11.042969 3.359375 C 11.242188 3.359375 11.414062 3.238281 11.492188 3.066406 L 11.726562 2.636719 C 11.816406 2.433594 12.003906 2.398438 12.226562 2.398438 L 14.074219 2.398438 C 13.832031 1.441406 12.964844 0.585938 11.9375 0.585938 C 10.722656 0.585938 9.738281 1.554688 9.738281 2.816406 C 9.738281 3.019531 9.757812 3.359375 9.8125 3.359375 Z M 11.042969 3.359375 "/>
</svg>
