<?xml version="1.0" encoding="UTF-8"?>
<svg xmlns="http://www.w3.org/2000/svg" xmlns:xlink="http://www.w3.org/1999/xlink" width="24" height="24" viewBox="0 0 24 24">
<path fill-rule="nonzero" fill="rgb(0%, 0%, 0%)" fill-opacity="1" d="M 0 1.601562 L 12.800781 1.601562 L 12.800781 22.398438 L 0 22.398438 Z M 0 1.601562 "/>
<path fill-rule="nonzero" fill="rgb(0%, 0%, 0%)" fill-opacity="1" d="M 14.398438 17.601562 L 24 17.601562 L 24 22.398438 L 14.398438 22.398438 Z M 14.398438 17.601562 "/>
<path fill-rule="nonzero" fill="rgb(0%, 0%, 0%)" fill-opacity="1" d="M 17.601562 1.601562 C 17.601562 1.601562 20.800781 1.601562 20.800781 1.601562 C 20.800781 1.601562 20.800781 8 20.800781 8 C 20.800781 8 24 8 24 8 C 24 8 19.199219 14.398438 19.199219 14.398438 C 19.199219 14.398438 14.398438 8 14.398438 8 C 14.398438 8 17.601562 8 17.601562 8 C 17.601562 8 17.601562 1.601562 17.601562 1.601562 Z M 17.601562 1.601562 "/>
</svg>
