<?xml version="1.0" encoding="UTF-8"?>
<svg xmlns="http://www.w3.org/2000/svg" xmlns:xlink="http://www.w3.org/1999/xlink" width="24" height="24" viewBox="0 0 24 24">
<path fill-rule="nonzero" fill="rgb(0%, 0%, 0%)" fill-opacity="1" d="M 0 8 C 9.601562 8 12.800781 15.199219 12.800781 19.199219 C 12.800781 19.199219 12.800781 22.398438 12.800781 22.398438 L 0 22.398438 C 0 22.398438 0 8 0 8 Z M 0 8 "/>
<path fill-rule="nonzero" fill="rgb(0%, 0%, 0%)" fill-opacity="1" d="M 14.398438 17.601562 L 24 17.601562 L 24 22.398438 L 14.398438 22.398438 Z M 14.398438 17.601562 "/>
<path fill-rule="nonzero" fill="rgb(0%, 0%, 0%)" fill-opacity="1" d="M 13.167969 3.585938 C 13.167969 3.585938 15.199219 1.601562 15.199219 1.601562 C 15.199219 1.601562 19.710938 6.511719 19.710938 6.511719 C 19.710938 6.511719 22.398438 4 22.398438 4 C 22.398438 4 22.398438 11.199219 22.398438 11.199219 C 22.398438 11.199219 15.199219 11.199219 15.199219 11.199219 C 15.199219 11.199219 17.585938 8.496094 17.585938 8.496094 C 17.585938 8.496094 13.167969 3.585938 13.167969 3.585938 Z M 13.167969 3.585938 "/>
</svg>
