<?xml version="1.0" encoding="UTF-8"?>
<svg xmlns="http://www.w3.org/2000/svg" xmlns:xlink="http://www.w3.org/1999/xlink" width="24" height="24" viewBox="0 0 24 24">
<path fill-rule="nonzero" fill="rgb(0%, 0%, 0%)" fill-opacity="1" d="M 0 21.476562 L 0 23.25 C 0 23.664062 0.734375 24 1.636719 24 C 2.539062 24 3.273438 23.664062 3.273438 23.25 L 3.273438 22.5 L 20.726562 22.5 L 20.726562 23.25 C 20.726562 23.664062 21.460938 24 22.363281 24 C 23.265625 24 24 23.664062 24 23.25 L 24 4 L 0 4 Z M 18.546875 12.5 C 18.546875 12.222656 19.035156 12 19.636719 12 C 20.238281 12 20.726562 12.222656 20.726562 12.5 L 20.726562 14 C 20.726562 14.277344 20.238281 14.5 19.636719 14.5 C 19.035156 14.5 18.546875 14.277344 18.546875 14 Z M 18.546875 12.5 "/>
<path fill-rule="nonzero" fill="rgb(0%, 0%, 0%)" fill-opacity="1" d="M 17.453125 0 L 6.546875 0 C 2.929688 0 0 1.34375 0 3 L 24 3 C 24 1.34375 21.070312 0 17.453125 0 Z M 17.453125 0 "/>
</svg>
