<?xml version="1.0" encoding="UTF-8"?>
<svg xmlns="http://www.w3.org/2000/svg" xmlns:xlink="http://www.w3.org/1999/xlink" width="24" height="24" viewBox="0 0 24 24">
<path fill-rule="nonzero" fill="rgb(0%, 0%, 0%)" fill-opacity="1" d="M 0.144531 13.238281 C 0.339844 14.765625 1.640625 15.941406 3.222656 15.941406 C 4.796875 15.941406 6.097656 14.765625 6.292969 13.238281 Z M 16.890625 19.476562 C 16.890625 19.742188 16.675781 19.957031 16.410156 19.957031 L 7.453125 19.957031 C 7.191406 19.957031 6.972656 19.742188 6.972656 19.476562 C 6.972656 19.214844 7.191406 19.003906 7.453125 19.003906 L 16.410156 19.003906 C 16.675781 19.003906 16.890625 19.214844 16.890625 19.476562 Z M 7.03125 20.203125 L 16.84375 20.203125 L 16.84375 21.589844 L 7.03125 21.589844 Z M 17.71875 13.238281 C 17.914062 14.765625 19.214844 15.941406 20.789062 15.941406 C 22.367188 15.941406 23.664062 14.765625 23.859375 13.238281 Z M 23.691406 12.273438 L 21.175781 8.808594 L 22.523438 8.808594 C 22.847656 8.808594 23.113281 8.539062 23.113281 8.207031 C 23.113281 7.882812 22.847656 7.613281 22.523438 7.613281 L 15.394531 7.613281 C 14.972656 6.441406 13.945312 5.558594 12.691406 5.34375 L 12.691406 3.46875 C 12.691406 3.140625 12.421875 2.871094 12.089844 2.871094 L 12.035156 2.875 L 11.976562 2.871094 C 11.644531 2.871094 11.378906 3.132812 11.378906 3.46875 L 11.378906 5.34375 C 10.128906 5.5625 9.101562 6.441406 8.679688 7.613281 L 1.550781 7.613281 C 1.222656 7.613281 0.960938 7.875 0.960938 8.207031 C 0.960938 8.539062 1.222656 8.808594 1.550781 8.808594 L 2.835938 8.808594 L 0.320312 12.273438 L 0.0078125 12.273438 L 0.0078125 12.910156 L 6.441406 12.910156 L 6.441406 12.273438 L 6.125 12.273438 L 3.609375 8.808594 L 9.453125 8.808594 C 9.453125 8.671875 9.464844 8.539062 9.484375 8.414062 C 9.503906 8.355469 9.519531 8.292969 9.519531 8.230469 C 9.738281 7.304688 10.464844 6.570312 11.390625 6.34375 L 11.390625 12.921875 L 11.367188 12.921875 C 11.3125 15.394531 10.136719 17.554688 8.394531 18.761719 L 15.695312 18.761719 C 13.949219 17.554688 12.773438 15.394531 12.71875 12.921875 L 12.695312 12.921875 L 12.695312 6.34375 C 13.621094 6.570312 14.347656 7.304688 14.5625 8.230469 C 14.5625 8.292969 14.578125 8.355469 14.601562 8.414062 C 14.621094 8.542969 14.636719 8.671875 14.636719 8.808594 L 20.414062 8.808594 L 17.898438 12.273438 L 17.585938 12.273438 L 17.585938 12.910156 L 24.015625 12.910156 L 24.015625 12.273438 Z M 2.964844 12.273438 L 0.960938 12.273438 L 2.964844 9.507812 L 2.964844 12.277344 Z M 3.480469 12.273438 L 3.480469 9.507812 L 5.488281 12.277344 L 3.480469 12.277344 Z M 20.535156 12.273438 L 18.523438 12.273438 L 20.535156 9.507812 L 20.535156 12.277344 Z M 21.046875 12.273438 L 21.046875 9.507812 L 23.058594 12.277344 L 21.046875 12.277344 Z M 3.820312 6.777344 C 3.820312 7.105469 3.550781 7.371094 3.226562 7.371094 C 2.894531 7.371094 2.625 7.105469 2.625 6.777344 C 2.625 6.445312 2.894531 6.175781 3.226562 6.175781 C 3.550781 6.175781 3.820312 6.445312 3.820312 6.777344 Z M 21.390625 6.742188 C 21.390625 7.074219 21.121094 7.339844 20.792969 7.339844 C 20.460938 7.339844 20.199219 7.074219 20.199219 6.742188 C 20.199219 6.414062 20.460938 6.144531 20.792969 6.144531 C 21.125 6.144531 21.390625 6.414062 21.390625 6.742188 Z M 21.390625 6.742188 "/>
</svg>
