<?xml version="1.0" encoding="UTF-8"?>
<svg xmlns="http://www.w3.org/2000/svg" xmlns:xlink="http://www.w3.org/1999/xlink" width="24" height="24" viewBox="0 0 24 24">
<path fill-rule="nonzero" fill="rgb(0%, 0%, 0%)" fill-opacity="1" d="M 12.070312 8.328125 C 13.96875 8.328125 15.5 6.78125 15.5 4.882812 C 15.5 2.980469 13.96875 1.445312 12.070312 1.445312 C 10.175781 1.445312 8.640625 2.984375 8.640625 4.882812 C 8.640625 6.789062 10.179688 8.328125 12.070312 8.328125 Z M 15.40625 9.121094 C 16.976562 9.121094 17.636719 10.460938 17.636719 10.460938 L 22.703125 17.441406 C 22.914062 17.753906 23.035156 18.132812 23.035156 18.546875 C 23.035156 19.632812 22.15625 20.515625 21.078125 20.515625 C 20.816406 20.515625 20.566406 20.457031 20.347656 20.375 L 17.273438 19.527344 L 17.273438 22.566406 L 6.714844 22.566406 L 6.714844 19.527344 L 3.644531 20.378906 C 3.425781 20.46875 3.175781 20.523438 2.917969 20.523438 C 1.839844 20.523438 0.957031 19.644531 0.957031 18.5625 C 0.957031 18.148438 1.074219 17.773438 1.296875 17.460938 L 6.359375 10.46875 C 6.359375 10.46875 7.019531 9.128906 8.582031 9.128906 L 15.40625 9.128906 Z M 12 20.441406 L 15.960938 19.128906 L 15.875 19.105469 C 13.136719 18.300781 14.183594 14.671875 16.914062 15.484375 L 17.273438 15.613281 L 17.273438 11.523438 L 12 13.261719 L 6.714844 11.523438 L 6.714844 15.613281 L 7.074219 15.484375 C 9.804688 14.671875 10.867188 18.300781 8.132812 19.105469 L 8.035156 19.128906 Z M 12 20.441406 "/>
</svg>
