<?xml version="1.0" encoding="UTF-8"?>
<svg xmlns="http://www.w3.org/2000/svg" xmlns:xlink="http://www.w3.org/1999/xlink" width="24" height="24" viewBox="0 0 24 24">
<path fill-rule="nonzero" fill="rgb(0%, 0%, 0%)" fill-opacity="1" d="M 20.71875 10.078125 L 19.679688 10.078125 L 19.679688 5.9375 C 19.679688 3.210938 16.945312 0.480469 14.222656 0.480469 L 9.671875 0.480469 C 6.949219 0.480469 4.324219 3.210938 4.324219 5.9375 L 4.324219 10.078125 L 3.175781 10.078125 C 2.851562 10.078125 2.40625 10.589844 2.40625 10.875 L 2.40625 23.097656 C 2.40625 23.386719 2.851562 23.519531 3.175781 23.519531 L 20.722656 23.519531 C 21.046875 23.519531 21.605469 23.386719 21.605469 23.097656 L 21.605469 10.875 C 21.605469 10.589844 21.046875 10.078125 20.722656 10.078125 Z M 14.261719 21.601562 L 9.628906 21.601562 L 10.601562 16.8125 C 10.019531 16.398438 9.632812 15.613281 9.632812 14.839844 C 9.632812 13.574219 10.671875 12.496094 11.953125 12.496094 C 13.234375 12.496094 14.269531 13.496094 14.269531 14.765625 C 14.269531 15.539062 13.886719 16.410156 13.300781 16.828125 L 14.269531 21.601562 Z M 16.320312 10.078125 L 7.679688 10.078125 L 7.679688 5.9375 C 7.679688 4.699219 8.492188 3.839844 9.714844 3.839844 L 14.175781 3.839844 C 15.398438 3.839844 16.320312 4.699219 16.320312 5.9375 Z M 16.320312 10.078125 "/>
</svg>
