<?xml version="1.0" encoding="UTF-8"?>
<svg xmlns="http://www.w3.org/2000/svg" xmlns:xlink="http://www.w3.org/1999/xlink" width="24" height="24" viewBox="0 0 24 24">
<path fill-rule="nonzero" fill="rgb(0%, 0%, 0%)" fill-opacity="1" d="M 12 0 C 18.609375 0 24 5.40625 24 12 C 24 18.609375 18.625 24 12 24 C 5.375 24 0 18.609375 0 12 C 0 5.40625 5.40625 0 12 0 Z M 12 0.800781 C 5.808594 0.800781 0.800781 5.808594 0.800781 12 C 0.800781 18.207031 5.808594 23.199219 12 23.199219 C 18.207031 23.199219 23.199219 18.207031 23.199219 12 C 23.199219 5.808594 18.207031 0.800781 12 0.800781 Z M 12 0.800781 "/>
<path fill-rule="nonzero" fill="rgb(0%, 0%, 0%)" fill-opacity="1" d="M 14 1.808594 C 19.007812 2.800781 22.398438 7.199219 22.398438 12 C 22.398438 16.800781 19.007812 21.199219 14 22.207031 C 14 22.207031 13.519531 20.800781 12 20.800781 C 10.398438 20.800781 10 22.207031 10 22.207031 C 5.007812 21.199219 1.601562 16.800781 1.601562 12 C 1.601562 7.199219 5.007812 2.800781 10 1.808594 C 10 1.808594 10.398438 3.199219 12 3.199219 C 13.601562 3.199219 14 1.808594 14 1.808594 Z M 17.601562 17.601562 L 13.199219 17.601562 C 12.398438 17.601562 12.398438 19.199219 13.199219 19.199219 L 17.601562 19.199219 C 18.398438 19.199219 18.398438 17.601562 17.601562 17.601562 Z M 10.800781 17.601562 L 6.398438 17.601562 C 5.601562 17.601562 5.601562 19.199219 6.398438 19.199219 L 10.800781 19.199219 C 11.601562 19.199219 11.601562 17.601562 10.800781 17.601562 Z M 10.800781 14.398438 L 4.800781 14.398438 C 4 14.398438 4 16 4.800781 16 L 10.800781 16 C 11.601562 16 11.601562 14.398438 10.800781 14.398438 Z M 19.199219 14.398438 L 13.199219 14.398438 C 12.398438 14.398438 12.398438 16 13.199219 16 L 19.199219 16 C 20 16 20 14.398438 19.199219 14.398438 Z M 20 11.199219 L 13.199219 11.199219 C 12.398438 11.199219 12.398438 12.800781 13.199219 12.800781 L 20 12.800781 C 20.800781 12.800781 20.800781 11.199219 20 11.199219 Z M 10.800781 11.199219 L 4 11.199219 C 3.199219 11.199219 3.199219 12.800781 4 12.800781 L 10.800781 12.800781 C 11.601562 12.800781 11.601562 11.199219 10.800781 11.199219 Z M 10.800781 8 L 4.800781 8 C 4 8 4 9.601562 4.800781 9.601562 L 10.800781 9.601562 C 11.601562 9.601562 11.601562 8 10.800781 8 Z M 19.199219 8 L 13.199219 8 C 12.398438 8 12.398438 9.601562 13.199219 9.601562 L 19.199219 9.601562 C 20 9.601562 20 8 19.199219 8 Z M 17.601562 4.800781 L 13.199219 4.800781 C 12.398438 4.800781 12.398438 6.398438 13.199219 6.398438 L 17.601562 6.398438 C 18.398438 6.398438 18.398438 4.800781 17.601562 4.800781 Z M 10.800781 4.800781 L 6.398438 4.800781 C 5.601562 4.800781 5.601562 6.398438 6.398438 6.398438 L 10.800781 6.398438 C 11.601562 6.398438 11.601562 4.800781 10.800781 4.800781 Z M 10.800781 4.800781 "/>
</svg>
