<?xml version="1.0" encoding="UTF-8"?>
<svg xmlns="http://www.w3.org/2000/svg" xmlns:xlink="http://www.w3.org/1999/xlink" width="24" height="24" viewBox="0 0 24 24">
<path fill-rule="nonzero" fill="rgb(0%, 0%, 0%)" fill-opacity="1" d="M 17.601562 19.199219 L 6.398438 19.199219 L 6.398438 20 C 6.398438 20.449219 6.046875 20.800781 5.601562 20.800781 L 0.800781 20.800781 C 0.351562 20.800781 0 20.449219 0 20 L 0 17.601562 L 24 17.601562 L 24 20 C 24 20.449219 23.648438 20.800781 23.199219 20.800781 L 18.398438 20.800781 C 17.953125 20.800781 17.601562 20.449219 17.601562 20 Z M 14.398438 4.800781 L 14.398438 4 C 14.398438 3.550781 14.753906 3.199219 15.199219 3.199219 L 20 3.199219 C 20.449219 3.199219 20.800781 3.550781 20.800781 4 L 20.800781 4.800781 L 23.199219 4.800781 C 23.648438 4.800781 24 5.152344 24 5.601562 L 24 6.398438 L 0 6.398438 L 0 5.601562 C 0 5.152344 0.351562 4.800781 0.800781 4.800781 Z M 8 16.800781 L 8 10.398438 C 8 9.953125 7.648438 9.601562 7.199219 9.601562 L 4 9.601562 C 3.550781 9.601562 3.199219 9.953125 3.199219 10.398438 L 3.199219 16.800781 L 0 16.800781 L 0 7.199219 L 24 7.199219 L 24 16.800781 Z M 14.398438 9.601562 L 11.199219 9.601562 L 11.199219 12.800781 L 14.398438 12.800781 Z M 20.800781 9.601562 L 17.601562 9.601562 L 17.601562 12.800781 L 20.800781 12.800781 Z M 20.800781 9.601562 "/>
</svg>
