<?xml version="1.0" encoding="UTF-8"?>
<svg xmlns="http://www.w3.org/2000/svg" xmlns:xlink="http://www.w3.org/1999/xlink" width="24" height="24" viewBox="0 0 24 24">
<path fill-rule="nonzero" fill="rgb(0%, 0%, 0%)" fill-opacity="1" d="M 10.398438 0.800781 C 10.398438 0 13.601562 0 13.601562 0.800781 C 13.601562 0.800781 13.601562 8 13.601562 8 C 13.601562 8 23.601562 23.199219 23.601562 23.199219 C 24 24 22.398438 24 21.601562 23.199219 C 21.601562 23.199219 13.601562 11.199219 13.601562 11.199219 C 13.601562 11.199219 13.601562 23.199219 13.601562 23.199219 C 13.601562 24 10.398438 24 10.398438 23.199219 C 10.398438 23.199219 10.398438 11.199219 10.398438 11.199219 C 10.398438 11.199219 2.398438 23.199219 2.398438 23.199219 C 1.601562 24 0 24 0.398438 23.199219 C 0.398438 23.199219 10.398438 8 10.398438 8 Z M 10.398438 0.800781 "/>
</svg>
