<?xml version="1.0" encoding="UTF-8"?>
<svg xmlns="http://www.w3.org/2000/svg" xmlns:xlink="http://www.w3.org/1999/xlink" width="24" height="24" viewBox="0 0 24 24">
<path fill-rule="nonzero" fill="rgb(0%, 0%, 0%)" fill-opacity="1" d="M 22.398438 11.199219 L 22.398438 21.601562 C 22.398438 22.046875 22.03125 22.398438 21.601562 22.398438 L 12.800781 22.367188 Z M 11.199219 21.601562 L 11.199219 14.398438 L 3.199219 14.398438 C 2.320312 14.398438 1.601562 13.679688 1.601562 12.800781 C 1.601562 11.921875 2.320312 11.199219 3.199219 11.199219 L 20 11.199219 Z M 19.9375 8.671875 C 19.167969 9.761719 18.015625 10.398438 16.800781 10.398438 C 15.585938 10.398438 14.433594 9.761719 13.664062 8.671875 C 12.910156 7.585938 12.625 6.160156 12.910156 4.800781 L 20.6875 4.800781 C 20.976562 6.160156 20.6875 7.585938 19.9375 8.671875 Z M 20.527344 4 L 13.070312 4 C 12.496094 4.015625 12.015625 3.390625 12 2.609375 L 12 2.464844 C 12.015625 1.742188 12.414062 1.152344 12.945312 1.089844 L 20.414062 0.015625 C 20.703125 -0.03125 21.007812 0.078125 21.230469 0.351562 C 21.457031 0.609375 21.601562 0.992188 21.601562 1.390625 L 21.601562 2.609375 C 21.585938 3.390625 21.105469 4.015625 20.527344 4 Z M 20.527344 4 "/>
</svg>
