<?xml version="1.0" encoding="UTF-8"?>
<svg xmlns="http://www.w3.org/2000/svg" xmlns:xlink="http://www.w3.org/1999/xlink" width="24" height="24" viewBox="0 0 24 24">
<path fill-rule="nonzero" fill="rgb(0%, 0%, 0%)" fill-opacity="1" d="M 6.398438 1.601562 C 5.265625 0.464844 18.734375 0.464844 17.601562 1.601562 C 17.601562 1.601562 15.199219 3.199219 15.199219 3.199219 C 14.398438 4 15.199219 5.601562 16 6 C 16.800781 5.601562 17.601562 4.800781 18.398438 5.601562 C 19.199219 6.398438 18.398438 7.199219 17.199219 8 C 17.199219 8 17.601562 8.800781 17.601562 9.601562 C 17.601562 10.398438 17.601562 21.601562 17.601562 21.601562 C 17.601562 23.199219 6.398438 23.199219 6.398438 21.601562 C 6.398438 21.601562 6.398438 10.398438 6.398438 9.601562 C 6.398438 8.800781 6.800781 8 6.800781 8 C 5.601562 7.199219 4.800781 6.398438 5.601562 5.601562 C 6.398438 4.800781 7.199219 5.601562 8 6 C 8.800781 5.601562 9.601562 4 8.800781 3.199219 C 8.800781 3.199219 6.398438 1.601562 6.398438 1.601562 Z M 6.398438 1.601562 "/>
</svg>
