<?xml version="1.0" encoding="UTF-8"?>
<svg xmlns="http://www.w3.org/2000/svg" xmlns:xlink="http://www.w3.org/1999/xlink" width="24" height="24" viewBox="0 0 24 24">
<path fill-rule="nonzero" fill="rgb(0%, 0%, 0%)" fill-opacity="1" d="M 11.199219 9.601562 L 11.199219 1.601562 L 12.800781 1.601562 L 12.800781 9.601562 L 15.199219 9.601562 C 15.648438 9.601562 16 9.953125 16 10.398438 L 16 20 C 16 20.449219 15.648438 20.800781 15.199219 20.800781 L 8.800781 20.800781 C 8.351562 20.800781 8 20.449219 8 20 L 8 10.398438 C 8 9.953125 8.351562 9.601562 8.800781 9.601562 Z M 11.199219 11.199219 L 9.601562 11.199219 L 9.601562 14.398438 L 14.398438 14.398438 L 14.398438 11.199219 Z M 6.398438 1.601562 L 6.398438 22.398438 L 3.199219 22.398438 C 2.320312 22.398438 1.601562 21.679688 1.601562 20.800781 L 1.601562 3.199219 C 1.601562 2.320312 2.320312 1.601562 3.199219 1.601562 Z M 17.601562 1.601562 L 20.800781 1.601562 C 21.679688 1.601562 22.398438 2.320312 22.398438 3.199219 L 22.398438 20.800781 C 22.398438 21.679688 21.679688 22.398438 20.800781 22.398438 L 17.601562 22.398438 Z M 14.398438 16 L 12.800781 16 L 12.800781 17.601562 L 14.398438 17.601562 Z M 14.398438 16 "/>
</svg>
