<?xml version="1.0" encoding="UTF-8"?>
<svg xmlns="http://www.w3.org/2000/svg" xmlns:xlink="http://www.w3.org/1999/xlink" width="24" height="24" viewBox="0 0 24 24">
<path fill-rule="nonzero" fill="rgb(0%, 0%, 0%)" fill-opacity="1" d="M 17.601562 0 C 17.601562 0 17.601562 9.601562 17.601562 9.601562 C 17.601562 9.601562 16 8.398438 15.199219 8.398438 C 14 8.398438 13.199219 10 14.398438 11.199219 C 14.398438 11.199219 17.601562 14.398438 17.601562 14.398438 C 17.601562 14.398438 17.601562 18.398438 17.601562 18.398438 C 17.601562 18.398438 6.398438 18.398438 6.398438 18.398438 C 6.398438 18.398438 6.398438 0 6.398438 0 Z M 7.199219 15.199219 C 7.199219 16 7.199219 17.601562 7.199219 17.601562 C 7.199219 17.601562 9.601562 17.601562 9.601562 17.601562 C 9.601562 16 8.800781 15.199219 7.199219 15.199219 Z M 16.800781 15.199219 C 15.199219 15.199219 14.398438 16 14.398438 17.601562 L 16.800781 17.601562 Z M 11.601562 7.199219 C 9.585938 7.199219 8.800781 8.273438 8.800781 9.601562 C 8.800781 10.929688 9.601562 12 11.601562 12 C 13.199219 12 13.601562 11.199219 13.601562 11.199219 C 12.800781 10 13.199219 8.800781 14 8 C 14 8 13.199219 7.199219 11.601562 7.199219 Z M 16.800781 0.800781 L 14.398438 0.800781 C 14.398438 2.398438 15.199219 3.199219 16.800781 3.199219 Z M 9.601562 0.800781 L 7.199219 0.800781 C 7.199219 0.800781 7.199219 3.199219 7.199219 3.199219 C 8.800781 3.199219 9.601562 2.398438 9.601562 0.800781 Z M 9.601562 0.800781 "/>
<path fill-rule="nonzero" fill="rgb(0%, 0%, 0%)" fill-opacity="1" d="M 5.601562 17.601562 C 5.601562 17.601562 7.199219 19.199219 7.199219 19.199219 C 7.199219 19.199219 16.800781 19.199219 16.800781 19.199219 C 16.800781 19.199219 18.398438 17.601562 18.398438 17.601562 C 18.398438 17.601562 18.398438 14.398438 18.398438 14.398438 C 18.398438 14.398438 14.753906 11.121094 14.398438 10.398438 C 14 9.601562 14.398438 8 16.800781 9.601562 C 18.289062 10.59375 20 12 20.800781 12.800781 C 21.601562 13.601562 22.398438 17.601562 22.398438 19.199219 C 22.398438 20.800781 19.199219 24 19.199219 24 L 12.800781 24 C 12.800781 24 9.808594 22.160156 8 20.800781 C 1.601562 16 1.601562 12.800781 5.601562 15.199219 C 1.601562 12.800781 0.800781 9.601562 5.601562 12 C 0.800781 9.601562 0.800781 6.398438 5.601562 8.800781 C 0.800781 6.398438 3.199219 4.800781 5.601562 6 C 5.601562 6 5.601562 17.601562 5.601562 17.601562 Z M 5.601562 17.601562 "/>
</svg>
