<?xml version="1.0" encoding="UTF-8"?>
<svg xmlns="http://www.w3.org/2000/svg" xmlns:xlink="http://www.w3.org/1999/xlink" width="24" height="24" viewBox="0 0 24 24">
<path fill-rule="nonzero" fill="rgb(0%, 0%, 0%)" fill-opacity="1" d="M 20.800781 3.199219 L 20.800781 14.015625 C 20.800781 14.273438 20.734375 14.511719 20.625 14.734375 L 18.046875 19.921875 C 17.777344 20.464844 17.214844 20.800781 16.609375 20.800781 L 16 20.800781 C 15.550781 20.800781 15.199219 20.449219 15.199219 20 L 15.199219 17.199219 C 15.199219 16.542969 14.65625 16 14 16 L 10 16 C 9.34375 16 8.800781 16.542969 8.800781 17.199219 L 8.800781 20 C 8.800781 20.449219 8.449219 20.800781 8 20.800781 L 7.390625 20.800781 C 6.785156 20.800781 6.222656 20.464844 5.953125 19.921875 L 3.375 14.734375 C 3.265625 14.511719 3.199219 14.273438 3.199219 14.015625 L 3.199219 3.199219 C 3.199219 1.441406 4.640625 0 6.398438 0 L 17.601562 0 C 19.359375 0 20.800781 1.441406 20.800781 3.199219 Z M 10.398438 16.800781 L 13.601562 16.800781 C 14.046875 16.800781 14.398438 17.152344 14.398438 17.601562 L 14.398438 20 C 14.398438 20.449219 14.046875 20.800781 13.601562 20.800781 L 12.800781 20.800781 L 12.800781 24 L 11.199219 24 L 11.199219 20.800781 L 10.398438 20.800781 C 9.953125 20.800781 9.601562 20.449219 9.601562 20 L 9.601562 17.601562 C 9.601562 17.152344 9.953125 16.800781 10.398438 16.800781 Z M 4.800781 5.601562 L 4.800781 8.800781 C 4.800781 9.246094 5.152344 9.601562 5.601562 9.601562 L 18.398438 9.601562 C 18.847656 9.601562 19.199219 9.246094 19.199219 8.800781 L 19.199219 5.601562 C 19.199219 5.152344 18.847656 4.800781 18.398438 4.800781 L 5.601562 4.800781 C 5.152344 4.800781 4.800781 5.152344 4.800781 5.601562 Z M 6.398438 2.398438 C 6.398438 2.847656 6.753906 3.199219 7.199219 3.199219 L 16.800781 3.199219 C 17.246094 3.199219 17.601562 2.847656 17.601562 2.398438 C 17.601562 1.953125 17.246094 1.601562 16.800781 1.601562 L 7.199219 1.601562 C 6.753906 1.601562 6.398438 1.953125 6.398438 2.398438 Z M 14.398438 13.601562 C 14.398438 14.046875 14.753906 14.398438 15.199219 14.398438 L 17.503906 14.398438 C 17.792969 14.398438 18.046875 14.238281 18.191406 13.984375 L 19.089844 12.382812 C 19.152344 12.273438 19.183594 12.144531 19.183594 12 C 19.183594 11.550781 18.832031 11.199219 18.382812 11.199219 L 15.199219 11.199219 C 14.753906 11.199219 14.398438 11.550781 14.398438 12 Z M 9.601562 13.601562 L 9.601562 12 C 9.601562 11.550781 9.246094 11.199219 8.800781 11.199219 L 5.617188 11.199219 C 5.167969 11.199219 4.816406 11.550781 4.816406 12 C 4.816406 12.144531 4.847656 12.273438 4.910156 12.382812 L 5.808594 13.984375 C 5.953125 14.238281 6.207031 14.398438 6.496094 14.398438 L 8.800781 14.398438 C 9.246094 14.398438 9.601562 14.046875 9.601562 13.601562 Z M 9.601562 13.601562 "/>
</svg>
