<?xml version="1.0" encoding="UTF-8"?>
<svg xmlns="http://www.w3.org/2000/svg" xmlns:xlink="http://www.w3.org/1999/xlink" width="24" height="24" viewBox="0 0 24 24">
<path fill-rule="nonzero" fill="rgb(0%, 0%, 0%)" fill-opacity="1" d="M 14.65625 8 L 12 8 C 11.550781 8 11.199219 7.648438 11.199219 7.199219 C 11.199219 6.753906 11.550781 6.398438 12 6.398438 L 15.183594 6.398438 C 15.230469 6.398438 15.28125 6.398438 15.328125 6.414062 C 15.457031 6.433594 15.585938 6.480469 15.679688 6.558594 C 15.761719 6.625 15.824219 6.6875 15.886719 6.785156 C 15.902344 6.832031 15.9375 6.878906 15.953125 6.929688 L 17.664062 11.199219 L 18.398438 11.199219 C 20.609375 11.199219 22.398438 12.992188 22.398438 15.199219 C 22.398438 17.40625 20.609375 19.199219 18.398438 19.199219 C 16.191406 19.199219 14.398438 17.40625 14.398438 15.199219 C 14.398438 14.929688 14.433594 14.65625 14.480469 14.398438 L 12.800781 14.398438 C 12.800781 15.28125 12.078125 16 11.199219 16 L 9.519531 16 C 9.152344 17.824219 7.535156 19.199219 5.601562 19.199219 C 3.390625 19.199219 1.601562 17.40625 1.601562 15.199219 C 1.601562 13.265625 2.976562 11.648438 4.800781 11.28125 L 4.800781 11.199219 L 9.601562 11.199219 L 15.359375 9.761719 Z M 7.855469 16 L 6.398438 16 C 5.519531 16 4.800781 15.28125 4.800781 14.398438 L 4.800781 12.945312 C 3.871094 13.265625 3.199219 14.160156 3.199219 15.199219 C 3.199219 16.527344 4.273438 17.601562 5.601562 17.601562 C 6.640625 17.601562 7.535156 16.929688 7.855469 16 Z M 16.816406 13.390625 C 16.320312 13.839844 16 14.480469 16 15.199219 C 16 16.527344 17.070312 17.601562 18.398438 17.601562 C 19.726562 17.601562 20.800781 16.527344 20.800781 15.199219 C 20.800781 13.871094 19.726562 12.800781 18.398438 12.800781 C 18.367188 12.800781 18.335938 12.800781 18.304688 12.800781 L 19.136719 14.894531 C 19.3125 15.3125 19.105469 15.777344 18.703125 15.9375 C 18.289062 16.113281 17.824219 15.902344 17.664062 15.503906 Z M 8 10.398438 L 3.199219 10.398438 L 3.199219 8 L 6.398438 8 C 7.28125 8 8 8.71875 8 9.601562 Z M 8 10.398438 "/>
</svg>
