<?xml version="1.0" encoding="UTF-8"?>
<svg xmlns="http://www.w3.org/2000/svg" xmlns:xlink="http://www.w3.org/1999/xlink" width="24" height="24" viewBox="0 0 24 24">
<path fill-rule="nonzero" fill="rgb(0%, 0%, 0%)" fill-opacity="1" d="M 20.175781 10.863281 L 20.800781 18.398438 L 17.601562 18.398438 L 18.222656 10.863281 C 17.839844 10.574219 17.601562 10.113281 17.601562 9.601562 L 17.601562 8.800781 L 20.800781 8.800781 L 20.800781 9.601562 C 20.800781 10.113281 20.558594 10.574219 20.175781 10.863281 Z M 15.375 10.863281 L 16 18.398438 L 12.800781 18.398438 L 13.425781 10.863281 C 13.039062 10.574219 12.800781 10.113281 12.800781 9.601562 L 12.800781 8.800781 L 16 8.800781 L 16 9.601562 C 16 10.113281 15.761719 10.574219 15.375 10.863281 Z M 10.574219 10.863281 L 11.199219 18.398438 L 8 18.398438 L 8.625 10.863281 C 8.238281 10.574219 8 10.113281 8 9.601562 L 8 8.800781 L 11.199219 8.800781 L 11.199219 9.601562 C 11.199219 10.113281 10.960938 10.574219 10.574219 10.863281 Z M 5.777344 10.863281 L 6.398438 18.398438 L 3.199219 18.398438 L 3.824219 10.863281 C 3.441406 10.574219 3.199219 10.113281 3.199219 9.601562 L 3.199219 8.800781 L 6.398438 8.800781 L 6.398438 9.601562 C 6.398438 10.113281 6.160156 10.574219 5.777344 10.863281 Z M 12 1.601562 L 22.398438 5.601562 L 22.398438 8 L 1.601562 8 L 1.601562 5.601562 Z M 2.398438 19.199219 L 21.601562 19.199219 L 22.398438 20.800781 L 22.398438 22.398438 L 1.601562 22.398438 L 1.601562 20.800781 Z M 2.398438 19.199219 "/>
</svg>
