<?xml version="1.0" encoding="UTF-8"?>
<svg xmlns="http://www.w3.org/2000/svg" xmlns:xlink="http://www.w3.org/1999/xlink" width="24" height="24" viewBox="0 0 24 24">
<path fill-rule="nonzero" fill="rgb(0%, 0%, 0%)" fill-opacity="1" d="M 6.320312 1.585938 C 5.3125 1.585938 4.496094 2.398438 4.496094 3.40625 C 4.496094 4.414062 5.3125 5.230469 6.320312 5.230469 C 7.328125 5.230469 8.128906 4.414062 8.128906 3.40625 C 8.128906 2.398438 7.328125 1.585938 6.320312 1.585938 Z M 17.230469 3.039062 C 16.222656 3.039062 15.40625 3.855469 15.40625 4.863281 C 15.40625 5.871094 16.222656 6.671875 17.230469 6.671875 C 18.238281 6.671875 19.054688 5.871094 19.054688 4.863281 C 19.054688 3.855469 18.238281 3.039062 17.230469 3.039062 Z M 4.496094 5.585938 L 2.6875 7.40625 L 1.585938 10.257812 L 1.585938 10.929688 L 2.6875 10.929688 L 4.496094 7.40625 L 4.496094 10.257812 L 6.046875 12.382812 C 6.433594 11.886719 7.023438 11.617188 7.648438 11.375 L 7.40625 10.929688 L 7.40625 8.335938 L 9.984375 10.175781 C 10.128906 10.015625 10.238281 9.824219 10.320312 9.601562 C 10.382812 9.40625 10.449219 9.214844 10.496094 9.023438 L 5.585938 5.585938 Z M 14.703125 5.953125 C 14.511719 5.953125 14.304688 6.03125 14.175781 6.160156 L 11.265625 9.070312 C 10.976562 9.359375 10.976562 9.824219 11.265625 10.113281 L 13.230469 12.078125 L 13.230469 15.40625 C 13.230469 15.808594 13.550781 16.144531 13.953125 16.144531 C 14.351562 16.160156 14.671875 15.839844 14.6875 15.425781 L 14.6875 11.777344 C 14.6875 11.585938 14.609375 11.390625 14.480469 11.265625 L 13.375 10.160156 L 15.070312 8.414062 L 16.289062 10.03125 C 16.433594 10.207031 16.640625 10.320312 16.863281 10.320312 L 19.777344 10.320312 C 20.03125 10.320312 20.289062 10.191406 20.414062 9.96875 C 20.542969 9.742188 20.542969 9.457031 20.414062 9.230469 C 20.304688 9.007812 20.0625 8.863281 19.792969 8.863281 L 17.230469 8.863281 L 15.265625 6.238281 C 15.136719 6.0625 14.929688 5.953125 14.703125 5.953125 Z M 4 11.296875 L 1.953125 16.929688 L 2.671875 17.601562 L 3.425781 17.601562 L 5.121094 12.527344 Z M 9.601562 11.777344 C 7.585938 11.777344 5.953125 13.40625 5.953125 15.40625 C 5.953125 17.425781 7.585938 19.054688 9.601562 19.054688 C 11.199219 19.054688 12.574219 18 13.054688 16.542969 C 12.71875 16.289062 12.496094 15.871094 12.496094 15.40625 L 12.496094 13.953125 C 12.496094 13.761719 12.542969 13.566406 12.625 13.390625 C 11.96875 12.414062 10.847656 11.777344 9.601562 11.777344 Z M 18.320312 11.777344 C 17.054688 11.777344 15.953125 12.414062 15.296875 13.390625 C 15.375 13.566406 15.40625 13.761719 15.40625 13.953125 L 15.40625 15.40625 C 15.40625 15.871094 15.199219 16.289062 14.863281 16.542969 C 15.34375 18 16.71875 19.054688 18.320312 19.054688 C 20.335938 19.054688 21.96875 17.425781 21.96875 15.40625 C 21.96875 13.40625 20.335938 11.777344 18.320312 11.777344 Z M 9.601562 13.230469 C 10.800781 13.230469 11.777344 14.207031 11.777344 15.40625 C 11.777344 16.609375 10.800781 17.601562 9.601562 17.601562 C 8.382812 17.601562 7.40625 16.609375 7.40625 15.40625 C 7.40625 14.207031 8.382812 13.230469 9.601562 13.230469 Z M 18.320312 13.230469 C 19.535156 13.230469 20.511719 14.207031 20.511719 15.40625 C 20.511719 16.609375 19.535156 17.601562 18.320312 17.601562 C 17.121094 17.601562 16.144531 16.609375 16.144531 15.40625 C 16.144531 14.207031 17.121094 13.230469 18.320312 13.230469 Z M 3.167969 19.839844 L 1.585938 22.222656 L 6.351562 22.222656 L 7.9375 19.839844 Z M 10.320312 19.839844 L 8.734375 22.222656 L 15.089844 22.222656 L 13.488281 19.839844 Z M 15.871094 19.839844 L 17.457031 22.222656 L 22.222656 22.222656 L 20.640625 19.839844 Z M 15.871094 19.839844 "/>
</svg>
