<?xml version="1.0" encoding="UTF-8"?>
<svg xmlns="http://www.w3.org/2000/svg" xmlns:xlink="http://www.w3.org/1999/xlink" width="24" height="24" viewBox="0 0 24 24">
<path fill-rule="nonzero" fill="rgb(0%, 0%, 0%)" fill-opacity="1" d="M 16 6 C 16 4.894531 16.894531 4 18 4 C 19.105469 4 20 4.894531 20 6 C 20 7.105469 19.105469 8 18 8 C 16.894531 8 16 7.105469 16 6 Z M 16.960938 11.679688 L 15.632812 9.921875 L 13.761719 11.839844 L 14.976562 13.039062 C 15.121094 13.183594 15.199219 13.390625 15.199219 13.601562 L 15.199219 17.632812 C 15.199219 18.0625 14.832031 18.414062 14.382812 18.414062 C 13.953125 18.398438 13.601562 18.046875 13.601562 17.601562 L 13.601562 13.9375 L 11.441406 11.761719 C 11.121094 11.457031 11.121094 10.945312 11.441406 10.640625 L 14.640625 7.441406 C 14.785156 7.28125 15.007812 7.199219 15.214844 7.199219 C 15.472656 7.199219 15.695312 7.328125 15.839844 7.519531 L 18 10.398438 L 20.816406 10.398438 C 21.105469 10.398438 21.375 10.558594 21.503906 10.816406 C 21.648438 11.054688 21.648438 11.359375 21.503906 11.617188 C 21.359375 11.855469 21.089844 12 20.800781 12 L 17.601562 12 C 17.34375 12 17.105469 11.886719 16.960938 11.679688 Z M 12.929688 15.375 C 12.847656 15.566406 12.800781 15.777344 12.800781 16 L 12.800781 17.601562 C 12.800781 18.113281 13.039062 18.558594 13.40625 18.847656 C 12.878906 20.449219 11.375 21.601562 9.601562 21.601562 C 7.390625 21.601562 5.601562 19.808594 5.601562 17.601562 C 5.601562 15.390625 7.390625 13.601562 9.601562 13.601562 C 10.992188 13.601562 12.207031 14.304688 12.929688 15.375 Z M 15.390625 18.847656 C 15.761719 18.558594 16 18.113281 16 17.601562 L 16 16 C 16 15.777344 15.953125 15.566406 15.871094 15.375 C 16.59375 14.304688 17.808594 13.601562 19.199219 13.601562 C 21.40625 13.601562 23.199219 15.390625 23.199219 17.601562 C 23.199219 19.808594 21.40625 21.601562 19.199219 21.601562 C 17.425781 21.601562 15.921875 20.449219 15.390625 18.847656 Z M 9.601562 15.199219 C 8.273438 15.199219 7.199219 16.273438 7.199219 17.601562 C 7.199219 18.929688 8.273438 20 9.601562 20 C 10.929688 20 12 18.929688 12 17.601562 C 12 16.273438 10.929688 15.199219 9.601562 15.199219 Z M 19.199219 15.199219 C 17.871094 15.199219 16.800781 16.273438 16.800781 17.601562 C 16.800781 18.929688 17.871094 20 19.199219 20 C 20.527344 20 21.601562 18.929688 21.601562 17.601562 C 21.601562 16.273438 20.527344 15.199219 19.199219 15.199219 Z M 10.59375 10.574219 C 10.527344 10.785156 10.464844 10.992188 10.398438 11.199219 C 10.320312 11.457031 10.191406 11.664062 10.03125 11.839844 L 7.199219 9.824219 L 7.199219 12.671875 L 7.472656 13.167969 C 6.785156 13.425781 6.128906 13.726562 5.695312 14.273438 L 4 11.9375 L 4 8.800781 L 2 12.671875 L 0.800781 12.671875 L 0.800781 11.9375 L 2 8.800781 L 4 6.800781 L 5.199219 6.800781 Z M 2.832031 20 L 2 20 L 1.199219 19.265625 L 3.457031 13.070312 L 4.671875 14.433594 Z M 8 4.398438 C 8 5.503906 7.105469 6.398438 6 6.398438 C 4.894531 6.398438 4 5.503906 4 4.398438 C 4 3.296875 4.894531 2.398438 6 2.398438 C 7.105469 2.398438 8 3.296875 8 4.398438 Z M 8 4.398438 "/>
</svg>
