<?xml version="1.0" encoding="UTF-8"?>
<svg xmlns="http://www.w3.org/2000/svg" xmlns:xlink="http://www.w3.org/1999/xlink" width="24" height="24" viewBox="0 0 24 24">
<path fill-rule="nonzero" fill="rgb(0%, 0%, 0%)" fill-opacity="1" d="M 14.398438 3.601562 C 14.398438 4.703125 13.503906 5.601562 12.398438 5.601562 C 11.296875 5.601562 10.398438 4.703125 10.398438 3.601562 C 10.398438 2.496094 11.296875 1.601562 12.398438 1.601562 C 13.503906 1.601562 14.398438 2.496094 14.398438 3.601562 Z M 10.398438 6 L 11.601562 6 L 18.398438 10.769531 L 18.398438 11.871094 L 17.601562 11.871094 L 13.601562 9.023438 L 13.601562 11.871094 L 15.199219 14.800781 L 16.800781 18.464844 L 16 19.199219 L 15.199219 19.199219 L 13.601562 15.535156 L 10.398438 11.136719 L 10.398438 7.710938 L 8.398438 9.296875 L 6.800781 11.871094 L 5.601562 11.871094 L 5.601562 11.136719 L 6.800781 8.929688 Z M 11.070312 13.632812 L 9.230469 19.199219 L 8.398438 19.199219 L 7.601562 18.464844 L 9.855469 12.273438 Z M 3.199219 20 L 8 20 L 6.398438 22.398438 L 1.601562 22.398438 Z M 10.398438 20 L 13.601562 20 L 15.199219 22.398438 L 8.800781 22.398438 Z M 20.800781 20 L 22.398438 22.398438 L 17.601562 22.398438 L 16 20 Z M 20.800781 20 "/>
</svg>
