<?xml version="1.0" encoding="UTF-8"?>
<svg xmlns="http://www.w3.org/2000/svg" xmlns:xlink="http://www.w3.org/1999/xlink" width="24" height="24" viewBox="0 0 24 24">
<path fill-rule="nonzero" fill="rgb(0%, 0%, 0%)" fill-opacity="1" d="M 15.007812 3.136719 C 15.007812 4.414062 13.886719 5.472656 12.496094 5.472656 C 11.121094 5.472656 10 4.414062 10 3.136719 C 10 1.839844 11.121094 0.800781 12.496094 0.800781 C 13.886719 0.800781 15.007812 1.839844 15.007812 3.136719 Z M 10 6.398438 L 11.503906 6.398438 L 20 12.464844 L 20 13.871094 L 19.007812 13.871094 L 14 10.257812 L 14 13.871094 L 16 17.601562 L 18 22.273438 L 17.007812 23.199219 L 16 23.199219 L 14 18.527344 L 10 12.929688 L 10 8.59375 L 7.503906 10.609375 L 5.503906 13.871094 L 4 13.871094 L 4 12.929688 L 5.503906 10.128906 Z M 10.847656 16.113281 L 8.527344 23.199219 L 7.503906 23.199219 L 6.496094 22.273438 L 9.3125 14.382812 Z M 10.847656 16.113281 "/>
</svg>
