<?xml version="1.0" encoding="UTF-8"?>
<svg xmlns="http://www.w3.org/2000/svg" xmlns:xlink="http://www.w3.org/1999/xlink" width="24" height="24" viewBox="0 0 24 24">
<path fill-rule="nonzero" fill="rgb(0%, 0%, 0%)" fill-opacity="1" d="M 14.398438 6.398438 C 18.398438 6.398438 20 8 20 12 C 20 14.398438 18.398438 20.800781 18.398438 20.800781 C 17.601562 24 15.199219 24 12 24 C 8.800781 24 6.398438 24 5.601562 20.800781 C 5.601562 20.800781 4 14.398438 4 12 C 4 8 5.601562 6.398438 9.601562 6.398438 Z M 11.199219 8 C 4.800781 8 5.601562 12 6.398438 16 C 6.398438 12 6.398438 9.601562 11.199219 8 Z M 11.199219 8 "/>
<path fill-rule="nonzero" fill="rgb(0%, 0%, 0%)" fill-opacity="1" d="M 13.601562 0 C 15.199219 0 15.601562 1.601562 15.601562 2.398438 L 17.601562 2.398438 C 17.601562 1.601562 18.398438 0.800781 20 0.800781 C 21.601562 0.800781 23.199219 1.601562 23.199219 2.800781 C 23.199219 4 21.601562 4.800781 20 4.800781 C 18.398438 4.800781 17.601562 4 17.601562 3.199219 L 15.601562 3.199219 C 15.601562 4 15.199219 5.601562 13.601562 5.601562 C 12 5.601562 12 5.601562 10.398438 5.601562 C 8.800781 5.601562 8.800781 4 8.800781 3.601562 C 10 3.601562 10 2 8.800781 2 C 8.800781 1.601562 8.800781 0 10.398438 0 Z M 13.601562 0 "/>
<path fill-rule="nonzero" fill="rgb(0%, 0%, 0%)" fill-opacity="1" d="M 6.015625 1.488281 L 6.800781 1.601562 C 7.023438 1.632812 7.167969 1.824219 7.136719 2.046875 C 7.105469 2.273438 6.910156 2.414062 6.6875 2.382812 L 5.886719 2.273438 C 5.679688 2.238281 5.519531 2.046875 5.550781 1.824219 C 5.585938 1.601562 5.792969 1.457031 6.015625 1.488281 Z M 3.632812 1.152344 C 3.40625 1.121094 3.214844 1.265625 3.183594 1.488281 C 3.152344 1.695312 3.296875 1.902344 3.519531 1.9375 L 4.320312 2.046875 C 4.527344 2.078125 4.734375 1.9375 4.769531 1.710938 C 4.800781 1.488281 4.640625 1.296875 4.433594 1.265625 Z M 1.265625 0.800781 C 1.039062 0.769531 0.832031 0.929688 0.800781 1.152344 C 0.769531 1.359375 0.929688 1.566406 1.152344 1.601562 L 1.9375 1.710938 C 2.160156 1.742188 2.351562 1.585938 2.382812 1.375 C 2.414062 1.152344 2.273438 0.945312 2.046875 0.910156 Z M 1.9375 3.886719 L 1.152344 4 C 0.929688 4.03125 0.769531 4.222656 0.800781 4.449219 C 0.832031 4.671875 1.039062 4.816406 1.265625 4.785156 L 2.046875 4.671875 C 2.273438 4.640625 2.414062 4.449219 2.382812 4.222656 C 2.351562 4 2.160156 3.855469 1.9375 3.886719 Z M 4.320312 3.550781 L 3.519531 3.664062 C 3.296875 3.695312 3.152344 3.886719 3.183594 4.113281 C 3.214844 4.335938 3.40625 4.480469 3.632812 4.449219 L 4.433594 4.335938 C 4.640625 4.304688 4.800781 4.097656 4.769531 3.886719 C 4.734375 3.664062 4.527344 3.503906 4.320312 3.550781 Z M 6.6875 3.199219 L 5.886719 3.3125 C 5.679688 3.34375 5.519531 3.550781 5.550781 3.777344 C 5.585938 3.984375 5.792969 4.144531 6.015625 4.113281 L 6.800781 4 C 7.023438 3.96875 7.167969 3.761719 7.136719 3.550781 C 7.105469 3.328125 6.910156 3.167969 6.6875 3.199219 Z M 6.6875 3.199219 "/>
</svg>
