<?xml version="1.0" encoding="UTF-8"?>
<svg xmlns="http://www.w3.org/2000/svg" xmlns:xlink="http://www.w3.org/1999/xlink" width="24" height="24" viewBox="0 0 24 24">
<path fill-rule="nonzero" fill="rgb(0%, 0%, 0%)" fill-opacity="1" d="M 18.398438 9.601562 C 19.199219 9.601562 19.199219 10.398438 19.199219 10.398438 L 19.199219 11.199219 C 20 11.199219 20.800781 11.199219 21.601562 12 L 24 14.398438 C 24 14.398438 24 16 22.398438 16 L 20 16 L 16.800781 13.601562 L 17.601562 10.398438 C 17.839844 9.664062 18.398438 9.601562 18.398438 9.601562 Z M 10.398438 11.199219 C 11.488281 11.183594 11.488281 12.816406 10.398438 12.800781 C 10.398438 12.800781 10.160156 12.816406 9.953125 12.910156 C 9.742188 13.023438 9.601562 13.070312 9.601562 13.601562 L 9.601562 14.398438 L 15.199219 14.398438 L 17.601562 16 C 18.191406 16.382812 19.199219 16.976562 19.199219 18.398438 L 19.199219 22.398438 C 19.199219 22.398438 20 22.398438 20 23.199219 C 20 24 19.199219 24 19.199219 24 L 18.398438 24 C 18.398438 24 17.601562 24 17.054688 22.382812 L 16 19.199219 L 11.199219 19.199219 L 11.199219 23.199219 C 11.199219 23.199219 11.199219 24 10.398438 24 C 9.601562 24 9.601562 23.199219 9.601562 23.199219 L 9.601562 20.320312 C 9.105469 20.574219 8.558594 20.800781 8 20.800781 L 8 23.199219 C 8 23.199219 8 24 7.199219 24 C 6.398438 24 6.398438 23.199219 6.398438 23.199219 L 6.398438 20 C 6.398438 19.199219 7.199219 19.199219 7.199219 19.199219 C 8 19.199219 8 18.398438 8 16.800781 L 8 15.199219 C 8 15.183594 8 15.167969 8 15.136719 L 8 13.601562 C 8 12.527344 8.65625 11.777344 9.246094 11.488281 C 9.839844 11.183594 10.398438 11.199219 10.398438 11.199219 Z M 12.800781 4.800781 L 12.800781 8.800781 C 12.800781 9.246094 12.449219 9.601562 12 9.601562 C 11.550781 9.601562 11.199219 9.246094 11.199219 8.800781 L 11.199219 4.800781 L 9.601562 4.800781 L 9.601562 8.800781 C 9.601562 9.246094 9.246094 9.601562 8.800781 9.601562 C 8.351562 9.601562 8 9.246094 8 8.800781 L 8 4.800781 L 6.398438 4.800781 L 6.398438 8.800781 C 6.398438 9.246094 6.046875 9.601562 5.601562 9.601562 C 5.152344 9.601562 4.800781 9.246094 4.800781 8.800781 L 4.800781 4.800781 L 3.199219 4.800781 L 3.199219 8.800781 C 3.199219 9.246094 2.847656 9.601562 2.398438 9.601562 C 1.953125 9.601562 1.601562 9.246094 1.601562 8.800781 L 1.601562 4.222656 C 1.601562 3.585938 2 2.992188 2.59375 2.753906 C 4.480469 1.984375 6.542969 1.601562 8.800781 1.601562 C 11.054688 1.601562 13.121094 1.984375 15.007812 2.753906 C 15.601562 2.992188 16 3.585938 16 4.222656 L 16 8.800781 C 16 9.246094 15.648438 9.601562 15.199219 9.601562 C 14.753906 9.601562 14.398438 9.246094 14.398438 8.800781 L 14.398438 4.800781 Z M 12.800781 4.800781 "/>
</svg>
