<?xml version="1.0" encoding="UTF-8"?>
<svg xmlns="http://www.w3.org/2000/svg" xmlns:xlink="http://www.w3.org/1999/xlink" width="24" height="24" viewBox="0 0 24 24">
<path fill-rule="nonzero" fill="rgb(0%, 0%, 0%)" fill-opacity="1" d="M 12 10.304688 C 13.34375 10.304688 14.476562 11.21875 14.792969 12.453125 C 15.195312 13.996094 15.140625 15.691406 16.90625 16.570312 C 18.46875 17.101562 19.066406 17.773438 19.066406 19.570312 C 19.066406 21.003906 17.839844 22.527344 16.257812 22.714844 C 14.492188 22.976562 13.113281 22.632812 12 22 C 10.886719 22.632812 9.507812 22.980469 7.742188 22.714844 C 6.164062 22.523438 4.933594 20.996094 4.933594 19.570312 C 4.933594 17.8125 5.566406 17.070312 7.128906 16.558594 C 9.054688 15.574219 8.792969 13.859375 9.222656 12.375 C 9.566406 11.179688 10.679688 10.304688 11.996094 10.304688 Z M 20.8125 9.238281 C 20.335938 8.828125 18.390625 10.445312 17.777344 11.242188 C 17.410156 11.667969 17.175781 12.253906 17.175781 12.902344 C 17.175781 14.203125 18.105469 15.257812 19.253906 15.257812 C 20.125 15.257812 20.871094 14.65625 21.175781 13.789062 C 21.777344 12.238281 21.8125 10.109375 20.8125 9.238281 Z M 3.1875 9.238281 C 2.1875 10.109375 2.222656 12.238281 2.824219 13.789062 C 3.128906 14.65625 3.878906 15.257812 4.746094 15.257812 C 5.894531 15.257812 6.824219 14.203125 6.824219 12.902344 C 6.824219 12.253906 6.59375 11.667969 6.222656 11.242188 C 5.605469 10.441406 3.664062 8.828125 3.1875 9.238281 Z M 14.558594 0.738281 C 19.402344 1.558594 19.0625 9.714844 15.183594 9.058594 C 14.0625 8.867188 13.234375 7.847656 13.109375 6.632812 C 12.980469 5.394531 12.691406 0.421875 14.558594 0.738281 Z M 9.4375 0.738281 C 11.304688 0.421875 11.015625 5.394531 10.886719 6.632812 C 10.761719 7.851562 9.929688 8.871094 8.8125 9.058594 C 4.933594 9.714844 4.59375 1.558594 9.4375 0.738281 Z M 9.4375 0.738281 "/>
</svg>
