<?xml version="1.0" encoding="UTF-8"?>
<svg xmlns="http://www.w3.org/2000/svg" xmlns:xlink="http://www.w3.org/1999/xlink" width="24" height="24" viewBox="0 0 24 24">
<path fill-rule="nonzero" fill="rgb(0%, 0%, 0%)" fill-opacity="1" d="M 3.199219 19.199219 C 3.601562 20.398438 3.601562 20.398438 4.800781 20.800781 L 9.601562 16 C 10.398438 15.199219 11.601562 15.679688 12.800781 16 C 14.398438 16.558594 15.601562 15.601562 16.800781 14.398438 L 20.800781 10.398438 C 22 9.199219 22 7.601562 20.800781 6.398438 L 17.601562 3.199219 C 16.398438 2 14.800781 2 13.601562 3.199219 L 9.601562 7.199219 C 8.398438 8.398438 7.441406 9.601562 8 11.199219 C 8.320312 12.398438 8.800781 13.601562 8 14.398438 Z M 16 17.601562 C 14.675781 17.601562 13.601562 18.675781 13.601562 20 C 13.601562 21.324219 14.675781 22.398438 16 22.398438 C 17.324219 22.398438 18.398438 21.324219 18.398438 20 C 18.398438 18.675781 17.324219 17.601562 16 17.601562 Z M 16 17.601562 "/>
</svg>
