<?xml version="1.0" encoding="UTF-8"?>
<svg xmlns="http://www.w3.org/2000/svg" xmlns:xlink="http://www.w3.org/1999/xlink" width="24" height="24" viewBox="0 0 24 24">
<path fill-rule="nonzero" fill="rgb(0%, 0%, 0%)" fill-opacity="1" d="M 22.398438 3.199219 C 24 3.199219 23.199219 4.800781 22.398438 4.800781 C 19.199219 4.800781 18.398438 5.601562 16 11.199219 C 12.800781 18.398438 10.800781 20.800781 4.800781 20.800781 C 0.800781 20.800781 0.800781 17.601562 0.800781 16 C 0.800781 14.398438 0.800781 13.199219 1.199219 12 C 2 12.398438 2.800781 12.800781 4.800781 12.800781 C 6.800781 12.800781 7.601562 12.398438 8.398438 12 C 8.800781 13.199219 8.800781 14.398438 8.800781 16 C 8.800781 16 12 15.199219 14.398438 10.398438 C 16.800781 4.800781 18.398438 3.199219 22.398438 3.199219 Z M 8 11.199219 C 8 10.800781 4.800781 10.800781 4.800781 10.800781 C 4.800781 10.800781 1.601562 10.800781 1.601562 11.199219 C 1.601562 11.601562 3.199219 12 4.800781 12 C 6.398438 12 8 11.601562 8 11.199219 Z M 8 11.199219 "/>
</svg>
