<?xml version="1.0" encoding="UTF-8"?>
<svg xmlns="http://www.w3.org/2000/svg" xmlns:xlink="http://www.w3.org/1999/xlink" width="24" height="24" viewBox="0 0 24 24">
<path fill-rule="nonzero" fill="rgb(0%, 0%, 0%)" fill-opacity="1" d="M 15.984375 14.207031 C 16 15.265625 15.761719 16.320312 15.28125 17.28125 C 14.558594 18.6875 13.726562 19.566406 12.800781 19.871094 L 12.800781 21.601562 C 12.800781 21.152344 13.152344 20.800781 13.601562 20.800781 C 14.046875 20.800781 14.398438 21.152344 14.398438 21.601562 L 14.398438 23.199219 C 14.398438 23.648438 14.046875 24 13.601562 24 C 13.152344 24 12.800781 23.648438 12.800781 23.199219 L 11.199219 23.199219 C 11.199219 23.648438 10.847656 24 10.398438 24 C 9.953125 24 9.601562 23.648438 9.601562 23.199219 L 9.601562 21.601562 C 9.601562 21.152344 9.953125 20.800781 10.398438 20.800781 C 10.847656 20.800781 11.199219 21.152344 11.199219 21.601562 L 11.199219 19.871094 C 10.273438 19.566406 9.441406 18.6875 8.71875 17.28125 C 8.238281 16.320312 8 15.28125 8.015625 14.207031 L 4.800781 12.769531 L 4.800781 15.199219 C 4.800781 14.753906 5.152344 14.398438 5.601562 14.398438 C 6.046875 14.398438 6.398438 14.753906 6.398438 15.199219 L 6.398438 16.800781 C 6.398438 17.246094 6.046875 17.601562 5.601562 17.601562 C 5.152344 17.601562 4.800781 17.246094 4.800781 16.800781 L 3.199219 16.800781 C 3.199219 17.246094 2.847656 17.601562 2.398438 17.601562 C 1.953125 17.601562 1.601562 17.246094 1.601562 16.800781 L 1.601562 15.199219 C 1.601562 14.753906 1.953125 14.398438 2.398438 14.398438 C 2.847656 14.398438 3.199219 14.753906 3.199219 15.199219 L 3.199219 12.046875 L 1.328125 11.199219 L 0.046875 8.734375 C -0.0625 8.480469 0.03125 8.175781 0.273438 8.046875 C 0.335938 8.015625 0.414062 8 0.496094 8 L 0.992188 8 C 1.199219 8 1.40625 8.078125 1.550781 8.222656 L 2.960938 9.601562 L 8.449219 9.601562 C 8.785156 7.742188 9.328125 6.433594 10.078125 5.648438 L 7.777344 4.753906 C 7.359375 4.574219 7.167969 4.113281 7.328125 3.710938 C 7.441406 3.40625 7.742188 3.199219 8.0625 3.199219 L 11.199219 3.199219 L 11.199219 0.800781 C 11.199219 0.351562 11.550781 0 12 0 C 12.449219 0 12.800781 0.351562 12.800781 0.800781 L 12.800781 3.199219 L 15.9375 3.199219 C 16.367188 3.199219 16.734375 3.550781 16.734375 4 C 16.734375 4.335938 16.527344 4.625 16.222656 4.753906 L 13.921875 5.648438 C 14.671875 6.433594 15.214844 7.742188 15.550781 9.601562 L 21.023438 9.601562 L 22.433594 8.222656 C 22.574219 8.078125 22.785156 8 22.992188 8 L 23.488281 8 C 23.761719 8 23.984375 8.222656 23.984375 8.496094 C 23.984375 8.574219 23.96875 8.65625 23.9375 8.734375 L 22.671875 11.199219 L 20.800781 12.03125 L 20.800781 15.199219 C 20.800781 14.753906 21.152344 14.398438 21.601562 14.398438 C 22.046875 14.398438 22.398438 14.753906 22.398438 15.199219 L 22.398438 16.800781 C 22.398438 17.246094 22.046875 17.601562 21.601562 17.601562 C 21.152344 17.601562 20.800781 17.246094 20.800781 16.800781 L 19.199219 16.800781 C 19.199219 17.246094 18.847656 17.601562 18.398438 17.601562 C 17.953125 17.601562 17.601562 17.246094 17.601562 16.800781 L 17.601562 15.199219 C 17.601562 14.753906 17.953125 14.398438 18.398438 14.398438 C 18.847656 14.398438 19.199219 14.753906 19.199219 15.199219 L 19.199219 12.753906 Z M 11.199219 12 L 9.601562 13.601562 C 10.496094 14.128906 11.296875 14.398438 12 14.398438 C 12.703125 14.398438 13.503906 14.128906 14.398438 13.601562 L 12.800781 12 Z M 11.199219 12 "/>
</svg>
