<?xml version="1.0" encoding="UTF-8"?>
<svg xmlns="http://www.w3.org/2000/svg" xmlns:xlink="http://www.w3.org/1999/xlink" width="24" height="24" viewBox="0 0 24 24">
<path fill-rule="nonzero" fill="rgb(0%, 0%, 0%)" fill-opacity="1" d="M 13.105469 1.328125 C 13.855469 2.078125 13.488281 3.214844 11.984375 4.71875 L 11.40625 5.28125 L 11.984375 11.503906 L 10.847656 12.640625 L 8.574219 8.113281 L 6.320312 10.382812 L 6.320312 12.640625 L 5.183594 13.777344 L 4.0625 10.382812 L 0.65625 9.246094 L 1.792969 8.113281 L 4.0625 8.113281 L 6.320312 5.855469 L 1.792969 3.585938 L 2.929688 2.464844 L 9.152344 3.023438 L 9.710938 2.464844 C 11.214844 0.945312 12.351562 0.574219 13.105469 1.328125 Z M 10.929688 22.703125 C 10.175781 21.953125 10.542969 20.816406 12.0625 19.3125 L 12.625 18.753906 L 12.0625 12.527344 L 13.183594 11.390625 L 15.457031 15.921875 L 17.710938 13.664062 L 17.710938 11.390625 L 18.847656 10.257812 L 19.984375 13.664062 L 23.375 14.785156 L 22.238281 15.921875 L 19.984375 15.921875 L 17.710938 18.175781 L 22.238281 20.449219 L 21.105469 21.585938 L 14.878906 21.007812 L 14.320312 21.585938 C 12.816406 23.089844 11.679688 23.457031 10.929688 22.703125 Z M 10.929688 22.703125 "/>
</svg>
