<?xml version="1.0" encoding="UTF-8"?>
<svg xmlns="http://www.w3.org/2000/svg" xmlns:xlink="http://www.w3.org/1999/xlink" width="24" height="24" viewBox="0 0 24 24">
<path fill-rule="nonzero" fill="rgb(0%, 0%, 0%)" fill-opacity="1" d="M 15.96875 0 C 15.96875 3.199219 15.441406 5.601562 14.398438 7.199219 C 13.871094 8.015625 13.34375 8.609375 12.800781 9.007812 L 12.800781 11.199219 C 13.328125 10.097656 14.113281 9.105469 15.105469 8.351562 L 17.601562 6.398438 C 17.601562 9.953125 16.0625 13.34375 13.390625 15.679688 L 12.800781 16.191406 L 12.800781 18.65625 C 14.078125 16.144531 16.175781 14.128906 18.769531 12.976562 L 19.199219 12.800781 L 19.199219 14.398438 C 19.199219 18.273438 16.449219 21.503906 12.800781 22.238281 L 12.800781 24 L 11.199219 24 L 11.199219 22.238281 C 7.664062 21.519531 4.976562 18.464844 4.800781 14.769531 L 4.800781 12.800781 L 5.230469 12.976562 C 7.824219 14.128906 9.921875 16.144531 11.199219 18.65625 L 11.199219 16.207031 L 10.609375 15.679688 C 8.046875 13.441406 6.527344 10.257812 6.414062 6.863281 L 6.398438 6.398438 L 8.894531 8.351562 C 9.886719 9.105469 10.671875 10.097656 11.199219 11.199219 L 11.199219 9.023438 C 10.65625 8.625 10.128906 8.015625 9.601562 7.199219 C 8.558594 5.601562 8.03125 3.199219 8.03125 0 C 9.710938 1.007812 11.089844 2.71875 11.886719 4.800781 L 12.113281 4.800781 C 12.910156 2.71875 14.289062 1.007812 15.96875 0 Z M 15.96875 0 "/>
</svg>
