<?xml version="1.0" encoding="UTF-8"?>
<svg xmlns="http://www.w3.org/2000/svg" xmlns:xlink="http://www.w3.org/1999/xlink" width="24" height="24" viewBox="0 0 24 24">
<path fill-rule="nonzero" fill="rgb(0%, 0%, 0%)" fill-opacity="1" d="M 0.800781 4.800781 L 23.199219 4.800781 C 23.648438 4.800781 24 5.152344 24 5.601562 L 24 18.398438 C 24 18.847656 23.648438 19.199219 23.199219 19.199219 L 0.800781 19.199219 C 0.351562 19.199219 0 18.847656 0 18.398438 L 0 5.601562 C 0 5.152344 0.351562 4.800781 0.800781 4.800781 Z M 1.601562 6.398438 L 1.601562 17.601562 L 22.398438 17.601562 L 22.398438 6.398438 Z M 1.601562 15.199219 C 2.929688 15.199219 4 16.273438 4 17.601562 L 1.601562 17.601562 Z M 1.601562 8.800781 L 1.601562 6.398438 L 4 6.398438 C 4 7.726562 2.929688 8.800781 1.601562 8.800781 Z M 22.398438 8.800781 C 21.070312 8.800781 20 7.726562 20 6.398438 L 22.398438 6.398438 Z M 22.398438 15.199219 L 22.398438 17.601562 L 20 17.601562 C 20 16.273438 21.070312 15.199219 22.398438 15.199219 Z M 5.601562 9.679688 C 5.121094 9.679688 4.71875 9.28125 4.71875 8.800781 C 4.71875 8.320312 5.121094 7.921875 5.601562 7.921875 L 8.800781 7.921875 C 9.28125 7.921875 9.679688 8.320312 9.679688 8.800781 C 9.679688 9.28125 9.28125 9.679688 8.800781 9.679688 Z M 15.199219 12.878906 C 14.71875 12.878906 14.320312 12.480469 14.320312 12 C 14.320312 11.519531 14.71875 11.121094 15.199219 11.121094 L 18.398438 11.121094 C 18.878906 11.121094 19.28125 11.519531 19.28125 12 C 19.28125 12.480469 18.878906 12.878906 18.398438 12.878906 Z M 12 9.679688 C 11.519531 9.679688 11.121094 9.28125 11.121094 8.800781 C 11.121094 8.320312 11.519531 7.921875 12 7.921875 L 18.398438 7.921875 C 18.878906 7.921875 19.28125 8.320312 19.28125 8.800781 C 19.28125 9.28125 18.878906 9.679688 18.398438 9.679688 Z M 5.601562 16.078125 C 5.121094 16.078125 4.71875 15.679688 4.71875 15.199219 C 4.71875 14.71875 5.121094 14.320312 5.601562 14.320312 L 8.800781 14.320312 C 9.28125 14.320312 9.679688 14.71875 9.679688 15.199219 C 9.679688 15.679688 9.28125 16.078125 8.800781 16.078125 Z M 12 16.078125 C 11.519531 16.078125 11.121094 15.679688 11.121094 15.199219 C 11.121094 14.71875 11.519531 14.320312 12 14.320312 L 18.398438 14.320312 C 18.878906 14.320312 19.28125 14.71875 19.28125 15.199219 C 19.28125 15.679688 18.878906 16.078125 18.398438 16.078125 Z M 5.601562 12.878906 C 5.121094 12.878906 4.71875 12.480469 4.71875 12 C 4.71875 11.519531 5.121094 11.121094 5.601562 11.121094 L 12 11.121094 C 12.480469 11.121094 12.878906 11.519531 12.878906 12 C 12.878906 12.480469 12.480469 12.878906 12 12.878906 Z M 5.601562 12.878906 "/>
</svg>
