<?xml version="1.0" encoding="UTF-8"?>
<svg xmlns="http://www.w3.org/2000/svg" xmlns:xlink="http://www.w3.org/1999/xlink" width="24" height="24" viewBox="0 0 24 24">
<path fill-rule="nonzero" fill="rgb(0%, 0%, 0%)" fill-opacity="1" d="M 9.601562 16 L 9.601562 22.398438 L 8 22.398438 L 8 17.808594 L 4.398438 21.855469 C 3.808594 22.527344 2.800781 22.574219 2.144531 22 C 1.472656 21.40625 1.425781 20.398438 2 19.742188 L 8 12.992188 L 8 6.398438 L 6.398438 6.398438 L 6.398438 4.800781 L 12 1.601562 L 17.601562 4.800781 L 17.601562 6.398438 L 16 6.398438 L 16 12.800781 L 20 19.199219 L 20.800781 19.199219 C 21.679688 19.199219 22.398438 19.921875 22.398438 20.800781 C 22.398438 21.679688 21.679688 22.398438 20.800781 22.398438 L 18.398438 22.398438 L 16 18.558594 L 16 22.398438 L 14.398438 22.398438 L 14.398438 16 Z M 10.542969 12.304688 C 10.558594 12.320312 10.558594 12.320312 10.574219 12.335938 C 10.976562 12.625 11.472656 12.800781 12 12.800781 C 13.328125 12.800781 14.398438 11.726562 14.398438 10.398438 C 14.398438 9.070312 13.328125 8 12 8 C 10.671875 8 9.601562 9.070312 9.601562 10.398438 C 9.601562 11.183594 9.96875 11.871094 10.542969 12.304688 Z M 10.542969 12.304688 "/>
</svg>
