<?xml version="1.0" encoding="UTF-8"?>
<svg xmlns="http://www.w3.org/2000/svg" xmlns:xlink="http://www.w3.org/1999/xlink" width="24" height="24" viewBox="0 0 24 24">
<path fill-rule="nonzero" fill="rgb(0%, 0%, 0%)" fill-opacity="1" d="M 11.199219 4.800781 C 11.199219 4.800781 11.199219 9.601562 11.199219 9.601562 C 11.199219 10.398438 9.601562 10.398438 9.601562 9.601562 C 9.601562 9.601562 4 9.601562 4 9.601562 C 2.398438 9.601562 1.601562 8.800781 1.601562 7.199219 C 1.601562 7.199219 1.601562 1.601562 1.601562 1.601562 C 0.800781 1.601562 0.800781 0 1.601562 0 C 2.398438 0 6.398438 0 6.398438 0 C 7.199219 0 7.199219 1.601562 6.398438 1.601562 C 6.398438 1.601562 6.398438 4 6.398438 4 C 6.398438 4 6.398438 4.800781 7.199219 4.800781 C 7.199219 4.800781 9.601562 4.800781 9.601562 4.800781 C 9.601562 4 11.199219 4 11.199219 4.800781 Z M 22.398438 16 C 23.199219 16 23.199219 14.398438 22.398438 14.398438 C 22.398438 14.398438 22.398438 7.199219 22.398438 7.199219 C 22.398438 5.601562 21.601562 4.800781 20 4.800781 C 20 4.800781 14.398438 4.800781 14.398438 4.800781 C 14.398438 4 12.800781 4 12.800781 4.800781 C 12.800781 4.800781 12.800781 9.601562 12.800781 9.601562 C 12.800781 10.398438 14.398438 10.398438 14.398438 9.601562 C 14.398438 9.601562 16.800781 9.601562 16.800781 9.601562 C 17.601562 9.601562 17.601562 10.398438 17.601562 10.398438 C 17.601562 10.398438 17.601562 14.398438 17.601562 14.398438 C 16.800781 14.398438 16.800781 16 17.601562 16 C 17.601562 16 22.398438 16 22.398438 16 Z M 22.398438 16 "/>
<path fill-rule="nonzero" fill="rgb(0%, 0%, 0%)" fill-opacity="1" d="M 20 16.800781 C 20.398438 16.800781 22.800781 19.601562 22.800781 21.601562 C 22.800781 23.199219 21.199219 24 20 24 C 18.800781 24 17.199219 23.199219 17.199219 21.601562 C 17.199219 19.601562 19.601562 16.800781 20 16.800781 Z M 17.839844 21.601562 C 17.839844 22.558594 18.800781 23.519531 20 23.519531 C 18.800781 23.039062 18.320312 22.558594 17.839844 21.601562 Z M 17.839844 21.601562 "/>
</svg>
