<?xml version="1.0" encoding="UTF-8"?>
<svg xmlns="http://www.w3.org/2000/svg" xmlns:xlink="http://www.w3.org/1999/xlink" width="24" height="24" viewBox="0 0 24 24">
<path fill-rule="nonzero" fill="rgb(0%, 0%, 0%)" fill-opacity="1" d="M 22.398438 11.199219 L 22.398438 21.601562 C 22.398438 22.046875 22.03125 22.398438 21.601562 22.398438 L 12.800781 22.367188 Z M 11.199219 21.601562 L 11.199219 14.398438 L 3.199219 14.398438 C 2.320312 14.398438 1.601562 13.679688 1.601562 12.800781 C 1.601562 11.921875 2.320312 11.199219 3.199219 11.199219 L 20 11.199219 Z M 20.800781 6.398438 C 20.945312 7.089844 20.785156 10.398438 16.800781 10.398438 C 12.800781 10.398438 12.769531 7.105469 12.910156 6.398438 L 16.800781 8 Z M 22.398438 4.398438 L 16.800781 6.800781 L 11.199219 4.398438 L 11.199219 1.601562 C 12.671875 1.519531 13.742188 1.390625 14.398438 1.199219 C 15.054688 1.007812 15.839844 0.609375 16.734375 0 C 17.664062 0.59375 18.480469 0.992188 19.199219 1.199219 C 19.921875 1.40625 20.976562 1.535156 22.398438 1.601562 Z M 18.398438 3.214844 C 18.304688 3.105469 18.207031 3.007812 18.078125 2.910156 C 17.199219 2.207031 15.902344 2.335938 15.199219 3.214844 L 16.175781 4.433594 C 16.207031 4.480469 16.257812 4.527344 16.304688 4.558594 C 16.640625 4.832031 17.152344 4.785156 17.425781 4.433594 Z M 18.398438 3.214844 "/>
</svg>
