<?xml version="1.0" encoding="UTF-8"?>
<svg xmlns="http://www.w3.org/2000/svg" xmlns:xlink="http://www.w3.org/1999/xlink" width="24" height="24" viewBox="0 0 24 24">
<path fill-rule="nonzero" fill="rgb(0%, 0%, 0%)" fill-opacity="1" d="M 17.601562 12.800781 L 17.601562 23.199219 C 17.601562 23.648438 17.230469 24 16.800781 24 L 8 23.96875 Z M 6.398438 23.199219 L 6.398438 13.601562 C 6.398438 13.152344 6.753906 12.800781 7.199219 12.800781 L 15.199219 12.800781 Z M 16 6.398438 C 16.03125 6.542969 16.046875 7.054688 16.046875 7.953125 C 16.046875 10.191406 14.238281 12 12 12 C 11.96875 12 11.953125 12 11.921875 12 C 9.726562 11.953125 7.984375 10.144531 8.03125 7.953125 C 8.046875 7.070312 8.078125 6.558594 8.113281 6.398438 L 12 8 Z M 17.601562 4.398438 L 12 6.800781 L 6.398438 4.398438 L 6.398438 1.601562 C 7.871094 1.519531 8.945312 1.390625 9.601562 1.199219 C 10.257812 1.007812 11.039062 0.609375 11.9375 0 C 12.863281 0.59375 13.679688 0.992188 14.398438 1.199219 C 15.121094 1.40625 16.175781 1.535156 17.601562 1.601562 Z M 13.601562 3.214844 C 13.503906 3.105469 13.40625 3.007812 13.28125 2.910156 C 12.398438 2.207031 11.105469 2.335938 10.398438 3.214844 L 11.375 4.433594 C 11.40625 4.480469 11.457031 4.527344 11.503906 4.558594 C 11.839844 4.832031 12.351562 4.785156 12.625 4.433594 Z M 13.601562 3.214844 "/>
</svg>
