<?xml version="1.0" encoding="UTF-8"?>
<svg xmlns="http://www.w3.org/2000/svg" xmlns:xlink="http://www.w3.org/1999/xlink" width="24" height="24" viewBox="0 0 24 24">
<path fill-rule="nonzero" fill="rgb(0%, 0%, 0%)" fill-opacity="1" d="M 20.800781 0 L 20.800781 24 L 3.199219 24 L 3.199219 0 Z M 17.601562 1.601562 L 6.398438 1.601562 L 6.382812 1.792969 C 6.304688 2.527344 5.726562 3.105469 4.992188 3.183594 L 4.800781 3.199219 L 4.800781 20.800781 L 4.992188 20.816406 C 5.726562 20.894531 6.304688 21.472656 6.382812 22.207031 L 6.398438 22.398438 L 17.601562 22.398438 L 17.617188 22.207031 C 17.695312 21.472656 18.273438 20.894531 19.007812 20.816406 L 19.199219 20.800781 L 19.199219 3.199219 L 19.007812 3.183594 C 18.222656 3.105469 17.601562 2.414062 17.601562 1.601562 Z M 7.503906 16.574219 C 7.984375 16.785156 8.511719 16.960938 9.089844 17.105469 L 9.648438 17.214844 L 9.9375 17.296875 L 10.304688 17.390625 L 11.246094 17.679688 L 12.449219 18.078125 L 13.28125 18.367188 L 13.328125 18.414062 C 13.9375 18.960938 14.320312 19.710938 14.382812 20.527344 L 14.398438 20.800781 L 6.398438 20.800781 L 6.398438 19.855469 C 6.398438 18.785156 6.71875 17.726562 7.3125 16.832031 Z M 16 7.601562 L 16 9.601562 L 17.601562 12.800781 L 16 12.800781 C 16 14.480469 14.6875 15.871094 13.039062 15.984375 L 12.800781 16 L 12.800781 17.359375 L 11.457031 16.910156 L 10.703125 16.671875 L 10.304688 16.558594 L 9.953125 16.464844 L 9.167969 16.289062 C 8.753906 16.191406 8.367188 16.0625 8 15.921875 L 8 12.320312 Z M 18.0625 4.558594 L 18.273438 4.894531 C 18.382812 5.089844 18.320312 5.34375 18.128906 5.457031 L 6.351562 12.257812 C 6.160156 12.367188 5.902344 12.289062 5.808594 12.097656 L 5.601562 11.761719 C 5.375 11.375 5.503906 10.878906 5.886719 10.671875 L 16.976562 4.273438 C 17.359375 4.046875 17.855469 4.175781 18.0625 4.558594 Z M 14.320312 4.863281 L 7.742188 8.671875 C 7.214844 6.511719 7.777344 4.960938 9.441406 4 C 11.089844 3.039062 12.71875 3.328125 14.320312 4.863281 Z M 14.320312 4.863281 "/>
</svg>
