<?xml version="1.0" encoding="UTF-8"?>
<svg xmlns="http://www.w3.org/2000/svg" xmlns:xlink="http://www.w3.org/1999/xlink" width="24" height="24" viewBox="0 0 24 24">
<path fill-rule="nonzero" fill="rgb(0%, 0%, 0%)" fill-opacity="1" d="M 4.800781 15.199219 L 4.800781 22.398438 L 19.199219 22.398438 L 19.199219 1.601562 L 4.800781 1.601562 Z M 6.398438 16.800781 L 6.398438 3.199219 L 13.601562 3.199219 L 17.601562 7.199219 L 17.601562 20.800781 L 10.398438 20.800781 Z M 4 0 L 20 0 C 20.449219 0 20.800781 0.351562 20.800781 0.800781 L 20.800781 23.199219 C 20.800781 23.648438 20.449219 24 20 24 L 4 24 C 3.550781 24 3.199219 23.648438 3.199219 23.199219 L 3.199219 0.800781 C 3.199219 0.351562 3.550781 0 4 0 Z M 14.398438 1.601562 L 19.199219 1.601562 L 19.199219 6.398438 Z M 4.800781 17.601562 L 9.601562 22.398438 L 4.800781 22.398438 Z M 8.800781 6.398438 C 8.351562 6.398438 8 6.753906 8 7.199219 C 8 7.648438 8.351562 8 8.800781 8 L 13.601562 8 C 14.046875 8 14.398438 7.648438 14.398438 7.199219 C 14.398438 6.753906 14.046875 6.398438 13.601562 6.398438 Z M 8.800781 9.601562 C 8.351562 9.601562 8 9.953125 8 10.398438 C 8 10.847656 8.351562 11.199219 8.800781 11.199219 L 10.398438 11.199219 C 10.847656 11.199219 11.199219 10.847656 11.199219 10.398438 C 11.199219 9.953125 10.847656 9.601562 10.398438 9.601562 Z M 8.800781 9.601562 "/>
</svg>
