<?xml version="1.0" encoding="UTF-8"?>
<svg xmlns="http://www.w3.org/2000/svg" xmlns:xlink="http://www.w3.org/1999/xlink" width="24" height="24" viewBox="0 0 24 24">
<path fill-rule="nonzero" fill="rgb(0%, 0%, 0%)" fill-opacity="1" d="M 18.398438 3.199219 C 18.398438 3.199219 16 12.800781 16 12.800781 C 16 12.800781 19.199219 12.800781 19.199219 12.800781 C 19.199219 12.800781 17.601562 20.800781 17.601562 20.800781 C 17.601562 20.800781 24 9.601562 24 9.601562 C 24 9.601562 20.800781 9.601562 20.800781 9.601562 C 20.800781 9.601562 23.199219 3.199219 23.199219 3.199219 C 23.199219 3.199219 18.398438 3.199219 18.398438 3.199219 Z M 18.398438 3.199219 "/>
<path fill-rule="nonzero" fill="rgb(0%, 0%, 0%)" fill-opacity="1" d="M 2.398438 0 C 3.601562 0 4.800781 1.199219 4.800781 2.398438 C 4.800781 3.601562 3.601562 4.800781 2.398438 4.800781 C 1.199219 4.800781 0 3.601562 0 2.398438 C 0 1.199219 1.199219 0 2.398438 0 Z M 2.398438 1.601562 C 2 1.601562 1.601562 2 1.601562 2.398438 C 1.601562 2.800781 2 3.199219 2.398438 3.199219 C 2.800781 3.199219 3.199219 2.800781 3.199219 2.398438 C 3.199219 2 2.800781 1.601562 2.398438 1.601562 Z M 2.398438 20.800781 C 2.800781 20.800781 3.199219 21.199219 3.199219 21.601562 C 3.199219 22 2.800781 22.398438 2.398438 22.398438 C 2 22.398438 1.601562 22 1.601562 21.601562 C 1.601562 21.199219 2 20.800781 2.398438 20.800781 Z M 2.398438 19.199219 C 1.199219 19.199219 0 20.398438 0 21.601562 C 0 22.800781 1.199219 24 2.398438 24 C 3.601562 24 4.800781 22.800781 4.800781 21.601562 C 4.800781 20.398438 3.601562 19.199219 2.398438 19.199219 Z M 3.199219 5.601562 C 3.199219 4.800781 1.601562 4.800781 1.601562 5.601562 C 1.601562 5.601562 1.601562 18.398438 1.601562 18.398438 C 1.601562 19.199219 3.199219 19.199219 3.199219 18.398438 L 3.199219 8 L 9.199219 8 C 9.601562 8.800781 10.398438 8.800781 10.398438 8.800781 C 11.199219 8.800781 12 8.398438 12 7.199219 C 12 6 11.199219 5.601562 10.398438 5.601562 C 10.398438 5.601562 9.601562 5.601562 9.199219 6.398438 L 3.199219 6.398438 C 3.199219 6.398438 3.199219 5.601562 3.199219 5.601562 Z M 10.398438 12 C 9.601562 12 8.800781 12.800781 8.800781 13.601562 C 8.800781 13.601562 8.800781 14.398438 9.601562 14.800781 L 9.601562 18 L 7.199219 18 C 6.398438 18 6.398438 19.199219 7.199219 19.199219 C 7.199219 19.199219 13.601562 19.199219 13.601562 19.199219 C 14.398438 19.199219 14.398438 18 13.601562 18 L 11.199219 18 L 11.199219 14.800781 C 12 14.398438 12 13.601562 12 13.601562 C 12 12.800781 11.199219 12 10.398438 12 Z M 8.800781 20 C 8 20 8 21.199219 8.800781 21.199219 C 8.800781 21.199219 12 21.199219 12 21.199219 C 12.800781 21.199219 12.800781 20 12 20 C 12 20 8.800781 20 8.800781 20 Z M 10 22 C 9.199219 22 9.199219 23.199219 10 23.199219 C 10 23.199219 10.800781 23.199219 10.800781 23.199219 C 11.601562 23.199219 11.601562 22 10.800781 22 C 10.800781 22 10 22 10 22 Z M 10 22 "/>
</svg>
