<?xml version="1.0" encoding="UTF-8"?>
<svg xmlns="http://www.w3.org/2000/svg" xmlns:xlink="http://www.w3.org/1999/xlink" width="24" height="24" viewBox="0 0 24 24">
<path fill-rule="nonzero" fill="rgb(0%, 0%, 0%)" fill-opacity="1" d="M 18.398438 3.199219 C 18.398438 3.199219 16 12.800781 16 12.800781 C 16 12.800781 19.199219 12.800781 19.199219 12.800781 C 19.199219 12.800781 17.601562 20.800781 17.601562 20.800781 C 17.601562 20.800781 24 9.601562 24 9.601562 C 24 9.601562 20.800781 9.601562 20.800781 9.601562 C 20.800781 9.601562 23.199219 3.199219 23.199219 3.199219 C 23.199219 3.199219 18.398438 3.199219 18.398438 3.199219 Z M 18.398438 3.199219 "/>
<path fill-rule="nonzero" fill="rgb(0%, 0%, 0%)" fill-opacity="1" d="M 4 0 C 5.199219 0 6.398438 1.199219 6.398438 2.398438 C 6.398438 3.601562 5.199219 4.800781 4 4.800781 C 2.800781 4.800781 1.601562 3.601562 1.601562 2.398438 C 1.601562 1.199219 2.800781 0 4 0 Z M 4 1.601562 C 3.601562 1.601562 3.199219 2 3.199219 2.398438 C 3.199219 2.800781 3.601562 3.199219 4 3.199219 C 4.398438 3.199219 4.800781 2.800781 4.800781 2.398438 C 4.800781 2 4.398438 1.601562 4 1.601562 Z M 4 20.800781 C 4.398438 20.800781 4.800781 21.199219 4.800781 21.601562 C 4.800781 22 4.398438 22.398438 4 22.398438 C 3.601562 22.398438 3.199219 22 3.199219 21.601562 C 3.199219 21.199219 3.601562 20.800781 4 20.800781 Z M 4 19.199219 C 2.800781 19.199219 1.601562 20.398438 1.601562 21.601562 C 1.601562 22.800781 2.800781 24 4 24 C 5.199219 24 6.398438 22.800781 6.398438 21.601562 C 6.398438 20.398438 5.199219 19.199219 4 19.199219 Z M 4.800781 16.398438 C 4.800781 16.398438 3.199219 16.398438 3.199219 16.398438 C 3.199219 16.398438 3.199219 18.398438 3.199219 18.398438 C 3.199219 19.199219 4.800781 19.199219 4.800781 18.398438 C 4.800781 18.398438 4.800781 16.398438 4.800781 16.398438 Z M 3.199219 5.601562 C 3.199219 5.601562 3.199219 11.761719 3.199219 11.761719 C 3.199219 12.160156 4.800781 12.160156 4.800781 11.761719 C 4.800781 11.761719 4.800781 5.601562 4.800781 5.601562 C 4.800781 4.800781 3.199219 4.800781 3.199219 5.601562 Z M 12 8 C 12.398438 8 12.800781 8.398438 12.800781 8.800781 C 12.800781 9.199219 12.398438 9.601562 12 9.601562 C 11.601562 9.601562 11.199219 9.199219 11.199219 8.800781 C 11.199219 8.398438 11.601562 8 12 8 Z M 12 6.398438 C 10.800781 6.398438 9.601562 7.601562 9.601562 8.800781 C 9.601562 10 10.800781 11.199219 12 11.199219 C 13.199219 11.199219 14.398438 10 14.398438 8.800781 C 14.398438 7.601562 13.199219 6.398438 12 6.398438 Z M 12 14.398438 C 12.398438 14.398438 12.800781 14.800781 12.800781 15.199219 C 12.800781 15.601562 12.398438 16 12 16 C 11.601562 16 11.199219 15.601562 11.199219 15.199219 C 11.199219 14.800781 11.601562 14.398438 12 14.398438 Z M 12 12.800781 C 10.800781 12.800781 9.601562 14 9.601562 15.199219 C 9.601562 16.398438 10.800781 17.601562 12 17.601562 C 13.199219 17.601562 14.398438 16.398438 14.398438 15.199219 C 14.398438 14 13.199219 12.800781 12 12.800781 Z M 0.398438 13.199219 C 0.398438 13.199219 0 13.199219 0 14.398438 C 0 15.601562 1.601562 16 3.601562 16 C 3.601562 16 8.800781 16 8.800781 16 C 9.601562 16 9.601562 14.398438 8.800781 14.398438 C 8.800781 14.398438 3.601562 14.398438 3.601562 14.398438 C 2 14.398438 1.199219 14 0.398438 13.199219 Z M 2.800781 8 C 1.199219 8 0 9.199219 0 10.800781 C 0 12.800781 1.601562 14 3.601562 14 C 4.800781 14 7.601562 14.097656 7.601562 12 C 7.601562 10.398438 6.398438 10 5.199219 10 L 5.199219 11.601562 C 5.199219 11.601562 6 11.601562 6 12 C 6 12.464844 4.398438 12.398438 3.601562 12.398438 C 2.398438 12.398438 1.601562 11.601562 1.601562 10.800781 C 1.601562 10 2 9.601562 2.800781 9.601562 Z M 8.800781 8 C 8.800781 7.984375 5.199219 8 5.199219 8 L 5.199219 9.601562 C 5.199219 9.601562 8.800781 9.601562 8.800781 9.601562 C 9.601562 9.601562 9.601562 8 8.800781 8 Z M 2 10.800781 C 2 11.199219 2.398438 11.601562 2.800781 11.601562 C 2.800781 11.601562 2.800781 10 2.800781 10 C 2.398438 10 2 10.398438 2 10.800781 Z M 2 10.800781 "/>
</svg>
