<?xml version="1.0" encoding="UTF-8"?>
<svg xmlns="http://www.w3.org/2000/svg" xmlns:xlink="http://www.w3.org/1999/xlink" width="24" height="24" viewBox="0 0 24 24">
<path fill-rule="nonzero" fill="rgb(0%, 0%, 0%)" fill-opacity="1" d="M 9.601562 0.800781 C 9.601562 0.800781 9.601562 3.199219 9.601562 3.199219 C 9.601562 3.199219 13.601562 3.199219 13.601562 3.199219 C 14.398438 3.199219 14.398438 4 14.398438 4 L 14.398438 20 C 14.398438 20 14.398438 20.800781 13.601562 20.800781 C 13.601562 20.800781 9.601562 20.800781 9.601562 20.800781 L 9.601562 23.199219 C 9.601562 24 4.800781 24 4.800781 23.199219 L 4.800781 20.800781 C 4.800781 20.800781 0.800781 20.800781 0.800781 20.800781 C 0 20.800781 0 20 0 20 L 0 4 C 0 4 0 3.199219 0.800781 3.199219 C 0.800781 3.199219 4.800781 3.199219 4.800781 3.199219 C 4.800781 3.199219 4.800781 0.800781 4.800781 0.800781 C 4.800781 0 9.601562 0 9.601562 0.800781 Z M 12.800781 5.601562 C 12.800781 4.800781 12 4.800781 12 4.800781 L 2.398438 4.800781 C 2.398438 4.800781 1.601562 4.800781 1.601562 5.601562 C 1.601562 5.601562 1.601562 18.398438 1.601562 18.398438 C 1.601562 19.199219 2.398438 19.199219 2.398438 19.199219 L 12 19.199219 C 12 19.199219 12.800781 19.199219 12.800781 18.398438 C 12.800781 18.398438 12.800781 5.601562 12.800781 5.601562 Z M 12.800781 5.601562 "/>
<path fill-rule="nonzero" fill="rgb(0%, 0%, 0%)" fill-opacity="1" d="M 8 7.199219 C 8 12 8 16.800781 8 16.800781 C 8 17.601562 7.199219 17.601562 7.199219 17.601562 L 4 17.601562 C 4 17.601562 3.199219 17.601562 3.199219 16.800781 C 3.199219 12 3.199219 7.199219 3.199219 7.199219 C 3.199219 6.398438 4 6.398438 4 6.398438 L 7.199219 6.398438 C 7.199219 6.398438 8 6.398438 8 7.199219 Z M 6.398438 13.199219 C 6.398438 12.800781 6 12.800781 6 12.800781 L 5.199219 12.800781 C 5.199219 12.800781 4.800781 12.800781 4.800781 13.199219 C 4.800781 13.199219 4.800781 15.601562 4.800781 15.601562 C 4.800781 16 5.199219 16 5.199219 16 L 6 16 C 6 16 6.398438 16 6.398438 15.601562 C 6.398438 15.601562 6.398438 13.199219 6.398438 13.199219 Z M 9.601562 7.199219 C 9.601562 7.199219 9.601562 10.398438 9.601562 10.398438 C 9.601562 10.800781 10 10.800781 10 10.800781 L 10.800781 10.800781 C 10.800781 10.800781 11.199219 10.800781 11.199219 10.398438 C 11.199219 10.398438 11.199219 7.199219 11.199219 7.199219 C 11.199219 6.800781 10.800781 6.800781 10.800781 6.800781 L 10 6.800781 C 10 6.800781 9.601562 6.800781 9.601562 7.199219 Z M 10.398438 14.207031 C 10.847656 14.207031 11.199219 14.753906 11.199219 15.199219 C 11.199219 15.648438 10.847656 16.207031 10.398438 16.207031 C 9.953125 16.207031 9.601562 15.648438 9.601562 15.199219 C 9.601562 14.753906 9.953125 14.207031 10.398438 14.207031 Z M 12.207031 15.199219 C 12.207031 14.207031 11.40625 13.199219 10.398438 13.199219 C 9.40625 13.199219 8.609375 14.207031 8.609375 15.199219 C 8.609375 16.207031 9.40625 17.199219 10.398438 17.199219 C 11.40625 17.199219 12.207031 16.207031 12.207031 15.199219 Z M 12.207031 15.199219 "/>
<path fill-rule="nonzero" fill="rgb(0%, 0%, 0%)" fill-opacity="1" d="M 18.398438 3.199219 C 18.398438 3.199219 16 12.800781 16 12.800781 C 16 12.800781 19.199219 12.800781 19.199219 12.800781 C 19.199219 12.800781 17.601562 20.800781 17.601562 20.800781 C 17.601562 20.800781 24 9.601562 24 9.601562 C 24 9.601562 20.800781 9.601562 20.800781 9.601562 C 20.800781 9.601562 23.199219 3.199219 23.199219 3.199219 C 23.199219 3.199219 18.398438 3.199219 18.398438 3.199219 Z M 18.398438 3.199219 "/>
</svg>
