<?xml version="1.0" encoding="UTF-8"?>
<svg xmlns="http://www.w3.org/2000/svg" xmlns:xlink="http://www.w3.org/1999/xlink" width="24" height="24" viewBox="0 0 24 24">
<path fill-rule="nonzero" fill="rgb(0%, 0%, 0%)" fill-opacity="1" d="M 1.601562 20.800781 L 1.601562 9.601562 C 1.601562 9.070312 1.601562 8.527344 1.601562 8 C 1.601562 6.238281 3.039062 4.800781 4.800781 4.800781 C 5.328125 4.800781 5.871094 4.800781 6.398438 4.800781 L 8 4.800781 L 8 3.199219 L 5.601562 3.199219 C 5.152344 3.199219 4.800781 2.847656 4.800781 2.398438 C 4.800781 1.953125 5.152344 1.601562 5.601562 1.601562 L 12 1.601562 C 12.449219 1.601562 12.800781 1.953125 12.800781 2.398438 C 12.800781 2.847656 12.449219 3.199219 12 3.199219 L 9.601562 3.199219 L 9.601562 4.800781 L 12.800781 4.800781 C 14.558594 4.800781 16 6.238281 16 8 L 16 12.800781 L 22.71875 14.144531 C 23.457031 14.289062 24 14.945312 24 15.710938 L 24 16 L 18.398438 16 C 17.953125 16 17.601562 16.351562 17.601562 16.800781 C 17.601562 17.246094 17.953125 17.601562 18.398438 17.601562 L 24 17.601562 L 24 19.199219 L 18.398438 19.199219 C 17.953125 19.199219 17.601562 19.550781 17.601562 20 C 17.601562 20.449219 17.953125 20.800781 18.398438 20.800781 L 24 20.800781 C 24 21.679688 23.28125 22.398438 22.398438 22.398438 L 11.199219 22.398438 C 9.070312 21.328125 8 19.726562 8 17.601562 C 8 15.472656 9.070312 13.871094 11.199219 12.800781 L 11.199219 9.601562 C 9.105469 9.601562 6.398438 9.601562 6.398438 9.601562 L 6.398438 20.800781 L 7.199219 20.800781 C 7.648438 20.800781 8 21.152344 8 21.601562 C 8 22.046875 7.648438 22.398438 7.199219 22.398438 L 0.800781 22.398438 C 0.351562 22.398438 0 22.046875 0 21.601562 C 0 21.152344 0.351562 20.800781 0.800781 20.800781 Z M 1.601562 20.800781 "/>
</svg>
