<?xml version="1.0" encoding="UTF-8"?>
<svg xmlns="http://www.w3.org/2000/svg" xmlns:xlink="http://www.w3.org/1999/xlink" width="24" height="24" viewBox="0 0 24 24">
<path fill-rule="nonzero" fill="rgb(0%, 0%, 0%)" fill-opacity="1" d="M 18.398438 3.199219 C 18.398438 3.199219 16 12.800781 16 12.800781 C 16 12.800781 19.199219 12.800781 19.199219 12.800781 C 19.199219 12.800781 17.601562 20.800781 17.601562 20.800781 C 17.601562 20.800781 24 9.601562 24 9.601562 C 24 9.601562 20.800781 9.601562 20.800781 9.601562 C 20.800781 9.601562 23.199219 3.199219 23.199219 3.199219 C 23.199219 3.199219 18.398438 3.199219 18.398438 3.199219 Z M 18.398438 3.199219 "/>
<path fill-rule="nonzero" fill="rgb(0%, 0%, 0%)" fill-opacity="1" d="M 5.601562 0 C 6.800781 0 8 1.199219 8 2.398438 C 8 3.601562 6.800781 4.800781 5.601562 4.800781 C 4.398438 4.800781 3.199219 3.601562 3.199219 2.398438 C 3.199219 1.199219 4.398438 0 5.601562 0 Z M 5.601562 1.601562 C 5.199219 1.601562 4.800781 2 4.800781 2.398438 C 4.800781 2.800781 5.199219 3.199219 5.601562 3.199219 C 6 3.199219 6.398438 2.800781 6.398438 2.398438 C 6.398438 2 6 1.601562 5.601562 1.601562 Z M 5.601562 20.800781 C 6 20.800781 6.398438 21.199219 6.398438 21.601562 C 6.398438 22 6 22.398438 5.601562 22.398438 C 5.199219 22.398438 4.800781 22 4.800781 21.601562 C 4.800781 21.199219 5.199219 20.800781 5.601562 20.800781 Z M 5.601562 19.199219 C 4.398438 19.199219 3.199219 20.398438 3.199219 21.601562 C 3.199219 22.800781 4.398438 24 5.601562 24 C 6.800781 24 8 22.800781 8 21.601562 C 8 20.398438 6.800781 19.199219 5.601562 19.199219 Z M 8.398438 5.199219 C 12 10.398438 12 13.601562 8.398438 18.800781 C 8 19.601562 8.800781 21.601562 9.601562 20.800781 C 14.398438 16 14.398438 8 9.601562 3.199219 C 8.800781 2.398438 8 4.398438 8.398438 5.199219 Z M 8.398438 5.199219 "/>
</svg>
