<?xml version="1.0" encoding="UTF-8"?>
<svg xmlns="http://www.w3.org/2000/svg" xmlns:xlink="http://www.w3.org/1999/xlink" width="24" height="24" viewBox="0 0 24 24">
<path fill-rule="nonzero" fill="rgb(0%, 0%, 0%)" fill-opacity="1" d="M 12 15.679688 L 15.34375 13.457031 L 12 10.785156 L 8.65625 13.457031 Z M 13.441406 16.640625 L 17.070312 19.054688 L 16.398438 14.671875 Z M 10.558594 16.640625 L 7.601562 14.671875 L 6.929688 19.054688 Z M 8.625 8.078125 L 8.03125 11.902344 L 10.71875 9.761719 Z M 8.878906 6.398438 C 9.023438 6.414062 9.167969 6.480469 9.296875 6.574219 L 12 8.734375 L 14.703125 6.574219 C 14.832031 6.480469 14.976562 6.414062 15.121094 6.398438 Z M 15.96875 11.902344 L 15.375 8.078125 L 13.28125 9.761719 Z M 22.398438 4.800781 L 22.398438 8 L 20.800781 8 L 20.800781 6.398438 L 16.734375 6.398438 L 19.199219 22.398438 L 12 17.601562 L 4.800781 22.398438 L 7.265625 6.398438 L 3.199219 6.398438 L 3.199219 8 L 1.601562 8 L 1.601562 4.800781 L 7.503906 4.800781 L 8 1.601562 L 16 1.601562 L 16.496094 4.800781 Z M 9.121094 4.800781 L 14.878906 4.800781 L 14.625 3.199219 L 9.375 3.199219 Z M 9.121094 4.800781 "/>
</svg>
