<?xml version="1.0" encoding="UTF-8"?>
<svg xmlns="http://www.w3.org/2000/svg" xmlns:xlink="http://www.w3.org/1999/xlink" width="24" height="24" viewBox="0 0 24 24">
<path fill-rule="nonzero" fill="rgb(0%, 0%, 0%)" fill-opacity="1" d="M 14.398438 0.800781 C 16 0.800781 16 1.601562 16 3.199219 L 16 5.601562 C 18.398438 5.601562 20 7.199219 20 9.601562 L 20 19.199219 C 20 20.800781 18.398438 22.398438 16 22.398438 L 16 23.199219 L 8 23.199219 L 8 22.398438 C 5.601562 22.398438 4 20.800781 4 19.199219 L 4 9.601562 C 4 7.199219 5.601562 5.601562 8 5.601562 C 8 5.601562 8 4.800781 8 4.800781 C 8 4.800781 9.199219 4.800781 9.199219 4.800781 C 9.601562 4.800781 9.601562 4.398438 9.601562 4 L 9.601562 3.199219 C 9.601562 2.800781 9.601562 2.398438 9.199219 2.398438 L 8 2.398438 C 8 1.601562 8 0.800781 9.601562 0.800781 Z M 13.601562 2.398438 L 12 2.398438 C 11.601562 2.398438 11.199219 2.800781 11.199219 3.199219 L 11.199219 4 C 11.199219 4.398438 11.601562 4.800781 12 4.800781 L 13.601562 4.800781 C 14 4.800781 14.398438 4.398438 14.398438 4 L 14.398438 3.199219 C 14.398438 2.800781 14 2.398438 13.601562 2.398438 Z M 13.601562 2.398438 "/>
</svg>
