<?xml version="1.0" encoding="UTF-8"?>
<svg xmlns="http://www.w3.org/2000/svg" xmlns:xlink="http://www.w3.org/1999/xlink" width="24" height="24" viewBox="0 0 24 24">
<path fill-rule="nonzero" fill="rgb(0%, 0%, 0%)" fill-opacity="1" d="M 1.601562 5.601562 L 8 5.601562 L 8 18.398438 L 1.601562 18.398438 Z M 16 13.601562 C 14.398438 13.601562 13.601562 15.199219 12.800781 15.199219 C 12 15.199219 11.199219 13.601562 9.601562 13.601562 C 9.601562 13.601562 9.601562 15.199219 9.601562 15.199219 C 10.398438 15.199219 11.199219 16.800781 12.800781 16.800781 C 14.398438 16.800781 15.199219 15.199219 16 15.199219 C 16.800781 15.199219 17.601562 16.800781 19.199219 16.800781 C 20.800781 16.800781 21.601562 15.199219 22.398438 15.199219 C 22.398438 15.199219 22.398438 13.601562 22.398438 13.601562 C 20.800781 13.601562 20 15.199219 19.199219 15.199219 C 18.398438 15.199219 17.601562 13.601562 16 13.601562 Z M 22.398438 10.398438 C 20.800781 10.398438 20 12 19.199219 12 C 18.398438 12 17.601562 10.398438 16 10.398438 C 14.398438 10.398438 13.601562 12 12.800781 12 C 12 12 11.199219 10.398438 9.601562 10.398438 C 9.601562 10.398438 9.601562 12 9.601562 12 C 10.398438 12 11.199219 13.601562 12.800781 13.601562 C 14.398438 13.601562 15.199219 12 16 12 C 16.800781 12 17.601562 13.601562 19.199219 13.601562 C 20.800781 13.601562 21.601562 12 22.398438 12 C 22.398438 12 22.398438 10.398438 22.398438 10.398438 "/>
</svg>
