<?xml version="1.0" encoding="UTF-8"?>
<svg xmlns="http://www.w3.org/2000/svg" xmlns:xlink="http://www.w3.org/1999/xlink" width="24" height="24" viewBox="0 0 24 24">
<path fill-rule="nonzero" fill="rgb(0%, 0%, 0%)" fill-opacity="1" d="M 5.792969 13.695312 C 4.527344 14.945312 4.527344 16.976562 5.792969 18.222656 C 7.039062 19.472656 9.054688 19.472656 10.304688 18.222656 L 18.222656 10.304688 C 19.472656 9.054688 19.472656 7.023438 18.222656 5.777344 C 16.976562 4.527344 14.960938 4.527344 13.710938 5.777344 Z M 2.382812 10.304688 L 10.304688 2.382812 C 13.441406 -0.734375 18.496094 -0.734375 21.632812 2.382812 C 24.753906 5.503906 24.753906 10.574219 21.632812 13.695312 L 13.710938 21.617188 C 10.574219 24.734375 5.519531 24.734375 2.382812 21.617188 C -0.734375 18.496094 -0.734375 13.425781 2.382812 10.304688 Z M 4.65625 12.558594 L 12.574219 4.640625 C 14.449219 2.769531 17.488281 2.769531 19.359375 4.640625 C 21.230469 6.527344 21.230469 9.550781 19.359375 11.441406 L 11.441406 19.359375 C 9.566406 21.230469 6.527344 21.230469 4.65625 19.359375 C 2.785156 17.472656 2.785156 14.449219 4.65625 12.558594 Z M 3.519531 11.441406 C 1.023438 13.9375 1.023438 17.984375 3.519531 20.480469 C 6.015625 22.992188 10.078125 22.992188 12.574219 20.480469 L 20.496094 12.558594 C 22.992188 10.0625 22.992188 6.015625 20.496094 3.519531 C 18 1.007812 13.9375 1.007812 11.441406 3.519531 Z M 3.519531 11.441406 "/>
</svg>
