<?xml version="1.0" encoding="UTF-8"?>
<svg xmlns="http://www.w3.org/2000/svg" xmlns:xlink="http://www.w3.org/1999/xlink" width="24" height="24" viewBox="0 0 24 24">
<path fill-rule="nonzero" fill="rgb(0%, 0%, 0%)" fill-opacity="1" d="M 14.734375 2.398438 C 16.769531 2.398438 18.398438 4.046875 18.398438 6.097656 L 18.398438 17.902344 C 18.398438 19.953125 16.769531 21.601562 14.734375 21.601562 L 9.265625 21.601562 C 7.230469 21.601562 5.601562 19.953125 5.601562 17.902344 L 5.601562 6.097656 C 5.601562 4.046875 7.230469 2.398438 9.265625 2.398438 Z M 12 13.601562 C 10.671875 13.601562 9.601562 14.671875 9.601562 16 C 9.601562 17.328125 10.671875 18.398438 12 18.398438 C 13.328125 18.398438 14.398438 17.328125 14.398438 16 C 14.398438 14.671875 13.328125 13.601562 12 13.601562 Z M 12 5.601562 C 10.671875 5.601562 9.601562 6.671875 9.601562 8 C 9.601562 9.328125 10.671875 10.398438 12 10.398438 C 13.328125 10.398438 14.398438 9.328125 14.398438 8 C 14.398438 6.671875 13.328125 5.601562 12 5.601562 Z M 12 5.601562 "/>
</svg>
