<?xml version="1.0" encoding="UTF-8"?>
<svg xmlns="http://www.w3.org/2000/svg" xmlns:xlink="http://www.w3.org/1999/xlink" width="24" height="24" viewBox="0 0 24 24">
<path fill-rule="nonzero" fill="rgb(0%, 0%, 0%)" fill-opacity="1" d="M 21.601562 19.199219 L 20.800781 19.199219 L 20.800781 7.199219 C 20.800781 6.757812 20.441406 6.398438 20 6.398438 C 19.558594 6.398438 19.199219 6.757812 19.199219 7.199219 L 19.199219 8 L 4.800781 8 L 4.800781 7.199219 C 4.800781 6.757812 4.441406 6.398438 4 6.398438 C 3.558594 6.398438 3.199219 6.757812 3.199219 7.199219 L 3.199219 19.199219 L 2.398438 19.199219 C 1.957031 19.199219 1.601562 19.558594 1.601562 20 C 1.601562 20.441406 1.957031 20.800781 2.398438 20.800781 L 5.601562 20.800781 C 6.042969 20.800781 6.398438 20.441406 6.398438 20 C 6.398438 19.558594 6.042969 19.199219 5.601562 19.199219 L 4.800781 19.199219 L 4.800781 17.601562 L 19.199219 17.601562 L 19.199219 19.199219 L 18.398438 19.199219 C 17.957031 19.199219 17.601562 19.558594 17.601562 20 C 17.601562 20.441406 17.957031 20.800781 18.398438 20.800781 L 21.601562 20.800781 C 22.042969 20.800781 22.398438 20.441406 22.398438 20 C 22.398438 19.558594 22.042969 19.199219 21.601562 19.199219 Z M 4.800781 16 L 4.800781 9.601562 L 6.398438 9.601562 L 6.398438 16 Z M 8 16 L 8 9.601562 L 9.601562 9.601562 L 9.601562 16 Z M 11.199219 16 L 11.199219 9.601562 L 12.800781 9.601562 L 12.800781 16 Z M 14.398438 16 L 14.398438 9.601562 L 16 9.601562 L 16 16 Z M 19.199219 16 L 17.601562 16 L 17.601562 9.601562 L 19.199219 9.601562 Z M 19.199219 16 "/>
</svg>
