<?xml version="1.0" encoding="UTF-8"?>
<svg xmlns="http://www.w3.org/2000/svg" xmlns:xlink="http://www.w3.org/1999/xlink" width="24" height="24" viewBox="0 0 24 24">
<path fill-rule="nonzero" fill="rgb(0%, 0%, 0%)" fill-opacity="1" d="M 22.398438 20.800781 L 22.398438 6.398438 L 6.398438 6.398438 L 6.398438 20.800781 Z M 14.398438 8 L 21.601562 14.398438 L 19.199219 14.398438 L 19.199219 19.199219 L 16 19.199219 L 16 16 L 12.800781 16 L 12.800781 19.199219 L 9.601562 19.199219 L 9.601562 14.398438 L 7.199219 14.398438 Z M 4.800781 3.199219 C 4.800781 3.199219 4.800781 1.601562 4.800781 1.601562 C 4.800781 0.800781 1.601562 0.800781 1.601562 1.601562 C 1.601562 1.601562 1.601562 24 1.601562 24 L 4.800781 24 L 4.800781 4.800781 C 4.800781 4.800781 22.398438 4.800781 22.398438 4.800781 C 23.199219 4.800781 23.199219 3.199219 22.398438 3.199219 C 22.398438 3.199219 4.800781 3.199219 4.800781 3.199219 Z M 4.800781 3.199219 "/>
</svg>
