<?xml version="1.0" encoding="UTF-8"?>
<svg xmlns="http://www.w3.org/2000/svg" xmlns:xlink="http://www.w3.org/1999/xlink" width="24" height="24" viewBox="0 0 24 24">
<path fill-rule="nonzero" fill="rgb(0%, 0%, 0%)" fill-opacity="1" d="M 8.800781 8 C 8.800781 8 24 24 24 24 C 24 24 21.601562 24 21.601562 24 C 21.601562 24 19.199219 21.601562 19.199219 21.601562 C 19.199219 21.601562 19.199219 24 19.199219 24 L 17.601562 24 C 17.601562 24 17.601562 20 17.601562 20 C 17.601562 20 14.398438 16.398438 14.398438 16.398438 C 14.398438 16.398438 14.398438 24 14.398438 24 L 12.800781 24 C 12.800781 24 12.800781 15.199219 12.800781 15.199219 C 12.800781 15.199219 9.601562 11.601562 9.601562 11.601562 C 9.601562 11.601562 9.601562 24 9.601562 24 L 8 24 C 8 24 8 10 8 10 C 8 10 6 7.601562 4.800781 7.601562 L 4.800781 24 L 3.199219 24 L 3.199219 7.601562 C 1.601562 7.601562 0 9.199219 0 9.199219 C 0 9.199219 0 6.800781 0 6.800781 C 0 6.800781 1.601562 5.601562 4 5.601562 C 7.199219 5.601562 8.800781 8 8.800781 8 Z M 8.800781 8 "/>
<path fill-rule="nonzero" fill="rgb(0%, 0%, 0%)" fill-opacity="1" d="M 8 4 C 8 4 9.601562 5.601562 9.601562 5.601562 C 9.601562 5.601562 11.199219 4 12.800781 5.601562 C 14.398438 7.199219 12.800781 8.800781 12.800781 8.800781 C 12.800781 8.800781 16.800781 12.800781 16.800781 12.800781 C 16.800781 12.800781 18.398438 11.199219 20 12.800781 C 21.601562 14.398438 20 16 20 16 C 20 16 22.398438 18.398438 22.398438 18.398438 C 22.398438 18.398438 24.800781 12.800781 20.800781 8.800781 C 17.601562 11.199219 14.398438 7.199219 16.800781 4.800781 C 18.398438 3.199219 11.199219 0 11.199219 0 C 11.199219 0 8.03125 4 8 4 Z M 11.199219 8.800781 C 12 8.800781 12.800781 8 12.800781 7.199219 C 12.800781 6.398438 12 5.601562 11.199219 5.601562 C 10.398438 5.601562 9.601562 6.398438 9.601562 7.199219 C 9.601562 8 10.398438 8.800781 11.199219 8.800781 Z M 18.398438 16 C 19.199219 16 20 15.199219 20 14.398438 C 20 13.601562 19.199219 12.800781 18.398438 12.800781 C 17.601562 12.800781 16.800781 13.601562 16.800781 14.398438 C 16.800781 15.199219 17.601562 16 18.398438 16 Z M 18.398438 16 "/>
</svg>
