<?xml version="1.0" encoding="UTF-8"?>
<svg xmlns="http://www.w3.org/2000/svg" xmlns:xlink="http://www.w3.org/1999/xlink" width="24" height="24" viewBox="0 0 24 24">
<path fill-rule="nonzero" fill="rgb(0%, 0%, 0%)" fill-opacity="1" d="M 12 14.433594 L 23.855469 19.167969 L 23.953125 19.199219 L 24 19.199219 L 12 24 L 0 19.199219 L 0.078125 19.199219 L 0.144531 19.167969 Z M 12 16.128906 L 4.304688 19.199219 L 12 22.273438 L 19.695312 19.199219 Z M 11.601562 0.160156 L 11.601562 13.601562 L 11.617188 13.695312 L 11.617188 13.726562 L 8 15.167969 L 8 8.816406 C 8 8.574219 7.953125 8.351562 7.855469 8.128906 C 7.472656 7.265625 6.464844 6.863281 5.601562 7.246094 C 4.238281 7.839844 3.3125 9.152344 3.214844 10.625 L 3.199219 10.910156 L 3.199219 17.089844 L 0 18.367188 L 0 4.800781 Z M 12.398438 0.160156 L 24 4.800781 L 24 18.367188 L 12.382812 13.726562 L 12.398438 13.664062 Z M 15.601562 6.398438 L 15.601562 11.199219 L 20.398438 13.199219 L 20.398438 8.398438 Z M 6.398438 10.800781 C 6.847656 10.800781 7.199219 11.152344 7.199219 11.601562 C 7.199219 12.046875 6.847656 12.398438 6.398438 12.398438 C 5.953125 12.398438 5.601562 12.046875 5.601562 11.601562 C 5.601562 11.152344 5.953125 10.800781 6.398438 10.800781 Z M 6.398438 10.800781 "/>
</svg>
