<?xml version="1.0" encoding="UTF-8"?>
<svg xmlns="http://www.w3.org/2000/svg" xmlns:xlink="http://www.w3.org/1999/xlink" width="24" height="24" viewBox="0 0 24 24">
<path fill-rule="nonzero" fill="rgb(0%, 0%, 0%)" fill-opacity="1" d="M 3.199219 6.398438 C 4.078125 6.398438 4.800781 7.121094 4.800781 8 L 4.800781 17.601562 L 1.601562 17.601562 L 1.601562 8 C 1.601562 7.121094 2.320312 6.398438 3.199219 6.398438 Z M 3.199219 6.398438 "/>
<path fill-rule="nonzero" fill="rgb(0%, 0%, 0%)" fill-opacity="1" d="M 20.800781 6.398438 C 21.679688 6.398438 22.398438 7.121094 22.398438 8 L 22.398438 17.601562 L 19.199219 17.601562 L 19.199219 8 C 19.199219 7.121094 19.921875 6.398438 20.800781 6.398438 Z M 20.800781 6.398438 "/>
<path fill-rule="nonzero" fill="rgb(0%, 0%, 0%)" fill-opacity="1" d="M 1.039062 9.632812 C 0.59375 9.328125 0.464844 8.703125 0.769531 8.238281 C 1.070312 7.792969 1.695312 7.664062 2.160156 7.96875 C 5.183594 10 8.464844 11.007812 12 11.007812 C 15.535156 11.007812 18.816406 10 21.839844 7.96875 C 22.304688 7.664062 22.929688 7.792969 23.230469 8.238281 C 23.535156 8.703125 23.40625 9.328125 22.960938 9.632812 C 19.585938 11.871094 15.9375 13.007812 12 13.007812 C 8.0625 13.007812 4.414062 11.871094 1.039062 9.632812 Z M 1.039062 9.632812 "/>
</svg>
