<?xml version="1.0" encoding="UTF-8"?>
<svg xmlns="http://www.w3.org/2000/svg" xmlns:xlink="http://www.w3.org/1999/xlink" width="24" height="24" viewBox="0 0 24 24">
<path fill-rule="nonzero" fill="rgb(0%, 0%, 0%)" fill-opacity="1" d="M 8.800781 3.199219 C 9.246094 3.199219 9.601562 3.550781 9.601562 4 L 9.601562 20.800781 L 23.199219 20.800781 C 23.648438 20.800781 24 21.152344 24 21.601562 C 24 22.046875 23.648438 22.398438 23.199219 22.398438 L 9.601562 22.398438 L 9.601562 24 L 8 24 L 8 22.398438 L 0.800781 22.398438 C 0.351562 22.398438 0 22.046875 0 21.601562 C 0 21.152344 0.351562 20.800781 0.800781 20.800781 L 8 20.800781 L 8 4 C 8 3.550781 8.351562 3.199219 8.800781 3.199219 Z M 14.398438 0 C 14.734375 2.65625 15.808594 5.855469 17.601562 9.601562 C 19.390625 13.34375 21.265625 16.800781 23.199219 20 L 10.398438 20 L 10.625 18.65625 C 11.007812 16.257812 11.199219 14.304688 11.199219 12.800781 C 11.199219 12.464844 11.183594 12.097656 11.167969 11.710938 L 11.121094 10.878906 L 11.039062 9.953125 C 11.039062 9.792969 11.023438 9.632812 11.007812 9.472656 L 10.878906 8.433594 L 10.753906 7.296875 L 10.59375 6.097656 L 10.398438 4.800781 Z M 6.449219 7.457031 L 7.199219 6.398438 L 6.960938 8.464844 L 6.753906 10.351562 L 6.59375 12.03125 L 6.496094 13.039062 L 6.433594 13.96875 C 6.414062 14.113281 6.414062 14.257812 6.398438 14.398438 C 6.289062 16.160156 6.496094 17.855469 7.007812 19.472656 L 7.199219 20 L 0.800781 20 L 0.976562 19.359375 L 1.3125 18.144531 L 1.648438 17.023438 L 1.984375 16 C 2.03125 15.839844 2.078125 15.679688 2.144531 15.519531 L 2.449219 14.625 C 2.703125 13.921875 2.960938 13.3125 3.199219 12.800781 C 3.488281 12.191406 3.871094 11.472656 4.367188 10.671875 L 4.878906 9.824219 C 4.976562 9.679688 5.070312 9.535156 5.167969 9.390625 L 5.777344 8.449219 Z M 6.449219 7.457031 "/>
</svg>
