<?xml version="1.0" encoding="UTF-8"?>
<svg xmlns="http://www.w3.org/2000/svg" xmlns:xlink="http://www.w3.org/1999/xlink" width="24" height="24" viewBox="0 0 24 24">
<path fill-rule="nonzero" fill="rgb(0%, 0%, 0%)" fill-opacity="1" d="M 19.855469 0.160156 L 19.984375 0.257812 L 23.742188 4.015625 C 24 4.273438 24.0625 4.640625 23.9375 4.976562 L 23.871094 5.105469 L 21.9375 8.320312 L 21.855469 8.414062 L 21.792969 8.480469 C 21.777344 8.496094 21.742188 8.511719 21.710938 8.527344 L 21.566406 8.609375 L 21.457031 8.640625 L 21.296875 8.671875 L 21.199219 8.671875 L 21.070312 8.65625 L 20.929688 8.625 L 20.769531 8.542969 L 20.640625 8.433594 L 18.71875 6.527344 L 16.015625 9.246094 L 16.449219 9.488281 C 16.511719 9.535156 16.574219 9.566406 16.65625 9.601562 L 24 9.601562 L 24 22.398438 L 0 22.398438 L 0 9.601562 L 3.632812 9.601562 L 4.257812 9.007812 C 6.015625 7.40625 7.824219 6.398438 9.601562 6.398438 C 10.71875 6.398438 11.617188 6.671875 12.992188 7.441406 L 13.664062 7.808594 L 14.449219 8.289062 L 17.472656 5.28125 L 15.550781 3.359375 L 15.457031 3.230469 L 15.40625 3.136719 L 15.359375 2.992188 L 15.328125 2.847656 L 15.328125 2.703125 L 15.359375 2.542969 L 15.425781 2.382812 L 15.488281 2.273438 L 15.535156 2.207031 L 15.632812 2.097656 L 15.726562 2.03125 L 18.894531 0.128906 C 19.199219 -0.0625 19.585938 -0.03125 19.855469 0.160156 Z M 14.398438 14.398438 L 6.398438 14.398438 L 6.992188 13.214844 C 7.664062 11.886719 8.542969 10.65625 9.601562 9.601562 L 11.375 11.375 L 13.296875 9.457031 L 13.230469 9.425781 C 11.472656 8.367188 10.59375 8 9.601562 8 C 8.320312 8 6.832031 8.832031 5.34375 10.191406 L 4.800781 10.703125 L 3.871094 11.601562 L 2.734375 12.753906 L 1.601562 13.921875 L 1.601562 19.199219 L 22.398438 19.199219 L 22.398438 16 C 22.414062 14.832031 22.289062 13.855469 22.03125 13.054688 C 21.519531 12.398438 20.71875 12.0625 19.535156 12 L 19.199219 12 C 18.078125 12 17.183594 11.726562 15.808594 10.960938 L 15.136719 10.59375 L 14.847656 10.414062 L 12.625 12.625 Z M 20 16 C 20.449219 16 20.800781 16.351562 20.800781 16.800781 C 20.800781 17.246094 20.449219 17.601562 20 17.601562 C 19.550781 17.601562 19.199219 17.246094 19.199219 16.800781 C 19.199219 16.351562 19.550781 16 20 16 Z M 7.199219 16 C 7.648438 16 8 16.351562 8 16.800781 C 8 17.246094 7.648438 17.601562 7.199219 17.601562 C 6.753906 17.601562 6.398438 17.246094 6.398438 16.800781 C 6.398438 16.351562 6.753906 16 7.199219 16 Z M 15.199219 16 C 15.648438 16 16 16.351562 16 16.800781 C 16 17.246094 15.648438 17.601562 15.199219 17.601562 C 14.753906 17.601562 14.398438 17.246094 14.398438 16.800781 C 14.398438 16.351562 14.753906 16 15.199219 16 Z M 4 14.398438 C 4.449219 14.398438 4.800781 14.753906 4.800781 15.199219 C 4.800781 15.648438 4.449219 16 4 16 C 3.550781 16 3.199219 15.648438 3.199219 15.199219 C 3.199219 14.753906 3.550781 14.398438 4 14.398438 Z M 18.398438 12.800781 C 18.847656 12.800781 19.199219 13.152344 19.199219 13.601562 C 19.199219 14.046875 18.847656 14.398438 18.398438 14.398438 C 17.953125 14.398438 17.601562 14.046875 17.601562 13.601562 C 17.601562 13.152344 17.953125 12.800781 18.398438 12.800781 Z M 5.601562 11.199219 C 6.046875 11.199219 6.398438 11.550781 6.398438 12 C 6.398438 12.449219 6.046875 12.800781 5.601562 12.800781 C 5.152344 12.800781 4.800781 12.449219 4.800781 12 C 4.800781 11.550781 5.152344 11.199219 5.601562 11.199219 Z M 19.214844 2 L 17.648438 2.945312 L 21.054688 6.351562 L 22 4.785156 Z M 19.214844 2 "/>
</svg>
