<?xml version="1.0" encoding="UTF-8"?>
<svg xmlns="http://www.w3.org/2000/svg" xmlns:xlink="http://www.w3.org/1999/xlink" width="24" height="24" viewBox="0 0 24 24">
<path fill-rule="nonzero" fill="rgb(0%, 0%, 0%)" fill-opacity="1" d="M 9.601562 19.199219 L 13.871094 16 L 9.601562 12.800781 Z M 9.601562 21.199219 L 9.601562 22.398438 L 8 22.398438 L 8 20.816406 C 8 20.800781 8 20.800781 8 20.785156 L 8 16 L 3.199219 16 L 3.199219 22.398438 L 1.601562 22.398438 L 1.601562 1.601562 L 3.199219 1.601562 L 3.199219 3.199219 L 20.800781 3.199219 L 20.800781 1.601562 L 22.398438 1.601562 L 22.398438 11.183594 C 22.398438 11.199219 22.398438 11.199219 22.398438 11.214844 L 22.398438 20.785156 C 22.398438 20.800781 22.398438 20.800781 22.398438 20.816406 L 22.398438 22.398438 L 20.800781 22.398438 L 20.800781 21.199219 L 15.199219 17.007812 Z M 20.273438 11.199219 L 10.128906 11.199219 L 15.199219 15.007812 Z M 20.800781 12.800781 L 16.527344 16 L 20.800781 19.199219 Z M 8 11.214844 L 8 11.199219 L 3.199219 11.199219 L 3.199219 14.398438 L 8 14.398438 L 8 11.214844 C 8 11.039062 8.046875 10.863281 8.160156 10.71875 C 8.433594 10.367188 8.929688 10.289062 9.28125 10.558594 L 10.128906 11.199219 Z M 9.601562 6.398438 L 9.601562 9.601562 L 20.800781 9.601562 L 20.800781 6.398438 Z M 8 6.398438 L 3.199219 6.398438 L 3.199219 9.601562 L 8 9.601562 Z M 8 6.398438 "/>
</svg>
