<?xml version="1.0" encoding="UTF-8"?>
<svg xmlns="http://www.w3.org/2000/svg" xmlns:xlink="http://www.w3.org/1999/xlink" width="24" height="24" viewBox="0 0 24 24">
<path fill-rule="nonzero" fill="rgb(0%, 0%, 0%)" fill-opacity="1" d="M 3.199219 4.800781 C 3.199219 3.039062 4.640625 1.601562 6.398438 1.601562 L 17.601562 1.601562 C 19.359375 1.601562 20.800781 3.039062 20.800781 4.800781 L 20.800781 17.601562 C 20.800781 19.199219 19.199219 19.199219 19.199219 19.199219 L 19.199219 20.800781 C 19.199219 21.679688 18.480469 22.398438 17.601562 22.398438 C 16.71875 22.398438 16 21.679688 16 20.800781 L 16 19.199219 L 8 19.199219 L 8 20.800781 C 8 21.679688 7.28125 22.398438 6.398438 22.398438 C 5.519531 22.398438 4.800781 21.679688 4.800781 20.800781 L 4.800781 19.199219 C 3.199219 19.199219 3.199219 17.601562 3.199219 17.601562 Z M 5.601562 6.398438 C 5.152344 6.398438 4.800781 6.753906 4.800781 7.199219 L 4.800781 12 C 4.800781 12.449219 5.152344 12.800781 5.601562 12.800781 L 10.398438 12.800781 C 10.847656 12.800781 11.199219 12.449219 11.199219 12 L 11.199219 7.199219 C 11.199219 6.753906 10.847656 6.398438 10.398438 6.398438 Z M 13.601562 6.398438 C 13.152344 6.398438 12.800781 6.753906 12.800781 7.199219 L 12.800781 12 C 12.800781 12.449219 13.152344 12.800781 13.601562 12.800781 L 18.398438 12.800781 C 18.847656 12.800781 19.199219 12.449219 19.199219 12 L 19.199219 7.199219 C 19.199219 6.753906 18.847656 6.398438 18.398438 6.398438 Z M 4.800781 4 C 4.800781 4.65625 5.34375 5.199219 6 5.199219 C 6.65625 5.199219 7.199219 4.65625 7.199219 4 C 7.199219 3.34375 6.65625 2.800781 6 2.800781 C 5.34375 2.800781 4.800781 3.34375 4.800781 4 Z M 16.800781 4 C 16.800781 4.65625 17.34375 5.199219 18 5.199219 C 18.65625 5.199219 19.199219 4.65625 19.199219 4 C 19.199219 3.34375 18.65625 2.800781 18 2.800781 C 17.34375 2.800781 16.800781 3.34375 16.800781 4 Z M 13.601562 4 C 13.601562 4.65625 14.144531 5.199219 14.800781 5.199219 C 15.457031 5.199219 16 4.65625 16 4 C 16 3.34375 15.457031 2.800781 14.800781 2.800781 C 14.144531 2.800781 13.601562 3.34375 13.601562 4 Z M 8 4 C 8 4.65625 8.542969 5.199219 9.199219 5.199219 C 9.855469 5.199219 10.398438 4.65625 10.398438 4 C 10.398438 3.34375 9.855469 2.800781 9.199219 2.800781 C 8.542969 2.800781 8 3.34375 8 4 Z M 6.398438 14.398438 C 5.519531 14.398438 4.800781 15.121094 4.800781 16 C 4.800781 16.878906 5.519531 17.601562 6.398438 17.601562 C 7.28125 17.601562 8 16.878906 8 16 C 8 15.121094 7.28125 14.398438 6.398438 14.398438 Z M 17.601562 14.398438 C 16.71875 14.398438 16 15.121094 16 16 C 16 16.878906 16.71875 17.601562 17.601562 17.601562 C 18.480469 17.601562 19.199219 16.878906 19.199219 16 C 19.199219 15.121094 18.480469 14.398438 17.601562 14.398438 Z M 17.601562 14.398438 "/>
</svg>
