<?xml version="1.0" encoding="UTF-8"?>
<svg xmlns="http://www.w3.org/2000/svg" xmlns:xlink="http://www.w3.org/1999/xlink" width="24" height="24" viewBox="0 0 24 24">
<path fill-rule="nonzero" fill="rgb(0%, 0%, 0%)" fill-opacity="1" d="M 9.601562 19.199219 L 8 16.800781 L 9.601562 14.398438 L 8 12 L 9.601562 9.601562 L 8 7.199219 L 9.601562 4.800781 L 8 4.800781 L 6.398438 1.601562 L 17.601562 1.601562 L 16 4.800781 L 14.398438 4.800781 L 16 7.199219 L 14.398438 9.601562 L 16 12 L 14.398438 14.398438 L 16 16.800781 L 14.398438 19.199219 L 17.601562 19.199219 L 17.601562 20.800781 L 19.199219 20.800781 L 19.199219 22.398438 L 4.800781 22.398438 L 4.800781 20.800781 L 6.398438 20.800781 L 6.398438 19.199219 Z M 10.398438 7.199219 L 12 8.800781 L 13.601562 7.199219 L 12 5.601562 Z M 10.398438 12 L 12 13.601562 L 13.601562 12 L 12 10.398438 Z M 10.398438 16.800781 L 12 18.398438 L 13.601562 16.800781 L 12 15.199219 Z M 10.398438 16.800781 "/>
</svg>
