<?xml version="1.0" encoding="UTF-8"?>
<svg xmlns="http://www.w3.org/2000/svg" xmlns:xlink="http://www.w3.org/1999/xlink" width="24" height="24" viewBox="0 0 24 24">
<path fill-rule="nonzero" fill="rgb(0%, 0%, 0%)" fill-opacity="1" d="M 0 3.199219 C 0 3.199219 8 3.199219 8 3.199219 C 8 3.199219 24 10.398438 24 10.398438 C 24 10.398438 12.398438 10.398438 12.398438 10.398438 C 12.398438 10.398438 0 3.199219 0 3.199219 Z M 0 3.199219 "/>
<path fill-rule="nonzero" fill="rgb(0%, 0%, 0%)" fill-opacity="1" d="M 0 4 C 0 4 12 11.199219 12 11.199219 C 12 11.199219 8.800781 20 8.800781 20 C 8.800781 20 0 9.601562 0 9.601562 C 0 9.601562 0 4 0 4 Z M 0 4 "/>
<path fill-rule="nonzero" fill="rgb(0%, 0%, 0%)" fill-opacity="1" d="M 24 11.199219 C 24 11.199219 20 20 20 20 C 20 20 9.601562 20 9.601562 20 C 9.601562 20 12.800781 11.199219 12.800781 11.199219 Z M 16.207031 12 C 14.320312 12 12.800781 13.359375 12.800781 15.039062 C 12.800781 16.71875 14.320312 18.078125 16.207031 18.078125 C 18.078125 18.078125 19.601562 16.71875 19.601562 15.039062 C 19.601562 13.359375 18.078125 12 16.207031 12 Z M 16.207031 12 "/>
</svg>
