<?xml version="1.0" encoding="UTF-8"?>
<svg xmlns="http://www.w3.org/2000/svg" xmlns:xlink="http://www.w3.org/1999/xlink" width="24" height="24" viewBox="0 0 24 24">
<path fill-rule="nonzero" fill="rgb(0%, 0%, 0%)" fill-opacity="1" d="M 20.800781 5.601562 C 21.617188 5.601562 22.304688 6.222656 22.382812 7.007812 L 22.398438 7.199219 L 22.398438 11.199219 C 23.039062 11.199219 23.648438 11.585938 23.886719 12.222656 C 24.191406 12.992188 23.855469 13.839844 23.152344 14.222656 L 22.976562 14.289062 L 19.199219 15.742188 L 19.199219 16 C 19.199219 16.878906 18.480469 17.601562 17.601562 17.601562 C 17.039062 17.601562 16.542969 17.3125 16.257812 16.878906 L 12.496094 18.320312 L 16.480469 24 L 7.519531 24 L 11.121094 18.847656 L 8 20.046875 L 8 20.800781 C 8 21.679688 7.28125 22.398438 6.398438 22.398438 C 5.679688 22.398438 5.054688 21.921875 4.863281 21.265625 L 2.175781 22.289062 C 1.34375 22.609375 0.414062 22.191406 0.113281 21.375 C -0.191406 20.609375 0.144531 19.761719 0.847656 19.375 L 1.023438 19.3125 L 1.601562 19.089844 L 1.601562 13.601562 C 1.601562 12.71875 2.320312 12 3.199219 12 C 4.015625 12 4.703125 12.625 4.785156 13.40625 L 4.800781 13.601562 L 4.800781 15.550781 L 6.015625 15.246094 C 6.113281 15.230469 6.191406 15.214844 6.273438 15.199219 L 6.511719 15.199219 L 6.6875 15.230469 L 6.863281 15.265625 L 7.070312 15.34375 L 7.136719 15.375 L 7.28125 15.457031 L 7.457031 15.601562 L 7.679688 15.824219 L 7.777344 15.984375 L 7.855469 16.144531 L 7.9375 16.320312 L 7.96875 16.511719 L 7.984375 16.625 L 16 13.550781 L 16 11.902344 L 16.015625 11.824219 L 16 12 C 16 11.839844 16.015625 11.695312 16.0625 11.550781 L 16.144531 11.328125 L 16.207031 11.199219 L 16.335938 11.023438 L 16.464844 10.863281 L 16.625 10.734375 L 16.71875 10.65625 L 16.847656 10.59375 L 17.089844 10.480469 L 19.199219 9.953125 L 19.199219 7.199219 C 19.199219 6.320312 19.921875 5.601562 20.800781 5.601562 Z M 3.199219 6.398438 C 4.527344 6.398438 5.601562 7.472656 5.601562 8.800781 C 5.601562 10.128906 4.527344 11.199219 3.199219 11.199219 C 1.871094 11.199219 0.800781 10.128906 0.800781 8.800781 C 0.800781 7.472656 1.871094 6.398438 3.199219 6.398438 Z M 20.800781 0 C 22.128906 0 23.199219 1.070312 23.199219 2.398438 C 23.199219 3.726562 22.128906 4.800781 20.800781 4.800781 C 19.472656 4.800781 18.398438 3.726562 18.398438 2.398438 C 18.398438 1.070312 19.472656 0 20.800781 0 Z M 20.800781 0 "/>
</svg>
