<?xml version="1.0" encoding="UTF-8"?>
<svg xmlns="http://www.w3.org/2000/svg" xmlns:xlink="http://www.w3.org/1999/xlink" width="24" height="24" viewBox="0 0 24 24">
<path fill-rule="nonzero" fill="rgb(0%, 0%, 0%)" fill-opacity="1" d="M 12 5.089844 C 10.351562 6.480469 8.480469 7.199219 6.398438 7.199219 C 5.726562 7.199219 5.007812 7.070312 4.191406 6.816406 C 4.894531 13.023438 7.488281 17.246094 12 19.710938 Z M 1.601562 3.199219 C 1.601562 3.199219 4.800781 4.800781 6.398438 4.800781 C 8.527344 4.800781 10.398438 3.726562 12 1.601562 C 13.601562 3.726562 15.472656 4.800781 17.601562 4.800781 C 19.199219 4.800781 22.398438 3.199219 22.398438 3.199219 C 22.398438 12.800781 18.929688 19.199219 12 22.398438 C 5.070312 19.199219 1.601562 12.800781 1.601562 3.199219 Z M 1.601562 3.199219 "/>
</svg>
