<?xml version="1.0" encoding="UTF-8"?>
<svg xmlns="http://www.w3.org/2000/svg" xmlns:xlink="http://www.w3.org/1999/xlink" width="24" height="24" viewBox="0 0 24 24">
<path fill-rule="nonzero" fill="rgb(0%, 0%, 0%)" fill-opacity="1" d="M 0 0 C 0 1.710938 1.121094 2.816406 1.710938 3.40625 C 2.304688 4 3.152344 3.761719 3.152344 4.207031 C 3.152344 4.207031 3.425781 5.121094 4.289062 5.121094 L 6.433594 5.121094 C 6.433594 5.617188 6.863281 5.96875 6.863281 5.96875 C 6.863281 5.96875 6.433594 6.207031 6.433594 6.832031 L 4.289062 6.832031 C 3.425781 6.832031 3.425781 7.265625 3.425781 7.695312 C 3.425781 8.59375 3.425781 9.40625 3.425781 9.40625 C 3.425781 9.808594 3.824219 10.257812 4.289062 10.257812 C 4.753906 10.257812 6.433594 10.257812 6.433594 10.257812 L 6.433594 11.96875 L 5.136719 11.96875 C 5.136719 12.671875 5.601562 13.230469 6.433594 13.695312 C 6.433594 14.222656 6.433594 23.121094 6.433594 23.121094 C 6.433594 24.238281 9.007812 24.335938 9.007812 23.121094 L 9.007812 10.257812 L 15.007812 10.257812 L 15.007812 23.121094 C 15.007812 24.304688 17.566406 24.222656 17.566406 23.121094 C 17.566406 23.121094 17.566406 14.222656 17.566406 13.695312 C 18.398438 13.152344 18.863281 12.671875 18.863281 11.96875 L 17.566406 11.96875 L 17.566406 10.257812 C 17.566406 10.257812 19.246094 10.257812 19.710938 10.257812 C 20.097656 10.257812 20.574219 9.808594 20.574219 9.40625 C 20.574219 9.40625 20.574219 8.542969 20.574219 7.695312 C 20.574219 6.832031 20.097656 6.832031 19.710938 6.832031 L 17.566406 6.832031 C 17.617188 6.382812 17.136719 5.96875 17.136719 5.96875 C 17.136719 5.96875 17.566406 5.617188 17.566406 5.121094 L 19.710938 5.121094 C 20.574219 5.121094 20.574219 4.257812 20.574219 4.257812 C 20.574219 3.855469 21.566406 4.015625 22.289062 3.40625 C 23.007812 2.785156 24 1.710938 24 0 C 13.710938 1.710938 8.574219 1.710938 0 0 Z M 9.007812 5.121094 C 9.007812 5.121094 10.71875 5.121094 10.71875 5.121094 L 10.71875 6.832031 L 9.007812 6.832031 C 9.007812 6.335938 8.574219 5.96875 8.574219 5.96875 C 8.574219 5.96875 9.007812 5.648438 9.007812 5.121094 Z M 13.28125 5.121094 L 15.007812 5.121094 C 15.007812 5.566406 15.425781 5.96875 15.425781 5.96875 C 15.425781 5.96875 15.007812 6.382812 15.007812 6.832031 L 13.28125 6.832031 Z M 13.28125 5.121094 "/>
</svg>
