<?xml version="1.0" encoding="UTF-8"?>
<svg xmlns="http://www.w3.org/2000/svg" xmlns:xlink="http://www.w3.org/1999/xlink" width="24" height="24" viewBox="0 0 24 24">
<path fill-rule="nonzero" fill="rgb(0%, 0%, 0%)" fill-opacity="1" d="M 12.277344 4.292969 C 13.382812 4.371094 14.347656 3.585938 14.433594 2.539062 C 14.519531 1.488281 13.699219 0.566406 12.59375 0.484375 C 11.492188 0.402344 10.527344 1.1875 10.441406 2.238281 C 10.355469 3.289062 11.179688 4.203125 12.277344 4.285156 Z M 20.539062 19.679688 L 19.871094 13.921875 L 18.792969 13.921875 C 18.800781 13.441406 18.800781 13.386719 18.769531 13.09375 C 18.734375 12.796875 18.644531 12.582031 18.488281 12.507812 C 18.613281 12.375 18.699219 12.203125 18.714844 12.007812 C 18.738281 11.707031 18.601562 11.425781 18.359375 11.257812 L 15.609375 9.445312 L 13.585938 5.628906 C 13.246094 5.132812 12.679688 4.726562 11.996094 4.671875 C 11.46875 4.632812 10.980469 4.808594 10.59375 5.070312 L 6.574219 8.179688 C 6.441406 8.285156 6.34375 8.425781 6.296875 8.597656 L 5.363281 12.363281 L 5.289062 12.476562 L 5.28125 12.476562 C 5.121094 12.476562 4.980469 12.625 4.925781 12.824219 C 4.871094 13.023438 4.808594 13.277344 4.808594 13.484375 L 4.808594 13.914062 L 3.769531 13.914062 L 3.101562 19.675781 L 5.792969 19.675781 L 4.613281 21.566406 C 4.535156 21.714844 4.445312 21.921875 4.429688 22.117188 C 4.371094 22.832031 4.929688 23.457031 5.671875 23.511719 C 6.207031 23.542969 6.667969 23.289062 6.945312 22.875 L 8.9375 19.675781 L 9.195312 19.675781 L 9.160156 19.320312 L 9.710938 18.433594 C 9.773438 18.3125 9.960938 18.023438 9.984375 17.886719 L 10.660156 14.953125 L 13.539062 17.960938 L 14.441406 22.488281 C 14.585938 23.027344 15.046875 23.46875 15.664062 23.511719 C 16.410156 23.566406 17.0625 23.039062 17.121094 22.324219 L 17.113281 22.0625 L 16.640625 19.675781 L 20.542969 19.675781 Z M 5.261719 13.433594 C 5.289062 13.210938 5.371094 13.078125 5.523438 13.078125 L 5.582031 13.078125 C 5.734375 13.261719 5.957031 13.386719 6.214844 13.410156 C 6.511719 13.433594 6.78125 13.304688 6.960938 13.109375 C 7 13.140625 7.03125 13.195312 7.054688 13.265625 C 7.09375 13.40625 7.117188 13.566406 7.117188 13.695312 C 7.117188 13.769531 7.113281 13.929688 7.109375 13.929688 L 5.246094 13.929688 C 5.242188 13.929688 5.242188 13.621094 5.261719 13.445312 Z M 8.011719 13.921875 L 7.445312 13.921875 C 7.460938 13.441406 7.453125 13.386719 7.421875 13.09375 C 7.390625 12.84375 7.324219 12.652344 7.210938 12.550781 L 7.921875 9.460938 L 9.320312 8.375 Z M 18.457031 13.921875 L 16.59375 13.921875 C 16.585938 13.921875 16.589844 13.613281 16.609375 13.433594 C 16.632812 13.210938 16.71875 13.078125 16.871094 13.078125 C 17.089844 13.078125 17.285156 13.074219 17.457031 13.070312 C 17.628906 13.066406 17.871094 13.054688 18.167969 13.054688 C 18.28125 13.054688 18.359375 13.125 18.402344 13.261719 C 18.445312 13.402344 18.464844 13.558594 18.464844 13.691406 L 18.457031 13.925781 Z M 12.433594 12.824219 L 13.335938 9.015625 L 14.09375 10.445312 C 14.15625 10.546875 14.222656 10.621094 14.320312 10.699219 L 17.03125 12.476562 L 16.621094 12.476562 C 16.464844 12.476562 16.40625 12.625 16.355469 12.824219 C 16.300781 13.023438 16.324219 13.277344 16.324219 13.484375 L 16.324219 13.914062 L 15.109375 13.914062 L 14.914062 15.609375 L 12.4375 12.820312 Z M 12.433594 12.824219 "/>
</svg>
