<?xml version="1.0" encoding="UTF-8"?>
<svg xmlns="http://www.w3.org/2000/svg" xmlns:xlink="http://www.w3.org/1999/xlink" width="24" height="24" viewBox="0 0 24 24">
<path fill-rule="nonzero" fill="rgb(0%, 0%, 0%)" fill-opacity="1" d="M 20 20.800781 L 3.199219 20.800781 C 1.441406 20.800781 0 19.359375 0 17.601562 C 0 15.839844 1.441406 14.398438 3.199219 14.398438 C 3.214844 14.398438 3.246094 14.398438 3.265625 14.398438 C 3.214844 14.144531 3.199219 13.871094 3.199219 13.601562 C 3.199219 11.390625 4.640625 9.601562 6.398438 9.601562 C 6.992188 9.601562 7.550781 9.808594 8.03125 10.160156 C 8.015625 9.96875 8 9.792969 8 9.601562 C 8 6.945312 9.792969 4.800781 12 4.800781 C 13.886719 4.800781 15.472656 6.367188 15.886719 8.496094 C 16.382812 8.175781 16.976562 8 17.601562 8 C 19.359375 8 20.800781 9.441406 20.800781 11.199219 C 20.800781 11.792969 20.640625 12.335938 20.367188 12.816406 C 22.398438 12.992188 24 14.71875 24 16.800781 C 24 19.007812 22.207031 20.800781 20 20.800781 Z M 20 20.800781 "/>
</svg>
