<?xml version="1.0" encoding="UTF-8"?>
<svg xmlns="http://www.w3.org/2000/svg" xmlns:xlink="http://www.w3.org/1999/xlink" width="24" height="24" viewBox="0 0 24 24">
<path fill-rule="nonzero" fill="rgb(0%, 0%, 0%)" fill-opacity="1" d="M 4 6.398438 C 5.328125 6.398438 6.398438 7.472656 6.398438 8.800781 C 6.398438 10.128906 5.328125 11.199219 4 11.199219 C 2.671875 11.199219 1.601562 10.128906 1.601562 8.800781 C 1.601562 7.472656 2.671875 6.398438 4 6.398438 Z M 4 6.398438 "/>
<path fill-rule="nonzero" fill="rgb(0%, 0%, 0%)" fill-opacity="1" d="M 18.398438 1.601562 C 19.726562 1.601562 20.800781 2.671875 20.800781 4 C 20.800781 5.328125 19.726562 6.398438 18.398438 6.398438 C 17.070312 6.398438 16 5.328125 16 4 C 16 2.671875 17.070312 1.601562 18.398438 1.601562 Z M 18.398438 1.601562 "/>
<path fill-rule="nonzero" fill="rgb(0%, 0%, 0%)" fill-opacity="1" d="M 11.199219 14.398438 L 11.199219 9.601562 L 9.359375 9.601562 L 7.167969 14.398438 Z M 12.800781 14.398438 L 16.832031 14.398438 L 14.640625 9.601562 L 12.800781 9.601562 Z M 12.800781 8 L 13.921875 8 L 12 3.792969 L 10.078125 8 Z M 11.199219 20.800781 L 11.199219 16 L 6.433594 16 L 4.257812 20.800781 Z M 12.800781 20.800781 L 19.742188 20.800781 L 17.566406 16 L 12.800781 16 Z M 3.519531 22.398438 L 1.601562 22.398438 L 12 0 L 22.398438 22.398438 Z M 3.519531 22.398438 "/>
</svg>
