<?xml version="1.0" encoding="UTF-8"?>
<svg xmlns="http://www.w3.org/2000/svg" xmlns:xlink="http://www.w3.org/1999/xlink" width="24" height="24" viewBox="0 0 24 24">
<path fill-rule="nonzero" fill="rgb(0%, 0%, 0%)" fill-opacity="1" d="M 3.199219 4.800781 L 5.601562 4.800781 C 6.046875 4.800781 6.398438 5.152344 6.398438 5.601562 C 6.398438 6.046875 6.046875 6.398438 5.601562 6.398438 L 3.199219 6.398438 Z M 3.199219 3.199219 L 3.199219 9.601562 L 8 9.601562 L 8 3.199219 Z M 3.199219 1.601562 L 8 1.601562 C 8.878906 1.601562 9.601562 2.320312 9.601562 3.199219 L 9.601562 9.601562 C 9.601562 10.480469 8.878906 11.199219 8 11.199219 L 3.199219 11.199219 C 2.320312 11.199219 1.601562 10.480469 1.601562 9.601562 L 1.601562 3.199219 C 1.601562 2.320312 2.320312 1.601562 3.199219 1.601562 Z M 4.800781 12 L 6.398438 12 L 6.398438 22.398438 L 4.800781 22.398438 Z M 20.800781 12.800781 C 21.679688 12.800781 22.398438 13.519531 22.398438 14.398438 L 22.398438 19.199219 L 20.800781 19.199219 L 20.800781 20.800781 C 20.800781 21.679688 20.078125 22.398438 19.199219 22.398438 C 18.320312 22.398438 17.601562 21.679688 17.601562 20.800781 L 17.601562 19.199219 L 12.800781 19.199219 L 12.800781 20.800781 C 12.800781 21.679688 12.078125 22.398438 11.199219 22.398438 C 10.320312 22.398438 9.601562 21.679688 9.601562 20.800781 L 9.601562 19.199219 L 8 19.199219 L 8 14.398438 C 8 13.519531 8.71875 12.800781 9.601562 12.800781 L 11.023438 8.542969 C 11.136719 8.222656 11.441406 8 11.777344 8 L 18.625 8 C 18.960938 8 19.265625 8.222656 19.375 8.542969 Z M 11.199219 17.601562 C 12.078125 17.601562 12.800781 16.878906 12.800781 16 C 12.800781 15.121094 12.078125 14.398438 11.199219 14.398438 C 10.320312 14.398438 9.601562 15.121094 9.601562 16 C 9.601562 16.878906 10.320312 17.601562 11.199219 17.601562 Z M 11.199219 12.800781 L 19.199219 12.800781 L 18.207031 9.601562 L 12.191406 9.601562 Z M 19.199219 17.601562 C 20.078125 17.601562 20.800781 16.878906 20.800781 16 C 20.800781 15.121094 20.078125 14.398438 19.199219 14.398438 C 18.320312 14.398438 17.601562 15.121094 17.601562 16 C 17.601562 16.878906 18.320312 17.601562 19.199219 17.601562 Z M 19.199219 17.601562 "/>
</svg>
