<?xml version="1.0" encoding="UTF-8"?>
<svg xmlns="http://www.w3.org/2000/svg" xmlns:xlink="http://www.w3.org/1999/xlink" width="24" height="24" viewBox="0 0 24 24">
<path fill-rule="nonzero" fill="rgb(0%, 0%, 0%)" fill-opacity="1" d="M 11.96875 0 L 10.238281 1.710938 C 10.351562 2.464844 10.367188 3.039062 10.449219 3.695312 C 8.335938 4.351562 6.753906 6.273438 6.753906 8.574219 C 6.753906 10.894531 8.351562 12.816406 10.511719 13.441406 C 10.414062 14.097656 10.351562 14.703125 10.238281 15.425781 L 11.105469 16.289062 L 11.105469 16.976562 C 9.503906 15.921875 7.808594 14.734375 6.753906 13.710938 C 3.230469 10.289062 4.160156 4.289062 8.496094 1.710938 C 5.039062 2.574219 1.601562 5.679688 1.601562 10.289062 C 1.601562 15.425781 6.753906 17.136719 6.753906 18.863281 L 8.496094 17.136719 L 10.71875 18.367188 C 9.664062 19.023438 8.496094 19.710938 8.496094 19.710938 L 9.359375 20.574219 L 11.214844 19.550781 L 11.214844 20.785156 C 10.65625 21.070312 10.238281 21.617188 10.238281 22.289062 C 10.238281 23.230469 11.007812 24 11.96875 24 C 12.929688 24 13.710938 23.230469 13.710938 22.289062 C 13.710938 21.617188 13.359375 21.070312 12.785156 20.785156 L 12.785156 19.550781 L 14.574219 20.574219 L 15.441406 19.710938 C 15.441406 19.710938 14.222656 18.960938 13.28125 18.367188 L 15.441406 17.136719 L 17.183594 18.863281 C 17.183594 17.136719 22.398438 15.425781 22.398438 10.289062 C 22.398438 5.679688 18.929688 2.574219 15.441406 1.710938 C 19.792969 4.289062 20.71875 10.289062 17.183594 13.710938 C 16.113281 14.753906 14.464844 15.96875 12.847656 17.039062 L 12.847656 16.289062 L 13.710938 15.425781 C 13.585938 14.71875 13.519531 14.097656 13.441406 13.441406 C 15.585938 12.816406 17.183594 10.894531 17.183594 8.574219 C 17.183594 6.238281 15.585938 4.335938 13.441406 3.695312 C 13.519531 3.039062 13.585938 2.433594 13.710938 1.710938 Z M 13.214844 5.359375 C 14.527344 5.855469 15.441406 7.105469 15.441406 8.574219 C 15.441406 10.03125 14.527344 11.296875 13.214844 11.792969 C 13.007812 9.585938 13.007812 7.566406 13.214844 5.359375 Z M 10.609375 5.40625 C 10.625 5.40625 10.65625 5.425781 10.671875 5.40625 C 10.910156 7.792969 10.929688 9.664062 10.71875 11.792969 C 9.425781 11.296875 8.496094 10.03125 8.496094 8.574219 C 8.496094 7.152344 9.375 5.9375 10.609375 5.40625 Z M 7.632812 20.574219 C 7.152344 20.574219 6.753906 20.960938 6.753906 21.425781 C 6.753906 21.902344 7.152344 22.289062 7.632812 22.289062 C 8.113281 22.289062 8.496094 21.902344 8.496094 21.425781 C 8.496094 20.960938 8.113281 20.574219 7.632812 20.574219 Z M 16.320312 20.574219 C 15.839844 20.574219 15.441406 20.960938 15.441406 21.425781 C 15.441406 21.902344 15.839844 22.289062 16.320312 22.289062 C 16.800781 22.289062 17.183594 21.902344 17.183594 21.425781 C 17.183594 20.960938 16.800781 20.574219 16.320312 20.574219 Z M 16.320312 20.574219 "/>
</svg>
