<?xml version="1.0" encoding="UTF-8"?>
<svg xmlns="http://www.w3.org/2000/svg" xmlns:xlink="http://www.w3.org/1999/xlink" width="24" height="24" viewBox="0 0 24 24">
<path fill-rule="nonzero" fill="rgb(0%, 0%, 0%)" fill-opacity="1" d="M 20.625 16.070312 C 21.835938 16.070312 22.8125 15.054688 22.8125 13.796875 C 22.8125 12.546875 21.832031 11.535156 20.625 11.535156 C 19.410156 11.535156 18.433594 12.546875 18.433594 13.796875 C 18.433594 15.054688 19.410156 16.070312 20.625 16.070312 Z M 22.304688 21.144531 C 22.40625 21.175781 22.449219 21.195312 22.558594 21.195312 C 23.121094 21.195312 23.546875 20.726562 23.546875 20.144531 C 23.546875 19.707031 23.269531 19.328125 22.902344 19.175781 L 19.863281 17.953125 L 17.648438 13.890625 C 17.648438 13.890625 17.46875 13.445312 16.828125 13.199219 L 9.589844 10.199219 L 5.289062 2.65625 C 5.039062 2.222656 4.578125 1.925781 4.054688 1.925781 C 3.257812 1.925781 2.617188 2.597656 2.617188 3.421875 C 2.617188 3.6875 2.683594 3.929688 2.796875 4.148438 L 8.140625 13.523438 L 4.757812 12.125 L 3.90625 12.695312 L 17.433594 18.25 L 17.429688 18.25 L 17.984375 19.117188 C 17.984375 19.117188 18.207031 19.585938 18.859375 19.851562 L 20.539062 20.519531 C 19.445312 21.652344 17.914062 21.160156 17.914062 21.160156 L 1.398438 14.285156 L 0.484375 14.847656 L 17.847656 21.90625 C 19.851562 22.664062 21.605469 20.851562 21.605469 20.851562 L 21.605469 20.855469 L 22.316406 21.160156 Z M 22.304688 21.144531 "/>
</svg>
