<?xml version="1.0" encoding="UTF-8"?>
<svg xmlns="http://www.w3.org/2000/svg" xmlns:xlink="http://www.w3.org/1999/xlink" width="24" height="24" viewBox="0 0 24 24">
<path fill-rule="nonzero" fill="rgb(0%, 0%, 0%)" fill-opacity="1" d="M 22.742188 10.453125 L 17.546875 5.753906 C 17.375 5.59375 17.175781 5.457031 16.949219 5.355469 L 12.902344 3.941406 L 11.0625 1.316406 C 10.925781 1.128906 10.703125 0.992188 10.449219 0.964844 C 9.964844 0.910156 9.53125 1.253906 9.46875 1.734375 C 9.453125 1.933594 9.5 2.132812 9.601562 2.289062 L 11.476562 4.964844 C 11.5625 5.074219 11.671875 5.160156 11.804688 5.222656 L 13.980469 6.066406 L 10.402344 7.867188 C 9.90625 8.152344 9.546875 8.640625 9.453125 9.214844 L 9.476562 12.433594 L 6.171875 13.902344 C 5.796875 14.074219 5.53125 14.441406 5.515625 14.875 C 5.503906 15.128906 5.582031 15.371094 5.722656 15.566406 L 3.941406 14.898438 C 3.605469 14.773438 3.34375 14.503906 3.230469 14.164062 C 3.027344 13.566406 2.367188 13.246094 1.761719 13.449219 C 1.15625 13.652344 0.832031 14.300781 1.03125 14.894531 C 1.367188 15.882812 2.132812 16.660156 3.113281 17.03125 L 18.59375 22.820312 C 19.585938 23.195312 20.679688 23.105469 21.585938 22.59375 C 22.140625 22.28125 22.328125 21.585938 22.019531 21.039062 C 21.695312 20.492188 20.992188 20.304688 20.433594 20.617188 C 20.132812 20.789062 19.753906 20.816406 19.414062 20.6875 L 15.574219 19.253906 C 15.972656 19.117188 16.277344 18.773438 16.335938 18.34375 L 16.945312 13.46875 C 16.964844 13.132812 16.824219 12.820312 16.589844 12.609375 L 13.988281 10.339844 L 17.902344 8.4375 L 21.542969 11.734375 C 21.707031 11.890625 21.925781 11.992188 22.167969 11.992188 C 22.65625 11.984375 23.050781 11.59375 23.042969 11.113281 C 23.042969 10.851562 22.925781 10.621094 22.746094 10.46875 Z M 14.578125 13.832031 L 14.058594 18.058594 L 14.054688 18.128906 C 14.042969 18.351562 14.101562 18.550781 14.203125 18.730469 L 6.910156 16 C 6.992188 15.980469 7.074219 15.949219 7.152344 15.917969 L 11.203125 14.117188 C 11.492188 13.964844 11.707031 13.691406 11.777344 13.363281 L 11.769531 11.363281 L 14.582031 13.828125 Z M 14.578125 13.832031 "/>
<path fill-rule="nonzero" fill="rgb(0%, 0%, 0%)" fill-opacity="1" d="M 16.644531 3.625 C 16.644531 4.625 17.472656 5.4375 18.488281 5.4375 C 19.507812 5.4375 20.332031 4.625 20.332031 3.625 C 20.332031 2.621094 19.507812 1.808594 18.488281 1.808594 C 17.472656 1.808594 16.644531 2.621094 16.644531 3.625 Z M 16.644531 3.625 "/>
</svg>
