<?xml version="1.0" encoding="UTF-8"?>
<svg xmlns="http://www.w3.org/2000/svg" xmlns:xlink="http://www.w3.org/1999/xlink" width="24" height="24" viewBox="0 0 24 24">
<path fill-rule="nonzero" fill="rgb(0%, 0%, 0%)" fill-opacity="1" d="M 11.039062 22.890625 L 11.039062 19.847656 L 9.425781 20.804688 L 8.640625 20.308594 L 8.640625 19.238281 L 11.039062 17.804688 L 11.039062 15.800781 L 9.121094 16.976562 L 9.121094 14.855469 L 7.199219 15.859375 L 7.199219 18.734375 L 6.40625 19.324219 L 5.761719 18.792969 L 5.761719 16.867188 L 3.085938 18.363281 L 1.921875 17.886719 L 1.921875 16.671875 L 4.652344 15.148438 L 2.886719 14.273438 L 2.886719 13.160156 L 3.902344 12.621094 L 6.402344 14.09375 L 8.136719 13.09375 L 8.097656 13.066406 L 6.339844 12.046875 L 8.054688 10.976562 L 6.335938 9.980469 L 3.835938 11.441406 L 2.886719 10.976562 L 2.886719 9.867188 L 4.585938 8.917969 L 1.925781 7.453125 L 1.925781 6.238281 L 3.039062 5.707031 L 5.765625 7.242188 L 5.765625 5.285156 L 6.480469 4.742188 L 7.410156 5.308594 L 7.382812 8.242188 L 9.144531 9.257812 L 9.160156 7.191406 L 11.039062 8.199219 L 11.039062 6.195312 L 8.640625 4.761719 L 8.640625 3.699219 L 9.425781 3.195312 L 11.039062 4.152344 L 11.039062 1.113281 L 11.996094 0.480469 L 12.960938 1.113281 L 12.960938 4.152344 L 14.835938 3.175781 L 15.839844 3.761719 L 15.839844 4.71875 L 12.960938 6.195312 L 12.960938 8.199219 L 14.878906 7.109375 L 14.878906 9.28125 L 16.800781 8.285156 L 16.800781 5.15625 L 17.5 4.738281 L 18.246094 5.15625 L 18.246094 7.15625 L 21.046875 5.679688 L 22.085938 6.265625 L 22.085938 7.398438 L 19.449219 8.917969 L 21.128906 9.855469 L 21.128906 10.933594 L 20.25 11.414062 L 17.691406 9.898438 L 15.925781 11.027344 L 17.628906 12.097656 L 15.875 13.113281 L 17.683594 14.070312 L 20.269531 12.632812 L 21.128906 13.21875 L 21.128906 14.25 L 19.535156 15.160156 L 22.089844 16.679688 L 22.089844 17.875 L 20.878906 18.375 L 18.25 16.9375 L 18.25 18.839844 L 17.519531 19.34375 L 16.808594 18.839844 L 16.808594 15.960938 L 14.890625 14.898438 L 14.890625 16.902344 L 12.96875 15.8125 L 12.96875 17.8125 L 15.371094 19.246094 L 15.371094 20.378906 L 14.578125 20.8125 L 12.96875 19.859375 L 12.96875 22.902344 L 12.003906 23.53125 L 11.050781 22.902344 Z M 10.335938 12.042969 L 11.242188 13.441406 L 12.925781 13.441406 L 13.699219 12.042969 L 12.882812 10.558594 L 11.199219 10.558594 L 10.339844 12.042969 Z M 10.335938 12.042969 "/>
</svg>
