<?xml version="1.0" encoding="UTF-8"?>
<svg xmlns="http://www.w3.org/2000/svg" xmlns:xlink="http://www.w3.org/1999/xlink" width="24" height="24" viewBox="0 0 24 24">
<path fill-rule="nonzero" fill="rgb(0%, 0%, 0%)" fill-opacity="1" d="M 22.671875 19.679688 L 14.878906 19.679688 L 14.878906 21.601562 L 22.753906 21.601562 C 23.398438 21.601562 23.519531 21.039062 23.519531 21.039062 L 23.519531 20.574219 C 23.519531 20.574219 23.515625 19.683594 22.671875 19.683594 Z M 21.59375 19.300781 C 22.65625 19.300781 23.519531 18.4375 23.519531 17.371094 C 23.519531 16.300781 22.65625 15.441406 21.59375 15.441406 C 20.535156 15.441406 19.671875 16.304688 19.671875 17.371094 C 19.671875 18.4375 20.535156 19.300781 21.59375 19.300781 Z M 17.539062 19.199219 C 18.550781 19.199219 19.363281 18.488281 19.363281 17.476562 C 19.363281 16.46875 18.546875 15.941406 17.542969 15.929688 L 14.886719 16.265625 L 14.886719 19.195312 L 17.539062 19.195312 Z M 8.894531 6.6875 C 10.074219 6.6875 11.03125 5.726562 11.03125 4.539062 C 11.03125 3.355469 10.074219 2.394531 8.894531 2.394531 C 7.714844 2.394531 6.757812 3.355469 6.757812 4.539062 C 6.757812 5.726562 7.714844 6.6875 8.894531 6.6875 Z M 6.714844 13.628906 L 6.695312 13.597656 L 5.726562 11.347656 L 5.726562 15.839844 L 8.621094 15.839844 L 9.253906 15.167969 L 7.539062 14.511719 C 7.132812 14.355469 6.84375 14.011719 6.71875 13.628906 Z M 7.328125 13.425781 C 7.425781 13.636719 7.597656 13.804688 7.8125 13.886719 L 11.117188 15.109375 C 11.539062 15.296875 12.035156 15.105469 12.214844 14.679688 C 12.402344 14.25 12.210938 13.757812 11.785156 13.570312 L 8.742188 12.417969 L 7.800781 10.160156 L 8.414062 9.929688 L 9.210938 11.867188 L 11.523438 12.726562 L 11.523438 10.363281 L 12.753906 11.09375 L 13.367188 14.179688 C 13.515625 14.621094 13.992188 14.851562 14.433594 14.699219 C 14.871094 14.546875 15.101562 14.070312 14.953125 13.628906 L 14.265625 10.65625 C 14.222656 10.488281 14.125 10.34375 13.996094 10.234375 C 13.644531 9.84375 11.867188 7.851562 11.742188 7.722656 C 11.554688 7.535156 11.132812 7.199219 10.328125 7.199219 L 7.449219 7.199219 C 5.8125 7.199219 5.496094 8.871094 5.832031 9.71875 L 7.339844 13.425781 Z M 14.40625 16.320312 L 1.429688 16.320312 C 0.960938 16.320312 0.484375 16.589844 0.484375 17.175781 L 0.484375 21.601562 L 14.40625 21.601562 Z M 14.40625 16.320312 "/>
</svg>
