<?xml version="1.0" encoding="UTF-8"?>
<svg xmlns="http://www.w3.org/2000/svg" xmlns:xlink="http://www.w3.org/1999/xlink" width="24" height="24" viewBox="0 0 24 24">
<path fill-rule="nonzero" fill="rgb(0%, 0%, 0%)" fill-opacity="1" d="M 8 1.601562 L 16 1.601562 C 16.800781 1.601562 17.601562 2.398438 17.601562 3.199219 L 17.601562 20.800781 C 17.601562 21.601562 16.800781 22.398438 16 22.398438 L 8 22.398438 C 7.199219 22.398438 6.398438 21.601562 6.398438 20.800781 L 6.398438 3.199219 C 6.398438 2.398438 7.199219 1.601562 8 1.601562 Z M 12 4 C 10.238281 4 8.800781 5.441406 8.800781 7.199219 C 8.800781 8.976562 10.238281 10.398438 12 10.398438 C 13.777344 10.398438 15.199219 8.976562 15.199219 7.199219 C 15.199219 5.441406 13.777344 4 12 4 Z M 12 5.601562 C 12.878906 5.601562 13.601562 6.320312 13.601562 7.199219 C 13.601562 8.078125 12.878906 8.800781 12 8.800781 C 11.121094 8.800781 10.398438 8.078125 10.398438 7.199219 C 10.398438 6.320312 11.121094 5.601562 12 5.601562 Z M 12 12.800781 C 9.792969 12.800781 8 14.59375 8 16.800781 C 8 19.007812 9.792969 20.800781 12 20.800781 C 14.207031 20.800781 16 19.007812 16 16.800781 C 16 14.59375 14.207031 12.800781 12 12.800781 Z M 12 14.398438 C 13.328125 14.398438 14.398438 15.472656 14.398438 16.800781 C 14.398438 18.128906 13.328125 19.199219 12 19.199219 C 10.671875 19.199219 9.601562 18.128906 9.601562 16.800781 C 9.601562 15.472656 10.671875 14.398438 12 14.398438 Z M 12 14.398438 "/>
</svg>
