<?xml version="1.0" encoding="UTF-8"?>
<svg xmlns="http://www.w3.org/2000/svg" xmlns:xlink="http://www.w3.org/1999/xlink" width="24" height="24" viewBox="0 0 24 24">
<path fill-rule="nonzero" fill="rgb(0%, 0%, 0%)" fill-opacity="1" d="M 14.398438 16 L 14.398438 16.800781 C 14.398438 20.785156 11.183594 24 7.199219 24 C 3.214844 24 0 20.785156 0 16.800781 C 0 12.816406 3.214844 9.601562 7.199219 9.601562 L 14.398438 9.601562 L 14.398438 8 L 12.800781 8 L 12.800781 7.199219 C 12.800781 6.976562 12.816406 6.753906 12.847656 6.527344 C 12.929688 6.097656 12.640625 5.679688 12.191406 5.617188 C 11.761719 5.535156 11.34375 5.839844 11.28125 6.273438 C 11.230469 6.574219 11.199219 6.878906 11.199219 7.199219 L 11.199219 8 L 9.601562 8 L 9.601562 7.199219 C 9.601562 3.214844 12.816406 0 16.800781 0 C 20.785156 0 24 3.214844 24 7.199219 C 24 11.183594 20.785156 14.398438 16.800781 14.398438 L 9.601562 14.398438 L 9.601562 16 L 11.199219 16 L 11.199219 16.863281 C 11.199219 17.105469 11.167969 17.34375 11.121094 17.585938 C 11.039062 18.015625 11.3125 18.449219 11.742188 18.527344 C 12.191406 18.609375 12.609375 18.335938 12.6875 17.902344 C 12.753906 17.566406 12.800781 17.214844 12.800781 16.878906 L 12.800781 16 Z M 9.601562 14.398438 L 7.199219 14.398438 C 5.871094 14.398438 4.800781 15.472656 4.800781 16.800781 C 4.800781 18.128906 5.871094 19.199219 7.199219 19.199219 C 8.527344 19.199219 9.601562 18.128906 9.601562 16.800781 Z M 14.398438 9.601562 L 16.800781 9.601562 C 18.128906 9.601562 19.199219 8.527344 19.199219 7.199219 C 19.199219 5.871094 18.128906 4.800781 16.800781 4.800781 C 15.472656 4.800781 14.398438 5.871094 14.398438 7.199219 Z M 14.976562 3.632812 C 15.503906 3.359375 16.097656 3.214844 16.703125 3.199219 C 16.863281 3.199219 16.929688 3.199219 17.007812 3.199219 C 17.457031 3.230469 17.824219 2.894531 17.855469 2.449219 C 17.871094 2 17.535156 1.632812 17.089844 1.601562 C 16.976562 1.601562 16.878906 1.601562 16.6875 1.601562 C 15.824219 1.617188 14.992188 1.839844 14.238281 2.222656 C 13.855469 2.414062 13.695312 2.894531 13.902344 3.296875 C 14.097656 3.679688 14.574219 3.839844 14.976562 3.632812 Z M 20.191406 5.070312 C 20.542969 5.648438 20.753906 6.304688 20.800781 6.992188 C 20.816406 7.425781 21.199219 7.761719 21.632812 7.742188 C 22.078125 7.710938 22.414062 7.34375 22.398438 6.894531 C 22.335938 5.9375 22.046875 5.023438 21.550781 4.222656 C 21.3125 3.855469 20.816406 3.742188 20.449219 3.984375 C 20.0625 4.207031 19.953125 4.703125 20.191406 5.070312 Z M 19.34375 10.289062 C 18.816406 10.71875 18.191406 11.007812 17.519531 11.136719 C 17.089844 11.214844 16.800781 11.632812 16.878906 12.0625 C 16.960938 12.496094 17.375 12.785156 17.808594 12.703125 C 18.753906 12.542969 19.617188 12.128906 20.351562 11.535156 C 20.6875 11.246094 20.734375 10.753906 20.464844 10.398438 C 20.175781 10.0625 19.679688 10.015625 19.34375 10.289062 Z M 13.246094 11.199219 L 10.847656 11.199219 C 10.398438 11.199219 10.046875 11.550781 10.046875 12 C 10.046875 12.449219 10.398438 12.800781 10.847656 12.800781 L 13.246094 12.800781 C 13.679688 12.800781 14.046875 12.449219 14.046875 12 C 14.046875 11.550781 13.679688 11.199219 13.246094 11.199219 Z M 6.320312 11.265625 C 5.375 11.425781 4.496094 11.808594 3.742188 12.382812 C 3.40625 12.65625 3.34375 13.167969 3.617188 13.503906 C 3.886719 13.855469 4.382812 13.921875 4.734375 13.648438 C 5.265625 13.230469 5.902344 12.960938 6.574219 12.847656 C 7.007812 12.785156 7.3125 12.367188 7.230469 11.9375 C 7.167969 11.503906 6.753906 11.199219 6.320312 11.265625 Z M 1.601562 17.039062 C 1.648438 18 1.9375 18.910156 2.414062 19.726562 C 2.65625 20.097656 3.152344 20.222656 3.519531 19.984375 C 3.902344 19.761719 4.015625 19.265625 3.792969 18.878906 C 3.441406 18.320312 3.230469 17.664062 3.199219 16.976562 C 3.183594 16.527344 2.816406 16.191406 2.367188 16.207031 C 1.9375 16.222656 1.585938 16.609375 1.601562 17.039062 Z M 6.785156 22.382812 C 6.910156 22.398438 7.039062 22.398438 7.167969 22.398438 C 8.015625 22.398438 8.816406 22.222656 9.550781 21.886719 C 9.953125 21.695312 10.128906 21.214844 9.9375 20.816406 C 9.761719 20.414062 9.28125 20.238281 8.878906 20.433594 C 8.351562 20.671875 7.792969 20.800781 7.167969 20.800781 C 7.089844 20.800781 6.992188 20.800781 6.894531 20.785156 C 6.449219 20.753906 6.0625 21.089844 6.03125 21.519531 C 6 21.96875 6.335938 22.351562 6.785156 22.382812 Z M 6.785156 22.382812 "/>
</svg>
