<?xml version="1.0" encoding="UTF-8"?>
<svg xmlns="http://www.w3.org/2000/svg" xmlns:xlink="http://www.w3.org/1999/xlink" width="24" height="24" viewBox="0 0 24 24">
<path fill-rule="nonzero" fill="rgb(0%, 0%, 0%)" fill-opacity="1" d="M 5.792969 13.695312 C 4.527344 14.945312 4.527344 16.976562 5.792969 18.222656 C 7.039062 19.472656 9.054688 19.472656 10.304688 18.222656 L 18.222656 10.304688 C 19.472656 9.054688 19.472656 7.023438 18.222656 5.777344 C 16.976562 4.527344 14.960938 4.527344 13.710938 5.777344 Z M 2.382812 10.304688 L 10.304688 2.382812 C 13.441406 -0.734375 18.496094 -0.734375 21.632812 2.382812 C 24.753906 5.503906 24.753906 10.574219 21.632812 13.695312 L 13.710938 21.617188 C 10.574219 24.734375 5.519531 24.734375 2.382812 21.617188 C -0.734375 18.496094 -0.734375 13.425781 2.382812 10.304688 Z M 4.65625 12.558594 L 6.351562 10.863281 C 6.65625 10.558594 6.65625 10.046875 6.351562 9.742188 C 6.03125 9.425781 5.535156 9.425781 5.214844 9.742188 L 3.519531 11.441406 C 3.214844 11.742188 3.214844 12.257812 3.519531 12.558594 C 3.839844 12.878906 4.335938 12.878906 4.65625 12.558594 Z M 9.121094 8.097656 L 10.816406 6.398438 C 11.136719 6.078125 11.136719 5.585938 10.816406 5.265625 C 10.511719 4.960938 10 4.960938 9.695312 5.265625 L 7.984375 6.960938 C 7.679688 7.28125 7.679688 7.792969 7.984375 8.097656 C 8.304688 8.414062 8.816406 8.414062 9.121094 8.097656 Z M 13.550781 3.886719 C 14.144531 3.535156 14.816406 3.328125 15.503906 3.265625 C 15.953125 3.214844 16.273438 2.832031 16.222656 2.382812 C 16.191406 1.953125 15.792969 1.632812 15.359375 1.664062 C 14.433594 1.761719 13.550781 2.046875 12.734375 2.511719 C 12.367188 2.734375 12.238281 3.214844 12.464844 3.601562 C 12.671875 3.984375 13.167969 4.113281 13.550781 3.886719 Z M 18.800781 4.160156 C 18.976562 4.289062 19.152344 4.449219 19.328125 4.609375 C 19.679688 4.960938 19.953125 5.328125 20.175781 5.726562 C 20.382812 6.128906 20.878906 6.273438 21.265625 6.046875 C 21.648438 5.839844 21.792969 5.359375 21.585938 4.960938 C 21.296875 4.433594 20.929688 3.9375 20.449219 3.472656 C 20.222656 3.246094 19.984375 3.054688 19.742188 2.863281 C 19.375 2.609375 18.878906 2.6875 18.625 3.039062 C 18.351562 3.390625 18.433594 3.902344 18.800781 4.160156 Z M 20.625 9.199219 C 20.464844 9.871094 20.160156 10.496094 19.710938 11.039062 C 19.441406 11.375 19.488281 11.886719 19.839844 12.160156 C 20.191406 12.433594 20.6875 12.382812 20.960938 12.03125 C 21.550781 11.3125 21.953125 10.480469 22.175781 9.585938 C 22.289062 9.152344 22.03125 8.71875 21.601562 8.609375 C 21.167969 8.496094 20.734375 8.769531 20.625 9.199219 Z M 17.054688 13.742188 L 15.359375 15.441406 C 15.054688 15.742188 15.054688 16.257812 15.359375 16.558594 C 15.679688 16.878906 16.175781 16.878906 16.496094 16.558594 L 18.191406 14.863281 C 18.496094 14.558594 18.496094 14.046875 18.191406 13.742188 C 17.871094 13.425781 17.375 13.425781 17.054688 13.742188 Z M 12.59375 18.207031 L 11.441406 19.359375 C 11.28125 19.519531 11.121094 19.664062 10.945312 19.792969 C 10.59375 20.0625 10.511719 20.558594 10.785156 20.910156 C 11.054688 21.265625 11.550781 21.328125 11.902344 21.070312 C 12.144531 20.894531 12.367188 20.6875 12.574219 20.480469 L 13.726562 19.34375 C 14.03125 19.023438 14.03125 18.511719 13.726562 18.207031 C 13.40625 17.886719 12.894531 17.886719 12.59375 18.207031 Z M 7.664062 20.753906 C 6.976562 20.6875 6.304688 20.480469 5.695312 20.144531 C 5.3125 19.9375 4.816406 20.0625 4.609375 20.449219 C 4.382812 20.832031 4.527344 21.328125 4.910156 21.535156 C 5.726562 22 6.625 22.273438 7.535156 22.335938 C 7.984375 22.367188 8.367188 22.046875 8.398438 21.601562 C 8.433594 21.167969 8.113281 20.785156 7.664062 20.753906 Z M 3.535156 17.585938 C 3.296875 16.929688 3.199219 16.238281 3.265625 15.550781 C 3.296875 15.105469 2.976562 14.71875 2.542969 14.6875 C 2.097656 14.640625 1.710938 14.976562 1.664062 15.40625 C 1.601562 16.335938 1.710938 17.265625 2.03125 18.128906 C 2.175781 18.542969 2.640625 18.753906 3.039062 18.609375 C 3.457031 18.464844 3.679688 18 3.535156 17.585938 Z M 3.535156 17.585938 "/>
</svg>
