<?xml version="1.0" encoding="UTF-8"?>
<svg xmlns="http://www.w3.org/2000/svg" xmlns:xlink="http://www.w3.org/1999/xlink" width="24" height="24" viewBox="0 0 24 24">
<path fill-rule="nonzero" fill="rgb(0%, 0%, 0%)" fill-opacity="1" d="M 9.601562 4.800781 L 9.601562 6 C 9.601562 7.007812 8.847656 7.855469 7.855469 7.984375 L 7.214844 15.007812 C 8.238281 13.921875 9.550781 12.832031 11.199219 11.726562 C 12.894531 10.609375 14.59375 9.921875 16.289062 9.695312 L 16.144531 7.984375 C 15.152344 7.855469 14.398438 7.007812 14.398438 6 L 14.398438 4.800781 Z M 8 4.800781 L 7.199219 4.800781 C 6.753906 4.800781 6.398438 4.449219 6.398438 4 L 6.398438 1.601562 C 6.398438 0.71875 7.121094 0 8 0 C 9.328125 0 10.671875 0 12 0 C 13.328125 0 14.671875 0 16 0 C 16.878906 0 17.601562 0.71875 17.601562 1.601562 L 17.601562 4 C 17.601562 4.449219 17.246094 4.800781 16.800781 4.800781 L 16 4.800781 L 16 6 C 16 6.222656 16.175781 6.398438 16.398438 6.398438 L 16.800781 6.398438 C 17.246094 6.398438 17.632812 6.753906 17.679688 7.199219 L 19.039062 22.257812 C 19.121094 23.136719 18.480469 23.921875 17.601562 24 C 17.550781 24 17.503906 24 17.441406 24 L 6.558594 24 C 5.664062 24 4.960938 23.28125 4.960938 22.398438 C 4.960938 22.351562 4.960938 22.304688 4.960938 22.257812 L 6.320312 7.199219 C 6.367188 6.753906 6.753906 6.398438 7.199219 6.398438 L 7.601562 6.398438 C 7.824219 6.398438 8 6.222656 8 6 Z M 8 4.800781 "/>
</svg>
