<?xml version="1.0" encoding="UTF-8"?>
<svg xmlns="http://www.w3.org/2000/svg" xmlns:xlink="http://www.w3.org/1999/xlink" width="24" height="24" viewBox="0 0 24 24">
<path fill-rule="nonzero" fill="rgb(0%, 0%, 0%)" fill-opacity="1" d="M 14.398438 14.398438 L 14.398438 18.398438 L 9.601562 18.398438 L 9.601562 14.398438 L 7.566406 14.398438 C 7.121094 14.398438 6.769531 14.046875 6.769531 13.601562 C 6.769531 13.503906 6.785156 13.40625 6.816406 13.3125 L 9.375 8.046875 C 9.519531 7.777344 9.792969 7.601562 10.097656 7.601562 L 13.902344 7.601562 C 14.207031 7.601562 14.480469 7.777344 14.625 8.046875 L 17.183594 13.3125 C 17.34375 13.726562 17.136719 14.191406 16.71875 14.351562 C 16.640625 14.382812 16.542969 14.398438 16.433594 14.398438 Z M 17.601562 19.199219 L 17.601562 20.800781 L 19.199219 20.800781 L 19.199219 22.398438 L 4.800781 22.398438 L 4.800781 20.800781 L 6.398438 20.800781 L 6.398438 19.199219 Z M 12 1.601562 C 13.328125 1.601562 14.398438 2.671875 14.398438 4 C 14.398438 5.328125 13.328125 6.398438 12 6.398438 C 10.671875 6.398438 9.601562 5.328125 9.601562 4 C 9.601562 2.671875 10.671875 1.601562 12 1.601562 Z M 12 1.601562 "/>
</svg>
