<?xml version="1.0" encoding="UTF-8"?>
<svg xmlns="http://www.w3.org/2000/svg" xmlns:xlink="http://www.w3.org/1999/xlink" width="24" height="24" viewBox="0 0 24 24">
<path fill-rule="nonzero" fill="rgb(0%, 0%, 0%)" fill-opacity="1" d="M 19.199219 12.800781 C 19.199219 12.800781 19.199219 23.199219 19.199219 23.199219 C 19.199219 24 17.601562 24 17.601562 23.199219 C 17.601562 23.199219 17.601562 16 17.601562 16 C 16.800781 17.601562 13.601562 20.800781 13.601562 20.800781 C 12.800781 21.601562 11.199219 21.601562 10.398438 20.800781 C 10.398438 20.800781 7.199219 17.601562 6.398438 16 C 6.398438 16 6.398438 23.199219 6.398438 23.199219 C 6.398438 24 4.800781 24 4.800781 23.199219 C 4.800781 23.199219 4.800781 12.800781 4.800781 12.800781 C 5.601562 15.199219 18.398438 15.199219 19.199219 12.800781 Z M 12 7.199219 C 13.28125 7.199219 14.398438 8 14.398438 8.800781 C 14.398438 9.601562 13.28125 10.398438 12 10.398438 C 10.71875 10.398438 9.601562 9.601562 9.601562 8.800781 C 9.601562 8 10.71875 7.199219 12 7.199219 Z M 19.199219 3.199219 C 17.601562 -0.800781 6.398438 -0.800781 4.800781 3.199219 C 4.800781 3.199219 4.800781 11.199219 4.800781 11.199219 C 4.800781 14.398438 19.199219 14.398438 19.199219 11.199219 C 19.199219 11.199219 19.199219 3.199219 19.199219 3.199219 Z M 19.199219 3.199219 "/>
</svg>
