<?xml version="1.0" encoding="UTF-8"?>
<svg xmlns="http://www.w3.org/2000/svg" xmlns:xlink="http://www.w3.org/1999/xlink" width="24" height="24" viewBox="0 0 24 24">
<path fill-rule="nonzero" fill="rgb(0%, 0%, 0%)" fill-opacity="1" d="M 9.601562 19.199219 L 11.199219 19.199219 C 12.078125 19.199219 12.800781 19.921875 12.800781 20.800781 L 12.800781 22.398438 L 3.199219 22.398438 L 3.199219 20.800781 C 3.199219 19.921875 3.921875 19.199219 4.800781 19.199219 L 6.398438 19.199219 L 6.398438 6.398438 C 6.398438 3.742188 8.542969 1.601562 11.199219 1.601562 L 20.800781 1.601562 L 20.800781 4.800781 C 20.800781 6.558594 19.359375 8 17.601562 8 L 16 8 C 14.238281 8 12.800781 6.558594 12.800781 4.800781 L 12 4.800781 C 10.671875 4.800781 9.601562 5.871094 9.601562 7.199219 Z M 14.398438 3.199219 L 14.398438 4.800781 C 14.398438 5.679688 15.121094 6.398438 16 6.398438 L 17.601562 6.398438 C 18.480469 6.398438 19.199219 5.679688 19.199219 4.800781 L 19.199219 3.199219 Z M 14.398438 3.199219 "/>
</svg>
