<?xml version="1.0" encoding="UTF-8"?>
<svg xmlns="http://www.w3.org/2000/svg" xmlns:xlink="http://www.w3.org/1999/xlink" width="24" height="24" viewBox="0 0 24 24">
<path fill-rule="nonzero" fill="rgb(0%, 0%, 0%)" fill-opacity="1" d="M 5.792969 18.609375 L 17.40625 13.089844 L 16.878906 9.375 L 6.398438 14.367188 Z M 6.753906 11.984375 L 16.59375 7.296875 L 16.128906 4.0625 L 7.296875 8.097656 Z M 7.566406 6.222656 L 14.160156 3.199219 L 8 3.199219 Z M 17.761719 15.566406 L 8.464844 20 L 18.398438 20 Z M 6.414062 2.289062 C 6.433594 2.078125 6.542969 1.921875 6.6875 1.792969 C 6.832031 1.664062 7.023438 1.601562 7.214844 1.601562 L 16.785156 1.601562 C 16.785156 1.601562 16.800781 1.601562 16.800781 1.601562 C 17.199219 1.601562 17.535156 1.886719 17.585938 2.289062 L 20.785156 21.457031 C 20.785156 21.472656 20.800781 21.503906 20.800781 21.535156 C 20.832031 21.953125 20.542969 22.320312 20.128906 22.382812 C 20.078125 22.398438 20.03125 22.398438 19.984375 22.398438 L 4.015625 22.398438 C 3.96875 22.398438 3.921875 22.398438 3.871094 22.382812 C 3.441406 22.320312 3.136719 21.902344 3.214844 21.472656 C 3.214844 21.457031 3.214844 21.457031 3.214844 21.457031 Z M 6.414062 2.289062 "/>
</svg>
