<?xml version="1.0" encoding="UTF-8"?>
<svg xmlns="http://www.w3.org/2000/svg" xmlns:xlink="http://www.w3.org/1999/xlink" width="24" height="24" viewBox="0 0 24 24">
<path fill-rule="nonzero" fill="rgb(0%, 0%, 0%)" fill-opacity="1" d="M 9.199219 20 L 8.800781 20.800781 L 15.199219 20.800781 L 14.800781 20 L 17.199219 20 L 19.199219 24 L 16.800781 24 L 16 22.398438 L 8 22.398438 L 7.199219 24 L 4.800781 24 L 6.800781 20 Z M 20.800781 6.398438 L 20.800781 16 C 20.800781 17.761719 19.359375 19.199219 17.601562 19.199219 L 6.398438 19.199219 C 4.640625 19.199219 3.199219 17.761719 3.199219 16 L 3.199219 6.398438 C 3.199219 4.640625 4.640625 3.199219 6.398438 3.199219 L 17.601562 3.199219 C 19.359375 3.199219 20.800781 4.640625 20.800781 6.398438 Z M 14.398438 16 C 14.398438 16.878906 15.121094 17.601562 16 17.601562 C 16.878906 17.601562 17.601562 16.878906 17.601562 16 C 17.601562 15.121094 16.878906 14.398438 16 14.398438 C 15.121094 14.398438 14.398438 15.121094 14.398438 16 Z M 9.601562 16 C 9.601562 15.121094 8.878906 14.398438 8 14.398438 C 7.121094 14.398438 6.398438 15.121094 6.398438 16 C 6.398438 16.878906 7.121094 17.601562 8 17.601562 C 8.878906 17.601562 9.601562 16.878906 9.601562 16 Z M 4.800781 8.800781 L 4.816406 12 C 4.816406 12.449219 5.167969 12.800781 5.617188 12.800781 L 10.414062 12.800781 C 10.847656 12.800781 11.214844 12.449219 11.214844 12 L 11.183594 8.800781 C 11.183594 8.351562 10.832031 8 10.382812 8 L 5.601562 8 C 5.152344 8 4.800781 8.351562 4.800781 8.800781 Z M 12.800781 8.800781 L 12.816406 12 C 12.816406 12.449219 13.167969 12.800781 13.617188 12.800781 L 18.414062 12.800781 C 18.847656 12.800781 19.214844 12.449219 19.214844 12 L 19.183594 8.800781 C 19.183594 8.351562 18.832031 8 18.382812 8 L 13.601562 8 C 13.152344 8 12.800781 8.351562 12.800781 8.800781 Z M 6.398438 5.601562 C 6.398438 6.046875 6.753906 6.398438 7.199219 6.398438 L 16.800781 6.398438 C 17.246094 6.398438 17.601562 6.046875 17.601562 5.601562 C 17.601562 5.152344 17.246094 4.800781 16.800781 4.800781 L 7.199219 4.800781 C 6.753906 4.800781 6.398438 5.152344 6.398438 5.601562 Z M 1.601562 20.800781 L 0 20.800781 L 0 6.398438 C 0 2.863281 2.863281 0 6.398438 0 L 17.601562 0 C 21.136719 0 24 2.863281 24 6.398438 L 24 20.800781 L 22.398438 20.800781 L 22.398438 6.398438 C 22.398438 3.742188 20.257812 1.601562 17.601562 1.601562 L 6.398438 1.601562 C 3.742188 1.601562 1.601562 3.742188 1.601562 6.398438 Z M 1.601562 20.800781 "/>
</svg>
