<?xml version="1.0" encoding="UTF-8"?>
<svg xmlns="http://www.w3.org/2000/svg" xmlns:xlink="http://www.w3.org/1999/xlink" width="24" height="24" viewBox="0 0 24 24">
<path fill-rule="nonzero" fill="rgb(0%, 0%, 0%)" fill-opacity="1" d="M 3.199219 1.601562 L 20.800781 1.601562 C 21.679688 1.601562 22.398438 2.320312 22.398438 3.199219 L 22.398438 20.800781 C 22.398438 21.679688 21.679688 22.398438 20.800781 22.398438 L 3.199219 22.398438 C 2.320312 22.398438 1.601562 21.679688 1.601562 20.800781 L 1.601562 3.199219 C 1.601562 2.320312 2.320312 1.601562 3.199219 1.601562 Z M 20.800781 9.601562 C 20.800781 8.71875 20.078125 8 19.199219 8 L 4.800781 8 C 3.921875 8 3.199219 8.71875 3.199219 9.601562 L 3.199219 17.601562 C 3.199219 18.480469 3.921875 19.199219 4.800781 19.199219 L 19.199219 19.199219 C 20.078125 19.199219 20.800781 18.480469 20.800781 17.601562 Z M 14.398438 8 L 16 8 L 16 6.398438 C 16 5.519531 15.28125 4.800781 14.398438 4.800781 L 9.601562 4.800781 C 8.71875 4.800781 8 5.519531 8 6.398438 L 8 8 L 9.601562 8 L 9.601562 6.398438 L 14.398438 6.398438 Z M 5.601562 9.601562 L 8.800781 9.601562 C 9.246094 9.601562 9.601562 9.953125 9.601562 10.398438 L 9.601562 16.800781 C 9.601562 17.246094 9.246094 17.601562 8.800781 17.601562 L 5.601562 17.601562 C 5.152344 17.601562 4.800781 17.246094 4.800781 16.800781 L 4.800781 10.398438 C 4.800781 9.953125 5.152344 9.601562 5.601562 9.601562 Z M 14.398438 9.601562 L 17.601562 9.601562 C 18.480469 9.601562 19.199219 10.320312 19.199219 11.199219 C 19.199219 12.078125 18.480469 12.800781 17.601562 12.800781 L 14.398438 12.800781 Z M 12.800781 9.601562 L 13.601562 9.601562 L 13.601562 12.800781 L 12.800781 12.800781 C 11.921875 12.800781 11.199219 12.078125 11.199219 11.199219 C 11.199219 10.320312 11.921875 9.601562 12.800781 9.601562 Z M 12.800781 14.398438 L 13.601562 14.398438 L 13.601562 17.601562 L 12.800781 17.601562 C 11.921875 17.601562 11.199219 16.878906 11.199219 16 C 11.199219 15.121094 11.921875 14.398438 12.800781 14.398438 Z M 14.398438 14.398438 L 17.601562 14.398438 C 18.480469 14.398438 19.199219 15.121094 19.199219 16 C 19.199219 16.878906 18.480469 17.601562 17.601562 17.601562 L 14.398438 17.601562 Z M 14.398438 14.398438 "/>
</svg>
