<?xml version="1.0" encoding="UTF-8"?>
<svg xmlns="http://www.w3.org/2000/svg" xmlns:xlink="http://www.w3.org/1999/xlink" width="24" height="24" viewBox="0 0 24 24">
<path fill-rule="nonzero" fill="rgb(0%, 0%, 0%)" fill-opacity="1" d="M 4.523438 17.027344 C 10.964844 19.746094 15.855469 21.335938 22.746094 23.519531 C 22.886719 23.542969 23.015625 23.441406 23.039062 23.292969 C 23.0625 23.15625 22.964844 23.015625 22.824219 22.988281 C 11.972656 19.554688 3.453125 15.753906 1.507812 14.867188 C 1.304688 14.785156 1.070312 14.875 1 15.070312 C 0.917969 15.273438 1.003906 15.496094 1.199219 15.566406 C 1.683594 15.78125 2.160156 16 2.621094 16.199219 L 1.089844 17.371094 C 0.917969 17.625 0.992188 17.957031 1.246094 18.128906 C 1.441406 18.257812 1.707031 18.246094 1.894531 18.125 L 4.53125 17.015625 Z M 22.300781 10.152344 L 17.289062 5.523438 L 17.398438 5.535156 C 18.417969 5.535156 19.234375 4.703125 19.234375 3.6875 C 19.234375 2.667969 18.414062 1.839844 17.398438 1.839844 C 16.378906 1.839844 15.5625 2.667969 15.5625 3.6875 C 15.5625 4.074219 15.679688 4.433594 15.886719 4.738281 L 12.488281 3.519531 L 10.65625 0.847656 C 10.515625 0.652344 10.296875 0.523438 10.042969 0.488281 C 9.566406 0.4375 9.125 0.78125 9.070312 1.273438 C 9.054688 1.472656 9.101562 1.671875 9.195312 1.832031 L 11.070312 4.558594 C 11.15625 4.671875 11.265625 4.761719 11.394531 4.824219 L 13.570312 5.683594 L 10.003906 7.515625 C 9.503906 7.800781 9.148438 8.304688 9.054688 8.886719 L 9.066406 12.164062 L 5.769531 13.65625 C 5.398438 13.839844 5.136719 14.207031 5.117188 14.648438 C 5.089844 15.28125 5.578125 15.8125 6.207031 15.839844 C 6.402344 15.847656 6.589844 15.804688 6.753906 15.726562 L 10.789062 13.890625 C 11.078125 13.738281 11.292969 13.460938 11.367188 13.125 L 11.363281 11.082031 L 14.164062 13.601562 L 13.652344 17.898438 L 13.644531 17.980469 C 13.617188 18.613281 14.105469 19.148438 14.734375 19.175781 C 15.328125 19.199219 15.832031 18.769531 15.910156 18.183594 L 16.515625 13.28125 L 16.523438 13.214844 C 16.53125 12.867188 16.398438 12.5625 16.171875 12.339844 L 13.574219 10.023438 L 17.488281 8.089844 L 21.113281 11.441406 C 21.277344 11.601562 21.5 11.699219 21.738281 11.699219 C 22.230469 11.691406 22.617188 11.292969 22.613281 10.808594 C 22.613281 10.546875 22.492188 10.316406 22.308594 10.148438 Z M 22.300781 10.152344 "/>
</svg>
