<?xml version="1.0" encoding="UTF-8"?>
<svg xmlns="http://www.w3.org/2000/svg" xmlns:xlink="http://www.w3.org/1999/xlink" width="24" height="24" viewBox="0 0 24 24">
<path fill-rule="nonzero" fill="rgb(0%, 0%, 0%)" fill-opacity="1" d="M 12.382812 1.167969 C 11.28125 1.167969 10.382812 2.0625 10.382812 3.167969 C 10.382812 3.167969 10.449219 3.199219 10.449219 3.246094 C 9.632812 2.542969 8.398438 2.640625 7.695312 3.457031 C 7.457031 3.726562 7.296875 4.0625 7.246094 4.433594 C 6.992188 4.351562 6.71875 4.320312 6.464844 4.320312 C 5.136719 4.304688 4.046875 5.375 4.03125 6.703125 C 4.03125 7.023438 4.097656 7.328125 4.222656 7.632812 C 2.945312 7.984375 2.207031 9.296875 2.558594 10.574219 C 2.785156 11.375 3.425781 12 4.222656 12.222656 C 4.625 13.472656 5.96875 14.160156 7.214844 13.761719 C 8.078125 13.472656 8.703125 12.734375 8.847656 11.855469 C 9.136719 12.113281 9.503906 12.273438 9.886719 12.320312 L 9.921875 16.640625 C 9.9375 17.167969 9.984375 17.664062 10.0625 18.097656 C 10.207031 18.175781 10.320312 18.257812 10.449219 18.351562 C 10.703125 18.558594 10.945312 18.800781 11.199219 19.007812 C 11.601562 19.375 12.160156 19.390625 12.609375 19.136719 C 12.609375 18.992188 12.640625 18.894531 12.640625 18.71875 L 12.6875 17.121094 C 13.855469 15.695312 15.390625 14.59375 17.121094 13.921875 C 18.398438 14.222656 19.679688 13.425781 19.984375 12.144531 C 20.03125 11.953125 20.046875 11.742188 20.046875 11.550781 C 20.046875 11.472656 20.046875 11.375 20.046875 11.296875 C 21.039062 10.816406 21.664062 9.824219 21.648438 8.71875 C 21.664062 7.617188 21.039062 6.609375 20.046875 6.144531 C 19.953125 5.105469 19.089844 4.304688 18.046875 4.320312 C 17.886719 4.335938 17.726562 4.367188 17.585938 4.414062 C 17.488281 3.359375 16.542969 2.574219 15.488281 2.671875 C 15.070312 2.71875 14.6875 2.878906 14.382812 3.167969 C 14.382812 2.0625 13.488281 1.167969 12.382812 1.167969 Z M 12.6875 10.433594 C 13.121094 11.199219 13.921875 11.679688 14.816406 11.679688 L 15.265625 11.679688 C 15.28125 12.382812 15.617188 13.039062 16.175781 13.472656 C 14.863281 14.0625 13.679688 14.910156 12.6875 15.9375 Z M 15.488281 19.183594 C 14.785156 19.183594 14.078125 19.425781 13.519531 19.902344 C 13.265625 20.113281 13.023438 20.351562 12.769531 20.558594 C 12.320312 20.960938 11.632812 20.960938 11.167969 20.558594 C 10.910156 20.351562 10.671875 20.113281 10.414062 19.902344 C 9.28125 18.960938 7.648438 18.960938 6.511719 19.902344 C 6.273438 20.113281 6.046875 20.335938 5.808594 20.527344 C 5.664062 20.640625 5.503906 20.734375 5.328125 20.785156 C 4.863281 20.894531 4.367188 20.734375 4.046875 20.382812 C 3.648438 20.046875 3.230469 19.726562 2.785156 19.457031 C 2.449219 19.265625 2.078125 19.183594 1.695312 19.199219 L 1.601562 19.199219 C 1.152344 19.199219 0.800781 19.550781 0.800781 20 C 0.800781 20.449219 1.152344 20.800781 1.601562 20.800781 C 2 20.816406 2.367188 21.007812 2.625 21.296875 L 3.199219 21.710938 C 4.273438 22.59375 5.808594 22.640625 6.929688 21.808594 C 7.230469 21.585938 7.503906 21.296875 7.808594 21.054688 C 8.273438 20.65625 8.960938 20.65625 9.40625 21.054688 L 10.03125 21.617188 C 11.136719 22.609375 12.800781 22.65625 13.96875 21.726562 C 14.207031 21.550781 14.398438 21.328125 14.640625 21.136719 C 15.121094 20.65625 15.886719 20.640625 16.382812 21.121094 L 16.398438 21.136719 L 17.023438 21.695312 C 17.808594 22.351562 18.863281 22.574219 19.839844 22.289062 C 20.449219 22.128906 21.007812 21.792969 21.441406 21.328125 C 21.695312 21.039062 22.03125 20.863281 22.398438 20.800781 C 22.847656 20.800781 23.199219 20.449219 23.199219 20 C 23.199219 19.550781 22.847656 19.199219 22.398438 19.199219 C 21.710938 19.183594 21.023438 19.425781 20.496094 19.871094 L 19.742188 20.527344 C 19.296875 20.929688 18.59375 20.929688 18.144531 20.527344 C 17.902344 20.335938 17.679688 20.113281 17.441406 19.902344 C 16.878906 19.425781 16.175781 19.183594 15.488281 19.183594 Z M 15.488281 19.183594 "/>
</svg>
