<?xml version="1.0" encoding="UTF-8"?>
<svg xmlns="http://www.w3.org/2000/svg" xmlns:xlink="http://www.w3.org/1999/xlink" width="24" height="24" viewBox="0 0 24 24">
<path fill-rule="nonzero" fill="rgb(0%, 0%, 0%)" fill-opacity="1" d="M 19.199219 7.199219 C 19.199219 6.753906 19.550781 6.398438 20 6.398438 C 20.449219 6.398438 20.800781 6.753906 20.800781 7.199219 L 20.800781 20 C 20.800781 20.449219 20.449219 20.800781 20 20.800781 C 19.550781 20.800781 19.199219 20.449219 19.199219 20 Z M 19.199219 7.199219 "/>
<path fill-rule="nonzero" fill="rgb(0%, 0%, 0%)" fill-opacity="1" d="M 16 5.601562 C 16 5.152344 16.351562 4.800781 16.800781 4.800781 C 17.246094 4.800781 17.601562 5.152344 17.601562 5.601562 L 17.601562 20 C 17.601562 20.449219 17.246094 20.800781 16.800781 20.800781 C 16.351562 20.800781 16 20.449219 16 20 Z M 16 5.601562 "/>
<path fill-rule="nonzero" fill="rgb(0%, 0%, 0%)" fill-opacity="1" d="M 12.800781 4 C 12.800781 3.550781 13.152344 3.199219 13.601562 3.199219 C 14.046875 3.199219 14.398438 3.550781 14.398438 4 L 14.398438 20 C 14.398438 20.449219 14.046875 20.800781 13.601562 20.800781 C 13.152344 20.800781 12.800781 20.449219 12.800781 20 Z M 12.800781 4 "/>
<path fill-rule="nonzero" fill="rgb(0%, 0%, 0%)" fill-opacity="1" d="M 15.199219 11.199219 C 15.648438 11.199219 16 11.550781 16 12 C 16 12.449219 15.648438 12.800781 15.199219 12.800781 L 8.800781 12.800781 C 8.351562 12.800781 8 12.449219 8 12 C 8 11.550781 8.351562 11.199219 8.800781 11.199219 Z M 15.199219 11.199219 "/>
<path fill-rule="nonzero" fill="rgb(0%, 0%, 0%)" fill-opacity="1" d="M 19.648438 7.921875 L 13.246094 4.71875 C 12.847656 4.511719 12.6875 4.03125 12.878906 3.648438 C 13.089844 3.246094 13.566406 3.089844 13.953125 3.28125 L 20.351562 6.480469 C 20.753906 6.6875 20.910156 7.167969 20.71875 7.550781 C 20.511719 7.953125 20.03125 8.113281 19.648438 7.921875 Z M 19.648438 7.921875 "/>
<path fill-rule="nonzero" fill="rgb(0%, 0%, 0%)" fill-opacity="1" d="M 3.199219 7.199219 C 3.199219 6.753906 3.550781 6.398438 4 6.398438 C 4.449219 6.398438 4.800781 6.753906 4.800781 7.199219 L 4.800781 20 C 4.800781 20.449219 4.449219 20.800781 4 20.800781 C 3.550781 20.800781 3.199219 20.449219 3.199219 20 Z M 3.199219 7.199219 "/>
<path fill-rule="nonzero" fill="rgb(0%, 0%, 0%)" fill-opacity="1" d="M 6.398438 5.601562 C 6.398438 5.152344 6.753906 4.800781 7.199219 4.800781 C 7.648438 4.800781 8 5.152344 8 5.601562 L 8 20 C 8 20.449219 7.648438 20.800781 7.199219 20.800781 C 6.753906 20.800781 6.398438 20.449219 6.398438 20 Z M 6.398438 5.601562 "/>
<path fill-rule="nonzero" fill="rgb(0%, 0%, 0%)" fill-opacity="1" d="M 9.601562 4 C 9.601562 3.550781 9.953125 3.199219 10.398438 3.199219 C 10.847656 3.199219 11.199219 3.550781 11.199219 4 L 11.199219 20 C 11.199219 20.449219 10.847656 20.800781 10.398438 20.800781 C 9.953125 20.800781 9.601562 20.449219 9.601562 20 Z M 9.601562 4 "/>
<path fill-rule="nonzero" fill="rgb(0%, 0%, 0%)" fill-opacity="1" d="M 4.351562 7.921875 C 3.96875 8.113281 3.488281 7.953125 3.28125 7.550781 C 3.089844 7.167969 3.246094 6.6875 3.648438 6.480469 L 10.046875 3.28125 C 10.433594 3.089844 10.910156 3.246094 11.121094 3.648438 C 11.3125 4.03125 11.152344 4.511719 10.753906 4.71875 Z M 4.351562 7.921875 "/>
<path fill-rule="nonzero" fill="rgb(0%, 0%, 0%)" fill-opacity="1" d="M 3.199219 16 L 11.199219 16 L 11.199219 20.800781 L 3.199219 20.800781 Z M 12.800781 16 L 20.800781 16 L 20.800781 20.800781 L 12.800781 20.800781 Z M 12.800781 16 "/>
</svg>
