<?xml version="1.0" encoding="UTF-8"?>
<svg xmlns="http://www.w3.org/2000/svg" xmlns:xlink="http://www.w3.org/1999/xlink" width="24" height="24" viewBox="0 0 24 24">
<path fill-rule="nonzero" fill="rgb(0%, 0%, 0%)" fill-opacity="1" d="M 17.601562 8.800781 C 20 8.800781 22.398438 9.601562 22.398438 12 C 22.398438 14.398438 20 15.199219 17.601562 15.199219 C 15.199219 15.199219 12.800781 14.398438 12.800781 12 C 12 11.601562 12 11.601562 11.199219 12 C 11.199219 14.398438 8.800781 15.199219 6.398438 15.199219 C 4 15.199219 1.601562 14.398438 1.601562 12 C 1.601562 9.601562 4 8.800781 6.398438 8.800781 C 8.800781 8.800781 10.398438 9.601562 10.703125 10.558594 C 11.199219 10 12.800781 10 13.296875 10.558594 C 13.601562 9.601562 15.199219 8.800781 17.601562 8.800781 Z M 17.601562 10.800781 C 16.945312 10.800781 16.398438 11.34375 16.398438 12 C 16.398438 12.65625 16.945312 13.199219 17.601562 13.199219 C 18.257812 13.199219 18.800781 12.65625 18.800781 12 C 18.800781 11.34375 18.257812 10.800781 17.601562 10.800781 Z M 6.398438 10.800781 C 5.742188 10.800781 5.199219 11.34375 5.199219 12 C 5.199219 12.65625 5.742188 13.199219 6.398438 13.199219 C 7.054688 13.199219 7.601562 12.65625 7.601562 12 C 7.601562 11.34375 7.054688 10.800781 6.398438 10.800781 Z M 6.398438 10.800781 "/>
</svg>
