<?xml version="1.0" encoding="UTF-8"?>
<svg xmlns="http://www.w3.org/2000/svg" xmlns:xlink="http://www.w3.org/1999/xlink" width="24" height="24" viewBox="0 0 24 24">
<path fill-rule="nonzero" fill="rgb(0%, 0%, 0%)" fill-opacity="1" d="M 12 24 C 18.609375 24 24 18.574219 24 12 C 24 5.441406 18.640625 0 12 0 C 5.359375 0 0 5.375 0 12 C 0 18.625 5.390625 24 12 24 Z M 12 22.289062 C 6.304688 22.289062 1.710938 17.695312 1.710938 12 C 1.710938 6.304688 6.304688 1.710938 12 1.710938 C 17.136719 1.710938 18.863281 11.105469 12 12 C 5.136719 12.894531 7.007812 22.289062 12 22.289062 Z M 12 18.863281 C 11.054688 18.863281 10.289062 18.097656 10.289062 17.136719 C 10.289062 16.191406 11.054688 15.425781 12 15.425781 C 12.945312 15.425781 13.710938 16.191406 13.710938 17.136719 C 13.710938 18.097656 12.945312 18.863281 12 18.863281 Z M 12 8.574219 C 12.945312 8.574219 13.710938 7.808594 13.710938 6.863281 C 13.710938 5.902344 12.945312 5.136719 12 5.136719 C 11.054688 5.136719 10.289062 5.902344 10.289062 6.863281 C 10.289062 7.808594 11.054688 8.574219 12 8.574219 Z M 12 8.574219 "/>
</svg>
