<?xml version="1.0" encoding="UTF-8"?>
<svg xmlns="http://www.w3.org/2000/svg" xmlns:xlink="http://www.w3.org/1999/xlink" width="24" height="24" viewBox="0 0 24 24">
<path fill-rule="nonzero" fill="rgb(0%, 0%, 0%)" fill-opacity="1" d="M 24 19.199219 L 0 19.199219 C 0 19.199219 0 14.398438 0 14.398438 C 3.199219 14.398438 3.199219 9.601562 0 9.601562 C 0 9.601562 0 4.800781 0 4.800781 C 0 4.800781 24 4.800781 24 4.800781 L 24 9.601562 C 20.800781 9.601562 20.800781 14.398438 24 14.398438 Z M 19.199219 16 C 19.199219 16 19.199219 8 19.199219 8 L 4.800781 8 L 4.800781 16 C 4.800781 16 19.199219 16 19.199219 16 Z M 17.601562 14.398438 L 6.398438 14.398438 L 6.398438 9.601562 L 17.601562 9.601562 Z M 17.601562 14.398438 "/>
</svg>
