<?xml version="1.0" encoding="UTF-8"?>
<svg xmlns="http://www.w3.org/2000/svg" xmlns:xlink="http://www.w3.org/1999/xlink" width="24" height="24" viewBox="0 0 24 24">
<path fill-rule="nonzero" fill="rgb(0%, 0%, 0%)" fill-opacity="1" d="M 16 0 C 18.65625 0 20.800781 5.601562 20.800781 12 C 20.800781 18.398438 18.398438 24 16 24 C 13.601562 24 11.199219 18.398438 11.199219 12 C 11.199219 5.601562 13.601562 0 16 0 C 18.398438 0 16 0 16 0 Z M 16 3.199219 C 14.398438 3.199219 13.601562 7.199219 13.601562 12 C 13.601562 16.800781 14.398438 20.800781 16 20.800781 C 17.601562 20.800781 18.398438 16 18.398438 12 C 18.398438 8 17.601562 3.199219 16 3.199219 Z M 16 3.601562 C 17.199219 3.601562 18 8 18 12 C 18 16 17.199219 20.398438 16 20.398438 C 15.199219 20.398438 14.800781 19.199219 14.800781 18.800781 C 16 16.800781 16 12.800781 16 12 C 16 11.199219 16 7.199219 14.800781 5.199219 C 14.800781 4.800781 15.199219 3.601562 16 3.601562 Z M 14.398438 0 L 8 0 C 5.601562 0 3.199219 5.601562 3.199219 12 C 3.199219 18.398438 5.601562 24 8 24 C 8 24 14.398438 24 14.398438 24 C 12 22.398438 10.398438 17.601562 10.398438 12 C 10.398438 6.398438 12 1.601562 14.398438 0 Z M 14.398438 0 "/>
</svg>
