<?xml version="1.0" encoding="UTF-8"?>
<svg xmlns="http://www.w3.org/2000/svg" xmlns:xlink="http://www.w3.org/1999/xlink" width="24" height="24" viewBox="0 0 24 24">
<path fill-rule="nonzero" fill="rgb(0%, 0%, 0%)" fill-opacity="1" d="M 4 22 C 5.105469 22 6 21.105469 6 20 C 6 18.894531 5.105469 18 4 18 C 2.894531 18 2 18.894531 2 20 C 2 21.105469 2.894531 22 4 22 Z M 4 24 C 1.792969 24 0 22.207031 0 20 C 0 17.792969 1.792969 16 4 16 C 6.207031 16 8 17.792969 8 20 C 8 22.207031 6.207031 24 4 24 Z M 7.199219 14 C 8.304688 14 9.199219 13.105469 9.199219 12 C 9.199219 10.894531 8.304688 10 7.199219 10 C 6.097656 10 5.199219 10.894531 5.199219 12 C 5.199219 13.105469 6.097656 14 7.199219 14 Z M 7.199219 16 C 4.992188 16 3.199219 14.207031 3.199219 12 C 3.199219 9.792969 4.992188 8 7.199219 8 C 9.40625 8 11.199219 9.792969 11.199219 12 C 11.199219 14.207031 9.40625 16 7.199219 16 Z M 20 6 C 21.105469 6 22 5.105469 22 4 C 22 2.894531 21.105469 2 20 2 C 18.894531 2 18 2.894531 18 4 C 18 5.105469 18.894531 6 20 6 Z M 20 8 C 17.792969 8 16 6.207031 16 4 C 16 1.792969 17.792969 0 20 0 C 22.207031 0 24 1.792969 24 4 C 24 6.207031 22.207031 8 20 8 Z M 10.398438 6 C 11.503906 6 12.398438 5.105469 12.398438 4 C 12.398438 2.894531 11.503906 2 10.398438 2 C 9.296875 2 8.398438 2.894531 8.398438 4 C 8.398438 5.105469 9.296875 6 10.398438 6 Z M 10.398438 8 C 8.191406 8 6.398438 6.207031 6.398438 4 C 6.398438 1.792969 8.191406 0 10.398438 0 C 12.609375 0 14.398438 1.792969 14.398438 4 C 14.398438 6.207031 12.609375 8 10.398438 8 Z M 16.800781 14 C 17.902344 14 18.800781 13.105469 18.800781 12 C 18.800781 10.894531 17.902344 10 16.800781 10 C 15.695312 10 14.800781 10.894531 14.800781 12 C 14.800781 13.105469 15.695312 14 16.800781 14 Z M 16.800781 16 C 14.59375 16 12.800781 14.207031 12.800781 12 C 12.800781 9.792969 14.59375 8 16.800781 8 C 19.007812 8 20.800781 9.792969 20.800781 12 C 20.800781 14.207031 19.007812 16 16.800781 16 Z M 13.601562 22 C 14.703125 22 15.601562 21.105469 15.601562 20 C 15.601562 18.894531 14.703125 18 13.601562 18 C 12.496094 18 11.601562 18.894531 11.601562 20 C 11.601562 21.105469 12.496094 22 13.601562 22 Z M 13.601562 24 C 11.390625 24 9.601562 22.207031 9.601562 20 C 9.601562 17.792969 11.390625 16 13.601562 16 C 15.808594 16 17.601562 17.792969 17.601562 20 C 17.601562 22.207031 15.808594 24 13.601562 24 Z M 13.601562 24 "/>
</svg>
