<?xml version="1.0" encoding="UTF-8"?>
<svg xmlns="http://www.w3.org/2000/svg" xmlns:xlink="http://www.w3.org/1999/xlink" width="24" height="24" viewBox="0 0 24 24">
<path fill-rule="nonzero" fill="rgb(0%, 0%, 0%)" fill-opacity="1" d="M 17.03125 7.214844 C 16.910156 7.214844 16.800781 7.132812 16.800781 7.019531 L 16.800781 4.050781 C 16.800781 3.9375 16.738281 3.839844 16.617188 3.839844 L 7.386719 3.839844 C 7.265625 3.839844 7.203125 3.9375 7.203125 4.050781 L 7.203125 7.019531 C 7.203125 7.132812 7.074219 7.199219 6.957031 7.199219 L 0.699219 7.199219 C 0.582031 7.199219 0.484375 7.328125 0.484375 7.445312 L 0.484375 10.742188 C 0.484375 10.859375 0.582031 11.039062 0.699219 11.039062 L 10.777344 11.039062 C 10.894531 11.039062 11.042969 10.859375 11.042969 10.742188 L 11.042969 10.042969 C 11.042969 9.925781 11.089844 9.605469 11.207031 9.605469 L 12.800781 9.605469 C 12.921875 9.605469 12.964844 9.925781 12.964844 10.042969 L 12.964844 10.746094 C 12.964844 10.863281 13.117188 11.042969 13.234375 11.042969 L 23.308594 11.042969 C 23.429688 11.042969 23.523438 10.863281 23.523438 10.746094 L 23.523438 7.449219 C 23.523438 7.335938 23.429688 7.203125 23.308594 7.203125 L 17.054688 7.203125 L 17.039062 7.21875 Z M 8.683594 7.199219 C 8.5625 7.199219 8.640625 7.136719 8.640625 7.019531 L 8.640625 5.332031 C 8.640625 5.21875 8.566406 5.28125 8.683594 5.28125 L 15.3125 5.28125 C 15.433594 5.28125 15.355469 5.21875 15.355469 5.332031 L 15.355469 7.019531 C 15.355469 7.132812 15.433594 7.199219 15.3125 7.199219 Z M 12.984375 14.261719 C 12.984375 14.375 12.910156 14.398438 12.796875 14.398438 L 11.203125 14.398438 C 11.082031 14.398438 11.039062 14.453125 11.039062 14.335938 L 11.039062 11.964844 C 11.039062 11.851562 10.886719 11.519531 10.769531 11.519531 L 0.695312 11.519531 C 0.574219 11.519531 0.480469 11.851562 0.480469 11.964844 L 0.480469 18.988281 C 0.480469 19.105469 0.574219 19.199219 0.695312 19.199219 L 23.304688 19.199219 C 23.425781 19.199219 23.519531 19.105469 23.519531 18.988281 L 23.519531 11.964844 C 23.519531 11.851562 23.425781 11.519531 23.304688 11.519531 L 13.230469 11.519531 C 13.109375 11.519531 12.960938 11.851562 12.960938 11.964844 L 12.960938 14.335938 L 12.988281 14.265625 Z M 12.984375 14.261719 "/>
</svg>
