<?xml version="1.0" encoding="UTF-8"?>
<svg xmlns="http://www.w3.org/2000/svg" xmlns:xlink="http://www.w3.org/1999/xlink" width="24" height="24" viewBox="0 0 24 24">
<path fill-rule="nonzero" fill="rgb(0%, 0%, 0%)" fill-opacity="1" d="M 11.199219 6.671875 L 11.199219 1.601562 L 14.398438 0 L 17.601562 1.601562 L 20.800781 0 L 20.800781 4.800781 L 17.601562 6.398438 L 14.398438 4.800781 L 12.800781 5.601562 L 12.800781 6.671875 L 21.601562 9.601562 L 21.601562 11.199219 L 2.398438 11.199219 L 2.398438 9.601562 Z M 4 12 L 20 12 L 20 19.199219 L 21.601562 20.800781 L 21.601562 22.398438 L 2.398438 22.398438 L 2.398438 20.800781 L 4 19.199219 Z M 6.398438 13.601562 L 6.398438 20 L 8 20 L 8 13.601562 Z M 11.199219 13.601562 L 11.199219 20 L 12.800781 20 L 12.800781 13.601562 Z M 16 13.601562 L 16 20 L 17.601562 20 L 17.601562 13.601562 Z M 16 13.601562 "/>
</svg>
