<?xml version="1.0" encoding="UTF-8"?>
<svg xmlns="http://www.w3.org/2000/svg" xmlns:xlink="http://www.w3.org/1999/xlink" width="24" height="24" viewBox="0 0 24 24">
<path fill-rule="nonzero" fill="rgb(0%, 0%, 0%)" fill-opacity="1" d="M 14.734375 0 C 16.769531 0 18.398438 1.648438 18.398438 3.695312 L 18.398438 20.304688 C 18.398438 22.351562 16.769531 24 14.734375 24 L 9.265625 24 C 7.230469 24 5.601562 22.351562 5.601562 20.304688 L 5.601562 3.695312 C 5.601562 1.648438 7.230469 0 9.265625 0 Z M 12 16.800781 C 10.671875 16.800781 9.601562 17.871094 9.601562 19.199219 C 9.601562 20.527344 10.671875 21.601562 12 21.601562 C 13.328125 21.601562 14.398438 20.527344 14.398438 19.199219 C 14.398438 17.871094 13.328125 16.800781 12 16.800781 Z M 12 9.601562 C 10.671875 9.601562 9.601562 10.671875 9.601562 12 C 9.601562 13.328125 10.671875 14.398438 12 14.398438 C 13.328125 14.398438 14.398438 13.328125 14.398438 12 C 14.398438 10.671875 13.328125 9.601562 12 9.601562 Z M 12 2.398438 C 10.671875 2.398438 9.601562 3.472656 9.601562 4.800781 C 9.601562 6.128906 10.671875 7.199219 12 7.199219 C 13.328125 7.199219 14.398438 6.128906 14.398438 4.800781 C 14.398438 3.472656 13.328125 2.398438 12 2.398438 Z M 12 2.398438 "/>
</svg>
