<?xml version="1.0" encoding="UTF-8"?>
<svg xmlns="http://www.w3.org/2000/svg" xmlns:xlink="http://www.w3.org/1999/xlink" width="24" height="24" viewBox="0 0 24 24">
<path fill-rule="nonzero" fill="rgb(0%, 0%, 0%)" fill-opacity="1" d="M 8.800781 20.800781 L 15.199219 20.800781 L 14.398438 19.199219 L 16.800781 19.199219 L 19.199219 24 L 16.800781 24 L 16 22.398438 L 8 22.398438 L 7.199219 24 L 4.800781 24 L 7.199219 19.199219 L 9.601562 19.199219 Z M 17.601562 1.601562 L 20.800781 1.601562 C 21.679688 1.601562 22.398438 2.320312 22.398438 3.199219 L 22.398438 6.398438 C 23.28125 6.398438 24 7.121094 24 8 L 24 16 C 24 16.878906 23.28125 17.601562 22.398438 17.601562 L 22.398438 20.800781 L 20.800781 20.800781 L 20.800781 17.601562 C 19.921875 17.601562 19.199219 16.878906 19.199219 16 L 19.199219 8 C 19.199219 7.121094 19.921875 6.398438 20.800781 6.398438 L 20.800781 3.199219 L 17.601562 3.199219 C 17.601562 4.078125 16.878906 4.800781 16 4.800781 L 8 4.800781 C 7.121094 4.800781 6.398438 4.078125 6.398438 3.199219 L 3.199219 3.199219 L 3.199219 6.398438 C 4.078125 6.398438 4.800781 7.121094 4.800781 8 L 4.800781 16 C 4.800781 16.878906 4.078125 17.601562 3.199219 17.601562 L 3.199219 20.800781 L 1.601562 20.800781 L 1.601562 17.601562 C 0.71875 17.601562 0 16.878906 0 16 L 0 8 C 0 7.121094 0.71875 6.398438 1.601562 6.398438 L 1.601562 3.199219 C 1.601562 2.320312 2.320312 1.601562 3.199219 1.601562 L 6.398438 1.601562 C 6.398438 0.71875 7.121094 0 8 0 L 16 0 C 16.878906 0 17.601562 0.71875 17.601562 1.601562 Z M 16 6.398438 C 16.878906 6.398438 17.601562 7.121094 17.601562 8 L 17.601562 16 C 17.601562 16.878906 16.878906 17.601562 16 17.601562 L 8 17.601562 C 7.121094 17.601562 6.398438 16.878906 6.398438 16 L 6.398438 8 C 6.398438 7.121094 7.121094 6.398438 8 6.398438 Z M 15.199219 8 L 8.800781 8 C 8.351562 8 8 8.351562 8 8.800781 L 8 11.199219 C 8 11.648438 8.351562 12 8.800781 12 L 15.199219 12 C 15.648438 12 16 11.648438 16 11.199219 L 16 8.800781 C 16 8.351562 15.648438 8 15.199219 8 Z M 9.199219 13.601562 C 8.542969 13.601562 8 14.144531 8 14.800781 C 8 15.457031 8.542969 16 9.199219 16 C 9.855469 16 10.398438 15.457031 10.398438 14.800781 C 10.398438 14.144531 9.855469 13.601562 9.199219 13.601562 Z M 14.800781 13.601562 C 14.144531 13.601562 13.601562 14.144531 13.601562 14.800781 C 13.601562 15.457031 14.144531 16 14.800781 16 C 15.457031 16 16 15.457031 16 14.800781 C 16 14.144531 15.457031 13.601562 14.800781 13.601562 Z M 14.800781 13.601562 "/>
</svg>
