<?xml version="1.0" encoding="UTF-8"?>
<svg xmlns="http://www.w3.org/2000/svg" xmlns:xlink="http://www.w3.org/1999/xlink" width="24" height="24" viewBox="0 0 24 24">
<path fill-rule="nonzero" fill="rgb(0%, 0%, 0%)" fill-opacity="1" d="M 14.398438 1.601562 L 14.398438 3.199219 C 15.28125 3.199219 16 3.921875 16 4.800781 L 16 6.207031 C 17.457031 7.375 18.398438 9.183594 18.398438 11.199219 C 18.398438 12.304688 18.128906 13.34375 17.632812 14.257812 L 18.304688 15.535156 C 18.71875 16.304688 18.433594 17.28125 17.648438 17.695312 C 17.566406 17.726562 17.488281 17.777344 17.40625 17.792969 L 12 19.601562 L 6.59375 17.792969 C 5.761719 17.519531 5.3125 16.609375 5.585938 15.777344 C 5.617188 15.695312 5.648438 15.601562 5.695312 15.535156 L 6.367188 14.257812 C 5.871094 13.34375 5.601562 12.304688 5.601562 11.199219 C 5.601562 9.183594 6.542969 7.375 8 6.207031 L 8 4.800781 C 8 3.921875 8.71875 3.199219 9.601562 3.199219 L 9.601562 1.601562 L 8.800781 1.601562 C 8.351562 1.601562 8 1.246094 8 0.800781 C 8 0.351562 8.351562 0 8.800781 0 L 15.199219 0 C 15.648438 0 16 0.351562 16 0.800781 C 16 1.246094 15.648438 1.601562 15.199219 1.601562 Z M 9.265625 19.886719 L 8.800781 20.800781 L 15.199219 20.800781 L 14.734375 19.886719 L 16.800781 19.199219 L 19.199219 24 L 16.800781 24 L 16 22.398438 L 8 22.398438 L 7.199219 24 L 4.800781 24 L 7.199219 19.199219 Z M 12 16 C 14.65625 16 16.800781 13.855469 16.800781 11.199219 C 16.800781 8.542969 14.65625 6.398438 12 6.398438 C 9.34375 6.398438 7.199219 8.542969 7.199219 11.199219 C 7.199219 13.855469 9.34375 16 12 16 Z M 10.398438 11.199219 C 9.953125 11.199219 9.601562 10.847656 9.601562 10.398438 L 9.601562 8.800781 C 9.601562 8.351562 9.953125 8 10.398438 8 C 10.847656 8 11.199219 8.351562 11.199219 8.800781 L 11.199219 10.398438 C 11.199219 10.847656 10.847656 11.199219 10.398438 11.199219 Z M 13.601562 11.199219 C 13.152344 11.199219 12.800781 10.847656 12.800781 10.398438 L 12.800781 8.800781 C 12.800781 8.351562 13.152344 8 13.601562 8 C 14.046875 8 14.398438 8.351562 14.398438 8.800781 L 14.398438 10.398438 C 14.398438 10.847656 14.046875 11.199219 13.601562 11.199219 Z M 12 15.199219 C 10.992188 15.199219 10.207031 14.59375 9.632812 13.375 C 9.617188 13.3125 9.601562 13.265625 9.601562 13.199219 C 9.601562 12.976562 9.777344 12.800781 10 12.800781 L 14 12.800781 C 14.046875 12.800781 14.113281 12.816406 14.160156 12.832031 C 14.367188 12.929688 14.449219 13.167969 14.351562 13.375 C 13.792969 14.59375 13.007812 15.199219 12 15.199219 Z M 12 15.199219 "/>
</svg>
