<?xml version="1.0" encoding="UTF-8"?>
<svg xmlns="http://www.w3.org/2000/svg" xmlns:xlink="http://www.w3.org/1999/xlink" width="24" height="24" viewBox="0 0 24 24">
<path fill-rule="nonzero" fill="rgb(0%, 0%, 0%)" fill-opacity="1" d="M 22.398438 12.800781 L 22.398438 11.585938 L 21.40625 9.601562 L 2.59375 9.601562 L 1.601562 11.585938 L 1.601562 12.800781 L 4 12.800781 L 4 9.601562 L 5.601562 9.601562 L 5.601562 12.800781 L 8 12.800781 L 8 9.601562 L 9.601562 9.601562 L 9.601562 16 L 14.398438 16 L 14.398438 9.601562 L 16 9.601562 L 16 12.800781 L 18.398438 12.800781 L 18.398438 9.601562 L 20 9.601562 L 20 12.800781 Z M 22.398438 17.601562 L 21.601562 17.601562 C 21.601562 18.480469 20.878906 19.199219 20 19.199219 C 19.121094 19.199219 18.398438 18.480469 18.398438 17.601562 L 17.601562 17.601562 C 17.601562 18.480469 16.878906 19.199219 16 19.199219 C 15.121094 19.199219 14.398438 18.480469 14.398438 17.601562 L 9.601562 17.601562 C 9.601562 18.480469 8.878906 19.199219 8 19.199219 C 7.121094 19.199219 6.398438 18.480469 6.398438 17.601562 L 5.601562 17.601562 C 5.601562 18.480469 4.878906 19.199219 4 19.199219 C 3.121094 19.199219 2.398438 18.480469 2.398438 17.601562 L 1.601562 17.601562 C 0.71875 17.601562 0 16.878906 0 16 L 0 11.585938 C 0 11.328125 0.0625 11.089844 0.175781 10.863281 L 1.152344 8.878906 C 1.425781 8.335938 1.984375 8 2.59375 8 L 11.550781 8 L 8.847656 4.929688 C 8.480469 4.527344 8.527344 3.886719 8.945312 3.519531 C 8.960938 3.503906 8.976562 3.488281 8.992188 3.472656 C 9.136719 3.3125 9.359375 3.199219 9.601562 3.199219 L 14.398438 3.199219 C 14.847656 3.199219 15.199219 3.550781 15.199219 4 C 15.199219 4.449219 14.847656 4.800781 14.398438 4.800781 L 11.40625 4.800781 L 14.222656 8 L 21.40625 8 C 22.015625 8 22.574219 8.335938 22.847656 8.878906 L 23.824219 10.863281 C 23.9375 11.089844 24 11.328125 24 11.585938 L 24 16 C 24 16.878906 23.28125 17.601562 22.398438 17.601562 Z M 11.199219 9.601562 L 12.800781 9.601562 L 12.800781 16 L 11.199219 16 Z M 11.199219 9.601562 "/>
</svg>
