<?xml version="1.0" encoding="UTF-8"?>
<svg xmlns="http://www.w3.org/2000/svg" xmlns:xlink="http://www.w3.org/1999/xlink" width="24" height="24" viewBox="0 0 24 24">
<path fill-rule="nonzero" fill="rgb(0%, 0%, 0%)" fill-opacity="1" d="M 20.800781 4.800781 L 20.800781 17.601562 C 20.800781 19.359375 19.359375 20.800781 17.601562 20.800781 L 6.398438 20.800781 C 4.640625 20.800781 3.199219 19.359375 3.199219 17.601562 L 3.199219 4.800781 C 3.199219 3.039062 4.640625 1.601562 6.398438 1.601562 L 17.601562 1.601562 C 19.359375 1.601562 20.800781 3.039062 20.800781 4.800781 Z M 14.398438 16.800781 C 14.398438 17.679688 15.121094 18.398438 16 18.398438 C 16.878906 18.398438 17.601562 17.679688 17.601562 16.800781 C 17.601562 15.921875 16.878906 15.199219 16 15.199219 C 15.121094 15.199219 14.398438 15.921875 14.398438 16.800781 Z M 9.601562 16.800781 C 9.601562 15.921875 8.878906 15.199219 8 15.199219 C 7.121094 15.199219 6.398438 15.921875 6.398438 16.800781 C 6.398438 17.679688 7.121094 18.398438 8 18.398438 C 8.878906 18.398438 9.601562 17.679688 9.601562 16.800781 Z M 4.800781 7.199219 L 4.816406 12 C 4.816406 12.449219 5.183594 12.800781 5.617188 12.800781 L 10.414062 12.800781 C 10.847656 12.800781 11.214844 12.449219 11.214844 12 L 11.183594 7.199219 C 11.183594 6.753906 10.832031 6.398438 10.382812 6.398438 L 5.601562 6.398438 C 5.152344 6.398438 4.800781 6.753906 4.800781 7.199219 Z M 12.800781 7.199219 L 12.816406 12 C 12.816406 12.449219 13.183594 12.800781 13.617188 12.800781 L 18.414062 12.800781 C 18.847656 12.800781 19.214844 12.449219 19.214844 12 L 19.183594 7.199219 C 19.183594 6.753906 18.832031 6.398438 18.382812 6.398438 L 13.601562 6.398438 C 13.152344 6.398438 12.800781 6.753906 12.800781 7.199219 Z M 6.398438 4 C 6.398438 4.449219 6.753906 4.800781 7.199219 4.800781 L 16.800781 4.800781 C 17.246094 4.800781 17.601562 4.449219 17.601562 4 C 17.601562 3.550781 17.246094 3.199219 16.800781 3.199219 L 7.199219 3.199219 C 6.753906 3.199219 6.398438 3.550781 6.398438 4 Z M 6.398438 4 "/>
</svg>
