<?xml version="1.0" encoding="UTF-8"?>
<svg xmlns="http://www.w3.org/2000/svg" xmlns:xlink="http://www.w3.org/1999/xlink" width="24" height="24" viewBox="0 0 24 24">
<path fill-rule="nonzero" fill="rgb(0%, 0%, 0%)" fill-opacity="1" d="M 9.601562 12 C 9.601562 12 9.601562 4.800781 9.601562 4.71875 C 9.601562 -1.601562 14.398438 0 14.398438 6.398438 L 14.398438 14.398438 C 14.398438 14.398438 13.601562 14.398438 15.199219 14.398438 C 16.800781 14.398438 16.800781 12.800781 16.800781 11.199219 C 16.800781 8 19.199219 8.800781 19.199219 11.199219 C 19.199219 14.398438 19.199219 17.601562 16 17.601562 C 14.398438 17.601562 14.398438 17.601562 14.398438 17.601562 C 14.398438 17.601562 14.398438 22.398438 14.398438 22.398438 C 14.398438 24 9.601562 24 9.601562 22.398438 C 9.601562 22.398438 9.601562 15.199219 9.601562 15.199219 C 9.601562 15.199219 10.398438 15.199219 8 15.199219 C 4 15.199219 4 11.199219 4 8 C 4 6.398438 6.398438 4.800781 6.398438 8 C 6.398438 9.601562 6.398438 12 8 12 C 9.601562 12 9.601562 12 9.601562 12 Z M 9.601562 12 "/>
</svg>
