<?xml version="1.0" encoding="UTF-8"?>
<svg xmlns="http://www.w3.org/2000/svg" xmlns:xlink="http://www.w3.org/1999/xlink" width="24" height="24" viewBox="0 0 24 24">
<path fill-rule="nonzero" fill="rgb(0%, 0%, 0%)" fill-opacity="1" d="M 22.398438 9.199219 C 22.398438 8.097656 21.792969 7.089844 20.800781 6.625 C 20.71875 5.585938 19.839844 4.800781 18.800781 4.800781 C 18.640625 4.800781 18.480469 4.800781 18.320312 4.800781 C 18.320312 3.742188 17.296875 2.960938 16.238281 3.054688 C 15.839844 3.199219 15.441406 3.375 15.136719 3.601562 C 15.136719 2.496094 14.238281 1.601562 13.136719 1.601562 C 12.03125 1.601562 11.136719 2.542969 11.136719 3.601562 C 11.136719 3.601562 11.199219 3.679688 11.199219 3.726562 C 10.382812 3.023438 9.152344 3.121094 8.398438 3.9375 C 8.207031 4.207031 8 4.558594 8 4.800781 C 7.742188 4.800781 7.488281 4.800781 7.214844 4.800781 C 5.886719 4.800781 4.800781 5.855469 4.800781 7.183594 C 4.800781 7.503906 4.800781 7.824219 4.976562 8 C 3.710938 8.480469 2.960938 9.777344 3.199219 11.054688 C 3.550781 11.855469 4.175781 12.480469 4.976562 12.703125 C 5.375 13.953125 6.71875 14.640625 7.984375 14.238281 C 8.832031 13.96875 9.457031 13.230469 9.601562 12.335938 C 9.886719 12.59375 10.257812 12.753906 10.640625 12.800781 L 10.640625 20.800781 L 8 22.398438 L 16 22.398438 L 13.441406 20.800781 L 13.441406 17.601562 C 14.625 16.175781 16.144531 15.070312 17.871094 14.398438 C 19.152344 14.703125 20.433594 13.902344 20.734375 12.625 C 20.800781 12.433594 20.800781 12.222656 20.800781 12.03125 C 20.800781 12.03125 20.800781 11.855469 20.800781 11.777344 C 21.792969 11.199219 22.398438 10.304688 22.398438 9.199219 Z M 13.441406 16.398438 L 13.441406 10.910156 C 13.871094 11.679688 14.6875 12.160156 15.566406 12.160156 L 15.96875 12.160156 C 15.96875 12.863281 16.320312 13.519531 16.878906 13.953125 C 15.617188 14.542969 14.398438 15.390625 13.441406 16.398438 Z M 13.441406 16.398438 "/>
</svg>
