<?xml version="1.0" encoding="UTF-8"?>
<svg xmlns="http://www.w3.org/2000/svg" xmlns:xlink="http://www.w3.org/1999/xlink" width="24" height="24" viewBox="0 0 24 24">
<path fill-rule="nonzero" fill="rgb(0%, 0%, 0%)" fill-opacity="1" d="M 6.398438 17.503906 L 6.398438 22.398438 L 4.800781 22.398438 L 4.800781 17.519531 C 3.089844 17.167969 1.792969 15.632812 1.792969 13.808594 C 1.792969 13.601562 1.808594 13.390625 1.839844 13.183594 C 3.152344 5.457031 4.433594 1.601562 5.695312 1.601562 C 6.945312 1.601562 8.175781 5.457031 9.375 13.167969 C 9.679688 15.183594 8.367188 17.089844 6.398438 17.503906 Z M 9.601562 17.601562 L 22.398438 17.601562 L 22.398438 22.398438 L 20.800781 22.398438 L 20.800781 19.199219 L 11.199219 19.199219 L 11.199219 22.398438 L 9.601562 22.398438 Z M 11.199219 12.800781 L 20.800781 12.800781 L 20.800781 16.800781 L 11.199219 16.800781 Z M 11.199219 12.800781 "/>
</svg>
