<?xml version="1.0" encoding="UTF-8"?>
<svg xmlns="http://www.w3.org/2000/svg" xmlns:xlink="http://www.w3.org/1999/xlink" width="24" height="24" viewBox="0 0 24 24">
<path fill-rule="nonzero" fill="rgb(0%, 0%, 0%)" fill-opacity="1" d="M 19.199219 17.503906 L 19.199219 22.398438 L 17.601562 22.398438 L 17.601562 17.519531 C 16.59375 17.3125 15.726562 16.703125 15.183594 15.855469 C 14.65625 16.671875 13.808594 17.296875 12.800781 17.503906 L 12.800781 22.398438 L 11.199219 22.398438 L 11.199219 17.519531 C 10.191406 17.3125 9.328125 16.703125 8.785156 15.855469 C 8.257812 16.671875 7.40625 17.296875 6.398438 17.503906 L 6.398438 22.398438 L 4.800781 22.398438 L 4.800781 17.519531 C 3.089844 17.167969 1.792969 15.632812 1.792969 13.808594 C 1.792969 13.601562 1.808594 13.390625 1.839844 13.183594 C 3.152344 5.457031 4.433594 1.601562 5.695312 1.601562 C 6.753906 1.601562 7.808594 4.382812 8.832031 9.96875 C 9.9375 4.382812 11.023438 1.601562 12.097656 1.601562 C 13.152344 1.601562 14.207031 4.382812 15.230469 9.96875 C 16.335938 4.382812 17.425781 1.601562 18.496094 1.601562 C 19.742188 1.601562 20.976562 5.457031 22.175781 13.167969 C 22.480469 15.183594 21.167969 17.089844 19.199219 17.503906 Z M 19.199219 17.503906 "/>
</svg>
