<?xml version="1.0" encoding="UTF-8"?>
<svg xmlns="http://www.w3.org/2000/svg" xmlns:xlink="http://www.w3.org/1999/xlink" width="24" height="24" viewBox="0 0 24 24">
<path fill-rule="nonzero" fill="rgb(0%, 0%, 0%)" fill-opacity="1" d="M 12.800781 1.601562 L 12.800781 3.199219 L 17.601562 3.199219 C 19.359375 3.199219 20.800781 4.640625 20.800781 6.398438 L 20.800781 19.199219 C 20.800781 20.800781 19.199219 20.800781 19.199219 20.800781 L 19.199219 22.398438 C 19.199219 22.398438 19.199219 24 17.601562 24 C 16 24 16 22.398438 16 22.398438 L 16 20.800781 L 8 20.800781 L 8 22.398438 C 8 22.398438 8 24 6.398438 24 C 4.800781 24 4.800781 22.398438 4.800781 22.398438 L 4.800781 20.800781 C 3.199219 20.800781 3.199219 19.199219 3.199219 19.199219 L 3.199219 6.398438 C 3.199219 4.640625 4.640625 3.199219 6.398438 3.199219 L 11.199219 3.199219 L 11.199219 1.601562 L 7.199219 1.601562 C 6.753906 1.601562 6.398438 1.246094 6.398438 0.800781 C 6.398438 0.351562 6.753906 0 7.199219 0 L 16.800781 0 C 17.246094 0 17.601562 0.351562 17.601562 0.800781 C 17.601562 1.246094 17.246094 1.601562 16.800781 1.601562 Z M 5.601562 8 C 5.152344 8 4.800781 8.351562 4.800781 8.800781 L 4.800781 13.601562 C 4.800781 14.046875 5.152344 14.398438 5.601562 14.398438 L 18.398438 14.398438 C 18.847656 14.398438 19.199219 14.046875 19.199219 13.601562 L 19.199219 8.800781 C 19.199219 8.351562 18.847656 8 18.398438 8 Z M 6.398438 16 C 5.519531 16 4.800781 16.71875 4.800781 17.601562 C 4.800781 18.480469 5.519531 19.199219 6.398438 19.199219 C 7.28125 19.199219 8 18.480469 8 17.601562 C 8 16.71875 7.28125 16 6.398438 16 Z M 17.601562 16 C 16.71875 16 16 16.71875 16 17.601562 C 16 18.480469 16.71875 19.199219 17.601562 19.199219 C 18.480469 19.199219 19.199219 18.480469 19.199219 17.601562 C 19.199219 16.71875 18.480469 16 17.601562 16 Z M 6.398438 5.601562 C 6.398438 6.046875 6.753906 6.398438 7.199219 6.398438 L 16.800781 6.398438 C 17.246094 6.398438 17.601562 6.046875 17.601562 5.601562 C 17.601562 5.152344 17.246094 4.800781 16.800781 4.800781 L 7.199219 4.800781 C 6.753906 4.800781 6.398438 5.152344 6.398438 5.601562 Z M 6.398438 5.601562 "/>
</svg>
