<?xml version="1.0" encoding="UTF-8"?>
<svg xmlns="http://www.w3.org/2000/svg" xmlns:xlink="http://www.w3.org/1999/xlink" width="24" height="24" viewBox="0 0 24 24">
<path fill-rule="nonzero" fill="rgb(0%, 0%, 0%)" fill-opacity="1" d="M 4.398438 15.601562 C 3.199219 15.601562 2.398438 16.398438 2.398438 17.601562 C 2.398438 18.800781 3.199219 19.601562 4.398438 19.601562 C 5.601562 19.601562 6.398438 18.800781 6.398438 17.601562 C 6.398438 16.398438 5.601562 15.601562 4.398438 15.601562 Z M 18.800781 15.601562 C 17.601562 15.601562 16.800781 16.398438 16.800781 17.601562 C 16.800781 18.800781 17.601562 19.601562 18.800781 19.601562 C 20 19.601562 20.800781 18.800781 20.800781 17.601562 C 20.800781 16.398438 20 15.601562 18.800781 15.601562 Z M 23.199219 4.800781 C 23.199219 4.800781 8.800781 4.800781 8.800781 4.800781 C 7.855469 4.800781 8 5.601562 8 5.601562 C 8 5.601562 8 11.199219 8 11.199219 L 6.800781 11.199219 L 6.800781 7.199219 C 6.800781 6.398438 6 6.398438 6 6.398438 C 6 6.398438 3.199219 6.398438 3.199219 6.398438 C 0.800781 6.398438 0.800781 9.601562 0.800781 11.199219 C 0.800781 11.199219 0 11.199219 0 12 C 0 12 0 17.601562 0 17.601562 L 1.601562 17.601562 C 1.601562 15.601562 2.800781 14.800781 4.398438 14.800781 C 6 14.800781 7.199219 15.601562 7.199219 17.601562 C 7.199219 17.601562 16 17.601562 16 17.601562 C 16 15.601562 17.199219 14.800781 18.800781 14.800781 C 20.398438 14.800781 21.601562 15.601562 21.601562 17.601562 C 21.601562 17.601562 24 17.601562 24 17.601562 C 24 17.601562 24 5.601562 24 5.601562 C 24 5.601562 24 4.800781 23.199219 4.800781 Z M 4.800781 8 L 4.800781 11.199219 C 4.800781 11.199219 2.398438 11.199219 2.398438 11.199219 C 2.398438 9.601562 2.398438 8 3.199219 8 C 3.199219 8 4.800781 8 4.800781 8 Z M 4.800781 8 "/>
</svg>
