<?xml version="1.0" encoding="UTF-8"?>
<svg xmlns="http://www.w3.org/2000/svg" xmlns:xlink="http://www.w3.org/1999/xlink" width="24" height="24" viewBox="0 0 24 24">
<path fill-rule="nonzero" fill="rgb(0%, 0%, 0%)" fill-opacity="1" d="M 7.199219 4.800781 L 16.800781 4.800781 C 20.785156 4.800781 24 8.015625 24 12 L 24 18.398438 C 24 18.847656 23.648438 19.199219 23.199219 19.199219 L 0.800781 19.199219 C 0.351562 19.199219 0 18.847656 0 18.398438 L 0 12 C 0 8.015625 3.214844 4.800781 7.199219 4.800781 Z M 7.199219 6.398438 C 4.113281 6.398438 1.601562 8.910156 1.601562 12 L 1.601562 17.601562 L 12.800781 17.601562 L 12.800781 12 C 12.800781 8.910156 10.289062 6.398438 7.199219 6.398438 Z M 7.199219 8 C 9.40625 8 11.199219 9.792969 11.199219 12 L 11.199219 17.601562 L 3.199219 17.601562 L 3.199219 12 C 3.199219 9.792969 4.992188 8 7.199219 8 Z M 7.199219 8 "/>
</svg>
