<?xml version="1.0" encoding="UTF-8"?>
<svg xmlns="http://www.w3.org/2000/svg" xmlns:xlink="http://www.w3.org/1999/xlink" width="24" height="24" viewBox="0 0 24 24">
<path fill-rule="nonzero" fill="rgb(0%, 0%, 0%)" fill-opacity="1" d="M 10.398438 5.601562 C 10.398438 5.601562 10.398438 3.199219 10.398438 3.199219 C 10.398438 1.601562 13.601562 1.601562 13.601562 3.199219 L 13.601562 5.601562 C 13.601562 5.601562 22.398438 5.601562 22.398438 5.601562 C 23.199219 5.601562 23.199219 8 22.398438 8 C 22.398438 8 13.601562 8 13.601562 8 C 13.601562 8 13.601562 22.398438 13.601562 22.398438 C 13.601562 24 10.398438 24 10.398438 22.398438 C 10.398438 22.398438 10.398438 8 10.398438 8 C 10.398438 8 1.601562 8 1.601562 8 C 0.800781 8 0.800781 5.601562 1.601562 5.601562 C 1.601562 5.601562 10.398438 5.601562 10.398438 5.601562 Z M 17.601562 3.199219 C 17.601562 3.199219 20.800781 3.199219 20.800781 3.199219 C 21.601562 3.199219 21.601562 4.800781 20.800781 4.800781 C 20.800781 4.800781 17.601562 4.800781 17.601562 4.800781 C 16.800781 4.800781 16.800781 3.199219 17.601562 3.199219 Z M 3.199219 3.199219 C 3.199219 3.199219 6.398438 3.199219 6.398438 3.199219 C 7.199219 3.199219 7.199219 4.800781 6.398438 4.800781 C 6.398438 4.800781 3.199219 4.800781 3.199219 4.800781 C 2.398438 4.800781 2.398438 3.199219 3.199219 3.199219 Z M 3.199219 3.199219 "/>
</svg>
