<?xml version="1.0" encoding="UTF-8"?>
<svg xmlns="http://www.w3.org/2000/svg" xmlns:xlink="http://www.w3.org/1999/xlink" width="24" height="24" viewBox="0 0 24 24">
<path fill-rule="nonzero" fill="rgb(0%, 0%, 0%)" fill-opacity="1" d="M 6.398438 9.601562 L 6.398438 22.398438 L 0 22.398438 L 0 4.800781 C 0 3.039062 1.441406 1.601562 3.199219 1.601562 C 4.960938 1.601562 6.398438 3.039062 6.398438 4.800781 L 6.398438 6.398438 L 8.414062 6.398438 C 9.390625 3.601562 12.0625 1.601562 15.199219 1.601562 C 19.183594 1.601562 22.398438 4.816406 22.398438 8.800781 L 22.398438 15.199219 L 19.199219 15.199219 L 19.199219 8.800781 C 19.199219 6.59375 17.40625 4.800781 15.199219 4.800781 C 13.886719 4.800781 12.734375 5.425781 12 6.398438 L 12.800781 6.398438 C 15.457031 6.398438 17.601562 8.542969 17.601562 11.199219 L 17.601562 17.601562 C 17.601562 20.257812 15.457031 22.398438 12.800781 22.398438 C 10.144531 22.398438 8 20.257812 8 17.601562 L 8 9.601562 Z M 19.199219 16 L 22.398438 16 L 22.398438 19.199219 L 24 20.800781 L 24 22.398438 L 17.601562 22.398438 L 17.601562 20.800781 L 19.199219 19.199219 Z M 11.199219 17.601562 C 11.199219 18.480469 11.921875 19.199219 12.800781 19.199219 C 13.679688 19.199219 14.398438 18.480469 14.398438 17.601562 L 14.398438 11.199219 C 14.398438 10.320312 13.679688 9.601562 12.800781 9.601562 L 11.199219 9.601562 Z M 11.199219 17.601562 "/>
</svg>
