<?xml version="1.0" encoding="UTF-8"?>
<svg xmlns="http://www.w3.org/2000/svg" xmlns:xlink="http://www.w3.org/1999/xlink" width="24" height="24" viewBox="0 0 24 24">
<path fill-rule="nonzero" fill="rgb(0%, 0%, 0%)" fill-opacity="1" d="M 21.601562 1.601562 C 22.398438 1.601562 22.398438 2.238281 22.398438 2.238281 C 22.398438 2.238281 22.398438 2.878906 21.601562 2.878906 L 20 2.878906 C 17.601562 7.039062 17.601562 7.039062 16.128906 9.726562 C 16.800781 10.398438 16 12.800781 15.199219 14.398438 C 14.0625 16.65625 12.800781 18.398438 11.808594 18.160156 C 12.800781 18.398438 12.800781 19.199219 12.800781 20 C 12.800781 20.800781 12.800781 22.398438 12 22.398438 L 11.679688 22.398438 C 11.664062 22.753906 11.199219 23.199219 10.398438 23.199219 C 9.601562 23.199219 9.121094 22.753906 9.121094 22.398438 L 5.601562 22.398438 C 5.503906 23.039062 4.894531 23.199219 4.398438 23.199219 C 3.953125 23.199219 3.328125 22.992188 3.199219 22.398438 L 2.398438 22.398438 C 0.800781 22.398438 0.800781 20.800781 1.601562 20 C 2.398438 19.199219 3.230469 19.199219 4.800781 19.199219 C 5.601562 19.199219 6.398438 17.601562 8.800781 17.601562 L 9.601562 17.601562 C 8.800781 16.800781 9.902344 14.574219 11.199219 12 C 12 10.398438 12.800781 8.816406 15.136719 9.199219 C 19.199219 1.617188 19.199219 1.601562 20 1.601562 Z M 21.601562 1.601562 "/>
</svg>
