<?xml version="1.0" encoding="UTF-8"?>
<svg xmlns="http://www.w3.org/2000/svg" xmlns:xlink="http://www.w3.org/1999/xlink" width="24" height="24" viewBox="0 0 24 24">
<path fill-rule="nonzero" fill="rgb(0%, 0%, 0%)" fill-opacity="1" d="M 20.800781 0.800781 C 22.398438 1.601562 20.800781 20 20 20 C 17.601562 20.800781 13.601562 20.800781 13.601562 20.800781 C 13.601562 20.800781 13.601562 23.199219 13.601562 23.199219 C 13.601562 24 10.398438 24 10.398438 23.199219 C 10.398438 23.199219 10.398438 20.800781 10.398438 20.800781 C 10.398438 20.800781 6.398438 20.800781 4 20 C 3.199219 20 1.601562 1.601562 3.199219 0.800781 C 4.800781 0 19.199219 0 20.800781 0.800781 Z M 9.070312 9.777344 C 9.070312 9.777344 8.71875 9.777344 8.367188 9.953125 C 8 10.128906 7.601562 10.59375 7.601562 11.246094 C 7.601562 14.175781 7.601562 14.671875 7.105469 14.671875 C 7.105469 14.671875 6.625 14.671875 6.625 15.152344 L 6.625 17.105469 C 6.625 17.105469 6.625 17.601562 7.105469 17.601562 C 7.601562 17.601562 7.601562 17.105469 7.601562 17.105469 L 7.601562 15.648438 C 7.953125 15.648438 8.273438 15.503906 8.574219 15.359375 L 8.574219 17.105469 C 8.574219 17.105469 8.574219 17.601562 9.070312 17.601562 C 9.550781 17.601562 9.550781 17.105469 9.550781 17.105469 L 9.550781 14.671875 L 12.496094 14.671875 L 13.136719 16.609375 C 13.472656 17.601562 13.953125 17.601562 13.953125 17.601562 L 14.449219 17.601562 C 14.449219 17.601562 14.929688 17.601562 14.929688 17.105469 C 14.929688 16.625 14.449219 16.625 14.449219 16.625 L 14.449219 14.175781 C 14.449219 13.3125 13.824219 12.945312 13.472656 12.703125 L 12 11.726562 L 8.574219 11.726562 L 8.574219 11.246094 C 8.574219 10.910156 8.671875 10.894531 8.800781 10.832031 C 8.929688 10.769531 9.070312 10.753906 9.070312 10.753906 C 9.726562 10.769531 9.726562 9.777344 9.070312 9.777344 Z M 13.953125 8.800781 C 13.953125 8.800781 13.617188 8.832031 13.472656 9.296875 L 12.976562 11.246094 L 14.929688 12.703125 L 16.398438 12.703125 C 17.375 12.703125 17.375 11.726562 17.375 11.726562 L 15.902344 10.273438 C 15.425781 9.777344 14.929688 9.777344 14.449219 9.777344 L 14.449219 9.296875 C 14.449219 9.296875 14.449219 8.800781 13.953125 8.800781 Z M 16 2.398438 C 16 2.398438 8 2.398438 8 2.398438 C 7.023438 2.398438 6.398438 5.601562 7.199219 5.601562 C 7.199219 5.601562 16.800781 5.601562 16.800781 5.601562 C 17.601562 5.601562 16.800781 2.398438 16 2.398438 Z M 16 2.398438 "/>
</svg>
