<?xml version="1.0" encoding="UTF-8"?>
<svg xmlns="http://www.w3.org/2000/svg" xmlns:xlink="http://www.w3.org/1999/xlink" width="24" height="24" viewBox="0 0 24 24">
<path fill-rule="nonzero" fill="rgb(0%, 0%, 0%)" fill-opacity="1" d="M 17.601562 0 C 19.199219 0 19.199219 0 19.199219 1.601562 L 19.199219 22.398438 C 19.199219 24 19.199219 24 17.601562 24 C 17.601562 24 6.398438 24 6.398438 24 C 4.800781 24 4.800781 24 4.800781 22.398438 L 4.800781 1.601562 C 4.800781 0 4.800781 0 6.398438 0 Z M 10 12.800781 C 10 12.800781 8.800781 12.800781 8.800781 12.800781 C 8 12.800781 8 13.601562 8 13.601562 C 8 13.601562 8 21.601562 8 21.601562 C 8 22.398438 8.800781 22.398438 8.800781 22.398438 L 15.199219 22.398438 C 15.199219 22.398438 16 22.398438 16 21.601562 C 16 21.601562 16 13.601562 16 13.601562 C 16 12.800781 15.199219 12.800781 15.199219 12.800781 L 14 12.800781 C 14 12.800781 13.601562 14.367188 13.601562 14.367188 C 13.601562 14.769531 10.398438 14.769531 10.398438 14.367188 C 10.398438 14.367188 10 12.800781 10 12.800781 Z M 16.800781 1.601562 L 7.199219 1.601562 C 7.199219 1.601562 6.398438 1.601562 6.398438 2.398438 C 6.398438 2.398438 6.398438 8.800781 6.398438 8.800781 C 6.398438 8.800781 6.398438 9.601562 7.199219 9.601562 C 7.199219 9.601562 16.800781 9.601562 16.800781 9.601562 C 16.800781 9.601562 17.601562 9.601562 17.601562 8.800781 C 17.601562 8.800781 17.601562 2.398438 17.601562 2.398438 C 17.601562 1.601562 16.800781 1.601562 16.800781 1.601562 Z M 16.800781 1.601562 "/>
<path fill-rule="nonzero" fill="rgb(0%, 0%, 0%)" fill-opacity="1" d="M 10 18.398438 C 10 18.800781 14 18.800781 14 18.398438 C 14 18.398438 13.601562 21.601562 13.601562 21.601562 C 13.601562 22.398438 10.398438 22.398438 10.398438 21.601562 C 10.398438 21.601562 10 18.398438 10 18.398438 Z M 10.398438 18 C 10.398438 18.398438 13.601562 18.398438 13.601562 18 C 13.601562 18 13.601562 17.601562 13.199219 17.601562 C 13.199219 17.601562 13.601562 16.945312 12.800781 16.945312 C 12.398438 16.800781 12.800781 16 12.398438 15.601562 C 11.601562 16 11.199219 16.398438 11.601562 16.800781 C 10.800781 16.800781 11.007812 17.441406 11.007812 17.441406 C 11.007812 17.441406 10.398438 17.601562 10.398438 18 Z M 10.398438 18 "/>
<path fill-rule="nonzero" fill="rgb(0%, 0%, 0%)" fill-opacity="1" d="M 13.601562 4.800781 C 13.855469 4.289062 13.761719 3.152344 13.199219 2.800781 C 12.640625 2.449219 11.359375 2.449219 10.800781 2.800781 C 10.238281 3.152344 10.144531 4.289062 10.398438 4.800781 C 10.144531 4.800781 10 4.945312 10 5.199219 C 10 5.457031 10.144531 5.601562 10.398438 5.601562 L 13.601562 5.601562 C 13.855469 5.601562 14 5.457031 14 5.199219 C 14 4.945312 13.855469 4.800781 13.601562 4.800781 Z M 12 8.800781 C 12.257812 8.800781 13.601562 6 13.601562 6 L 10.398438 6 C 10.398438 6 11.742188 8.800781 12 8.800781 Z M 12 8.800781 "/>
</svg>
