<?xml version="1.0" encoding="UTF-8"?>
<svg xmlns="http://www.w3.org/2000/svg" xmlns:xlink="http://www.w3.org/1999/xlink" width="24" height="24" viewBox="0 0 24 24">
<path fill-rule="nonzero" fill="rgb(0%, 0%, 0%)" fill-opacity="1" d="M 22.398438 2.398438 L 22.398438 21.601562 C 22.398438 22.046875 22.046875 22.398438 21.601562 22.398438 L 2.398438 22.398438 C 1.953125 22.398438 1.601562 22.046875 1.601562 21.601562 L 1.601562 2.398438 C 1.601562 1.953125 1.953125 1.601562 2.398438 1.601562 L 21.601562 1.601562 C 22.046875 1.601562 22.398438 1.953125 22.398438 2.398438 Z M 20.800781 8 L 16 8 L 16 12.800781 L 20.800781 12.800781 Z M 17.601562 14.398438 L 16 14.398438 L 16 16 L 17.601562 16 Z M 20.800781 14.398438 L 19.199219 14.398438 L 19.199219 16 L 20.800781 16 Z M 3.199219 8 L 3.199219 11.199219 L 8 11.199219 L 8 8 Z M 3.199219 12.800781 L 3.199219 16 L 8 16 L 8 12.800781 Z M 3.199219 17.601562 L 3.199219 20.800781 L 8 20.800781 L 8 17.601562 Z M 9.601562 17.601562 L 9.601562 20.800781 L 14.398438 20.800781 L 14.398438 17.601562 Z M 9.601562 12.800781 L 9.601562 16 L 14.398438 16 L 14.398438 12.800781 Z M 9.601562 8 L 9.601562 11.199219 L 14.398438 11.199219 L 14.398438 8 Z M 9.601562 3.199219 L 9.601562 6.398438 L 14.398438 6.398438 L 14.398438 3.199219 Z M 8 3.199219 L 3.199219 3.199219 L 3.199219 6.398438 L 8 6.398438 Z M 8 3.199219 "/>
</svg>
