<?xml version="1.0" encoding="UTF-8"?>
<svg xmlns="http://www.w3.org/2000/svg" xmlns:xlink="http://www.w3.org/1999/xlink" width="24" height="24" viewBox="0 0 24 24">
<path fill-rule="nonzero" fill="rgb(0%, 0%, 0%)" fill-opacity="1" d="M 19.199219 0 C 20.800781 0 20.800781 0 20.800781 1.601562 L 20.800781 22.398438 C 20.800781 24 20.800781 24 19.199219 24 L 4.800781 24 C 3.199219 24 3.199219 24 3.199219 22.398438 L 3.199219 1.601562 C 3.199219 0 3.199219 0 4.800781 0 Z M 16 19.199219 L 6.398438 19.199219 L 6.398438 20.800781 L 16 20.800781 Z M 19.199219 14.398438 L 17.601562 14.398438 L 17.601562 15.601562 L 19.199219 15.601562 Z M 16 3.199219 L 6.398438 3.199219 L 6.398438 16 L 16 16 Z M 19.199219 12 L 17.601562 12 L 17.601562 13.199219 L 19.199219 13.199219 Z M 19.199219 9.601562 L 17.601562 9.601562 L 17.601562 10.800781 L 19.199219 10.800781 Z M 19.199219 7.199219 L 17.601562 7.199219 L 17.601562 8.398438 L 19.199219 8.398438 Z M 19.199219 7.199219 "/>
<path fill-rule="nonzero" fill="rgb(0%, 0%, 0%)" fill-opacity="1" d="M 8 12 C 8 12 8.574219 11.199219 8.574219 11.199219 C 8.574219 11.199219 10.398438 10.800781 8.800781 10.800781 C 8.800781 10.800781 9.3125 10 9.3125 10 C 9.3125 10 11.199219 9.601562 9.601562 9.601562 C 9.601562 9.601562 10.113281 8.800781 10.113281 8.800781 C 10.113281 8.800781 12 8.398438 10.398438 8.398438 C 10.398438 8.398438 10.929688 7.601562 10.929688 7.601562 C 10.929688 7.601562 12.800781 7.199219 11.199219 7.199219 C 11.199219 7.199219 11.726562 6.398438 11.726562 6.398438 C 11.726562 6.398438 13.601562 6 12 6 C 12 6 12.800781 4.800781 12.800781 4.800781 C 14.398438 2.398438 15.601562 4 13.601562 7.199219 C 13.601562 7.199219 8.800781 14.398438 8.800781 14.398438 C 7.601562 16 6 15.199219 8 12 Z M 8 12 "/>
</svg>
