<?xml version="1.0" encoding="UTF-8"?>
<svg xmlns="http://www.w3.org/2000/svg" xmlns:xlink="http://www.w3.org/1999/xlink" width="24" height="24" viewBox="0 0 24 24">
<path fill-rule="nonzero" fill="rgb(0%, 0%, 0%)" fill-opacity="1" d="M 17.601562 0 C 19.199219 0 19.199219 0 19.199219 1.601562 L 19.199219 22.398438 C 19.199219 24 19.199219 24 17.601562 24 C 17.601562 24 6.398438 24 6.398438 24 C 4.800781 24 4.800781 24 4.800781 22.398438 L 4.800781 1.601562 C 4.800781 0 4.800781 0 6.398438 0 Z M 10 12.800781 C 10 12.800781 8.800781 12.800781 8.800781 12.800781 C 8 12.800781 8 13.601562 8 13.601562 C 8 13.601562 8 21.601562 8 21.601562 C 8 22.398438 8.800781 22.398438 8.800781 22.398438 L 15.199219 22.398438 C 15.199219 22.398438 16 22.398438 16 21.601562 C 16 21.601562 16 13.601562 16 13.601562 C 16 12.800781 15.199219 12.800781 15.199219 12.800781 L 14 12.800781 C 14 12.800781 13.601562 14.367188 13.601562 14.367188 C 13.601562 14.769531 10.398438 14.769531 10.398438 14.367188 C 10.398438 14.367188 10 12.800781 10 12.800781 Z M 16.800781 1.601562 L 7.199219 1.601562 C 7.199219 1.601562 6.398438 1.601562 6.398438 2.398438 C 6.398438 2.398438 6.398438 8.800781 6.398438 8.800781 C 6.398438 8.800781 6.398438 9.601562 7.199219 9.601562 C 7.199219 9.601562 16.800781 9.601562 16.800781 9.601562 C 16.800781 9.601562 17.601562 9.601562 17.601562 8.800781 C 17.601562 8.800781 17.601562 2.398438 17.601562 2.398438 C 17.601562 1.601562 16.800781 1.601562 16.800781 1.601562 Z M 16.800781 1.601562 "/>
<path fill-rule="nonzero" fill="rgb(0%, 0%, 0%)" fill-opacity="1" d="M 10 18.398438 C 10 18.800781 14 18.800781 14 18.398438 C 14 18.398438 13.601562 21.601562 13.601562 21.601562 C 13.601562 22.398438 10.398438 22.398438 10.398438 21.601562 C 10.398438 21.601562 10 18.398438 10 18.398438 Z M 10.847656 15.984375 L 10.078125 16.910156 L 11.007812 17.679688 L 11.777344 16.753906 Z M 12.222656 16.945312 L 12 18.128906 L 13.183594 18.351562 L 13.40625 17.167969 Z M 11.519531 15.566406 L 12.0625 16.640625 L 13.136719 16.097656 L 12.59375 15.023438 Z M 11.519531 15.566406 "/>
<path fill-rule="nonzero" fill="rgb(0%, 0%, 0%)" fill-opacity="1" d="M 12 2 L 12.304688 2.191406 L 12.304688 3.152344 L 12.878906 2.847656 L 13.199219 3.023438 L 13.199219 3.328125 L 12.304688 3.792969 L 12.304688 4.414062 L 12.894531 4.078125 L 12.894531 4.753906 L 13.503906 4.433594 L 13.503906 3.457031 L 13.710938 3.328125 L 13.953125 3.457031 L 13.953125 4.078125 L 14.832031 3.632812 L 15.152344 3.808594 L 15.152344 4.160156 L 14.320312 4.640625 L 14.847656 4.929688 L 14.847656 5.265625 L 14.574219 5.425781 L 13.777344 4.945312 L 13.230469 5.296875 L 13.761719 5.632812 L 13.214844 5.953125 L 13.777344 6.238281 L 14.574219 5.792969 L 14.847656 5.984375 L 14.847656 6.304688 L 14.351562 6.59375 L 15.152344 7.054688 L 15.152344 7.441406 L 14.769531 7.585938 L 13.953125 7.136719 L 13.953125 7.726562 L 13.726562 7.886719 L 13.503906 7.726562 L 13.503906 6.832031 L 12.894531 6.511719 L 12.894531 7.136719 L 12.304688 6.785156 L 12.304688 7.40625 L 13.054688 7.855469 L 13.054688 8.222656 L 12.800781 8.351562 L 12.304688 8.046875 L 12.304688 9.007812 L 12 9.199219 L 11.695312 9.007812 L 11.695312 8.046875 L 11.199219 8.351562 L 10.945312 8.191406 L 10.945312 7.855469 L 11.695312 7.40625 L 11.695312 6.785156 L 11.105469 7.152344 L 11.105469 6.496094 L 10.496094 6.816406 L 10.496094 7.710938 L 10.257812 7.886719 L 10.046875 7.726562 L 10.046875 7.121094 L 9.214844 7.585938 L 8.847656 7.441406 L 8.847656 7.054688 L 9.695312 6.59375 L 9.152344 6.320312 L 9.152344 5.96875 L 9.472656 5.792969 L 10.257812 6.257812 L 10.800781 5.9375 L 10.785156 5.9375 L 10.222656 5.617188 L 10.769531 5.28125 L 10.222656 4.976562 L 9.457031 5.425781 L 9.152344 5.28125 L 9.152344 4.929688 L 9.679688 4.640625 L 8.847656 4.175781 L 8.847656 3.808594 L 9.199219 3.632812 L 10.046875 4.113281 L 10.046875 3.503906 L 10.273438 3.328125 L 10.558594 3.503906 L 10.558594 4.433594 L 11.105469 4.753906 L 11.121094 4.097656 L 11.695312 4.414062 L 11.695312 3.792969 L 10.945312 3.34375 L 10.945312 3.007812 L 11.199219 2.847656 L 11.695312 3.152344 L 11.695312 2.191406 Z M 12 2 "/>
</svg>
