<?xml version="1.0" encoding="UTF-8"?>
<svg xmlns="http://www.w3.org/2000/svg" xmlns:xlink="http://www.w3.org/1999/xlink" width="24" height="24" viewBox="0 0 24 24">
<path fill-rule="nonzero" fill="rgb(0%, 0%, 0%)" fill-opacity="1" d="M 19.199219 0 C 20.800781 0 20.800781 0 20.800781 1.601562 L 20.800781 22.398438 C 20.800781 24 20.800781 24 19.199219 24 L 4.800781 24 C 3.199219 24 3.199219 24 3.199219 22.398438 L 3.199219 1.601562 C 3.199219 0 3.199219 0 4.800781 0 Z M 16 19.199219 L 6.398438 19.199219 L 6.398438 20.800781 L 16 20.800781 Z M 19.199219 14.398438 L 17.601562 14.398438 L 17.601562 15.601562 L 19.199219 15.601562 Z M 16 3.199219 L 6.398438 3.199219 L 6.398438 16 L 16 16 Z M 19.199219 12 L 17.601562 12 L 17.601562 13.199219 L 19.199219 13.199219 Z M 19.199219 9.601562 L 17.601562 9.601562 L 17.601562 10.800781 L 19.199219 10.800781 Z M 19.199219 7.199219 L 17.601562 7.199219 L 17.601562 8.398438 L 19.199219 8.398438 Z M 19.199219 7.199219 "/>
<path fill-rule="nonzero" fill="rgb(0%, 0%, 0%)" fill-opacity="1" d="M 14.398438 4.398438 L 14.398438 14.800781 C 14.398438 14.800781 12.398438 14.800781 12.398438 14.800781 C 12.398438 13.199219 10 13.199219 10 14.800781 C 10 14.800781 8 14.800781 8 14.800781 C 8 14.800781 8 4.398438 8 4.398438 L 10 4.398438 C 10 6 12.398438 6 12.398438 4.398438 Z M 13.199219 6.398438 C 13.199219 6.398438 9.199219 6.398438 9.199219 6.398438 L 9.199219 12.800781 L 13.199219 12.800781 C 13.199219 12.800781 13.199219 6.398438 13.199219 6.398438 Z M 12.800781 6.800781 L 12.800781 12.398438 L 9.601562 12.398438 L 9.601562 6.800781 Z M 12.800781 6.800781 "/>
</svg>
