<?xml version="1.0" encoding="UTF-8"?>
<svg xmlns="http://www.w3.org/2000/svg" xmlns:xlink="http://www.w3.org/1999/xlink" width="24" height="24" viewBox="0 0 24 24">
<path fill-rule="nonzero" fill="rgb(0%, 0%, 0%)" fill-opacity="1" d="M 17.601562 0 C 19.199219 0 19.199219 0 19.199219 1.601562 L 19.199219 22.398438 C 19.199219 24 19.199219 24 17.601562 24 C 17.601562 24 6.398438 24 6.398438 24 C 4.800781 24 4.800781 24 4.800781 22.398438 L 4.800781 1.601562 C 4.800781 0 4.800781 0 6.398438 0 Z M 7.199219 12.800781 C 7.199219 12.800781 6.398438 12.800781 6.398438 13.601562 C 6.398438 13.601562 6.398438 21.601562 6.398438 21.601562 C 6.398438 22.398438 7.199219 22.398438 7.199219 22.398438 L 16.800781 22.398438 C 16.800781 22.398438 17.601562 22.398438 17.601562 21.601562 C 17.601562 21.601562 17.601562 13.601562 17.601562 13.601562 C 17.601562 12.800781 16.800781 12.800781 16.800781 12.800781 C 16.800781 12.800781 7.199219 12.800781 7.199219 12.800781 Z M 16.800781 1.601562 L 7.199219 1.601562 C 7.199219 1.601562 6.398438 1.601562 6.398438 2.398438 C 6.398438 2.398438 6.398438 8.800781 6.398438 8.800781 C 6.398438 8.800781 6.398438 9.601562 7.199219 9.601562 C 7.199219 9.601562 16.800781 9.601562 16.800781 9.601562 C 16.800781 9.601562 17.601562 9.601562 17.601562 8.800781 C 17.601562 8.800781 17.601562 2.398438 17.601562 2.398438 C 17.601562 1.601562 16.800781 1.601562 16.800781 1.601562 Z M 16.800781 1.601562 "/>
<path fill-rule="nonzero" fill="rgb(0%, 0%, 0%)" fill-opacity="1" d="M 12 3.199219 C 14.671875 3.199219 16.800781 4 16.800781 5.601562 C 16.800781 7.199219 14.671875 8 12 8 C 9.328125 8 7.199219 7.199219 7.199219 5.601562 C 7.199219 4 9.328125 3.199219 12 3.199219 Z M 11.617188 6.992188 C 11.503906 6.992188 11.40625 7.070312 11.40625 7.183594 C 11.390625 7.296875 11.488281 7.390625 11.601562 7.390625 C 11.726562 7.390625 11.855469 7.40625 12 7.40625 C 12.113281 7.40625 12.207031 7.3125 12.207031 7.199219 C 12.207031 7.089844 12.113281 7.007812 12 7.007812 C 11.871094 7.007812 11.742188 6.992188 11.617188 6.992188 Z M 13.054688 6.945312 C 12.929688 6.960938 12.800781 6.976562 12.671875 6.976562 C 12.558594 6.992188 12.480469 7.089844 12.480469 7.183594 C 12.480469 7.296875 12.574219 7.390625 12.6875 7.375 C 12.832031 7.375 12.960938 7.359375 13.105469 7.34375 C 13.214844 7.328125 13.296875 7.230469 13.28125 7.121094 C 13.265625 7.007812 13.167969 6.929688 13.054688 6.945312 Z M 10.449219 6.878906 C 10.335938 6.847656 10.222656 6.929688 10.207031 7.039062 C 10.191406 7.152344 10.257812 7.246094 10.367188 7.265625 C 10.511719 7.296875 10.640625 7.3125 10.785156 7.328125 C 10.878906 7.34375 10.992188 7.265625 11.007812 7.152344 C 11.007812 7.039062 10.945312 6.945312 10.832031 6.929688 C 10.6875 6.910156 10.558594 6.894531 10.449219 6.878906 Z M 14.289062 6.703125 C 14.160156 6.734375 14.046875 6.769531 13.921875 6.800781 C 13.808594 6.832031 13.742188 6.929688 13.761719 7.039062 C 13.792969 7.152344 13.886719 7.214844 14 7.199219 C 14.144531 7.167969 14.273438 7.136719 14.398438 7.089844 C 14.511719 7.054688 14.558594 6.945312 14.527344 6.847656 C 14.511719 6.734375 14.398438 6.671875 14.289062 6.703125 Z M 9.3125 6.574219 C 9.214844 6.527344 9.105469 6.574219 9.054688 6.6875 C 9.023438 6.785156 9.070312 6.910156 9.167969 6.945312 C 9.296875 6.992188 9.425781 7.039062 9.566406 7.070312 C 9.664062 7.105469 9.777344 7.054688 9.808594 6.945312 C 9.839844 6.832031 9.792969 6.734375 9.679688 6.6875 C 9.550781 6.65625 9.425781 6.625 9.3125 6.574219 Z M 15.535156 6.160156 L 15.390625 6.207031 C 15.296875 6.273438 15.199219 6.335938 15.070312 6.398438 C 14.976562 6.449219 14.945312 6.574219 14.992188 6.671875 C 15.039062 6.769531 15.167969 6.800781 15.265625 6.753906 C 15.390625 6.671875 15.519531 6.609375 15.632812 6.527344 C 15.710938 6.464844 15.742188 6.335938 15.664062 6.238281 Z M 8.222656 5.902344 L 8.078125 5.9375 C 7.984375 6.015625 7.984375 6.144531 8.046875 6.222656 C 8.144531 6.335938 8.257812 6.433594 8.382812 6.527344 C 8.464844 6.59375 8.59375 6.574219 8.65625 6.480469 C 8.71875 6.398438 8.703125 6.273438 8.625 6.207031 C 8.511719 6.128906 8.433594 6.046875 8.351562 5.96875 Z M 16 5.121094 L 15.839844 5.121094 C 15.742188 5.167969 15.695312 5.296875 15.742188 5.390625 C 15.808594 5.617188 15.792969 5.648438 15.792969 5.664062 C 15.777344 5.777344 15.839844 5.886719 15.953125 5.902344 C 16.0625 5.921875 16.175781 5.839844 16.191406 5.742188 C 16.191406 5.695312 16.207031 5.648438 16.207031 5.585938 C 16.191406 5.472656 16.160156 5.34375 16.113281 5.214844 Z M 8.320312 4.785156 L 8.175781 4.847656 C 8.046875 4.960938 7.953125 5.089844 7.886719 5.214844 C 7.839844 5.328125 7.886719 5.441406 7.984375 5.488281 C 8.078125 5.535156 8.207031 5.488281 8.257812 5.390625 C 8.289062 5.3125 8.351562 5.214844 8.449219 5.136719 C 8.527344 5.054688 8.527344 4.929688 8.464844 4.847656 Z M 14.878906 4.335938 L 14.769531 4.449219 C 14.734375 4.542969 14.769531 4.65625 14.878906 4.703125 C 14.992188 4.769531 15.105469 4.816406 15.214844 4.878906 C 15.3125 4.945312 15.425781 4.910156 15.488281 4.816406 C 15.535156 4.71875 15.503906 4.59375 15.40625 4.542969 C 15.296875 4.464844 15.167969 4.398438 15.039062 4.335938 Z M 9.359375 4.191406 C 9.214844 4.238281 9.089844 4.289062 8.960938 4.335938 C 8.863281 4.382812 8.816406 4.511719 8.863281 4.609375 C 8.910156 4.703125 9.023438 4.753906 9.136719 4.703125 C 9.230469 4.65625 9.359375 4.609375 9.488281 4.558594 C 9.585938 4.527344 9.648438 4.414062 9.617188 4.320312 C 9.566406 4.207031 9.457031 4.160156 9.359375 4.191406 Z M 13.839844 3.96875 C 13.726562 3.953125 13.617188 4.015625 13.601562 4.128906 C 13.585938 4.238281 13.648438 4.335938 13.761719 4.367188 C 13.886719 4.382812 14.015625 4.414062 14.128906 4.449219 C 14.238281 4.480469 14.351562 4.414062 14.382812 4.304688 C 14.398438 4.207031 14.335938 4.097656 14.238281 4.0625 C 14.113281 4.03125 13.96875 4 13.839844 3.96875 Z M 10.65625 3.886719 C 10.511719 3.902344 10.367188 3.9375 10.238281 3.953125 C 10.128906 3.984375 10.0625 4.078125 10.078125 4.191406 C 10.113281 4.304688 10.207031 4.367188 10.320312 4.351562 C 10.449219 4.320312 10.574219 4.304688 10.703125 4.289062 C 10.816406 4.273438 10.894531 4.175781 10.878906 4.0625 C 10.863281 3.953125 10.753906 3.871094 10.65625 3.886719 Z M 12.609375 3.824219 C 12.511719 3.808594 12.414062 3.902344 12.398438 4 C 12.398438 4.113281 12.480469 4.207031 12.59375 4.222656 C 12.71875 4.222656 12.847656 4.238281 12.976562 4.257812 C 13.089844 4.257812 13.183594 4.175781 13.199219 4.0625 C 13.214844 3.96875 13.136719 3.855469 13.023438 3.855469 C 12.894531 3.839844 12.753906 3.824219 12.609375 3.824219 Z M 11.777344 3.808594 C 11.648438 3.808594 11.503906 3.808594 11.375 3.824219 C 11.265625 3.824219 11.183594 3.921875 11.183594 4.03125 C 11.199219 4.144531 11.296875 4.222656 11.390625 4.222656 C 11.519531 4.207031 11.664062 4.207031 11.792969 4.207031 C 11.902344 4.207031 11.984375 4.113281 11.984375 4 C 11.984375 3.886719 11.886719 3.808594 11.777344 3.808594 Z M 11.777344 3.808594 "/>
<path fill-rule="nonzero" fill="rgb(0%, 0%, 0%)" fill-opacity="1" d="M 12 13.601562 C 14.273438 13.601562 16 15.472656 16 17.601562 C 16 19.726562 14.273438 21.601562 12 21.601562 C 9.726562 21.601562 8 19.871094 8 17.601562 C 8 15.328125 9.726562 13.601562 12 13.601562 Z M 11.199219 18.527344 C 11.199219 18.527344 9.664062 19.601562 9.664062 19.601562 C 9.664062 19.601562 10.398438 20.671875 12 20.671875 C 13.601562 20.671875 14.335938 19.601562 14.335938 19.601562 C 14.335938 19.601562 12.800781 18.527344 12.800781 18.527344 C 12.304688 18.863281 11.695312 18.863281 11.199219 18.527344 Z M 11.472656 14.527344 C 10.128906 14.800781 8.929688 16.128906 8.929688 17.601562 C 8.929688 18.433594 9.167969 18.769531 9.167969 18.769531 C 9.167969 18.769531 10.800781 17.726562 10.800781 17.726562 C 10.800781 17.726562 10.671875 16.929688 11.472656 16.527344 C 11.472656 16.527344 11.472656 14.527344 11.472656 14.527344 Z M 12.527344 14.527344 C 12.527344 14.527344 12.527344 16.527344 12.527344 16.527344 C 13.328125 16.929688 13.199219 17.726562 13.199219 17.726562 C 13.199219 17.726562 14.832031 18.769531 14.832031 18.769531 C 14.832031 18.769531 15.070312 18.398438 15.070312 17.601562 C 15.070312 16.128906 13.871094 14.800781 12.527344 14.527344 Z M 12.527344 14.527344 "/>
</svg>
