<?xml version="1.0" encoding="UTF-8"?>
<svg xmlns="http://www.w3.org/2000/svg" xmlns:xlink="http://www.w3.org/1999/xlink" width="24" height="24" viewBox="0 0 24 24">
<path fill-rule="nonzero" fill="rgb(0%, 0%, 0%)" fill-opacity="1" d="M 19.199219 0 C 20.800781 0 20.800781 0 20.800781 1.601562 L 20.800781 22.398438 C 20.800781 24 20.800781 24 19.199219 24 L 4.800781 24 C 3.199219 24 3.199219 24 3.199219 22.398438 L 3.199219 1.601562 C 3.199219 0 3.199219 0 4.800781 0 Z M 16 19.199219 L 6.398438 19.199219 L 6.398438 20.800781 L 16 20.800781 Z M 19.199219 14.398438 L 17.601562 14.398438 L 17.601562 15.601562 L 19.199219 15.601562 Z M 16 3.199219 L 6.398438 3.199219 L 6.398438 16 L 16 16 Z M 19.199219 12 L 17.601562 12 L 17.601562 13.199219 L 19.199219 13.199219 Z M 19.199219 9.601562 L 17.601562 9.601562 L 17.601562 10.800781 L 19.199219 10.800781 Z M 19.199219 7.199219 L 17.601562 7.199219 L 17.601562 8.398438 L 19.199219 8.398438 Z M 19.199219 7.199219 "/>
<path fill-rule="nonzero" fill="rgb(0%, 0%, 0%)" fill-opacity="1" d="M 14.398438 8.800781 C 14.398438 8.800781 13.199219 15.199219 13.199219 15.199219 C 13.199219 15.601562 9.199219 15.601562 9.199219 15.199219 C 9.199219 15.199219 8 8.800781 8 8.800781 C 8.398438 9.199219 14 9.199219 14.398438 8.800781 Z M 11.601562 8 C 12.800781 7.601562 13.199219 7.199219 13.199219 6.398438 C 13.199219 6 12.800781 5.601562 12 5.199219 C 11.199219 4.800781 10.800781 4.398438 10.800781 3.601562 C 10.398438 4.398438 10.800781 5.601562 11.601562 6 C 13.601562 6.800781 11.601562 8 11.601562 8 Z M 9.601562 8 C 10.222656 7.824219 10.574219 7.824219 10.558594 7.199219 C 10.558594 6.847656 10.609375 6.65625 10.03125 6.398438 C 9.503906 6.175781 9.199219 5.601562 9.199219 5.199219 C 8.800781 5.601562 9.070312 6.398438 9.601562 6.800781 C 10.671875 7.34375 9.601562 8 9.601562 8 Z M 9.601562 8 "/>
</svg>
