<?xml version="1.0" encoding="UTF-8"?>
<svg xmlns="http://www.w3.org/2000/svg" xmlns:xlink="http://www.w3.org/1999/xlink" width="24" height="24" viewBox="0 0 24 24">
<path fill-rule="nonzero" fill="rgb(0%, 0%, 0%)" fill-opacity="1" d="M 17.96875 18.785156 L 17.953125 18.832031 C 17.742188 19.96875 16.753906 20.800781 15.601562 20.800781 L 8.398438 20.800781 C 7.246094 20.800781 6.257812 19.96875 6.046875 18.832031 L 5.761719 17.28125 L 9.601562 16 L 5.265625 14.558594 L 4.894531 12.496094 L 8.800781 11.199219 L 4.382812 9.726562 L 4.015625 7.726562 L 8 6.398438 L 3.761719 4.992188 C 3.984375 4.113281 4.703125 3.40625 5.648438 3.230469 C 5.792969 3.214844 5.9375 3.199219 6.078125 3.199219 L 17.921875 3.199219 C 19.246094 3.199219 20.320312 4.273438 20.320312 5.601562 C 20.320312 5.742188 20.304688 5.886719 20.289062 6.03125 L 20.175781 6.609375 L 16 8 L 19.695312 9.230469 L 19.296875 11.441406 L 15.199219 12.800781 L 18.832031 14.015625 L 18.433594 16.257812 L 14.398438 17.601562 Z M 11.199219 0 L 12.800781 0 L 12.800781 2.398438 L 11.199219 2.398438 Z M 11.199219 21.601562 L 12.800781 21.601562 L 12.800781 24 L 11.199219 24 Z M 11.199219 21.601562 "/>
</svg>
