<?xml version="1.0" encoding="UTF-8"?>
<svg xmlns="http://www.w3.org/2000/svg" xmlns:xlink="http://www.w3.org/1999/xlink" width="24" height="24" viewBox="0 0 24 24">
<path fill-rule="nonzero" fill="rgb(0%, 0%, 0%)" fill-opacity="1" d="M 8.871094 9.0625 C 9.988281 8.871094 10.820312 7.851562 10.945312 6.636719 C 11.074219 5.398438 11.363281 0.425781 9.496094 0.742188 C 4.652344 1.566406 4.992188 9.71875 8.871094 9.0625 Z M 15.238281 9.0625 C 19.117188 9.71875 19.460938 1.566406 14.617188 0.742188 C 12.75 0.425781 13.035156 5.398438 13.167969 6.636719 C 13.292969 7.859375 14.121094 8.875 15.238281 9.0625 Z M 6.878906 12.90625 C 6.878906 12.257812 6.648438 11.671875 6.273438 11.246094 C 5.664062 10.445312 3.714844 8.832031 3.238281 9.246094 C 2.242188 10.113281 2.273438 12.246094 2.875 13.796875 C 3.183594 14.660156 3.929688 15.265625 4.800781 15.265625 C 5.945312 15.265625 6.878906 14.207031 6.878906 12.90625 Z M 20.867188 9.246094 C 20.390625 8.832031 18.441406 10.449219 17.832031 11.246094 C 17.460938 11.671875 17.226562 12.257812 17.226562 12.90625 C 17.226562 14.207031 18.160156 15.265625 19.304688 15.265625 C 20.179688 15.265625 20.921875 14.660156 21.230469 13.796875 C 21.832031 12.246094 21.863281 10.113281 20.867188 9.246094 Z M 16.957031 16.578125 C 15.191406 15.699219 15.25 14.007812 14.847656 12.460938 C 14.53125 11.226562 13.398438 10.316406 12.054688 10.316406 C 10.738281 10.316406 9.625 11.1875 9.277344 12.382812 C 8.851562 13.863281 9.105469 15.585938 7.1875 16.570312 C 5.625 17.078125 4.992188 17.824219 4.992188 19.578125 C 4.992188 21.003906 6.214844 22.535156 7.800781 22.722656 C 9.566406 22.988281 10.9375 22.640625 12.058594 22.007812 C 13.171875 22.640625 14.546875 22.992188 16.316406 22.722656 C 17.894531 22.53125 19.125 21.007812 19.125 19.578125 C 19.125 17.785156 18.527344 17.117188 16.964844 16.578125 Z M 14.875 18.726562 L 13.046875 18.726562 L 13.050781 20.644531 L 11.054688 20.644531 L 11.058594 18.726562 L 9.121094 18.726562 L 9.121094 16.804688 L 11.0625 16.804688 L 11.058594 14.886719 L 13.054688 14.886719 L 13.054688 16.804688 L 14.886719 16.804688 L 14.886719 18.726562 Z M 14.875 18.726562 "/>
</svg>
