<?xml version="1.0" encoding="UTF-8"?>
<svg xmlns="http://www.w3.org/2000/svg" xmlns:xlink="http://www.w3.org/1999/xlink" width="24" height="24" viewBox="0 0 24 24">
<path fill-rule="nonzero" fill="rgb(0%, 0%, 0%)" fill-opacity="1" d="M 10.398438 12.800781 C 10.84375 12.800781 11.199219 13.15625 11.199219 13.601562 L 11.199219 15.199219 C 11.199219 15.640625 10.84375 16 10.398438 16 L 5.601562 16 C 5.15625 16 4.800781 15.640625 4.800781 15.199219 L 4.800781 13.601562 C 4.800781 13.15625 5.15625 12.800781 5.601562 12.800781 Z M 8 10.398438 C 8 10.84375 8.359375 11.199219 8.800781 11.199219 L 13.601562 11.199219 C 14.042969 11.199219 14.398438 10.84375 14.398438 10.398438 L 14.398438 8.800781 C 14.398438 8.359375 14.042969 8 13.601562 8 L 8.800781 8 C 8.359375 8 8 8.359375 8 8.800781 Z M 13.601562 17.601562 L 8.800781 17.601562 C 8.359375 17.601562 8 17.957031 8 18.398438 L 8 20 C 8 20.441406 8.359375 20.800781 8.800781 20.800781 L 13.601562 20.800781 C 14.042969 20.800781 14.398438 20.441406 14.398438 20 L 14.398438 18.398438 C 14.398438 17.957031 14.042969 17.601562 13.601562 17.601562 Z M 21.601562 3.199219 L 18.398438 3.199219 C 17.957031 3.199219 17.601562 3.558594 17.601562 4 L 17.601562 5.601562 C 17.601562 6.042969 17.957031 6.398438 18.398438 6.398438 L 20.800781 6.398438 L 20.800781 8 L 16.800781 8 C 16.359375 8 16 8.359375 16 8.800781 L 16 10.398438 C 16 10.84375 16.359375 11.199219 16.800781 11.199219 L 20.800781 11.199219 L 20.800781 17.601562 L 16.800781 17.601562 C 16.359375 17.601562 16 17.957031 16 18.398438 L 16 20 C 16 20.441406 16.359375 20.800781 16.800781 20.800781 L 21.601562 20.800781 C 22.042969 20.800781 22.398438 20.441406 22.398438 20 L 22.398438 4 C 22.398438 3.558594 22.042969 3.199219 21.601562 3.199219 Z M 15.199219 3.199219 L 10.398438 3.199219 C 9.957031 3.199219 9.601562 3.558594 9.601562 4 L 9.601562 5.601562 C 9.601562 6.042969 9.957031 6.398438 10.398438 6.398438 L 15.199219 6.398438 C 15.640625 6.398438 16 6.042969 16 5.601562 L 16 4 C 16 3.558594 15.640625 3.199219 15.199219 3.199219 Z M 7.199219 3.199219 L 2.398438 3.199219 C 1.957031 3.199219 1.601562 3.558594 1.601562 4 L 1.601562 20 C 1.601562 20.441406 1.957031 20.800781 2.398438 20.800781 L 5.601562 20.800781 C 6.042969 20.800781 6.398438 20.441406 6.398438 20 L 6.398438 18.398438 C 6.398438 17.957031 6.042969 17.601562 5.601562 17.601562 L 3.199219 17.601562 L 3.199219 11.199219 L 5.601562 11.199219 C 6.042969 11.199219 6.398438 10.84375 6.398438 10.398438 L 6.398438 8.800781 C 6.398438 8.359375 6.042969 8 5.601562 8 L 3.199219 8 L 3.199219 6.398438 L 7.199219 6.398438 C 7.640625 6.398438 8 6.042969 8 5.601562 L 8 4 C 8 3.558594 7.640625 3.199219 7.199219 3.199219 Z M 12.800781 13.601562 L 12.800781 15.199219 C 12.800781 15.640625 13.15625 16 13.601562 16 L 18.398438 16 C 18.84375 16 19.199219 15.640625 19.199219 15.199219 L 19.199219 13.601562 C 19.199219 13.15625 18.84375 12.800781 18.398438 12.800781 L 13.601562 12.800781 C 13.15625 12.800781 12.800781 13.15625 12.800781 13.601562 Z M 12.800781 13.601562 "/>
</svg>
