<?xml version="1.0" encoding="UTF-8"?>
<svg xmlns="http://www.w3.org/2000/svg" xmlns:xlink="http://www.w3.org/1999/xlink" width="24" height="24" viewBox="0 0 24 24">
<path fill-rule="nonzero" fill="rgb(0%, 0%, 0%)" fill-opacity="1" d="M 12 0 C 18.398438 0 24 5.601562 24 12 C 24 18.398438 18.398438 24 12 24 C 5.601562 24 0 18.398438 0 12 C 0 5.601562 5.601562 0 12 0 Z M 12 1.601562 C 6.398438 1.601562 1.601562 6.398438 1.601562 12 C 1.601562 17.601562 6.398438 22.398438 12 22.398438 C 17.601562 22.398438 22.398438 17.601562 22.398438 12 C 22.398438 6.398438 17.601562 1.601562 12 1.601562 Z M 4.542969 11.167969 C 4.929688 11.214844 6.832031 11.40625 7.296875 11.457031 C 7.761719 11.519531 7.566406 12.878906 7.152344 12.832031 C 6.71875 12.800781 4.847656 12.609375 4.398438 12.542969 C 3.9375 12.496094 4.144531 11.121094 4.542969 11.167969 Z M 16.511719 11.167969 C 17.070312 11.105469 18.625 10.960938 19.230469 10.910156 C 19.855469 10.847656 19.871094 12.304688 19.328125 12.351562 C 18.769531 12.414062 17.28125 12.542969 16.703125 12.609375 C 16.113281 12.65625 15.953125 11.246094 16.511719 11.167969 Z M 11.679688 11.34375 C 11.824219 10.910156 13.054688 11.296875 12.894531 11.792969 C 12.753906 12.304688 12.222656 13.96875 12.0625 14.398438 C 11.902344 14.847656 10.542969 14.527344 10.71875 14.03125 C 10.910156 13.550781 11.550781 11.710938 11.679688 11.34375 Z M 15.152344 15.214844 C 15.617188 15.390625 17.34375 16.046875 17.726562 16.207031 C 18.113281 16.382812 17.648438 17.695312 17.230469 17.503906 C 16.71875 17.328125 15.121094 16.71875 14.65625 16.511719 C 14.175781 16.304688 14.671875 15.054688 15.152344 15.214844 Z M 7.519531 15.34375 C 7.648438 15.648438 8.382812 17.648438 8.496094 18.046875 C 8.625 18.449219 7.40625 18.945312 7.214844 18.511719 C 7.039062 18.0625 6.511719 16.367188 6.351562 15.921875 C 6.191406 15.488281 7.40625 15.054688 7.519531 15.34375 Z M 10.894531 17.535156 C 11.34375 17.710938 13.070312 18.257812 13.535156 18.398438 C 13.984375 18.542969 13.601562 19.871094 13.105469 19.710938 C 12.609375 19.550781 10.929688 19.023438 10.464844 18.863281 C 10.015625 18.6875 10.449219 17.375 10.894531 17.535156 Z M 20.800781 8 C 19.199219 9.601562 18 9.601562 16.398438 8 C 14.800781 9.601562 13.601562 9.601562 12 8 C 10.398438 9.601562 9.28125 9.601562 7.679688 8 C 6.078125 9.601562 4.800781 9.601562 3.199219 8 C 2.398438 9.601562 2.398438 11.199219 2.398438 12 C 2.398438 16.800781 6.398438 21.601562 12 21.601562 C 17.601562 21.601562 21.601562 16.800781 21.601562 12 C 21.601562 11.199219 21.601562 9.601562 20.800781 8 Z M 20.800781 8 "/>
</svg>
