<?xml version="1.0" encoding="UTF-8"?>
<svg xmlns="http://www.w3.org/2000/svg" xmlns:xlink="http://www.w3.org/1999/xlink" width="24" height="24" viewBox="0 0 24 24">
<path fill-rule="nonzero" fill="rgb(0%, 0%, 0%)" fill-opacity="1" d="M 12.800781 3.199219 L 12.800781 4.800781 L 14.398438 4.800781 C 16.160156 4.800781 17.601562 6.238281 17.601562 8 L 17.601562 22.398438 L 14.398438 22.398438 L 14.398438 8 L 9.601562 8 L 9.601562 11.199219 L 10.398438 11.199219 C 10.847656 11.199219 11.199219 11.550781 11.199219 12 L 11.199219 12.800781 L 4.800781 12.800781 L 4.800781 12 C 4.800781 11.550781 5.152344 11.199219 5.601562 11.199219 L 6.398438 11.199219 L 6.398438 8 C 6.398438 6.398438 8 4.800781 9.601562 4.800781 L 11.199219 4.800781 L 11.199219 3.199219 L 8.800781 3.199219 C 8.351562 3.199219 8 2.847656 8 2.398438 C 8 1.953125 8.351562 1.601562 8.800781 1.601562 L 15.199219 1.601562 C 15.648438 1.601562 16 1.953125 16 2.398438 C 16 2.847656 15.648438 3.199219 15.199219 3.199219 Z M 12.800781 3.199219 "/>
</svg>
