<?xml version="1.0" encoding="UTF-8"?>
<svg xmlns="http://www.w3.org/2000/svg" xmlns:xlink="http://www.w3.org/1999/xlink" width="24" height="24" viewBox="0 0 24 24">
<path fill-rule="nonzero" fill="rgb(0%, 0%, 0%)" fill-opacity="1" d="M 14.210938 20.851562 C 14.375 20.824219 14.542969 20.8125 14.710938 20.8125 C 15.226562 20.8125 15.71875 20.929688 16.15625 21.132812 C 16.585938 21.320312 17.058594 21.433594 17.558594 21.433594 C 18.058594 21.433594 18.542969 21.320312 18.964844 21.132812 C 19.402344 20.933594 19.894531 20.8125 20.40625 20.8125 C 20.921875 20.8125 21.308594 20.929688 21.742188 21.132812 C 22.171875 21.320312 22.554688 21.433594 23.035156 21.433594 L 23.035156 23.519531 C 22.554688 23.519531 22.167969 23.410156 21.742188 23.210938 C 21.308594 23.015625 20.867188 22.894531 20.351562 22.894531 C 19.84375 22.894531 19.371094 23.015625 18.941406 23.210938 C 18.511719 23.40625 18.046875 23.519531 17.546875 23.519531 C 17.050781 23.519531 16.578125 23.410156 16.15625 23.210938 C 15.71875 23.015625 15.230469 22.894531 14.71875 22.894531 C 14.207031 22.894531 13.714844 23.015625 13.273438 23.210938 C 12.84375 23.40625 12.371094 23.519531 11.871094 23.519531 C 11.371094 23.519531 10.894531 23.410156 10.46875 23.210938 C 10.03125 23.015625 9.542969 22.894531 9.023438 22.894531 C 8.503906 22.894531 8.015625 23.015625 7.578125 23.210938 C 7.15625 23.40625 6.675781 23.519531 6.183594 23.519531 C 5.683594 23.519531 5.207031 23.410156 4.78125 23.210938 C 4.339844 23.015625 3.84375 22.894531 3.335938 22.894531 C 2.824219 22.894531 2.328125 23.015625 1.890625 23.210938 C 1.464844 23.40625 0.988281 23.519531 0.488281 23.519531 L 0.488281 21.433594 C 0.988281 21.433594 1.464844 21.320312 1.890625 21.132812 C 2.328125 20.933594 2.824219 20.8125 3.335938 20.8125 C 3.84375 20.8125 4.339844 20.929688 4.78125 21.132812 C 5.207031 21.320312 5.683594 21.433594 6.183594 21.433594 C 6.675781 21.433594 7.15625 21.320312 7.578125 21.132812 C 7.828125 21.023438 8.089844 20.933594 8.363281 20.878906 L 21.632812 18.53125 C 22.066406 18.433594 22.652344 18.132812 22.851562 17.621094 C 22.890625 17.523438 23.035156 17.496094 23.15625 17.5 C 23.371094 17.515625 23.53125 17.699219 23.53125 17.914062 C 23.53125 18.25 23.265625 19.199219 21.816406 19.488281 L 14.222656 20.851562 Z M 2.699219 4.292969 C 3.757812 4.292969 4.621094 3.4375 4.621094 2.378906 C 4.621094 1.328125 3.757812 0.480469 2.699219 0.480469 C 1.636719 0.480469 0.78125 1.328125 0.78125 2.378906 C 0.78125 3.433594 1.640625 4.292969 2.699219 4.292969 Z M 8.28125 19.695312 C 8.375 20.117188 8.894531 20.523438 9.433594 20.523438 L 9.425781 20.53125 C 10.097656 20.53125 10.652344 19.988281 10.652344 19.316406 L 10.628906 19.117188 L 9.164062 12.886719 C 9.039062 12.488281 8.660156 12.109375 8.265625 11.953125 L 6.113281 10.671875 L 5.136719 6.46875 L 11.183594 6.460938 C 11.679688 6.460938 12.078125 6.128906 12.078125 5.636719 C 12.078125 5.144531 11.679688 4.804688 11.183594 4.804688 L 2.453125 4.804688 C 1.578125 4.804688 1.175781 5.367188 1.28125 5.902344 L 2.519531 11.441406 C 2.617188 11.964844 2.960938 12.394531 3.425781 12.625 L 3.457031 12.628906 L 7.054688 14.726562 L 8.285156 19.703125 Z M 12.480469 5.761719 L 23.519531 5.761719 L 23.519531 6.238281 L 12.480469 6.238281 Z M 12.480469 5.761719 "/>
</svg>
