<?xml version="1.0" encoding="UTF-8"?>
<svg xmlns="http://www.w3.org/2000/svg" xmlns:xlink="http://www.w3.org/1999/xlink" width="24" height="24" viewBox="0 0 24 24">
<path fill-rule="nonzero" fill="rgb(0%, 0%, 0%)" fill-opacity="1" d="M 12.175781 17.375 L 12.449219 16 L 6.753906 16 L 7.28125 18.609375 C 8.046875 19.246094 8.832031 19.167969 9.601562 18.398438 C 10.464844 17.535156 11.3125 17.199219 12.175781 17.375 Z M 14.398438 3.199219 L 14.398438 4.800781 L 16 4.800781 C 17.761719 4.800781 19.199219 6.238281 19.199219 8 L 19.199219 22.398438 L 16 22.398438 L 16 8 L 11.199219 8 L 11.199219 11.199219 L 12 11.199219 C 12.449219 11.199219 12.800781 11.550781 12.800781 12 L 12.800781 12.800781 L 6.398438 12.800781 L 6.398438 12 C 6.398438 11.550781 6.753906 11.199219 7.199219 11.199219 L 8 11.199219 L 8 8 C 8 6.398438 9.601562 4.800781 11.199219 4.800781 L 12.800781 4.800781 L 12.800781 3.199219 L 10.398438 3.199219 C 9.953125 3.199219 9.601562 2.847656 9.601562 2.398438 C 9.601562 1.953125 9.953125 1.601562 10.398438 1.601562 L 16.800781 1.601562 C 17.246094 1.601562 17.601562 1.953125 17.601562 2.398438 C 17.601562 2.847656 17.246094 3.199219 16.800781 3.199219 Z M 4.800781 14.398438 L 14.398438 14.398438 L 13.054688 21.121094 C 12.910156 21.855469 12.257812 22.398438 11.488281 22.398438 L 7.710938 22.398438 C 6.945312 22.398438 6.289062 21.855469 6.144531 21.121094 Z M 4.800781 14.398438 "/>
</svg>
