<?xml version="1.0" encoding="UTF-8"?>
<svg xmlns="http://www.w3.org/2000/svg" xmlns:xlink="http://www.w3.org/1999/xlink" width="24" height="24" viewBox="0 0 24 24">
<path fill-rule="nonzero" fill="rgb(0%, 0%, 0%)" fill-opacity="1" d="M 17.601562 14.273438 L 19.375 21.359375 C 19.503906 21.886719 19.183594 22.433594 18.640625 22.574219 C 18.113281 22.703125 17.566406 22.382812 17.425781 21.839844 L 15.839844 15.457031 C 15.054688 15.742188 14.113281 15.902344 12.992188 15.96875 C 12.992188 15.984375 13.007812 15.984375 13.007812 16 L 13.007812 21.601562 C 13.007812 22.160156 12.558594 22.609375 12 22.609375 C 11.441406 22.609375 11.007812 22.160156 11.007812 21.601562 L 11.007812 16 C 11.007812 15.984375 11.007812 15.984375 11.007812 15.96875 C 9.886719 15.902344 8.945312 15.742188 8.160156 15.457031 L 6.574219 21.839844 C 6.433594 22.382812 5.886719 22.703125 5.359375 22.574219 C 4.816406 22.433594 4.496094 21.886719 4.625 21.359375 L 6.398438 14.273438 L 6.398438 7.199219 L 17.601562 7.199219 Z M 12 1.601562 L 19.199219 4.800781 L 19.199219 6.398438 L 4.800781 6.398438 L 4.800781 4.800781 Z M 12 1.601562 "/>
</svg>
