<?xml version="1.0" encoding="UTF-8"?>
<svg xmlns="http://www.w3.org/2000/svg" xmlns:xlink="http://www.w3.org/1999/xlink" width="24" height="24" viewBox="0 0 24 24">
<path fill-rule="nonzero" fill="rgb(0%, 0%, 0%)" fill-opacity="1" d="M 12 6.398438 L 12 8 L 6.398438 8 C 4.800781 8 3.199219 9.601562 3.199219 11.199219 L 3.199219 14.398438 L 2.398438 14.398438 C 2 14.398438 1.601562 14.800781 1.601562 15.199219 L 1.601562 16 L 8 16 L 8 15.199219 C 8 14.800781 7.601562 14.398438 7.199219 14.398438 L 6.398438 14.398438 L 6.398438 11.199219 C 6.398438 11.199219 9.070312 11.199219 11.199219 11.199219 L 11.199219 20.800781 L 7.199219 20.800781 C 6.800781 20.800781 6.398438 21.199219 6.398438 21.601562 L 6.398438 22.398438 L 19.199219 22.398438 L 19.199219 21.601562 C 19.199219 21.199219 18.800781 20.800781 18.398438 20.800781 L 14.398438 20.800781 L 14.398438 6.398438 C 14.398438 6.398438 17.601562 6.398438 17.601562 11.199219 C 17.601562 16 22.398438 17.601562 22.398438 17.601562 L 22.398438 15.199219 C 22.398438 15.199219 19.199219 14.398438 19.199219 9.601562 C 19.199219 1.601562 13.601562 1.601562 12 1.601562 C 10.671875 1.601562 9.601562 2.671875 9.601562 4 C 9.601562 5.328125 10.671875 6.398438 12 6.398438 Z M 12 6.398438 "/>
</svg>
