<?xml version="1.0" encoding="UTF-8"?>
<svg xmlns="http://www.w3.org/2000/svg" xmlns:xlink="http://www.w3.org/1999/xlink" width="24" height="24" viewBox="0 0 24 24">
<path fill-rule="nonzero" fill="rgb(0%, 0%, 0%)" fill-opacity="1" d="M 23.039062 23.519531 C 22.554688 23.519531 22.09375 23.410156 21.679688 23.222656 C 21.253906 23.027344 20.773438 22.90625 20.28125 22.90625 C 19.78125 22.90625 19.300781 23.019531 18.878906 23.222656 C 18.464844 23.410156 18 23.519531 17.519531 23.519531 C 17.035156 23.519531 16.570312 23.410156 16.15625 23.222656 C 15.734375 23.027344 15.253906 22.90625 14.753906 22.90625 C 14.261719 22.90625 13.78125 23.019531 13.359375 23.222656 C 12.945312 23.410156 12.480469 23.519531 11.996094 23.519531 C 11.511719 23.519531 11.050781 23.410156 10.636719 23.222656 C 10.214844 23.027344 9.734375 22.90625 9.234375 22.90625 C 8.742188 22.90625 8.261719 23.019531 7.832031 23.222656 C 7.421875 23.410156 6.960938 23.519531 6.480469 23.519531 C 5.996094 23.519531 5.535156 23.410156 5.121094 23.222656 C 4.699219 23.027344 4.21875 22.90625 3.71875 22.90625 C 3.226562 22.90625 2.746094 23.019531 2.320312 23.222656 C 1.90625 23.410156 1.445312 23.519531 0.960938 23.519531 L 0.960938 21.464844 C 1.445312 21.464844 1.90625 21.355469 2.320312 21.167969 C 2.746094 20.976562 3.226562 20.859375 3.71875 20.859375 C 4.21875 20.859375 4.699219 20.976562 5.121094 21.167969 C 5.535156 21.355469 5.996094 21.46875 6.480469 21.46875 C 6.960938 21.46875 7.421875 21.359375 7.832031 21.171875 C 8.261719 20.980469 8.742188 20.867188 9.234375 20.867188 C 9.734375 20.867188 10.214844 20.980469 10.636719 21.171875 C 11.050781 21.359375 11.511719 21.476562 11.996094 21.476562 C 12.480469 21.476562 12.945312 21.363281 13.359375 21.175781 C 13.78125 20.984375 14.261719 20.871094 14.753906 20.871094 C 15.253906 20.871094 15.734375 20.984375 16.15625 21.175781 C 16.570312 21.363281 17.035156 21.480469 17.519531 21.480469 C 18 21.480469 18.464844 21.371094 18.878906 21.183594 C 19.300781 20.992188 19.78125 20.875 20.28125 20.875 C 20.773438 20.875 21.253906 20.992188 21.679688 21.183594 C 22.09375 21.371094 22.554688 21.484375 23.039062 21.484375 L 23.039062 23.539062 Z M 14.121094 19.28125 C 14.332031 19.238281 14.539062 19.214844 14.753906 19.214844 C 15.253906 19.214844 15.734375 19.328125 16.15625 19.523438 C 16.570312 19.707031 17.035156 19.820312 17.519531 19.820312 C 18 19.820312 18.464844 19.707031 18.878906 19.523438 C 19.171875 19.390625 19.484375 19.285156 19.820312 19.238281 C 19.636719 13.734375 13.929688 8.816406 13.660156 8.5625 C 13.382812 8.308594 13.125 7.753906 13.304688 7.089844 L 14.667969 2.554688 C 14.914062 1.851562 14.789062 0.910156 14.457031 0.628906 C 14.265625 0.476562 13.859375 0.363281 13.585938 0.675781 L 9.898438 4.886719 C 9.089844 5.75 9.769531 6.671875 9.75 6.667969 C 8.496094 6.210938 7.023438 6.519531 6.128906 6.886719 L 3.082031 8.441406 C 2.777344 8.574219 2.648438 8.957031 2.808594 9.214844 C 3.3125 10.03125 4.992188 10.035156 8.488281 9.652344 C 14.132812 9.042969 14.136719 18.148438 14.132812 19.273438 Z M 14.121094 19.28125 "/>
</svg>
