<?xml version="1.0" encoding="UTF-8"?>
<svg xmlns="http://www.w3.org/2000/svg" xmlns:xlink="http://www.w3.org/1999/xlink" width="24" height="24" viewBox="0 0 24 24">
<path fill-rule="nonzero" fill="rgb(0%, 0%, 0%)" fill-opacity="1" d="M 7.96875 4.511719 L 8.640625 3.695312 C 9.054688 3.199219 9.777344 3.054688 10.367188 3.359375 L 17.617188 7.199219 C 17.695312 7.246094 17.777344 7.296875 17.839844 7.34375 C 18.449219 7.824219 18.542969 8.703125 18.0625 9.296875 L 16.320312 11.472656 L 20.542969 12.527344 C 21.296875 12.703125 21.742188 13.472656 21.550781 14.207031 L 19.585938 22.097656 C 19.535156 22.289062 19.441406 22.464844 19.296875 22.609375 C 18.863281 23.039062 18.160156 23.039062 17.710938 22.609375 C 16.847656 21.742188 16.511719 20.496094 16.800781 19.3125 L 17.710938 15.648438 L 14.574219 15.648438 C 14.800781 16.304688 14.929688 17.007812 14.929688 17.726562 C 14.929688 21.199219 12.128906 24 8.671875 24 C 5.199219 24 2.398438 21.199219 2.398438 17.726562 C 2.398438 14.273438 5.199219 11.472656 8.671875 11.472656 C 9.023438 11.472656 9.390625 11.503906 9.726562 11.550781 L 12.144531 7.984375 L 10.367188 7.105469 L 8.289062 9.679688 C 7.679688 10.414062 6.59375 10.527344 5.839844 9.9375 C 5.089844 9.328125 4.976562 8.222656 5.585938 7.472656 Z M 17.648438 5.839844 C 16.03125 5.839844 14.71875 4.527344 14.71875 2.929688 C 14.71875 1.3125 16.03125 0 17.648438 0 C 19.246094 0 20.558594 1.3125 20.558594 2.929688 C 20.558594 4.527344 19.246094 5.839844 17.648438 5.839844 Z M 8.671875 20.511719 C 10.207031 20.511719 11.457031 19.265625 11.457031 17.726562 C 11.457031 16.191406 10.207031 14.945312 8.671875 14.945312 C 7.136719 14.945312 5.886719 16.191406 5.886719 17.726562 C 5.886719 19.265625 7.136719 20.511719 8.671875 20.511719 Z M 8.671875 20.511719 "/>
</svg>
