<?xml version="1.0" encoding="UTF-8"?>
<svg xmlns="http://www.w3.org/2000/svg" xmlns:xlink="http://www.w3.org/1999/xlink" width="24" height="24" viewBox="0 0 24 24">
<path fill-rule="nonzero" fill="rgb(0%, 0%, 0%)" fill-opacity="1" d="M 23.039062 23.519531 C 22.558594 23.519531 22.09375 23.410156 21.679688 23.226562 C 21.257812 23.03125 20.777344 22.921875 20.28125 22.921875 C 19.785156 22.921875 19.304688 23.035156 18.882812 23.226562 C 18.464844 23.410156 18.003906 23.519531 17.519531 23.519531 C 17.035156 23.519531 16.574219 23.410156 16.160156 23.226562 C 15.738281 23.03125 15.257812 22.921875 14.761719 22.921875 C 14.265625 22.921875 13.785156 23.035156 13.363281 23.226562 C 12.949219 23.410156 12.484375 23.519531 12.003906 23.519531 C 11.523438 23.519531 11.058594 23.410156 10.644531 23.226562 C 10.21875 23.03125 9.742188 22.921875 9.246094 22.921875 C 8.746094 22.921875 8.269531 23.035156 7.847656 23.226562 C 7.433594 23.410156 6.96875 23.519531 6.488281 23.519531 C 6.003906 23.519531 5.542969 23.410156 5.132812 23.226562 C 4.707031 23.03125 4.230469 22.921875 3.730469 22.921875 C 3.230469 22.921875 2.753906 23.035156 2.332031 23.226562 C 1.921875 23.410156 1.453125 23.519531 0.972656 23.519531 L 0.972656 21.511719 C 1.460938 21.511719 1.921875 21.402344 2.332031 21.222656 C 2.753906 21.027344 3.230469 20.917969 3.734375 20.917969 C 4.234375 20.917969 4.707031 21.035156 5.136719 21.222656 C 5.546875 21.402344 6.015625 21.511719 6.496094 21.511719 C 6.972656 21.511719 7.441406 21.402344 7.851562 21.222656 C 8.28125 21.027344 8.753906 20.917969 9.253906 20.917969 C 9.753906 20.917969 10.230469 21.035156 10.65625 21.222656 C 11.070312 21.402344 11.535156 21.511719 12.015625 21.511719 C 12.5 21.511719 12.964844 21.402344 13.371094 21.222656 C 13.800781 21.027344 14.28125 20.917969 14.773438 20.917969 C 15.273438 20.917969 15.753906 21.035156 16.175781 21.222656 C 16.589844 21.402344 17.054688 21.511719 17.535156 21.511719 C 18.019531 21.511719 18.480469 21.402344 18.898438 21.222656 C 19.320312 21.027344 19.800781 20.917969 20.292969 20.917969 C 20.792969 20.917969 21.273438 21.035156 21.695312 21.222656 C 22.109375 21.402344 22.574219 21.511719 23.054688 21.511719 L 23.054688 23.519531 Z M 3.332031 11.910156 C 4.070312 11.910156 4.671875 11.320312 4.671875 10.59375 C 4.671875 9.867188 4.070312 9.277344 3.332031 9.277344 C 2.59375 9.277344 1.996094 9.867188 1.996094 10.59375 C 1.996094 11.320312 2.597656 11.910156 3.332031 11.910156 Z M 9.210938 17.761719 L 5.386719 17.761719 C 4.824219 17.761719 4.335938 17.492188 4.113281 17.011719 L 2.699219 13.867188 C 2.667969 13.761719 2.65625 13.664062 2.65625 13.550781 C 2.65625 12.789062 3.28125 12.175781 4.054688 12.175781 L 7.167969 12.175781 L 9.296875 11.226562 C 9.332031 11.207031 9.417969 11.183594 9.511719 11.183594 C 9.878906 11.183594 10.179688 11.480469 10.179688 11.839844 C 10.179688 12.0625 10.066406 12.265625 9.894531 12.382812 L 7.574219 13.359375 C 7.421875 13.476562 7.128906 13.441406 7.128906 13.441406 L 5.730469 13.441406 L 6.902344 16.320312 L 9.488281 16.320312 C 9.742188 16.320312 9.925781 16.300781 10.078125 16.433594 L 12.613281 18.753906 C 12.96875 19.074219 12.988281 19.597656 12.65625 19.949219 C 12.328125 20.292969 11.769531 20.246094 11.414062 19.921875 L 9.210938 17.765625 Z M 21.132812 13.578125 C 21.183594 13.660156 21.300781 13.695312 21.414062 13.695312 C 21.625 13.695312 21.800781 13.523438 21.800781 13.304688 C 21.800781 13.203125 21.753906 13.109375 21.699219 13.023438 C 19.308594 8.535156 12.855469 9.867188 12.0625 10.160156 C 11.933594 10.210938 11.855469 10.359375 11.855469 10.503906 C 11.855469 10.714844 12.035156 10.886719 12.246094 10.886719 C 12.3125 10.886719 12.34375 10.882812 12.402344 10.867188 C 18.734375 9.464844 20.796875 13.011719 21.132812 13.585938 Z M 22.234375 13.988281 L 14.136719 19.011719 L 6.761719 0.484375 C 13.359375 1.34375 21.75 6.390625 22.234375 13.988281 Z M 22.234375 13.988281 "/>
</svg>
