<?xml version="1.0" encoding="UTF-8"?>
<svg xmlns="http://www.w3.org/2000/svg" xmlns:xlink="http://www.w3.org/1999/xlink" width="24" height="24" viewBox="0 0 24 24">
<path fill-rule="nonzero" fill="rgb(0%, 0%, 0%)" fill-opacity="1" d="M 7.726562 0 L 6.128906 1.601562 L 10.398438 5.871094 L 11.472656 3.726562 Z M 5.871094 1.871094 L 5.070312 2.671875 L 9.601562 7.199219 L 10.398438 6.398438 Z M 18.671875 1.871094 L 14.128906 6.398438 L 14.929688 7.199219 L 19.472656 2.671875 Z M 19.726562 2.929688 L 15.472656 7.199219 L 17.601562 8.273438 L 21.328125 4.527344 Z M 12.273438 5.070312 L 7.28125 10.046875 L 6.929688 9.871094 L 3.199219 13.601562 L 4.800781 15.199219 L 6.832031 13.167969 L 6.769531 13.761719 L 5.070312 15.472656 L 5.871094 16.273438 L 6.542969 15.585938 L 5.871094 21.328125 C 3.199219 21.871094 1.601562 24 1.601562 24 L 22.929688 24 C 22.929688 24 21.328125 21.871094 18.671875 21.328125 L 18.128906 16.800781 L 18.398438 16.527344 L 18.0625 16.257812 L 17.984375 15.585938 L 18.671875 16.273438 L 19.472656 15.472656 L 17.761719 13.761719 L 17.328125 10.128906 Z M 11.472656 11.199219 L 13.070312 11.199219 L 13.601562 14.398438 L 10.929688 14.398438 Z M 11.472656 11.199219 "/>
</svg>
