<?xml version="1.0" encoding="UTF-8" standalone="no"?>
<svg
   viewBox="0 0 22.596535 28.629784"
   version="1.1"
   id="svg1"
   sodipodi:docname="bus.svg"
   inkscape:version="1.3.2 (091e20e, 2023-11-25, custom)"
   width="22.596535"
   height="28.629784"
   xmlns:inkscape="http://www.inkscape.org/namespaces/inkscape"
   xmlns:sodipodi="http://sodipodi.sourceforge.net/DTD/sodipodi-0.dtd"
   xmlns="http://www.w3.org/2000/svg"
   xmlns:svg="http://www.w3.org/2000/svg">
  <defs
     id="defs1" />
  <sodipodi:namedview
     id="namedview1"
     pagecolor="#ffffff"
     bordercolor="#666666"
     borderopacity="1.0"
     inkscape:showpageshadow="2"
     inkscape:pageopacity="0.0"
     inkscape:pagecheckerboard="0"
     inkscape:deskcolor="#d1d1d1"
     inkscape:zoom="9.6755778"
     inkscape:cx="-4.340826"
     inkscape:cy="15.451274"
     inkscape:window-width="1920"
     inkscape:window-height="1017"
     inkscape:window-x="-8"
     inkscape:window-y="-8"
     inkscape:window-maximized="1"
     inkscape:current-layer="svg1" />
  <path
     id="path3-8"
     style="color:#000000;fill:#1a1a1a;stroke-width:3.77953;stroke-linecap:round;-inkscape-stroke:none;paint-order:stroke fill markers"
     d="m 4.5987776,0.6126236 c -2.510589,0 -4.5917855,2.0890205 -4.5917855,4.5996095 V 18.704428 c 0,1.46366 0.7095685,2.778634 1.796863,3.623018 h 0.00197 l 0.015118,0.01134 c 0.1904875,0.147024 0.3894795,0.284221 0.6015495,0.400404 7.56e-4,4.15e-4 0.0012,0.0015 0.002,0.0019 l 8.8730464,5.888693 8.884762,-5.89062 0.0189,-0.01134 c 0.196535,-0.10885 0.382337,-0.235465 0.560541,-0.37115 l 0.0378,-0.02646 h -0.0038 c 1.08926,-0.844271 1.800794,-2.159811 1.800794,-3.624983 V 5.2130651 c 0,-2.5105895 -2.081197,-4.59961 -4.591786,-4.59961 z m 0,4.2441445 H 18.0031 c 0.234331,0 0.355275,0.119434 0.355275,0.353386 V 18.704315 c 0,0.234331 -0.1217,0.355654 -0.355275,0.355654 H 4.5987776 c -0.23433,0 -0.355275,-0.121701 -0.355275,-0.355654 V 5.2101541 c 0,-0.23433 0.121323,-0.353386 0.355275,-0.353386 z" />
  <path
     id="path3"
     style="color:#000000;fill:#ffffff;stroke-width:3.77953;stroke-linecap:round;-inkscape-stroke:none;paint-order:stroke fill markers"
     d="M 4.5917856,0 C 2.0811966,0 0,2.0890205 0,4.5996091 V 18.091805 c 0,1.46366 0.7095685,2.778633 1.796863,3.623017 h 0.00197 l 0.015118,0.01134 c 0.1904886,0.147023 0.3894806,0.28422 0.6015496,0.400403 7.56e-4,4.16e-4 0.0012,0.0015 0.002,0.0019 l 8.8730464,5.888693 8.884761,-5.89062 0.0189,-0.01134 c 0.196535,-0.10885 0.382337,-0.235464 0.560541,-0.371149 l 0.0378,-0.02646 h -0.0038 c 1.089259,-0.844271 1.800794,-2.159811 1.800794,-3.624983 V 4.6004411 c 0,-2.5105891 -2.081197,-4.5996096 -4.591786,-4.5996096 z m 0,4.2441451 H 17.996108 c 0.23433,0 0.355275,0.119433 0.355275,0.353386 V 18.091691 c 0,0.234331 -0.121701,0.355654 -0.355275,0.355654 H 4.5917856 c -0.23433,0 -0.355275,-0.121701 -0.355275,-0.355654 V 4.5975311 c 0,-0.234331 0.121323,-0.353386 0.355275,-0.353386 z" />
  <path
     style="color:#000000;fill:#027df3;stroke-width:3.77953;stroke-linecap:round;-inkscape-stroke:none;paint-order:stroke fill markers"
     d="M 4.5943556,2.1228095 H 17.993122 c 1.372422,0 2.477291,1.1048696 2.477291,2.4772916 V 18.089386 c 0,1.372422 -1.104869,2.477291 -2.477291,2.477291 H 4.5943556 c -1.372422,0 -2.477291,-1.104869 -2.477291,-2.477291 V 4.6001011 c 0,-1.372422 1.104869,-2.4772916 2.477291,-2.4772916 z"
     id="path4" />
  <path
     d="m 5.2506706,6.3777261 c 0,-1.20858 0.988838,-2.197493 2.197455,-2.197493 h 7.6912264 c 1.208655,0 2.197493,0.988913 2.197493,2.197493 v 8.7900089 c 0,1.098747 -1.098747,1.098747 -1.098747,1.098747 v 1.098709 c 0,0 0,1.098746 -1.098746,1.098746 -1.098709,0 -1.098709,-1.098746 -1.098709,-1.098746 V 16.266482 H 8.5468726 v 1.098709 c 0,0 0,1.098746 -1.098747,1.098746 -1.098708,0 -1.098708,-1.098746 -1.098708,-1.098746 v -1.098709 c -1.098747,0 -1.098747,-1.098747 -1.098747,-1.098747 v -4.175281 z m 1.648101,1.098784 c -0.307653,0 -0.549354,0.241512 -0.549354,0.549317 v 3.2962769 c 0,0.307276 0.241512,0.549354 0.549354,0.549354 h 8.7899724 c 0.307653,0 0.549354,-0.241512 0.549354,-0.549354 V 8.0258271 c 0,-0.307654 -0.241512,-0.549317 -0.549354,-0.549317 z m 0.549354,5.4936949 c -0.604308,0 -1.098708,0.494475 -1.098708,1.098784 0,0.604271 0.494438,1.098746 1.098708,1.098746 0.604347,0 1.098747,-0.494475 1.098747,-1.098746 0,-0.604309 -0.494476,-1.098784 -1.098747,-1.098784 z m 7.6912264,0 c -0.604309,0 -1.098709,0.494475 -1.098709,1.098784 0,0.604271 0.494438,1.098746 1.098709,1.098746 0.604346,0 1.098746,-0.494475 1.098746,-1.098746 0,-0.604309 -0.494438,-1.098784 -1.098746,-1.098784 z M 7.4481256,5.8283341 c 0,0.307653 0.24189,0.549392 0.549393,0.549392 h 6.5924784 c 0.307276,0 0.549355,-0.241512 0.549355,-0.549392 0,-0.307276 -0.241512,-0.549355 -0.549355,-0.549355 H 7.9975186 c -0.307654,0 -0.549393,0.241512 -0.549393,0.549355 z"
     id="path1-0-2"
     style="fill:#ffffff;stroke-width:1.09875" />
</svg>
