<?xml version="1.0" encoding="UTF-8" standalone="no"?>
<!-- Created with Inkscape (http://www.inkscape.org/) -->

<svg
   width="8.000001mm"
   height="8mm"
   viewBox="0 0 8.0000008 7.9999999"
   version="1.1"
   id="svg1"
   xml:space="preserve"
   inkscape:version="1.3.2 (091e20e, 2023-11-25, custom)"
   sodipodi:docname="yellow_white___m_yellow.svg"
   xmlns:inkscape="http://www.inkscape.org/namespaces/inkscape"
   xmlns:sodipodi="http://sodipodi.sourceforge.net/DTD/sodipodi-0.dtd"
   xmlns="http://www.w3.org/2000/svg"
   xmlns:svg="http://www.w3.org/2000/svg"><sodipodi:namedview
     id="namedview1"
     pagecolor="#ffffff"
     bordercolor="#666666"
     borderopacity="1.0"
     inkscape:showpageshadow="2"
     inkscape:pageopacity="0.0"
     inkscape:pagecheckerboard="0"
     inkscape:deskcolor="#d1d1d1"
     inkscape:document-units="mm"
     inkscape:zoom="1.0343421"
     inkscape:cx="118.91617"
     inkscape:cy="-48.823307"
     inkscape:window-width="1920"
     inkscape:window-height="1017"
     inkscape:window-x="-8"
     inkscape:window-y="-8"
     inkscape:window-maximized="1"
     inkscape:current-layer="layer1" /><defs
     id="defs1" /><g
     inkscape:label="Layer 1"
     inkscape:groupmode="layer"
     id="layer1"
     transform="translate(-86.182705,-65.200985)"><rect
       style="fill:#f9f9f9;stroke:#1a1a1a;stroke-width:0.482612;stroke-linecap:round;stroke-dasharray:none;paint-order:stroke fill markers"
       id="rect5"
       width="7.5173888"
       height="7.5173883"
       x="86.424011"
       y="65.442291" /><path
       id="path1"
       style="fill:#ffcc00;stroke-width:0.0700038"
       d="m 91.496798,67.324873 c -0.316003,0.015 -0.577781,0.118508 -0.745033,0.294613 l -0.06067,0.06389 0.04866,0.106284 0.04866,0.106282 0.06252,-0.073 c 0.133163,-0.155572 0.341537,-0.244464 0.571461,-0.243749 0.251887,6.93e-4 0.40665,0.118403 0.498277,0.378756 0.01274,0.03621 0.02384,0.496043 0.03133,1.297068 0.01238,1.322633 0.01208,1.317992 0.106285,1.500264 0.07766,0.15024 0.244462,0.266908 0.435406,0.304596 0.04309,0.0085 0.230467,0.01636 0.416379,0.01748 l 0.338024,0.0022 v -0.04442 c 0,-0.04272 -0.0058,-0.04465 -0.152806,-0.05118 -0.199055,-0.0088 -0.285706,-0.05008 -0.342653,-0.163011 l -0.04168,-0.08262 -3.64e-4,-1.269468 c -2.3e-4,-1.047476 -0.0051,-1.292099 -0.02767,-1.399083 -0.105892,-0.502054 -0.541169,-0.775343 -1.186125,-0.74474 z m -2.008674,0.004 c -0.263348,8.5e-5 -0.378023,0.0229 -0.564914,0.112326 -0.164382,0.07866 -0.284052,0.182437 -0.398727,0.345729 -0.08873,0.126349 -0.09071,0.12783 -0.101835,0.07615 -0.04152,-0.192971 -0.130791,-0.32102 -0.268093,-0.384581 -0.07636,-0.03535 -0.123366,-0.0391 -0.560286,-0.0446 l -0.476936,-0.0059 v 0.04768 c 0,0.04689 0.0022,0.04771 0.135585,0.04771 0.161321,0 0.305316,0.03884 0.360089,0.09713 0.09973,0.106152 0.09703,0.05987 0.09703,1.670722 0,1.666963 0.0037,1.617294 -0.122638,1.670073 -0.03374,0.01409 -0.07831,0.02567 -0.09901,0.02567 -0.02779,0 -0.03766,0.01211 -0.03766,0.0463 v 0.04627 h 0.629741 0.629742 v -0.0463 c 0,-0.03468 -0.0097,-0.04631 -0.03885,-0.04631 -0.02139,0 -0.06684,-0.01322 -0.101,-0.02942 -0.124302,-0.05899 -0.12309,-0.04483 -0.114463,-1.35202 0.0083,-1.261354 0.0085,-1.264286 0.114532,-1.528554 0.07674,-0.191361 0.196731,-0.326472 0.367039,-0.413304 0.124463,-0.06346 0.162601,-0.0738 0.298228,-0.08092 0.198468,-0.01042 0.31402,0.02515 0.417282,0.128424 0.141557,0.141557 0.185204,0.363509 0.186449,0.948156 l 7.31e-4,0.293165 -0.248129,-0.006 c -0.280324,-0.0068 -0.309013,-0.01905 -0.347643,-0.147993 -0.01679,-0.05612 -0.03045,-0.07104 -0.06468,-0.07104 h -0.04337 v 0.416739 0.416741 h 0.04337 c 0.03447,0 0.0479,-0.01504 0.0653,-0.07311 0.03886,-0.129708 0.08418,-0.149151 0.347608,-0.149151 h 0.229025 v 0.75527 c 0,0.654431 -0.0038,0.760787 -0.02892,0.796547 -0.03409,0.0487 -0.120349,0.09663 -0.173893,0.09663 -0.02814,0 -0.03799,0.01197 -0.03799,0.0463 v 0.04631 h 0.629742 0.62974 v -0.04631 c 0,-0.0342 -0.0098,-0.0463 -0.03763,-0.0463 -0.0207,0 -0.06683,-0.01223 -0.102521,-0.02713 -0.11668,-0.04875 -0.119162,-0.06704 -0.119162,-0.889118 v -0.73219 h 0.241724 c 0.17297,0 0.256206,0.0075 0.292734,0.02637 0.0533,0.02756 0.09528,0.09794 0.09528,0.159715 0,0.02623 0.01274,0.03617 0.04631,0.03617 h 0.04631 V 69.14404 68.7273 h -0.04631 c -0.03359,0 -0.04631,0.0099 -0.04631,0.03614 0,0.06177 -0.04198,0.132147 -0.09528,0.159714 -0.03652,0.0189 -0.119764,0.0264 -0.292734,0.0264 h -0.241724 l -3.65e-4,-0.356543 c -0.0011,-0.594315 -0.03761,-0.740518 -0.234959,-0.937485 -0.126018,-0.125772 -0.293771,-0.223449 -0.48685,-0.28347 -0.114343,-0.03555 -0.179866,-0.04314 -0.370436,-0.04308 z" /></g></svg>
